<svg xmlns="http://www.w3.org/2000/svg" viewBox="0 0 372 372"><path d="M233.159 149.696c23.901 0 43.346-19.445 43.346-43.346s-19.444-43.347-43.346-43.347-43.347 19.445-43.347 43.347 19.446 43.346 43.347 43.346zm0-66.693c12.873 0 23.346 10.473 23.346 23.347 0 12.873-10.473 23.346-23.346 23.346s-23.347-10.473-23.347-23.346c.001-12.873 10.474-23.347 23.347-23.347z"/><path d="M186 0C83.439 0 0 83.439 0 186c0 32.194 8.225 62.502 22.68 88.938a9.946 9.946 0 0 0 1.075 1.921C55.648 333.586 116.418 372 186 372c102.561 0 186-83.439 186-186S288.561 0 186 0zm0 20c85.566 0 156.21 65.076 165.059 148.333H168.396c-12.476-14.882-29.879-23.159-47.054-25.57v-2.899c0-5.523-4.478-10-10-10s-10 4.477-10 10v2.725c-17.596 2.166-35.572 10.483-48.367 25.743H20.941C29.79 85.076 100.434 20 186 20zm-25.27 173.433H60.641c10.204-22.949 32.322-31.43 50.045-31.43s39.84 8.481 50.044 31.43zm-140.7-5.1h21.097a82.31 82.31 0 0 0-3.943 12.988 9.999 9.999 0 0 0 9.774 12.112h54.384v47.647H37.975c-11.157-21.908-17.583-46.607-17.945-72.747zM186 352c-56.192 0-105.945-28.071-135.993-70.92h51.335v13.586h-2.243c-5.522 0-10 4.477-10 10s4.478 10 10 10h100.666c5.522 0 10-4.477 10-10s-4.478-10-10-10h-78.423V281.08h200.651C291.945 323.929 242.192 352 186 352zm79.37-135.738h83.857a164.842 164.842 0 0 1-1.228 6.004h-38.552c-5.522 0-10 4.477-10 10s4.478 10 10 10h32.73a165.109 165.109 0 0 1-8.151 18.814H121.342v-47.647h53.07a10 10 0 0 0 9.774-12.112 82.31 82.31 0 0 0-3.943-12.988H351.97a167.767 167.767 0 0 1-.297 7.928H265.37c-5.522 0-10 4.477-10 10s4.478 10.001 10 10.001z"/></svg>