<svg version="1.0" xmlns="http://www.w3.org/2000/svg" width="1200" height="848" viewBox="0 0 12000 8480"><g fill="#020202"><path d="M2205 6741c-91-22-180-94-222-179l-28-57-5-519-5-519-56-17a1717 1717 0 01-504-267c-112-86-229-197-315-301l-80-96 37-38c51-52 161-124 236-155l62-26 115-1 115-1 65 31c36 17 103 60 150 96 47 35 106 77 133 91l47 27v-237l-42-13c-78-25-142-58-208-107-173-129-206-144-327-144-146 0-270 59-416 200l-68 65-37-37-36-37 39-41c92-95 260-202 375-239 66-21 180-24 250-6 87 22 128 44 240 128 95 71 180 118 213 118h17v-739l22-58c14-39 37-74 72-108 70-69 131-96 233-103l81-5 7-44c8-54 63-116 118-131 83-23 179 43 192 133l7 45h256l7-46c5-34 16-55 43-82 97-97 225-63 268 71l18 57h2255l21-72c117-410 291-804 472-1071 22-32 37-62 33-65-4-4-43-7-88-6h-82l-70 34c-58 27-92 54-194 157-68 68-126 122-128 120-2-3 3-36 12-73 46-204 187-347 357-361l72-6-38-33c-110-95-270-180-404-216-59-15-109-20-217-19-182 0-239 10-634 121-101 28-185 49-188 47-8-9 91-129 159-192 139-128 318-228 488-271 105-27 339-27 425 0 79 24 193 77 247 114 66 46 162 145 211 220 41 62 98 180 110 227 10 39-5-91-19-170-63-336-211-536-534-722-81-46-286-149-432-215-37-17-65-34-63-38 12-20 141-35 290-34l160 1 102 26c409 105 682 420 684 789l1 88 42-58a802 802 0 01777-317c218 36 416 136 582 294 55 52 164 188 156 195-2 2-76-19-164-45-444-135-646-163-852-119-192 40-370 146-570 337l-78 74 75-61a802 802 0 01667-186c312 55 565 288 700 644 28 74 63 242 63 300v37l-68-70-187-200c-227-243-388-358-587-416-83-24-311-36-413-22l-60 9 38 18a393 393 0 01197 331c0 98-50 237-110 305l-31 35 4-115c12-281-32-404-182-515l-50-36-45 12c-25 6-49 16-54 23-18 22-102 254-136 373-59 204-136 637-136 760v33h2707l7-141c4-77 6-142 4-144-3-3-37 10-286 115l-103 43-17-16a588 588 0 01189-776c93-62 194-91 319-92 198-1 374 92 481 256 42 64 83 161 75 180-2 7-32 22-66 35-33 13-58 26-53 30 6 5 379 80 515 104 5 0 44-80 88-179a20597 20597 0 01172-380l60-135c58-131 181-176 297-109 93 53 268 246 443 488 71 97 83 135 52 165-8 9-28 16-44 16h-29l-92-122c-219-291-354-432-430-451-37-9-67 27-117 143a8132 8132 0 01-122 275l-39 87c-85 180-101 222-91 228 6 4 66 17 133 29 133 25 157 34 157 57 0 8-27 97-59 197l-66 204c-4 15 2 35 19 60 13 21 29 56 36 78 8 29 10 421 8 1425l-3 1385-23 46c-36 74-87 125-160 161l-67 33-3760 2c-2068 0-3773-2-3790-6zm6409-29c-31-24-44-55-44-99 0-115 162-156 215-53 26 50 20 97-19 136l-34 34h741l-26-20c-81-64-40-196 65-207a115 115 0 0185 203l-32 27 100-5c78-3 109-9 143-27 69-36 126-95 158-164l29-62V3725l-31-65c-20-41-34-59-37-50l-72 225-95 295-100 310-90 280-85 263-67 207h-21c-37 1-921-172-934-182-7-5-10-25-8-46l15-197 15-215 20-275 20-280 10-140 15-215c6-74 10-143 10-152v-18H5850v18l-11 161c-5 79-8 146-5 148 3 3 18-4 34-16a1129 1129 0 011417 182c170 183 259 382 286 643 27 254-35 515-171 721a1070 1070 0 01-904 493h-112l-52-26c-100-50-152-140-152-264 0-92 24-155 80-211 55-55 109-75 227-83a520 520 0 00418-801 523 523 0 00-927 117l-23 63-5 945-5 945-22 42a285 285 0 01-283 151c-116-7-201-61-248-160l-22-44v-972c0-535 2-977 5-982s12-101 20-213c22-306 34-422 56-532 20-101 64-280 75-309l6-16H3040v926l58 33c87 50 170 68 246 52 115-23 209-77 326-187 37-35 71-64 76-64 15 1 64 48 64 62 0 17-108 118-186 174-157 112-323 150-462 104-76-25-116-48-217-125-142-108-202-135-306-135-83 0-142 24-274 115-166 114-239 145-343 145h-62v239l43 12c50 13 140 0 203-30 22-11 96-57 164-103 148-99 199-118 321-118h89l63 29c34 16 103 61 152 100 125 99 160 114 265 115 86 1 99-2 209-52 62-28 96-23 113 14 10 22 8 33-12 71-52 98-288 316-455 420-302 189-641 274-945 238-69-8-144-19-168-24l-43-8 3 501 3 501 19 47c32 86 126 171 216 199 14 4 1467 8 3230 8l3205 1-21-18zm118-49c18-16 24-59 10-79-35-53-122-29-122 33 0 55 70 84 112 46zm841-15c17-23 19-31 9-53a63 63 0 00-82-33c-30 11-40 25-40 57 0 62 75 81 113 29zM2570 5385c188-41 379-127 553-249 116-81 257-203 257-223 0-11-5-13-17-8-35 15-136 17-192 5-84-19-182-73-250-138-41-40-133-91-182-102-102-23-162 0-365 136-141 96-193 114-323 114h-91v447l83 17 107 20c56 10 348-4 420-19zm-620-250v-224l-35-10c-34-9-143-71-168-95-36-36-130-98-180-121-63-27-156-34-218-14-59 18-177 81-201 106l-23 24 136 132c175 171 323 277 496 356 71 32 171 70 186 71 4 0 7-101 7-225zm7485-187l101-313 134-415 152-472c34-102 58-192 56-200-3-7-30-27-59-43-46-25-68-30-144-33l-90-4-23 57c-13 32-21 60-18 62 3 3 47 14 98 24 142 29 138 27 138 51 0 12-9 47-19 77l-86 266-115 360-99 305-86 267c-20 61-41 113-48 116-15 5-729-132-740-142-4-4-1-104 8-222l30-424 20-280c14-189 35-482 35-497 0-13-8-18-30-18-16 0-30 1-30 3l-76 1062c-24 328-29 428-19 430 13 4 827 162 841 164 6 0 37-81 69-181zm-104-63c20-58 33-108 30-110-10-6-332-67-335-64l-33 74c-37 84-67 111-106 96-49-19-54-50-18-126l31-70c0-5-241-48-244-44-2 2-6 54-9 115l-5 111 196 38c108 20 247 48 307 60 162 34 145 41 186-80zm106-332l143-443 114-353c13-37 21-69 17-71-12-7-201-40-204-35-19 26-447 992-442 998 7 7 258 58 295 60l26 1 51-157zm-480 9c13-32 36-81 50-111l43-95c9-23 27-61 38-86l156-345 134-300-21-7c-39-12-608-120-612-116-7 6-14 83-30 313l-30 420c-8 116-16 239-17 275l-3 65 125 26c69 14 129 23 133 21 5-2 20-29 34-60zm-6794-131c34-17 92-53 130-81l67-50v-833l-82 5c-64 4-95 11-134 31a386 386 0 00-160 175l-18 47-4 374-3 374 71-5c51-4 87-14 133-37zm775-253l-3-123-203-3-203-2 3-48 3-47 203-3 203-2-3-103-3-102-205-5-205-5-3-47-3-48 208-2 208-3 3-82 3-83h-469l-7 374c-4 206-5 379-1 384 4 8 22 6 54-3 62-19 195-19 251 1 65 22 129 52 136 64 3 5 13 10 21 10 12 0 14-20 12-122zm6492-665l19-43-257 1-257 1 210 44c116 23 223 42 238 41 23-2 32-10 47-44zm520-162c28-90 48-167 43-171-15-13-244-53-252-44-5 5-25 47-46 94a7069 7069 0 01-95 214c0 2 36 6 80 8 66 4 92 11 148 39 37 19 68 32 69 29l53-169zm-7370 81c0-24-36-62-59-62-21 0-46 26-54 58l-5 22h118v-18zm582-7c-5-28-37-55-63-55-19 0-59 45-59 66 0 10 17 14 64 14h63l-5-25zm5534 15c8-8 25-8 55-1 25 6 188 11 377 11h332l10-25 31-73 96-210c9-18 13-35 11-38-8-8-939-186-945-181-2 3-11 97-19 209-7 111-16 229-19 261l-5 57h33c18 0 38-5 43-10zm-452-203l18-13-20-59a475 475 0 01280-596c111-43 257-35 374 22 76 37 176 135 210 206 30 60 35 65 54 53 17-11-23-95-77-161a523 523 0 00-845 45 541 541 0 00-45 479c17 40 24 44 51 24zm213-91l128-54 8-93c10-120 14-136 31-142 7-3 93 10 191 29l177 34 44-19c24-11 44-24 44-28a443 443 0 00-267-253c-52-19-77-22-150-18-96 5-156 28-239 91a443 443 0 00-154 312c0 60 38 195 55 195l132-54z"/><path d="M4004 6696a913 913 0 01-483-250 918 918 0 01-288-626c-7-132 9-197 66-262 59-67 125-93 231-92 72 0 93 4 136 26 97 51 140 126 153 272 11 117 40 186 106 251 25 26 72 59 103 73l57 27h100c82 0 109-4 148-22 66-31 152-115 184-182l28-56 5-1015 5-1015 28-57c51-104 134-152 262-153 127 0 209 48 268 159l22 41v2080l-18 79a951 951 0 01-687 706c-110 27-325 35-426 16zM6270 6672l-22-18 30-124c17-69 33-142 36-162l5-38-39 22c-46 27-86 18-109-23-22-39-7-154 25-186l24-24 59 7 59 6 23-21c38-35 73-28 128 29 29 29 72 60 105 75l56 25v30c0 49-30 56-98 24l-63-31c-3-2-10 22-15 54l-9 58 27 52c36 70 53 156 42 213-8 38-13 45-35 48-38 4-53-21-54-91-1-42-9-78-24-112l-23-50-29 115c-34 137-53 160-99 122zm64-449c4-27 2-43-4-43-5 0-10 15-10 34s-3 43-6 53c-5 12-4 15 3 8 6-5 13-29 17-52zM7942 6669c-18-5-37-20-42-32s-16-92-25-177-20-193-26-238c-7-61-7-88 1-97 26-31 230-47 313-24 44 12 43-2 18 229l-27 243c-5 55-11 71-29 83-28 18-140 27-183 13zm106-26c-16-2-40-2-55 0-16 2-3 4 27 4s43-2 28-4zm25-22c50-12 52-15 33-43-22-31-20-45 9-70 20-17 25-31 25-70 0-35-4-48-15-48-8 0-19-10-26-21-15-28 3-69 30-69 28 0 35-16 17-42-13-18-16-19-16-6 0 44-70 65-90 28-25-47 22-94 66-65l25 16 19-23c33-39 26-46-32-36-29 6-97 8-150 6-97-5-117 1-78 22 21 11 28 64 10 75-19 11-10 25 15 25h26l-11-20c-16-29-3-59 27-66 34-9 57 6 61 39 4 28-30 59-55 50-13-5-13-3-3 17 17 32-1 70-35 70h-25v43c0 49 7 62 37 71 13 4 26 19 29 33 6 21 1 31-20 49l-27 23 28 7 38 9c18 6 50 5 88-4zm-120-63c7-21-4-38-23-38-10 0-20 6-23 13-7 20 4 37 23 37 10 0 20-6 23-12zm177-13c0-14-4-25-10-25-5 0-10 11-10 25s5 25 10 25c6 0 10-11 10-25zm-186-188c16-25-16-56-38-37-19 15-20 32-4 48 15 15 28 11 42-11zm206-12c0-25-23-35-35-15-10 16 2 40 20 40 9 0 15-9 15-25zm-153-99c-4-9-16-16-27-16-29 0-38 30-15 47 16 11 21 11 33-1 8-8 12-22 9-30zm110 18c3-8-2-23-11-32l-16-16-16 16c-21 21-11 48 16 48 11 0 23-7 27-16zm-217-29c0-14-4-25-10-25-5 0-10 11-10 25s5 25 10 25c6 0 10-11 10-25zm277-12c-3-10-5-4-5 12 0 17 2 24 5 18 2-7 2-21 0-30zm-10-84c21-8 24-12 14-22-16-16-235-15-275 2-16 6-26 14-22 18 22 23 225 24 283 2z"/><path d="M7994 6595l-16-25 16-25c19-29 47-32 70-9 21 21 20 47-2 67-26 24-49 21-68-8zm64-23c4-28-24-40-45-19-14 13-14 19-3 32 18 22 44 15 48-13zM7929 6479c-18-34 3-69 41-69 22 0 33 6 41 24 16 35-3 66-41 66-20 0-33-7-41-21zm61-4c17-20 5-45-20-45-11 0-23 7-26 15-6 15 11 45 26 45 4 0 13-7 20-15zM8052 6488c-21-21-15-68 11-77 44-17 86 39 57 75-15 17-52 18-68 2zm58-38c0-22-19-30-42-18-22 11-23 22-2 43 19 19 44 4 44-25zM7997 6392c-22-24-21-45 1-65 24-22 45-21 65 1 22 24 21 45-1 65-24 22-45 21-65-1zm61-28c4-27-26-40-46-20-21 20-8 48 20 44 14-2 24-11 26-24zM6810 6621v-50l194-243 194-243-25-33c-20-26-22-36-13-47 18-22 36-18 55 11l17 27 22-28c15-19 28-26 39-22 23 9 21 40-3 62-11 10-20 21-20 25s88 117 195 251l195 244v96l-22-3c-18-2-24-11-26-37-2-21-18-52-40-79l-37-45-5 79-5 79-292 3-293 2v-80c0-44-3-80-7-80-18 1-72 88-75 120-2 27-8 36-25 38l-23 3v-50zm330-77c0-89 9-111 57-130 28-12 42-13 69-4 47 16 64 53 64 140v70h150v-185l-119-148-123-153c-3-3-60 64-127 147l-121 153v186h150v-76zm128-1l-3-78-24-3c-36-6-51 22-51 95v63h81l-3-77zM2757 6642c-22-25-21-75 1-95l19-17h420l16 18c22 25 21 75-1 95l-19 17h-420l-16-18zM8411 6611c-11-7-13-38-8-157 5-147 19-227 54-306l16-38h1041l93 93 132 128c28 25 41 47 46 75 4 21 14 47 23 57l15 17-12 55c-16 72-32 87-89 83l-45-3-26-48c-33-61-72-87-132-87s-108 32-128 85c-8 22-20 43-25 47-6 4-123 8-261 8-137 0-255-4-261-8-7-4-18-23-27-42-8-19-27-46-42-60-22-21-36-25-90-25s-68 4-90 25c-15 14-34 41-42 60-9 19-20 38-27 42-15 11-98 10-115-1zm784-281c-3-5-17-10-30-10s-27 5-30 10c-4 6 8 10 30 10s34-4 30-10zm165 0c0-5-11-10-24-10-14 0-28 5-31 10-4 6 7 10 24 10s31-4 31-10zm200-105l-75-76-90 3-90 3v120l50 3c28 2 54 7 60 13 5 5 56 9 114 9h105l-74-75zm-730-10v-65h-279l-11 20c-6 10-13 40-16 65l-7 45h313v-65zm378 12c5-76 2-77-174-77h-154v130l163-2 162-3 3-48zM2206 6559c-35-28-34-69 3-111l29-33-29-33c-37-42-38-83-3-111 15-12 34-21 42-21 21 0 162 142 162 163 0 19-101 136-133 154-31 17-41 16-71-8zM2494 6568c-12-5-27-21-33-35-13-28-4-52 35-94l24-25-26-25c-35-33-46-63-33-93 11-22 47-46 70-46 6 0 42 30 80 67 57 55 69 72 69 98s-12 43-69 98c-71 69-80 73-117 55zM6406 6059c-35-27-37-90-4-113 30-21 81-20 101 2 32 36 22 102-18 120-36 17-48 15-79-9z"/></g><g fill="#6a6a6a"><path d="M2278 5513c12-2 32-2 45 0 12 2 2 4-23 4s-35-2-22-4zM2173 5503c9-2 25-2 35 0 9 3 1 5-18 5s-27-2-17-5zM2398 5503c12-2 30-2 40 0 9 3-1 5-23 4-22 0-30-2-17-4zM2083 5493c9-2 25-2 35 0 9 3 1 5-18 5s-27-2-17-5zM2493 5493c9-2 25-2 35 0 9 3 1 5-18 5s-27-2-17-5zM2038 5483c7-3 16-2 19 1 4 3-2 6-13 5-11 0-14-3-6-6zM2558 5483c7-3 16-2 19 1 4 3-2 6-13 5-11 0-14-3-6-6zM1973 5473c4-3 10-3 14 0 3 4 0 7-7 7s-10-3-7-7zM2630 5470c8-5 20-10 25-10 6 0 3 5-5 10s-19 10-25 10c-5 0-3-5 5-10zM1890 5450c-8-5-10-10-5-10 6 0 17 5 25 10s11 10 5 10c-5 0-17-5-25-10zM2713 5443c4-3 10-3 14 0 3 4 0 7-7 7s-10-3-7-7zM1830 5430c-9-6-10-10-3-10 6 0 15 5 18 10 8 12 4 12-15 0zM2760 5430c8-5 20-10 25-10 6 0 3 5-5 10s-19 10-25 10c-5 0-3-5 5-10zM1780 5410c-9-6-10-10-3-10 6 0 15 5 18 10 8 12 4 12-15 0zM2267 5413c18-2 50-2 70 0 21 2 7 4-32 4-38 0-55-2-38-4zM2818 5408c5-5 16-8 23-6 8 3 3 7-10 11-17 4-21 3-13-5zM2118 5403c12-2 30-2 40 0 9 3-1 5-23 4-22 0-30-2-17-4zM2431 5406c2-2 29-6 59-9 34-3 47-2 35 3-19 8-103 14-94 6zM1730 5390c-9-6-10-10-3-10 6 0 15 5 18 10 8 12 4 12-15 0zM2073 5393c4-3 10-3 14 0 3 4 0 7-7 7s-10-3-7-7zM2865 5390c3-4 14-10 25-13s18-2 15 3c-3 4-14 10-25 13s-18 2-15-3zM1990 5380c-11-8-7-9 15-4 37 8 45 14 19 14-10 0-26-5-34-10zM2578 5383c7-3 16-2 19 1 4 3-2 6-13 5-11 0-14-3-6-6zM1665 5360c-3-6 1-7 9-4 18 7 21 14 7 14-6 0-13-4-16-10zM1920 5360c-8-5-10-10-5-10 6 0 17 5 25 10s11 10 5 10c-5 0-17-5-25-10zM2920 5366c0-2 7-7 16-10 8-3 12-2 9 4-6 10-25 14-25 6zM2960 5346c0-2 7-7 16-10 8-3 12-2 9 4-6 10-25 14-25 6zM2743 5333c4-3 10-3 14 0 3 4 0 7-7 7s-10-3-7-7zM1594 5318c-4-7-3-8 4-4 12 7 16 16 8 16-3 0-8-5-12-12zM1803 5320c-34-14-28-21 7-9 17 6 30 13 30 15 0 6-12 4-37-6zM2770 5327c0-3 15-10 32-16 18-6 28-7 23-2-12 10-55 25-55 18zM3000 5326c0-2 7-7 16-10 8-3 12-2 9 4-6 10-25 14-25 6zM1554 5298c-4-7-3-8 4-4s12 9 12 12c0 8-9 4-16-8zM3047 5299c7-7 15-10 18-7s-2 9-12 12c-14 6-15 5-6-5zM1745 5290c-3-6 1-7 9-4 18 7 21 14 7 14-6 0-13-4-16-10zM2843 5293c4-3 10-3 14 0 3 4 0 7-7 7s-10-3-7-7zM1524 5278c-4-7-3-8 4-4 12 7 16 16 8 16-3 0-8-5-12-12zM3085 5280c3-5 8-10 11-10s2 5-1 10c-3 6-8 10-11 10s-2-4 1-10zM1705 5270c-3-6 1-7 9-4 18 7 21 14 7 14-6 0-13-4-16-10zM2890 5276c0-2 7-7 16-10 8-3 12-2 9 4-6 10-25 14-25 6zM1473 5249c-35-22-46-37-15-20 22 13 58 40 52 41-3 0-20-10-37-21zM3115 5260c3-5 8-10 11-10s2 5-1 10c-3 6-8 10-11 10s-2-4 1-10zM1664 5248c-4-7-3-8 4-4s12 9 12 12c0 8-9 4-16-8zM2933 5253c4-3 10-3 14 0 3 4 0 7-7 7s-10-3-7-7zM3140 5247c0-3 12-12 26-22 15-9 23-12 20-6-7 11-46 35-46 28zM2975 5230c3-5 8-10 11-10s2 5-1 10c-3 6-8 10-11 10s-2-4 1-10zM1594 5208c-4-7-3-8 4-4 12 7 16 16 8 16-3 0-8-5-12-12zM3015 5210c3-5 8-10 11-10s2 5-1 10c-3 6-8 10-11 10s-2-4 1-10zM3200 5206c0-2 8-10 18-17l17-14-14 18c-13 16-21 21-21 13zM1394 5188c-4-7-3-8 4-4 12 7 16 16 8 16-3 0-8-5-12-12zM1564 5188c-4-7-3-8 4-4 12 7 16 16 8 16-3 0-8-5-12-12zM3045 5190c3-5 8-10 11-10s2 5-1 10c-3 6-8 10-11 10s-2-4 1-10zM8920 5104c-239-46-442-88-450-93-9-5-14-21-13-42 1-41 22-343 28-419l20-275 20-280 10-140 15-215c6-74 10-143 10-152 0-13 8-18 30-18h31l-6 73-20 287c-15 216-39 556-51 705-24 328-29 428-19 430a90839 90839 0 01834 162c14 3 28-29 76-179l101-313 134-415 154-478 63-192 21 23 22 23-24 80c-13 43-37 120-54 169l-97 300-90 280-100 310-112 348-35 107-31-1c-18 0-228-38-467-85zM1364 5168c-4-7-3-8 4-4 12 7 16 16 8 16-3 0-8-5-12-12zM1530 5170c-9-6-10-10-3-10 6 0 15 5 18 10 8 12 4 12-15 0zM3075 5173c26-24 88-65 73-47-9 10-32 28-50 38s-28 15-23 9zM3245 5170c3-5 8-10 11-10s2 5-1 10c-3 6-8 10-11 10s-2-4 1-10zM1474 5128l-19-23 25 20 29 22c2 2 0 3-6 3-5 0-18-10-29-22zM1304 5118l-19-23 23 19c21 18 27 26 19 26-2 0-12-10-23-22zM3295 5130c3-5 8-10 11-10s2 5-1 10c-3 6-8 10-11 10s-2-4 1-10zM1429 5093l-14-18 18 14c9 7 17 15 17 17 0 8-8 3-21-13zM3175 5100c3-5 8-10 11-10s2 5-1 10c-3 6-8 10-11 10s-2-4 1-10zM3415 5020c49-49 92-90 95-90 2 0-36 41-85 90-49 50-92 90-95 90-2 0 36-40 85-90zM3215 5070c10-11 20-20 23-20s-3 9-13 20-20 20-23 20 3-9 13-20zM1379 5053l-24-28 28 24c25 23 32 31 24 31-2 0-14-12-28-27zM1175 4998l-70-73 73 70 72 72c0 8-11-2-75-69z"/><path d="M8950 4988c-195-39-359-73-363-77s-1-104 8-222l30-424 20-280c14-189 35-482 35-497v-18h116c98 0 154 7 346 45 126 25 238 45 248 45 13 0 26-15 39-45l20-45h65c36 0 66 4 66 9s-9 30-21 56c-11 25-18 49-15 52s47 14 98 24c142 29 138 27 138 51 0 12-9 47-19 77l-86 266-115 360-99 305-86 267c-21 65-42 114-51 117l-17 5-357-71zm381-103c20-58 33-108 30-110-10-6-332-67-335-64l-33 74c-37 84-67 111-106 96-49-19-54-50-18-126l31-70c0-5-241-48-244-44-2 2-6 54-9 115l-5 111 196 38c108 20 247 48 307 60 162 34 145 41 186-80zm106-332l143-443 114-353c13-37 21-69 17-71-12-7-201-40-204-35-19 26-447 992-442 998 7 7 258 58 295 60l26 1 51-157zm-480 9c13-32 36-81 50-111l43-95c9-23 27-61 38-86l156-345 134-300-21-7c-39-12-608-120-612-116-7 6-14 83-30 313l-30 420c-8 116-16 239-17 275l-3 65 125 26c69 14 129 23 133 21 5-2 20-29 34-60z"/><path d="M8785 3805c-25-24-29-45-25-115 4-79 58-122 124-100 54 17 69 50 61 128-5 51-12 70-32 88-36 33-95 33-128-1zm95-54c12-24 13-81 1-100-6-9-18-11-34-7-21 5-25 13-30 53-3 27-1 54 5 61 16 18 46 15 58-7zM3260 5037c0-2 15-16 33-33l32-29-29 33c-28 30-36 37-36 29zM1245 4928l-70-73 73 70c67 64 77 75 69 75l-72-72zM3365 4940c3-5 8-10 11-10s2 5-1 10c-3 6-8 10-11 10s-2-4 1-10zM3193 4913c4-3 10-3 14 0 3 4 0 7-7 7s-10-3-7-7zM3313 4913c4-3 10-3 14 0 3 4 0 7-7 7s-10-3-7-7zM3380 4910c0-7 3-10 7-7 3 4 3 10 0 14-4 3-7 0-7-7zM1933 4903c4-3 10-3 14 0 3 4 0 7-7 7s-10-3-7-7zM2173 4903c4-3 10-3 14 0 3 4 0 7-7 7s-10-3-7-7zM3158 4903c7-3 16-2 19 1 4 3-2 6-13 5-11 0-14-3-6-6zM3343 4903c4-3 10-3 14 0 3 4 0 7-7 7s-10-3-7-7zM3545 4873c15-24 30-43 32-43 7 0-31 61-46 73-8 7-2-7 14-30zM1064 4878l-19-23 23 19c12 11 22 21 22 23 0 8-8 2-26-19zM1880 4890c-9-6-10-10-3-10 6 0 15 5 18 10 8 12 4 12-15 0zM2227 4889c7-7 15-10 18-7s-2 9-12 12c-14 6-15 5-6-5zM3100 4890c-9-6-10-10-3-10 6 0 15 5 18 10 8 12 4 12-15 0zM1844 4868c-4-7-3-8 4-4 12 7 16 16 8 16-3 0-8-5-12-12zM2267 4869c7-7 15-10 18-7s-2 9-12 12c-14 6-15 5-6-5zM1793 4839c-35-22-46-37-15-20 22 13 58 40 52 41-3 0-20-10-37-21zM3009 4839l-24-20 28 17c15 9 27 18 27 20 0 8-8 4-31-17zM1010 4810c-12-16-19-30-16-30 2 0 14 14 26 30 12 17 19 30 16 30-2 0-14-13-26-30zM1998 4823c7-3 16-2 19 1 4 3-2 6-13 5-11 0-14-3-6-6zM2098 4823c6-2 18-2 25 0 6 3 1 5-13 5s-19-2-12-5zM3211 4821c-8-5 5-7 35-4 27 3 51 7 53 9 9 8-75 3-88-5zM2959 4803l-14-18 18 14c16 13 21 21 13 21-2 0-10-8-17-17zM3313 4813c4-3 10-3 14 0 3 4 0 7-7 7s-10-3-7-7zM3582 4800c0-14 2-19 5-12 2 6 2 18 0 25-3 6-5 1-5-13zM1920 4800c-9-6-10-10-3-10 6 0 15 5 18 10 8 12 4 12-15 0zM2187 4799c7-7 15-10 18-7s-2 9-12 12c-14 6-15 5-6-5zM2375 4800c3-5 8-10 11-10s2 5-1 10c-3 6-8 10-11 10s-2-4 1-10zM3380 4800c8-5 20-10 25-10 6 0 3 5-5 10s-19 10-25 10c-5 0-3-5 5-10zM1120 4796c0-2 8-10 18-17l17-14-14 18c-13 16-21 21-21 13zM1709 4773l-14-18 18 14c9 7 17 15 17 17 0 8-8 3-21-13zM1874 4774l-19-15 23 11c12 6 22 13 22 15 0 8-5 6-26-11zM2405 4780c3-5 8-10 11-10s2 5-1 10c-3 6-8 10-11 10s-2-4 1-10zM3062 4760c-23-17-42-33-42-36 0-4 56 34 85 58 23 20-6 5-43-22zM3443 4773c4-3 10-3 14 0 3 4 0 7-7 7s-10-3-7-7zM2861 4729c-30-21-51-39-47-39 10 0 93 58 101 70 9 14 6 13-54-31zM3564 4758c-4-7-3-8 4-4 12 7 16 16 8 16-3 0-8-5-12-12zM1020 4757c0-2 15-16 33-33l32-29-29 33c-28 30-36 37-36 29zM1669 4743l-14-18 18 14c9 7 17 15 17 17 0 8-8 3-21-13zM1826 4745c-11-8-15-15-9-15s16 7 23 15c16 19 11 19-14 0zM3483 4753c4-3 10-3 14 0 3 4 0 7-7 7s-10-3-7-7zM1187 4739c7-7 15-10 18-7s-2 9-12 12c-14 6-15 5-6-5zM3513 4743c4-3 10-3 14 0 3 4 0 7-7 7s-10-3-7-7zM2305 4730c3-5 8-10 11-10s2 5-1 10c-3 6-8 10-11 10s-2-4 1-10zM1634 4718c-4-7-3-8 4-4 12 7 16 16 8 16-3 0-8-5-12-12zM1784 4708c-4-7-3-8 4-4 12 7 16 16 8 16-3 0-8-5-12-12zM2335 4710c3-5 8-10 11-10s2 5-1 10c-3 6-8 10-11 10s-2-4 1-10zM2516 4705c10-8 23-15 28-15 6 0 1 7-10 15-10 8-23 15-28 15-6 0-1-7 10-15zM2984 4698l-19-23 23 19c21 18 27 26 19 26-2 0-12-10-23-22zM1255 4700c3-4 14-10 25-13s18-2 15 3c-3 4-14 10-25 13s-18 2-15-3zM1600 4700c-9-6-10-10-3-10 6 0 15 5 18 10 8 12 4 12-15 0zM1095 4690c3-5 8-10 11-10s2 5-1 10c-3 6-8 10-11 10s-2-4 1-10zM1744 4678l-19-23 23 19c21 18 27 26 19 26-2 0-12-10-23-22zM2365 4690c3-5 8-10 11-10s2 5-1 10c-3 6-8 10-11 10s-2-4 1-10zM1323 4673c4-3 10-3 14 0 3 4 0 7-7 7s-10-3-7-7zM1543 4673c4-3 10-3 14 0 3 4 0 7-7 7s-10-3-7-7zM2593 4673c4-3 10-3 14 0 3 4 0 7-7 7s-10-3-7-7zM2763 4673c4-3 10-3 14 0 3 4 0 7-7 7s-10-3-7-7zM2934 4658l-19-23 23 19c21 18 27 26 19 26-2 0-12-10-23-22zM1135 4660c3-5 8-10 11-10s2 5-1 10c-3 6-8 10-11 10s-2-4 1-10zM1353 4663c4-3 10-3 14 0 3 4 0 7-7 7s-10-3-7-7zM2628 4663c7-3 16-2 19 1 4 3-2 6-13 5-11 0-14-3-6-6zM2728 4663c7-3 16-2 19 1 4 3-2 6-13 5-11 0-14-3-6-6zM1704 4648c-4-7-3-8 4-4 12 7 16 16 8 16-3 0-8-5-12-12zM1664 4624l-19-15 23 11c12 6 22 13 22 15 0 8-5 6-26-11zM2450 4636c0-3 9-10 20-16s20-8 20-6c0 3-9 10-20 16s-20 8-20 6zM2884 4624l-19-15 23 11c12 6 22 13 22 15 0 8-5 6-26-11zM1190 4626c0-2 7-7 16-10 8-3 12-2 9 4-6 10-25 14-25 6zM1233 4603c4-3 10-3 14 0 3 4 0 7-7 7s-10-3-7-7zM1615 4600c-3-6 1-7 9-4 18 7 21 14 7 14-6 0-13-4-16-10zM2503 4603c4-3 10-3 14 0 3 4 0 7-7 7s-10-3-7-7zM2835 4600c-3-6 1-7 9-4 18 7 21 14 7 14-6 0-13-4-16-10zM1300 4580c8-5 20-10 25-10 6 0 3 5-5 10s-19 10-25 10c-5 0-3-5 5-10zM1560 4580c-8-5-10-10-5-10 6 0 17 5 25 10s11 10 5 10c-5 0-17-5-25-10zM2558 4583c7-3 16-2 19 1 4 3-2 6-13 5-11 0-14-3-6-6zM2780 4580c-8-5-10-10-5-10 6 0 17 5 25 10s11 10 5 10c-5 0-17-5-25-10zM3248 4583c23-2 59-2 80 0 20 2 1 4-43 4s-61-2-37-4zM3183 4573c4-3 10-3 14 0 3 4 0 7-7 7s-10-3-7-7zM3373 4573c4-3 10-3 14 0 3 4 0 7-7 7s-10-3-7-7zM881 4568l69-63 65-60-60 63c-33 34-64 62-69 62s-7-1-5-2zM1408 4563c23-2 59-2 80 0 20 2 1 4-43 4s-61-2-37-4zM1910 4560c-18-12-2-12 25 0 13 6 15 9 5 9-8 0-22-4-30-9zM1970 4564c35-7 149-9 137-2-6 4-43 7-82 7-38-1-63-3-55-5zM3148 4563c7-3 16-2 19 1 4 3-2 6-13 5-11 0-14-3-6-6zM3408 4563c6-2 18-2 25 0 6 3 1 5-13 5s-19-2-12-5zM1863 4543c4-3 10-3 14 0 3 4 0 7-7 7s-10-3-7-7zM2140 4546c0-2 9-6 20-9s18-1 14 4c-5 9-34 13-34 5zM3085 4540c-3-6 1-7 9-4 18 7 21 14 7 14-6 0-13-4-16-10zM3473 4543c4-3 10-3 14 0 3 4 0 7-7 7s-10-3-7-7zM1804 4518c-4-7-3-8 4-4s12 9 12 12c0 8-9 4-16-8zM1764 4498c-4-7-3-8 4-4 12 7 16 16 8 16-3 0-8-5-12-12zM2245 4500c3-5 8-10 11-10s2 5-1 10c-3 6-8 10-11 10s-2-4 1-10zM3014 4498c-4-7-3-8 4-4s12 9 12 12c0 8-9 4-16-8zM3565 4500c3-5 8-10 11-10s2 5-1 10c-3 6-8 10-11 10s-2-4 1-10zM1734 4478c-4-7-3-8 4-4 12 7 16 16 8 16-3 0-8-5-12-12zM3228 4483c7-3 16-2 19 1 4 3-2 6-13 5-11 0-14-3-6-6zM3333 4483c4-3 10-3 14 0 3 4 0 7-7 7s-10-3-7-7zM3595 4480c3-5 8-10 11-10s2 5-1 10c-3 6-8 10-11 10s-2-4 1-10zM875 4440c21-22 41-40 44-40s-13 18-34 40-41 40-44 40 13-18 34-40zM1993 4473c15-2 37-2 50 0 12 2 0 4-28 4-27 0-38-2-22-4zM3166 4471c-4-5 3-7 14-4 23 6 26 13 6 13-8 0-17-4-20-9zM3370 4476c0-2 11-6 25-8 13-3 22-1 19 3-5 9-44 13-44 5zM1933 4463c4-3 10-3 14 0 3 4 0 7-7 7s-10-3-7-7zM2073 4463c4-3 10-3 14 0 3 4 0 7-7 7s-10-3-7-7zM2305 4460c3-5 8-10 11-10s2 5-1 10c-3 6-8 10-11 10s-2-4 1-10zM3625 4460c3-5 8-10 11-10s2 5-1 10c-3 6-8 10-11 10s-2-4 1-10zM1694 4448c-4-7-3-8 4-4 12 7 16 16 8 16-3 0-8-5-12-12zM1893 4453c4-3 10-3 14 0 3 4 0 7-7 7s-10-3-7-7zM2110 4456c0-2 9-6 20-9s18-1 14 4c-5 9-34 13-34 5zM3124 4448c-4-7-3-8 4-4 12 7 16 16 8 16-3 0-8-5-12-12zM3440 4456c0-2 7-7 16-10 8-3 12-2 9 4-6 10-25 14-25 6zM1025 4440c3-5 8-10 11-10s2 5-1 10c-3 6-8 10-11 10s-2-4 1-10zM2335 4440c3-5 8-10 11-10s2 5-1 10c-3 6-8 10-11 10s-2-4 1-10zM1659 4423l-14-18 18 14c16 13 21 21 13 21-2 0-10-8-17-17zM2160 4436c0-2 7-7 16-10 8-3 12-2 9 4-6 10-25 14-25 6zM2900 4409l-35-30 38 26c33 24 43 35 34 35l-37-31zM3085 4430c-3-6 1-7 9-4 18 7 21 14 7 14-6 0-13-4-16-10zM3480 4436c0-2 7-7 16-10 8-3 12-2 9 4-6 10-25 14-25 6zM3665 4430c3-5 8-10 11-10s2 5-1 10c-3 6-8 10-11 10s-2-4 1-10zM1065 4410c3-5 8-10 11-10s2 5-1 10c-3 6-8 10-11 10s-2-4 1-10zM1804 4408c-4-7-3-8 4-4 12 7 16 16 8 16-3 0-8-5-12-12zM2205 4410c3-5 8-10 11-10s2 5-1 10c-3 6-8 10-11 10s-2-4 1-10zM2375 4410c3-5 8-10 11-10s2 5-1 10c-3 6-8 10-11 10s-2-4 1-10zM3054 4408c-4-7-3-8 4-4s12 9 12 12c0 8-9 4-16-8zM3525 4410c3-5 8-10 11-10s2 5-1 10c-3 6-8 10-11 10s-2-4 1-10zM945 4380c10-11 20-20 23-20s-3 9-13 20-20 20-23 20 3-9 13-20zM1095 4390c3-5 8-10 11-10s2 5-1 10c-3 6-8 10-11 10s-2-4 1-10zM1614 4388c-4-7-3-8 4-4 12 7 16 16 8 16-3 0-8-5-12-12zM1774 4388c-4-7-3-8 4-4 12 7 16 16 8 16-3 0-8-5-12-12zM2235 4390c3-5 8-10 11-10s2 5-1 10c-3 6-8 10-11 10s-2-4 1-10zM2405 4390c3-5 8-10 11-10s2 5-1 10c-3 6-8 10-11 10s-2-4 1-10zM3030 4390c0-7 3-10 7-7 3 4 3 10 0 14-4 3-7 0-7-7zM3555 4390c3-5 8-10 11-10s2 5-1 10c-3 6-8 10-11 10s-2-4 1-10zM1127 4369c7-7 15-10 18-7s-2 9-12 12c-14 6-15 5-6-5zM1584 4368c-4-7-3-8 4-4s12 9 12 12c0 8-9 4-16-8zM2265 4370c3-5 8-10 11-10s2 5-1 10c-3 6-8 10-11 10s-2-4 1-10zM2435 4370c3-5 8-10 11-10s2 5-1 10c-3 6-8 10-11 10s-2-4 1-10zM2840 4370c-9-6-10-10-3-10 6 0 15 5 18 10 8 12 4 12-15 0zM3597 4359c12-12 24-21 27-18 2 2-8 13-22 23l-27 19 22-24zM3730 4377c0-2 15-16 33-33l32-29-29 33c-28 30-36 37-36 29zM1710 4339l-35-30 38 26c33 24 43 35 34 35l-37-31zM1167 4349c7-7 15-10 18-7s-2 9-12 12c-14 6-15 5-6-5zM1554 4348c-4-7-3-8 4-4 12 7 16 16 8 16-3 0-8-5-12-12zM2290 4356c0-2 8-10 18-17l17-14-14 18c-13 16-21 21-21 13zM2465 4350c3-5 8-10 11-10s2 5-1 10c-3 6-8 10-11 10s-2-4 1-10zM995 4340c3-5 8-10 11-10s2 5-1 10c-3 6-8 10-11 10s-2-4 1-10zM2508 4328c5-5 16-8 23-6 8 3 3 7-10 11-17 4-21 3-13-5zM1025 4320c3-5 8-10 11-10s2 5-1 10c-3 6-8 10-11 10s-2-4 1-10zM1228 4323c7-3 16-2 19 1 4 3-2 6-13 5-11 0-14-3-6-6zM1503 4323c4-3 10-3 14 0 3 4 0 7-7 7s-10-3-7-7zM2330 4326c0-2 8-10 18-17l17-14-14 18c-13 16-21 21-21 13zM2748 4323c7-3 16-2 19 1 4 3-2 6-13 5-11 0-14-3-6-6zM3685 4280c27-27 51-50 54-50s-17 23-44 50c-27 28-51 50-54 50s17-22 44-50zM1425 4310l-50-7 45-1c25-1 52 3 60 8s11 9 5 8l-60-8zM2553 4313c4-3 10-3 14 0 3 4 0 7-7 7s-10-3-7-7zM2713 4313c4-3 10-3 14 0 3 4 0 7-7 7s-10-3-7-7zM1055 4300c3-5 8-10 11-10s2 5-1 10c-3 6-8 10-11 10s-2-4 1-10zM1303 4303c15-2 37-2 50 0 12 2 0 4-28 4-27 0-38-2-22-4zM1654 4298c-4-7-3-8 4-4 12 7 16 16 8 16-3 0-8-5-12-12zM2608 4303c17-2 47-2 65 0 17 2 3 4-33 4s-50-2-32-4zM2928 4302c9-6 12-40 10-128l-3-119-190-5-190-6 186-2c149-2 189 1 198 12 8 9 11 53 9 132-2 94-6 118-18 121-11 4-12 2-2-5zM1095 4280c3-5 8-10 11-10s2 5-1 10c-3 6-8 10-11 10s-2-4 1-10zM1624 4278c-4-7-3-8 4-4s12 9 12 12c0 8-9 4-16-8z"/><path d="M2880 4280c-9-6-10-10-3-10 6 0 15 5 18 10 8 12 4 12-15 0zM1590 4260c-9-6-10-10-3-10 6 0 15 5 18 10 8 12 4 12-15 0zM2840 4260c-9-6-10-10-3-10 6 0 15 5 18 10 8 12 4 12-15 0zM1178 4238c5-5 16-8 23-6 8 3 3 7-10 11-17 4-21 3-13-5zM1545 4240c-16-7-17-9-3-9 9-1 20 4 23 9 7 11 7 11-20 0zM3754 4238c-4-7-3-8 4-4s12 9 12 12c0 8-9 4-16-8zM2488 4233c7-3 16-2 19 1 4 3-2 6-13 5-11 0-14-3-6-6zM2783 4233c4-3 10-3 14 0 3 4 0 7-7 7s-10-3-7-7zM1223 4223c4-3 10-3 14 0 3 4 0 7-7 7s-10-3-7-7zM1263 4213c9-2 23-2 30 0 6 3-1 5-18 5-16 0-22-2-12-5zM1458 4213c6-2 18-2 25 0 6 3 1 5-13 5s-19-2-12-5zM2598 4213c29-2 74-2 100 0s2 3-53 3-76-1-47-3zM1337 4203c18-2 50-2 70 0 21 2 7 4-32 4-38 0-55-2-38-4zM2364 3795c0-181 2-257 3-168 2 89 2 237 0 330-1 92-3 20-3-162zM2532 4003l3-48h200l200-1-198 3-199 3 4 45c2 25-1 45-5 45s-7-21-5-47zM2940 3845l-5-100-205-5-205-5-1-48-1-47 4 45 4 45h198c158 0 201 3 210 14 8 9 11 47 9 107l-3 94-5-100zM2464 3655c0-104 2-146 3-92 2 54 2 139 0 190-1 51-3 7-3-98zM2940 3552l5-87 3 79c2 44-1 83-5 87s-6-31-3-79zM9918 3555a87 87 0 01-18-37c0-7 23-84 51-171 28-88 47-163 42-167-15-13-244-53-252-44-5 5-27 52-50 104l-69 153-26 57h-136l10-25 31-73 96-210c9-18 13-35 11-38-8-8-939-186-945-181-2 3-11 99-19 214a28145 28145 0 01-23 301c-1 6-13 12-27 12h-27l8-145 7-145-49 19c-26 10-113 46-191 80-79 34-148 61-153 61-35 0-86-166-88-291a567 567 0 01579-590c198-1 374 92 481 256 42 64 83 161 75 180-2 7-32 22-66 35-33 13-58 26-53 30 6 5 379 80 515 104 5 0 44-80 88-179a20597 20597 0 01172-380l60-135c58-131 181-176 297-109 93 53 268 246 443 488 71 97 83 135 52 165-8 9-28 16-44 16h-29l-92-122c-219-291-354-432-430-451-37-9-67 27-117 143a8132 8132 0 01-122 275l-39 87c-85 180-101 222-91 228 6 4 66 17 133 29 133 25 157 34 157 57 0 13-110 361-128 406l-7 17-17-24zm-1674-318l18-13-20-59a475 475 0 01280-596c111-43 257-35 374 22 76 37 176 135 210 206 30 60 35 65 54 53 17-11-23-95-77-161a523 523 0 00-845 45 541 541 0 00-45 479c17 40 24 44 51 24zm213-91l128-54 8-93c10-120 14-136 31-142 7-3 93 10 191 29l177 34 44-19c24-11 44-24 44-28a443 443 0 00-267-253c-52-19-77-22-150-18-96 5-156 28-239 91a443 443 0 00-154 312c0 60 38 195 55 195l132-54zM2362 3425c0-16 2-22 5-12 2 9 2 23 0 30-3 6-5-1-5-18zM2672 3425c0-16 2-22 5-12 2 9 2 23 0 30-3 6-5-1-5-18zM3165 3439c-4-6-5-12-2-15 2-3 7 2 10 11 7 17 1 20-8 4zM3261 3434c0-11 3-14 6-6 3 7 2 16-1 19-3 4-6-2-5-13zM5850 3440c0-7 3-10 7-7 3 4 3 10 0 14-4 3-7 0-7-7z"/><path d="M8696 3440c7-7 24-7 50-1l39 9-49 1c-34 1-47-2-40-9zM2461 3424c0-11 9-29 22-40l22-19-16 20c-10 11-19 29-22 40l-5 20-1-21zM2941 3414c0-11 3-14 6-6 3 7 2 16-1 19-3 4-6-2-5-13zM3040 3413c0-5 10-18 23-29l22-19-20 25-22 29c-2 2-3 0-3-6zM2564 3398c-4-7-3-8 4-4 12 7 16 16 8 16-3 0-8-5-12-12zM8837 3389c-38-22-45-65-33-186 14-139 30-166 98-171 36-2 49 2 72 23l29 26-7 102c-9 131-20 178-47 200-24 19-84 22-112 6zm80-51c4-7 13-60 19-117l10-105-18-18c-39-39-54-16-62 97-4 50-9 97-12 106-9 33 45 64 63 37zM2370 3376c0-8 4-17 9-20 5-4 7 3 4 14-6 23-13 26-13 6zM2950 3371c0-6 4-13 10-16s7 1 4 9c-7 18-14 21-14 7zM3105 3370c-13-6-15-9-5-9 8 0 22 4 30 9 18 12 2 12-25 0zM5550 3370c0-7 3-10 7-7 3 4 3 10 0 14-4 3-7 0-7-7zM2513 3363c4-3 10-3 14 0 3 4 0 7-7 7s-10-3-7-7zM2654 3358c-4-7-3-8 4-4s12 9 12 12c0 8-9 4-16-8zM5861 3334c0-11 3-14 6-6 3 7 2 16-1 19-3 4-6-2-5-13zM2395 3330c3-5 8-10 11-10s2 5-1 10c-3 6-8 10-11 10s-2-4 1-10zM2619 3313l-24-28 28 24c25 23 32 31 24 31-2 0-14-12-28-27zM2985 3320c10-11 20-20 23-20s-3 9-13 20-20 20-23 20 3-9 13-20zM3209 3313l-14-18 18 14c16 13 21 21 13 21-2 0-10-8-17-17zM2425 3300c3-5 8-10 11-10s2 5-1 10c-3 6-8 10-11 10s-2-4 1-10zM5570 3300c0-7 3-10 7-7 3 4 3 10 0 14-4 3-7 0-7-7zM3170 3290c-9-6-10-10-3-10 6 0 15 5 18 10 8 12 4 12-15 0zM2560 3280c-8-5-10-10-5-10 6 0 17 5 25 10s11 10 5 10c-5 0-17-5-25-10zM3033 3283c4-3 10-3 14 0 3 4 0 7-7 7s-10-3-7-7zM2473 3273c4-3 10-3 14 0 3 4 0 7-7 7s-10-3-7-7zM2513 3263c4-3 10-3 14 0 3 4 0 7-7 7s-10-3-7-7zM3098 3263c7-3 16-2 19 1 4 3-2 6-13 5-11 0-14-3-6-6zM5870 3260c0-7 3-10 7-7 3 4 3 10 0 14-4 3-7 0-7-7zM5882 3180c0-14 2-19 5-12 2 6 2 18 0 25-3 6-5 1-5-13zM5890 3110c0-7 3-10 7-7 3 4 3 10 0 14-4 3-7 0-7-7zM5911 2994c0-11 3-14 6-6 3 7 2 16-1 19-3 4-6-2-5-13zM5920 2940c0-7 3-10 7-7 3 4 3 10 0 14-4 3-7 0-7-7zM7672 2850c0-14 2-19 5-12 2 6 2 18 0 25-3 6-5 1-5-13zM5941 2844c0-11 3-14 6-6 3 7 2 16-1 19-3 4-6-2-5-13zM6461 2844c0-11 3-14 6-6 3 7 2 16-1 19-3 4-6-2-5-13zM7569 2813l-24-28 28 24c15 14 27 26 27 28 0 8-8 1-31-24zM6462 2770c0-19 2-27 5-17 2 9 2 25 0 35-3 9-5 1-5-18zM7650 2730c0-7 3-10 7-7 3 4 3 10 0 14-4 3-7 0-7-7zM5970 2720c0-7 3-10 7-7 3 4 3 10 0 14-4 3-7 0-7-7zM7464 2698l-19-23 23 19c12 11 22 21 22 23 0 8-8 2-26-19zM6580 2680c0-7 3-10 7-7 3 4 3 10 0 14-4 3-7 0-7-7zM7640 2680c0-7 3-10 7-7 3 4 3 10 0 14-4 3-7 0-7-7zM6462 2640c0-14 2-19 5-12 2 6 2 18 0 25-3 6-5 1-5-13zM6593 2580c0-25 2-35 4-22 2 12 2 32 0 45-2 12-4 2-4-23zM6460 2590c0-7 3-10 7-7 3 4 3 10 0 14-4 3-7 0-7-7zM6020 2550c0-7 3-10 7-7 3 4 3 10 0 14-4 3-7 0-7-7zM5491 2547l24-17 20-15-14 18c-7 9-18 17-24 17s-8-1-6-3zM6450 2540c0-7 3-10 7-7 3 4 3 10 0 14-4 3-7 0-7-7zM7224 2458c-4-7-3-8 4-4 12 7 16 16 8 16-3 0-8-5-12-12zM5630 2405c13-14 26-25 28-25 3 0-5 11-18 25s-26 25-28 25c-3 0 5-11 18-25zM7164 2408c-4-7-3-8 4-4s12 9 12 12c0 8-9 4-16-8zM6484 2308l-19-23 23 19c21 18 27 26 19 26-2 0-12-10-23-22zM6284 2288c-4-7-3-8 4-4 12 7 16 16 8 16-3 0-8-5-12-12zM6983 2293c4-3 10-3 14 0 3 4 0 7-7 7s-10-3-7-7zM6153 2263c4-3 10-3 14 0 3 4 0 7-7 7s-10-3-7-7zM5615 2240c3-5 8-10 11-10s2 5-1 10c-3 6-8 10-11 10s-2-4 1-10zM6055 2240c-3-5-1-10 4-10 6 0 11 5 11 10 0 6-2 10-4 10-3 0-8-4-11-10zM5903 2233c4-3 10-3 14 0 3 4 0 7-7 7s-10-3-7-7zM6823 2233c4-3 10-3 14 0 3 4 0 7-7 7s-10-3-7-7zM5640 2216c0-2 8-10 18-17l17-14-14 18c-13 16-21 21-21 13zM6428 2213c7-3 16-2 19 1 4 3-2 6-13 5-11 0-14-3-6-6zM6723 2213c4-3 10-3 14 0 3 4 0 7-7 7s-10-3-7-7zM7355 2178l-40-43 43 40c39 36 47 45 39 45-2 0-21-19-42-42zM6568 2203c12-2 32-2 45 0 12 2 2 4-23 4s-35-2-22-4zM6171 2198l39-33 35-30-29 33c-17 17-34 32-40 32-5 0-7-1-5-2zM6095 2139c-4-6-5-12-2-15 2-3 7 2 10 11 7 17 1 20-8 4zM5783 2123c4-3 10-3 14 0 3 4 0 7-7 7s-10-3-7-7zM7274 2108c-4-7-3-8 4-4 12 7 16 16 8 16-3 0-8-5-12-12zM5924 2098c-4-7-3-8 4-4 12 7 16 16 8 16-3 0-8-5-12-12zM6086 2075c8-37 14-45 14-19 0 10-5 26-10 34-8 11-9 7-4-15zM7234 2078c-4-7-3-8 4-4s12 9 12 12c0 8-9 4-16-8zM6295 2070c3-5 8-10 11-10s2 5-1 10c-3 6-8 10-11 10s-2-4 1-10zM6325 2070c3-5 8-10 11-10s2 5-1 10c-3 6-8 10-11 10s-2-4 1-10zM7204 2058c-4-7-3-8 4-4 12 7 16 16 8 16-3 0-8-5-12-12zM5864 2048c-4-7-3-8 4-4s12 9 12 12c0 8-9 4-16-8zM5824 2018c-4-7-3-8 4-4 12 7 16 16 8 16-3 0-8-5-12-12zM6365 2010c3-5 8-10 11-10s2 5-1 10c-3 6-8 10-11 10s-2-4 1-10zM5764 1978c-4-7-3-8 4-4s12 9 12 12c0 8-9 4-16-8zM6080 1980c0-7 3-10 7-7 3 4 3 10 0 14-4 3-7 0-7-7zM6400 1986c0-2 8-10 18-17l17-14-14 18c-13 16-21 21-21 13zM7053 1983c4-3 10-3 14 0 3 4 0 7-7 7s-10-3-7-7zM4485 1950c3-5 8-10 11-10s2 5-1 10c-3 6-8 10-11 10s-2-4 1-10zM4643 1953c4-3 10-3 14 0 3 4 0 7-7 7s-10-3-7-7zM6588 1953c7-3 16-2 19 1 4 3-2 6-13 5-11 0-14-3-6-6zM6958 1953c7-3 16-2 19 1 4 3-2 6-13 5-11 0-14-3-6-6zM6633 1943c4-3 10-3 14 0 3 4 0 7-7 7s-10-3-7-7zM6903 1943c4-3 10-3 14 0 3 4 0 7-7 7s-10-3-7-7zM7830 1940c0-7 3-10 7-7 3 4 3 10 0 14-4 3-7 0-7-7zM6070 1930c0-7 3-10 7-7 3 4 3 10 0 14-4 3-7 0-7-7zM6698 1933c7-3 16-2 19 1 4 3-2 6-13 5-11 0-14-3-6-6zM6838 1933c7-3 16-2 19 1 4 3-2 6-13 5-11 0-14-3-6-6zM4753 1923c4-3 10-3 14 0 3 4 0 7-7 7s-10-3-7-7zM7763 1923c4-3 10-3 14 0 3 4 0 7-7 7s-10-3-7-7zM4535 1890c10-11 20-20 23-20s-3 9-13 20-20 20-23 20 3-9 13-20zM4863 1893c4-3 10-3 14 0 3 4 0 7-7 7s-10-3-7-7zM5603 1893c4-3 10-3 14 0 3 4 0 7-7 7s-10-3-7-7zM7663 1893c4-3 10-3 14 0 3 4 0 7-7 7s-10-3-7-7zM6060 1880c0-7 3-10 7-7 3 4 3 10 0 14-4 3-7 0-7-7zM4988 1863c7-3 16-2 19 1 4 3-2 6-13 5-11 0-14-3-6-6zM5513 1863c4-3 10-3 14 0 3 4 0 7-7 7s-10-3-7-7zM5093 1843c4-3 10-3 14 0 3 4 0 7-7 7s-10-3-7-7zM5443 1843c4-3 10-3 14 0 3 4 0 7-7 7s-10-3-7-7zM5178 1833c7-3 16-2 19 1 4 3-2 6-13 5-11 0-14-3-6-6zM5223 1833c4-3 10-3 14 0 3 4 0 7-7 7s-10-3-7-7zM5303 1833c9-2 25-2 35 0 9 3 1 5-18 5s-27-2-17-5zM5363 1833c4-3 10-3 14 0 3 4 0 7-7 7s-10-3-7-7zM6633 1833c4-3 10-3 14 0 3 4 0 7-7 7s-10-3-7-7zM7453 1833c4-3 10-3 14 0 3 4 0 7-7 7s-10-3-7-7zM5934 1818c-4-7-3-8 4-4 12 7 16 16 8 16-3 0-8-5-12-12zM7724 1798l-29-33 33 29c17 17 32 31 32 33 0 8-8 1-36-29zM7383 1813c4-3 10-3 14 0 3 4 0 7-7 7s-10-3-7-7zM4620 1806c0-2 8-10 18-17l17-14-14 18c-13 16-21 21-21 13zM6778 1783c7-3 16-2 19 1 4 3-2 6-13 5-11 0-14-3-6-6zM7253 1783c4-3 10-3 14 0 3 4 0 7-7 7s-10-3-7-7zM6823 1773c4-3 10-3 14 0 3 4 0 7-7 7s-10-3-7-7zM6883 1763c4-3 10-3 14 0 3 4 0 7-7 7s-10-3-7-7zM7118 1763c7-3 16-2 19 1 4 3-2 6-13 5-11 0-14-3-6-6zM6280 1750c0-7 3-10 7-7 3 4 3 10 0 14-4 3-7 0-7-7zM7023 1753c4-3 10-3 14 0 3 4 0 7-7 7s-10-3-7-7zM6340 1746c0-2 8-10 18-17l17-14-14 18c-13 16-21 21-21 13zM7649 1723l-24-28 28 24c15 14 27 26 27 28 0 8-8 1-31-24zM5799 1683l-14-18 18 14c16 13 21 21 13 21-2 0-10-8-17-17zM7584 1668c-4-7-3-8 4-4 12 7 16 16 8 16-3 0-8-5-12-12zM5764 1658c-4-7-3-8 4-4s12 9 12 12c0 8-9 4-16-8zM6270 1650c0-7 3-10 7-7 3 4 3 10 0 14-4 3-7 0-7-7zM5734 1638c-4-7-3-8 4-4 12 7 16 16 8 16-3 0-8-5-12-12zM6450 1636c0-2 8-10 18-17l17-14-14 18c-13 16-21 21-21 13zM7514 1618c-4-7-3-8 4-4 12 7 16 16 8 16-3 0-8-5-12-12zM6260 1600c0-7 3-10 7-7 3 4 3 10 0 14-4 3-7 0-7-7zM6250 1560c0-7 3-10 7-7 3 4 3 10 0 14-4 3-7 0-7-7zM5063 1553c4-3 10-3 14 0 3 4 0 7-7 7s-10-3-7-7zM5218 1523c7-3 16-2 19 1 4 3-2 6-13 5-11 0-14-3-6-6zM5398 1523c6-2 18-2 25 0 6 3 1 5-13 5s-19-2-12-5zM6683 1493c4-3 10-3 14 0 3 4 0 7-7 7s-10-3-7-7zM5869 1473l-14-18 18 14c16 13 21 21 13 21-2 0-10-8-17-17zM6743 1473c4-3 10-3 14 0 3 4 0 7-7 7s-10-3-7-7zM6968 1443c6-2 18-2 25 0 6 3 1 5-13 5s-19-2-12-5zM7023 1443c4-3 10-3 14 0 3 4 0 7-7 7s-10-3-7-7zM5759 1363l-14-18 18 14c9 7 17 15 17 17 0 8-8 3-21-13zM6039 1193l-14-18 18 14c16 13 21 21 13 21-2 0-10-8-17-17zM5693 983c4-3 10-3 14 0 3 4 0 7-7 7s-10-3-7-7zM5045 960c3-5 8-10 11-10s2 5-1 10c-3 6-8 10-11 10s-2-4 1-10zM5633 963c4-3 10-3 14 0 3 4 0 7-7 7s-10-3-7-7zM5138 933c7-3 16-2 19 1 4 3-2 6-13 5-11 0-14-3-6-6zM5488 933c6-2 18-2 25 0 6 3 1 5-13 5s-19-2-12-5zM5228 923c6-2 18-2 25 0 6 3 1 5-13 5s-19-2-12-5zM5388 923c6-2 18-2 25 0 6 3 1 5-13 5s-19-2-12-5z"/></g></svg>