<svg version="1" xmlns="http://www.w3.org/2000/svg" width="1600" height="663" viewBox="0 0 16000 6630"><g fill="#020202"><path d="M650 6603c-186-29-340-108-468-240-59-61-78-90-142-217l-40-80V562l56-111c30-60 72-127 93-148 20-22 44-48 51-59 8-11 31-30 50-43s40-29 45-35c36-41 222-117 330-135 53-9 1842-11 7410-9l7340 3 70 26c39 15 86 32 105 40 47 18 143 78 153 95 4 8 14 14 21 14 13 0 27 15 113 115 48 56 119 201 142 291l21 80-2 2654-3 2655-24 65c-38 101-98 214-134 251-18 19-36 41-39 50-6 15-113 101-182 145-31 19-87 42-196 78l-65 21-7340 1c-4037 1-7351 0-7365-3zm14700-68c79-11 112-23 197-66 187-95 316-253 368-449l25-95V702l-25-96c-33-128-97-235-198-329-54-51-192-139-252-161-100-37 91-36-7475-36-6330 0-7307 2-7384 15-71 12-107 24-185 66-96 51-200 137-234 191-10 16-26 39-37 50-25 27-87 176-106 253-20 87-20 5231 0 5315 26 106 97 270 117 270 5 0 20 20 35 45 14 25 29 45 33 45s26 18 48 40c80 76 223 147 338 165 64 10 1491 13 7360 14 6252 1 7293-1 7375-14z"/><path d="M13230 6512c-108-53-150-162-118-302 10-43 21-60 60-94 85-73 175-86 269-38 176 89 180 339 7 428-59 30-164 33-218 6zm163-104c35-27 67-82 67-117 0-76-86-144-155-121-104 34-124 174-33 230 37 22 96 26 121 8zM14895 6513c-83-44-123-103-133-196-15-141 95-268 232-266 65 0 106 15 161 59 34 28 48 48 64 98 25 74 26 93 6 159-19 62-46 97-104 134-39 26-54 29-120 29-50-1-86-6-106-17zm174-123c60-42 65-138 10-184-105-88-246 23-184 145 35 67 111 84 174 39zM4215 6474c-22-3-83-11-135-20-52-8-122-19-155-24-201-32-549-202-733-358-99-83-257-245-326-333-10-13-39-55-63-94-25-38-56-86-69-105-35-53-132-272-150-337-78-291-94-389-94-593 1-172 8-208 63-320 67-136 163-216 332-275 62-22 248-31 327-16 142 26 302 126 353 219 11 20 23 39 27 43 13 9 55 124 67 179 6 28 11 79 11 113 0 153 16 225 74 342 74 148 186 264 321 333 98 50 182 67 325 66 116 0 146-4 216-26 96-31 136-50 184-89 19-16 38-29 42-29 8 0 138-127 138-135 0-3 18-31 39-63 37-55 53-91 89-212 15-50 17-227 22-2020l5-1965 25-70c27-78 82-173 105-181 8-4 15-12 15-18 0-21 105-92 182-124 219-91 487-52 656 94 30 26 75 79 101 118 88 136 82-31 79 2246-3 2101-2 2051-48 2240-44 181-140 406-236 549-16 24-37 58-48 75-10 17-36 49-57 70-21 22-39 44-39 50 0 20-298 298-349 325-13 7-43 28-66 45-55 42-235 139-311 167-185 68-225 80-279 89-33 5-103 16-155 25-92 15-405 27-485 19zM7200 6450c-19-4-56-12-82-17-43-10-124-50-158-79-8-7-34-30-57-50-24-20-43-42-43-50 0-7-6-17-14-21s-28-32-45-61c-65-110-62-7-58-2074 4-1911 5-1970 42-2113 17-65 70-241 88-290 16-47 138-299 147-305 4-3 18-25 31-50s25-47 29-50c3-3 29-39 59-80 173-240 423-466 669-607 344-196 699-287 1122-287 223 1 368 16 537 59 54 14 106 25 116 25 18 0 246 84 312 115 57 27 220 120 263 150 270 190 428 347 625 618 26 36 47 71 47 77s11 26 24 43c46 62 156 304 174 382 5 22 22 81 36 130 54 181 66 290 66 598 0 300-8 381-54 552-57 214-68 249-106 329-22 46-40 91-40 99s-11 31-25 51-43 70-66 112c-23 41-56 93-75 115-19 23-34 45-34 49 0 16-178 216-274 307-53 51-122 112-154 135-31 23-68 52-81 65s-28 23-32 23c-5 0-37 19-72 43-130 88-431 222-559 248-29 6-91 19-138 29-162 35-256 45-440 45-168 0-191-2-252-23-37-13-70-28-73-33-4-5-14-9-24-9-24 0-150-112-178-158-88-145-103-198-103-366 0-148 15-214 70-306 53-90 89-128 164-179 104-70 135-79 308-91 84-6 187-17 229-25 86-17 241-72 291-103 18-12 51-31 73-43 41-22 96-68 173-142 114-112 205-259 262-422 9-28 23-111 30-185 11-116 10-153-3-260-15-122-53-248-93-304-7-11-14-27-14-34 0-21-135-195-189-244-85-78-120-108-127-108-3 0-32-18-64-41-107-75-311-137-480-146-143-7-228 6-383 57-94 31-139 53-217 106-102 68-215 177-286 275-49 68-144 258-144 290-1 13-8 51-17 84-16 55-18 218-23 1885-5 1740-6 1828-24 1880-10 30-21 60-26 65-4 6-10 21-13 35-4 14-14 34-24 45s-33 38-52 60c-40 47-120 108-176 134-91 41-296 63-395 41z"/><path d="M8923 6430c-35-14-43-42-43-147 0-112-23-216-60-280-14-24-28-43-31-43-6 0-36 116-45 175-11 77-66 254-85 274-29 30-108 29-136-1-34-38-36-62-9-150 14-46 31-112 39-148s26-116 41-179c25-108 33-191 20-191-3 0-23 14-45 31-50 39-96 47-154 24-71-27-95-70-95-170 1-107 14-215 31-251 21-43 92-77 149-69 25 3 73 8 107 11 60 6 62 5 95-31 28-31 41-37 88-42 80-8 136 10 156 50 32 62 114 129 229 187 127 64 145 86 126 151-13 44-43 69-83 69-20 0-179-68-249-107-3-2-11 38-18 89s-14 102-16 113c-2 10 17 57 44 105 65 114 96 249 89 391-6 124-20 149-81 148-23 0-52-4-64-9zm-268-917c5-58 4-83-4-83-7 0-11 25-11 68 0 37-3 78-6 92-5 17-3 22 4 15 5-5 13-47 17-92zM11885 6406c-27-7-60-18-73-24-50-28-51-34-98-487-9-88-25-234-37-325-28-224-28-247 2-271 53-43 121-53 376-53 267 0 308 7 321 59 3 14-7 144-24 288s-36 318-42 387c-24 269-38 353-64 378-52 52-241 77-361 48zm163-63c-15-2-42-2-60 0s-6 4 27 4 48-2 33-4zm-29-45c-54-14-84-51-84-102 0-43 12-63 52-84 41-22 114-10 135 22 10 14 9 95-1 120-4 10-18 25-32 33-23 13-23 14 15 8 22-4 57-14 78-22l39-16-30-27c-49-45-54-110-11-148 11-9 29-25 40-34 11-10 20-26 20-35-1-16-2-15-12 2-17 33-40 45-80 45-44 0-93-22-102-45-11-30-6-90 10-113 15-22 15-22-26-22-79 0-123-76-86-149 26-50 112-68 156-33 30 24 40 111 17 145-14 22-14 23 12 19 42-6 78 14 100 55l20 38 1-42c0-24 1-46 3-50 1-5-13-13-31-19-51-16-67-38-67-93 0-59 21-86 81-104 23-6 42-15 43-20 1-4-10-24-24-44l-25-38v28c0 42-17 67-57 83-43 18-82 11-117-21-54-50-18-156 58-170 47-9 106 17 106 47 1 20 3 19 15-9 7-17 27-41 44-54 17-12 31-30 31-40 0-15-5-15-67-1-74 16-380 23-465 10-38-6-48-5-48 7 0 7 9 16 20 20 35 11 60 54 60 102 0 36-6 50-30 75-17 17-29 32-28 34 2 1 22 0 44-3l41-5-10-33c-24-78 20-145 95-145 58 0 98 42 98 103 0 38-5 49-31 71-20 17-42 26-65 26-34 0-35 1-20 22 19 27 21 77 4 113-12 27-75 51-109 42-11-3-21-2-22 1-2 4 1 50 7 102 10 88 13 95 34 98s22 2 12-19c-7-13-10-43-7-72 6-64 31-87 94-87 60 0 103 40 103 97s-46 103-103 103c-27 0-28 1-13 22 9 12 16 42 16 65 0 50-24 80-70 90-27 5-42 22-22 24 4 0 39 9 77 19 39 10 88 19 110 18h40l-36-10zm45-59c33-15 40-37 21-65-21-32-52-40-76-18-23 21-25 57-3 78 18 19 25 20 58 5zm-199-59c38-42-14-102-56-64-23 21-24 33-3 62 19 27 36 28 59 2zm357-42c2-21 3-38 1-38-1 0-10 11-18 24-14 20-14 29-4 48 13 25 16 21 21-34zm-275-130c29-27 29-52 1-72-29-20-41-20-68 2-24 20-22 49 6 77 21 20 34 19 61-7zm225-5c26-23 23-59-6-78-23-15-27-15-50 0-30 20-33 41-10 73 18 26 41 28 66 5zm-105-185c37-34 28-71-19-83-19-5-32-1-47 14-27 27-27 45 1 71 28 25 36 25 65-2zm-223-30c21-30 20-51-3-79l-19-24-29 21c-36 27-39 44-13 77s44 34 64 5zm410-4c22-21 20-47-5-70-20-18-21-18-35 1-17 23-18 39-2 65 15 24 22 25 42 4zm-300-176c23-32 20-55-8-73-20-14-29-14-48-4-43 23-49 48-18 79 26 26 55 25 74-2zm227-19c14-26 7-43-26-65-25-16-27-16-50 6-32 30-32 53 1 79 29 23 55 16 75-20zm-431-29c8-15 7-27-4-47l-15-28-1 48c0 52 4 57 20 27zm559-32c0-31-1-31-10-10-5 13-7 28-3 33 10 16 14 9 13-23zm-71-182c122-22 122-45 1-67-84-15-344-6-414 14-57 16-99 36-92 44 3 2 38 11 79 19 87 16 314 11 426-10zM9618 6399c-15-8-18-25-18-104v-94l62-78c34-43 64-80 67-83s19-24 35-48 34-46 41-50c6-4 22-23 35-42s37-51 55-70c17-19 38-45 46-56 24-37 171-218 185-230 8-6 14-15 14-20s22-34 50-64c27-30 49-60 50-66 0-6 12-21 26-35 15-13 44-48 66-77l39-52-28-38c-15-20-33-43-42-49-8-7-14-27-14-44 0-35 24-59 59-59 27 0 73 36 84 66 13 33 23 30 55-16 32-47 67-59 104-39 42 24 38 58-13 122-45 54-56 77-37 77 5 0 26 23 47 51 36 50 122 156 187 232 17 21 41 51 52 67 11 15 51 65 88 111s73 91 80 99 28 35 47 60c18 25 48 61 65 82 16 20 49 60 73 90 23 29 63 77 87 107l45 55v86c0 96-13 120-63 120-38 0-57-34-57-101 0-40-5-60-16-70-9-8-27-30-39-49-13-19-36-50-53-68l-30-34-4 145c-2 103-7 149-17 160-12 15-65 17-575 17-469 0-565-2-582-14-17-13-20-31-24-159l-5-144-67 81c-67 81-68 81-68 143 0 42-5 66-16 77-18 18-51 20-76 5zm642-253c0-80 4-156 10-171 12-33 46-67 90-94 72-43 193-18 250 52 24 30 25 38 29 194l3 163h288v-363l-43-51c-23-28-56-69-72-91s-33-41-37-43-23-24-42-50c-88-118-161-210-243-309-34-41-63-56-63-32 0 7-25 42-55 78s-74 90-97 119c-24 30-55 68-69 85-14 18-74 94-132 169l-107 138v350h290v-144zm270 14c0-126-1-132-25-155-30-30-64-32-99-4-26 20-26 22-26 155v134h150v-130zM1558 6353c-47-39-48-41-48-106 0-72 10-91 60-117 37-19 59-20 436-20 349 0 400 2 431 17 79 37 86 185 11 237-19 14-78 16-439 16h-417l-34-27zM12770 6271c-6-12-10-98-10-212 0-188 14-334 45-459 7-30 16-74 19-96 8-56 60-181 87-210l22-24h1004c842 0 1009 2 1036 14 37 16 93 69 227 215 52 56 101 109 108 116 6 8 22 17 35 21 12 4 51 33 87 65 72 64 100 119 100 196 0 35 5 45 30 63 28 20 30 25 30 89 0 71-19 151-49 204l-18 32-114 3-114 2-34-75c-74-167-199-225-374-175-66 19-138 109-167 208l-13 42-540-2-540-3-12-40c-18-61-40-98-88-148-91-93-245-102-360-20-43 29-71 75-115 186l-12 27h-129c-119 0-131-2-141-19zm1580-541c0-5-25-10-55-10s-55 5-55 10c0 6 25 10 55 10s55-4 55-10zm330 0c0-5-25-10-55-10s-55 5-55 10c0 6 25 10 55 10s55-4 55-10zm522-75c6-6-251-263-278-278-29-16-317-15-337 2-14 11-17 32-17 112 0 126 3 129 116 129 65 0 93 5 121 20 34 18 57 20 214 20 96 0 178-2 181-5zm-1582-160v-125h-266c-156 0-273 4-284 10-10 5-23 25-29 42-16 51-32 164-25 182 5 14 41 16 305 16h299v-125zm732 108c25-22 27-193 2-217-13-14-56-16-320-16h-304v250h302c266 0 304-2 320-17zM474 6201c-54-33-74-67-74-129 0-53 1-56 60-114 33-33 60-64 60-68s-27-35-60-68c-59-59-60-60-60-117 0-41 6-65 20-85 38-54 122-75 178-46 29 16 219 205 246 246 25 37 21 100-10 146-32 49-166 186-218 225-46 34-96 38-142 10zM1029 6205c-36-20-79-88-79-127 0-43 30-93 88-145l47-43-47-42c-94-86-111-153-58-227 17-23 42-46 56-51 33-13 90-13 115 0 34 18 234 224 247 253 18 42 14 102-9 143-25 44-215 233-247 245-34 13-83 10-113-6zM8830 5213c-32-12-71-59-81-96-10-39-5-107 12-139 32-60 164-79 231-33 20 14 39 33 41 42 24 85 12 152-32 197-27 26-38 30-93 33-35 1-70 0-78-4z"/></g></svg>