<svg xmlns="http://www.w3.org/2000/svg" width="354.287" height="354.287"><path d="M88.924 305.208c5.01 21.515-8.383 43.03-29.903 48.031-21.522 5.002-43.036-8.381-48.037-29.904-5.005-21.521 8.386-43.031 29.911-48.038 21.521-5.002 43.02 8.392 48.029 29.911zM72.268 190.229l-12.883 31.059c42.648 17.685 73.57 59.36 78.771 106.146l33.412-3.711c-6.527-58.786-45.51-111.191-99.3-133.494zm17.453-98.204L75.3 122.395c80.232 38.116 137.62 116.731 149.762 205.169l33.302-4.574c-13.65-99.547-78.276-188.051-168.643-230.965zM109.646 0L95.223 30.373C214.304 86.925 296.954 203.69 310.917 335.094l33.434-3.562C329.156 188.573 239.224 61.538 109.646 0z"/></svg>