<svg xmlns="http://www.w3.org/2000/svg" viewBox="0 0 169.55844155844156 256" clip-path="url(#clip)" width="339.1168831168831" height="512"><defs><clipPath id="clip" clipPathUnits="objectBoundingBox"><rect x="0" y="0" width="169.55844155844156" height="256"/></clipPath></defs><rect x="0" y="0" width="169.55844155844156" height="256" fill="rgb(14, 1, 11)"/><path d="M46,131L83,210L128,142Z" fill="rgb(174, 79, 5)" fill-opacity="0.68"/><path d="M56,137L60,162L91,187Z" fill="rgb(241, 140, 0)" fill-opacity="0.47"/><path d="M47,182L73,206L50,175Z" fill="rgb(233, 140, 0)" fill-opacity="0.54"/><path d="M57,138L52,148L67,133Z" fill="rgb(255, 244, 19)" fill-opacity="0.50"/><path d="M122,176L151,153L145,190Z" fill="rgb(140, 10, 0)" fill-opacity="0.51"/><path d="M59,200L122,179L107,207Z" fill="rgb(185, 97, 0)" fill-opacity="0.49"/><path d="M148,161L145,193L140,163Z" fill="rgb(236, 20, 0)" fill-opacity="0.71"/><path d="M100,168L124,157L109,124Z" fill="rgb(188, 112, 29)" fill-opacity="0.48"/><path d="M78,205L79,201L55,192Z" fill="rgb(249, 159, 0)" fill-opacity="0.55"/><path d="M62,149L45,137L51,111Z" fill="rgb(8, 0, 44)" fill-opacity="0.54"/><path d="M109,157L72,189L96,182Z" fill="rgb(252, 155, 0)" fill-opacity="0.47"/><path d="M121,121L85,180L64,135Z" fill="rgb(71, 8, 7)" fill-opacity="0.56"/><path d="M86,202L142,176L116,153Z" fill="rgb(42, 11, 8)" fill-opacity="0.61"/><path d="M118,172L148,205L126,128Z" fill="rgb(19, 0, 9)" fill-opacity="0.88"/><path d="M69,199L93,173L95,195Z" fill="rgb(216, 114, 0)" fill-opacity="0.42"/><path d="M-60,52L23,18L23,85Z" fill="rgb(31, 19, 59)" fill-opacity="0.60"/><path d="M87,170L82,164L72,175Z" fill="rgb(195, 96, 0)" fill-opacity="0.50"/><path d="M56,138L60,138L48,158Z" fill="rgb(255, 176, 6)" fill-opacity="0.54"/><path d="M254,252L51,228L115,194Z" fill="rgb(15, 0, 4)" fill-opacity="0.92"/><path d="M107,134L113,137L124,156Z" fill="rgb(252, 194, 11)" fill-opacity="0.57"/><path d="M81,169L94,156L83,131Z" fill="rgb(11, 0, 2)" fill-opacity="0.55"/><path d="M52,178L49,181L51,175Z" fill="rgb(255, 182, 0)" fill-opacity="0.50"/><path d="M122,154L120,164L117,151Z" fill="rgb(141, 105, 255)" fill-opacity="0.38"/><path d="M99,111L105,105L111,116Z" fill="rgb(176, 78, 0)" fill-opacity="0.54"/><path d="M88,163L92,179L90,149Z" fill="rgb(171, 43, 0)" fill-opacity="0.50"/><path d="M97,46L75,25L104,25Z" fill="rgb(31, 20, 58)" fill-opacity="0.44"/><path d="M51,183L59,177L66,166Z" fill="rgb(160, 60, 0)" fill-opacity="0.52"/><path d="M56,188L63,171L85,189Z" fill="rgb(59, 11, 0)" fill-opacity="0.47"/><path d="M88,187L97,171L97,156Z" fill="rgb(238, 140, 0)" fill-opacity="0.49"/><path d="M64,142L62,142L62,152Z" fill="rgb(255, 184, 0)" fill-opacity="0.47"/><path d="M119,126L113,125L114,135Z" fill="rgb(255, 85, 62)" fill-opacity="0.36"/><path d="M207,163L233,115L123,161Z" fill="rgb(17, 7, 32)" fill-opacity="0.93"/><path d="M90,180L73,178L90,189Z" fill="rgb(254, 195, 0)" fill-opacity="0.42"/><path d="M71,104L71,114L67,109Z" fill="rgb(157, 56, 6)" fill-opacity="0.78"/><path d="M63,133L50,147L46,125Z" fill="rgb(21, 2, 42)" fill-opacity="0.67"/><path d="M112,193L124,178L117,179Z" fill="rgb(218, 144, 0)" fill-opacity="0.62"/><path d="M78,185L71,200L36,133Z" fill="rgb(55, 14, 2)" fill-opacity="0.61"/><path d="M117,145L107,138L119,158Z" fill="rgb(75, 21, 45)" fill-opacity="0.56"/><path d="M101,135L95,154L82,133Z" fill="rgb(140, 40, 7)" fill-opacity="0.56"/><path d="M73,160L85,128L65,150Z" fill="rgb(99, 21, 16)" fill-opacity="0.55"/><path d="M106,158L118,145L106,167Z" fill="rgb(240, 149, 0)" fill-opacity="0.55"/><path d="M138,172L129,18L117,142Z" fill="rgb(16, 1, 14)" fill-opacity="0.91"/><path d="M68,172L71,177L86,186Z" fill="rgb(236, 150, 0)" fill-opacity="0.47"/><path d="M83,177L86,205L72,153Z" fill="rgb(224, 129, 1)" fill-opacity="0.42"/><path d="M82,141L88,149L94,99Z" fill="rgb(18, 0, 8)" fill-opacity="0.58"/><path d="M61,136L52,151L48,151Z" fill="rgb(255, 218, 0)" fill-opacity="0.44"/><path d="M105,200L87,205L71,202Z" fill="rgb(255, 165, 0)" fill-opacity="0.51"/><path d="M133,232L145,241L151,165Z" fill="rgb(49, 0, 0)" fill-opacity="0.56"/><path d="M91,139L88,153L102,137Z" fill="rgb(163, 47, 8)" fill-opacity="0.60"/><path d="M107,152L108,142L111,144Z" fill="rgb(252, 161, 0)" fill-opacity="0.49"/><path d="M118,144L121,149L120,164Z" fill="rgb(255, 224, 189)" fill-opacity="0.30"/><path d="M60,154L47,167L56,187Z" fill="rgb(80, 20, 0)" fill-opacity="0.42"/><path d="M113,135L114,111L27,124Z" fill="rgb(19, 0, 10)" fill-opacity="0.86"/><path d="M124,200L119,164L142,181Z" fill="rgb(14, 0, 5)" fill-opacity="0.73"/><path d="M140,174L148,173L141,159Z" fill="rgb(251, 26, 0)" fill-opacity="0.49"/><path d="M11,24L18,96L25,27Z" fill="rgb(27, 26, 73)" fill-opacity="0.41"/><path d="M76,185L76,199L82,176Z" fill="rgb(213, 114, 1)" fill-opacity="0.53"/><path d="M136,165L96,199L92,182Z" fill="rgb(45, 8, 1)" fill-opacity="0.67"/><path d="M118,183L104,196L102,168Z" fill="rgb(55, 11, 1)" fill-opacity="0.63"/><path d="M123,456L103,210L4,185Z" fill="rgb(10, 0, 5)" fill-opacity="0.87"/><path d="M97,96L101,102L77,88Z" fill="rgb(27, 12, 42)" fill-opacity="0.51"/><path d="M99,200L118,186L109,197Z" fill="rgb(255, 220, 0)" fill-opacity="0.47"/><path d="M94,182L76,181L82,185Z" fill="rgb(253, 198, 0)" fill-opacity="0.61"/><path d="M65,198L82,210L43,202Z" fill="rgb(25, 0, 0)" fill-opacity="0.53"/><path d="M115,153L97,182L96,172Z" fill="rgb(224, 115, 0)" fill-opacity="0.36"/><path d="M58,161L69,168L65,181Z" fill="rgb(48, 3, 0)" fill-opacity="0.44"/><path d="M65,152L71,140L63,141Z" fill="rgb(203, 112, 0)" fill-opacity="0.46"/><path d="M52,154L47,203L-42,168Z" fill="rgb(13, 0, 5)" fill-opacity="0.82"/><path d="M104,200L94,202L118,188Z" fill="rgb(255, 179, 0)" fill-opacity="0.38"/><path d="M80,22L107,66L82,71Z" fill="rgb(22, 7, 25)" fill-opacity="0.51"/><path d="M59,141L52,177L53,149Z" fill="rgb(75, 18, 0)" fill-opacity="0.58"/><path d="M72,189L82,175L59,188Z" fill="rgb(40, 3, 0)" fill-opacity="0.41"/><path d="M138,168L142,174L138,158Z" fill="rgb(136, 0, 0)" fill-opacity="0.49"/><path d="M70,154L71,165L67,165Z" fill="rgb(245, 138, 0)" fill-opacity="0.47"/><path d="M95,193L83,201L76,190Z" fill="rgb(228, 104, 3)" fill-opacity="0.52"/><path d="M111,167L120,176L117,175Z" fill="rgb(173, 65, 4)" fill-opacity="0.54"/><path d="M119,181L106,189L102,168Z" fill="rgb(61, 17, 3)" fill-opacity="0.54"/><path d="M98,143L113,141L107,147Z" fill="rgb(185, 106, 0)" fill-opacity="0.50"/><path d="M99,159L105,146L105,155Z" fill="rgb(53, 0, 0)" fill-opacity="0.50"/><path d="M76,151L67,145L73,166Z" fill="rgb(88, 20, 25)" fill-opacity="0.72"/><path d="M161,149L169,149L161,161Z" fill="rgb(34, 22, 80)" fill-opacity="0.48"/><path d="M74,203L64,197L78,202Z" fill="rgb(255, 210, 0)" fill-opacity="0.46"/><path d="M82,165L89,153L86,124Z" fill="rgb(8, 0, 8)" fill-opacity="0.59"/><path d="M79,172L95,188L56,157Z" fill="rgb(216, 124, 1)" fill-opacity="0.43"/><path d="M49,178L51,180L51,171Z" fill="rgb(255, 172, 0)" fill-opacity="0.48"/><path d="M61,196L49,180L68,197Z" fill="rgb(244, 164, 0)" fill-opacity="0.50"/><path d="M70,140L61,140L64,135Z" fill="rgb(44, 0, 2)" fill-opacity="0.50"/><path d="M99,203L99,200L74,204Z" fill="rgb(255, 184, 0)" fill-opacity="0.41"/><path d="M68,133L61,133L66,135Z" fill="rgb(255, 189, 0)" fill-opacity="0.55"/><path d="M39,152L52,155L38,121Z" fill="rgb(17, 0, 21)" fill-opacity="0.52"/><path d="M111,153L115,146L111,139Z" fill="rgb(79, 8, 5)" fill-opacity="0.55"/><path d="M95,167L91,181L89,169Z" fill="rgb(168, 85, 1)" fill-opacity="0.54"/><path d="M100,191L102,194L95,170Z" fill="rgb(198, 81, 3)" fill-opacity="0.52"/><path d="M115,183L100,159L107,174Z" fill="rgb(154, 69, 2)" fill-opacity="0.66"/><path d="M98,199L86,184L79,189Z" fill="rgb(124, 49, 1)" fill-opacity="0.59"/><path d="M51,150L54,142L52,158Z" fill="rgb(255, 161, 0)" fill-opacity="0.40"/><path d="M76,201L62,189L79,199Z" fill="rgb(31, 0, 0)" fill-opacity="0.58"/><path d="M138,160L170,149L136,148Z" fill="rgb(23, 13, 51)" fill-opacity="0.45"/><path d="M73,168L59,190L70,166Z" fill="rgb(154, 74, 1)" fill-opacity="0.53"/><path d="M36,87L43,55L1,91Z" fill="rgb(14, 6, 25)" fill-opacity="0.49"/><path d="M92,185L91,203L88,185Z" fill="rgb(65, 0, 1)" fill-opacity="0.35"/><path d="M103,140L116,152L104,148Z" fill="rgb(229, 142, 0)" fill-opacity="0.43"/><path d="M119,94L129,112L151,97Z" fill="rgb(19, 13, 43)" fill-opacity="0.41"/><path d="M113,193L119,177L120,185Z" fill="rgb(231, 145, 0)" fill-opacity="0.53"/><path d="M122,168L104,155L109,161Z" fill="rgb(206, 103, 3)" fill-opacity="0.44"/><path d="M6,14L14,105L-63,-35Z" fill="rgb(21, 4, 20)" fill-opacity="0.61"/><path d="M89,132L88,89L68,102Z" fill="rgb(21, 1, 17)" fill-opacity="0.82"/><path d="M60,160L65,167L43,168Z" fill="rgb(34, 4, 3)" fill-opacity="0.68"/><path d="M114,188L91,200L96,201Z" fill="rgb(29, 0, 0)" fill-opacity="0.56"/><path d="M78,199L95,193L74,189Z" fill="rgb(222, 110, 3)" fill-opacity="0.43"/><path d="M82,138L77,131L82,175Z" fill="rgb(164, 21, 0)" fill-opacity="0.33"/><path d="M-54,167L14,153L7,129Z" fill="rgb(38, 0, 13)" fill-opacity="0.48"/><path d="M153,7L58,4L125,-92Z" fill="rgb(17, 13, 39)" fill-opacity="0.43"/><path d="M103,194L104,183L109,194Z" fill="rgb(0, 0, 3)" fill-opacity="0.49"/><path d="M111,162L117,162L118,147Z" fill="rgb(47, 0, 59)" fill-opacity="0.41"/><path d="M102,173L111,189L113,183Z" fill="rgb(0, 0, 2)" fill-opacity="0.56"/><path d="M71,185L67,196L57,188Z" fill="rgb(58, 13, 0)" fill-opacity="0.78"/><path d="M86,169L79,169L81,171Z" fill="rgb(255, 225, 2)" fill-opacity="0.52"/><path d="M106,150L105,155L108,164Z" fill="rgb(254, 182, 0)" fill-opacity="0.49"/><path d="M-52,-19L24,29L82,27Z" fill="rgb(16, 0, 14)" fill-opacity="0.79"/><path d="M148,188L144,195L136,165Z" fill="rgb(87, 0, 0)" fill-opacity="0.49"/><path d="M-52,264L112,260L63,215Z" fill="rgb(9, 0, 6)" fill-opacity="0.82"/><path d="M15,88L26,63L4,48Z" fill="rgb(29, 18, 53)" fill-opacity="0.40"/><path d="M67,154L62,166L67,148Z" fill="rgb(245, 161, 0)" fill-opacity="0.46"/><path d="M76,169L85,159L78,173Z" fill="rgb(82, 14, 0)" fill-opacity="0.37"/><path d="M121,182L123,132L143,185Z" fill="rgb(15, 0, 9)" fill-opacity="0.71"/><path d="M93,134L92,149L87,133Z" fill="rgb(173, 59, 3)" fill-opacity="0.49"/><path d="M120,167L117,157L119,149Z" fill="rgb(121, 84, 212)" fill-opacity="0.38"/><path d="M104,166L107,167L99,155Z" fill="rgb(196, 104, 0)" fill-opacity="0.59"/><path d="M147,175L143,160L145,187Z" fill="rgb(251, 23, 0)" fill-opacity="0.50"/><path d="M67,170L77,170L72,179Z" fill="rgb(210, 119, 1)" fill-opacity="0.74"/><path d="M80,162L84,171L80,149Z" fill="rgb(130, 9, 0)" fill-opacity="0.51"/><path d="M90,171L86,170L113,161Z" fill="rgb(202, 109, 0)" fill-opacity="0.56"/><path d="M78,159L74,159L73,171Z" fill="rgb(215, 115, 3)" fill-opacity="0.50"/><path d="M110,140L116,146L112,148Z" fill="rgb(54, 0, 17)" fill-opacity="0.61"/><path d="M85,17L84,43L101,38Z" fill="rgb(26, 13, 41)" fill-opacity="0.50"/><path d="M112,167L99,158L118,175Z" fill="rgb(159, 68, 0)" fill-opacity="0.48"/><path d="M83,187L87,189L83,190Z" fill="rgb(203, 118, 3)" fill-opacity="0.53"/><path d="M154,182L147,161L146,183Z" fill="rgb(74, 3, 0)" fill-opacity="0.42"/><path d="M60,144L56,153L60,156Z" fill="rgb(234, 143, 0)" fill-opacity="0.40"/><path d="M114,188L103,201L123,180Z" fill="rgb(255, 183, 1)" fill-opacity="0.56"/><path d="M90,141L89,139L90,168Z" fill="rgb(225, 15, 1)" fill-opacity="0.48"/><path d="M60,129L50,134L48,130Z" fill="rgb(3, 7, 87)" fill-opacity="0.52"/><path d="M91,204L79,204L72,200Z" fill="rgb(253, 179, 0)" fill-opacity="0.63"/><path d="M72,133L80,141L84,134Z" fill="rgb(121, 37, 0)" fill-opacity="0.51"/><path d="M97,139L113,134L104,135Z" fill="rgb(206, 105, 34)" fill-opacity="0.33"/><path d="M52,178L57,180L60,191Z" fill="rgb(42, 2, 0)" fill-opacity="0.66"/><path d="M54,132L5,125L51,147Z" fill="rgb(14, 0, 5)" fill-opacity="0.51"/><path d="M87,178L89,171L83,173Z" fill="rgb(18, 0, 0)" fill-opacity="0.58"/><path d="M86,251L159,261L121,202Z" fill="rgb(4, 0, 9)" fill-opacity="0.40"/><path d="M-6,112L52,121L76,112Z" fill="rgb(13, 0, 3)" fill-opacity="0.58"/><path d="M77,183L73,200L67,194Z" fill="rgb(17, 0, 0)" fill-opacity="0.44"/><path d="M65,163L65,160L56,145Z" fill="rgb(255, 166, 1)" fill-opacity="0.54"/><path d="M101,109L102,113L108,108Z" fill="rgb(255, 174, 1)" fill-opacity="0.50"/><path d="M114,155L114,137L113,155Z" fill="rgb(255, 217, 1)" fill-opacity="0.42"/><path d="M106,171L115,174L107,166Z" fill="rgb(0, 0, 0)" fill-opacity="0.39"/><path d="M51,134L56,139L61,135Z" fill="rgb(37, 6, 107)" fill-opacity="0.54"/><path d="M52,125L48,121L66,121Z" fill="rgb(6, 3, 57)" fill-opacity="0.45"/><path d="M164,150L159,150L163,154Z" fill="rgb(51, 33, 122)" fill-opacity="0.48"/><path d="M78,227L121,201L66,207Z" fill="rgb(18, 0, 2)" fill-opacity="0.61"/><path d="M88,199L105,196L87,201Z" fill="rgb(22, 0, 0)" fill-opacity="0.52"/><path d="M149,159L134,164L141,144Z" fill="rgb(19, 7, 26)" fill-opacity="0.50"/><path d="M63,151L65,150L63,164Z" fill="rgb(107, 1, 0)" fill-opacity="0.43"/><path d="M105,159L103,147L106,177Z" fill="rgb(106, 38, 0)" fill-opacity="0.49"/><path d="M106,108L106,112L101,108Z" fill="rgb(255, 149, 5)" fill-opacity="0.71"/><path d="M97,157L94,168L98,171Z" fill="rgb(227, 117, 2)" fill-opacity="0.49"/><path d="M83,135L93,171L81,145Z" fill="rgb(27, 0, 5)" fill-opacity="0.48"/><path d="M64,70L88,85L54,100Z" fill="rgb(10, 0, 27)" fill-opacity="0.34"/><path d="M102,172L98,174L102,177Z" fill="rgb(233, 121, 2)" fill-opacity="0.49"/><path d="M35,136L51,170L50,149Z" fill="rgb(19, 0, 21)" fill-opacity="0.63"/><path d="M33,221L8,241L23,221Z" fill="rgb(24, 0, 3)" fill-opacity="0.55"/><path d="M90,180L97,199L93,195Z" fill="rgb(244, 137, 3)" fill-opacity="0.38"/><path d="M110,134L108,136L115,142Z" fill="rgb(255, 204, 0)" fill-opacity="0.49"/><path d="M112,134L117,143L125,125Z" fill="rgb(32, 0, 17)" fill-opacity="0.51"/><path d="M96,177L103,167L92,178Z" fill="rgb(144, 54, 2)" fill-opacity="0.56"/><path d="M79,186L78,185L74,196Z" fill="rgb(255, 155, 2)" fill-opacity="0.50"/><path d="M111,107L143,83L76,110Z" fill="rgb(18, 0, 11)" fill-opacity="0.86"/><path d="M87,198L85,193L78,200Z" fill="rgb(255, 126, 3)" fill-opacity="0.49"/><path d="M147,157L153,166L148,175Z" fill="rgb(52, 0, 4)" fill-opacity="0.48"/><path d="M127,142L128,121L111,137Z" fill="rgb(21, 4, 21)" fill-opacity="0.58"/><path d="M115,207L111,200L127,171Z" fill="rgb(27, 0, 3)" fill-opacity="0.58"/><path d="M108,167L106,166L96,186Z" fill="rgb(54, 7, 1)" fill-opacity="0.48"/><path d="M103,22L80,22L102,44Z" fill="rgb(25, 13, 38)" fill-opacity="0.37"/><path d="M78,179L70,196L77,173Z" fill="rgb(33, 1, 0)" fill-opacity="0.59"/><path d="M51,155L52,153L51,143Z" fill="rgb(252, 147, 1)" fill-opacity="0.44"/><path d="M102,51L76,70L105,70Z" fill="rgb(15, 8, 23)" fill-opacity="0.59"/><path d="M40,166L55,189L54,208Z" fill="rgb(27, 0, 0)" fill-opacity="0.56"/><path d="M5,101L62,94L74,128Z" fill="rgb(12, 0, 4)" fill-opacity="0.56"/><path d="M105,150L95,155L100,162Z" fill="rgb(79, 15, 1)" fill-opacity="0.63"/><path d="M73,119L86,125L71,110Z" fill="rgb(40, 6, 26)" fill-opacity="0.52"/><path d="M64,163L48,174L61,163Z" fill="rgb(138, 46, 4)" fill-opacity="0.47"/><path d="M59,177L67,168L61,184Z" fill="rgb(1, 0, 0)" fill-opacity="0.50"/><path d="M49,177L59,188L59,195Z" fill="rgb(255, 186, 0)" fill-opacity="0.42"/><path d="M116,185L112,188L124,168Z" fill="rgb(53, 6, 5)" fill-opacity="0.59"/><path d="M167,77L141,89L173,92Z" fill="rgb(19, 2, 26)" fill-opacity="0.47"/><path d="M83,160L91,129L78,155Z" fill="rgb(25, 0, 5)" fill-opacity="0.54"/><path d="M86,191L92,218L86,185Z" fill="rgb(104, 41, 2)" fill-opacity="0.47"/><path d="M69,190L78,177L74,192Z" fill="rgb(18, 0, 1)" fill-opacity="0.56"/><path d="M73,134L64,146L70,128Z" fill="rgb(52, 6, 3)" fill-opacity="0.61"/><path d="M108,282L140,246L107,246Z" fill="rgb(9, 0, 21)" fill-opacity="0.52"/><path d="M113,157L132,167L111,161Z" fill="rgb(15, 0, 28)" fill-opacity="0.35"/><path d="M23,60L51,45L22,-4Z" fill="rgb(15, 2, 19)" fill-opacity="0.50"/></svg>