<svg xmlns="http://www.w3.org/2000/svg" viewBox="0 0 256 169.55844155844156" clip-path="url(#clip)" width="512" height="339.1168831168831"><defs><clipPath id="clip" clipPathUnits="objectBoundingBox"><rect x="0" y="0" width="256" height="169.55844155844156"/></clipPath></defs><rect x="0" y="0" width="256" height="169.55844155844156" fill="rgb(81, 72, 59)"/><path d="M-90,102L11,9L39,103Z" fill="rgb(246, 189, 197)" fill-opacity="0.41"/><path d="M165,83L105,101L133,64Z" fill="rgb(200, 108, 101)" fill-opacity="0.76"/><path d="M187,185L4,166L83,133Z" fill="rgb(196, 225, 245)" fill-opacity="0.59"/><path d="M248,-279L17,50L188,82Z" fill="rgb(5, 3, 19)" fill-opacity="0.78"/><path d="M106,93L139,62L166,76Z" fill="rgb(227, 124, 114)" fill-opacity="0.49"/><path d="M163,120L141,102L165,92Z" fill="rgb(208, 165, 137)" fill-opacity="0.56"/><path d="M43,92L125,72L-17,-63Z" fill="rgb(24, 13, 10)" fill-opacity="0.72"/><path d="M239,139L95,113L182,225Z" fill="rgb(137, 106, 35)" fill-opacity="0.63"/><path d="M95,139L61,102L21,157Z" fill="rgb(175, 131, 53)" fill-opacity="0.60"/><path d="M104,143L135,159L18,153Z" fill="rgb(237, 243, 255)" fill-opacity="0.52"/><path d="M181,125L130,106L127,129Z" fill="rgb(194, 72, 110)" fill-opacity="0.55"/><path d="M48,64L42,143L16,111Z" fill="rgb(102, 54, 27)" fill-opacity="0.59"/><path d="M244,96L181,127L148,52Z" fill="rgb(43, 36, 18)" fill-opacity="0.94"/><path d="M12,16L28,50L-9,100Z" fill="rgb(151, 130, 131)" fill-opacity="0.86"/><path d="M239,88L212,82L248,159Z" fill="rgb(47, 33, 12)" fill-opacity="0.66"/><path d="M50,81L41,85L39,74Z" fill="rgb(221, 172, 0)" fill-opacity="0.52"/><path d="M22,138L2,80L-28,148Z" fill="rgb(153, 98, 68)" fill-opacity="1.00"/><path d="M145,103L160,99L156,112Z" fill="rgb(212, 219, 190)" fill-opacity="0.61"/><path d="M108,111L105,151L21,98Z" fill="rgb(151, 106, 35)" fill-opacity="0.44"/><path d="M219,13L224,-37L173,11Z" fill="rgb(3, 6, 30)" fill-opacity="0.65"/><path d="M256,31L219,72L284,183Z" fill="rgb(66, 62, 1)" fill-opacity="0.54"/><path d="M45,82L108,62L122,135Z" fill="rgb(75, 48, 1)" fill-opacity="0.54"/><path d="M39,115L11,112L55,92Z" fill="rgb(46, 29, 23)" fill-opacity="0.53"/><path d="M112,153L2,165L169,217Z" fill="rgb(40, 119, 173)" fill-opacity="0.41"/><path d="M80,120L89,88L42,116Z" fill="rgb(181, 142, 35)" fill-opacity="0.51"/><path d="M-72,144L29,140L4,177Z" fill="rgb(93, 65, 18)" fill-opacity="0.84"/><path d="M205,143L125,129L205,124Z" fill="rgb(27, 14, 0)" fill-opacity="0.38"/><path d="M247,106L248,204L296,43Z" fill="rgb(56, 0, 0)" fill-opacity="0.51"/><path d="M121,131L129,84L111,97Z" fill="rgb(157, 68, 55)" fill-opacity="0.61"/><path d="M19,166L22,155L55,149Z" fill="rgb(241, 233, 246)" fill-opacity="0.46"/><path d="M206,106L131,120L203,124Z" fill="rgb(92, 59, 30)" fill-opacity="0.70"/><path d="M213,121L209,113L230,118Z" fill="rgb(233, 199, 176)" fill-opacity="0.52"/><path d="M197,40L189,27L193,48Z" fill="rgb(136, 124, 80)" fill-opacity="0.46"/><path d="M84,86L92,90L81,104Z" fill="rgb(252, 206, 0)" fill-opacity="0.37"/><path d="M204,25L191,25L201,2Z" fill="rgb(0, 5, 22)" fill-opacity="0.52"/><path d="M70,129L83,120L84,131Z" fill="rgb(213, 226, 251)" fill-opacity="0.35"/><path d="M202,6L83,65L-32,-20Z" fill="rgb(12, 11, 28)" fill-opacity="0.78"/><path d="M142,139L80,145L106,109Z" fill="rgb(92, 64, 37)" fill-opacity="0.68"/><path d="M102,144L89,149L140,166Z" fill="rgb(247, 242, 243)" fill-opacity="0.50"/><path d="M198,119L223,119L201,115Z" fill="rgb(255, 242, 223)" fill-opacity="0.60"/><path d="M149,132L135,125L148,120Z" fill="rgb(220, 96, 232)" fill-opacity="0.40"/><path d="M148,92L147,108L123,86Z" fill="rgb(132, 77, 61)" fill-opacity="0.84"/><path d="M94,150L46,155L140,166Z" fill="rgb(137, 178, 213)" fill-opacity="0.60"/><path d="M268,136L297,240L220,158Z" fill="rgb(94, 40, 13)" fill-opacity="0.74"/><path d="M128,142L62,146L49,129Z" fill="rgb(142, 109, 40)" fill-opacity="0.59"/><path d="M229,94L158,104L181,66Z" fill="rgb(9, 9, 12)" fill-opacity="0.44"/><path d="M245,121L241,119L250,66Z" fill="rgb(174, 119, 70)" fill-opacity="0.55"/><path d="M158,78L119,76L138,90Z" fill="rgb(229, 158, 182)" fill-opacity="0.45"/><path d="M150,108L127,117L158,118Z" fill="rgb(192, 112, 131)" fill-opacity="0.55"/><path d="M15,160L18,132L44,147Z" fill="rgb(109, 62, 50)" fill-opacity="0.52"/><path d="M212,15L195,75L232,85Z" fill="rgb(117, 111, 59)" fill-opacity="0.53"/><path d="M162,76L140,102L167,90Z" fill="rgb(174, 89, 60)" fill-opacity="0.53"/><path d="M14,139L27,146L19,137Z" fill="rgb(250, 177, 91)" fill-opacity="0.43"/><path d="M118,143L121,164L151,185Z" fill="rgb(255, 223, 189)" fill-opacity="0.33"/><path d="M106,142L196,201L212,156Z" fill="rgb(152, 138, 50)" fill-opacity="0.58"/><path d="M137,86L138,94L145,82Z" fill="rgb(237, 191, 161)" fill-opacity="0.59"/><path d="M81,102L93,93L122,123Z" fill="rgb(1, 0, 47)" fill-opacity="0.37"/><path d="M27,107L19,97L30,97Z" fill="rgb(147, 119, 125)" fill-opacity="0.50"/><path d="M13,124L-55,172L13,99Z" fill="rgb(200, 130, 98)" fill-opacity="0.58"/><path d="M61,130L66,112L52,126Z" fill="rgb(20, 10, 23)" fill-opacity="0.44"/><path d="M10,57L6,112L35,81Z" fill="rgb(176, 145, 137)" fill-opacity="0.52"/><path d="M59,54L35,60L71,112Z" fill="rgb(30, 20, 1)" fill-opacity="0.51"/><path d="M94,140L48,132L80,129Z" fill="rgb(184, 166, 40)" fill-opacity="0.58"/><path d="M37,143L57,144L49,127Z" fill="rgb(237, 157, 130)" fill-opacity="0.40"/><path d="M157,118L143,122L122,118Z" fill="rgb(18, 7, 12)" fill-opacity="0.49"/><path d="M244,136L249,142L244,92Z" fill="rgb(207, 135, 85)" fill-opacity="0.37"/><path d="M31,89L36,82L34,102Z" fill="rgb(243, 77, 40)" fill-opacity="0.48"/><path d="M78,118L95,119L73,105Z" fill="rgb(212, 133, 31)" fill-opacity="0.41"/><path d="M1,42L1,17L-20,82Z" fill="rgb(24, 2, 0)" fill-opacity="0.65"/><path d="M18,70L34,91L51,94Z" fill="rgb(151, 107, 98)" fill-opacity="0.59"/><path d="M221,119L234,116L216,114Z" fill="rgb(248, 199, 182)" fill-opacity="0.45"/><path d="M53,102L25,127L92,115Z" fill="rgb(156, 136, 52)" fill-opacity="0.44"/><path d="M31,152L45,121L20,134Z" fill="rgb(63, 27, 33)" fill-opacity="0.54"/><path d="M12,13L-44,-30L24,42Z" fill="rgb(120, 107, 117)" fill-opacity="0.66"/><path d="M230,155L245,117L239,178Z" fill="rgb(133, 64, 22)" fill-opacity="0.46"/><path d="M164,126L173,127L164,94Z" fill="rgb(186, 73, 46)" fill-opacity="0.40"/><path d="M11,123L24,127L-12,198Z" fill="rgb(58, 53, 5)" fill-opacity="0.31"/><path d="M234,175L235,159L255,198Z" fill="rgb(252, 93, 29)" fill-opacity="0.49"/><path d="M233,157L220,159L236,175Z" fill="rgb(32, 50, 23)" fill-opacity="0.50"/><path d="M200,79L154,63L186,21Z" fill="rgb(50, 47, 22)" fill-opacity="0.63"/><path d="M81,142L108,152L38,152Z" fill="rgb(255, 255, 255)" fill-opacity="0.37"/><path d="M133,122L122,124L145,128Z" fill="rgb(250, 125, 191)" fill-opacity="0.50"/><path d="M229,129L234,98L243,105Z" fill="rgb(22, 13, 15)" fill-opacity="0.67"/><path d="M55,104L61,95L55,90Z" fill="rgb(187, 151, 145)" fill-opacity="0.50"/><path d="M83,87L85,62L98,75Z" fill="rgb(89, 91, 5)" fill-opacity="0.44"/><path d="M207,113L224,82L230,115Z" fill="rgb(57, 54, 17)" fill-opacity="0.66"/><path d="M8,109L-37,105L6,85Z" fill="rgb(82, 44, 0)" fill-opacity="0.35"/><path d="M25,103L23,117L11,104Z" fill="rgb(0, 0, 0)" fill-opacity="0.41"/><path d="M133,66L120,72L142,75Z" fill="rgb(177, 94, 59)" fill-opacity="0.51"/><path d="M74,127L80,117L66,123Z" fill="rgb(0, 0, 48)" fill-opacity="0.49"/><path d="M260,159L199,119L228,119Z" fill="rgb(64, 55, 18)" fill-opacity="0.57"/><path d="M59,106L61,92L75,101Z" fill="rgb(36, 34, 1)" fill-opacity="0.50"/><path d="M166,119L202,92L201,154Z" fill="rgb(76, 62, 12)" fill-opacity="0.46"/><path d="M36,132L14,128L37,121Z" fill="rgb(217, 72, 89)" fill-opacity="0.34"/><path d="M82,107L82,100L68,117Z" fill="rgb(69, 0, 23)" fill-opacity="0.34"/><path d="M58,108L71,104L83,112Z" fill="rgb(217, 134, 114)" fill-opacity="0.55"/><path d="M146,137L162,147L177,139Z" fill="rgb(0, 76, 47)" fill-opacity="0.35"/><path d="M109,86L106,96L129,89Z" fill="rgb(177, 95, 76)" fill-opacity="0.47"/><path d="M155,113L165,114L158,104Z" fill="rgb(237, 178, 136)" fill-opacity="0.46"/><path d="M236,96L232,92L229,79Z" fill="rgb(188, 131, 100)" fill-opacity="0.47"/><path d="M240,9L230,-38L249,14Z" fill="rgb(7, 18, 39)" fill-opacity="0.45"/><path d="M74,101L77,106L79,100Z" fill="rgb(255, 128, 140)" fill-opacity="0.47"/><path d="M206,140L205,123L210,136Z" fill="rgb(148, 107, 95)" fill-opacity="0.60"/><path d="M252,130L248,104L280,68Z" fill="rgb(19, 15, 16)" fill-opacity="0.68"/><path d="M109,121L116,114L105,109Z" fill="rgb(31, 48, 132)" fill-opacity="0.46"/><path d="M41,41L15,18L22,-57Z" fill="rgb(56, 22, 4)" fill-opacity="0.58"/><path d="M205,58L187,67L209,76Z" fill="rgb(129, 112, 65)" fill-opacity="0.64"/><path d="M245,95L240,102L236,87Z" fill="rgb(8, 1, 19)" fill-opacity="0.67"/><path d="M9,113L-29,120L35,117Z" fill="rgb(143, 95, 72)" fill-opacity="0.70"/><path d="M211,37L175,-22L204,17Z" fill="rgb(9, 11, 32)" fill-opacity="0.55"/><path d="M100,116L93,126L88,113Z" fill="rgb(176, 105, 73)" fill-opacity="0.52"/><path d="M39,82L29,-14L27,70Z" fill="rgb(48, 17, 6)" fill-opacity="0.70"/><path d="M146,78L165,75L128,67Z" fill="rgb(175, 76, 64)" fill-opacity="0.62"/><path d="M107,145L86,125L87,142Z" fill="rgb(78, 54, 31)" fill-opacity="0.48"/><path d="M162,134L197,133L98,125Z" fill="rgb(52, 50, 25)" fill-opacity="0.79"/><path d="M111,83L95,92L96,43Z" fill="rgb(25, 19, 12)" fill-opacity="0.54"/><path d="M138,96L127,106L128,86Z" fill="rgb(68, 27, 30)" fill-opacity="0.58"/><path d="M153,124L183,131L163,120Z" fill="rgb(254, 88, 47)" fill-opacity="0.47"/><path d="M124,75L124,94L130,81Z" fill="rgb(243, 185, 180)" fill-opacity="0.39"/><path d="M82,122L74,125L78,134Z" fill="rgb(207, 188, 188)" fill-opacity="0.52"/><path d="M178,10L176,33L202,60Z" fill="rgb(28, 30, 23)" fill-opacity="0.75"/><path d="M70,128L75,126L67,119Z" fill="rgb(19, 16, 13)" fill-opacity="0.49"/><path d="M117,75L107,77L120,90Z" fill="rgb(105, 44, 32)" fill-opacity="0.60"/><path d="M206,134L220,150L229,123Z" fill="rgb(101, 71, 47)" fill-opacity="0.66"/><path d="M21,156L7,170L20,172Z" fill="rgb(172, 153, 151)" fill-opacity="0.66"/><path d="M36,148L35,136L55,148Z" fill="rgb(153, 170, 73)" fill-opacity="0.45"/><path d="M57,129L38,121L29,140Z" fill="rgb(61, 24, 25)" fill-opacity="0.36"/><path d="M15,133L12,134L32,151Z" fill="rgb(240, 159, 79)" fill-opacity="0.44"/><path d="M261,94L244,32L204,63Z" fill="rgb(83, 87, 23)" fill-opacity="0.45"/><path d="M226,37L205,43L197,25Z" fill="rgb(104, 106, 97)" fill-opacity="0.49"/><path d="M84,144L93,140L59,135Z" fill="rgb(98, 64, 53)" fill-opacity="0.58"/><path d="M209,118L230,116L213,119Z" fill="rgb(255, 255, 249)" fill-opacity="0.49"/><path d="M11,123L18,125L8,134Z" fill="rgb(53, 15, 28)" fill-opacity="0.40"/><path d="M119,118L116,114L128,105Z" fill="rgb(196, 110, 100)" fill-opacity="0.56"/><path d="M242,54L220,58L228,27Z" fill="rgb(106, 101, 56)" fill-opacity="0.50"/><path d="M163,134L175,138L129,135Z" fill="rgb(239, 100, 54)" fill-opacity="0.46"/><path d="M207,32L221,50L218,11Z" fill="rgb(105, 106, 92)" fill-opacity="0.47"/><path d="M85,113L97,107L93,92Z" fill="rgb(18, 12, 0)" fill-opacity="0.46"/><path d="M90,158L119,168L48,203Z" fill="rgb(88, 137, 159)" fill-opacity="0.78"/><path d="M123,148L120,135L113,137Z" fill="rgb(36, 105, 70)" fill-opacity="0.49"/><path d="M69,115L70,109L78,113Z" fill="rgb(39, 22, 35)" fill-opacity="0.45"/><path d="M162,117L181,111L179,125Z" fill="rgb(88, 25, 55)" fill-opacity="0.50"/><path d="M-20,177L9,136L10,156Z" fill="rgb(49, 78, 3)" fill-opacity="0.41"/><path d="M142,136L105,135L123,132Z" fill="rgb(196, 88, 30)" fill-opacity="0.44"/><path d="M191,38L191,28L196,39Z" fill="rgb(155, 141, 105)" fill-opacity="0.51"/><path d="M30,56L48,57L35,12Z" fill="rgb(62, 26, 13)" fill-opacity="0.61"/><path d="M154,155L127,176L213,176Z" fill="rgb(157, 133, 57)" fill-opacity="0.71"/><path d="M147,107L139,93L148,97Z" fill="rgb(199, 112, 62)" fill-opacity="0.51"/><path d="M137,115L145,118L149,115Z" fill="rgb(242, 88, 255)" fill-opacity="0.52"/><path d="M150,100L144,116L157,99Z" fill="rgb(209, 189, 166)" fill-opacity="0.48"/><path d="M227,116L229,118L220,119Z" fill="rgb(240, 211, 186)" fill-opacity="0.50"/><path d="M68,121L70,150L62,110Z" fill="rgb(199, 153, 79)" fill-opacity="0.47"/><path d="M31,160L36,152L85,146Z" fill="rgb(244, 243, 247)" fill-opacity="0.54"/><path d="M-77,3L28,60L3,88Z" fill="rgb(160, 137, 135)" fill-opacity="0.78"/><path d="M40,95L54,122L45,131Z" fill="rgb(167, 136, 78)" fill-opacity="0.47"/><path d="M86,87L70,64L65,105Z" fill="rgb(78, 76, 0)" fill-opacity="0.48"/><path d="M45,132L54,129L58,120Z" fill="rgb(35, 20, 42)" fill-opacity="0.46"/><path d="M215,118L222,142L209,127Z" fill="rgb(25, 29, 15)" fill-opacity="0.37"/><path d="M123,118L138,112L126,105Z" fill="rgb(104, 45, 21)" fill-opacity="0.49"/><path d="M224,105L181,89L185,122Z" fill="rgb(65, 63, 14)" fill-opacity="0.48"/><path d="M57,106L64,116L43,103Z" fill="rgb(149, 152, 0)" fill-opacity="0.55"/><path d="M121,122L133,123L106,128Z" fill="rgb(193, 115, 85)" fill-opacity="0.48"/><path d="M227,3L219,-2L224,25Z" fill="rgb(98, 110, 112)" fill-opacity="0.46"/><path d="M2,108L12,113L-11,116Z" fill="rgb(244, 143, 96)" fill-opacity="0.51"/><path d="M112,147L94,144L107,130Z" fill="rgb(129, 104, 47)" fill-opacity="0.67"/><path d="M153,112L164,107L166,109Z" fill="rgb(218, 189, 170)" fill-opacity="0.51"/><path d="M36,138L53,143L52,132Z" fill="rgb(226, 140, 111)" fill-opacity="0.44"/><path d="M204,144L231,137L242,152Z" fill="rgb(123, 85, 66)" fill-opacity="0.59"/><path d="M53,132L54,138L61,136Z" fill="rgb(80, 44, 16)" fill-opacity="0.56"/><path d="M163,106L169,84L158,110Z" fill="rgb(74, 53, 46)" fill-opacity="0.64"/><path d="M91,135L52,141L72,128Z" fill="rgb(171, 149, 34)" fill-opacity="0.50"/><path d="M38,120L27,107L16,131Z" fill="rgb(109, 77, 72)" fill-opacity="0.52"/><path d="M238,40L250,30L212,-25Z" fill="rgb(86, 98, 91)" fill-opacity="0.40"/><path d="M48,84L34,62L111,53Z" fill="rgb(32, 19, 6)" fill-opacity="0.67"/><path d="M28,94L31,100L28,111Z" fill="rgb(22, 15, 21)" fill-opacity="0.65"/><path d="M123,154L101,145L72,147Z" fill="rgb(255, 254, 252)" fill-opacity="0.49"/><path d="M145,105L136,95L137,114Z" fill="rgb(43, 10, 25)" fill-opacity="0.42"/><path d="M95,139L97,145L72,140Z" fill="rgb(69, 51, 73)" fill-opacity="0.48"/><path d="M176,125L212,184L231,168Z" fill="rgb(111, 103, 25)" fill-opacity="0.54"/><path d="M25,111L27,86L26,116Z" fill="rgb(195, 125, 98)" fill-opacity="0.45"/><path d="M102,124L101,109L108,124Z" fill="rgb(204, 78, 53)" fill-opacity="0.48"/><path d="M196,63L206,62L195,58Z" fill="rgb(154, 138, 93)" fill-opacity="0.59"/><path d="M11,131L27,114L9,128Z" fill="rgb(54, 31, 26)" fill-opacity="0.49"/><path d="M46,108L21,124L35,122Z" fill="rgb(60, 47, 39)" fill-opacity="0.46"/><path d="M137,76L135,82L164,76Z" fill="rgb(168, 81, 183)" fill-opacity="0.32"/><path d="M97,130L98,112L106,131Z" fill="rgb(64, 47, 11)" fill-opacity="0.53"/><path d="M163,118L167,123L155,125Z" fill="rgb(255, 32, 38)" fill-opacity="0.44"/><path d="M8,135L20,129L-3,128Z" fill="rgb(197, 117, 91)" fill-opacity="0.51"/><path d="M39,28L51,55L182,45Z" fill="rgb(10, 14, 38)" fill-opacity="0.67"/><path d="M62,146L67,141L42,149Z" fill="rgb(133, 84, 52)" fill-opacity="0.57"/><path d="M237,121L254,144L257,133Z" fill="rgb(113, 66, 14)" fill-opacity="0.42"/><path d="M164,109L177,109L148,120Z" fill="rgb(203, 118, 70)" fill-opacity="0.36"/><path d="M246,101L242,102L245,132Z" fill="rgb(191, 131, 95)" fill-opacity="0.43"/><path d="M216,28L204,5L193,-2Z" fill="rgb(63, 65, 69)" fill-opacity="0.54"/><path d="M141,85L167,94L157,82Z" fill="rgb(194, 104, 69)" fill-opacity="0.51"/><path d="M85,95L91,98L85,115Z" fill="rgb(69, 50, 24)" fill-opacity="0.55"/><path d="M57,92L55,102L34,108Z" fill="rgb(72, 37, 27)" fill-opacity="0.52"/><path d="M120,122L141,118L120,117Z" fill="rgb(71, 23, 22)" fill-opacity="0.51"/><path d="M12,170L61,158L107,185Z" fill="rgb(83, 131, 164)" fill-opacity="0.69"/><path d="M83,110L77,114L108,112Z" fill="rgb(104, 50, 15)" fill-opacity="0.55"/></svg>