<svg xmlns="http://www.w3.org/2000/svg" viewBox="0 0 256 169.55844155844156" clip-path="url(#clip)" width="512" height="339.1168831168831"><defs><clipPath id="clip" clipPathUnits="objectBoundingBox"><rect x="0" y="0" width="256" height="169.55844155844156"/></clipPath></defs><rect x="0" y="0" width="256" height="169.55844155844156" fill="rgb(13, 9, 17)"/><path d="M20,102L182,153L216,78Z" fill="rgb(86, 128, 252)" fill-opacity="0.58"/><path d="M141,58L96,116L178,108Z" fill="rgb(152, 246, 255)" fill-opacity="0.50"/><path d="M-110,100L138,146L185,106Z" fill="rgb(37, 43, 212)" fill-opacity="0.34"/><path d="M158,71L182,107L224,79Z" fill="rgb(11, 5, 8)" fill-opacity="0.77"/><path d="M233,127L185,95L199,147Z" fill="rgb(60, 96, 250)" fill-opacity="0.46"/><path d="M181,95L124,93L169,71Z" fill="rgb(7, 56, 15)" fill-opacity="0.50"/><path d="M-30,54L108,119L22,140Z" fill="rgb(20, 24, 81)" fill-opacity="0.66"/><path d="M128,63L138,104L155,69Z" fill="rgb(136, 229, 206)" fill-opacity="0.46"/><path d="M108,114L99,98L132,94Z" fill="rgb(179, 255, 255)" fill-opacity="0.69"/><path d="M198,232L195,119L152,149Z" fill="rgb(21, 0, 32)" fill-opacity="0.53"/><path d="M102,134L120,103L124,138Z" fill="rgb(78, 121, 254)" fill-opacity="0.58"/><path d="M96,71L95,84L88,71Z" fill="rgb(2, 255, 153)" fill-opacity="0.53"/><path d="M232,137L231,81L189,156Z" fill="rgb(18, 21, 87)" fill-opacity="0.62"/><path d="M181,125L166,85L139,118Z" fill="rgb(122, 152, 255)" fill-opacity="0.43"/><path d="M148,106L90,126L103,81Z" fill="rgb(113, 206, 255)" fill-opacity="0.23"/><path d="M165,122L174,115L161,165Z" fill="rgb(7, 0, 50)" fill-opacity="0.54"/><path d="M45,95L8,103L47,117Z" fill="rgb(25, 33, 153)" fill-opacity="0.58"/><path d="M188,116L191,90L202,131Z" fill="rgb(115, 176, 255)" fill-opacity="0.49"/><path d="M114,94L129,92L114,83Z" fill="rgb(0, 35, 12)" fill-opacity="0.50"/><path d="M194,155L142,132L122,144Z" fill="rgb(19, 0, 35)" fill-opacity="0.51"/><path d="M227,104L231,107L225,124Z" fill="rgb(32, 60, 216)" fill-opacity="0.60"/><path d="M116,87L116,91L111,87Z" fill="rgb(135, 255, 233)" fill-opacity="0.50"/><path d="M-41,100L0,89L20,102Z" fill="rgb(0, 171, 72)" fill-opacity="0.47"/><path d="M143,48L141,96L147,73Z" fill="rgb(4, 43, 23)" fill-opacity="0.40"/><path d="M176,93L189,83L156,128Z" fill="rgb(10, 13, 52)" fill-opacity="0.76"/><path d="M61,96L106,122L63,74Z" fill="rgb(54, 36, 157)" fill-opacity="0.47"/><path d="M102,127L90,77L86,114Z" fill="rgb(0, 11, 77)" fill-opacity="0.55"/><path d="M87,71L128,47L151,66Z" fill="rgb(20, 29, 27)" fill-opacity="0.66"/><path d="M195,88L201,115L229,105Z" fill="rgb(27, 33, 94)" fill-opacity="0.77"/><path d="M172,150L182,129L178,115Z" fill="rgb(116, 147, 255)" fill-opacity="0.69"/><path d="M126,84L131,80L119,42Z" fill="rgb(45, 31, 14)" fill-opacity="0.95"/><path d="M216,127L194,103L207,134Z" fill="rgb(49, 79, 211)" fill-opacity="0.49"/><path d="M31,71L81,33L67,129Z" fill="rgb(88, 0, 23)" fill-opacity="0.29"/><path d="M140,89L149,92L125,93Z" fill="rgb(0, 9, 0)" fill-opacity="0.56"/><path d="M188,133L179,113L183,59Z" fill="rgb(0, 0, 18)" fill-opacity="0.45"/><path d="M151,67L137,65L155,78Z" fill="rgb(128, 255, 251)" fill-opacity="0.39"/><path d="M156,148L161,117L146,135Z" fill="rgb(31, 45, 139)" fill-opacity="0.83"/><path d="M114,82L125,91L152,79Z" fill="rgb(166, 245, 221)" fill-opacity="0.45"/><path d="M73,118L75,128L64,125Z" fill="rgb(75, 117, 255)" fill-opacity="0.45"/><path d="M144,66L153,71L137,72Z" fill="rgb(162, 255, 247)" fill-opacity="0.72"/><path d="M128,94L135,86L138,89Z" fill="rgb(0, 34, 12)" fill-opacity="0.56"/><path d="M143,116L146,126L113,119Z" fill="rgb(5, 1, 84)" fill-opacity="0.33"/><path d="M196,120L182,125L178,158Z" fill="rgb(4, 0, 51)" fill-opacity="0.49"/><path d="M161,147L167,116L159,131Z" fill="rgb(74, 108, 252)" fill-opacity="0.58"/><path d="M78,89L89,99L82,125Z" fill="rgb(68, 117, 255)" fill-opacity="0.43"/><path d="M140,92L130,67L143,71Z" fill="rgb(170, 253, 239)" fill-opacity="0.45"/><path d="M156,59L191,83L152,86Z" fill="rgb(6, 3, 10)" fill-opacity="0.63"/><path d="M131,117L97,118L137,94Z" fill="rgb(100, 148, 255)" fill-opacity="0.57"/><path d="M173,106L158,93L69,98Z" fill="rgb(158, 210, 255)" fill-opacity="0.41"/><path d="M110,55L112,70L117,51Z" fill="rgb(36, 109, 82)" fill-opacity="0.53"/><path d="M131,76L135,80L133,61Z" fill="rgb(201, 255, 255)" fill-opacity="0.50"/><path d="M168,95L154,123L170,102Z" fill="rgb(187, 230, 255)" fill-opacity="0.57"/><path d="M64,87L61,101L87,110Z" fill="rgb(38, 25, 155)" fill-opacity="0.54"/><path d="M111,80L125,93L99,47Z" fill="rgb(3, 7, 11)" fill-opacity="0.55"/><path d="M148,85L148,92L172,87Z" fill="rgb(82, 216, 143)" fill-opacity="0.49"/><path d="M142,70L150,74L142,82Z" fill="rgb(0, 0, 0)" fill-opacity="0.54"/><path d="M95,79L87,69L93,90Z" fill="rgb(0, 157, 71)" fill-opacity="0.50"/><path d="M216,99L201,115L222,117Z" fill="rgb(5, 12, 22)" fill-opacity="0.52"/><path d="M188,117L210,118L190,142Z" fill="rgb(46, 70, 232)" fill-opacity="0.30"/><path d="M87,113L76,114L82,125Z" fill="rgb(87, 127, 252)" fill-opacity="0.53"/><path d="M126,131L125,118L118,148Z" fill="rgb(14, 8, 96)" fill-opacity="0.50"/><path d="M116,93L99,93L103,80Z" fill="rgb(0, 63, 39)" fill-opacity="0.69"/><path d="M87,141L103,119L101,147Z" fill="rgb(12, 16, 89)" fill-opacity="0.53"/><path d="M205,95L230,107L183,97Z" fill="rgb(33, 47, 138)" fill-opacity="0.56"/><path d="M162,113L155,98L112,114Z" fill="rgb(83, 96, 255)" fill-opacity="0.53"/><path d="M250,87L256,98L249,109Z" fill="rgb(10, 56, 135)" fill-opacity="0.43"/><path d="M66,129L42,114L43,142Z" fill="rgb(36, 43, 155)" fill-opacity="0.37"/><path d="M169,91L156,87L168,86Z" fill="rgb(186, 255, 234)" fill-opacity="0.50"/><path d="M221,77L214,125L207,125Z" fill="rgb(10, 8, 29)" fill-opacity="0.62"/><path d="M186,98L189,125L198,101Z" fill="rgb(94, 143, 255)" fill-opacity="0.56"/><path d="M114,137L104,132L99,99Z" fill="rgb(75, 115, 255)" fill-opacity="0.52"/><path d="M155,6L147,-88L87,5Z" fill="rgb(0, 70, 6)" fill-opacity="0.68"/><path d="M150,32L136,78L134,45Z" fill="rgb(5, 17, 16)" fill-opacity="0.67"/><path d="M3,85L-27,75L3,104Z" fill="rgb(4, 155, 69)" fill-opacity="0.49"/><path d="M42,109L26,111L19,116Z" fill="rgb(37, 66, 237)" fill-opacity="0.59"/><path d="M191,105L194,120L198,115Z" fill="rgb(182, 255, 255)" fill-opacity="0.47"/><path d="M205,131L205,177L167,187Z" fill="rgb(27, 0, 7)" fill-opacity="0.53"/><path d="M133,130L140,105L141,126Z" fill="rgb(62, 90, 242)" fill-opacity="0.45"/><path d="M93,133L73,152L88,113Z" fill="rgb(3, 9, 16)" fill-opacity="0.58"/><path d="M40,54L80,68L81,-18Z" fill="rgb(41, 0, 0)" fill-opacity="0.45"/><path d="M156,67L151,95L168,67Z" fill="rgb(0, 10, 13)" fill-opacity="0.38"/><path d="M35,144L84,142L80,124Z" fill="rgb(19, 7, 64)" fill-opacity="0.47"/><path d="M119,70L127,63L131,69Z" fill="rgb(156, 78, 15)" fill-opacity="0.46"/><path d="M116,131L107,119L114,119Z" fill="rgb(13, 17, 127)" fill-opacity="0.58"/><path d="M155,200L164,142L197,154Z" fill="rgb(22, 0, 3)" fill-opacity="0.51"/><path d="M91,118L99,121L95,151Z" fill="rgb(25, 40, 156)" fill-opacity="0.57"/><path d="M33,96L28,71L20,96Z" fill="rgb(0, 79, 50)" fill-opacity="0.48"/><path d="M114,57L131,84L126,84Z" fill="rgb(40, 17, 0)" fill-opacity="0.51"/><path d="M108,110L96,111L108,115Z" fill="rgb(20, 44, 249)" fill-opacity="0.46"/><path d="M142,118L142,136L155,168Z" fill="rgb(20, 1, 31)" fill-opacity="0.60"/><path d="M109,130L94,100L99,92Z" fill="rgb(83, 130, 255)" fill-opacity="0.49"/><path d="M86,98L92,108L98,95Z" fill="rgb(15, 32, 163)" fill-opacity="0.51"/><path d="M282,-147L109,43L248,105Z" fill="rgb(7, 0, 4)" fill-opacity="0.75"/><path d="M135,87L134,79L123,90Z" fill="rgb(189, 255, 255)" fill-opacity="0.45"/><path d="M197,89L197,95L163,95Z" fill="rgb(8, 10, 3)" fill-opacity="0.54"/><path d="M230,51L199,68L211,98Z" fill="rgb(12, 3, 8)" fill-opacity="0.75"/><path d="M132,93L173,92L146,89Z" fill="rgb(0, 65, 14)" fill-opacity="0.53"/><path d="M100,104L101,99L131,100Z" fill="rgb(255, 255, 255)" fill-opacity="0.46"/><path d="M211,146L218,121L233,147Z" fill="rgb(17, 11, 78)" fill-opacity="0.48"/><path d="M197,93L200,101L197,77Z" fill="rgb(132, 184, 254)" fill-opacity="0.46"/><path d="M174,137L176,151L182,128Z" fill="rgb(55, 75, 233)" fill-opacity="0.41"/><path d="M226,120L218,106L218,134Z" fill="rgb(9, 17, 42)" fill-opacity="0.51"/><path d="M147,127L163,134L141,114Z" fill="rgb(71, 103, 219)" fill-opacity="0.50"/><path d="M54,135L56,121L62,130Z" fill="rgb(60, 78, 190)" fill-opacity="0.51"/><path d="M157,122L157,115L161,117Z" fill="rgb(208, 255, 255)" fill-opacity="0.59"/><path d="M170,115L179,95L174,135Z" fill="rgb(26, 56, 219)" fill-opacity="0.54"/><path d="M163,117L151,128L166,123Z" fill="rgb(0, 3, 49)" fill-opacity="0.44"/><path d="M204,125L202,144L206,127Z" fill="rgb(3, 0, 13)" fill-opacity="0.50"/><path d="M183,106L186,110L173,105Z" fill="rgb(25, 78, 218)" fill-opacity="0.47"/><path d="M93,150L86,118L88,89Z" fill="rgb(0, 18, 26)" fill-opacity="0.61"/><path d="M82,107L49,117L72,102Z" fill="rgb(12, 1, 47)" fill-opacity="0.45"/><path d="M43,109L-38,135L38,202Z" fill="rgb(22, 0, 18)" fill-opacity="0.50"/><path d="M166,88L170,96L167,99Z" fill="rgb(1, 171, 104)" fill-opacity="0.50"/><path d="M40,119L46,125L45,137Z" fill="rgb(33, 46, 174)" fill-opacity="0.51"/><path d="M80,104L76,99L85,97Z" fill="rgb(96, 142, 255)" fill-opacity="0.54"/><path d="M172,125L185,116L176,125Z" fill="rgb(144, 185, 255)" fill-opacity="0.50"/><path d="M27,-43L-13,51L58,105Z" fill="rgb(17, 0, 37)" fill-opacity="0.41"/><path d="M192,145L126,152L339,189Z" fill="rgb(24, 0, 13)" fill-opacity="0.76"/><path d="M8,47L25,101L-45,53Z" fill="rgb(16, 5, 25)" fill-opacity="0.70"/><path d="M116,123L120,110L124,126Z" fill="rgb(119, 188, 255)" fill-opacity="0.37"/><path d="M187,98L185,116L194,97Z" fill="rgb(70, 112, 255)" fill-opacity="0.48"/><path d="M96,74L92,70L91,86Z" fill="rgb(10, 255, 143)" fill-opacity="0.40"/><path d="M3,121L14,115L47,107Z" fill="rgb(28, 56, 209)" fill-opacity="0.44"/><path d="M135,134L137,123L143,140Z" fill="rgb(19, 30, 147)" fill-opacity="0.47"/><path d="M48,125L47,181L94,159Z" fill="rgb(21, 2, 26)" fill-opacity="0.62"/><path d="M99,121L127,120L89,117Z" fill="rgb(7, 5, 107)" fill-opacity="0.47"/><path d="M135,114L128,128L139,120Z" fill="rgb(6, 0, 28)" fill-opacity="0.39"/><path d="M135,111L137,71L135,70Z" fill="rgb(0, 62, 78)" fill-opacity="0.48"/><path d="M184,145L209,139L224,115Z" fill="rgb(37, 74, 250)" fill-opacity="0.18"/><path d="M45,103L54,99L54,132Z" fill="rgb(14, 6, 65)" fill-opacity="0.55"/><path d="M81,96L63,78L81,39Z" fill="rgb(32, 43, 8)" fill-opacity="0.47"/><path d="M125,64L154,52L92,38Z" fill="rgb(5, 9, 12)" fill-opacity="0.73"/><path d="M213,138L205,131L207,149Z" fill="rgb(27, 41, 157)" fill-opacity="0.47"/><path d="M221,116L215,128L214,120Z" fill="rgb(61, 106, 246)" fill-opacity="0.45"/><path d="M169,111L166,114L176,114Z" fill="rgb(194, 249, 255)" fill-opacity="0.43"/><path d="M171,102L165,111L167,97Z" fill="rgb(237, 255, 255)" fill-opacity="0.51"/><path d="M146,121L168,109L145,101Z" fill="rgb(90, 101, 255)" fill-opacity="0.51"/><path d="M180,105L179,116L182,119Z" fill="rgb(8, 0, 36)" fill-opacity="0.57"/><path d="M42,91L46,102L43,108Z" fill="rgb(66, 96, 235)" fill-opacity="0.46"/><path d="M147,133L147,108L152,128Z" fill="rgb(128, 177, 255)" fill-opacity="0.53"/><path d="M198,80L204,107L206,86Z" fill="rgb(41, 0, 3)" fill-opacity="0.40"/><path d="M167,89L175,94L150,92Z" fill="rgb(3, 99, 39)" fill-opacity="0.58"/><path d="M97,97L174,101L108,92Z" fill="rgb(101, 181, 255)" fill-opacity="0.62"/><path d="M156,117L135,112L149,108Z" fill="rgb(51, 70, 233)" fill-opacity="0.63"/><path d="M75,88L93,99L101,84Z" fill="rgb(0, 14, 21)" fill-opacity="0.58"/><path d="M181,125L169,129L172,124Z" fill="rgb(117, 164, 255)" fill-opacity="0.67"/><path d="M77,99L70,102L93,107Z" fill="rgb(22, 49, 211)" fill-opacity="0.54"/><path d="M111,66L113,56L116,55Z" fill="rgb(107, 243, 188)" fill-opacity="0.43"/><path d="M190,14L189,97L170,95Z" fill="rgb(8, 2, 8)" fill-opacity="0.70"/><path d="M82,181L102,126L114,170Z" fill="rgb(19, 3, 27)" fill-opacity="0.60"/><path d="M101,119L111,128L112,123Z" fill="rgb(102, 153, 246)" fill-opacity="0.55"/><path d="M174,126L178,137L179,127Z" fill="rgb(141, 190, 255)" fill-opacity="0.48"/><path d="M171,75L169,61L172,69Z" fill="rgb(29, 101, 53)" fill-opacity="0.57"/><path d="M156,75L179,59L146,61Z" fill="rgb(14, 5, 12)" fill-opacity="0.91"/><path d="M120,110L98,110L124,94Z" fill="rgb(170, 255, 255)" fill-opacity="0.35"/><path d="M184,113L199,120L173,100Z" fill="rgb(41, 75, 235)" fill-opacity="0.40"/><path d="M229,141L236,70L276,217Z" fill="rgb(13, 0, 7)" fill-opacity="0.91"/><path d="M67,110L60,124L71,162Z" fill="rgb(16, 5, 40)" fill-opacity="0.52"/><path d="M193,138L197,134L192,120Z" fill="rgb(9, 2, 45)" fill-opacity="0.53"/><path d="M229,118L228,105L227,116Z" fill="rgb(50, 79, 251)" fill-opacity="0.49"/><path d="M148,93L129,101L141,109Z" fill="rgb(137, 216, 255)" fill-opacity="0.53"/><path d="M131,154L47,165L123,135Z" fill="rgb(29, 0, 14)" fill-opacity="0.41"/><path d="M88,106L88,97L80,94Z" fill="rgb(151, 213, 255)" fill-opacity="0.31"/><path d="M124,80L131,95L119,81Z" fill="rgb(197, 255, 255)" fill-opacity="0.34"/><path d="M135,72L132,78L129,94Z" fill="rgb(184, 255, 255)" fill-opacity="0.46"/><path d="M235,98L233,107L196,101Z" fill="rgb(18, 35, 117)" fill-opacity="0.36"/><path d="M61,96L69,38L38,93Z" fill="rgb(68, 0, 5)" fill-opacity="0.32"/><path d="M179,97L180,102L164,121Z" fill="rgb(102, 153, 255)" fill-opacity="0.46"/><path d="M178,93L175,104L163,115Z" fill="rgb(0, 0, 63)" fill-opacity="0.41"/><path d="M113,130L107,141L102,118Z" fill="rgb(65, 96, 248)" fill-opacity="0.44"/><path d="M124,135L135,140L126,104Z" fill="rgb(44, 66, 211)" fill-opacity="0.50"/><path d="M171,99L174,97L161,96Z" fill="rgb(80, 116, 254)" fill-opacity="0.61"/><path d="M9,111L34,105L12,96Z" fill="rgb(16, 7, 69)" fill-opacity="0.50"/><path d="M120,152L133,137L143,166Z" fill="rgb(15, 16, 14)" fill-opacity="0.65"/><path d="M82,74L109,68L81,-35Z" fill="rgb(5, 0, 4)" fill-opacity="0.65"/><path d="M56,102L43,95L10,104Z" fill="rgb(35, 37, 170)" fill-opacity="0.40"/><path d="M141,165L146,168L141,170Z" fill="rgb(25, 28, 106)" fill-opacity="0.50"/><path d="M69,111L69,123L74,128Z" fill="rgb(81, 119, 252)" fill-opacity="0.58"/><path d="M139,121L149,120L163,126Z" fill="rgb(0, 0, 39)" fill-opacity="0.41"/><path d="M122,80L121,85L129,89Z" fill="rgb(255, 255, 255)" fill-opacity="0.41"/><path d="M197,93L191,97L195,57Z" fill="rgb(25, 0, 8)" fill-opacity="0.71"/><path d="M207,98L209,101L218,98Z" fill="rgb(67, 87, 196)" fill-opacity="0.47"/><path d="M9,101L12,95L-15,101Z" fill="rgb(0, 163, 89)" fill-opacity="0.50"/><path d="M250,101L248,81L254,102Z" fill="rgb(15, 58, 117)" fill-opacity="0.49"/><path d="M159,74L159,93L155,73Z" fill="rgb(0, 16, 14)" fill-opacity="0.55"/><path d="M219,140L222,143L225,122Z" fill="rgb(30, 46, 165)" fill-opacity="0.59"/><path d="M101,118L97,117L106,157Z" fill="rgb(11, 5, 47)" fill-opacity="0.60"/><path d="M100,98L114,105L127,101Z" fill="rgb(244, 255, 255)" fill-opacity="0.42"/><path d="M203,120L202,124L187,121Z" fill="rgb(24, 24, 125)" fill-opacity="0.47"/><path d="M113,55L113,60L114,59Z" fill="rgb(211, 255, 255)" fill-opacity="0.44"/><path d="M107,93L143,93L122,90Z" fill="rgb(0, 6, 14)" fill-opacity="0.55"/><path d="M34,93L20,59L22,98Z" fill="rgb(0, 61, 50)" fill-opacity="0.36"/><path d="M205,148L205,130L201,129Z" fill="rgb(7, 0, 21)" fill-opacity="0.51"/><path d="M116,55L130,57L129,51Z" fill="rgb(4, 73, 41)" fill-opacity="0.50"/><path d="M63,93L58,108L82,94Z" fill="rgb(47, 33, 139)" fill-opacity="0.68"/><path d="M213,126L214,133L214,109Z" fill="rgb(10, 11, 35)" fill-opacity="0.52"/><path d="M135,72L130,77L133,90Z" fill="rgb(168, 255, 249)" fill-opacity="0.62"/><path d="M174,123L166,146L176,137Z" fill="rgb(16, 23, 157)" fill-opacity="0.49"/><path d="M95,112L90,111L91,94Z" fill="rgb(34, 59, 216)" fill-opacity="0.55"/><path d="M67,100L62,93L63,101Z" fill="rgb(92, 88, 239)" fill-opacity="0.41"/></svg>