<svg xmlns="http://www.w3.org/2000/svg" viewBox="0 0 256 169.55844155844156" clip-path="url(#clip)" width="512" height="339.1168831168831"><defs><clipPath id="clip" clipPathUnits="objectBoundingBox"><rect x="0" y="0" width="256" height="169.55844155844156"/></clipPath></defs><rect x="0" y="0" width="256" height="169.55844155844156" fill="rgb(81, 73, 60)"/><path d="M107,213L129,61L7,139Z" fill="rgb(206, 158, 105)" fill-opacity="0.52"/><path d="M37,135L35,148L19,114Z" fill="rgb(25, 35, 30)" fill-opacity="0.68"/><path d="M-87,21L21,117L56,37Z" fill="rgb(21, 16, 12)" fill-opacity="0.87"/><path d="M127,-78L136,62L36,-12Z" fill="rgb(5, 15, 9)" fill-opacity="0.73"/><path d="M226,163L192,147L167,182Z" fill="rgb(166, 169, 229)" fill-opacity="0.42"/><path d="M7,27L-18,-82L143,86Z" fill="rgb(201, 244, 0)" fill-opacity="0.30"/><path d="M150,10L67,-64L121,8Z" fill="rgb(128, 125, 138)" fill-opacity="0.58"/><path d="M115,102L162,165L165,84Z" fill="rgb(16, 9, 10)" fill-opacity="0.52"/><path d="M56,138L9,111L79,91Z" fill="rgb(113, 138, 101)" fill-opacity="0.86"/><path d="M81,79L68,95L92,93Z" fill="rgb(173, 130, 146)" fill-opacity="0.65"/><path d="M205,232L58,125L122,147Z" fill="rgb(190, 86, 90)" fill-opacity="0.86"/><path d="M29,106L36,72L106,71Z" fill="rgb(12, 0, 0)" fill-opacity="0.61"/><path d="M120,82L70,64L96,94Z" fill="rgb(1, 0, 18)" fill-opacity="0.42"/><path d="M134,82L129,63L143,79Z" fill="rgb(172, 139, 185)" fill-opacity="0.55"/><path d="M128,69L114,52L133,37Z" fill="rgb(6, 0, 0)" fill-opacity="0.54"/><path d="M-8,148L50,299L36,161Z" fill="rgb(0, 5, 34)" fill-opacity="0.68"/><path d="M82,44L52,68L96,65Z" fill="rgb(162, 129, 115)" fill-opacity="0.54"/><path d="M210,114L249,79L197,101Z" fill="rgb(162, 126, 161)" fill-opacity="0.54"/><path d="M111,84L93,69L104,92Z" fill="rgb(14, 0, 5)" fill-opacity="0.48"/><path d="M121,105L115,79L105,101Z" fill="rgb(176, 164, 199)" fill-opacity="0.43"/><path d="M-35,84L16,129L40,172Z" fill="rgb(23, 31, 0)" fill-opacity="0.46"/><path d="M51,83L62,119L67,114Z" fill="rgb(20, 0, 1)" fill-opacity="0.46"/><path d="M165,175L129,123L133,207Z" fill="rgb(152, 134, 140)" fill-opacity="0.39"/><path d="M29,149L-8,154L-14,114Z" fill="rgb(141, 133, 5)" fill-opacity="0.46"/><path d="M126,60L182,125L300,29Z" fill="rgb(121, 0, 83)" fill-opacity="0.31"/><path d="M167,22L181,56L192,29Z" fill="rgb(142, 94, 123)" fill-opacity="0.56"/><path d="M197,97L210,115L218,98Z" fill="rgb(158, 168, 173)" fill-opacity="0.46"/><path d="M280,88L236,45L247,-27Z" fill="rgb(118, 99, 86)" fill-opacity="0.72"/><path d="M49,27L36,40L7,17Z" fill="rgb(212, 182, 98)" fill-opacity="0.33"/><path d="M212,41L160,-27L253,-18Z" fill="rgb(144, 112, 101)" fill-opacity="0.39"/><path d="M122,169L56,135L35,174Z" fill="rgb(243, 192, 63)" fill-opacity="0.29"/><path d="M196,15L149,7L195,30Z" fill="rgb(33, 8, 12)" fill-opacity="0.47"/><path d="M-15,-5L17,41L1,72Z" fill="rgb(18, 16, 12)" fill-opacity="0.99"/><path d="M247,68L236,56L230,69Z" fill="rgb(141, 129, 144)" fill-opacity="0.54"/><path d="M72,61L28,49L44,33Z" fill="rgb(8, 2, 18)" fill-opacity="0.61"/><path d="M85,22L124,64L78,54Z" fill="rgb(147, 151, 8)" fill-opacity="0.44"/><path d="M96,106L121,99L101,142Z" fill="rgb(194, 150, 69)" fill-opacity="0.52"/><path d="M200,121L236,230L300,51Z" fill="rgb(48, 32, 83)" fill-opacity="0.46"/><path d="M184,194L173,120L145,145Z" fill="rgb(86, 55, 44)" fill-opacity="0.68"/><path d="M176,137L214,125L223,166Z" fill="rgb(63, 87, 115)" fill-opacity="0.54"/><path d="M130,154L138,150L167,189Z" fill="rgb(53, 39, 38)" fill-opacity="0.52"/><path d="M19,121L25,114L41,154Z" fill="rgb(23, 18, 19)" fill-opacity="0.59"/><path d="M122,92L159,82L121,110Z" fill="rgb(49, 30, 35)" fill-opacity="0.71"/><path d="M69,124L38,103L29,157Z" fill="rgb(113, 243, 165)" fill-opacity="0.22"/><path d="M118,123L109,135L135,144Z" fill="rgb(4, 7, 0)" fill-opacity="0.47"/><path d="M225,141L231,181L251,202Z" fill="rgb(0, 11, 14)" fill-opacity="0.56"/><path d="M69,78L58,73L67,112Z" fill="rgb(15, 0, 25)" fill-opacity="0.45"/><path d="M24,128L6,105L16,132Z" fill="rgb(191, 164, 164)" fill-opacity="0.45"/><path d="M58,100L81,133L104,87Z" fill="rgb(134, 98, 120)" fill-opacity="0.54"/><path d="M51,169L48,190L18,123Z" fill="rgb(154, 143, 155)" fill-opacity="0.56"/><path d="M162,-26L189,2L139,73Z" fill="rgb(67, 44, 27)" fill-opacity="0.43"/><path d="M159,68L208,63L182,77Z" fill="rgb(122, 82, 121)" fill-opacity="0.46"/><path d="M96,-9L95,28L43,-4Z" fill="rgb(15, 12, 11)" fill-opacity="0.78"/><path d="M109,61L88,64L111,83Z" fill="rgb(166, 144, 82)" fill-opacity="0.57"/><path d="M46,59L72,59L62,72Z" fill="rgb(149, 127, 151)" fill-opacity="0.48"/><path d="M147,139L120,103L167,119Z" fill="rgb(2, 10, 8)" fill-opacity="0.43"/><path d="M202,60L186,26L222,49Z" fill="rgb(79, 31, 44)" fill-opacity="0.50"/><path d="M60,56L42,68L38,31Z" fill="rgb(23, 26, 23)" fill-opacity="0.71"/><path d="M112,131L133,163L98,138Z" fill="rgb(154, 126, 77)" fill-opacity="0.89"/><path d="M6,94L8,133L-15,73Z" fill="rgb(17, 7, 14)" fill-opacity="0.72"/><path d="M61,129L80,143L76,135Z" fill="rgb(101, 14, 18)" fill-opacity="0.55"/><path d="M64,88L80,80L84,83Z" fill="rgb(178, 151, 155)" fill-opacity="0.39"/><path d="M186,131L165,153L164,92Z" fill="rgb(115, 63, 35)" fill-opacity="0.55"/><path d="M180,67L150,58L165,32Z" fill="rgb(71, 25, 17)" fill-opacity="0.44"/><path d="M125,65L104,41L135,5Z" fill="rgb(20, 26, 14)" fill-opacity="0.91"/><path d="M97,91L89,112L93,76Z" fill="rgb(41, 30, 31)" fill-opacity="0.44"/><path d="M58,126L128,166L108,146Z" fill="rgb(255, 72, 121)" fill-opacity="0.47"/><path d="M199,152L208,206L163,191Z" fill="rgb(170, 151, 169)" fill-opacity="0.55"/><path d="M40,105L5,114L12,125Z" fill="rgb(144, 132, 112)" fill-opacity="0.55"/><path d="M167,25L170,51L189,19Z" fill="rgb(127, 87, 110)" fill-opacity="0.50"/><path d="M138,135L108,98L126,134Z" fill="rgb(177, 141, 111)" fill-opacity="0.54"/><path d="M242,92L175,127L257,125Z" fill="rgb(109, 23, 66)" fill-opacity="0.46"/><path d="M101,158L127,165L90,150Z" fill="rgb(81, 10, 0)" fill-opacity="0.45"/><path d="M19,34L58,35L4,24Z" fill="rgb(171, 131, 93)" fill-opacity="0.51"/><path d="M133,66L129,94L122,89Z" fill="rgb(211, 187, 83)" fill-opacity="0.38"/><path d="M98,73L115,87L138,63Z" fill="rgb(119, 107, 63)" fill-opacity="0.59"/><path d="M240,31L200,48L231,70Z" fill="rgb(57, 12, 38)" fill-opacity="0.32"/><path d="M81,145L104,159L78,140Z" fill="rgb(57, 0, 0)" fill-opacity="0.36"/><path d="M65,42L23,4L44,-13Z" fill="rgb(74, 116, 2)" fill-opacity="0.49"/><path d="M46,78L100,78L85,63Z" fill="rgb(7, 0, 7)" fill-opacity="0.47"/><path d="M190,73L194,89L205,96Z" fill="rgb(12, 3, 16)" fill-opacity="0.63"/><path d="M30,52L34,36L-2,28Z" fill="rgb(8, 1, 10)" fill-opacity="0.61"/><path d="M-9,124L18,135L8,121Z" fill="rgb(5, 1, 17)" fill-opacity="0.55"/><path d="M50,62L37,72L67,59Z" fill="rgb(188, 153, 169)" fill-opacity="0.38"/><path d="M166,47L159,59L170,59Z" fill="rgb(149, 48, 12)" fill-opacity="0.43"/><path d="M57,-18L-33,-39L4,20Z" fill="rgb(91, 130, 42)" fill-opacity="0.77"/><path d="M91,40L71,39L90,65Z" fill="rgb(240, 211, 60)" fill-opacity="0.20"/><path d="M6,132L22,141L7,150Z" fill="rgb(100, 103, 0)" fill-opacity="0.53"/><path d="M140,202L122,170L134,136Z" fill="rgb(132, 127, 127)" fill-opacity="0.48"/><path d="M95,106L80,124L92,124Z" fill="rgb(62, 44, 28)" fill-opacity="0.39"/><path d="M128,122L158,168L142,157Z" fill="rgb(159, 133, 123)" fill-opacity="0.40"/><path d="M87,118L89,78L69,113Z" fill="rgb(165, 126, 136)" fill-opacity="0.47"/><path d="M160,29L124,-35L149,38Z" fill="rgb(122, 85, 50)" fill-opacity="0.49"/><path d="M102,156L83,143L75,155Z" fill="rgb(51, 1, 26)" fill-opacity="0.19"/><path d="M5,27L49,32L31,4Z" fill="rgb(156, 174, 34)" fill-opacity="0.34"/><path d="M116,131L119,102L77,134Z" fill="rgb(189, 143, 63)" fill-opacity="0.41"/><path d="M132,67L126,44L122,66Z" fill="rgb(35, 6, 1)" fill-opacity="0.48"/><path d="M195,146L170,174L182,130Z" fill="rgb(50, 61, 91)" fill-opacity="0.57"/><path d="M130,55L143,87L142,13Z" fill="rgb(94, 70, 63)" fill-opacity="0.61"/><path d="M81,80L90,95L73,81Z" fill="rgb(173, 138, 139)" fill-opacity="0.54"/><path d="M113,105L108,98L98,103Z" fill="rgb(192, 150, 55)" fill-opacity="0.50"/><path d="M121,-39L137,10L118,6Z" fill="rgb(86, 103, 136)" fill-opacity="0.58"/><path d="M212,120L223,140L217,118Z" fill="rgb(4, 7, 12)" fill-opacity="0.55"/><path d="M208,49L197,38L194,-12Z" fill="rgb(145, 101, 81)" fill-opacity="0.47"/><path d="M78,54L67,53L71,70Z" fill="rgb(61, 43, 64)" fill-opacity="0.43"/><path d="M156,86L165,95L137,88Z" fill="rgb(12, 3, 3)" fill-opacity="0.53"/><path d="M52,33L73,57L55,48Z" fill="rgb(134, 97, 93)" fill-opacity="0.51"/><path d="M193,73L205,71L217,46Z" fill="rgb(105, 82, 116)" fill-opacity="0.49"/><path d="M241,92L262,145L303,57Z" fill="rgb(55, 32, 19)" fill-opacity="0.44"/><path d="M185,49L193,39L178,18Z" fill="rgb(137, 100, 118)" fill-opacity="0.53"/><path d="M191,74L191,67L185,68Z" fill="rgb(137, 181, 192)" fill-opacity="0.48"/><path d="M132,160L144,155L123,149Z" fill="rgb(80, 54, 34)" fill-opacity="0.47"/><path d="M59,46L72,53L68,18Z" fill="rgb(156, 153, 19)" fill-opacity="0.48"/><path d="M18,164L14,205L25,162Z" fill="rgb(78, 102, 133)" fill-opacity="0.49"/><path d="M62,107L72,102L64,135Z" fill="rgb(103, 56, 56)" fill-opacity="0.48"/><path d="M118,125L120,144L133,149Z" fill="rgb(4, 11, 10)" fill-opacity="0.51"/><path d="M225,103L273,69L238,76Z" fill="rgb(125, 74, 103)" fill-opacity="0.45"/><path d="M73,57L72,42L80,55Z" fill="rgb(95, 59, 73)" fill-opacity="0.43"/><path d="M200,41L188,56L167,54Z" fill="rgb(53, 35, 22)" fill-opacity="0.52"/><path d="M129,74L128,66L140,72Z" fill="rgb(182, 167, 213)" fill-opacity="0.37"/><path d="M100,81L91,106L105,102Z" fill="rgb(113, 131, 91)" fill-opacity="0.50"/><path d="M0,111L45,68L64,95Z" fill="rgb(40, 17, 14)" fill-opacity="0.75"/><path d="M170,95L130,89L150,115Z" fill="rgb(64, 62, 43)" fill-opacity="0.49"/><path d="M8,151L-7,158L22,161Z" fill="rgb(13, 0, 8)" fill-opacity="0.53"/><path d="M31,152L31,158L9,164Z" fill="rgb(3, 0, 22)" fill-opacity="0.46"/><path d="M133,81L138,93L148,85Z" fill="rgb(49, 2, 45)" fill-opacity="0.51"/><path d="M74,10L115,-6L35,-3Z" fill="rgb(12, 0, 7)" fill-opacity="0.60"/><path d="M8,19L18,33L13,3Z" fill="rgb(139, 155, 101)" fill-opacity="0.44"/><path d="M56,36L30,45L53,47Z" fill="rgb(8, 0, 14)" fill-opacity="0.48"/><path d="M72,68L37,64L54,73Z" fill="rgb(129, 104, 121)" fill-opacity="0.43"/><path d="M188,72L129,64L200,120Z" fill="rgb(106, 42, 76)" fill-opacity="0.71"/><path d="M72,130L101,139L122,158Z" fill="rgb(207, 17, 48)" fill-opacity="0.29"/><path d="M197,26L193,37L180,7Z" fill="rgb(33, 27, 29)" fill-opacity="0.64"/><path d="M213,40L225,-62L224,40Z" fill="rgb(118, 97, 84)" fill-opacity="0.74"/><path d="M17,25L7,-34L33,16Z" fill="rgb(107, 143, 45)" fill-opacity="0.54"/><path d="M224,136L233,168L215,126Z" fill="rgb(15, 25, 32)" fill-opacity="0.57"/><path d="M241,22L224,41L231,4Z" fill="rgb(61, 56, 49)" fill-opacity="0.49"/><path d="M256,213L307,111L223,135Z" fill="rgb(45, 71, 82)" fill-opacity="0.57"/><path d="M216,158L208,189L191,151Z" fill="rgb(134, 129, 146)" fill-opacity="0.48"/><path d="M77,54L88,59L74,66Z" fill="rgb(173, 145, 172)" fill-opacity="0.33"/><path d="M100,0L111,2L116,-14Z" fill="rgb(96, 110, 144)" fill-opacity="0.44"/><path d="M63,128L57,149L44,146Z" fill="rgb(141, 120, 51)" fill-opacity="0.64"/><path d="M56,9L59,41L62,21Z" fill="rgb(65, 112, 0)" fill-opacity="0.51"/><path d="M127,95L120,76L131,95Z" fill="rgb(169, 150, 93)" fill-opacity="0.54"/><path d="M137,13L131,46L104,6Z" fill="rgb(17, 23, 12)" fill-opacity="0.58"/><path d="M18,152L18,143L34,143Z" fill="rgb(184, 185, 120)" fill-opacity="0.27"/><path d="M70,130L65,111L89,132Z" fill="rgb(168, 120, 128)" fill-opacity="0.49"/><path d="M133,77L142,84L134,66Z" fill="rgb(164, 154, 181)" fill-opacity="0.44"/><path d="M86,122L73,117L80,122Z" fill="rgb(62, 49, 41)" fill-opacity="0.46"/><path d="M161,28L180,8L169,27Z" fill="rgb(40, 8, 17)" fill-opacity="0.51"/><path d="M194,38L202,16L203,36Z" fill="rgb(134, 96, 90)" fill-opacity="0.57"/><path d="M96,87L106,95L95,75Z" fill="rgb(142, 100, 93)" fill-opacity="0.45"/><path d="M187,176L157,156L115,245Z" fill="rgb(152, 158, 170)" fill-opacity="0.18"/><path d="M122,167L134,173L126,156Z" fill="rgb(152, 143, 149)" fill-opacity="0.46"/><path d="M30,33L23,-34L37,27Z" fill="rgb(128, 145, 4)" fill-opacity="0.47"/><path d="M151,-16L136,-10L147,22Z" fill="rgb(146, 108, 64)" fill-opacity="0.43"/><path d="M133,9L132,30L142,-3Z" fill="rgb(43, 37, 30)" fill-opacity="0.40"/><path d="M78,139L61,128L65,133Z" fill="rgb(34, 0, 10)" fill-opacity="0.37"/><path d="M24,108L40,152L61,113Z" fill="rgb(116, 163, 109)" fill-opacity="0.57"/><path d="M64,110L58,98L60,112Z" fill="rgb(12, 4, 8)" fill-opacity="0.52"/><path d="M165,142L175,156L158,155Z" fill="rgb(55, 24, 11)" fill-opacity="0.55"/><path d="M199,96L190,72L203,94Z" fill="rgb(0, 1, 8)" fill-opacity="0.51"/><path d="M111,160L94,222L127,170Z" fill="rgb(153, 140, 62)" fill-opacity="0.55"/><path d="M178,134L191,91L212,123Z" fill="rgb(97, 42, 77)" fill-opacity="0.66"/><path d="M39,29L34,36L40,44Z" fill="rgb(119, 91, 90)" fill-opacity="0.68"/><path d="M121,82L111,78L124,96Z" fill="rgb(97, 75, 91)" fill-opacity="0.58"/><path d="M244,-24L250,41L238,50Z" fill="rgb(119, 98, 88)" fill-opacity="0.78"/><path d="M161,107L139,140L164,129Z" fill="rgb(20, 17, 18)" fill-opacity="0.75"/><path d="M125,117L145,131L135,130Z" fill="rgb(1, 17, 13)" fill-opacity="0.45"/><path d="M221,164L211,177L228,170Z" fill="rgb(16, 20, 23)" fill-opacity="0.64"/><path d="M53,98L65,122L41,150Z" fill="rgb(127, 169, 116)" fill-opacity="0.52"/><path d="M233,92L200,96L220,103Z" fill="rgb(126, 107, 117)" fill-opacity="0.69"/><path d="M182,153L187,160L178,184Z" fill="rgb(96, 94, 109)" fill-opacity="0.53"/><path d="M170,41L171,34L150,38Z" fill="rgb(40, 37, 37)" fill-opacity="0.46"/><path d="M213,154L228,156L228,170Z" fill="rgb(75, 101, 118)" fill-opacity="0.48"/><path d="M210,104L206,115L236,87Z" fill="rgb(148, 131, 147)" fill-opacity="0.49"/><path d="M222,44L228,58L256,55Z" fill="rgb(73, 31, 51)" fill-opacity="0.51"/><path d="M122,97L120,107L137,94Z" fill="rgb(20, 14, 14)" fill-opacity="0.50"/><path d="M99,152L114,152L88,141Z" fill="rgb(243, 109, 148)" fill-opacity="0.46"/><path d="M2,5L-43,-48L14,2Z" fill="rgb(58, 103, 19)" fill-opacity="0.57"/><path d="M141,135L136,127L128,159Z" fill="rgb(144, 121, 112)" fill-opacity="0.41"/><path d="M184,19L167,18L184,10Z" fill="rgb(27, 0, 5)" fill-opacity="0.43"/><path d="M232,70L233,59L244,71Z" fill="rgb(139, 125, 143)" fill-opacity="0.40"/><path d="M216,5L207,17L209,2Z" fill="rgb(76, 65, 50)" fill-opacity="0.50"/><path d="M235,138L235,125L218,131Z" fill="rgb(63, 83, 98)" fill-opacity="0.48"/><path d="M69,108L77,79L78,116Z" fill="rgb(168, 129, 131)" fill-opacity="0.50"/><path d="M28,129L19,120L29,118Z" fill="rgb(10, 0, 1)" fill-opacity="0.56"/><path d="M110,98L123,91L119,110Z" fill="rgb(150, 139, 171)" fill-opacity="0.50"/><path d="M40,25L33,34L52,36Z" fill="rgb(177, 140, 115)" fill-opacity="0.45"/><path d="M174,155L224,148L216,127Z" fill="rgb(64, 76, 93)" fill-opacity="0.72"/><path d="M167,91L171,136L166,143Z" fill="rgb(164, 104, 56)" fill-opacity="0.40"/><path d="M178,61L198,49L200,53Z" fill="rgb(120, 91, 106)" fill-opacity="0.58"/><path d="M187,67L194,66L156,39Z" fill="rgb(61, 24, 28)" fill-opacity="0.43"/><path d="M1,79L-19,98L4,86Z" fill="rgb(130, 108, 81)" fill-opacity="0.46"/><path d="M95,93L104,103L89,76Z" fill="rgb(41, 42, 27)" fill-opacity="0.47"/><path d="M196,83L247,71L214,96Z" fill="rgb(75, 23, 54)" fill-opacity="0.42"/><path d="M114,150L125,155L121,141Z" fill="rgb(187, 154, 79)" fill-opacity="0.48"/><path d="M58,185L23,145L16,116Z" fill="rgb(146, 134, 132)" fill-opacity="0.56"/><path d="M112,88L130,94L112,79Z" fill="rgb(116, 94, 109)" fill-opacity="0.51"/><path d="M105,106L89,121L116,135Z" fill="rgb(165, 128, 64)" fill-opacity="0.44"/></svg>