<svg xmlns="http://www.w3.org/2000/svg" viewBox="0 0 256 169.55844155844156" clip-path="url(#clip)" width="512" height="339.1168831168831"><defs><clipPath id="clip" clipPathUnits="objectBoundingBox"><rect x="0" y="0" width="256" height="169.55844155844156"/></clipPath></defs><rect x="0" y="0" width="256" height="169.55844155844156" fill="rgb(71, 71, 64)"/><path d="M99,124L136,199L-21,142Z" fill="rgb(91, 179, 252)" fill-opacity="0.52"/><path d="M151,148L290,166L110,192Z" fill="rgb(192, 197, 236)" fill-opacity="0.51"/><path d="M-103,81L59,99L53,144Z" fill="rgb(174, 155, 0)" fill-opacity="0.50"/><path d="M565,13L-87,-14L175,159Z" fill="rgb(17, 10, 0)" fill-opacity="0.53"/><path d="M-8,82L29,53L9,-15Z" fill="rgb(135, 136, 168)" fill-opacity="0.45"/><path d="M109,121L174,123L170,71Z" fill="rgb(163, 131, 46)" fill-opacity="0.61"/><path d="M183,97L116,87L149,63Z" fill="rgb(115, 65, 65)" fill-opacity="0.62"/><path d="M-2,109L21,124L10,174Z" fill="rgb(13, 21, 0)" fill-opacity="0.47"/><path d="M184,116L209,118L196,108Z" fill="rgb(177, 218, 249)" fill-opacity="0.49"/><path d="M38,140L122,150L55,167Z" fill="rgb(113, 191, 255)" fill-opacity="0.59"/><path d="M93,83L84,82L79,103Z" fill="rgb(255, 200, 0)" fill-opacity="0.39"/><path d="M81,128L24,135L35,127Z" fill="rgb(194, 236, 185)" fill-opacity="0.57"/><path d="M191,155L143,149L125,208Z" fill="rgb(159, 162, 182)" fill-opacity="0.68"/><path d="M116,53L61,124L116,135Z" fill="rgb(40, 19, 3)" fill-opacity="0.54"/><path d="M3,78L22,83L-24,157Z" fill="rgb(255, 218, 16)" fill-opacity="0.37"/><path d="M8,93L37,115L75,36Z" fill="rgb(36, 27, 18)" fill-opacity="0.69"/><path d="M166,123L102,193L116,121Z" fill="rgb(76, 76, 10)" fill-opacity="0.54"/><path d="M123,115L134,99L128,123Z" fill="rgb(217, 196, 24)" fill-opacity="0.48"/><path d="M19,8L-74,91L28,34Z" fill="rgb(95, 95, 107)" fill-opacity="0.81"/><path d="M258,144L187,30L279,2Z" fill="rgb(65, 84, 54)" fill-opacity="0.52"/><path d="M56,179L55,226L130,144Z" fill="rgb(46, 73, 98)" fill-opacity="0.76"/><path d="M50,119L61,73L99,111Z" fill="rgb(73, 47, 0)" fill-opacity="0.52"/><path d="M11,139L16,160L79,158Z" fill="rgb(6, 114, 206)" fill-opacity="0.53"/><path d="M132,141L167,114L129,100Z" fill="rgb(171, 120, 0)" fill-opacity="0.37"/><path d="M62,94L47,86L66,109Z" fill="rgb(146, 185, 0)" fill-opacity="0.45"/><path d="M9,138L-69,151L5,170Z" fill="rgb(106, 105, 128)" fill-opacity="0.75"/><path d="M63,121L13,135L67,108Z" fill="rgb(209, 231, 0)" fill-opacity="0.25"/><path d="M114,157L117,143L60,167Z" fill="rgb(63, 156, 235)" fill-opacity="0.55"/><path d="M93,146L73,137L44,139Z" fill="rgb(38, 23, 6)" fill-opacity="0.50"/><path d="M242,-198L-5,1L177,86Z" fill="rgb(2, 0, 10)" fill-opacity="0.56"/><path d="M27,138L12,104L30,103Z" fill="rgb(216, 97, 11)" fill-opacity="0.36"/><path d="M18,115L-8,107L11,147Z" fill="rgb(49, 66, 0)" fill-opacity="0.51"/><path d="M142,116L141,102L157,114Z" fill="rgb(194, 164, 2)" fill-opacity="0.63"/><path d="M98,165L9,165L189,184Z" fill="rgb(91, 92, 62)" fill-opacity="0.85"/><path d="M174,102L174,85L155,108Z" fill="rgb(141, 139, 129)" fill-opacity="0.51"/><path d="M64,151L107,152L115,141Z" fill="rgb(173, 197, 229)" fill-opacity="0.58"/><path d="M234,87L186,151L245,158Z" fill="rgb(38, 31, 23)" fill-opacity="0.73"/><path d="M1,76L23,95L20,58Z" fill="rgb(145, 142, 132)" fill-opacity="0.33"/><path d="M158,139L164,152L115,144Z" fill="rgb(24, 37, 12)" fill-opacity="0.49"/><path d="M72,91L89,79L85,94Z" fill="rgb(235, 174, 0)" fill-opacity="0.46"/><path d="M89,116L77,116L86,99Z" fill="rgb(145, 10, 35)" fill-opacity="0.47"/><path d="M50,95L39,111L28,108Z" fill="rgb(124, 147, 92)" fill-opacity="0.45"/><path d="M135,118L146,90L130,82Z" fill="rgb(52, 27, 23)" fill-opacity="0.50"/><path d="M95,118L85,129L109,131Z" fill="rgb(24, 22, 12)" fill-opacity="0.62"/><path d="M185,112L129,68L162,58Z" fill="rgb(103, 68, 58)" fill-opacity="0.50"/><path d="M35,83L22,0L138,67Z" fill="rgb(20, 15, 14)" fill-opacity="0.82"/><path d="M59,127L48,134L105,133Z" fill="rgb(160, 189, 226)" fill-opacity="0.56"/><path d="M205,138L163,141L172,103Z" fill="rgb(25, 24, 26)" fill-opacity="0.56"/><path d="M179,115L170,118L182,125Z" fill="rgb(97, 104, 152)" fill-opacity="0.40"/><path d="M189,83L175,118L234,90Z" fill="rgb(3, 6, 5)" fill-opacity="0.49"/><path d="M161,115L171,112L161,103Z" fill="rgb(207, 214, 105)" fill-opacity="0.49"/><path d="M131,74L171,98L171,80Z" fill="rgb(136, 99, 97)" fill-opacity="0.37"/><path d="M42,71L30,26L24,54Z" fill="rgb(24, 7, 9)" fill-opacity="0.51"/><path d="M28,155L20,134L7,145Z" fill="rgb(16, 71, 127)" fill-opacity="0.51"/><path d="M22,137L43,149L99,149Z" fill="rgb(183, 199, 234)" fill-opacity="0.47"/><path d="M-1,117L22,93L19,136Z" fill="rgb(99, 94, 4)" fill-opacity="0.54"/><path d="M172,72L154,118L151,97Z" fill="rgb(72, 63, 46)" fill-opacity="0.60"/><path d="M125,109L132,108L132,121Z" fill="rgb(241, 254, 75)" fill-opacity="0.39"/><path d="M77,98L44,54L61,94Z" fill="rgb(21, 19, 10)" fill-opacity="0.67"/><path d="M140,101L111,118L117,67Z" fill="rgb(76, 40, 28)" fill-opacity="0.49"/><path d="M62,121L51,123L61,129Z" fill="rgb(21, 20, 0)" fill-opacity="0.45"/><path d="M187,37L226,-4L136,-19Z" fill="rgb(22, 21, 25)" fill-opacity="0.84"/><path d="M118,145L107,134L79,145Z" fill="rgb(66, 87, 118)" fill-opacity="0.55"/><path d="M-5,111L3,81L8,110Z" fill="rgb(221, 187, 30)" fill-opacity="0.49"/><path d="M218,3L272,20L230,-39Z" fill="rgb(5, 4, 12)" fill-opacity="0.70"/><path d="M47,83L30,84L-4,36Z" fill="rgb(94, 79, 92)" fill-opacity="0.45"/><path d="M280,19L213,6L172,76Z" fill="rgb(57, 63, 60)" fill-opacity="0.65"/><path d="M235,86L203,50L225,131Z" fill="rgb(39, 46, 28)" fill-opacity="0.63"/><path d="M137,101L157,105L153,101Z" fill="rgb(177, 183, 89)" fill-opacity="0.55"/><path d="M50,116L80,112L90,126Z" fill="rgb(81, 90, 27)" fill-opacity="0.65"/><path d="M262,160L310,246L222,157Z" fill="rgb(113, 116, 135)" fill-opacity="0.78"/><path d="M113,141L149,141L115,105Z" fill="rgb(101, 101, 0)" fill-opacity="0.45"/><path d="M160,171L141,161L124,196Z" fill="rgb(217, 223, 237)" fill-opacity="0.60"/><path d="M164,83L174,93L148,88Z" fill="rgb(132, 111, 118)" fill-opacity="0.57"/><path d="M27,7L192,14L165,67Z" fill="rgb(13, 11, 15)" fill-opacity="0.79"/><path d="M108,161L11,152L52,166Z" fill="rgb(48, 166, 255)" fill-opacity="0.39"/><path d="M47,104L50,121L35,126Z" fill="rgb(194, 177, 0)" fill-opacity="0.48"/><path d="M27,100L33,85L9,88Z" fill="rgb(95, 66, 3)" fill-opacity="0.43"/><path d="M27,110L34,118L34,78Z" fill="rgb(31, 32, 14)" fill-opacity="0.49"/><path d="M153,109L147,107L143,122Z" fill="rgb(251, 182, 0)" fill-opacity="0.51"/><path d="M7,150L13,147L5,192Z" fill="rgb(0, 0, 12)" fill-opacity="0.49"/><path d="M239,142L247,102L246,139Z" fill="rgb(92, 97, 57)" fill-opacity="0.57"/><path d="M181,73L223,91L182,35Z" fill="rgb(54, 63, 50)" fill-opacity="0.41"/><path d="M8,80L25,87L-1,89Z" fill="rgb(162, 154, 51)" fill-opacity="0.65"/><path d="M94,120L122,107L89,87Z" fill="rgb(2, 9, 38)" fill-opacity="0.31"/><path d="M118,157L118,148L100,153Z" fill="rgb(16, 84, 157)" fill-opacity="0.46"/><path d="M225,74L227,58L221,70Z" fill="rgb(113, 136, 32)" fill-opacity="0.63"/><path d="M93,137L81,126L113,140Z" fill="rgb(146, 164, 191)" fill-opacity="0.47"/><path d="M71,152L40,162L95,158Z" fill="rgb(53, 159, 242)" fill-opacity="0.50"/><path d="M160,107L173,90L160,96Z" fill="rgb(170, 155, 145)" fill-opacity="0.47"/><path d="M150,107L142,117L155,111Z" fill="rgb(245, 177, 0)" fill-opacity="0.59"/><path d="M86,81L84,87L91,93Z" fill="rgb(225, 174, 31)" fill-opacity="0.50"/><path d="M21,129L45,135L60,128Z" fill="rgb(214, 254, 145)" fill-opacity="0.41"/><path d="M5,109L8,98L14,101Z" fill="rgb(219, 185, 16)" fill-opacity="0.76"/><path d="M74,85L77,85L74,109Z" fill="rgb(196, 134, 0)" fill-opacity="0.42"/><path d="M53,83L37,80L50,85Z" fill="rgb(101, 109, 128)" fill-opacity="0.57"/><path d="M217,119L190,114L186,109Z" fill="rgb(115, 145, 158)" fill-opacity="0.47"/><path d="M-9,107L-1,138L19,142Z" fill="rgb(20, 0, 16)" fill-opacity="0.39"/><path d="M149,101L154,89L164,92Z" fill="rgb(3, 1, 16)" fill-opacity="0.52"/><path d="M252,141L275,157L239,158Z" fill="rgb(31, 50, 11)" fill-opacity="0.52"/><path d="M23,104L31,121L18,128Z" fill="rgb(213, 97, 24)" fill-opacity="0.49"/><path d="M159,108L180,95L138,129Z" fill="rgb(39, 29, 12)" fill-opacity="0.37"/><path d="M121,154L152,127L103,123Z" fill="rgb(69, 73, 1)" fill-opacity="0.39"/><path d="M156,85L146,99L147,88Z" fill="rgb(159, 148, 139)" fill-opacity="0.45"/><path d="M-35,69L4,69L-1,97Z" fill="rgb(82, 59, 37)" fill-opacity="0.66"/><path d="M3,88L13,92L21,88Z" fill="rgb(46, 46, 32)" fill-opacity="0.50"/><path d="M142,79L147,72L147,80Z" fill="rgb(245, 116, 81)" fill-opacity="0.65"/><path d="M33,74L31,61L19,112Z" fill="rgb(76, 34, 17)" fill-opacity="0.63"/><path d="M65,92L71,109L67,117Z" fill="rgb(34, 34, 12)" fill-opacity="0.73"/><path d="M223,175L230,132L234,136Z" fill="rgb(205, 92, 81)" fill-opacity="0.26"/><path d="M19,128L36,128L29,135Z" fill="rgb(189, 219, 41)" fill-opacity="0.51"/><path d="M156,6L190,1L165,-7Z" fill="rgb(63, 55, 57)" fill-opacity="0.37"/><path d="M80,113L42,113L54,105Z" fill="rgb(39, 24, 43)" fill-opacity="0.43"/><path d="M199,152L194,146L196,159Z" fill="rgb(159, 96, 78)" fill-opacity="0.51"/><path d="M91,171L130,190L141,154Z" fill="rgb(87, 86, 67)" fill-opacity="0.68"/><path d="M53,108L61,91L40,100Z" fill="rgb(113, 143, 0)" fill-opacity="0.47"/><path d="M143,129L98,125L129,130Z" fill="rgb(147, 95, 0)" fill-opacity="0.56"/><path d="M143,124L145,127L156,127Z" fill="rgb(242, 42, 4)" fill-opacity="0.42"/><path d="M130,139L127,136L116,136Z" fill="rgb(126, 142, 0)" fill-opacity="0.50"/><path d="M163,105L165,105L162,99Z" fill="rgb(240, 235, 159)" fill-opacity="0.51"/><path d="M176,85L186,97L168,110Z" fill="rgb(54, 71, 66)" fill-opacity="0.55"/><path d="M47,121L68,116L55,122Z" fill="rgb(165, 146, 0)" fill-opacity="0.59"/><path d="M73,64L97,91L98,56Z" fill="rgb(47, 44, 5)" fill-opacity="0.58"/><path d="M16,157L13,140L12,156Z" fill="rgb(4, 72, 138)" fill-opacity="0.50"/><path d="M154,98L113,81L97,100Z" fill="rgb(61, 41, 43)" fill-opacity="0.52"/><path d="M21,108L24,88L22,87Z" fill="rgb(30, 24, 0)" fill-opacity="0.51"/><path d="M139,68L117,76L146,84Z" fill="rgb(100, 36, 21)" fill-opacity="0.47"/><path d="M51,136L32,138L69,144Z" fill="rgb(43, 50, 37)" fill-opacity="0.35"/><path d="M96,152L72,155L106,160Z" fill="rgb(51, 150, 232)" fill-opacity="0.49"/><path d="M115,148L54,143L62,152Z" fill="rgb(170, 208, 243)" fill-opacity="0.48"/><path d="M200,109L224,125L210,85Z" fill="rgb(13, 17, 9)" fill-opacity="0.55"/><path d="M91,145L93,154L62,149Z" fill="rgb(167, 212, 249)" fill-opacity="0.49"/><path d="M165,96L175,97L165,88Z" fill="rgb(143, 125, 122)" fill-opacity="0.54"/><path d="M3,90L2,88L-35,89Z" fill="rgb(14, 2, 0)" fill-opacity="0.49"/><path d="M118,122L133,96L130,118Z" fill="rgb(177, 154, 34)" fill-opacity="0.46"/><path d="M146,110L129,119L153,93Z" fill="rgb(117, 119, 20)" fill-opacity="0.67"/><path d="M144,112L144,96L149,104Z" fill="rgb(57, 134, 0)" fill-opacity="0.48"/><path d="M47,96L71,102L38,100Z" fill="rgb(115, 147, 0)" fill-opacity="0.43"/><path d="M176,73L159,86L140,62Z" fill="rgb(83, 44, 28)" fill-opacity="0.46"/><path d="M48,102L26,110L39,113Z" fill="rgb(72, 71, 105)" fill-opacity="0.40"/><path d="M236,137L225,120L238,95Z" fill="rgb(14, 20, 15)" fill-opacity="0.52"/><path d="M228,6L214,35L210,9Z" fill="rgb(74, 80, 84)" fill-opacity="0.40"/><path d="M-13,61L27,80L28,56Z" fill="rgb(91, 91, 105)" fill-opacity="0.46"/><path d="M90,164L123,153L116,166Z" fill="rgb(8, 18, 98)" fill-opacity="0.29"/><path d="M36,73L38,80L46,80Z" fill="rgb(9, 0, 2)" fill-opacity="0.54"/><path d="M119,109L115,113L120,121Z" fill="rgb(203, 126, 8)" fill-opacity="0.46"/><path d="M88,80L96,89L83,82Z" fill="rgb(180, 129, 1)" fill-opacity="0.50"/><path d="M14,157L16,133L31,135Z" fill="rgb(53, 97, 143)" fill-opacity="0.43"/><path d="M-6,16L26,54L-22,59Z" fill="rgb(99, 99, 111)" fill-opacity="0.63"/><path d="M17,105L15,114L20,107Z" fill="rgb(39, 32, 59)" fill-opacity="0.55"/><path d="M168,53L195,54L192,63Z" fill="rgb(30, 31, 27)" fill-opacity="0.54"/><path d="M138,97L134,99L137,116Z" fill="rgb(30, 18, 7)" fill-opacity="0.54"/><path d="M15,116L15,101L13,104Z" fill="rgb(172, 153, 16)" fill-opacity="0.54"/><path d="M198,63L192,12L199,21Z" fill="rgb(58, 61, 58)" fill-opacity="0.61"/><path d="M223,106L231,101L223,131Z" fill="rgb(69, 60, 54)" fill-opacity="0.54"/><path d="M29,101L20,109L25,110Z" fill="rgb(218, 167, 13)" fill-opacity="0.55"/><path d="M56,90L55,82L51,90Z" fill="rgb(155, 161, 101)" fill-opacity="0.46"/><path d="M71,96L80,91L92,106Z" fill="rgb(52, 5, 18)" fill-opacity="0.54"/><path d="M157,99L151,107L163,117Z" fill="rgb(69, 61, 1)" fill-opacity="0.50"/><path d="M66,143L83,139L92,145Z" fill="rgb(42, 40, 42)" fill-opacity="0.46"/><path d="M119,117L150,120L134,123Z" fill="rgb(179, 133, 11)" fill-opacity="0.53"/><path d="M157,153L138,140L217,139Z" fill="rgb(39, 51, 32)" fill-opacity="0.34"/><path d="M80,91L60,71L84,74Z" fill="rgb(49, 44, 0)" fill-opacity="0.59"/><path d="M31,99L43,82L51,96Z" fill="rgb(21, 16, 16)" fill-opacity="0.51"/><path d="M65,101L62,114L65,115Z" fill="rgb(182, 162, 44)" fill-opacity="0.52"/><path d="M51,92L42,92L64,101Z" fill="rgb(57, 51, 34)" fill-opacity="0.59"/><path d="M199,109L190,110L202,119Z" fill="rgb(130, 166, 180)" fill-opacity="0.43"/><path d="M19,110L19,113L29,112Z" fill="rgb(221, 84, 38)" fill-opacity="0.52"/><path d="M67,157L96,158L82,166Z" fill="rgb(78, 179, 255)" fill-opacity="0.57"/><path d="M107,95L138,105L130,108Z" fill="rgb(37, 17, 4)" fill-opacity="0.31"/><path d="M187,153L233,220L157,152Z" fill="rgb(137, 140, 160)" fill-opacity="0.71"/><path d="M65,102L64,109L59,92Z" fill="rgb(144, 148, 10)" fill-opacity="0.54"/><path d="M166,118L139,148L177,152Z" fill="rgb(41, 48, 18)" fill-opacity="0.40"/><path d="M195,155L183,153L188,123Z" fill="rgb(49, 50, 46)" fill-opacity="0.53"/><path d="M164,101L155,99L146,107Z" fill="rgb(147, 156, 63)" fill-opacity="0.41"/><path d="M112,139L83,133L97,131Z" fill="rgb(139, 166, 195)" fill-opacity="0.46"/><path d="M187,116L190,109L197,116Z" fill="rgb(131, 159, 170)" fill-opacity="0.50"/><path d="M132,84L109,83L135,103Z" fill="rgb(94, 56, 44)" fill-opacity="0.48"/><path d="M41,116L51,110L38,123Z" fill="rgb(218, 182, 0)" fill-opacity="0.54"/><path d="M154,118L141,111L132,116Z" fill="rgb(212, 142, 5)" fill-opacity="0.46"/><path d="M79,135L97,130L63,129Z" fill="rgb(156, 186, 224)" fill-opacity="0.42"/><path d="M25,12L5,22L3,9Z" fill="rgb(104, 106, 119)" fill-opacity="0.43"/><path d="M137,129L147,118L143,115Z" fill="rgb(87, 42, 12)" fill-opacity="0.47"/><path d="M53,138L54,133L63,133Z" fill="rgb(58, 98, 128)" fill-opacity="0.52"/><path d="M166,118L168,108L161,109Z" fill="rgb(230, 223, 48)" fill-opacity="0.39"/><path d="M88,115L77,115L90,130Z" fill="rgb(60, 46, 63)" fill-opacity="0.51"/><path d="M142,150L172,152L137,168Z" fill="rgb(144, 144, 161)" fill-opacity="0.54"/><path d="M144,62L37,-22L52,53Z" fill="rgb(12, 9, 15)" fill-opacity="0.49"/><path d="M41,128L49,120L29,116Z" fill="rgb(113, 150, 11)" fill-opacity="0.54"/><path d="M-4,-27L21,10L-8,1Z" fill="rgb(21, 15, 14)" fill-opacity="0.77"/><path d="M146,86L145,101L134,88Z" fill="rgb(29, 19, 24)" fill-opacity="0.54"/><path d="M19,101L13,97L16,107Z" fill="rgb(71, 49, 6)" fill-opacity="0.57"/><path d="M137,72L151,58L165,80Z" fill="rgb(82, 37, 24)" fill-opacity="0.54"/><path d="M237,133L256,139L234,119Z" fill="rgb(60, 68, 41)" fill-opacity="0.54"/><path d="M77,99L79,81L83,98Z" fill="rgb(42, 27, 9)" fill-opacity="0.51"/><path d="M186,76L171,70L203,99Z" fill="rgb(10, 10, 9)" fill-opacity="0.57"/><path d="M51,117L51,123L40,113Z" fill="rgb(243, 170, 10)" fill-opacity="0.45"/><path d="M88,115L75,104L91,109Z" fill="rgb(136, 0, 21)" fill-opacity="0.42"/><path d="M198,151L217,155L215,139Z" fill="rgb(31, 16, 19)" fill-opacity="0.62"/><path d="M56,136L47,141L64,142Z" fill="rgb(43, 58, 55)" fill-opacity="0.48"/></svg>