<svg xmlns="http://www.w3.org/2000/svg" viewBox="0 0 256 169.55844155844156" clip-path="url(#clip)" width="512" height="339.1168831168831"><defs><clipPath id="clip" clipPathUnits="objectBoundingBox"><rect x="0" y="0" width="256" height="169.55844155844156"/></clipPath></defs><rect x="0" y="0" width="256" height="169.55844155844156" fill="rgb(10, 22, 45)"/><path d="M162,163L246,108L53,139Z" fill="rgb(18, 254, 176)" fill-opacity="0.56"/><path d="M61,134L116,148L58,118Z" fill="rgb(31, 255, 210)" fill-opacity="0.60"/><path d="M227,96L202,74L167,107Z" fill="rgb(67, 197, 200)" fill-opacity="0.50"/><path d="M158,74L172,24L675,38Z" fill="rgb(14, 59, 139)" fill-opacity="0.87"/><path d="M238,141L151,128L234,103Z" fill="rgb(24, 210, 172)" fill-opacity="0.55"/><path d="M217,136L122,289L65,148Z" fill="rgb(0, 90, 63)" fill-opacity="0.69"/><path d="M125,63L160,104L127,113Z" fill="rgb(0, 121, 89)" fill-opacity="0.56"/><path d="M237,31L227,-34L317,60Z" fill="rgb(8, 44, 122)" fill-opacity="0.93"/><path d="M101,137L166,122L21,106Z" fill="rgb(12, 16, 33)" fill-opacity="0.82"/><path d="M212,105L201,95L243,86Z" fill="rgb(7, 22, 205)" fill-opacity="0.49"/><path d="M144,139L184,119L96,138Z" fill="rgb(71, 255, 231)" fill-opacity="0.67"/><path d="M203,76L189,79L192,107Z" fill="rgb(95, 219, 181)" fill-opacity="0.53"/><path d="M65,152L69,125L138,147Z" fill="rgb(9, 255, 160)" fill-opacity="0.30"/><path d="M151,135L195,115L220,111Z" fill="rgb(74, 253, 220)" fill-opacity="0.83"/><path d="M229,82L250,134L204,152Z" fill="rgb(0, 76, 99)" fill-opacity="0.56"/><path d="M243,66L199,96L229,88Z" fill="rgb(5, 6, 36)" fill-opacity="0.59"/><path d="M124,98L179,70L99,65Z" fill="rgb(4, 68, 88)" fill-opacity="0.46"/><path d="M104,71L176,62L113,100Z" fill="rgb(10, 43, 77)" fill-opacity="0.72"/><path d="M29,6L-229,155L71,174Z" fill="rgb(10, 4, 17)" fill-opacity="0.94"/><path d="M109,3L100,27L132,20Z" fill="rgb(17, 12, 117)" fill-opacity="0.57"/><path d="M162,38L171,30L188,78Z" fill="rgb(23, 78, 164)" fill-opacity="0.48"/><path d="M172,4L177,-3L132,-12Z" fill="rgb(12, 43, 226)" fill-opacity="0.54"/><path d="M210,23L139,-5L131,39Z" fill="rgb(9, 16, 33)" fill-opacity="1.00"/><path d="M173,135L232,143L225,115Z" fill="rgb(0, 146, 83)" fill-opacity="0.58"/><path d="M242,19L204,23L219,76Z" fill="rgb(12, 53, 136)" fill-opacity="0.73"/><path d="M124,136L200,120L132,150Z" fill="rgb(0, 234, 150)" fill-opacity="0.47"/><path d="M178,80L172,93L165,83Z" fill="rgb(8, 142, 90)" fill-opacity="0.54"/><path d="M2,98L7,107L-13,124Z" fill="rgb(208, 41, 3)" fill-opacity="0.57"/><path d="M210,81L208,97L204,73Z" fill="rgb(106, 255, 228)" fill-opacity="0.45"/><path d="M70,135L58,120L87,132Z" fill="rgb(62, 255, 228)" fill-opacity="0.56"/><path d="M78,13L101,19L75,-21Z" fill="rgb(12, 6, 114)" fill-opacity="0.46"/><path d="M189,96L207,90L193,79Z" fill="rgb(144, 255, 243)" fill-opacity="0.41"/><path d="M187,96L132,65L174,114Z" fill="rgb(0, 59, 31)" fill-opacity="0.56"/><path d="M65,146L113,161L58,126Z" fill="rgb(0, 143, 89)" fill-opacity="0.57"/><path d="M302,210L136,157L206,129Z" fill="rgb(0, 46, 32)" fill-opacity="0.31"/><path d="M89,105L-119,-6L133,32Z" fill="rgb(10, 6, 22)" fill-opacity="0.73"/><path d="M166,62L121,69L163,17Z" fill="rgb(17, 16, 25)" fill-opacity="0.65"/><path d="M221,99L247,103L241,134Z" fill="rgb(12, 35, 95)" fill-opacity="0.63"/><path d="M231,99L220,68L215,82Z" fill="rgb(15, 31, 134)" fill-opacity="0.47"/><path d="M67,111L103,96L71,92Z" fill="rgb(0, 66, 53)" fill-opacity="0.58"/><path d="M198,91L207,83L202,81Z" fill="rgb(7, 30, 7)" fill-opacity="0.50"/><path d="M193,99L197,100L195,84Z" fill="rgb(0, 0, 0)" fill-opacity="0.45"/><path d="M141,112L130,95L156,91Z" fill="rgb(2, 162, 102)" fill-opacity="0.39"/><path d="M184,90L195,94L183,96Z" fill="rgb(156, 255, 231)" fill-opacity="0.53"/><path d="M232,87L236,92L201,98Z" fill="rgb(25, 47, 255)" fill-opacity="0.40"/><path d="M217,121L218,144L235,129Z" fill="rgb(0, 171, 141)" fill-opacity="0.45"/><path d="M218,81L211,96L210,81Z" fill="rgb(0, 0, 5)" fill-opacity="0.66"/><path d="M190,109L197,96L161,101Z" fill="rgb(0, 114, 58)" fill-opacity="0.53"/><path d="M209,111L150,129L216,116Z" fill="rgb(111, 255, 244)" fill-opacity="0.53"/><path d="M150,127L100,137L117,142Z" fill="rgb(63, 255, 217)" fill-opacity="0.53"/><path d="M115,110L103,123L163,112Z" fill="rgb(0, 17, 87)" fill-opacity="0.68"/><path d="M276,72L234,72L238,-10Z" fill="rgb(11, 47, 124)" fill-opacity="0.85"/><path d="M190,93L183,92L190,97Z" fill="rgb(155, 255, 255)" fill-opacity="0.51"/><path d="M52,44L25,38L57,54Z" fill="rgb(0, 11, 93)" fill-opacity="0.47"/><path d="M166,71L161,82L157,71Z" fill="rgb(0, 140, 84)" fill-opacity="0.63"/><path d="M94,111L132,84L131,112Z" fill="rgb(3, 35, 32)" fill-opacity="0.54"/><path d="M222,73L163,76L200,78Z" fill="rgb(12, 50, 54)" fill-opacity="0.68"/><path d="M247,131L221,107L232,135Z" fill="rgb(0, 75, 156)" fill-opacity="0.46"/><path d="M188,89L195,69L175,88Z" fill="rgb(0, 18, 6)" fill-opacity="0.51"/><path d="M217,121L155,134L217,110Z" fill="rgb(17, 255, 179)" fill-opacity="0.53"/><path d="M193,99L195,106L177,101Z" fill="rgb(18, 248, 160)" fill-opacity="0.37"/><path d="M72,81L79,61L82,78Z" fill="rgb(18, 35, 122)" fill-opacity="0.46"/><path d="M243,104L256,73L257,192Z" fill="rgb(0, 8, 0)" fill-opacity="0.50"/><path d="M63,20L41,-49L17,21Z" fill="rgb(15, 4, 83)" fill-opacity="0.40"/><path d="M162,30L227,20L231,-26Z" fill="rgb(0, 35, 14)" fill-opacity="0.69"/><path d="M172,72L165,110L141,88Z" fill="rgb(1, 38, 5)" fill-opacity="0.42"/><path d="M68,124L62,129L73,142Z" fill="rgb(11, 255, 185)" fill-opacity="0.50"/><path d="M45,9L24,-24L17,-3Z" fill="rgb(7, 23, 121)" fill-opacity="0.65"/><path d="M73,146L119,158L243,124Z" fill="rgb(0, 139, 100)" fill-opacity="0.38"/><path d="M247,72L275,122L223,79Z" fill="rgb(5, 14, 17)" fill-opacity="0.65"/><path d="M63,188L64,144L102,174Z" fill="rgb(0, 54, 31)" fill-opacity="0.54"/><path d="M117,23L121,25L120,13Z" fill="rgb(4, 66, 187)" fill-opacity="0.55"/><path d="M58,120L55,104L92,129Z" fill="rgb(3, 3, 0)" fill-opacity="0.45"/><path d="M70,126L96,136L92,140Z" fill="rgb(92, 255, 254)" fill-opacity="0.47"/><path d="M195,76L195,83L207,68Z" fill="rgb(7, 34, 45)" fill-opacity="0.81"/><path d="M145,136L115,146L112,137Z" fill="rgb(5, 234, 155)" fill-opacity="0.51"/><path d="M148,129L152,125L178,121Z" fill="rgb(153, 247, 255)" fill-opacity="0.50"/><path d="M186,99L176,85L179,77Z" fill="rgb(0, 20, 7)" fill-opacity="0.56"/><path d="M188,73L199,98L207,96Z" fill="rgb(91, 217, 237)" fill-opacity="0.31"/><path d="M155,78L135,65L109,84Z" fill="rgb(0, 73, 90)" fill-opacity="0.50"/><path d="M226,96L221,110L178,118Z" fill="rgb(3, 78, 53)" fill-opacity="0.55"/><path d="M182,136L216,126L198,160Z" fill="rgb(0, 105, 78)" fill-opacity="0.48"/><path d="M197,24L198,73L163,60Z" fill="rgb(20, 70, 157)" fill-opacity="0.45"/><path d="M204,91L210,95L247,79Z" fill="rgb(5, 13, 28)" fill-opacity="0.52"/><path d="M76,88L82,115L83,104Z" fill="rgb(6, 87, 72)" fill-opacity="0.48"/><path d="M221,142L100,195L293,157Z" fill="rgb(0, 27, 25)" fill-opacity="0.44"/><path d="M221,102L190,95L199,108Z" fill="rgb(0, 25, 52)" fill-opacity="0.58"/><path d="M210,79L204,89L205,92Z" fill="rgb(124, 255, 231)" fill-opacity="0.52"/><path d="M170,79L174,94L174,84Z" fill="rgb(5, 221, 144)" fill-opacity="0.48"/><path d="M227,94L228,90L211,94Z" fill="rgb(25, 73, 255)" fill-opacity="0.46"/><path d="M90,25L80,71L50,61Z" fill="rgb(17, 6, 20)" fill-opacity="0.77"/><path d="M222,149L197,174L213,131Z" fill="rgb(0, 53, 36)" fill-opacity="0.57"/><path d="M142,0L125,-40L108,28Z" fill="rgb(22, 2, 99)" fill-opacity="0.39"/><path d="M111,94L116,101L160,66Z" fill="rgb(39, 1, 60)" fill-opacity="0.37"/><path d="M185,120L161,125L187,117Z" fill="rgb(201, 253, 255)" fill-opacity="0.51"/><path d="M190,79L179,83L191,92Z" fill="rgb(0, 0, 0)" fill-opacity="0.57"/><path d="M205,98L204,95L232,88Z" fill="rgb(11, 52, 210)" fill-opacity="0.50"/><path d="M188,92L190,92L191,71Z" fill="rgb(0, 0, 0)" fill-opacity="0.55"/><path d="M139,109L139,98L143,106Z" fill="rgb(0, 205, 135)" fill-opacity="0.50"/><path d="M143,154L95,194L101,146Z" fill="rgb(20, 57, 58)" fill-opacity="0.31"/><path d="M163,75L153,19L167,69Z" fill="rgb(12, 27, 28)" fill-opacity="0.56"/><path d="M-20,102L1,107L7,101Z" fill="rgb(254, 58, 10)" fill-opacity="0.46"/><path d="M110,103L108,107L110,92Z" fill="rgb(5, 109, 91)" fill-opacity="0.56"/><path d="M232,135L255,128L239,176Z" fill="rgb(0, 0, 42)" fill-opacity="0.33"/><path d="M209,82L206,76L195,80Z" fill="rgb(110, 241, 219)" fill-opacity="0.58"/><path d="M143,114L178,110L172,102Z" fill="rgb(0, 35, 97)" fill-opacity="0.38"/><path d="M157,95L148,107L162,106Z" fill="rgb(0, 67, 13)" fill-opacity="0.53"/><path d="M197,82L211,80L200,77Z" fill="rgb(116, 249, 228)" fill-opacity="0.47"/><path d="M123,37L165,39L130,-51Z" fill="rgb(21, 4, 38)" fill-opacity="0.49"/><path d="M171,71L164,29L201,48Z" fill="rgb(18, 64, 149)" fill-opacity="0.54"/><path d="M65,146L110,157L75,160Z" fill="rgb(0, 96, 63)" fill-opacity="0.68"/><path d="M113,12L107,18L119,16Z" fill="rgb(9, 36, 181)" fill-opacity="0.48"/><path d="M249,99L242,120L227,91Z" fill="rgb(23, 23, 73)" fill-opacity="0.41"/><path d="M194,-51L224,22L236,12Z" fill="rgb(0, 1, 5)" fill-opacity="0.53"/><path d="M71,124L98,137L130,129Z" fill="rgb(22, 17, 21)" fill-opacity="0.56"/><path d="M127,136L84,138L117,141Z" fill="rgb(22, 254, 178)" fill-opacity="0.56"/><path d="M156,74L143,83L170,76Z" fill="rgb(5, 109, 72)" fill-opacity="0.42"/><path d="M238,136L237,151L254,123Z" fill="rgb(7, 27, 68)" fill-opacity="0.56"/><path d="M133,107L151,101L135,85Z" fill="rgb(3, 131, 97)" fill-opacity="0.54"/><path d="M60,38L110,-29L133,1Z" fill="rgb(17, 2, 57)" fill-opacity="0.46"/><path d="M213,-9L239,16L231,17Z" fill="rgb(2, 15, 17)" fill-opacity="0.54"/><path d="M155,127L142,133L131,130Z" fill="rgb(89, 255, 245)" fill-opacity="0.48"/><path d="M199,104L197,97L190,96Z" fill="rgb(0, 30, 14)" fill-opacity="0.61"/><path d="M261,180L247,164L229,179Z" fill="rgb(0, 104, 88)" fill-opacity="0.56"/><path d="M60,127L80,131L60,120Z" fill="rgb(71, 255, 228)" fill-opacity="0.56"/><path d="M90,114L108,119L92,96Z" fill="rgb(5, 0, 7)" fill-opacity="0.50"/><path d="M92,142L60,136L74,132Z" fill="rgb(0, 202, 132)" fill-opacity="0.67"/><path d="M206,68L180,58L184,75Z" fill="rgb(17, 77, 119)" fill-opacity="0.45"/><path d="M174,125L182,119L166,122Z" fill="rgb(163, 236, 249)" fill-opacity="0.47"/><path d="M200,88L200,82L197,83Z" fill="rgb(143, 255, 255)" fill-opacity="0.47"/><path d="M203,55L202,76L211,79Z" fill="rgb(3, 36, 52)" fill-opacity="0.50"/><path d="M213,101L203,93L198,100Z" fill="rgb(8, 35, 181)" fill-opacity="0.46"/><path d="M224,152L226,132L240,138Z" fill="rgb(0, 72, 65)" fill-opacity="0.41"/><path d="M155,141L168,156L184,137Z" fill="rgb(0, 120, 94)" fill-opacity="0.58"/><path d="M210,106L196,115L223,108Z" fill="rgb(3, 106, 59)" fill-opacity="0.54"/><path d="M169,87L182,95L179,98Z" fill="rgb(24, 101, 85)" fill-opacity="0.62"/><path d="M160,13L209,-3L176,-1Z" fill="rgb(7, 0, 67)" fill-opacity="0.50"/><path d="M173,91L172,79L177,84Z" fill="rgb(9, 186, 121)" fill-opacity="0.47"/><path d="M138,52L139,41L124,41Z" fill="rgb(5, 14, 86)" fill-opacity="0.50"/><path d="M119,88L105,82L118,64Z" fill="rgb(0, 51, 113)" fill-opacity="0.47"/><path d="M84,131L96,136L96,139Z" fill="rgb(92, 240, 231)" fill-opacity="0.55"/><path d="M30,39L52,44L23,46Z" fill="rgb(2, 13, 78)" fill-opacity="0.49"/><path d="M150,106L142,105L138,118Z" fill="rgb(0, 53, 76)" fill-opacity="0.50"/><path d="M116,143L160,142L221,117Z" fill="rgb(0, 186, 124)" fill-opacity="0.48"/><path d="M83,17L92,8L82,10Z" fill="rgb(11, 19, 132)" fill-opacity="0.46"/><path d="M77,12L52,23L91,-40Z" fill="rgb(15, 0, 26)" fill-opacity="0.45"/><path d="M192,97L195,79L191,75Z" fill="rgb(131, 255, 251)" fill-opacity="0.55"/><path d="M200,96L200,82L202,91Z" fill="rgb(0, 37, 9)" fill-opacity="0.50"/><path d="M166,200L148,154L180,157Z" fill="rgb(5, 56, 58)" fill-opacity="0.56"/><path d="M115,154L118,139L123,164Z" fill="rgb(1, 151, 116)" fill-opacity="0.39"/><path d="M197,83L200,79L198,100Z" fill="rgb(125, 255, 251)" fill-opacity="0.60"/><path d="M91,150L97,163L105,140Z" fill="rgb(1, 135, 91)" fill-opacity="0.56"/><path d="M76,69L74,74L82,73Z" fill="rgb(23, 59, 215)" fill-opacity="0.47"/><path d="M33,195L64,135L71,159Z" fill="rgb(0, 26, 13)" fill-opacity="0.32"/><path d="M152,64L144,76L159,61Z" fill="rgb(26, 31, 129)" fill-opacity="0.44"/><path d="M306,118L227,177L228,157Z" fill="rgb(0, 1, 14)" fill-opacity="0.41"/><path d="M89,35L130,48L84,101Z" fill="rgb(0, 15, 20)" fill-opacity="0.47"/><path d="M64,111L66,94L59,99Z" fill="rgb(1, 55, 40)" fill-opacity="0.50"/><path d="M196,124L223,135L220,118Z" fill="rgb(0, 182, 109)" fill-opacity="0.46"/><path d="M140,80L143,80L145,114Z" fill="rgb(8, 52, 40)" fill-opacity="0.46"/><path d="M91,90L107,63L107,92Z" fill="rgb(0, 29, 36)" fill-opacity="0.64"/><path d="M212,-9L218,22L197,15Z" fill="rgb(0, 67, 22)" fill-opacity="0.44"/><path d="M130,145L127,166L197,150Z" fill="rgb(0, 84, 77)" fill-opacity="0.32"/><path d="M238,8L187,-33L256,-17Z" fill="rgb(8, 44, 121)" fill-opacity="0.81"/><path d="M198,97L194,95L195,113Z" fill="rgb(0, 2, 0)" fill-opacity="0.46"/><path d="M217,112L196,117L211,111Z" fill="rgb(132, 255, 255)" fill-opacity="0.46"/><path d="M-31,4L114,22L152,46Z" fill="rgb(17, 11, 42)" fill-opacity="0.65"/><path d="M149,154L163,138L134,140Z" fill="rgb(0, 136, 102)" fill-opacity="0.47"/><path d="M77,106L76,100L73,103Z" fill="rgb(0, 105, 70)" fill-opacity="0.52"/><path d="M105,142L103,174L101,148Z" fill="rgb(16, 25, 27)" fill-opacity="0.34"/><path d="M214,78L217,93L208,74Z" fill="rgb(0, 0, 5)" fill-opacity="0.50"/><path d="M65,133L75,130L106,141Z" fill="rgb(19, 255, 186)" fill-opacity="0.55"/><path d="M135,111L152,101L153,93Z" fill="rgb(13, 127, 96)" fill-opacity="0.51"/><path d="M222,101L167,122L135,120Z" fill="rgb(7, 26, 27)" fill-opacity="0.65"/><path d="M81,45L69,98L29,95Z" fill="rgb(12, 5, 17)" fill-opacity="0.69"/><path d="M19,-18L27,22L-65,13Z" fill="rgb(12, 7, 35)" fill-opacity="0.73"/><path d="M200,90L198,93L197,79Z" fill="rgb(132, 255, 249)" fill-opacity="0.54"/><path d="M22,72L2,108L29,103Z" fill="rgb(13, 0, 14)" fill-opacity="0.51"/><path d="M201,114L208,111L194,93Z" fill="rgb(0, 70, 52)" fill-opacity="0.52"/><path d="M180,76L174,86L195,76Z" fill="rgb(0, 25, 23)" fill-opacity="0.52"/><path d="M60,93L64,68L90,92Z" fill="rgb(15, 6, 8)" fill-opacity="0.52"/><path d="M102,79L111,97L106,111Z" fill="rgb(0, 65, 80)" fill-opacity="0.31"/><path d="M139,45L168,31L152,-26Z" fill="rgb(13, 10, 32)" fill-opacity="0.79"/><path d="M173,72L141,91L167,97Z" fill="rgb(6, 35, 25)" fill-opacity="0.66"/><path d="M105,139L94,143L94,152Z" fill="rgb(4, 197, 128)" fill-opacity="0.46"/><path d="M175,97L201,97L184,100Z" fill="rgb(0, 49, 38)" fill-opacity="0.64"/><path d="M104,168L97,178L104,152Z" fill="rgb(26, 29, 35)" fill-opacity="0.49"/><path d="M201,99L200,95L212,94Z" fill="rgb(9, 57, 218)" fill-opacity="0.51"/><path d="M239,126L233,90L250,131Z" fill="rgb(16, 34, 85)" fill-opacity="0.66"/><path d="M188,90L183,88L187,96Z" fill="rgb(162, 253, 236)" fill-opacity="0.51"/><path d="M120,69L104,70L123,79Z" fill="rgb(0, 51, 101)" fill-opacity="0.59"/><path d="M207,127L134,145L207,142Z" fill="rgb(0, 132, 96)" fill-opacity="0.28"/><path d="M138,108L140,83L142,106Z" fill="rgb(0, 250, 160)" fill-opacity="0.30"/><path d="M178,113L184,107L173,101Z" fill="rgb(0, 30, 46)" fill-opacity="0.56"/><path d="M40,2L43,-5L34,2Z" fill="rgb(7, 30, 180)" fill-opacity="0.53"/><path d="M166,1L159,-7L175,2Z" fill="rgb(27, 66, 226)" fill-opacity="0.50"/><path d="M75,71L79,86L73,68Z" fill="rgb(15, 37, 120)" fill-opacity="0.48"/><path d="M168,98L187,98L174,104Z" fill="rgb(0, 125, 60)" fill-opacity="0.52"/><path d="M185,77L182,69L189,67Z" fill="rgb(26, 113, 114)" fill-opacity="0.49"/><path d="M191,116L197,119L181,119Z" fill="rgb(183, 231, 241)" fill-opacity="0.50"/></svg>