<svg xmlns="http://www.w3.org/2000/svg" viewBox="0 0 256 169.55844155844156" clip-path="url(#clip)" width="512" height="339.1168831168831"><defs><clipPath id="clip" clipPathUnits="objectBoundingBox"><rect x="0" y="0" width="256" height="169.55844155844156"/></clipPath></defs><rect x="0" y="0" width="256" height="169.55844155844156" fill="rgb(64, 55, 49)"/><path d="M81,123L45,176L7,161Z" fill="rgb(231, 240, 244)" fill-opacity="0.47"/><path d="M237,190L273,145L109,147Z" fill="rgb(212, 229, 244)" fill-opacity="0.60"/><path d="M68,141L150,155L60,163Z" fill="rgb(192, 221, 240)" fill-opacity="0.47"/><path d="M184,122L365,150L250,164Z" fill="rgb(104, 103, 100)" fill-opacity="0.89"/><path d="M-139,134L252,112L253,-233Z" fill="rgb(15, 5, 5)" fill-opacity="0.92"/><path d="M88,61L86,81L102,75Z" fill="rgb(231, 157, 0)" fill-opacity="0.51"/><path d="M221,161L236,182L248,144Z" fill="rgb(255, 255, 255)" fill-opacity="0.53"/><path d="M194,177L138,148L203,159Z" fill="rgb(253, 255, 255)" fill-opacity="0.58"/><path d="M225,166L176,200L210,157Z" fill="rgb(28, 30, 37)" fill-opacity="0.66"/><path d="M241,163L251,100L270,162Z" fill="rgb(56, 53, 46)" fill-opacity="0.52"/><path d="M153,143L185,191L49,174Z" fill="rgb(93, 102, 93)" fill-opacity="0.42"/><path d="M234,58L227,-32L226,158Z" fill="rgb(126, 83, 52)" fill-opacity="0.62"/><path d="M233,149L252,170L215,183Z" fill="rgb(255, 255, 255)" fill-opacity="0.54"/><path d="M-17,78L37,88L59,77Z" fill="rgb(165, 52, 0)" fill-opacity="0.33"/><path d="M196,122L198,153L261,154Z" fill="rgb(118, 120, 125)" fill-opacity="0.75"/><path d="M47,128L7,186L-58,140Z" fill="rgb(107, 82, 52)" fill-opacity="0.81"/><path d="M188,144L74,93L81,147Z" fill="rgb(27, 60, 86)" fill-opacity="0.40"/><path d="M29,207L52,155L26,163Z" fill="rgb(226, 244, 255)" fill-opacity="0.65"/><path d="M43,132L98,123L29,166Z" fill="rgb(199, 191, 177)" fill-opacity="0.22"/><path d="M174,154L215,154L159,187Z" fill="rgb(255, 255, 255)" fill-opacity="0.46"/><path d="M97,65L93,91L85,75Z" fill="rgb(242, 151, 0)" fill-opacity="0.40"/><path d="M104,83L271,116L197,124Z" fill="rgb(26, 21, 22)" fill-opacity="1.00"/><path d="M131,66L134,59L147,68Z" fill="rgb(192, 58, 14)" fill-opacity="0.45"/><path d="M202,158L208,179L201,167Z" fill="rgb(30, 37, 52)" fill-opacity="0.60"/><path d="M67,157L79,124L86,160Z" fill="rgb(198, 207, 212)" fill-opacity="0.34"/><path d="M196,159L223,163L224,158Z" fill="rgb(72, 79, 87)" fill-opacity="0.65"/><path d="M49,160L71,158L89,204Z" fill="rgb(40, 37, 33)" fill-opacity="0.74"/><path d="M236,141L276,171L255,135Z" fill="rgb(1, 6, 8)" fill-opacity="0.44"/><path d="M142,147L81,147L89,162Z" fill="rgb(155, 172, 186)" fill-opacity="0.67"/><path d="M211,123L211,126L248,120Z" fill="rgb(170, 187, 202)" fill-opacity="0.58"/><path d="M90,121L78,127L-4,126Z" fill="rgb(5, 5, 2)" fill-opacity="0.71"/><path d="M36,162L27,156L28,162Z" fill="rgb(9, 14, 24)" fill-opacity="0.43"/><path d="M241,137L266,134L244,130Z" fill="rgb(193, 164, 94)" fill-opacity="0.61"/><path d="M43,86L23,83L33,79Z" fill="rgb(202, 110, 7)" fill-opacity="0.43"/><path d="M155,70L169,156L132,89Z" fill="rgb(51, 74, 92)" fill-opacity="0.26"/><path d="M189,62L181,51L193,55Z" fill="rgb(189, 12, 0)" fill-opacity="0.50"/><path d="M177,156L237,155L189,161Z" fill="rgb(247, 252, 255)" fill-opacity="0.55"/><path d="M90,43L86,65L91,100Z" fill="rgb(27, 8, 0)" fill-opacity="0.52"/><path d="M201,136L209,144L196,150Z" fill="rgb(171, 176, 181)" fill-opacity="0.54"/><path d="M214,124L223,134L260,126Z" fill="rgb(0, 5, 15)" fill-opacity="0.55"/><path d="M198,149L227,156L207,129Z" fill="rgb(81, 81, 83)" fill-opacity="0.51"/><path d="M200,141L229,141L195,149Z" fill="rgb(163, 168, 177)" fill-opacity="0.54"/><path d="M48,160L26,175L41,148Z" fill="rgb(222, 236, 249)" fill-opacity="0.45"/><path d="M62,156L61,137L43,184Z" fill="rgb(89, 93, 97)" fill-opacity="0.56"/><path d="M247,120L325,120L236,123Z" fill="rgb(186, 217, 253)" fill-opacity="0.41"/><path d="M24,51L17,91L-5,69Z" fill="rgb(95, 19, 0)" fill-opacity="0.31"/><path d="M218,124L203,122L236,122Z" fill="rgb(226, 243, 255)" fill-opacity="0.44"/><path d="M136,96L142,91L140,100Z" fill="rgb(210, 125, 124)" fill-opacity="0.42"/><path d="M157,83L142,83L138,80Z" fill="rgb(97, 119, 172)" fill-opacity="0.61"/><path d="M96,91L96,85L82,85Z" fill="rgb(202, 75, 15)" fill-opacity="0.51"/><path d="M188,114L184,125L128,126Z" fill="rgb(74, 101, 121)" fill-opacity="0.36"/><path d="M120,167L142,155L166,163Z" fill="rgb(61, 55, 40)" fill-opacity="0.48"/><path d="M238,155L216,146L204,155Z" fill="rgb(50, 53, 59)" fill-opacity="0.41"/><path d="M208,171L209,157L202,159Z" fill="rgb(118, 131, 143)" fill-opacity="0.42"/><path d="M234,22L228,97L230,-22Z" fill="rgb(133, 82, 51)" fill-opacity="0.43"/><path d="M72,127L88,125L55,165Z" fill="rgb(118, 118, 116)" fill-opacity="0.47"/><path d="M66,143L79,132L67,137Z" fill="rgb(58, 59, 59)" fill-opacity="0.49"/><path d="M191,109L193,139L178,152Z" fill="rgb(14, 37, 58)" fill-opacity="0.48"/><path d="M224,159L255,167L227,170Z" fill="rgb(255, 255, 255)" fill-opacity="0.53"/><path d="M139,122L88,119L154,114Z" fill="rgb(89, 102, 106)" fill-opacity="0.42"/><path d="M87,72L84,78L104,70Z" fill="rgb(226, 169, 0)" fill-opacity="0.54"/><path d="M15,148L26,166L-19,217Z" fill="rgb(122, 95, 69)" fill-opacity="0.77"/><path d="M250,145L243,158L222,146Z" fill="rgb(167, 167, 179)" fill-opacity="0.37"/><path d="M194,153L172,127L201,132Z" fill="rgb(31, 52, 72)" fill-opacity="0.47"/><path d="M52,149L50,175L59,149Z" fill="rgb(59, 62, 64)" fill-opacity="0.42"/><path d="M23,69L27,86L18,87Z" fill="rgb(2, 0, 0)" fill-opacity="0.52"/><path d="M83,94L107,69L103,67Z" fill="rgb(38, 6, 0)" fill-opacity="0.60"/><path d="M122,99L69,129L47,103Z" fill="rgb(11, 19, 26)" fill-opacity="0.69"/><path d="M239,143L234,156L208,130Z" fill="rgb(149, 148, 154)" fill-opacity="0.58"/><path d="M80,140L135,144L97,109Z" fill="rgb(41, 51, 60)" fill-opacity="0.72"/><path d="M140,62L136,68L130,63Z" fill="rgb(227, 87, 18)" fill-opacity="0.45"/><path d="M146,156L206,155L139,147Z" fill="rgb(157, 176, 191)" fill-opacity="0.71"/><path d="M188,139L157,119L152,136Z" fill="rgb(29, 46, 63)" fill-opacity="0.50"/><path d="M70,85L72,80L61,87Z" fill="rgb(210, 37, 10)" fill-opacity="0.44"/><path d="M144,86L53,-45L119,112Z" fill="rgb(15, 0, 3)" fill-opacity="0.88"/><path d="M284,114L247,121L249,126Z" fill="rgb(111, 133, 151)" fill-opacity="0.60"/><path d="M120,149L113,148L111,152Z" fill="rgb(107, 119, 131)" fill-opacity="0.50"/><path d="M199,160L205,193L168,156Z" fill="rgb(253, 255, 255)" fill-opacity="0.77"/><path d="M224,157L226,198L228,154Z" fill="rgb(253, 255, 255)" fill-opacity="0.61"/><path d="M250,133L240,130L207,145Z" fill="rgb(169, 153, 114)" fill-opacity="0.54"/><path d="M214,155L227,153L204,143Z" fill="rgb(64, 65, 69)" fill-opacity="0.59"/><path d="M38,163L33,153L64,156Z" fill="rgb(183, 193, 199)" fill-opacity="0.56"/><path d="M213,128L204,127L241,149Z" fill="rgb(143, 142, 147)" fill-opacity="0.60"/><path d="M135,125L151,121L137,120Z" fill="rgb(81, 93, 101)" fill-opacity="0.60"/><path d="M61,-209L48,74L228,46Z" fill="rgb(9, 0, 3)" fill-opacity="0.76"/><path d="M130,83L134,77L133,83Z" fill="rgb(193, 16, 4)" fill-opacity="0.52"/><path d="M236,139L243,136L245,145Z" fill="rgb(6, 8, 11)" fill-opacity="0.52"/><path d="M213,129L215,128L211,119Z" fill="rgb(175, 184, 193)" fill-opacity="0.54"/><path d="M201,145L204,142L219,142Z" fill="rgb(184, 192, 201)" fill-opacity="0.49"/><path d="M196,150L204,155L201,124Z" fill="rgb(151, 158, 163)" fill-opacity="0.56"/><path d="M95,69L93,82L91,70Z" fill="rgb(246, 184, 2)" fill-opacity="0.73"/><path d="M65,141L35,148L82,145Z" fill="rgb(164, 166, 174)" fill-opacity="0.53"/><path d="M185,55L184,49L192,56Z" fill="rgb(252, 26, 6)" fill-opacity="0.34"/><path d="M254,158L237,183L260,207Z" fill="rgb(178, 196, 213)" fill-opacity="0.62"/><path d="M231,131L222,135L247,138Z" fill="rgb(211, 174, 88)" fill-opacity="0.34"/><path d="M182,103L194,141L191,107Z" fill="rgb(15, 19, 24)" fill-opacity="0.55"/><path d="M275,149L267,137L243,163Z" fill="rgb(3, 7, 15)" fill-opacity="0.48"/><path d="M223,121L225,33L233,114Z" fill="rgb(93, 61, 32)" fill-opacity="0.46"/><path d="M109,119L114,117L104,127Z" fill="rgb(134, 140, 141)" fill-opacity="0.48"/><path d="M81,81L84,70L87,90Z" fill="rgb(80, 32, 0)" fill-opacity="0.55"/><path d="M191,60L188,49L186,55Z" fill="rgb(216, 14, 4)" fill-opacity="0.40"/><path d="M250,21L259,-40L255,48Z" fill="rgb(53, 28, 0)" fill-opacity="0.65"/><path d="M250,164L234,231L227,164Z" fill="rgb(249, 254, 255)" fill-opacity="0.75"/><path d="M76,145L48,136L45,146Z" fill="rgb(154, 154, 157)" fill-opacity="0.76"/><path d="M55,152L29,147L41,155Z" fill="rgb(132, 132, 140)" fill-opacity="0.55"/><path d="M87,85L98,91L92,84Z" fill="rgb(180, 78, 19)" fill-opacity="0.57"/><path d="M243,121L248,97L229,114Z" fill="rgb(2, 0, 0)" fill-opacity="0.59"/><path d="M218,161L208,160L230,179Z" fill="rgb(21, 20, 24)" fill-opacity="0.56"/><path d="M179,119L142,89L233,95Z" fill="rgb(19, 24, 28)" fill-opacity="0.58"/><path d="M249,105L252,46L291,203Z" fill="rgb(106, 63, 13)" fill-opacity="0.40"/><path d="M90,124L81,135L72,127Z" fill="rgb(149, 144, 133)" fill-opacity="0.44"/><path d="M227,91L233,90L229,27Z" fill="rgb(146, 98, 71)" fill-opacity="0.38"/><path d="M82,146L98,147L88,119Z" fill="rgb(30, 39, 47)" fill-opacity="0.48"/><path d="M234,142L244,142L224,132Z" fill="rgb(40, 23, 0)" fill-opacity="0.40"/><path d="M153,72L157,81L153,89Z" fill="rgb(0, 100, 30)" fill-opacity="0.48"/><path d="M202,159L204,158L233,178Z" fill="rgb(68, 72, 80)" fill-opacity="0.75"/><path d="M201,161L200,164L206,169Z" fill="rgb(52, 60, 72)" fill-opacity="0.53"/><path d="M165,153L169,136L170,152Z" fill="rgb(86, 97, 109)" fill-opacity="0.47"/><path d="M31,156L34,157L27,165Z" fill="rgb(58, 62, 66)" fill-opacity="0.51"/><path d="M96,67L80,68L105,58Z" fill="rgb(74, 47, 0)" fill-opacity="0.52"/><path d="M54,197L52,156L69,162Z" fill="rgb(44, 40, 35)" fill-opacity="0.57"/><path d="M73,162L115,155L90,281Z" fill="rgb(95, 92, 80)" fill-opacity="0.43"/><path d="M132,123L138,114L134,136Z" fill="rgb(15, 21, 26)" fill-opacity="0.50"/><path d="M35,32L98,-21L-39,-9Z" fill="rgb(12, 2, 6)" fill-opacity="0.90"/><path d="M34,155L49,155L52,170Z" fill="rgb(196, 210, 218)" fill-opacity="0.50"/><path d="M207,126L212,137L206,141Z" fill="rgb(59, 58, 53)" fill-opacity="0.53"/><path d="M50,147L60,179L50,164Z" fill="rgb(90, 92, 93)" fill-opacity="0.43"/><path d="M68,146L45,154L64,154Z" fill="rgb(52, 55, 62)" fill-opacity="0.47"/><path d="M20,86L1,85L20,58Z" fill="rgb(69, 16, 0)" fill-opacity="0.55"/><path d="M176,117L174,117L176,124Z" fill="rgb(149, 164, 174)" fill-opacity="0.49"/><path d="M224,134L245,122L213,129Z" fill="rgb(15, 18, 26)" fill-opacity="0.52"/><path d="M144,157L137,164L163,164Z" fill="rgb(54, 51, 39)" fill-opacity="0.51"/><path d="M117,131L104,128L83,130Z" fill="rgb(95, 103, 114)" fill-opacity="0.53"/><path d="M226,60L132,56L150,78Z" fill="rgb(6, 0, 0)" fill-opacity="0.44"/><path d="M205,124L201,139L193,125Z" fill="rgb(142, 142, 141)" fill-opacity="0.65"/><path d="M13,61L50,57L42,84Z" fill="rgb(19, 5, 6)" fill-opacity="0.52"/><path d="M43,163L28,162L33,173Z" fill="rgb(238, 246, 253)" fill-opacity="0.49"/><path d="M88,125L84,126L78,139Z" fill="rgb(166, 165, 161)" fill-opacity="0.45"/><path d="M42,81L43,88L46,84Z" fill="rgb(198, 14, 0)" fill-opacity="0.45"/><path d="M143,92L147,95L139,93Z" fill="rgb(132, 141, 149)" fill-opacity="0.53"/><path d="M96,126L106,114L99,125Z" fill="rgb(90, 97, 101)" fill-opacity="0.50"/><path d="M144,95L144,135L138,109Z" fill="rgb(26, 30, 35)" fill-opacity="0.76"/><path d="M71,108L102,106L74,91Z" fill="rgb(17, 10, 8)" fill-opacity="0.59"/><path d="M-12,157L-22,123L32,127Z" fill="rgb(73, 50, 18)" fill-opacity="0.39"/><path d="M57,96L32,47L82,100Z" fill="rgb(14, 0, 1)" fill-opacity="0.51"/><path d="M64,171L71,160L62,158Z" fill="rgb(7, 1, 3)" fill-opacity="0.49"/><path d="M72,152L76,148L82,148Z" fill="rgb(60, 69, 81)" fill-opacity="0.46"/><path d="M170,122L150,117L171,117Z" fill="rgb(108, 124, 136)" fill-opacity="0.45"/><path d="M73,152L55,158L108,157Z" fill="rgb(173, 185, 191)" fill-opacity="0.46"/><path d="M171,162L168,198L165,160Z" fill="rgb(152, 168, 182)" fill-opacity="0.51"/><path d="M156,123L154,119L153,126Z" fill="rgb(165, 173, 180)" fill-opacity="0.43"/><path d="M119,118L112,124L114,126Z" fill="rgb(163, 168, 170)" fill-opacity="0.43"/><path d="M241,-26L177,-31L221,37Z" fill="rgb(4, 0, 0)" fill-opacity="0.41"/><path d="M142,60L121,85L152,71Z" fill="rgb(30, 1, 5)" fill-opacity="0.61"/><path d="M256,106L263,23L254,63Z" fill="rgb(121, 91, 58)" fill-opacity="0.46"/><path d="M156,147L165,147L166,164Z" fill="rgb(173, 192, 206)" fill-opacity="0.54"/><path d="M48,84L29,86L28,80Z" fill="rgb(236, 114, 9)" fill-opacity="0.26"/><path d="M23,151L30,150L25,158Z" fill="rgb(50, 52, 56)" fill-opacity="0.50"/><path d="M26,170L50,183L24,157Z" fill="rgb(192, 210, 226)" fill-opacity="0.44"/><path d="M136,149L139,152L121,155Z" fill="rgb(153, 174, 199)" fill-opacity="0.48"/><path d="M84,114L94,113L85,101Z" fill="rgb(48, 46, 38)" fill-opacity="0.50"/><path d="M139,95L131,100L123,73Z" fill="rgb(60, 0, 0)" fill-opacity="0.49"/><path d="M74,128L46,128L3,162Z" fill="rgb(119, 90, 51)" fill-opacity="0.38"/><path d="M192,131L200,146L161,118Z" fill="rgb(33, 46, 58)" fill-opacity="0.43"/><path d="M140,142L119,116L113,143Z" fill="rgb(29, 40, 51)" fill-opacity="0.43"/><path d="M143,83L167,125L160,83Z" fill="rgb(19, 18, 22)" fill-opacity="0.83"/><path d="M52,155L46,159L71,154Z" fill="rgb(151, 161, 163)" fill-opacity="0.48"/><path d="M143,157L134,159L141,146Z" fill="rgb(93, 98, 103)" fill-opacity="0.38"/><path d="M210,140L208,130L201,132Z" fill="rgb(58, 56, 52)" fill-opacity="0.50"/><path d="M293,146L273,136L229,139Z" fill="rgb(4, 7, 14)" fill-opacity="0.50"/><path d="M157,147L140,139L195,142Z" fill="rgb(63, 77, 91)" fill-opacity="0.45"/><path d="M196,147L199,157L203,149Z" fill="rgb(187, 215, 240)" fill-opacity="0.35"/><path d="M102,72L121,90L90,85Z" fill="rgb(14, 0, 0)" fill-opacity="0.52"/><path d="M214,128L215,128L213,118Z" fill="rgb(164, 173, 185)" fill-opacity="0.50"/><path d="M232,58L248,121L252,-8Z" fill="rgb(4, 0, 1)" fill-opacity="0.63"/><path d="M147,118L152,107L152,139Z" fill="rgb(21, 30, 38)" fill-opacity="0.50"/><path d="M233,25L241,-58L251,66Z" fill="rgb(8, 0, 4)" fill-opacity="0.78"/><path d="M175,89L224,-3L223,92Z" fill="rgb(6, 0, 0)" fill-opacity="0.60"/><path d="M179,119L173,116L176,121Z" fill="rgb(136, 152, 159)" fill-opacity="0.50"/><path d="M69,100L89,121L56,120Z" fill="rgb(5, 25, 41)" fill-opacity="0.51"/><path d="M227,113L212,122L183,96Z" fill="rgb(12, 14, 17)" fill-opacity="0.59"/><path d="M170,88L175,111L189,138Z" fill="rgb(22, 27, 32)" fill-opacity="0.49"/><path d="M133,120L127,129L134,113Z" fill="rgb(100, 107, 112)" fill-opacity="0.43"/><path d="M148,153L150,146L168,166Z" fill="rgb(141, 150, 161)" fill-opacity="0.50"/><path d="M51,129L57,117L74,128Z" fill="rgb(14, 9, 0)" fill-opacity="0.51"/><path d="M120,118L115,131L129,106Z" fill="rgb(13, 11, 11)" fill-opacity="0.50"/><path d="M131,60L125,68L137,72Z" fill="rgb(56, 0, 0)" fill-opacity="0.54"/><path d="M225,135L214,144L250,154Z" fill="rgb(140, 139, 143)" fill-opacity="0.59"/><path d="M75,135L75,129L80,124Z" fill="rgb(160, 153, 142)" fill-opacity="0.51"/><path d="M253,158L253,146L248,150Z" fill="rgb(75, 81, 82)" fill-opacity="0.45"/><path d="M220,159L222,158L225,165Z" fill="rgb(24, 24, 26)" fill-opacity="0.42"/><path d="M76,142L82,139L71,153Z" fill="rgb(163, 168, 170)" fill-opacity="0.50"/><path d="M129,147L133,179L125,150Z" fill="rgb(84, 86, 82)" fill-opacity="0.53"/><path d="M87,77L89,77L87,73Z" fill="rgb(251, 196, 0)" fill-opacity="0.50"/><path d="M50,76L45,76L40,86Z" fill="rgb(92, 59, 56)" fill-opacity="0.51"/><path d="M154,81L158,81L153,76Z" fill="rgb(7, 248, 116)" fill-opacity="0.40"/><path d="M157,156L155,141L152,157Z" fill="rgb(103, 110, 119)" fill-opacity="0.48"/><path d="M146,80L154,84L139,82Z" fill="rgb(96, 116, 177)" fill-opacity="0.44"/><path d="M141,97L137,98L134,94Z" fill="rgb(185, 26, 17)" fill-opacity="0.43"/><path d="M166,158L180,155L174,145Z" fill="rgb(180, 200, 215)" fill-opacity="0.49"/></svg>