<svg xmlns="http://www.w3.org/2000/svg" viewBox="0 0 256 169.55844155844156" clip-path="url(#clip)" width="512" height="339.1168831168831"><defs><clipPath id="clip" clipPathUnits="objectBoundingBox"><rect x="0" y="0" width="256" height="169.55844155844156"/></clipPath></defs><rect x="0" y="0" width="256" height="169.55844155844156" fill="rgb(14, 1, 12)"/><path d="M212,87L143,40L130,121Z" fill="rgb(254, 118, 1)" fill-opacity="0.45"/><path d="M205,89L194,120L172,72Z" fill="rgb(191, 106, 0)" fill-opacity="0.54"/><path d="M162,21L194,25L162,32Z" fill="rgb(255, 20, 0)" fill-opacity="0.62"/><path d="M161,92L178,99L140,122Z" fill="rgb(251, 140, 0)" fill-opacity="0.38"/><path d="M192,51L202,73L160,46Z" fill="rgb(158, 81, 0)" fill-opacity="0.51"/><path d="M162,73L203,100L205,74Z" fill="rgb(197, 105, 0)" fill-opacity="0.50"/><path d="M164,90L160,73L133,86Z" fill="rgb(14, 0, 1)" fill-opacity="0.61"/><path d="M155,114L190,126L191,86Z" fill="rgb(74, 27, 0)" fill-opacity="0.74"/><path d="M105,69L108,59L113,67Z" fill="rgb(194, 99, 0)" fill-opacity="0.56"/><path d="M165,59L130,89L136,52Z" fill="rgb(154, 68, 5)" fill-opacity="0.52"/><path d="M21,183L25,144L95,151Z" fill="rgb(34, 23, 69)" fill-opacity="0.51"/><path d="M203,64L202,76L192,58Z" fill="rgb(242, 151, 0)" fill-opacity="0.54"/><path d="M133,107L124,127L141,116Z" fill="rgb(0, 0, 65)" fill-opacity="0.59"/><path d="M161,56L147,55L184,89Z" fill="rgb(251, 151, 0)" fill-opacity="0.44"/><path d="M155,44L133,60L136,62Z" fill="rgb(255, 216, 20)" fill-opacity="0.42"/><path d="M221,223L203,104L178,124Z" fill="rgb(14, 0, 5)" fill-opacity="0.92"/><path d="M202,74L181,77L147,23Z" fill="rgb(42, 8, 6)" fill-opacity="0.71"/><path d="M202,97L201,69L205,81Z" fill="rgb(255, 172, 0)" fill-opacity="0.57"/><path d="M127,51L172,-42L156,48Z" fill="rgb(17, 4, 24)" fill-opacity="0.90"/><path d="M184,88L150,112L187,75Z" fill="rgb(255, 161, 0)" fill-opacity="0.45"/><path d="M136,99L158,103L155,63Z" fill="rgb(67, 0, 10)" fill-opacity="0.52"/><path d="M160,57L138,61L171,71Z" fill="rgb(229, 136, 0)" fill-opacity="0.40"/><path d="M149,81L163,80L133,79Z" fill="rgb(194, 18, 0)" fill-opacity="0.56"/><path d="M129,57L138,50L121,53Z" fill="rgb(145, 42, 35)" fill-opacity="0.55"/><path d="M202,103L176,119L179,123Z" fill="rgb(221, 145, 0)" fill-opacity="0.59"/><path d="M186,82L177,69L169,67Z" fill="rgb(255, 151, 0)" fill-opacity="0.44"/><path d="M149,119L160,120L139,113Z" fill="rgb(251, 167, 5)" fill-opacity="0.54"/><path d="M158,134L181,94L201,96Z" fill="rgb(33, 2, 1)" fill-opacity="0.67"/><path d="M157,54L162,49L145,48Z" fill="rgb(163, 123, 175)" fill-opacity="0.51"/><path d="M151,19L161,61L198,68Z" fill="rgb(34, 6, 12)" fill-opacity="0.54"/><path d="M139,98L155,108L156,117Z" fill="rgb(246, 133, 0)" fill-opacity="0.35"/><path d="M169,40L191,55L199,66Z" fill="rgb(254, 175, 0)" fill-opacity="0.41"/><path d="M188,94L184,90L202,96Z" fill="rgb(203, 108, 0)" fill-opacity="0.53"/><path d="M26,98L24,65L50,73Z" fill="rgb(32, 18, 50)" fill-opacity="0.39"/><path d="M153,124L175,193L186,119Z" fill="rgb(14, 0, 5)" fill-opacity="0.76"/><path d="M147,75L159,65L128,65Z" fill="rgb(67, 5, 8)" fill-opacity="0.56"/><path d="M195,57L177,51L180,49Z" fill="rgb(233, 152, 0)" fill-opacity="0.58"/><path d="M180,120L194,111L170,121Z" fill="rgb(255, 178, 0)" fill-opacity="0.46"/><path d="M155,99L155,102L160,100Z" fill="rgb(255, 173, 0)" fill-opacity="0.58"/><path d="M181,25L209,85L323,103Z" fill="rgb(12, 0, 4)" fill-opacity="0.83"/><path d="M114,100L100,103L114,96Z" fill="rgb(149, 49, 6)" fill-opacity="0.48"/><path d="M123,57L131,56L128,51Z" fill="rgb(249, 96, 55)" fill-opacity="0.37"/><path d="M185,112L201,93L198,92Z" fill="rgb(24, 0, 0)" fill-opacity="0.58"/><path d="M181,84L173,79L137,91Z" fill="rgb(43, 0, 0)" fill-opacity="0.41"/><path d="M149,8L158,-35L152,33Z" fill="rgb(28, 18, 70)" fill-opacity="0.52"/><path d="M204,84L197,113L196,103Z" fill="rgb(192, 125, 0)" fill-opacity="0.54"/><path d="M135,81L179,83L124,90Z" fill="rgb(18, 0, 4)" fill-opacity="0.63"/><path d="M245,28L210,37L160,15Z" fill="rgb(68, 0, 0)" fill-opacity="0.35"/><path d="M166,60L151,54L181,41Z" fill="rgb(31, 2, 27)" fill-opacity="0.51"/><path d="M173,20L169,27L179,27Z" fill="rgb(255, 26, 0)" fill-opacity="0.53"/><path d="M141,97L108,87L141,107Z" fill="rgb(34, 0, 5)" fill-opacity="0.52"/><path d="M160,25L168,28L192,22Z" fill="rgb(255, 27, 0)" fill-opacity="0.54"/><path d="M192,69L182,71L201,65Z" fill="rgb(188, 78, 0)" fill-opacity="0.50"/><path d="M150,48L157,48L145,53Z" fill="rgb(255, 253, 53)" fill-opacity="0.51"/><path d="M166,72L174,74L146,74Z" fill="rgb(225, 120, 0)" fill-opacity="0.44"/><path d="M135,66L169,70L133,80Z" fill="rgb(106, 26, 6)" fill-opacity="0.65"/><path d="M179,76L181,78L158,83Z" fill="rgb(190, 88, 0)" fill-opacity="0.51"/><path d="M105,87L105,34L108,65Z" fill="rgb(16, 0, 13)" fill-opacity="0.70"/><path d="M175,103L170,78L167,98Z" fill="rgb(223, 125, 0)" fill-opacity="0.49"/><path d="M188,55L201,86L202,82Z" fill="rgb(21, 0, 0)" fill-opacity="0.51"/><path d="M182,51L189,76L152,53Z" fill="rgb(58, 13, 4)" fill-opacity="0.62"/><path d="M184,76L191,80L186,87Z" fill="rgb(104, 28, 1)" fill-opacity="0.52"/><path d="M159,52L150,51L163,49Z" fill="rgb(106, 78, 206)" fill-opacity="0.46"/><path d="M182,117L166,104L175,110Z" fill="rgb(156, 55, 3)" fill-opacity="0.54"/><path d="M137,106L132,102L136,110Z" fill="rgb(255, 228, 0)" fill-opacity="0.44"/><path d="M425,400L202,18L206,115Z" fill="rgb(11, 0, 5)" fill-opacity="0.87"/><path d="M149,113L175,106L161,126Z" fill="rgb(44, 4, 3)" fill-opacity="0.62"/><path d="M101,98L113,99L110,102Z" fill="rgb(169, 62, 19)" fill-opacity="0.48"/><path d="M136,48L132,23L199,49Z" fill="rgb(15, 0, 9)" fill-opacity="0.70"/><path d="M166,70L181,74L176,68Z" fill="rgb(237, 119, 0)" fill-opacity="0.42"/><path d="M197,102L196,95L202,86Z" fill="rgb(41, 0, 0)" fill-opacity="0.50"/><path d="M149,104L145,93L167,86Z" fill="rgb(90, 5, 28)" fill-opacity="0.46"/><path d="M178,72L186,82L182,93Z" fill="rgb(254, 188, 0)" fill-opacity="0.52"/><path d="M155,107L160,112L162,99Z" fill="rgb(227, 114, 0)" fill-opacity="0.41"/><path d="M109,62L113,64L109,70Z" fill="rgb(255, 130, 1)" fill-opacity="0.54"/><path d="M75,143L19,152L80,159Z" fill="rgb(30, 26, 72)" fill-opacity="0.41"/><path d="M164,107L173,125L170,100Z" fill="rgb(46, 5, 2)" fill-opacity="0.54"/><path d="M179,104L170,92L176,104Z" fill="rgb(168, 78, 1)" fill-opacity="0.50"/><path d="M126,79L97,69L84,122Z" fill="rgb(19, 0, 20)" fill-opacity="0.65"/><path d="M201,78L199,74L186,80Z" fill="rgb(47, 0, 0)" fill-opacity="0.42"/><path d="M139,56L148,47L112,46Z" fill="rgb(21, 0, 17)" fill-opacity="0.55"/><path d="M74,182L4,164L81,156Z" fill="rgb(23, 7, 26)" fill-opacity="0.76"/><path d="M196,77L197,74L184,78Z" fill="rgb(240, 128, 0)" fill-opacity="0.55"/><path d="M203,92L194,109L187,117Z" fill="rgb(255, 190, 0)" fill-opacity="0.50"/><path d="M113,114L134,109L163,131Z" fill="rgb(16, 0, 37)" fill-opacity="0.47"/><path d="M171,88L182,98L152,105Z" fill="rgb(190, 99, 0)" fill-opacity="0.52"/><path d="M128,102L142,111L151,121Z" fill="rgb(223, 168, 4)" fill-opacity="0.60"/><path d="M177,116L193,107L199,96Z" fill="rgb(26, 0, 0)" fill-opacity="0.53"/><path d="M199,82L184,93L196,93Z" fill="rgb(243, 116, 2)" fill-opacity="0.54"/><path d="M104,66L119,86L154,88Z" fill="rgb(28, 0, 10)" fill-opacity="0.60"/><path d="M152,107L156,107L152,108Z" fill="rgb(255, 235, 0)" fill-opacity="0.50"/><path d="M163,19L153,38L144,-10Z" fill="rgb(20, 13, 50)" fill-opacity="0.42"/><path d="M183,92L187,87L179,84Z" fill="rgb(255, 181, 0)" fill-opacity="0.51"/><path d="M157,93L160,99L136,98Z" fill="rgb(76, 16, 28)" fill-opacity="0.59"/><path d="M194,111L201,99L181,119Z" fill="rgb(254, 174, 0)" fill-opacity="0.52"/><path d="M210,109L207,94L179,130Z" fill="rgb(23, 0, 1)" fill-opacity="0.69"/><path d="M155,94L146,87L130,89Z" fill="rgb(144, 25, 3)" fill-opacity="0.51"/><path d="M95,48L126,53L90,72Z" fill="rgb(19, 0, 4)" fill-opacity="0.71"/><path d="M165,61L164,65L148,53Z" fill="rgb(231, 133, 7)" fill-opacity="0.54"/><path d="M194,102L173,91L193,95Z" fill="rgb(15, 0, 0)" fill-opacity="0.55"/><path d="M95,25L113,27L98,58Z" fill="rgb(20, 10, 38)" fill-opacity="0.47"/><path d="M170,102L181,100L171,107Z" fill="rgb(27, 0, 1)" fill-opacity="0.49"/><path d="M153,63L142,64L145,65Z" fill="rgb(254, 182, 0)" fill-opacity="0.55"/><path d="M175,77L173,89L170,83Z" fill="rgb(12, 0, 0)" fill-opacity="0.51"/><path d="M161,107L148,102L158,104Z" fill="rgb(255, 182, 0)" fill-opacity="0.54"/><path d="M160,64L172,67L149,65Z" fill="rgb(139, 60, 0)" fill-opacity="0.52"/><path d="M196,63L201,67L204,84Z" fill="rgb(240, 160, 0)" fill-opacity="0.61"/><path d="M41,130L20,159L-43,128Z" fill="rgb(16, 1, 16)" fill-opacity="0.83"/><path d="M153,2L155,7L144,13Z" fill="rgb(36, 19, 74)" fill-opacity="0.50"/><path d="M166,83L167,92L155,94Z" fill="rgb(83, 0, 0)" fill-opacity="0.46"/><path d="M165,65L161,62L150,64Z" fill="rgb(248, 171, 0)" fill-opacity="0.46"/><path d="M204,92L203,71L201,74Z" fill="rgb(252, 174, 0)" fill-opacity="0.50"/><path d="M117,69L105,143L140,63Z" fill="rgb(22, 0, 7)" fill-opacity="0.51"/><path d="M4,97L-114,132L7,14Z" fill="rgb(16, 10, 31)" fill-opacity="0.65"/><path d="M276,120L174,41L236,32Z" fill="rgb(11, 0, 6)" fill-opacity="0.79"/><path d="M177,105L186,107L186,110Z" fill="rgb(117, 42, 3)" fill-opacity="0.59"/><path d="M69,87L55,91L69,64Z" fill="rgb(18, 10, 28)" fill-opacity="0.61"/><path d="M173,74L171,64L171,74Z" fill="rgb(217, 151, 0)" fill-opacity="0.49"/><path d="M160,89L132,92L133,87Z" fill="rgb(165, 14, 0)" fill-opacity="0.33"/><path d="M149,77L141,79L146,81Z" fill="rgb(250, 92, 1)" fill-opacity="0.47"/><path d="M174,27L164,36L188,26Z" fill="rgb(68, 0, 0)" fill-opacity="0.54"/><path d="M164,174L122,166L147,156Z" fill="rgb(34, 0, 13)" fill-opacity="0.56"/><path d="M123,119L123,111L120,117Z" fill="rgb(7, 5, 77)" fill-opacity="0.50"/><path d="M113,100L110,101L102,100Z" fill="rgb(174, 73, 0)" fill-opacity="0.50"/><path d="M178,71L178,66L196,65Z" fill="rgb(13, 0, 0)" fill-opacity="0.62"/><path d="M194,56L188,62L166,73Z" fill="rgb(181, 82, 0)" fill-opacity="0.42"/><path d="M126,121L142,116L130,105Z" fill="rgb(15, 0, 53)" fill-opacity="0.50"/><path d="M164,55L194,61L183,53Z" fill="rgb(45, 5, 2)" fill-opacity="0.50"/><path d="M29,146L24,157L70,150Z" fill="rgb(29, 28, 74)" fill-opacity="0.41"/><path d="M185,83L186,82L193,99Z" fill="rgb(83, 19, 2)" fill-opacity="0.43"/><path d="M153,119L143,117L147,115Z" fill="rgb(255, 188, 0)" fill-opacity="0.48"/><path d="M177,120L138,133L155,119Z" fill="rgb(20, 1, 20)" fill-opacity="0.55"/><path d="M52,88L46,48L41,90Z" fill="rgb(23, 0, 6)" fill-opacity="0.74"/><path d="M89,131L146,118L124,185Z" fill="rgb(14, 0, 8)" fill-opacity="0.81"/><path d="M150,81L141,75L130,58Z" fill="rgb(133, 38, 17)" fill-opacity="0.49"/><path d="M130,107L152,120L139,110Z" fill="rgb(230, 180, 14)" fill-opacity="0.46"/><path d="M103,32L109,44L92,42Z" fill="rgb(19, 11, 39)" fill-opacity="0.54"/><path d="M200,91L198,81L191,83Z" fill="rgb(243, 112, 2)" fill-opacity="0.50"/><path d="M123,93L129,113L135,97Z" fill="rgb(19, 0, 1)" fill-opacity="0.49"/><path d="M163,98L166,95L159,98Z" fill="rgb(22, 0, 6)" fill-opacity="0.51"/><path d="M148,57L143,55L137,64Z" fill="rgb(49, 0, 23)" fill-opacity="0.50"/><path d="M164,51L167,50L160,61Z" fill="rgb(162, 67, 13)" fill-opacity="0.56"/><path d="M153,51L146,54L162,56Z" fill="rgb(43, 0, 84)" fill-opacity="0.42"/><path d="M191,105L194,102L185,100Z" fill="rgb(123, 44, 2)" fill-opacity="0.50"/><path d="M243,-42L186,22L240,38Z" fill="rgb(26, 0, 0)" fill-opacity="0.34"/><path d="M127,64L146,62L114,78Z" fill="rgb(29, 0, 16)" fill-opacity="0.59"/><path d="M144,114L145,118L131,103Z" fill="rgb(255, 224, 8)" fill-opacity="0.39"/><path d="M131,77L115,101L109,97Z" fill="rgb(28, 3, 21)" fill-opacity="0.63"/><path d="M135,55L152,47L122,41Z" fill="rgb(21, 2, 22)" fill-opacity="0.58"/><path d="M161,122L132,100L140,110Z" fill="rgb(57, 1, 8)" fill-opacity="0.56"/><path d="M133,64L148,49L139,55Z" fill="rgb(255, 184, 9)" fill-opacity="0.52"/><path d="M137,99L167,98L133,89Z" fill="rgb(97, 25, 11)" fill-opacity="0.55"/><path d="M208,22L157,36L172,28Z" fill="rgb(73, 0, 0)" fill-opacity="0.45"/><path d="M77,91L33,120L23,89Z" fill="rgb(13, 0, 8)" fill-opacity="0.85"/><path d="M175,50L166,64L168,54Z" fill="rgb(97, 34, 5)" fill-opacity="0.46"/><path d="M157,81L120,83L162,86Z" fill="rgb(3, 1, 11)" fill-opacity="0.44"/><path d="M174,102L170,100L177,97Z" fill="rgb(255, 174, 2)" fill-opacity="0.52"/><path d="M149,80L150,74L133,80Z" fill="rgb(202, 63, 3)" fill-opacity="0.38"/><path d="M179,26L182,45L166,57Z" fill="rgb(15, 0, 2)" fill-opacity="0.50"/><path d="M43,85L27,86L26,67Z" fill="rgb(25, 15, 47)" fill-opacity="0.56"/><path d="M164,21L176,29L161,27Z" fill="rgb(255, 34, 0)" fill-opacity="0.51"/><path d="M162,75L167,80L151,79Z" fill="rgb(59, 0, 0)" fill-opacity="0.53"/><path d="M149,62L149,66L159,60Z" fill="rgb(111, 36, 2)" fill-opacity="0.52"/><path d="M135,99L131,91L151,90Z" fill="rgb(107, 33, 0)" fill-opacity="0.39"/><path d="M174,75L173,78L183,78Z" fill="rgb(230, 132, 2)" fill-opacity="0.53"/><path d="M155,57L159,50L158,62Z" fill="rgb(170, 76, 18)" fill-opacity="0.50"/><path d="M132,97L120,102L134,113Z" fill="rgb(20, 0, 6)" fill-opacity="0.77"/><path d="M162,83L155,80L170,75Z" fill="rgb(109, 11, 0)" fill-opacity="0.51"/><path d="M156,95L167,81L169,90Z" fill="rgb(87, 9, 4)" fill-opacity="0.53"/><path d="M195,21L149,19L169,23Z" fill="rgb(45, 1, 4)" fill-opacity="0.53"/><path d="M170,95L167,104L163,137Z" fill="rgb(42, 7, 4)" fill-opacity="0.63"/><path d="M126,56L119,81L106,42Z" fill="rgb(18, 0, 4)" fill-opacity="0.55"/><path d="M154,108L146,102L140,107Z" fill="rgb(220, 120, 0)" fill-opacity="0.47"/><path d="M163,67L171,80L161,56Z" fill="rgb(222, 117, 0)" fill-opacity="0.48"/><path d="M157,82L169,78L153,70Z" fill="rgb(82, 12, 0)" fill-opacity="0.65"/><path d="M178,49L189,51L194,60Z" fill="rgb(253, 170, 0)" fill-opacity="0.43"/><path d="M140,62L142,60L164,59Z" fill="rgb(241, 147, 1)" fill-opacity="0.61"/><path d="M127,136L226,214L223,107Z" fill="rgb(13, 0, 7)" fill-opacity="0.63"/><path d="M183,71L189,68L175,85Z" fill="rgb(99, 29, 0)" fill-opacity="0.44"/><path d="M100,70L84,78L121,66Z" fill="rgb(38, 15, 30)" fill-opacity="0.48"/><path d="M184,54L167,68L171,62Z" fill="rgb(140, 54, 1)" fill-opacity="0.61"/><path d="M231,84L201,101L205,89Z" fill="rgb(22, 0, 2)" fill-opacity="0.61"/><path d="M193,61L196,60L187,52Z" fill="rgb(246, 172, 0)" fill-opacity="0.59"/><path d="M172,107L173,101L187,113Z" fill="rgb(17, 0, 3)" fill-opacity="0.54"/><path d="M211,11L182,48L206,66Z" fill="rgb(22, 0, 5)" fill-opacity="0.52"/><path d="M201,93L194,107L202,81Z" fill="rgb(74, 4, 1)" fill-opacity="0.46"/><path d="M166,96L188,81L159,95Z" fill="rgb(217, 124, 1)" fill-opacity="0.57"/><path d="M199,71L180,78L182,72Z" fill="rgb(18, 0, 0)" fill-opacity="0.48"/><path d="M156,88L131,88L172,84Z" fill="rgb(15, 0, 3)" fill-opacity="0.54"/><path d="M167,23L181,27L192,23Z" fill="rgb(224, 14, 0)" fill-opacity="0.43"/><path d="M187,91L173,96L187,90Z" fill="rgb(167, 73, 1)" fill-opacity="0.51"/><path d="M179,116L187,113L182,107Z" fill="rgb(23, 0, 2)" fill-opacity="0.52"/><path d="M155,86L159,98L147,104Z" fill="rgb(75, 13, 25)" fill-opacity="0.51"/><path d="M58,132L85,126L72,152Z" fill="rgb(13, 5, 21)" fill-opacity="0.53"/><path d="M49,100L69,69L51,62Z" fill="rgb(18, 5, 21)" fill-opacity="0.49"/><path d="M134,74L137,65L134,93Z" fill="rgb(137, 40, 15)" fill-opacity="0.42"/><path d="M66,106L95,93L94,113Z" fill="rgb(9, 0, 24)" fill-opacity="0.42"/><path d="M187,101L172,95L178,94Z" fill="rgb(163, 64, 3)" fill-opacity="0.51"/><path d="M168,97L167,94L175,85Z" fill="rgb(115, 34, 1)" fill-opacity="0.48"/><path d="M176,53L166,63L173,61Z" fill="rgb(0, 0, 5)" fill-opacity="0.51"/></svg>