<svg xmlns="http://www.w3.org/2000/svg" viewBox="0 0 256 169.55844155844156" clip-path="url(#clip)" width="512" height="339.1168831168831"><defs><clipPath id="clip" clipPathUnits="objectBoundingBox"><rect x="0" y="0" width="256" height="169.55844155844156"/></clipPath></defs><rect x="0" y="0" width="256" height="169.55844155844156" fill="rgb(108, 117, 108)"/><path d="M159,65L58,186L66,110Z" fill="rgb(3, 0, 8)" fill-opacity="0.61"/><path d="M-41,186L4,63L92,228Z" fill="rgb(194, 237, 255)" fill-opacity="0.89"/><path d="M192,63L245,83L175,155Z" fill="rgb(199, 243, 255)" fill-opacity="0.54"/><path d="M234,-115L228,53L54,71Z" fill="rgb(21, 22, 21)" fill-opacity="0.63"/><path d="M120,162L225,87L150,93Z" fill="rgb(201, 240, 232)" fill-opacity="0.49"/><path d="M89,145L85,184L118,127Z" fill="rgb(234, 248, 251)" fill-opacity="0.50"/><path d="M109,35L99,-70L31,29Z" fill="rgb(47, 55, 20)" fill-opacity="0.67"/><path d="M58,76L83,107L40,77Z" fill="rgb(68, 79, 54)" fill-opacity="0.73"/><path d="M37,73L31,99L55,118Z" fill="rgb(179, 235, 255)" fill-opacity="0.62"/><path d="M170,117L160,114L165,135Z" fill="rgb(53, 62, 38)" fill-opacity="0.52"/><path d="M180,52L201,103L129,50Z" fill="rgb(152, 186, 186)" fill-opacity="0.61"/><path d="M69,115L58,149L58,128Z" fill="rgb(255, 218, 176)" fill-opacity="0.57"/><path d="M97,77L51,163L74,225Z" fill="rgb(15, 11, 20)" fill-opacity="0.57"/><path d="M128,45L146,108L116,93Z" fill="rgb(0, 0, 7)" fill-opacity="0.60"/><path d="M-2,42L24,92L-22,93Z" fill="rgb(107, 154, 173)" fill-opacity="0.76"/><path d="M133,17L175,25L152,1Z" fill="rgb(168, 184, 141)" fill-opacity="0.50"/><path d="M35,-49L-41,64L25,39Z" fill="rgb(13, 37, 29)" fill-opacity="0.58"/><path d="M11,16L15,30L26,21Z" fill="rgb(149, 206, 249)" fill-opacity="0.55"/><path d="M220,49L252,57L244,39Z" fill="rgb(152, 208, 229)" fill-opacity="0.59"/><path d="M107,130L124,111L110,95Z" fill="rgb(214, 217, 178)" fill-opacity="0.45"/><path d="M103,145L111,123L120,163Z" fill="rgb(255, 253, 227)" fill-opacity="0.59"/><path d="M162,81L172,93L173,63Z" fill="rgb(194, 255, 255)" fill-opacity="0.51"/><path d="M85,106L32,99L67,122Z" fill="rgb(170, 218, 255)" fill-opacity="0.31"/><path d="M94,144L81,152L102,163Z" fill="rgb(216, 255, 255)" fill-opacity="0.53"/><path d="M218,96L261,92L232,78Z" fill="rgb(19, 58, 49)" fill-opacity="0.30"/><path d="M2,33L21,59L22,46Z" fill="rgb(88, 153, 209)" fill-opacity="0.50"/><path d="M151,32L168,62L176,28Z" fill="rgb(113, 113, 91)" fill-opacity="0.55"/><path d="M244,76L208,58L253,45Z" fill="rgb(144, 200, 208)" fill-opacity="0.43"/><path d="M73,62L160,81L154,99Z" fill="rgb(26, 23, 21)" fill-opacity="0.49"/><path d="M174,126L184,98L206,74Z" fill="rgb(74, 47, 0)" fill-opacity="0.54"/><path d="M136,149L160,136L144,97Z" fill="rgb(197, 234, 243)" fill-opacity="0.57"/><path d="M-1,71L73,10L54,67Z" fill="rgb(37, 57, 35)" fill-opacity="0.48"/><path d="M117,91L121,47L100,60Z" fill="rgb(129, 151, 145)" fill-opacity="0.47"/><path d="M85,70L107,120L119,72Z" fill="rgb(87, 93, 86)" fill-opacity="0.70"/><path d="M204,119L235,72L182,118Z" fill="rgb(206, 253, 255)" fill-opacity="0.59"/><path d="M169,46L207,69L239,-49Z" fill="rgb(0, 0, 6)" fill-opacity="0.68"/><path d="M149,53L121,108L153,97Z" fill="rgb(31, 23, 23)" fill-opacity="0.56"/><path d="M29,101L32,122L13,77Z" fill="rgb(174, 230, 252)" fill-opacity="0.55"/><path d="M108,93L120,124L119,163Z" fill="rgb(75, 52, 0)" fill-opacity="0.50"/><path d="M29,81L19,74L35,74Z" fill="rgb(169, 230, 250)" fill-opacity="0.55"/><path d="M268,150L247,72L173,161Z" fill="rgb(245, 219, 251)" fill-opacity="0.18"/><path d="M136,44L134,63L147,56Z" fill="rgb(205, 193, 182)" fill-opacity="0.56"/><path d="M104,106L98,126L104,177Z" fill="rgb(19, 8, 7)" fill-opacity="0.55"/><path d="M90,17L79,56L61,33Z" fill="rgb(121, 134, 149)" fill-opacity="0.51"/><path d="M52,173L56,145L54,133Z" fill="rgb(14, 1, 19)" fill-opacity="0.54"/><path d="M120,20L150,54L163,44Z" fill="rgb(4, 5, 11)" fill-opacity="0.54"/><path d="M52,142L52,163L40,128Z" fill="rgb(199, 235, 255)" fill-opacity="0.69"/><path d="M224,73L192,101L220,50Z" fill="rgb(170, 230, 255)" fill-opacity="0.49"/><path d="M63,108L67,99L52,104Z" fill="rgb(163, 226, 255)" fill-opacity="0.50"/><path d="M198,77L214,54L200,84Z" fill="rgb(89, 69, 13)" fill-opacity="0.64"/><path d="M169,10L188,-26L191,63Z" fill="rgb(4, 9, 21)" fill-opacity="0.69"/><path d="M38,32L36,47L23,33Z" fill="rgb(103, 179, 253)" fill-opacity="0.52"/><path d="M15,67L18,53L27,77Z" fill="rgb(117, 170, 205)" fill-opacity="0.51"/><path d="M184,18L126,-3L154,16Z" fill="rgb(67, 78, 16)" fill-opacity="0.58"/><path d="M71,166L103,187L113,159Z" fill="rgb(44, 13, 10)" fill-opacity="0.49"/><path d="M91,142L99,138L99,166Z" fill="rgb(220, 255, 255)" fill-opacity="0.57"/><path d="M236,89L262,87L250,100Z" fill="rgb(72, 93, 47)" fill-opacity="0.54"/><path d="M140,146L128,207L224,108Z" fill="rgb(143, 139, 133)" fill-opacity="0.88"/><path d="M136,110L138,83L111,101Z" fill="rgb(3, 2, 3)" fill-opacity="0.55"/><path d="M164,103L132,126L176,82Z" fill="rgb(88, 118, 89)" fill-opacity="0.48"/><path d="M164,81L173,45L191,82Z" fill="rgb(159, 207, 211)" fill-opacity="0.51"/><path d="M140,75L141,59L150,60Z" fill="rgb(13, 7, 10)" fill-opacity="0.51"/><path d="M183,68L193,62L209,66Z" fill="rgb(170, 232, 255)" fill-opacity="0.55"/><path d="M80,93L68,57L77,39Z" fill="rgb(36, 41, 31)" fill-opacity="0.62"/><path d="M124,27L97,12L142,-11Z" fill="rgb(74, 108, 122)" fill-opacity="0.58"/><path d="M202,75L187,83L189,59Z" fill="rgb(163, 223, 250)" fill-opacity="0.56"/><path d="M246,21L310,1L239,-12Z" fill="rgb(59, 72, 6)" fill-opacity="0.67"/><path d="M53,91L35,99L40,81Z" fill="rgb(167, 230, 255)" fill-opacity="0.54"/><path d="M138,62L140,78L132,87Z" fill="rgb(208, 184, 153)" fill-opacity="0.35"/><path d="M109,-4L123,25L92,49Z" fill="rgb(85, 100, 77)" fill-opacity="0.49"/><path d="M122,161L117,112L137,156Z" fill="rgb(174, 154, 105)" fill-opacity="0.70"/><path d="M204,86L233,69L231,81Z" fill="rgb(49, 96, 123)" fill-opacity="0.38"/><path d="M82,93L94,47L104,63Z" fill="rgb(5, 10, 26)" fill-opacity="0.51"/><path d="M35,136L44,128L31,126Z" fill="rgb(99, 138, 152)" fill-opacity="0.54"/><path d="M24,7L42,47L47,-3Z" fill="rgb(19, 42, 47)" fill-opacity="0.38"/><path d="M1,66L-1,61L15,78Z" fill="rgb(14, 6, 0)" fill-opacity="0.54"/><path d="M131,17L137,13L171,20Z" fill="rgb(227, 230, 253)" fill-opacity="0.47"/><path d="M136,28L124,39L163,58Z" fill="rgb(0, 0, 9)" fill-opacity="0.43"/><path d="M63,100L68,105L64,93Z" fill="rgb(12, 10, 0)" fill-opacity="0.50"/><path d="M26,12L41,16L47,8Z" fill="rgb(96, 145, 181)" fill-opacity="0.50"/><path d="M14,82L4,93L5,81Z" fill="rgb(73, 99, 97)" fill-opacity="0.59"/><path d="M116,30L108,35L126,47Z" fill="rgb(87, 97, 106)" fill-opacity="0.59"/><path d="M67,104L51,115L53,128Z" fill="rgb(156, 211, 243)" fill-opacity="0.46"/><path d="M253,68L238,74L231,63Z" fill="rgb(156, 207, 248)" fill-opacity="0.49"/><path d="M19,52L48,55L26,44Z" fill="rgb(95, 152, 195)" fill-opacity="0.55"/><path d="M131,112L143,106L123,154Z" fill="rgb(65, 31, 0)" fill-opacity="0.42"/><path d="M113,109L117,102L124,117Z" fill="rgb(196, 214, 184)" fill-opacity="0.48"/><path d="M17,35L20,24L-30,39Z" fill="rgb(48, 54, 23)" fill-opacity="0.57"/><path d="M139,38L121,74L120,44Z" fill="rgb(0, 2, 16)" fill-opacity="0.56"/><path d="M227,11L250,34L226,46Z" fill="rgb(68, 49, 37)" fill-opacity="0.48"/><path d="M170,133L169,56L177,121Z" fill="rgb(174, 223, 253)" fill-opacity="0.53"/><path d="M110,62L126,63L101,57Z" fill="rgb(188, 186, 184)" fill-opacity="0.49"/><path d="M81,154L87,162L106,159Z" fill="rgb(204, 229, 252)" fill-opacity="0.40"/><path d="M13,78L0,68L-35,99Z" fill="rgb(160, 224, 255)" fill-opacity="0.77"/><path d="M230,66L229,85L218,29Z" fill="rgb(79, 88, 48)" fill-opacity="0.47"/><path d="M172,131L155,137L165,111Z" fill="rgb(72, 83, 47)" fill-opacity="0.39"/><path d="M204,-18L180,63L227,37Z" fill="rgb(10, 9, 13)" fill-opacity="0.61"/><path d="M202,76L196,82L189,100Z" fill="rgb(43, 37, 1)" fill-opacity="0.59"/><path d="M10,67L-21,51L7,57Z" fill="rgb(160, 231, 255)" fill-opacity="0.56"/><path d="M42,93L25,80L49,89Z" fill="rgb(174, 222, 232)" fill-opacity="0.56"/><path d="M85,10L74,34L60,-17Z" fill="rgb(32, 30, 0)" fill-opacity="0.50"/><path d="M183,119L175,135L181,97Z" fill="rgb(72, 56, 5)" fill-opacity="0.49"/><path d="M175,246L268,161L209,147Z" fill="rgb(145, 119, 76)" fill-opacity="0.77"/><path d="M70,124L74,103L58,124Z" fill="rgb(73, 54, 49)" fill-opacity="0.67"/><path d="M52,94L61,89L64,115Z" fill="rgb(147, 196, 210)" fill-opacity="0.55"/><path d="M106,146L109,115L115,138Z" fill="rgb(244, 246, 230)" fill-opacity="0.56"/><path d="M61,145L63,165L62,135Z" fill="rgb(226, 166, 119)" fill-opacity="0.46"/><path d="M168,68L134,59L156,95Z" fill="rgb(94, 84, 71)" fill-opacity="0.44"/><path d="M177,61L166,68L182,65Z" fill="rgb(95, 69, 3)" fill-opacity="0.49"/><path d="M187,-4L193,18L199,-14Z" fill="rgb(188, 168, 143)" fill-opacity="0.47"/><path d="M4,12L14,25L-57,56Z" fill="rgb(24, 31, 0)" fill-opacity="0.65"/><path d="M80,30L69,11L84,27Z" fill="rgb(26, 31, 10)" fill-opacity="0.54"/><path d="M60,135L55,139L63,147Z" fill="rgb(255, 238, 208)" fill-opacity="0.53"/><path d="M115,89L122,81L111,83Z" fill="rgb(215, 255, 255)" fill-opacity="0.49"/><path d="M70,18L62,39L31,20Z" fill="rgb(53, 59, 25)" fill-opacity="0.65"/><path d="M159,27L180,46L153,65Z" fill="rgb(97, 98, 88)" fill-opacity="0.43"/><path d="M118,71L106,116L122,71Z" fill="rgb(152, 194, 224)" fill-opacity="0.37"/><path d="M33,98L38,124L13,63Z" fill="rgb(74, 57, 4)" fill-opacity="0.47"/><path d="M169,18L170,-3L156,8Z" fill="rgb(140, 142, 20)" fill-opacity="0.40"/><path d="M82,92L92,92L81,103Z" fill="rgb(126, 167, 194)" fill-opacity="0.52"/><path d="M242,-52L243,27L213,0Z" fill="rgb(147, 131, 123)" fill-opacity="0.41"/><path d="M132,132L157,140L136,142Z" fill="rgb(241, 255, 255)" fill-opacity="0.44"/><path d="M164,83L174,65L177,80Z" fill="rgb(177, 231, 255)" fill-opacity="0.60"/><path d="M59,56L60,68L46,45Z" fill="rgb(164, 141, 62)" fill-opacity="0.52"/><path d="M188,100L227,79L182,128Z" fill="rgb(195, 235, 255)" fill-opacity="0.73"/><path d="M100,151L111,148L118,212Z" fill="rgb(129, 78, 34)" fill-opacity="0.51"/><path d="M-33,135L46,234L50,137Z" fill="rgb(216, 246, 255)" fill-opacity="0.74"/><path d="M208,159L209,165L199,164Z" fill="rgb(29, 15, 4)" fill-opacity="0.46"/><path d="M114,18L92,10L124,6Z" fill="rgb(93, 129, 146)" fill-opacity="0.43"/><path d="M10,52L11,28L-5,59Z" fill="rgb(27, 17, 0)" fill-opacity="0.32"/><path d="M56,38L37,63L45,78Z" fill="rgb(60, 71, 43)" fill-opacity="0.57"/><path d="M79,70L60,66L53,88Z" fill="rgb(72, 85, 44)" fill-opacity="0.55"/><path d="M168,111L151,94L145,113Z" fill="rgb(121, 155, 143)" fill-opacity="0.49"/><path d="M118,42L116,38L131,42Z" fill="rgb(193, 187, 171)" fill-opacity="0.45"/><path d="M84,35L93,49L60,35Z" fill="rgb(236, 232, 225)" fill-opacity="0.21"/><path d="M82,25L90,22L82,18Z" fill="rgb(164, 241, 255)" fill-opacity="0.50"/><path d="M73,90L74,71L68,88Z" fill="rgb(154, 209, 218)" fill-opacity="0.60"/><path d="M72,95L60,98L83,99Z" fill="rgb(118, 143, 158)" fill-opacity="0.49"/><path d="M27,17L32,26L17,22Z" fill="rgb(130, 200, 255)" fill-opacity="0.53"/><path d="M25,84L43,116L20,88Z" fill="rgb(65, 52, 2)" fill-opacity="0.47"/><path d="M159,53L169,58L175,55Z" fill="rgb(70, 62, 2)" fill-opacity="0.47"/><path d="M98,78L99,73L110,78Z" fill="rgb(219, 233, 243)" fill-opacity="0.51"/><path d="M210,75L224,70L235,57Z" fill="rgb(91, 132, 158)" fill-opacity="0.54"/><path d="M251,84L250,79L232,82Z" fill="rgb(120, 191, 254)" fill-opacity="0.48"/><path d="M180,54L174,71L191,53Z" fill="rgb(60, 72, 14)" fill-opacity="0.43"/><path d="M63,178L63,136L44,200Z" fill="rgb(141, 90, 63)" fill-opacity="0.52"/><path d="M213,111L177,129L221,87Z" fill="rgb(200, 237, 255)" fill-opacity="0.73"/><path d="M125,138L123,118L120,141Z" fill="rgb(219, 255, 255)" fill-opacity="0.48"/><path d="M108,131L97,90L85,147Z" fill="rgb(12, 13, 21)" fill-opacity="0.54"/><path d="M11,47L13,40L32,56Z" fill="rgb(133, 199, 246)" fill-opacity="0.55"/><path d="M51,55L71,73L66,101Z" fill="rgb(85, 88, 45)" fill-opacity="0.69"/><path d="M153,54L157,64L138,55Z" fill="rgb(168, 178, 193)" fill-opacity="0.57"/><path d="M42,64L57,71L56,77Z" fill="rgb(152, 211, 252)" fill-opacity="0.47"/><path d="M155,24L164,40L174,27Z" fill="rgb(86, 97, 15)" fill-opacity="0.54"/><path d="M85,77L83,59L86,71Z" fill="rgb(120, 187, 244)" fill-opacity="0.49"/><path d="M84,80L73,95L80,93Z" fill="rgb(99, 153, 226)" fill-opacity="0.52"/><path d="M87,116L90,167L92,140Z" fill="rgb(5, 24, 52)" fill-opacity="0.37"/><path d="M68,44L58,39L71,65Z" fill="rgb(13, 35, 58)" fill-opacity="0.48"/><path d="M39,111L36,114L47,127Z" fill="rgb(154, 215, 255)" fill-opacity="0.50"/><path d="M186,60L210,67L169,41Z" fill="rgb(21, 24, 29)" fill-opacity="0.59"/><path d="M258,51L236,60L259,73Z" fill="rgb(89, 107, 84)" fill-opacity="0.62"/><path d="M60,7L68,17L46,8Z" fill="rgb(162, 158, 89)" fill-opacity="0.47"/><path d="M150,97L153,99L159,93Z" fill="rgb(191, 242, 255)" fill-opacity="0.48"/><path d="M241,6L246,27L261,7Z" fill="rgb(64, 72, 28)" fill-opacity="0.55"/><path d="M120,67L120,80L117,72Z" fill="rgb(168, 227, 254)" fill-opacity="0.50"/><path d="M166,124L147,129L162,114Z" fill="rgb(162, 197, 200)" fill-opacity="0.50"/><path d="M230,93L249,95L205,117Z" fill="rgb(119, 203, 252)" fill-opacity="0.33"/><path d="M127,120L124,117L123,144Z" fill="rgb(188, 242, 246)" fill-opacity="0.44"/><path d="M27,45L36,27L29,24Z" fill="rgb(93, 170, 254)" fill-opacity="0.42"/><path d="M178,98L178,119L164,110Z" fill="rgb(198, 240, 255)" fill-opacity="0.48"/><path d="M80,105L80,92L72,105Z" fill="rgb(33, 31, 36)" fill-opacity="0.61"/><path d="M165,95L175,108L184,110Z" fill="rgb(99, 123, 93)" fill-opacity="0.44"/><path d="M49,119L29,97L58,140Z" fill="rgb(56, 41, 6)" fill-opacity="0.47"/><path d="M154,122L161,117L141,122Z" fill="rgb(115, 147, 119)" fill-opacity="0.52"/><path d="M139,138L129,153L163,129Z" fill="rgb(212, 239, 251)" fill-opacity="0.41"/><path d="M131,104L125,142L132,132Z" fill="rgb(46, 42, 4)" fill-opacity="0.56"/><path d="M46,72L43,87L63,85Z" fill="rgb(45, 54, 24)" fill-opacity="0.50"/><path d="M31,73L25,65L45,66Z" fill="rgb(136, 148, 99)" fill-opacity="0.54"/><path d="M48,66L-9,42L24,52Z" fill="rgb(30, 43, 38)" fill-opacity="0.46"/><path d="M162,30L146,34L169,43Z" fill="rgb(145, 126, 94)" fill-opacity="0.54"/><path d="M152,69L166,53L164,69Z" fill="rgb(164, 197, 200)" fill-opacity="0.41"/><path d="M57,128L55,160L50,128Z" fill="rgb(41, 4, 23)" fill-opacity="0.37"/><path d="M243,37L260,34L226,54Z" fill="rgb(151, 192, 192)" fill-opacity="0.47"/><path d="M80,86L80,72L88,81Z" fill="rgb(129, 174, 211)" fill-opacity="0.50"/><path d="M238,32L240,25L264,27Z" fill="rgb(136, 155, 164)" fill-opacity="0.57"/><path d="M154,122L144,133L135,121Z" fill="rgb(211, 246, 255)" fill-opacity="0.56"/><path d="M18,41L24,53L28,12Z" fill="rgb(18, 44, 42)" fill-opacity="0.31"/><path d="M28,136L18,128L18,141Z" fill="rgb(94, 130, 145)" fill-opacity="0.44"/><path d="M52,50L48,47L58,63Z" fill="rgb(190, 169, 114)" fill-opacity="0.48"/><path d="M139,70L139,48L132,58Z" fill="rgb(173, 167, 155)" fill-opacity="0.51"/><path d="M45,93L44,100L51,102Z" fill="rgb(67, 83, 59)" fill-opacity="0.59"/><path d="M181,101L196,87L184,105Z" fill="rgb(54, 52, 23)" fill-opacity="0.57"/><path d="M142,27L133,25L151,25Z" fill="rgb(197, 192, 174)" fill-opacity="0.52"/><path d="M99,78L105,87L121,79Z" fill="rgb(45, 38, 11)" fill-opacity="0.60"/><path d="M93,66L123,65L92,60Z" fill="rgb(39, 35, 31)" fill-opacity="0.45"/><path d="M87,107L83,94L76,118Z" fill="rgb(72, 73, 69)" fill-opacity="0.50"/><path d="M232,100L240,83L231,92Z" fill="rgb(180, 241, 255)" fill-opacity="0.49"/><path d="M116,59L105,59L100,63Z" fill="rgb(214, 200, 183)" fill-opacity="0.52"/><path d="M172,155L209,177L156,205Z" fill="rgb(147, 113, 61)" fill-opacity="0.59"/><path d="M116,142L110,139L115,162Z" fill="rgb(207, 244, 255)" fill-opacity="0.55"/></svg>