<svg xmlns="http://www.w3.org/2000/svg" viewBox="0 0 256 169.55844155844156" clip-path="url(#clip)" width="512" height="339.1168831168831"><defs><clipPath id="clip" clipPathUnits="objectBoundingBox"><rect x="0" y="0" width="256" height="169.55844155844156"/></clipPath></defs><rect x="0" y="0" width="256" height="169.55844155844156" fill="rgb(51, 38, 37)"/><path d="M216,47L143,37L146,-111Z" fill="rgb(197, 211, 222)" fill-opacity="0.97"/><path d="M82,94L106,55L217,80Z" fill="rgb(249, 68, 69)" fill-opacity="0.68"/><path d="M48,159L116,148L35,138Z" fill="rgb(149, 108, 97)" fill-opacity="0.53"/><path d="M181,55L140,62L197,76Z" fill="rgb(241, 82, 109)" fill-opacity="0.59"/><path d="M61,49L34,64L69,76Z" fill="rgb(177, 187, 70)" fill-opacity="0.56"/><path d="M246,52L202,19L193,51Z" fill="rgb(77, 72, 74)" fill-opacity="0.83"/><path d="M92,87L86,64L110,59Z" fill="rgb(255, 113, 120)" fill-opacity="0.43"/><path d="M145,-2L116,-8L150,27Z" fill="rgb(92, 126, 154)" fill-opacity="0.48"/><path d="M148,32L138,67L180,43Z" fill="rgb(3, 1, 10)" fill-opacity="0.62"/><path d="M227,-39L232,36L197,36Z" fill="rgb(7, 0, 0)" fill-opacity="0.81"/><path d="M210,0L77,-72L189,48Z" fill="rgb(228, 248, 255)" fill-opacity="0.79"/><path d="M182,36L196,52L200,39Z" fill="rgb(249, 248, 249)" fill-opacity="0.61"/><path d="M42,30L5,32L25,59Z" fill="rgb(173, 231, 152)" fill-opacity="0.43"/><path d="M200,92L109,61L142,105Z" fill="rgb(235, 43, 37)" fill-opacity="0.40"/><path d="M198,39L230,48L231,34Z" fill="rgb(242, 250, 251)" fill-opacity="0.46"/><path d="M64,99L95,67L57,80Z" fill="rgb(148, 8, 0)" fill-opacity="0.50"/><path d="M63,46L96,60L97,26Z" fill="rgb(179, 192, 200)" fill-opacity="0.42"/><path d="M-12,158L26,157L29,184Z" fill="rgb(253, 111, 65)" fill-opacity="0.54"/><path d="M167,108L72,77L48,142Z" fill="rgb(71, 13, 9)" fill-opacity="0.70"/><path d="M178,131L236,66L202,41Z" fill="rgb(19, 3, 0)" fill-opacity="0.58"/><path d="M122,50L137,43L102,37Z" fill="rgb(186, 187, 190)" fill-opacity="0.44"/><path d="M116,103L139,66L97,69Z" fill="rgb(248, 73, 65)" fill-opacity="0.59"/><path d="M120,187L224,76L288,167Z" fill="rgb(28, 10, 6)" fill-opacity="0.76"/><path d="M205,45L208,37L233,37Z" fill="rgb(246, 251, 253)" fill-opacity="0.50"/><path d="M-4,154L-1,43L63,91Z" fill="rgb(15, 9, 3)" fill-opacity="0.76"/><path d="M79,61L107,43L86,37Z" fill="rgb(170, 183, 183)" fill-opacity="0.43"/><path d="M116,120L162,142L170,113Z" fill="rgb(73, 91, 141)" fill-opacity="0.42"/><path d="M206,90L218,95L210,95Z" fill="rgb(252, 187, 239)" fill-opacity="0.56"/><path d="M103,46L59,44L60,27Z" fill="rgb(122, 53, 55)" fill-opacity="0.62"/><path d="M111,134L85,131L86,117Z" fill="rgb(130, 76, 65)" fill-opacity="0.64"/><path d="M196,62L225,39L227,100Z" fill="rgb(7, 7, 7)" fill-opacity="0.51"/><path d="M165,49L201,67L180,100Z" fill="rgb(184, 60, 70)" fill-opacity="0.55"/><path d="M85,116L51,109L92,91Z" fill="rgb(0, 0, 1)" fill-opacity="0.58"/><path d="M142,41L137,24L160,26Z" fill="rgb(219, 234, 246)" fill-opacity="0.40"/><path d="M166,45L221,49L180,58Z" fill="rgb(16, 11, 15)" fill-opacity="0.75"/><path d="M23,136L9,140L21,148Z" fill="rgb(121, 147, 196)" fill-opacity="0.36"/><path d="M21,101L46,102L49,136Z" fill="rgb(119, 76, 78)" fill-opacity="0.49"/><path d="M161,5L145,29L185,44Z" fill="rgb(241, 255, 255)" fill-opacity="0.68"/><path d="M20,179L124,167L41,155Z" fill="rgb(13, 0, 0)" fill-opacity="0.63"/><path d="M130,65L118,55L122,68Z" fill="rgb(200, 154, 156)" fill-opacity="0.56"/><path d="M23,52L33,28L16,51Z" fill="rgb(175, 209, 205)" fill-opacity="0.47"/><path d="M-16,13L65,-52L88,39Z" fill="rgb(8, 5, 0)" fill-opacity="0.45"/><path d="M16,150L87,162L59,203Z" fill="rgb(27, 0, 1)" fill-opacity="0.68"/><path d="M169,39L117,56L153,33Z" fill="rgb(11, 0, 8)" fill-opacity="0.54"/><path d="M120,57L131,42L117,40Z" fill="rgb(148, 142, 148)" fill-opacity="0.47"/><path d="M37,141L4,134L30,106Z" fill="rgb(7, 0, 0)" fill-opacity="0.44"/><path d="M228,52L228,42L232,47Z" fill="rgb(255, 251, 249)" fill-opacity="0.57"/><path d="M182,90L163,72L159,107Z" fill="rgb(81, 0, 0)" fill-opacity="0.46"/><path d="M157,105L145,101L157,87Z" fill="rgb(210, 15, 8)" fill-opacity="0.54"/><path d="M93,45L85,58L94,51Z" fill="rgb(236, 246, 250)" fill-opacity="0.54"/><path d="M206,5L225,-33L198,35Z" fill="rgb(27, 19, 27)" fill-opacity="0.69"/><path d="M220,92L213,98L204,90Z" fill="rgb(174, 127, 157)" fill-opacity="0.38"/><path d="M69,89L67,58L58,87Z" fill="rgb(181, 52, 14)" fill-opacity="0.54"/><path d="M78,159L143,138L200,213Z" fill="rgb(44, 9, 5)" fill-opacity="0.83"/><path d="M136,128L184,124L165,138Z" fill="rgb(94, 89, 105)" fill-opacity="0.49"/><path d="M126,37L69,-8L138,5Z" fill="rgb(5, 10, 14)" fill-opacity="0.52"/><path d="M165,55L155,82L179,56Z" fill="rgb(255, 98, 109)" fill-opacity="0.50"/><path d="M144,75L128,70L133,101Z" fill="rgb(255, 75, 73)" fill-opacity="0.53"/><path d="M118,82L89,64L90,90Z" fill="rgb(220, 66, 67)" fill-opacity="0.56"/><path d="M124,61L147,75L160,49Z" fill="rgb(54, 51, 54)" fill-opacity="0.48"/><path d="M68,51L71,26L58,32Z" fill="rgb(210, 52, 55)" fill-opacity="0.48"/><path d="M51,42L43,64L47,37Z" fill="rgb(118, 144, 70)" fill-opacity="0.63"/><path d="M44,158L77,140L22,147Z" fill="rgb(129, 111, 87)" fill-opacity="0.46"/><path d="M94,134L91,125L88,128Z" fill="rgb(245, 238, 250)" fill-opacity="0.46"/><path d="M154,32L198,48L194,24Z" fill="rgb(255, 255, 255)" fill-opacity="0.55"/><path d="M-24,43L31,67L8,21Z" fill="rgb(63, 100, 4)" fill-opacity="0.34"/><path d="M212,-24L232,34L203,39Z" fill="rgb(17, 0, 8)" fill-opacity="0.52"/><path d="M218,28L277,-4L207,-2Z" fill="rgb(14, 0, 6)" fill-opacity="0.73"/><path d="M173,78L179,88L183,76Z" fill="rgb(58, 14, 32)" fill-opacity="0.44"/><path d="M60,160L53,133L88,157Z" fill="rgb(200, 119, 85)" fill-opacity="0.33"/><path d="M62,52L66,73L53,74Z" fill="rgb(164, 180, 83)" fill-opacity="0.45"/><path d="M46,102L57,130L31,133Z" fill="rgb(138, 70, 58)" fill-opacity="0.44"/><path d="M28,39L53,45L24,57Z" fill="rgb(93, 117, 79)" fill-opacity="0.54"/><path d="M180,133L144,133L142,171Z" fill="rgb(0, 28, 35)" fill-opacity="0.37"/><path d="M191,130L232,142L189,108Z" fill="rgb(63, 58, 22)" fill-opacity="0.39"/><path d="M110,19L104,18L108,25Z" fill="rgb(131, 143, 167)" fill-opacity="0.45"/><path d="M70,44L77,44L72,48Z" fill="rgb(255, 255, 244)" fill-opacity="0.49"/><path d="M141,94L132,95L143,109Z" fill="rgb(10, 10, 15)" fill-opacity="0.50"/><path d="M259,112L266,35L245,53Z" fill="rgb(15, 0, 0)" fill-opacity="0.58"/><path d="M143,6L131,-1L152,27Z" fill="rgb(115, 132, 151)" fill-opacity="0.49"/><path d="M79,87L81,54L68,76Z" fill="rgb(26, 5, 0)" fill-opacity="0.60"/><path d="M163,54L165,49L176,54Z" fill="rgb(0, 0, 0)" fill-opacity="0.53"/><path d="M94,150L103,80L136,133Z" fill="rgb(78, 23, 20)" fill-opacity="0.61"/><path d="M141,10L168,21L211,-56Z" fill="rgb(207, 235, 253)" fill-opacity="0.89"/><path d="M106,62L100,69L101,61Z" fill="rgb(163, 243, 255)" fill-opacity="0.46"/><path d="M145,80L113,92L102,71Z" fill="rgb(255, 82, 80)" fill-opacity="0.57"/><path d="M195,69L196,83L145,69Z" fill="rgb(210, 37, 32)" fill-opacity="0.57"/><path d="M138,34L126,20L144,28Z" fill="rgb(43, 43, 46)" fill-opacity="0.70"/><path d="M242,112L264,111L244,85Z" fill="rgb(88, 28, 2)" fill-opacity="0.60"/><path d="M2,149L-29,200L15,164Z" fill="rgb(169, 50, 7)" fill-opacity="0.62"/><path d="M112,48L112,37L124,38Z" fill="rgb(49, 47, 36)" fill-opacity="0.56"/><path d="M122,101L109,96L116,85Z" fill="rgb(226, 46, 24)" fill-opacity="0.60"/><path d="M131,99L125,88L115,87Z" fill="rgb(40, 14, 18)" fill-opacity="0.48"/><path d="M209,-4L200,23L156,-12Z" fill="rgb(214, 239, 254)" fill-opacity="0.87"/><path d="M209,88L205,67L206,95Z" fill="rgb(163, 44, 68)" fill-opacity="0.51"/><path d="M82,46L66,36L92,22Z" fill="rgb(45, 40, 45)" fill-opacity="0.57"/><path d="M126,111L191,119L218,95Z" fill="rgb(39, 16, 3)" fill-opacity="0.80"/><path d="M192,81L204,92L180,97Z" fill="rgb(56, 37, 17)" fill-opacity="0.59"/><path d="M234,97L253,83L230,24Z" fill="rgb(66, 51, 67)" fill-opacity="0.81"/><path d="M145,61L152,83L138,103Z" fill="rgb(125, 59, 56)" fill-opacity="0.50"/><path d="M127,7L134,-5L125,-6Z" fill="rgb(137, 171, 205)" fill-opacity="0.43"/><path d="M63,22L70,37L58,22Z" fill="rgb(150, 17, 20)" fill-opacity="0.50"/><path d="M-56,102L31,156L13,159Z" fill="rgb(38, 6, 1)" fill-opacity="0.83"/><path d="M253,49L224,38L277,-13Z" fill="rgb(63, 58, 86)" fill-opacity="0.46"/><path d="M100,66L131,35L121,40Z" fill="rgb(176, 186, 182)" fill-opacity="0.30"/><path d="M60,112L19,52L60,76Z" fill="rgb(24, 27, 1)" fill-opacity="0.62"/><path d="M28,163L6,196L15,157Z" fill="rgb(217, 153, 140)" fill-opacity="0.41"/><path d="M85,137L128,155L130,134Z" fill="rgb(14, 0, 0)" fill-opacity="0.46"/><path d="M-17,23L17,49L-14,11Z" fill="rgb(99, 117, 41)" fill-opacity="0.57"/><path d="M223,94L213,91L206,94Z" fill="rgb(216, 192, 235)" fill-opacity="0.27"/><path d="M153,70L204,66L185,59Z" fill="rgb(96, 89, 149)" fill-opacity="0.34"/><path d="M126,60L128,67L108,60Z" fill="rgb(255, 142, 154)" fill-opacity="0.42"/><path d="M79,57L80,50L77,54Z" fill="rgb(200, 198, 208)" fill-opacity="0.51"/><path d="M89,53L80,55L99,43Z" fill="rgb(207, 214, 221)" fill-opacity="0.50"/><path d="M97,46L87,64L108,57Z" fill="rgb(52, 44, 33)" fill-opacity="0.63"/><path d="M36,110L11,93L-1,103Z" fill="rgb(51, 43, 45)" fill-opacity="0.51"/><path d="M156,68L160,83L147,78Z" fill="rgb(255, 84, 84)" fill-opacity="0.58"/><path d="M127,171L125,155L136,140Z" fill="rgb(114, 25, 3)" fill-opacity="0.57"/><path d="M32,130L38,110L60,128Z" fill="rgb(115, 84, 85)" fill-opacity="0.44"/><path d="M124,51L121,56L118,53Z" fill="rgb(8, 8, 9)" fill-opacity="0.56"/><path d="M160,61L175,49L123,61Z" fill="rgb(17, 5, 12)" fill-opacity="0.42"/><path d="M52,61L52,57L42,60Z" fill="rgb(171, 213, 130)" fill-opacity="0.53"/><path d="M80,95L80,72L89,63Z" fill="rgb(161, 42, 42)" fill-opacity="0.49"/><path d="M21,43L16,42L36,31Z" fill="rgb(176, 198, 163)" fill-opacity="0.50"/><path d="M110,89L84,87L103,93Z" fill="rgb(32, 20, 26)" fill-opacity="0.52"/><path d="M33,27L56,46L80,-40Z" fill="rgb(21, 12, 4)" fill-opacity="0.55"/><path d="M174,88L179,109L170,102Z" fill="rgb(28, 6, 0)" fill-opacity="0.50"/><path d="M136,118L140,105L109,97Z" fill="rgb(23, 13, 13)" fill-opacity="0.56"/><path d="M139,123L155,119L119,116Z" fill="rgb(72, 80, 126)" fill-opacity="0.49"/><path d="M144,103L181,97L144,95Z" fill="rgb(194, 30, 25)" fill-opacity="0.56"/><path d="M194,87L198,84L195,93Z" fill="rgb(206, 57, 61)" fill-opacity="0.46"/><path d="M186,62L175,57L147,66Z" fill="rgb(238, 86, 120)" fill-opacity="0.50"/><path d="M91,26L95,30L85,41Z" fill="rgb(137, 158, 177)" fill-opacity="0.52"/><path d="M185,150L218,184L239,152Z" fill="rgb(51, 27, 33)" fill-opacity="0.73"/><path d="M27,17L13,39L17,-14Z" fill="rgb(25, 38, 0)" fill-opacity="0.54"/><path d="M37,132L65,131L45,140Z" fill="rgb(13, 0, 0)" fill-opacity="0.71"/><path d="M139,32L145,37L180,18Z" fill="rgb(224, 236, 249)" fill-opacity="0.54"/><path d="M72,157L100,154L75,139Z" fill="rgb(80, 52, 65)" fill-opacity="0.72"/><path d="M216,48L205,51L211,45Z" fill="rgb(92, 94, 87)" fill-opacity="0.50"/><path d="M129,126L178,126L131,145Z" fill="rgb(100, 90, 132)" fill-opacity="0.26"/><path d="M36,108L81,141L52,102Z" fill="rgb(82, 18, 12)" fill-opacity="0.66"/><path d="M247,111L222,97L222,138Z" fill="rgb(5, 0, 0)" fill-opacity="0.47"/><path d="M120,96L132,89L125,86Z" fill="rgb(25, 15, 18)" fill-opacity="0.48"/><path d="M150,21L133,28L140,13Z" fill="rgb(58, 68, 79)" fill-opacity="0.48"/><path d="M88,131L94,143L64,139Z" fill="rgb(29, 10, 2)" fill-opacity="0.78"/><path d="M60,47L55,11L58,62Z" fill="rgb(58, 15, 8)" fill-opacity="0.68"/><path d="M88,76L81,65L89,106Z" fill="rgb(24, 4, 1)" fill-opacity="0.53"/><path d="M31,68L19,54L55,48Z" fill="rgb(40, 53, 10)" fill-opacity="0.59"/><path d="M100,131L103,107L113,123Z" fill="rgb(117, 37, 25)" fill-opacity="0.52"/><path d="M23,43L20,25L19,56Z" fill="rgb(177, 199, 134)" fill-opacity="0.45"/><path d="M152,84L148,95L149,81Z" fill="rgb(7, 31, 0)" fill-opacity="0.44"/><path d="M9,29L-17,19L-2,-14Z" fill="rgb(23, 30, 8)" fill-opacity="0.78"/><path d="M72,50L60,58L71,43Z" fill="rgb(121, 118, 96)" fill-opacity="0.44"/><path d="M101,5L99,-10L95,4Z" fill="rgb(57, 70, 94)" fill-opacity="0.50"/><path d="M166,79L177,85L172,71Z" fill="rgb(206, 0, 0)" fill-opacity="0.53"/><path d="M101,31L86,37L104,33Z" fill="rgb(94, 106, 119)" fill-opacity="0.58"/><path d="M129,119L120,89L132,87Z" fill="rgb(29, 14, 16)" fill-opacity="0.68"/><path d="M156,54L152,53L147,66Z" fill="rgb(130, 77, 56)" fill-opacity="0.50"/><path d="M162,87L168,88L167,102Z" fill="rgb(38, 1, 5)" fill-opacity="0.52"/><path d="M45,49L46,43L53,40Z" fill="rgb(202, 217, 138)" fill-opacity="0.45"/><path d="M171,52L165,60L184,61Z" fill="rgb(255, 107, 87)" fill-opacity="0.47"/><path d="M66,172L116,143L114,158Z" fill="rgb(17, 4, 8)" fill-opacity="0.65"/><path d="M226,44L224,48L233,44Z" fill="rgb(226, 224, 223)" fill-opacity="0.50"/><path d="M148,92L162,99L167,83Z" fill="rgb(72, 7, 11)" fill-opacity="0.48"/><path d="M115,96L102,75L113,105Z" fill="rgb(186, 35, 19)" fill-opacity="0.43"/><path d="M112,89L124,68L139,86Z" fill="rgb(255, 81, 76)" fill-opacity="0.62"/><path d="M18,46L35,48L20,53Z" fill="rgb(163, 183, 227)" fill-opacity="0.38"/><path d="M18,107L42,105L20,104Z" fill="rgb(90, 109, 134)" fill-opacity="0.52"/><path d="M83,67L99,89L107,69Z" fill="rgb(202, 61, 57)" fill-opacity="0.52"/><path d="M166,126L156,125L176,114Z" fill="rgb(40, 28, 0)" fill-opacity="0.59"/><path d="M52,77L59,71L23,55Z" fill="rgb(58, 84, 22)" fill-opacity="0.60"/><path d="M148,21L158,28L145,37Z" fill="rgb(232, 245, 255)" fill-opacity="0.62"/><path d="M5,45L10,16L20,48Z" fill="rgb(78, 99, 35)" fill-opacity="0.49"/><path d="M137,63L92,68L135,70Z" fill="rgb(151, 77, 82)" fill-opacity="0.60"/><path d="M87,3L75,12L95,21Z" fill="rgb(17, 8, 15)" fill-opacity="0.52"/><path d="M106,98L88,101L101,125Z" fill="rgb(83, 0, 5)" fill-opacity="0.76"/><path d="M85,28L61,16L81,37Z" fill="rgb(76, 53, 65)" fill-opacity="0.46"/><path d="M178,70L174,91L181,91Z" fill="rgb(87, 47, 70)" fill-opacity="0.45"/><path d="M152,70L168,73L144,81Z" fill="rgb(255, 77, 75)" fill-opacity="0.46"/><path d="M223,43L211,36L208,41Z" fill="rgb(255, 255, 255)" fill-opacity="0.45"/><path d="M60,42L73,34L60,30Z" fill="rgb(255, 48, 45)" fill-opacity="0.35"/><path d="M100,162L131,164L97,170Z" fill="rgb(151, 35, 24)" fill-opacity="0.28"/><path d="M173,67L159,81L168,85Z" fill="rgb(135, 0, 7)" fill-opacity="0.53"/><path d="M148,86L148,72L142,95Z" fill="rgb(255, 65, 64)" fill-opacity="0.63"/><path d="M148,125L115,132L127,133Z" fill="rgb(113, 91, 114)" fill-opacity="0.40"/><path d="M55,138L59,147L18,146Z" fill="rgb(83, 73, 69)" fill-opacity="0.53"/><path d="M125,56L108,68L109,58Z" fill="rgb(236, 58, 62)" fill-opacity="0.50"/><path d="M28,33L46,22L10,28Z" fill="rgb(54, 82, 37)" fill-opacity="0.49"/><path d="M172,137L125,132L155,147Z" fill="rgb(14, 38, 60)" fill-opacity="0.55"/><path d="M86,37L93,17L76,41Z" fill="rgb(27, 20, 20)" fill-opacity="0.50"/><path d="M123,124L163,121L155,127Z" fill="rgb(8, 30, 84)" fill-opacity="0.48"/><path d="M161,98L138,98L161,94Z" fill="rgb(237, 41, 38)" fill-opacity="0.48"/><path d="M68,83L66,85L68,73Z" fill="rgb(255, 133, 36)" fill-opacity="0.50"/><path d="M118,57L174,40L150,34Z" fill="rgb(25, 17, 22)" fill-opacity="0.59"/><path d="M181,101L188,70L176,97Z" fill="rgb(218, 65, 57)" fill-opacity="0.51"/><path d="M169,68L155,89L151,77Z" fill="rgb(255, 76, 79)" fill-opacity="0.53"/><path d="M84,59L69,60L80,74Z" fill="rgb(22, 0, 0)" fill-opacity="0.47"/><path d="M67,63L61,72L54,61Z" fill="rgb(191, 197, 97)" fill-opacity="0.50"/><path d="M176,127L186,120L164,125Z" fill="rgb(19, 40, 90)" fill-opacity="0.46"/><path d="M252,78L220,49L250,64Z" fill="rgb(70, 58, 69)" fill-opacity="0.56"/></svg>