<svg xmlns="http://www.w3.org/2000/svg" viewBox="0 0 192 256" clip-path="url(#a)" width="384" height="512"><defs><clipPath id="a" clipPathUnits="objectBoundingBox"><path d="M0 0h192v256H0z"/></clipPath></defs><path fill="#4A5049" d="M0 0h192v256H0z"/><path d="M398 218L108-91 83 114z" fill="#B0C6CE" fill-opacity=".69"/><path d="M22 106l130 30-23-117z" fill="#BB6C1C" fill-opacity=".56"/><path d="M217 68L110 96l61 38z" fill="#B4DCFE" fill-opacity=".72"/><path d="M100 129l68 101-88-30z" fill="#E1A564" fill-opacity=".48"/><path d="M153 159l-12-64 48 63z" fill="#FFE4B2" fill-opacity=".42"/><path d="M4-24l103 284-207-137z" fill="#170E00" fill-opacity=".69"/><path d="M150 194l54-34-57 91z" fill="#DBA881" fill-opacity=".58"/><path d="M66 98L-97-185 94 69z" fill="#3E2D13" fill-opacity=".98"/><path d="M144 102l-9-62-29-5z" fill="#521605" fill-opacity=".79"/><path d="M197 141l-4 18-17-17z" fill="#373500" fill-opacity=".42"/><path d="M143 119L59 84l37 45z" fill="#FFD06E" fill-opacity=".42"/><path d="M92 117l35 62-29-23z" fill="#EEEDFE" fill-opacity=".35"/><path d="M95 19l52 79-71-43z" fill="#B17B04" fill-opacity=".56"/><path d="M151 116l6 25-25-25z" fill="#656F73" fill-opacity=".65"/><path d="M124 166l14-25 31 59z" fill="#150002" fill-opacity=".55"/><path d="M106 110l-24-8 47-25z" fill="#F48E0D" fill-opacity=".67"/><path d="M78 40L66-29-71 87z" fill="#21250E" fill-opacity=".89"/><path d="M78 4l17 16L64 7z" fill="#AFEDFF" fill-opacity=".6"/><path d="M126 39l-1 47 23 13z" fill="#481415" fill-opacity=".66"/><path d="M49 50l17-12 6 35z" fill="#EA721A" fill-opacity=".46"/><path d="M144 79l178 78L113-91z" fill="#5EADF0" fill-opacity=".76"/><path d="M232 120l-66 102 20 48z" fill="#331602" fill-opacity=".77"/><path d="M61 65l1 81-27-40z" fill="#E9905D" fill-opacity=".44"/><path d="M73 114l-25-6 24 18z" fill="#FBF3DF" fill-opacity=".53"/><path d="M-186 196l299 95-75-91z" fill="#714928" fill-opacity=".85"/><path d="M191 125l-29 12-23-42z" fill="#E1EEFF" fill-opacity=".53"/><path d="M92 21l58 24-52-64z" fill="#7EC6FD" fill-opacity=".72"/><path d="M92 134l20-18 40 57z" fill="#1E0300" fill-opacity=".4"/><path d="M103 219l3-53 128 152z" fill="#926D31" fill-opacity=".69"/><path d="M133 115l-18-31 52 23z" fill="#E9FFFF" fill-opacity=".44"/><path d="M165 121l9-1 6 23z" fill="#5A533F" fill-opacity=".46"/><path d="M143 95l48 49-47-113z" fill="#C0E5FF" fill-opacity=".45"/><path d="M125 78l-7 17-45-53z" fill="#FD9F07" fill-opacity=".55"/><path d="M135 144l2-12 16 19z" fill="#0088D1" fill-opacity=".56"/><path d="M116 176l8-11 16 24z" fill="#2858AC" fill-opacity=".65"/><path d="M76 140l4 58 23-41z" fill="#6E554D" fill-opacity=".77"/><path d="M199 151l-61 54-1-26z" fill="#2D160C" fill-opacity=".67"/><path d="M110 1l20-16-2 27z" fill="#656F00" fill-opacity=".56"/><path d="M86 116l-17-16 28 17z" fill="#700400" fill-opacity=".51"/><path d="M107 232l-9-33-35 17z" fill="#362417" fill-opacity=".74"/><path d="M111 34l-8 24L62 4z" fill="#243D00" fill-opacity=".4"/><path d="M64 93l41 27-16-17z" fill="#FFFFFC" fill-opacity=".48"/><path d="M69 117l-7 16 8-8z" fill="#FFD6AF" fill-opacity=".56"/><path d="M63 53l8-3-14-10z" fill="#FF8F1B" fill-opacity=".43"/><path d="M140 246L3 137l122 178z" fill="#21150E" fill-opacity=".55"/><path d="M79 54l-3-19 46 57z" fill="#F3A51F" fill-opacity=".66"/><path d="M-77 9L59 64l-39 49z" fill="#16210B" fill-opacity=".74"/><path d="M143 163l-28-28 41 16z" fill="#001642" fill-opacity=".53"/><path d="M108 164l16 2 7-10z" fill="#FCBA5D" fill-opacity=".53"/><path d="M180 159l-26-32 14 39z" fill="#D1A459" fill-opacity=".55"/><path d="M129 121l24 3-31 9z" fill="#FFD895" fill-opacity=".42"/><path d="M53 151l26-39v61z" fill="#2F2221" fill-opacity=".71"/><path d="M114 118l-26 33-4-24z" fill="#73746E" fill-opacity=".59"/><path d="M108 192l12 20-10-45z" fill="#261614" fill-opacity=".45"/><path d="M49 71l20-1-20 24z" fill="#DF6301" fill-opacity=".49"/><path d="M135 81l-6-13-15 14z" fill="#935342" fill-opacity=".5"/><path d="M92 151l25 11-12-23z" fill="#E3CBA6" fill-opacity=".51"/><path d="M109 189l-23 9-5-29z" fill="#D38B21" fill-opacity=".43"/><path d="M62 82l11 1-6-11z" fill="#937971" fill-opacity=".64"/><path d="M110 241l-5 2-4-15z" fill="#B28946" fill-opacity=".5"/><path d="M148 199l-22 17 5 4z" fill="#FBDACF" fill-opacity=".51"/><path d="M191 164l-22 6 11-14z" fill="#1C0404" fill-opacity=".49"/><path d="M98 171l-8-13-18 6z" fill="#73769B" fill-opacity=".54"/><path d="M56 83l-4 16 15-13z" fill="#AF9E87" fill-opacity=".57"/><path d="M61 92l5 10 21-45z" fill="#250712" fill-opacity=".49"/><path d="M185 207l-15 32-11-14z" fill="#261908" fill-opacity=".64"/><path d="M148 197l-19 16 42-9z" fill="#F6EFF4" fill-opacity=".28"/><path d="M88 104l-14-9 25-34z" fill="#F38816" fill-opacity=".63"/><path d="M107 233l9-29-22-27z" fill="#A98848" fill-opacity=".55"/><path d="M184 109l4 14 15 12z" fill="#4C523C" fill-opacity=".61"/><path d="M86 158l12-38-30 30z" fill="#646E7E" fill-opacity=".42"/><path d="M88 73L78 88 66 24z" fill-opacity=".46"/><path d="M213 117l-33-7 6-13z" fill="#165C76" fill-opacity=".28"/><path d="M135 45l1-7-38-9z" fill="#CB9D75" fill-opacity=".53"/><path d="M117 66l17 12-34-43z" fill="#D9B152" fill-opacity=".57"/><path d="M178 207l23-54-67 62z" fill="#BA957A" fill-opacity=".5"/><path d="M70 91l-3 5 40 22z" fill="#FFFFC8" fill-opacity=".57"/><path d="M136 34l-27-3L68 3z" fill="#9CCEFB" fill-opacity=".54"/><path d="M115 47v25l9-4z" fill="#EBAB56" fill-opacity=".64"/><path d="M90 90l16-1-8 9z" fill="#BBBDC7" fill-opacity=".49"/><path d="M155 209l-18 15 23-6z" fill="#68552D" fill-opacity=".54"/><path d="M198 100l-56-72 17 79z" fill="#85C3F0" fill-opacity=".52"/><path d="M21 112l-118 21 172 92z" fill="#00020A" fill-opacity=".48"/><path d="M54 216l-8 13-4-12z" fill="#7C787D" fill-opacity=".5"/><path d="M58 44L47 84 7 43z" fill="#2B3214" fill-opacity=".74"/><path d="M18 106l-11-2 4 15z" fill="#878C6D" fill-opacity=".42"/><path d="M165 185l-4-41-13 5z" fill="#835F25" fill-opacity=".57"/><path d="M180 138l7 6-5-43z" fill="#B9E4FF" fill-opacity=".58"/><path d="M150 226l33-31-30 37z" fill="#FDE0C8" fill-opacity=".42"/><path d="M66 118l-12-12 9 17z" fill="#F1EADF" fill-opacity=".56"/><path d="M108 177l5 2 12 20z" fill-opacity=".51"/><path d="M61 73l31-2-30-2z" fill="#1F120B" fill-opacity=".66"/><path d="M142 80l15 14-7-17z" fill="#FAF1F2" fill-opacity=".65"/><path d="M116 130l19-27-11 28z" fill="#D6C697" fill-opacity=".49"/><path d="M235 216l-48-6 2-13z" fill="#D47335" fill-opacity=".53"/><path d="M123 58l3-18-11 5z" fill="#180000" fill-opacity=".55"/><path d="M87 16l3 19-52-5z" fill="#121909" fill-opacity=".65"/><path d="M116 102l15 26-26-23z" fill="#E3C993" fill-opacity=".6"/><path d="M155 198l38-16-14-17z" fill="#9A7155" fill-opacity=".62"/><path d="M126 221l18 38 47 2z" fill="#8E7136" fill-opacity=".92"/><path d="M108 61l-6 4 2-9z" fill="#E0C7BD" fill-opacity=".45"/><path d="M116 92l27 26-13-30z" fill="#ECFCFF" fill-opacity=".51"/><path d="M92 148l10 11-24-3z" fill="#1E1D42" fill-opacity=".42"/><path d="M88 10l8 9 1-29z" fill="#799A57" fill-opacity=".57"/><path d="M129 159l15 46 18-33z" fill="#2E190D" fill-opacity=".56"/><path d="M204-70l-71 58 59 73z" fill="#4F96D4" fill-opacity=".85"/><path d="M58 205l-82-22 28 21z" fill="#381E13" fill-opacity=".58"/><path d="M113 226h13l-1 17z" fill="#0A0200" fill-opacity=".51"/><path d="M135 153l10-29 5 33z" fill="#004598" fill-opacity=".45"/><path d="M127 223l-11-20 6 30z" fill="#302120" fill-opacity=".48"/><path d="M130 173l-4-14-8 4z" fill="#E2B029" fill-opacity=".45"/><path d="M145 97l2-8-9-22z" fill="#B16B35" fill-opacity=".53"/><path d="M130 38l7 41 4-27z" fill="#AF5C29" fill-opacity=".43"/><path d="M59 125l6 31 21-25z" fill="#160F16" fill-opacity=".48"/><path d="M156 234l-12-3-10-13z" fill-opacity=".3"/><path d="M156 157l43-2-49-16z" fill="#D0AC6D" fill-opacity=".44"/><path d="M159 171l-12-15 25 21z" fill="#CB8856" fill-opacity=".5"/><path d="M132 228l-9-5 8-5z" fill="#A99988" fill-opacity=".5"/><path d="M125 205l-7-17 15 23z" fill="#030005" fill-opacity=".49"/><path d="M132 7l23 32-36-6z" fill="#72B6E9" fill-opacity=".67"/><path d="M150 116l-25 26 22-11z" fill="#A98A72" fill-opacity=".52"/><path d="M39 139l9 37 18-55z" fill="#4E3E2F" fill-opacity=".39"/><path d="M86 117l10-1-5 9z" fill="#EFBE92" fill-opacity=".53"/><path d="M182 170l-34-16 12 12z" fill="#171700" fill-opacity=".47"/><path d="M189 238h17l-18-10z" fill="#C87433" fill-opacity=".63"/><path d="M27 89l32 18-17 9z" fill="#8E5538" fill-opacity=".68"/><path d="M94 212l-25-62 19 110z" fill="#82562C" fill-opacity=".28"/><path d="M112 93L96 70l13 9z" fill="#9F3809" fill-opacity=".42"/><path d="M167 219l-12 9 34 25z" fill="#4F3E1C" fill-opacity=".61"/><path d="M182 165l12-16-26 19z" fill="#211D20" fill-opacity=".56"/><path d="M83 114L50 91l8 10z" fill="#D8BB7A" fill-opacity=".62"/><path d="M96 12L62-23 74 1z" fill="#021200" fill-opacity=".51"/><path d="M149 240l-17-26 15 14z" fill="#180E13" fill-opacity=".5"/><path d="M124 85l-36 19 16 9z" fill="#E68701" fill-opacity=".5"/><path d="M103 85l-5-7-16 16z" fill="#9D9591" fill-opacity=".51"/><path d="M44 116l16-1-7 16z" fill="#C76028" fill-opacity=".49"/><path d="M91 52l9-14-3 40z" fill="#EAB432" fill-opacity=".56"/><path d="M111 171l-15-8 22-5z" fill="#CDC9D1" fill-opacity=".36"/><path d="M139 209l23-16-1 23z" fill="#B8B4A7" fill-opacity=".45"/><path d="M162 110l15 3-19 17z" fill="#FEF9F6" fill-opacity=".6"/><path d="M133 139l-14-17 10 18z" fill="#C7915B" fill-opacity=".5"/><path d="M146 233l1-1 6 1z" fill="#FFF" fill-opacity=".49"/><path d="M152 129l17 14-29-14z" fill="#3D848A" fill-opacity=".45"/><path d="M56 40l8-6 3 12z" fill="#6E3114" fill-opacity=".65"/><path d="M177 136l-31-14 13 11z" fill="#D6DEF0" fill-opacity=".58"/><path d="M71-2l1 10h-6z" fill="#292600" fill-opacity=".59"/><path d="M91 117l-7-4-3 2z" fill="#FFD85C" fill-opacity=".46"/><path d="M92 26l4 5-10 16z" fill="#BFCC40" fill-opacity=".45"/><path d="M-12-5l49-8L8 28z" fill="#375918" fill-opacity=".51"/><path d="M79 114l-4 19 17-8z" fill="#20315D" fill-opacity=".5"/><path d="M25 150v4l-6-2z" fill="#D5723D" fill-opacity=".53"/><path d="M86 169l-33 30 35-18z" fill="#5C3112" fill-opacity=".56"/><path d="M106 124H94l18 32z" fill="#9C8140" fill-opacity=".53"/><path d="M29 110l10 43 11-27z" fill="#4B3E2E" fill-opacity=".51"/><path d="M106 183l-20 2 37-22z" fill="#FFBE62" fill-opacity=".32"/><path d="M189 118l18-14-17 23z" fill="#373801" fill-opacity=".45"/><path d="M135 111l19 28-42-43z" fill="#7F795A" fill-opacity=".53"/><path d="M139 196l-10-14-7 10z" fill="#B79E3E" fill-opacity=".59"/><path d="M147 114l-5 14v-10z" fill="#310608" fill-opacity=".52"/><path d="M109 143l11-14 19 36z" fill="#270D00" fill-opacity=".54"/><path d="M160 199l7 19 14-18z" fill="#B59F8E" fill-opacity=".57"/><path d="M118 2l4 30-27-7z" fill="#85C2F1" fill-opacity=".57"/><path d="M55 215l-44 17 32-35z" fill="#875C3B" fill-opacity=".27"/><path d="M23 90l20 23-27-4z" fill="#05140E" fill-opacity=".51"/><path d="M158 219l-6 2v-10z" fill="#441F0F" fill-opacity=".5"/><path d="M65 74l-16-8 3 25z" fill="#CD6518" fill-opacity=".43"/><path d="M120 71l-3-27 6 27z" fill="#F0A328" fill-opacity=".54"/><path d="M86 13l6-3-2-7z" fill="#769D6D" fill-opacity=".5"/><path d="M74 106l-18-8 32 19z" fill="#F3CA73" fill-opacity=".52"/><path d="M144 25L91-10l5 20z" fill="#78B9E9" fill-opacity=".63"/><path d="M108 72l2-19 2 20z" fill="#863D19" fill-opacity=".61"/><path d="M112 190l-8-11 15 34z" fill="#12080A" fill-opacity=".5"/><path d="M127 214v5l-7 1z" fill="#000001" fill-opacity=".51"/><path d="M149 155l3-14 2 1z" fill="#E3A962" fill-opacity=".54"/><path d="M187 157h2l14-10z" fill="#CACAE8" fill-opacity=".45"/><path d="M64 90l10 3-8-8z" fill="#2D0D0F" fill-opacity=".52"/><path d="M61 58l11 4-6 7z" fill="#FF990F" fill-opacity=".45"/><path d="M78 117l-12 6v8z" fill="#BFB5AE" fill-opacity=".53"/><path d="M74 102l1 6 21 10z" fill="#741600" fill-opacity=".44"/><path d="M54 94l-6 9 17 12z" fill="#AF9B7B" fill-opacity=".57"/><path d="M203 146l-26-6 29 29z" fill="#4A4E29" fill-opacity=".49"/><path d="M77 109l12 12-26-20z" fill="#EDBE74" fill-opacity=".53"/><path d="M98 195l-17-1 5 8z" fill="#B7803C" fill-opacity=".57"/><path d="M154 96l3 21-25-15z" fill="#C4E6FF" fill-opacity=".65"/><path d="M108 120l14 16-28-20z" fill="#383F0A" fill-opacity=".51"/><path d="M92 211l-39-55 10 52z" fill="#392E22" fill-opacity=".56"/><path d="M129 72l2-30-19-4z" fill="#2F0000" fill-opacity=".58"/><path d="M187 148l9-36 3 42z" fill="#384A27" fill-opacity=".44"/><path d="M132 83l4 12 7-4z" fill="#0B0007" fill-opacity=".45"/><path d="M57 228l16 12-24-69z" fill="#0D0908" fill-opacity=".64"/><path d="M84 200l2-27 4 34z" fill="#CE8537" fill-opacity=".57"/><path d="M60 19l17 23 4 27z" fill="#1F230D" fill-opacity=".96"/><path d="M148 123l-2-8 7 4z" fill="#5B230C" fill-opacity=".47"/><path d="M98 29l19 10-4-10z" fill="#BF8B5D" fill-opacity=".49"/><path d="M-5 53l49-83-7 41z" fill="#0D0E08" fill-opacity=".66"/><path d="M73 123v-8l-15 1z" fill="#EADAC1" fill-opacity=".59"/><path d="M150 147l-13-5h9z" fill="#00D6FE" fill-opacity=".48"/><path d="M84 242l3-3 11 26z" fill="#8F715B" fill-opacity=".43"/><path d="M84 130l5 5 8-4z" fill="#ADB7C5" fill-opacity=".46"/><path d="M74 102l-1-2 14 9z" fill="#FF7100" fill-opacity=".5"/></svg>