<svg xmlns="http://www.w3.org/2000/svg" viewBox="0 0 256 192" clip-path="url(#a)" width="512" height="384"><defs><clipPath id="a" clipPathUnits="objectBoundingBox"><path d="M0 0h256v192H0z"/></clipPath></defs><path fill="#806E46" d="M0 0h256v192H0z"/><path d="M-28 105l98-75-47-57z" fill="#E4ECFF" fill-opacity=".65"/><path d="M215 78l19-8 73 47z" fill="#141C00" fill-opacity=".62"/><path d="M147-127l30 162-65 12z" fill="#020D31" fill-opacity=".75"/><path d="M186 53l29 22 61-88z" fill="#321E17" fill-opacity=".64"/><path d="M-36 75l56 18 26 166z" fill="#CC9A5B" fill-opacity=".87"/><path d="M64 204l136-60L9 66z" fill="#181B2A" fill-opacity=".55"/><path d="M172 128l29-36 6 35z" fill="#FFF" fill-opacity=".55"/><path d="M93 17l53 93-157-25z" fill="#294785" fill-opacity=".67"/><path d="M207 102l-26 38-11-38z" fill="#EDEEE9" fill-opacity=".48"/><path d="M154 54L78 72l147 12z" fill="#C69C77" fill-opacity=".7"/><path d="M149 102l-96 49-30-29z" fill="#A56027" fill-opacity=".7"/><path d="M51 215l33-32 8 8z" fill="#FFFD22" fill-opacity=".69"/><path d="M145 238l68-141 155 47z" fill="#3E351C" fill-opacity=".61"/><path d="M88 39L10 55l43 19z" fill="#1737AF" fill-opacity=".83"/><path d="M12 55l-26-11 82-7z" fill="#FFF" fill-opacity=".61"/><path d="M1 11l36-3 7-78z" fill="#844800" fill-opacity=".47"/><path d="M150 73l-27 33-37 11z" fill="#050B16" fill-opacity=".65"/><path d="M244-7l-41 70 43-13z" fill="#141418" fill-opacity=".49"/><path d="M43 19L64 8l50 11z" fill="#432D0B" fill-opacity=".57"/><path d="M18 78l5-21-72 18z" fill="#E2D7FC" fill-opacity=".56"/><path d="M146 99l11-20-47 28z" fill="#24140E" fill-opacity=".73"/><path d="M157 98l81-29-59-8z" fill="#FF7500" fill-opacity=".45"/><path d="M32 15l23 30-88-22z" fill="#FBF9F5" fill-opacity=".66"/><path d="M138 105l21-23 9 12z" fill="#F48A19" fill-opacity=".64"/><path d="M49 71l38-29-11 30z" fill="#000E2D" fill-opacity=".56"/><path d="M87 99l-65 5 12 20z" fill="#05000B" fill-opacity=".59"/><path d="M202 45l2-87 9 81z" fill="#91A7D5" fill-opacity=".57"/><path d="M73 106l25 3-15-36z" fill="#3B6F9E" fill-opacity=".52"/><path d="M179 72l-2-29-54 35z" fill="#BBD3E2" fill-opacity=".29"/><path d="M47 28l71-4 13 46z" fill="#3E6181" fill-opacity=".6"/><path d="M161 112l-10 54 38-18z" fill="#000415" fill-opacity=".6"/><path d="M132 111l70-30 16 16z" fill="#152E59" fill-opacity=".31"/><path d="M117 172l-12-26-24 12z" fill="#5F7EA9" fill-opacity=".54"/><path d="M144 151l13-11-6 13z" fill="#C2CACE" fill-opacity=".5"/><path d="M58 67L30 79l21-36z" fill="#1139D3" fill-opacity=".52"/><path d="M131 97l-47 23-7-7z" fill="#05050A" fill-opacity=".72"/><path d="M190 172l12-30-100 49z" fill="#596168" fill-opacity=".75"/><path d="M207 129l5-37-29 70z" fill="#A19078" fill-opacity=".54"/><path d="M238 92l-26-18-4 19z" fill="#B99431" fill-opacity=".61"/><path d="M20 156l-26-3 32-13z" fill="#FEE33E" fill-opacity=".79"/><path d="M154 169l-57-18 31-35z" fill="#000414" fill-opacity=".6"/><path d="M59 18l3 8 36-3z" fill="#E8D744" fill-opacity=".38"/><path d="M170 120l29-31-44 14z" fill="#68707B" fill-opacity=".52"/><path d="M41 188l-11-1 15-26z" fill="#333023" fill-opacity=".58"/><path d="M173 38v-49l-41 54z" fill="#040216" fill-opacity=".66"/><path d="M72 4L41 20 26-14z" fill="#C9B080" fill-opacity=".82"/><path d="M202 22l5 18-7 6z" fill="#A8B5CC" fill-opacity=".59"/><path d="M224 103l17 26-28-25z" fill-opacity=".39"/><path d="M3 69l39 80-7 32z" fill="#BB8662" fill-opacity=".71"/><path d="M247 31l-32-12 14-10z" fill="#2B0E05" fill-opacity=".58"/><path d="M121 185v-24l-5 10z" fill="#D32C18" fill-opacity=".52"/><path d="M247 151l36 26-38-14z" fill="#9CA977" fill-opacity=".55"/><path d="M160 99L87 85l33-13z" fill="#061012" fill-opacity=".36"/><path d="M19 73l28 21-22 3z" fill="#676C7D" fill-opacity=".59"/><path d="M43 141l64 12 1-36z" fill="#5F7063" fill-opacity=".5"/><path d="M39 119l34-22-17-6z" fill="#0B1017" fill-opacity=".69"/><path d="M35 20h19L30 33z" fill="#FFF" fill-opacity=".5"/><path d="M233 31l-15-10-9 24z" fill="#877818" fill-opacity=".65"/><path d="M112 51l53 5 6-10z" fill="#23273C" fill-opacity=".44"/><path d="M117 17l-5-51-34 47z" fill="#3F4418" fill-opacity=".66"/><path d="M76 132l-72-2 65-19z" fill="#B23400" fill-opacity=".45"/><path d="M48 133l7 42 7-28z" fill="#A9AF44" fill-opacity=".47"/><path d="M147 76l9 8-9-21z" fill="#D3C8C2" fill-opacity=".58"/><path d="M143 125l3 44-25 2z" fill="#0D0E14" fill-opacity=".56"/><path d="M55 80l44-4-30 14z" fill="#98848A" fill-opacity=".54"/><path d="M207 98l-31 21 5-12z" fill="#F0EAD8" fill-opacity=".78"/><path d="M87 103V81l15 13z" fill="#4790C6" fill-opacity=".49"/><path d="M73 120l-21 16 64-22z" fill="#F38621" fill-opacity=".39"/><path d="M135 36l-16-5 39-31z" fill="#364480" fill-opacity=".54"/><path d="M58 141l7 12 7-25z" fill="#094819" fill-opacity=".44"/><path d="M31 127l-15-19-8 26z" fill="#865566" fill-opacity=".56"/><path d="M85 57L52 45l16-10z" fill="#062375" fill-opacity=".52"/><path d="M108 171l-8-28-8 38z" fill="#1E508E" fill-opacity=".52"/><path d="M159 132l-10 7-4 14z" fill="#939EAB" fill-opacity=".48"/><path d="M236 36l-50 12 59 10z" fill="#212735" fill-opacity=".64"/><path d="M136 101l51 21-48 12z" fill="#666866" fill-opacity=".5"/><path d="M134 76l18 2-1 9z" fill="#261D2B" fill-opacity=".55"/><path d="M113 170l-14-22 18 14z" fill="#9E836D" fill-opacity=".49"/><path d="M82 126l55-19 12 12z" fill="#7B715A" fill-opacity=".64"/><path d="M173 59V14l23 14z" fill="#B1A743" fill-opacity=".45"/><path d="M36 127l23 5-37 19z" fill="#BA5102" fill-opacity=".54"/><path d="M21 69l27 11-13-29z" fill="#3E54C7" fill-opacity=".57"/><path d="M54 182h61l-68-17z" fill="#182F13" fill-opacity=".6"/><path d="M122 104l-23 16 66-26z" fill="#DA7208" fill-opacity=".52"/><path d="M45 139l8 13 3-16z" fill="#CBAF6D" fill-opacity=".52"/><path d="M237 78l9 22 11-32z" fill="#1F2A00" fill-opacity=".48"/><path d="M139 18l1-31-27 7z" fill="#616643" fill-opacity=".44"/><path d="M21 81L7 140-5 93z" fill="#F5B893" fill-opacity=".42"/><path d="M232 147l-9 17-21-19z" fill="#050009" fill-opacity=".41"/><path d="M68 24l-14 9 11 2z" fill="#B8DAFC" fill-opacity=".48"/><path d="M15 171l-18-11 16-9z" fill="#856F27" fill-opacity=".53"/><path d="M215 61l13-5 21 24z" fill="#C7824D" fill-opacity=".59"/><path d="M249 41l8-5 32 58z" fill="#2B0007" fill-opacity=".57"/><path d="M134 172l7 38 42-29z" fill="#3E3736" fill-opacity=".47"/><path d="M161 72l-5 14 5 9z" fill="#F5D0C0" fill-opacity=".53"/><path d="M136 49l-20 20 34-3z" fill="#748398" fill-opacity=".49"/><path d="M72 207l-26-30-17 25z" fill="#C7A845" fill-opacity=".59"/><path d="M230 165l-27-25 51 29z" fill="#1D2D33" fill-opacity=".45"/><path d="M-20 27l35-14-7-29z" fill="#5A4243" fill-opacity=".53"/><path d="M242 44l33 30-30-34z" fill="#A2A0D0" fill-opacity=".55"/><path d="M104 78l-54-2 73-21z" fill="#A28625" fill-opacity=".34"/><path d="M175 65v14l-12-12z" fill="#FFDCA9" fill-opacity=".55"/><path d="M184 131l20-13-15-14z" fill="#FDF7DE" fill-opacity=".68"/><path d="M214-1l-1 27 9-54z" fill="#9DB7F5" fill-opacity=".54"/><path d="M41 139l34 60-16 2z" fill="#155211" fill-opacity=".71"/><path d="M79 106l2 7 26-11z" fill="#1A5CA9" fill-opacity=".46"/><path d="M102 104l-2-15 20-6z" fill="#3D709B" fill-opacity=".54"/><path d="M206-2l-11-22 3 64z" fill="#021F1A" fill-opacity=".37"/><path d="M222 35V22l-8 11z" fill="#BEC818" fill-opacity=".53"/><path d="M208 114l4-15-17-8z" fill="#93999D" fill-opacity=".48"/><path d="M75 109l-6 3 10 16z" fill="#C46960" fill-opacity=".53"/><path d="M209 18l5-9-2-15z" fill="#031859" fill-opacity=".51"/><path d="M15 57l-26 6 17-9z" fill="#3845BB" fill-opacity=".58"/><path d="M151 132l3 17 2-8z" fill="#D6E1E6" fill-opacity=".48"/><path d="M19 8l37-1-39 7z" fill="#FFF5D9" fill-opacity=".48"/><path d="M187 34L176 8l26-22z" fill="#8BB722" fill-opacity=".41"/><path d="M185 121l31 9 2 12z" fill="#C69859" fill-opacity=".4"/><path d="M100 49l25 8 4-15z" fill="#7E85A1" fill-opacity=".46"/><path d="M226 12l-26-24 40-14z" fill="#2C000A" fill-opacity=".34"/><path d="M209 63l-31 4 31 15z" fill="#D35C09" fill-opacity=".52"/><path d="M58 75l23-9-37 4z" fill="#222832" fill-opacity=".71"/><path d="M6 20l-17 37-5-55z" fill="#FFFFF8" fill-opacity=".65"/><path d="M117 143l9-22 15 4z" fill="#0B0D16" fill-opacity=".51"/><path d="M127 50l-6-9 32 7z" fill="#3F3641" fill-opacity=".49"/><path d="M27 47l4 42-8-9z" fill="#26000D" fill-opacity=".36"/><path d="M67-9l33 20-7 23z" fill="#69441F" fill-opacity=".49"/><path d="M237 108l-3 7-8-4z" fill="#C6D8F5" fill-opacity=".37"/><path d="M78 116L63 89l24 28z" fill="#180000" fill-opacity=".5"/><path d="M104 111l12-3-9-14z" fill="#040D17" fill-opacity=".5"/><path d="M107 135l37-2 10 16z" fill="#15161D" fill-opacity=".53"/><path d="M4 91l20-8-57-3z" fill="#847642" fill-opacity=".5"/><path d="M-16 168l37-37H-6z" fill="#FF9334" fill-opacity=".57"/><path d="M3 56l44-17-55 6z" fill="#FFF" fill-opacity=".57"/><path d="M240 53l51 10-44-16z" fill="#798ED7" fill-opacity=".48"/><path d="M202 64l-22-8 11-9z" fill="#160115" fill-opacity=".46"/><path d="M17 67L2 61l4 22z" fill="#E1E0FA" fill-opacity=".49"/><path d="M62 2l17 2-19 4z" fill="#C8D1C7" fill-opacity=".46"/><path d="M12 122l4 8-7-2z" fill="#0B0D1E" fill-opacity=".47"/><path d="M85 198l36-16 25 34z" fill="#62411F" fill-opacity=".7"/><path d="M160 55l2 12 24-3z" fill="#877D6C" fill-opacity=".64"/><path d="M215 21l-7 26 6-45z" fill="#A1ACC7" fill-opacity=".52"/><path d="M134 43l-4 15-5-7z" fill="#000013" fill-opacity=".42"/><path d="M11 32l40-2-31 15z" fill="#C7C6C4" fill-opacity=".65"/><path d="M162 180l-15-14 27-8z" fill="#687177" fill-opacity=".75"/><path d="M146 77h5l-13-11z" fill="#E4E5DB" fill-opacity=".5"/><path d="M262 138h-15l19-36z" fill="#1F1F1E" fill-opacity=".61"/><path d="M249 40l56-50-54 7z" fill="#F3B034" fill-opacity=".26"/><path d="M24 70L9 53l20 15z" fill="#A4A4DD" fill-opacity=".48"/><path d="M20 74l-7-1 15 35z" fill="#334378" fill-opacity=".6"/><path d="M31 77l15-4-12 14z" fill="#6495AE" fill-opacity=".48"/><path d="M126 175l-4 30 29-39z" fill="#637381" fill-opacity=".53"/><path d="M92 76L76 89l6 5z" fill="#1E151B" fill-opacity=".31"/><path d="M68 154l25 37 16-9z" fill="#0E010B" fill-opacity=".34"/><path d="M138 96l8-21-36 18z" fill="#25252D" fill-opacity=".64"/><path d="M22 142l-1 5-36 12z" fill="#FFFF7E" fill-opacity=".56"/><path d="M30 92l-6-6-7-21z" fill="#C1AC9A" fill-opacity=".48"/><path d="M214-5l-10 54 8-31z" fill="#2C2D45" fill-opacity=".59"/><path d="M129 26l4-20-18-2z" fill="#090C1B" fill-opacity=".65"/><path d="M196 162l4-15-4-5z" fill="#BCA885" fill-opacity=".5"/><path d="M150 116l-1 3v-17z" fill="#FFF" fill-opacity=".51"/><path d="M168 73l-9 5 7 8z" fill="#11142F" fill-opacity=".47"/><path d="M208 80l20-9-14 1z" fill="#FD9E08" fill-opacity=".56"/><path d="M238 9l1-13-12 12z" fill="#BEA7A2" fill-opacity=".53"/><path d="M156 124l29 9-23-15z" fill="#373D42" fill-opacity=".63"/><path d="M157 163l-22-5 22-9z" fill="#000003" fill-opacity=".54"/><path d="M154 31l-51 2 63-24z" fill="#233477" fill-opacity=".33"/><path d="M175-5l-11 29 22-34z" fill="#011600" fill-opacity=".42"/><path d="M88 185l-14 6 19 2z" fill="#FFD927" fill-opacity=".63"/><path d="M173 44h-26l36-6z" fill="#BDAB99" fill-opacity=".55"/><path d="M203 98v25l-15-17z" fill="#FFFAE1" fill-opacity=".5"/><path d="M187-2L70-32l82 40z" fill="#2B361C" fill-opacity=".84"/><path d="M236 125l-4-5 15-27z" fill="#092519" fill-opacity=".56"/><path d="M239 7l15-1-15 8z" fill="#1A0000" fill-opacity=".44"/><path d="M59 30l-1-3-28-3z" fill="#1A314C" fill-opacity=".36"/><path d="M25 166l-6 15 16 2z" fill="#7E752F" fill-opacity=".41"/><path d="M5 16h21L8 18z" fill="#6A554F" fill-opacity=".5"/><path d="M82 69l12-26 37 1z" fill="#597891" fill-opacity=".55"/><path d="M247-3l-6 15-6-25z" fill="#0E0909" fill-opacity=".66"/><path d="M-14 215l-19-49 81-10z" fill="#AE944A" fill-opacity=".59"/><path d="M26 68l-8-17v17z" fill="#B7B3DC" fill-opacity=".51"/><path d="M149 144l1-23-1-13z" fill="#EAEDED" fill-opacity=".57"/><path d="M201 124l-24 14v-6z" fill="#AE997E" fill-opacity=".5"/><path d="M29 93l5-9 7 20z" fill="#5181B8" fill-opacity=".47"/><path d="M149 55l-1-5-23 5z" fill="#201B18" fill-opacity=".58"/><path d="M47 166l-2 17 14 14z" fill="#C3B637" fill-opacity=".55"/><path d="M20 105l34-3-25-10z" fill="#22375E" fill-opacity=".59"/><path d="M92 146l-12 11 31-9z" fill="#173664" fill-opacity=".48"/><path d="M180 104l31-26-14 23z" fill="#182937" fill-opacity=".39"/><path d="M56 14l6-9 33 19z" fill="#513815" fill-opacity=".51"/><path d="M130 17l16-11 6 19z" fill="#4A4766" fill-opacity=".59"/><path d="M59 15l-13 4-35-5z" fill="#A29A6B" fill-opacity=".58"/><path d="M241 18l-9-9-9 12z" fill="#300800" fill-opacity=".45"/><path d="M118 171l-29-7 4 18z" fill="#243E6B" fill-opacity=".51"/><path d="M95 106l-10-3 17-7z" fill="#0F1824" fill-opacity=".55"/><path d="M166 117l-10 6 7-27z" fill="#363427" fill-opacity=".57"/><path d="M113 22l7 11-1-19z" fill="#8D7A5B" fill-opacity=".59"/><path d="M162 86l-12 19V87z" fill="#EE8B1A" fill-opacity=".53"/><path d="M3 88l15 18 3-22z" fill="#DDBA72" fill-opacity=".39"/><path d="M47 34L27 51l32-10z" fill="#FFF" fill-opacity=".62"/><path d="M17 126v-11l-6 19z" fill="#611600" fill-opacity=".38"/></svg>