<svg xmlns="http://www.w3.org/2000/svg" viewBox="0 0 256 192" clip-path="url(#a)" width="512" height="384"><defs><clipPath id="a" clipPathUnits="objectBoundingBox"><path d="M0 0h256v192H0z"/></clipPath></defs><path fill="#4F4577" d="M0 0h256v192H0z"/><path d="M66 153l-2 37-23-50z" fill="#F4F2FF" fill-opacity=".58"/><path d="M186 75l-6-520L74 77z" fill="#D594CB" fill-opacity=".94"/><path d="M88 72l9-111-188 10z" fill="#4930FE" fill-opacity=".69"/><path d="M121 88L96 50l-6 69z" fill="#FA8381" fill-opacity=".7"/><path d="M204 209L181 72l97 126z" fill="#1E102A" fill-opacity=".69"/><path d="M113 167l-43 1 81 10z" fill="#C1E5FF" fill-opacity=".58"/><path d="M337 76L230-37l-54 194z" fill="#231D33" fill-opacity=".83"/><path d="M215 125l13 14 19-7z" fill="#F0E8FF" fill-opacity=".58"/><path d="M165 130l17 24-28-17z" fill="#F7FFFF" fill-opacity=".65"/><path d="M171 56l-40 45 2-56z" fill="#8E4C9C" fill-opacity=".73"/><path d="M67 201l-3-43 27-8z" fill="#15002D" fill-opacity=".49"/><path d="M47 23L29 264l-180-115z" fill="#1B0043" fill-opacity=".58"/><path d="M151 101l91-113-72 10z" fill="#D1D62E" fill-opacity=".32"/><path d="M41 25L-2 84l94 4z" fill="#260F77" fill-opacity=".7"/><path d="M149 163l-47 11 46 1z" fill="#BFC1FF" fill-opacity=".68"/><path d="M90 138l10-18 20 16z" fill="#FF9A59" fill-opacity=".49"/><path d="M158 142l-70-24 71-24z" fill="#140354" fill-opacity=".62"/><path d="M208 15l53-43-93 3z" fill="#26FB86" fill-opacity=".63"/><path d="M144 134l-4 11-2-14z" fill="#F8B7E7" fill-opacity=".47"/><path d="M175 13l-66 46L6-83z" fill="#EFC2FF" fill-opacity=".6"/><path d="M97 172l-1-45-9 24z" fill="#E3A9C4" fill-opacity=".51"/><path d="M326-39l-73 186-36-78z" fill="#1E102A" fill-opacity=".81"/><path d="M59 118l48 46-16-84z" fill="#5C054A" fill-opacity=".35"/><path d="M89 166v14l16-8z" fill="#D3B4FF" fill-opacity=".49"/><path d="M80 121l-31 13 36 45z" fill="#110743" fill-opacity=".55"/><path d="M96 181l-24 2-26 15z" fill="#D38EC9" fill-opacity=".58"/><path d="M39 173l10-31-29 6z" fill="#AD6590" fill-opacity=".42"/><path d="M125 186l-33 1 86 39z" fill="#B2D5FE" fill-opacity=".77"/><path d="M132 35l-54 4-94-92z" fill="#7E53FF" fill-opacity=".56"/><path d="M155 261l105-95-121 10z" fill="#17052E" fill-opacity=".69"/><path d="M155 128l9-10 6 3z" fill="#D6A4D6" fill-opacity=".53"/><path d="M172 130L240 8l-49 21z" fill="#3C2A42" fill-opacity=".57"/><path d="M61 29l-90 52L-8-2z" fill="#1B17C2" fill-opacity=".54"/><path d="M55 107L39 79l38 23z" fill="#B57DE3" fill-opacity=".61"/><path d="M103 51l56 13-45 22z" fill="#9241AE" fill-opacity=".61"/><path d="M200 156l-4 21-23-14z" fill="#B6A7E9" fill-opacity=".39"/><path d="M144 161l10-27-72 33z" fill="#1F0D54" fill-opacity=".74"/><path d="M220 104l1-15-32-3z" fill="#7C6F6B" fill-opacity=".54"/><path d="M212 156l14-37-74 7z" fill="#2F2253" fill-opacity=".86"/><path d="M191 78l-1-36-42 1z" fill="#FFC068" fill-opacity=".47"/><path d="M163 37l38 7-19-19z" fill="#704669" fill-opacity=".65"/><path d="M207-61l-51 76 36 8z" fill="#FF6986" fill-opacity=".54"/><path d="M123 129l-30 25 78 11z" fill="#1D0E5A" fill-opacity=".66"/><path d="M26 216L2 133l57 57z" fill="#301831" fill-opacity=".77"/><path d="M75 186l7 1 12-12z" fill="#F0ACFF" fill-opacity=".62"/><path d="M209 101l-57 24 18-43z" fill="#120042" fill-opacity=".44"/><path d="M156 141l8 11-18-7z" fill="#A2A9FF" fill-opacity=".49"/><path d="M20 149l41-8-22-61z" fill="#512C5D" fill-opacity=".81"/><path d="M224 158l10 6 1-13z" fill="#858292" fill-opacity=".48"/><path d="M169 90l-15 4-14-22z" fill="#A3B5D5" fill-opacity=".56"/><path d="M194 112l-10-5-2 14z" fill="#8F95D2" fill-opacity=".53"/><path d="M148 171l-30 4 23-17z" fill="#C6B8FF" fill-opacity=".45"/><path d="M80 187l28-9-12 15z" fill="#330F4C" fill-opacity=".52"/><path d="M185 149l-14 2-10-20z" fill="#D5FAFF" fill-opacity=".51"/><path d="M78 112l12-76 4 34z" fill="#803AA2" fill-opacity=".53"/><path d="M83 81l26 13 19-27z" fill="#FFAC86" fill-opacity=".36"/><path d="M68 98L36 86l2-8z" fill="#9678FB" fill-opacity=".62"/><path d="M89 46l46 1-7-13z" fill="#FFF8D9" fill-opacity=".6"/><path d="M189 58l-16 21 11 18z" fill="#652758" fill-opacity=".5"/><path d="M144 220l7-64 35-8z" fill="#13084F" fill-opacity=".64"/><path d="M107 146l-17-7-8-21z" fill="#D46971" fill-opacity=".5"/><path d="M68-10l88-13-11 60z" fill="#F3D9FF" fill-opacity=".84"/><path d="M11 153l6 33-82 74z" fill="#56556E" fill-opacity=".5"/><path d="M166 95l-64 3 9 17z" fill="#271E7D" fill-opacity=".61"/><path d="M87 146l8 28 8-36z" fill="#BCC1FF" fill-opacity=".29"/><path d="M81 109l10 11-8 11z" fill="#C21535" fill-opacity=".47"/><path d="M243 147l20 14-43 10z" fill="#41344D" fill-opacity=".95"/><path d="M111 91l11 1-15 13z" fill="#5B5DD0" fill-opacity=".63"/><path d="M208 130l-9-5 20-3z" fill="#C0746E" fill-opacity=".53"/><path d="M162 126l19 23 35 13z" fill="#170C54" fill-opacity=".67"/><path d="M215-10l26 12-43 45z" fill="#167C4A" fill-opacity=".36"/><path d="M123 170l-25-4 40-9z" fill="#06004B" fill-opacity=".49"/><path d="M163 147l5-10-10-10z" fill="#E0FCFF" fill-opacity=".56"/><path d="M123 64l8-19-31 3z" fill="#FC5AE1" fill-opacity=".46"/><path d="M243 141l-19-14 18 3z" fill="#DDD8F6" fill-opacity=".62"/><path d="M135 178l5 15-41-14z" fill="#00046B" fill-opacity=".49"/><path d="M95 65l15-24-19-7z" fill="#FFE2E7" fill-opacity=".4"/><path d="M115 144l-18-20 14 2z" fill="#FEAD76" fill-opacity=".5"/><path d="M91 53L47 26l21 49z" fill="#4825A7" fill-opacity=".61"/><path d="M164 78l8-33-23 30z" fill="#D76D6D" fill-opacity=".57"/><path d="M161 89V76l-11 9z" fill="#469A91" fill-opacity=".5"/><path d="M14 17L4-92 70 29z" fill="#3A3AFF" fill-opacity=".58"/><path d="M66 164l-4-16-20-1z" fill="#E5E9FF" fill-opacity=".58"/><path d="M104 84l-12 27 13 8z" fill="#FE6B49" fill-opacity=".43"/><path d="M258 146l-11-1 25 28z" fill="#D2B5E6" fill-opacity=".49"/><path d="M204 3l23-8-47-33z" fill="#C2FFFF" fill-opacity=".85"/><path d="M57 134l3-32-17-19z" fill="#8C5A92" fill-opacity=".58"/><path d="M115 137l-11-39 49 32z" fill="#190E59" fill-opacity=".67"/><path d="M224 174l-27-57-33-5z" fill="#231D50" fill-opacity=".62"/><path d="M122 76l29-12-29 25z" fill="#4E2EA9" fill-opacity=".48"/><path d="M89 127l2-23 19 20z" fill="#5D346E" fill-opacity=".56"/><path d="M183 51l-14 14 2-23z" fill="#FFF687" fill-opacity=".74"/><path d="M172 32l31-46-11 48z" fill="#9F8B73" fill-opacity=".49"/><path d="M96 61l22 15 8-21z" fill="#B64ABC" fill-opacity=".54"/><path d="M150 45l-8 21-15-42z" fill="#B364E5" fill-opacity=".57"/><path d="M61 123l14-36 11 53z" fill="#37296D" fill-opacity=".65"/><path d="M107 167l-13 11 37-2z" fill="#7AA5FF" fill-opacity=".46"/><path d="M121 85l-21 3 23 5z" fill="#F0D697" fill-opacity=".54"/><path d="M165 159l-2 20-2-7z" fill="#9485BA" fill-opacity=".44"/><path d="M132 183l9-23h10z" fill="#B89EEA" fill-opacity=".47"/><path d="M42 162l-6 12 1-20z" fill="#F8B4ED" fill-opacity=".39"/><path d="M87 100l4-45 4 73z" fill="#6B1A6E" fill-opacity=".49"/><path d="M28 57l-76 56L53 71z" fill="#1D0B4A" fill-opacity=".6"/><path d="M172 20l-19-86-8 105z" fill="#FF92E4" fill-opacity=".48"/><path d="M102 112l2-23 1 23z" fill="#F89863" fill-opacity=".63"/><path d="M199 93l3-5-8-1z" fill="#FBD9FF" fill-opacity=".55"/><path d="M150 49l3-7 35 3z" fill="#FFFF8D" fill-opacity=".5"/><path d="M103 29L81 1l77-71z" fill="#B5B4FF" fill-opacity=".42"/><path d="M101 71l32 16-23-2z" fill="#8B5191" fill-opacity=".42"/><path d="M75 98L-26 42 83 73z" fill="#251067" fill-opacity=".61"/><path d="M93 79L71 68l6-5z" fill="#BACBFF" fill-opacity=".39"/><path d="M144 74l-19-7 29 17z" fill="#FFF3FF" fill-opacity=".47"/><path d="M-9 93l3 82 46-81z" fill="#1B0933" fill-opacity=".54"/><path d="M109-4l-9 15-31-22z" fill="#B5FDFF" fill-opacity=".54"/><path d="M92 75V34l12 28z" fill="#FFA6D4" fill-opacity=".46"/><path d="M127 23l25-21-37-9z" fill="#FFECFF" fill-opacity=".69"/><path d="M158 130l6 16 14 5z" fill="#D6F3FF" fill-opacity=".59"/><path d="M170 47l-11 19-32 13z" fill="#863C82" fill-opacity=".46"/><path d="M96 196l8-11 21 4z" fill="#C9F1FF" fill-opacity=".54"/><path d="M92 129l-26 30-10-25z" fill="#140B42" fill-opacity=".42"/><path d="M144 41l-42-18 57-12z" fill="#FEB4FF" fill-opacity=".38"/><path d="M101 125l1 14 8-13z" fill="#FFBB75" fill-opacity=".57"/><path d="M84 188l-11-5h15z" fill="#F7B4FF" fill-opacity=".55"/><path d="M177 164l10 9-6-15z" fill="#C3ACED" fill-opacity=".5"/><path d="M160 151l-1-21-7 23z" fill="#8C95FE" fill-opacity=".48"/><path d="M140 140l-7-13 4 20z" fill="#68488E" fill-opacity=".65"/><path d="M160 100l10-4-28-9z" fill="#936BCD" fill-opacity=".34"/><path d="M69 150l31 44-12-24z" fill="#4E3974" fill-opacity=".54"/><path d="M56 182l9 14-12-44z" fill="#B7B3F3" fill-opacity=".48"/><path d="M209 132l59-14-9-42z" fill="#1D0E24" fill-opacity=".65"/><path d="M246 120l-18 5 28 9z" fill="#3C2A30" fill-opacity=".57"/><path d="M198 211l19-21-26-21z" fill="#1C0E33" fill-opacity=".66"/><path d="M133 72l-39-3 44-1z" fill="#F3C7D6" fill-opacity=".39"/><path d="M135 69l21 10-4-24z" fill="#69328C" fill-opacity=".46"/><path d="M244 136l-12-8 12 2z" fill="#E6DFF3" fill-opacity=".53"/><path d="M94 73l-15-6 5-14z" fill="#72309B" fill-opacity=".61"/><path d="M105 94l-11 3-1-35z" fill="#FF776A" fill-opacity=".5"/><path d="M222 130l9 9 8-11z" fill="#DAD3FF" fill-opacity=".57"/><path d="M56 176l-8 7-4-24z" fill="#260B35" fill-opacity=".54"/><path d="M173 66l15-9-5 18z" fill="#BB7A65" fill-opacity=".64"/><path d="M60 87l8 10-9 6z" fill="#BD83E5" fill-opacity=".46"/><path d="M208 88l22-4-2 44z" fill="#493E34" fill-opacity=".56"/><path d="M153 35l22 9-8-18z" fill="#A63889" fill-opacity=".37"/><path d="M183 111l10 2-12 2z" fill="#C2BDF1" fill-opacity=".57"/><path d="M287 205l-80-16 52-37z" fill="#2C211B" fill-opacity=".45"/><path d="M151 172l-2-15 25-2z" fill="#130842" fill-opacity=".48"/><path d="M123 187v-12l-27 9z" fill="#0E1268" fill-opacity=".56"/><path d="M177 164l-3 19-15-43z" fill="#17125D" fill-opacity=".66"/><path d="M106 168l-4 5 31-2z" fill="#CCF1FF" fill-opacity=".6"/><path d="M212 37l-25 12V36z" fill="#4B3458" fill-opacity=".7"/><path d="M209 9l-16-4 10 16z" fill="#65B269" fill-opacity=".52"/><path d="M200 1l17 3-14 6z" fill="#1DFF88" fill-opacity=".5"/><path d="M113 130l-25 3h26z" fill="#FEC992" fill-opacity=".52"/><path d="M117 100l35-15-25-15z" fill="#583298" fill-opacity=".59"/><path d="M66 188l34-2-62 78z" fill="#411338" fill-opacity=".56"/><path d="M166 21l13 5 1-9z" fill="#DAFCB1" fill-opacity=".5"/><path d="M52 160l3 18-12-37z" fill="#4F418F" fill-opacity=".62"/><path d="M74 60l-19 1h48z" fill="#D796EE" fill-opacity=".56"/><path d="M274 175l-33-32-32-18z" fill="#3B2A53" fill-opacity=".65"/><path d="M95 153l15-9-12-15z" fill="#2C278B" fill-opacity=".38"/><path d="M84 152l14-6-27-3z" fill="#9278B8" fill-opacity=".47"/><path d="M93 23l-2 36-49-82z" fill="#744AFF" fill-opacity=".58"/><path d="M193 68l-2 13-11-4z" fill="#9A54A3" fill-opacity=".42"/><path d="M60 152l-2 21-13-32z" fill="#E2E3FF" fill-opacity=".59"/><path d="M73 175l-5-17 19 18z" fill="#0A022A" fill-opacity=".48"/><path d="M97 166l-2 6 12-3z" fill="#DEFFFF" fill-opacity=".45"/><path d="M159-32l1 65 26-39z" fill="#FF84A5" fill-opacity=".45"/><path d="M15 144l24 11-12 18z" fill="#533151" fill-opacity=".6"/><path d="M136 26l4 12-31-5z" fill="#C884FF" fill-opacity=".6"/><path d="M127 55l19 11-28 2z" fill="#8038B1" fill-opacity=".5"/><path d="M139 74l2 6-13-12z" fill="#D8D0FD" fill-opacity=".44"/><path d="M87 151l1-2 11 12z" fill="#DFC9E5" fill-opacity=".5"/><path d="M149 160l-21 25 4-22z" fill="#A095E5" fill-opacity=".43"/><path d="M249 154l-8-42 12 23z" fill="#4C3843" fill-opacity=".59"/><path d="M14 96l1-10 13 3z" fill="#362BB3" fill-opacity=".44"/><path d="M78 167l7 3-8-12z" fill="#AF9AD2" fill-opacity=".36"/><path d="M176 65l-2 8-5-31z" fill="#FFF9B4" fill-opacity=".46"/><path d="M80 147l4-21 7 18z" fill="#201C59" fill-opacity=".59"/><path d="M133 87l-3 1 6 14z" fill="#D3DBE1" fill-opacity=".33"/><path d="M220 32l-30 8-41-3z" fill="#614368" fill-opacity=".46"/><path d="M98 134H85l12-4z" fill="#FFB682" fill-opacity=".53"/><path d="M33 86l16 2 9 12z" fill="#6A54C3" fill-opacity=".5"/><path d="M191 116l-2-10-2 9z" fill="#9ABAEF" fill-opacity=".56"/><path d="M140 134l-3 3 10-1z" fill="#F6C0E4" fill-opacity=".49"/><path d="M179 122l13-34-37 14z" fill="#1C0E4A" fill-opacity=".57"/><path d="M180 20l-8-14 35-40z" fill="#FE5967" fill-opacity=".37"/><path d="M179 170l21-15-23 5z" fill="#A196D3" fill-opacity=".38"/><path d="M121 91l-11 3-3 8z" fill="#8382E9" fill-opacity=".54"/><path d="M148 74l-16 7 12-7z" fill="#F5EFFF" fill-opacity=".39"/><path d="M172 75l-32 22 14-22z" fill="#715D8B" fill-opacity=".56"/><path d="M198 171l35-29-35-5z" fill="#1D123C" fill-opacity=".8"/><path d="M63 106l-15 20-23-4z" fill="#391E4B" fill-opacity=".34"/><path d="M148 54l3-22-29 34z" fill="#9D49C5" fill-opacity=".45"/><path d="M54 116l-1 25 8-21z" fill="#966795" fill-opacity=".44"/><path d="M110 165l-21-14 21 5z" fill="#240D38" fill-opacity=".45"/><path d="M166 87l-8 4-6-14z" fill="#53CFA0" fill-opacity=".38"/><path d="M122 70l1 3 12-7z" fill="#E7DCFF" fill-opacity=".55"/><path d="M131 47L93 61l11-16z" fill="#FE76DE" fill-opacity=".44"/><path d="M190 184l-29-32 13 58z" fill="#1F0F47" fill-opacity=".68"/><path d="M85 78l37 2-5-13z" fill="#DE7894" fill-opacity=".52"/></svg>