<svg xmlns="http://www.w3.org/2000/svg" viewBox="0 0 256 169.55844155844156" clip-path="url(#clip)" width="512" height="339.1168831168831"><defs><clipPath id="clip" clipPathUnits="objectBoundingBox"><rect x="0" y="0" width="256" height="169.55844155844156"/></clipPath></defs><rect x="0" y="0" width="256" height="169.55844155844156" fill="rgb(39, 30, 31)"/><path d="M243,107L229,37L173,58Z" fill="rgb(126, 129, 192)" fill-opacity="0.66"/><path d="M13,150L12,84L34,110Z" fill="rgb(255, 230, 255)" fill-opacity="0.30"/><path d="M85,134L148,148L74,222Z" fill="rgb(199, 82, 40)" fill-opacity="0.50"/><path d="M184,150L236,188L139,168Z" fill="rgb(207, 138, 156)" fill-opacity="0.46"/><path d="M95,70L145,88L167,64Z" fill="rgb(29, 57, 244)" fill-opacity="0.50"/><path d="M35,83L26,62L10,87Z" fill="rgb(94, 124, 160)" fill-opacity="0.54"/><path d="M119,127L80,141L132,145Z" fill="rgb(55, 103, 198)" fill-opacity="0.52"/><path d="M209,51L216,101L245,66Z" fill="rgb(127, 121, 255)" fill-opacity="0.70"/><path d="M208,74L205,59L229,64Z" fill="rgb(146, 157, 255)" fill-opacity="0.72"/><path d="M269,15L200,46L262,59Z" fill="rgb(89, 104, 19)" fill-opacity="0.67"/><path d="M197,96L216,81L189,31Z" fill="rgb(10, 15, 25)" fill-opacity="0.48"/><path d="M205,-155L178,64L137,45Z" fill="rgb(19, 49, 88)" fill-opacity="0.92"/><path d="M143,95L140,120L102,98Z" fill="rgb(25, 51, 118)" fill-opacity="0.60"/><path d="M69,73L70,115L81,86Z" fill="rgb(128, 69, 42)" fill-opacity="0.52"/><path d="M-8,170L36,147L-2,86Z" fill="rgb(69, 56, 52)" fill-opacity="0.57"/><path d="M186,98L170,108L156,76Z" fill="rgb(136, 108, 108)" fill-opacity="0.49"/><path d="M191,71L165,50L229,41Z" fill="rgb(121, 138, 0)" fill-opacity="0.33"/><path d="M133,136L166,160L132,170Z" fill="rgb(51, 48, 36)" fill-opacity="0.97"/><path d="M267,87L226,91L240,140Z" fill="rgb(49, 40, 17)" fill-opacity="0.71"/><path d="M-89,31L96,91L241,-133Z" fill="rgb(0, 0, 9)" fill-opacity="0.56"/><path d="M98,64L139,86L125,59Z" fill="rgb(49, 75, 255)" fill-opacity="0.39"/><path d="M160,110L111,141L116,115Z" fill="rgb(14, 18, 15)" fill-opacity="0.61"/><path d="M99,33L86,105L88,42Z" fill="rgb(97, 7, 6)" fill-opacity="0.66"/><path d="M35,104L25,133L15,98Z" fill="rgb(224, 198, 246)" fill-opacity="0.28"/><path d="M78,101L80,70L70,67Z" fill="rgb(130, 69, 37)" fill-opacity="0.67"/><path d="M98,49L117,55L119,89Z" fill="rgb(40, 53, 104)" fill-opacity="0.52"/><path d="M118,145L127,131L133,144Z" fill="rgb(59, 112, 218)" fill-opacity="0.55"/><path d="M172,83L158,103L156,82Z" fill="rgb(126, 56, 13)" fill-opacity="0.75"/><path d="M233,93L234,58L202,67Z" fill="rgb(125, 124, 255)" fill-opacity="0.59"/><path d="M222,93L216,103L194,98Z" fill="rgb(126, 48, 20)" fill-opacity="0.58"/><path d="M114,144L105,129L90,136Z" fill="rgb(75, 100, 175)" fill-opacity="0.52"/><path d="M281,-13L176,47L191,0Z" fill="rgb(11, 5, 10)" fill-opacity="0.86"/><path d="M179,160L207,55L195,51Z" fill="rgb(34, 26, 33)" fill-opacity="0.86"/><path d="M232,53L244,93L285,106Z" fill="rgb(21, 8, 16)" fill-opacity="0.59"/><path d="M184,66L177,54L192,65Z" fill="rgb(208, 204, 93)" fill-opacity="0.50"/><path d="M187,58L193,72L191,51Z" fill="rgb(196, 213, 128)" fill-opacity="0.49"/><path d="M87,159L40,190L135,168Z" fill="rgb(83, 20, 4)" fill-opacity="0.99"/><path d="M234,55L223,79L240,82Z" fill="rgb(76, 52, 231)" fill-opacity="0.42"/><path d="M95,61L85,70L91,76Z" fill="rgb(209, 46, 18)" fill-opacity="0.43"/><path d="M130,-109L194,8L132,34Z" fill="rgb(6, 30, 68)" fill-opacity="0.73"/><path d="M167,102L182,106L180,86Z" fill="rgb(94, 105, 129)" fill-opacity="0.49"/><path d="M218,158L194,258L190,151Z" fill="rgb(89, 80, 67)" fill-opacity="0.79"/><path d="M128,143L134,171L83,147Z" fill="rgb(219, 86, 19)" fill-opacity="0.42"/><path d="M173,76L160,61L203,68Z" fill="rgb(0, 0, 6)" fill-opacity="0.44"/><path d="M172,79L170,70L95,77Z" fill="rgb(27, 54, 250)" fill-opacity="0.27"/><path d="M94,-28L53,129L31,79Z" fill="rgb(9, 7, 9)" fill-opacity="0.67"/><path d="M182,142L307,202L251,124Z" fill="rgb(14, 5, 5)" fill-opacity="0.67"/><path d="M216,74L212,99L200,72Z" fill="rgb(0, 0, 101)" fill-opacity="0.40"/><path d="M12,78L30,65L31,92Z" fill="rgb(94, 118, 147)" fill-opacity="0.47"/><path d="M144,23L37,17L140,54Z" fill="rgb(9, 7, 11)" fill-opacity="0.69"/><path d="M119,64L123,90L116,79Z" fill="rgb(22, 42, 182)" fill-opacity="0.57"/><path d="M6,156L0,169L0,156Z" fill="rgb(156, 182, 225)" fill-opacity="0.47"/><path d="M90,146L77,165L106,154Z" fill="rgb(187, 64, 4)" fill-opacity="0.50"/><path d="M101,130L94,133L101,144Z" fill="rgb(45, 102, 217)" fill-opacity="0.42"/><path d="M168,205L177,148L156,167Z" fill="rgb(200, 87, 138)" fill-opacity="0.38"/><path d="M35,112L97,140L14,83Z" fill="rgb(20, 6, 8)" fill-opacity="0.53"/><path d="M143,89L129,87L143,65Z" fill="rgb(36, 41, 96)" fill-opacity="0.52"/><path d="M202,164L163,160L201,173Z" fill="rgb(160, 132, 147)" fill-opacity="0.40"/><path d="M139,43L174,62L176,32Z" fill="rgb(46, 86, 130)" fill-opacity="0.56"/><path d="M9,116L18,99L32,112Z" fill="rgb(176, 139, 177)" fill-opacity="0.42"/><path d="M163,66L141,69L158,61Z" fill="rgb(40, 56, 152)" fill-opacity="0.81"/><path d="M19,143L24,220L1,137Z" fill="rgb(11, 32, 21)" fill-opacity="0.69"/><path d="M83,157L91,138L70,84Z" fill="rgb(52, 31, 16)" fill-opacity="0.59"/><path d="M117,100L87,118L88,144Z" fill="rgb(89, 31, 8)" fill-opacity="0.47"/><path d="M164,74L136,70L155,77Z" fill="rgb(40, 62, 222)" fill-opacity="0.47"/><path d="M168,55L219,18L265,24Z" fill="rgb(31, 67, 0)" fill-opacity="0.58"/><path d="M207,75L229,53L204,66Z" fill="rgb(146, 151, 250)" fill-opacity="0.50"/><path d="M12,43L14,107L-66,-18Z" fill="rgb(5, 0, 3)" fill-opacity="0.64"/><path d="M114,72L111,106L70,102Z" fill="rgb(13, 1, 13)" fill-opacity="0.56"/><path d="M-21,141L10,117L22,129Z" fill="rgb(62, 14, 5)" fill-opacity="0.51"/><path d="M33,126L73,46L30,105Z" fill="rgb(13, 7, 13)" fill-opacity="0.65"/><path d="M49,125L49,115L42,124Z" fill="rgb(216, 121, 77)" fill-opacity="0.50"/><path d="M213,91L223,50L229,99Z" fill="rgb(146, 146, 255)" fill-opacity="0.43"/><path d="M168,68L192,67L188,106Z" fill="rgb(4, 1, 10)" fill-opacity="0.63"/><path d="M238,85L212,106L275,118Z" fill="rgb(62, 48, 35)" fill-opacity="0.70"/><path d="M207,56L202,48L220,41Z" fill="rgb(181, 190, 113)" fill-opacity="0.39"/><path d="M142,114L111,107L147,103Z" fill="rgb(29, 58, 114)" fill-opacity="0.73"/><path d="M139,164L126,205L149,161Z" fill="rgb(131, 63, 87)" fill-opacity="0.63"/><path d="M187,110L122,87L165,115Z" fill="rgb(0, 0, 0)" fill-opacity="0.42"/><path d="M117,89L145,104L129,78Z" fill="rgb(1, 7, 27)" fill-opacity="0.46"/><path d="M39,140L13,149L36,147Z" fill="rgb(118, 54, 25)" fill-opacity="0.48"/><path d="M188,15L199,-55L180,33Z" fill="rgb(8, 42, 91)" fill-opacity="0.55"/><path d="M162,47L167,26L122,62Z" fill="rgb(25, 60, 103)" fill-opacity="0.62"/><path d="M252,71L268,64L234,68Z" fill="rgb(94, 84, 103)" fill-opacity="0.47"/><path d="M179,55L204,47L182,65Z" fill="rgb(170, 182, 79)" fill-opacity="0.54"/><path d="M158,62L162,66L148,67Z" fill="rgb(62, 101, 255)" fill-opacity="0.46"/><path d="M45,108L95,115L58,143Z" fill="rgb(20, 11, 4)" fill-opacity="0.49"/><path d="M8,96L3,112L-7,92Z" fill="rgb(126, 92, 108)" fill-opacity="0.49"/><path d="M150,76L142,87L186,77Z" fill="rgb(11, 8, 50)" fill-opacity="0.53"/><path d="M234,59L226,52L221,59Z" fill="rgb(89, 85, 246)" fill-opacity="0.63"/><path d="M205,50L193,56L205,102Z" fill="rgb(25, 22, 38)" fill-opacity="0.67"/><path d="M30,125L11,104L27,101Z" fill="rgb(167, 146, 171)" fill-opacity="0.53"/><path d="M136,70L182,73L126,62Z" fill="rgb(39, 33, 51)" fill-opacity="0.58"/><path d="M156,99L175,85L180,97Z" fill="rgb(105, 95, 104)" fill-opacity="0.57"/><path d="M28,115L-21,127L20,111Z" fill="rgb(123, 84, 95)" fill-opacity="0.61"/><path d="M247,55L281,57L250,51Z" fill="rgb(144, 104, 99)" fill-opacity="0.55"/><path d="M100,152L100,172L115,157Z" fill="rgb(66, 29, 24)" fill-opacity="0.50"/><path d="M173,71L176,47L184,45Z" fill="rgb(17, 18, 0)" fill-opacity="0.46"/><path d="M47,105L71,114L80,104Z" fill="rgb(68, 51, 66)" fill-opacity="0.58"/><path d="M207,157L185,158L205,164Z" fill="rgb(29, 18, 27)" fill-opacity="0.48"/><path d="M135,71L125,68L121,80Z" fill="rgb(43, 77, 255)" fill-opacity="0.52"/><path d="M229,54L243,55L232,33Z" fill="rgb(105, 108, 44)" fill-opacity="0.56"/><path d="M238,72L232,93L251,63Z" fill="rgb(83, 53, 67)" fill-opacity="0.53"/><path d="M248,119L230,123L280,73Z" fill="rgb(57, 67, 0)" fill-opacity="0.58"/><path d="M211,44L205,57L212,62Z" fill="rgb(168, 166, 133)" fill-opacity="0.54"/><path d="M109,133L98,130L88,144Z" fill="rgb(49, 91, 178)" fill-opacity="0.49"/><path d="M142,51L171,60L148,65Z" fill="rgb(0, 0, 10)" fill-opacity="0.60"/><path d="M103,131L121,133L115,102Z" fill="rgb(13, 21, 10)" fill-opacity="0.56"/><path d="M29,102L13,93L18,106Z" fill="rgb(149, 97, 114)" fill-opacity="0.56"/><path d="M180,156L158,138L218,139Z" fill="rgb(25, 15, 13)" fill-opacity="0.63"/><path d="M98,48L90,46L93,39Z" fill="rgb(202, 0, 8)" fill-opacity="0.49"/><path d="M72,97L69,81L81,72Z" fill="rgb(141, 75, 34)" fill-opacity="0.60"/><path d="M175,108L182,152L214,107Z" fill="rgb(28, 7, 0)" fill-opacity="0.44"/><path d="M233,33L248,26L224,46Z" fill="rgb(94, 108, 38)" fill-opacity="0.64"/><path d="M181,152L179,184L198,171Z" fill="rgb(120, 114, 114)" fill-opacity="0.65"/><path d="M149,76L142,69L143,82Z" fill="rgb(36, 62, 247)" fill-opacity="0.46"/><path d="M246,-33L276,32L244,16Z" fill="rgb(4, 0, 5)" fill-opacity="0.76"/><path d="M145,113L110,97L135,97Z" fill="rgb(55, 66, 127)" fill-opacity="0.54"/><path d="M179,64L176,61L185,56Z" fill="rgb(191, 163, 115)" fill-opacity="0.44"/><path d="M112,134L136,151L117,129Z" fill="rgb(54, 86, 156)" fill-opacity="0.51"/><path d="M107,56L99,70L108,63Z" fill="rgb(153, 136, 89)" fill-opacity="0.35"/><path d="M131,146L133,165L135,159Z" fill="rgb(54, 71, 119)" fill-opacity="0.50"/><path d="M23,154L9,153L28,151Z" fill="rgb(69, 93, 101)" fill-opacity="0.52"/><path d="M15,74L33,85L30,94Z" fill="rgb(80, 103, 127)" fill-opacity="0.54"/><path d="M22,64L20,84L12,79Z" fill="rgb(65, 81, 104)" fill-opacity="0.68"/><path d="M80,104L62,99L64,87Z" fill="rgb(16, 15, 29)" fill-opacity="0.58"/><path d="M106,156L133,162L125,185Z" fill="rgb(162, 48, 0)" fill-opacity="0.42"/><path d="M220,92L216,74L230,79Z" fill="rgb(178, 181, 255)" fill-opacity="0.39"/><path d="M214,165L289,173L189,171Z" fill="rgb(71, 69, 37)" fill-opacity="0.72"/><path d="M167,79L154,91L156,98Z" fill="rgb(129, 54, 7)" fill-opacity="0.51"/><path d="M134,161L132,117L158,106Z" fill="rgb(5, 9, 1)" fill-opacity="0.29"/><path d="M260,64L270,110L240,86Z" fill="rgb(0, 0, 0)" fill-opacity="0.44"/><path d="M160,137L162,134L189,136Z" fill="rgb(122, 78, 54)" fill-opacity="0.63"/><path d="M2,163L9,157L-1,147Z" fill="rgb(97, 104, 126)" fill-opacity="0.46"/><path d="M143,86L152,103L156,88Z" fill="rgb(7, 8, 8)" fill-opacity="0.54"/><path d="M140,82L148,84L126,87Z" fill="rgb(12, 13, 33)" fill-opacity="0.50"/><path d="M130,80L130,87L121,78Z" fill="rgb(19, 21, 64)" fill-opacity="0.77"/><path d="M111,61L127,63L126,60Z" fill="rgb(23, 57, 255)" fill-opacity="0.48"/><path d="M221,64L209,60L227,51Z" fill="rgb(127, 117, 209)" fill-opacity="0.64"/><path d="M139,71L137,85L147,55Z" fill="rgb(79, 76, 127)" fill-opacity="0.52"/><path d="M244,72L235,51L229,52Z" fill="rgb(81, 64, 60)" fill-opacity="0.50"/><path d="M88,145L8,292L44,134Z" fill="rgb(39, 47, 21)" fill-opacity="0.74"/><path d="M229,68L209,60L203,74Z" fill="rgb(145, 162, 255)" fill-opacity="0.46"/><path d="M147,34L138,69L108,49Z" fill="rgb(0, 11, 31)" fill-opacity="0.33"/><path d="M236,83L224,97L234,78Z" fill="rgb(113, 79, 255)" fill-opacity="0.41"/><path d="M189,70L195,105L204,62Z" fill="rgb(48, 45, 60)" fill-opacity="0.50"/><path d="M161,116L160,138L180,110Z" fill="rgb(82, 44, 48)" fill-opacity="0.43"/><path d="M187,63L188,56L194,66Z" fill="rgb(187, 204, 139)" fill-opacity="0.52"/><path d="M245,36L266,48L235,47Z" fill="rgb(45, 43, 11)" fill-opacity="0.48"/><path d="M26,118L25,123L14,120Z" fill="rgb(165, 150, 177)" fill-opacity="0.50"/><path d="M111,130L109,140L98,145Z" fill="rgb(141, 104, 120)" fill-opacity="0.51"/><path d="M192,157L219,157L189,153Z" fill="rgb(134, 109, 112)" fill-opacity="0.56"/><path d="M107,60L108,66L105,61Z" fill="rgb(143, 142, 132)" fill-opacity="0.50"/><path d="M119,89L114,91L119,80Z" fill="rgb(45, 150, 119)" fill-opacity="0.42"/><path d="M78,26L93,34L86,65Z" fill="rgb(11, 3, 5)" fill-opacity="0.58"/><path d="M231,99L239,109L206,112Z" fill="rgb(67, 52, 58)" fill-opacity="0.41"/><path d="M4,139L-43,136L32,133Z" fill="rgb(31, 84, 107)" fill-opacity="0.38"/><path d="M149,94L140,104L135,102Z" fill="rgb(26, 25, 3)" fill-opacity="0.54"/><path d="M8,113L-6,109L11,120Z" fill="rgb(16, 3, 15)" fill-opacity="0.51"/><path d="M60,97L59,110L85,111Z" fill="rgb(72, 55, 73)" fill-opacity="0.45"/><path d="M132,145L119,132L116,145Z" fill="rgb(44, 99, 213)" fill-opacity="0.38"/><path d="M38,111L34,137L43,119Z" fill="rgb(27, 19, 83)" fill-opacity="0.54"/><path d="M237,125L253,109L265,103Z" fill="rgb(129, 96, 26)" fill-opacity="0.45"/><path d="M188,174L176,164L162,183Z" fill="rgb(114, 45, 31)" fill-opacity="0.64"/><path d="M84,140L132,167L131,147Z" fill="rgb(184, 80, 31)" fill-opacity="0.44"/><path d="M-35,51L13,-37L80,-1Z" fill="rgb(3, 13, 39)" fill-opacity="0.57"/><path d="M102,64L97,83L89,45Z" fill="rgb(24, 2, 6)" fill-opacity="0.47"/><path d="M109,165L70,166L93,264Z" fill="rgb(31, 0, 4)" fill-opacity="0.48"/><path d="M188,128L190,136L173,149Z" fill="rgb(70, 40, 26)" fill-opacity="0.52"/><path d="M-2,144L20,146L24,177Z" fill="rgb(20, 33, 23)" fill-opacity="0.69"/><path d="M197,73L216,74L214,79Z" fill="rgb(0, 0, 103)" fill-opacity="0.45"/><path d="M76,99L92,75L95,118Z" fill="rgb(28, 6, 8)" fill-opacity="0.54"/><path d="M147,108L158,98L142,101Z" fill="rgb(40, 39, 54)" fill-opacity="0.53"/><path d="M121,0L145,22L166,-35Z" fill="rgb(6, 35, 75)" fill-opacity="0.43"/><path d="M235,-3L208,24L234,20Z" fill="rgb(7, 0, 2)" fill-opacity="0.44"/><path d="M110,139L138,117L107,137Z" fill="rgb(39, 33, 28)" fill-opacity="0.56"/><path d="M154,86L153,76L146,76Z" fill="rgb(10, 21, 118)" fill-opacity="0.53"/><path d="M237,70L242,72L239,94Z" fill="rgb(98, 68, 73)" fill-opacity="0.51"/><path d="M132,141L130,132L123,146Z" fill="rgb(59, 102, 189)" fill-opacity="0.40"/><path d="M210,99L201,113L188,88Z" fill="rgb(75, 42, 14)" fill-opacity="0.53"/><path d="M174,43L175,59L143,49Z" fill="rgb(50, 83, 122)" fill-opacity="0.49"/><path d="M22,101L14,96L22,91Z" fill="rgb(151, 96, 105)" fill-opacity="0.67"/><path d="M199,107L189,128L181,87Z" fill="rgb(15, 9, 10)" fill-opacity="0.57"/><path d="M2,32L59,46L10,73Z" fill="rgb(6, 5, 5)" fill-opacity="0.54"/><path d="M112,98L83,92L77,61Z" fill="rgb(11, 9, 12)" fill-opacity="0.50"/><path d="M122,109L146,139L96,127Z" fill="rgb(28, 27, 14)" fill-opacity="0.53"/><path d="M233,50L249,28L212,51Z" fill="rgb(65, 88, 24)" fill-opacity="0.51"/><path d="M223,69L234,70L222,78Z" fill="rgb(89, 86, 255)" fill-opacity="0.51"/><path d="M83,97L93,92L88,99Z" fill="rgb(153, 12, 7)" fill-opacity="0.41"/><path d="M5,103L19,97L6,113Z" fill="rgb(79, 29, 16)" fill-opacity="0.50"/><path d="M180,86L175,103L185,107Z" fill="rgb(85, 85, 98)" fill-opacity="0.55"/><path d="M156,145L172,154L154,131Z" fill="rgb(7, 5, 6)" fill-opacity="0.43"/><path d="M220,51L223,48L231,55Z" fill="rgb(44, 39, 131)" fill-opacity="0.54"/><path d="M109,103L122,113L151,114Z" fill="rgb(0, 38, 94)" fill-opacity="0.47"/><path d="M160,80L156,85L187,90Z" fill="rgb(101, 41, 0)" fill-opacity="0.67"/><path d="M106,72L106,82L120,66Z" fill="rgb(29, 29, 132)" fill-opacity="0.42"/><path d="M205,94L213,104L222,96Z" fill="rgb(122, 41, 13)" fill-opacity="0.55"/><path d="M175,112L176,125L172,121Z" fill="rgb(92, 53, 58)" fill-opacity="0.60"/><path d="M96,105L111,110L97,134Z" fill="rgb(94, 42, 23)" fill-opacity="0.46"/><path d="M214,94L226,95L214,84Z" fill="rgb(95, 91, 241)" fill-opacity="0.55"/></svg>