<svg xmlns="http://www.w3.org/2000/svg" viewBox="0 0 256 169.55844155844156" clip-path="url(#clip)" width="512" height="339.1168831168831"><defs><clipPath id="clip" clipPathUnits="objectBoundingBox"><rect x="0" y="0" width="256" height="169.55844155844156"/></clipPath></defs><rect x="0" y="0" width="256" height="169.55844155844156" fill="rgb(12, 31, 37)"/><path d="M219,236L54,154L213,143Z" fill="rgb(22, 188, 172)" fill-opacity="0.78"/><path d="M109,105L66,115L76,29Z" fill="rgb(255, 137, 88)" fill-opacity="0.55"/><path d="M193,123L115,215L199,139Z" fill="rgb(22, 202, 188)" fill-opacity="1.00"/><path d="M187,84L170,125L133,115Z" fill="rgb(75, 220, 198)" fill-opacity="0.60"/><path d="M201,123L195,119L191,140Z" fill="rgb(35, 251, 228)" fill-opacity="0.52"/><path d="M193,110L159,159L85,149Z" fill="rgb(10, 6, 6)" fill-opacity="0.79"/><path d="M76,163L66,143L142,162Z" fill="rgb(75, 255, 255)" fill-opacity="0.60"/><path d="M69,71L100,58L81,109Z" fill="rgb(245, 145, 112)" fill-opacity="0.58"/><path d="M204,112L156,106L174,83Z" fill="rgb(146, 255, 252)" fill-opacity="0.27"/><path d="M202,141L218,161L219,140Z" fill="rgb(0, 230, 197)" fill-opacity="0.45"/><path d="M-203,-313L75,349L68,12Z" fill="rgb(15, 5, 10)" fill-opacity="0.95"/><path d="M190,146L197,212L203,150Z" fill="rgb(0, 11, 8)" fill-opacity="0.53"/><path d="M17,34L11,53L-56,58Z" fill="rgb(222, 123, 74)" fill-opacity="0.74"/><path d="M146,158L94,152L234,209Z" fill="rgb(63, 252, 239)" fill-opacity="0.68"/><path d="M135,97L112,117L135,137Z" fill="rgb(0, 255, 195)" fill-opacity="0.30"/><path d="M174,-76L29,37L122,75Z" fill="rgb(16, 3, 5)" fill-opacity="0.78"/><path d="M153,108L163,114L154,125Z" fill="rgb(52, 255, 236)" fill-opacity="0.50"/><path d="M73,147L68,152L104,153Z" fill="rgb(173, 255, 255)" fill-opacity="0.52"/><path d="M104,72L101,53L109,62Z" fill="rgb(255, 180, 111)" fill-opacity="0.35"/><path d="M139,166L186,143L159,165Z" fill="rgb(36, 255, 244)" fill-opacity="0.51"/><path d="M103,88L92,55L70,49Z" fill="rgb(250, 97, 29)" fill-opacity="0.49"/><path d="M103,129L103,107L62,111Z" fill="rgb(46, 92, 71)" fill-opacity="0.60"/><path d="M186,158L206,162L175,206Z" fill="rgb(0, 19, 11)" fill-opacity="0.29"/><path d="M151,116L160,105L115,71Z" fill="rgb(3, 64, 50)" fill-opacity="0.65"/><path d="M139,87L158,83L160,73Z" fill="rgb(1, 162, 143)" fill-opacity="0.48"/><path d="M93,61L66,57L127,50Z" fill="rgb(46, 23, 14)" fill-opacity="0.62"/><path d="M82,62L80,87L67,71Z" fill="rgb(244, 177, 149)" fill-opacity="0.52"/><path d="M166,107L166,87L176,97Z" fill="rgb(165, 242, 238)" fill-opacity="0.63"/><path d="M163,271L70,163L126,158Z" fill="rgb(0, 205, 182)" fill-opacity="0.50"/><path d="M184,31L175,15L161,41Z" fill="rgb(0, 83, 37)" fill-opacity="0.61"/><path d="M250,39L196,116L288,216Z" fill="rgb(9, 0, 6)" fill-opacity="0.82"/><path d="M150,96L286,47L217,-40Z" fill="rgb(5, 3, 64)" fill-opacity="0.53"/><path d="M102,109L99,74L127,110Z" fill="rgb(20, 12, 4)" fill-opacity="0.67"/><path d="M78,124L117,142L57,149Z" fill="rgb(21, 12, 10)" fill-opacity="0.79"/><path d="M175,88L170,95L183,91Z" fill="rgb(185, 255, 255)" fill-opacity="0.48"/><path d="M139,118L130,115L182,108Z" fill="rgb(53, 230, 210)" fill-opacity="0.47"/><path d="M160,80L147,99L166,102Z" fill="rgb(1, 7, 1)" fill-opacity="0.61"/><path d="M26,35L-19,66L-21,27Z" fill="rgb(183, 95, 58)" fill-opacity="0.45"/><path d="M70,108L98,71L103,111Z" fill="rgb(180, 99, 69)" fill-opacity="0.57"/><path d="M97,63L71,68L71,57Z" fill="rgb(245, 96, 34)" fill-opacity="0.61"/><path d="M87,59L101,113L99,76Z" fill="rgb(255, 102, 31)" fill-opacity="0.43"/><path d="M87,158L116,155L66,145Z" fill="rgb(110, 251, 249)" fill-opacity="0.56"/><path d="M71,58L-61,135L70,89Z" fill="rgb(10, 6, 10)" fill-opacity="0.85"/><path d="M209,129L199,120L190,179Z" fill="rgb(1, 38, 31)" fill-opacity="0.54"/><path d="M175,117L159,106L168,125Z" fill="rgb(0, 65, 50)" fill-opacity="0.53"/><path d="M7,42L-18,48L9,54Z" fill="rgb(255, 166, 107)" fill-opacity="0.63"/><path d="M159,113L190,89L155,126Z" fill="rgb(56, 217, 199)" fill-opacity="0.48"/><path d="M210,165L200,151L219,138Z" fill="rgb(0, 200, 177)" fill-opacity="0.51"/><path d="M196,121L171,149L119,154Z" fill="rgb(11, 12, 13)" fill-opacity="0.69"/><path d="M219,-11L156,26L41,1Z" fill="rgb(8, 2, 9)" fill-opacity="0.80"/><path d="M136,38L226,48L131,81Z" fill="rgb(3, 10, 82)" fill-opacity="0.43"/><path d="M161,107L158,100L166,106Z" fill="rgb(195, 254, 251)" fill-opacity="0.66"/><path d="M214,136L227,150L226,183Z" fill="rgb(0, 108, 87)" fill-opacity="0.49"/><path d="M79,119L70,91L74,61Z" fill="rgb(208, 170, 162)" fill-opacity="0.42"/><path d="M3,39L16,54L9,29Z" fill="rgb(85, 25, 5)" fill-opacity="0.53"/><path d="M200,139L186,193L191,140Z" fill="rgb(0, 119, 105)" fill-opacity="0.62"/><path d="M103,126L93,121L96,113Z" fill="rgb(2, 140, 122)" fill-opacity="0.49"/><path d="M132,118L131,87L139,118Z" fill="rgb(0, 165, 136)" fill-opacity="0.43"/><path d="M220,83L179,83L185,96Z" fill="rgb(3, 6, 0)" fill-opacity="0.53"/><path d="M141,94L146,99L140,99Z" fill="rgb(13, 255, 227)" fill-opacity="0.53"/><path d="M193,124L165,158L202,122Z" fill="rgb(88, 255, 255)" fill-opacity="0.49"/><path d="M130,117L134,89L134,133Z" fill="rgb(0, 183, 156)" fill-opacity="0.51"/><path d="M195,107L168,149L187,101Z" fill="rgb(0, 26, 18)" fill-opacity="0.59"/><path d="M217,62L191,102L259,110Z" fill="rgb(13, 8, 10)" fill-opacity="0.80"/><path d="M177,101L183,101L184,90Z" fill="rgb(255, 255, 255)" fill-opacity="0.27"/><path d="M148,130L157,120L147,108Z" fill="rgb(0, 152, 121)" fill-opacity="0.44"/><path d="M121,46L214,31L148,19Z" fill="rgb(0, 52, 18)" fill-opacity="0.44"/><path d="M100,58L110,72L105,84Z" fill="rgb(35, 76, 56)" fill-opacity="0.60"/><path d="M119,118L119,129L127,104Z" fill="rgb(24, 195, 175)" fill-opacity="0.51"/><path d="M75,163L123,158L70,152Z" fill="rgb(0, 253, 228)" fill-opacity="0.42"/><path d="M178,88L178,100L173,101Z" fill="rgb(41, 63, 59)" fill-opacity="0.52"/><path d="M95,109L94,83L88,116Z" fill="rgb(65, 35, 23)" fill-opacity="0.53"/><path d="M157,160L105,120L99,151Z" fill="rgb(20, 19, 18)" fill-opacity="0.79"/><path d="M73,52L97,59L95,53Z" fill="rgb(207, 99, 49)" fill-opacity="0.43"/><path d="M213,157L224,147L201,201Z" fill="rgb(0, 79, 66)" fill-opacity="0.54"/><path d="M60,103L52,91L70,97Z" fill="rgb(123, 63, 7)" fill-opacity="0.54"/><path d="M233,136L197,114L203,139Z" fill="rgb(17, 9, 9)" fill-opacity="0.70"/><path d="M137,165L156,159L143,158Z" fill="rgb(76, 243, 238)" fill-opacity="0.59"/><path d="M136,157L122,155L133,161Z" fill="rgb(165, 252, 255)" fill-opacity="0.52"/><path d="M186,99L197,116L202,104Z" fill="rgb(14, 171, 125)" fill-opacity="0.45"/><path d="M153,82L162,67L155,90Z" fill="rgb(16, 135, 120)" fill-opacity="0.48"/><path d="M123,169L190,175L153,162Z" fill="rgb(0, 188, 167)" fill-opacity="0.69"/><path d="M172,100L183,95L176,96Z" fill="rgb(12, 33, 33)" fill-opacity="0.46"/><path d="M141,105L144,100L143,89Z" fill="rgb(15, 202, 166)" fill-opacity="0.56"/><path d="M60,131L77,108L95,136Z" fill="rgb(37, 42, 28)" fill-opacity="0.58"/><path d="M122,110L116,129L107,110Z" fill="rgb(23, 84, 66)" fill-opacity="0.52"/><path d="M176,88L186,95L177,91Z" fill="rgb(157, 255, 255)" fill-opacity="0.52"/><path d="M176,99L186,94L176,106Z" fill="rgb(126, 236, 227)" fill-opacity="0.52"/><path d="M141,146L121,143L128,121Z" fill="rgb(1, 8, 9)" fill-opacity="0.52"/><path d="M125,152L157,160L185,129Z" fill="rgb(13, 10, 12)" fill-opacity="0.58"/><path d="M101,158L73,155L70,148Z" fill="rgb(57, 255, 255)" fill-opacity="0.59"/><path d="M196,165L200,126L206,215Z" fill="rgb(0, 35, 34)" fill-opacity="0.56"/><path d="M175,101L168,116L185,108Z" fill="rgb(0, 172, 137)" fill-opacity="0.47"/><path d="M169,113L153,102L153,109Z" fill="rgb(4, 43, 35)" fill-opacity="0.50"/><path d="M157,109L139,112L142,105Z" fill="rgb(0, 23, 15)" fill-opacity="0.52"/><path d="M96,86L98,68L71,58Z" fill="rgb(240, 102, 45)" fill-opacity="0.52"/><path d="M170,78L169,92L215,71Z" fill="rgb(5, 26, 46)" fill-opacity="0.63"/><path d="M165,36L179,23L184,37Z" fill="rgb(0, 93, 54)" fill-opacity="0.50"/><path d="M121,104L102,81L137,76Z" fill="rgb(11, 16, 8)" fill-opacity="0.50"/><path d="M106,69L107,62L100,53Z" fill="rgb(233, 122, 75)" fill-opacity="0.48"/><path d="M151,90L143,87L145,110Z" fill="rgb(7, 4, 9)" fill-opacity="0.50"/><path d="M159,18L182,21L163,33Z" fill="rgb(0, 99, 47)" fill-opacity="0.30"/><path d="M205,140L216,163L214,139Z" fill="rgb(0, 162, 144)" fill-opacity="0.51"/><path d="M155,164L191,139L182,137Z" fill="rgb(48, 255, 251)" fill-opacity="0.56"/><path d="M83,124L92,125L86,109Z" fill="rgb(0, 104, 86)" fill-opacity="0.47"/><path d="M129,89L146,83L137,91Z" fill="rgb(0, 149, 113)" fill-opacity="0.49"/><path d="M169,111L166,123L155,125Z" fill="rgb(0, 99, 80)" fill-opacity="0.44"/><path d="M145,118L160,112L163,117Z" fill="rgb(83, 255, 251)" fill-opacity="0.45"/><path d="M195,150L200,117L182,154Z" fill="rgb(0, 188, 166)" fill-opacity="0.46"/><path d="M198,119L186,133L186,98Z" fill="rgb(0, 41, 28)" fill-opacity="0.51"/><path d="M13,53L84,49L72,-60Z" fill="rgb(9, 3, 10)" fill-opacity="0.83"/><path d="M99,126L96,127L100,107Z" fill="rgb(9, 185, 159)" fill-opacity="0.40"/><path d="M95,56L72,49L70,52Z" fill="rgb(240, 133, 77)" fill-opacity="0.49"/><path d="M124,119L131,113L121,139Z" fill="rgb(1, 37, 23)" fill-opacity="0.46"/><path d="M191,94L181,101L171,118Z" fill="rgb(0, 81, 59)" fill-opacity="0.49"/><path d="M77,68L71,122L71,67Z" fill="rgb(247, 193, 175)" fill-opacity="0.37"/><path d="M171,104L171,96L175,100Z" fill="rgb(219, 255, 255)" fill-opacity="0.47"/><path d="M80,110L89,149L78,148Z" fill="rgb(23, 12, 9)" fill-opacity="0.49"/><path d="M151,125L139,117L130,141Z" fill="rgb(1, 1, 0)" fill-opacity="0.48"/><path d="M64,94L60,98L60,94Z" fill="rgb(255, 179, 70)" fill-opacity="0.49"/><path d="M93,105L78,76L75,111Z" fill="rgb(164, 121, 112)" fill-opacity="0.47"/><path d="M112,163L143,160L102,151Z" fill="rgb(88, 248, 244)" fill-opacity="0.54"/><path d="M201,154L218,137L204,185Z" fill="rgb(0, 193, 174)" fill-opacity="0.46"/><path d="M194,94L174,87L199,82Z" fill="rgb(3, 17, 16)" fill-opacity="0.66"/><path d="M89,54L98,11L111,59Z" fill="rgb(14, 13, 14)" fill-opacity="0.77"/><path d="M188,130L199,121L185,146Z" fill="rgb(63, 255, 246)" fill-opacity="0.55"/><path d="M12,45L2,33L20,36Z" fill="rgb(145, 74, 51)" fill-opacity="0.50"/><path d="M-151,164L75,172L42,39Z" fill="rgb(6, 2, 9)" fill-opacity="0.66"/><path d="M137,115L146,111L150,118Z" fill="rgb(106, 248, 239)" fill-opacity="0.48"/><path d="M103,62L61,49L69,57Z" fill="rgb(36, 12, 6)" fill-opacity="0.59"/><path d="M161,112L152,115L160,115Z" fill="rgb(175, 255, 255)" fill-opacity="0.52"/><path d="M51,75L57,69L57,59Z" fill="rgb(3, 63, 52)" fill-opacity="0.58"/><path d="M385,143L242,109L228,173Z" fill="rgb(6, 1, 8)" fill-opacity="0.83"/><path d="M169,98L168,88L165,92Z" fill="rgb(188, 255, 255)" fill-opacity="0.53"/><path d="M192,37L294,6L177,-55Z" fill="rgb(9, 12, 46)" fill-opacity="0.94"/><path d="M196,108L198,102L193,105Z" fill="rgb(211, 232, 240)" fill-opacity="0.39"/><path d="M157,109L158,106L148,104Z" fill="rgb(62, 119, 110)" fill-opacity="0.53"/><path d="M186,37L194,23L172,1Z" fill="rgb(0, 14, 1)" fill-opacity="0.55"/><path d="M148,179L195,140L187,163Z" fill="rgb(0, 169, 152)" fill-opacity="0.52"/><path d="M116,87L105,70L134,57Z" fill="rgb(28, 13, 9)" fill-opacity="0.56"/><path d="M172,78L155,86L156,65Z" fill="rgb(8, 75, 84)" fill-opacity="0.44"/><path d="M91,77L69,78L92,104Z" fill="rgb(186, 118, 101)" fill-opacity="0.53"/><path d="M165,119L148,121L161,125Z" fill="rgb(1, 130, 111)" fill-opacity="0.54"/><path d="M-1,69L-1,57L13,49Z" fill="rgb(108, 22, 0)" fill-opacity="0.38"/><path d="M166,93L164,104L157,97Z" fill="rgb(0, 0, 0)" fill-opacity="0.51"/><path d="M71,159L120,158L129,167Z" fill="rgb(1, 218, 193)" fill-opacity="0.42"/><path d="M159,109L146,96L157,96Z" fill="rgb(7, 4, 8)" fill-opacity="0.55"/><path d="M107,58L105,67L103,58Z" fill="rgb(255, 136, 79)" fill-opacity="0.53"/><path d="M183,107L172,110L192,100Z" fill="rgb(28, 173, 149)" fill-opacity="0.48"/><path d="M76,129L64,151L83,137Z" fill="rgb(14, 9, 10)" fill-opacity="0.52"/><path d="M120,154L95,123L75,147Z" fill="rgb(17, 15, 14)" fill-opacity="0.67"/><path d="M162,155L173,155L151,165Z" fill="rgb(42, 248, 235)" fill-opacity="0.63"/><path d="M36,-112L-3,29L34,38Z" fill="rgb(13, 2, 9)" fill-opacity="0.86"/><path d="M94,112L91,104L74,102Z" fill="rgb(150, 95, 74)" fill-opacity="0.52"/><path d="M194,128L199,129L163,165Z" fill="rgb(13, 254, 228)" fill-opacity="0.39"/><path d="M201,108L196,124L200,93Z" fill="rgb(0, 73, 50)" fill-opacity="0.51"/><path d="M161,105L169,102L169,112Z" fill="rgb(132, 255, 255)" fill-opacity="0.37"/><path d="M148,119L146,109L153,124Z" fill="rgb(20, 203, 178)" fill-opacity="0.52"/><path d="M7,59L72,100L14,42Z" fill="rgb(14, 5, 10)" fill-opacity="0.76"/><path d="M78,110L76,131L71,128Z" fill="rgb(43, 68, 54)" fill-opacity="0.53"/><path d="M54,116L74,116L74,126Z" fill="rgb(0, 27, 24)" fill-opacity="0.50"/><path d="M114,117L113,144L103,115Z" fill="rgb(17, 14, 12)" fill-opacity="0.70"/><path d="M7,56L-4,40L10,41Z" fill="rgb(229, 130, 82)" fill-opacity="0.47"/><path d="M219,120L215,123L212,115Z" fill="rgb(0, 59, 49)" fill-opacity="0.60"/><path d="M200,108L184,108L199,107Z" fill="rgb(0, 0, 0)" fill-opacity="0.39"/><path d="M111,168L77,159L64,191Z" fill="rgb(0, 165, 153)" fill-opacity="0.60"/><path d="M175,89L187,96L175,91Z" fill="rgb(154, 255, 255)" fill-opacity="0.53"/><path d="M75,134L67,134L74,121Z" fill="rgb(97, 42, 23)" fill-opacity="0.41"/><path d="M138,160L126,155L152,160Z" fill="rgb(166, 244, 251)" fill-opacity="0.51"/><path d="M121,59L123,104L131,138Z" fill="rgb(4, 47, 38)" fill-opacity="0.68"/><path d="M156,88L168,88L156,89Z" fill="rgb(0, 120, 69)" fill-opacity="0.50"/><path d="M127,131L138,128L112,123Z" fill="rgb(0, 122, 93)" fill-opacity="0.38"/><path d="M150,167L186,169L97,169Z" fill="rgb(0, 155, 142)" fill-opacity="0.46"/><path d="M93,124L92,82L96,89Z" fill="rgb(44, 25, 14)" fill-opacity="0.39"/><path d="M72,10L132,82L133,17Z" fill="rgb(8, 7, 10)" fill-opacity="0.53"/><path d="M188,85L184,105L184,95Z" fill="rgb(6, 62, 49)" fill-opacity="0.65"/><path d="M190,38L161,38L131,81Z" fill="rgb(6, 13, 68)" fill-opacity="0.49"/><path d="M232,73L218,79L222,69Z" fill="rgb(7, 10, 50)" fill-opacity="0.51"/><path d="M71,149L69,150L72,163Z" fill="rgb(0, 81, 73)" fill-opacity="0.56"/><path d="M76,98L70,64L72,116Z" fill="rgb(181, 125, 111)" fill-opacity="0.48"/><path d="M160,69L157,68L160,74Z" fill="rgb(0, 176, 124)" fill-opacity="0.50"/><path d="M89,118L89,132L86,120Z" fill="rgb(16, 141, 121)" fill-opacity="0.48"/><path d="M183,191L203,149L197,132Z" fill="rgb(0, 70, 63)" fill-opacity="0.39"/><path d="M163,153L156,169L185,142Z" fill="rgb(37, 246, 231)" fill-opacity="0.58"/><path d="M55,132L71,122L70,85Z" fill="rgb(8, 28, 23)" fill-opacity="0.41"/><path d="M209,170L214,167L245,172Z" fill="rgb(0, 25, 25)" fill-opacity="0.60"/><path d="M173,117L163,131L163,115Z" fill="rgb(0, 41, 34)" fill-opacity="0.51"/><path d="M184,96L176,102L184,99Z" fill="rgb(189, 255, 255)" fill-opacity="0.47"/><path d="M102,114L100,129L119,115Z" fill="rgb(23, 29, 24)" fill-opacity="0.45"/><path d="M154,119L161,115L162,120Z" fill="rgb(19, 253, 227)" fill-opacity="0.59"/><path d="M104,63L109,80L107,65Z" fill="rgb(172, 108, 60)" fill-opacity="0.41"/><path d="M-3,51L8,45L10,52Z" fill="rgb(255, 172, 104)" fill-opacity="0.50"/><path d="M181,95L175,101L175,92Z" fill="rgb(0, 3, 0)" fill-opacity="0.54"/><path d="M152,69L159,62L172,61Z" fill="rgb(16, 17, 7)" fill-opacity="0.52"/><path d="M62,62L56,95L31,93Z" fill="rgb(15, 19, 17)" fill-opacity="0.49"/><path d="M69,115L72,112L74,115Z" fill="rgb(161, 95, 81)" fill-opacity="0.51"/><path d="M171,108L168,111L171,81Z" fill="rgb(12, 100, 82)" fill-opacity="0.44"/><path d="M193,98L199,79L205,113Z" fill="rgb(8, 26, 24)" fill-opacity="0.56"/><path d="M263,60L164,69L215,12Z" fill="rgb(8, 16, 59)" fill-opacity="0.57"/><path d="M140,145L114,127L138,131Z" fill="rgb(11, 21, 19)" fill-opacity="0.52"/></svg>