<svg xmlns="http://www.w3.org/2000/svg" viewBox="0 0 256 169.55844155844156" clip-path="url(#clip)" width="512" height="339.1168831168831"><defs><clipPath id="clip" clipPathUnits="objectBoundingBox"><rect x="0" y="0" width="256" height="169.55844155844156"/></clipPath></defs><rect x="0" y="0" width="256" height="169.55844155844156" fill="rgb(25, 16, 17)"/><path d="M72,153L111,117L165,165Z" fill="rgb(148, 168, 186)" fill-opacity="0.53"/><path d="M170,36L267,59L170,68Z" fill="rgb(172, 4, 5)" fill-opacity="0.49"/><path d="M83,115L71,58L120,86Z" fill="rgb(207, 209, 204)" fill-opacity="0.45"/><path d="M29,163L21,112L100,129Z" fill="rgb(94, 55, 24)" fill-opacity="0.52"/><path d="M236,37L208,45L246,45Z" fill="rgb(232, 11, 9)" fill-opacity="0.47"/><path d="M215,58L310,137L239,183Z" fill="rgb(135, 76, 33)" fill-opacity="0.54"/><path d="M197,36L224,-19L265,33Z" fill="rgb(1, 76, 134)" fill-opacity="0.36"/><path d="M75,129L143,133L133,158Z" fill="rgb(185, 211, 243)" fill-opacity="0.23"/><path d="M74,74L71,58L124,75Z" fill="rgb(107, 65, 16)" fill-opacity="0.92"/><path d="M149,135L166,122L148,121Z" fill="rgb(82, 76, 71)" fill-opacity="0.57"/><path d="M88,73L115,88L82,113Z" fill="rgb(131, 151, 177)" fill-opacity="0.49"/><path d="M87,100L142,94L106,129Z" fill="rgb(64, 71, 82)" fill-opacity="0.47"/><path d="M109,87L115,60L101,65Z" fill="rgb(68, 45, 20)" fill-opacity="0.56"/><path d="M85,134L115,149L75,152Z" fill="rgb(98, 108, 124)" fill-opacity="0.69"/><path d="M230,181L152,185L132,111Z" fill="rgb(46, 47, 47)" fill-opacity="0.67"/><path d="M182,53L190,60L197,49Z" fill="rgb(249, 18, 15)" fill-opacity="0.53"/><path d="M48,171L29,115L93,157Z" fill="rgb(84, 46, 22)" fill-opacity="0.45"/><path d="M228,94L246,143L252,91Z" fill="rgb(180, 91, 53)" fill-opacity="0.42"/><path d="M142,136L98,128L92,110Z" fill="rgb(57, 45, 38)" fill-opacity="0.50"/><path d="M86,203L123,156L92,151Z" fill="rgb(14, 0, 2)" fill-opacity="0.49"/><path d="M61,142L54,110L25,131Z" fill="rgb(96, 59, 29)" fill-opacity="0.69"/><path d="M121,84L70,97L75,81Z" fill="rgb(116, 127, 142)" fill-opacity="0.60"/><path d="M247,88L174,65L294,51Z" fill="rgb(65, 15, 9)" fill-opacity="0.77"/><path d="M105,96L182,117L180,88Z" fill="rgb(44, 46, 38)" fill-opacity="0.43"/><path d="M144,152L98,151L170,180Z" fill="rgb(69, 77, 84)" fill-opacity="0.53"/><path d="M223,17L190,27L180,42Z" fill="rgb(80, 86, 34)" fill-opacity="0.55"/><path d="M233,43L239,40L224,37Z" fill="rgb(236, 54, 42)" fill-opacity="0.52"/><path d="M241,126L242,142L253,110Z" fill="rgb(179, 80, 32)" fill-opacity="0.59"/><path d="M-27,172L48,-218L77,79Z" fill="rgb(1, 0, 0)" fill-opacity="0.50"/><path d="M100,99L116,103L93,107Z" fill="rgb(25, 21, 20)" fill-opacity="0.67"/><path d="M83,139L91,113L77,111Z" fill="rgb(10, 7, 15)" fill-opacity="0.59"/><path d="M140,62L134,32L146,50Z" fill="rgb(130, 9, 4)" fill-opacity="0.64"/><path d="M92,56L74,60L75,77Z" fill="rgb(112, 58, 7)" fill-opacity="0.49"/><path d="M215,154L191,136L181,148Z" fill="rgb(44, 54, 62)" fill-opacity="0.41"/><path d="M182,38L181,34L200,46Z" fill="rgb(159, 11, 14)" fill-opacity="0.55"/><path d="M164,41L201,46L142,55Z" fill="rgb(77, 8, 6)" fill-opacity="0.62"/><path d="M76,120L48,94L68,157Z" fill="rgb(11, 12, 8)" fill-opacity="0.72"/><path d="M215,27L201,23L215,17Z" fill="rgb(75, 103, 34)" fill-opacity="0.50"/><path d="M174,54L197,48L191,65Z" fill="rgb(192, 18, 16)" fill-opacity="0.47"/><path d="M85,73L116,74L87,65Z" fill="rgb(191, 124, 36)" fill-opacity="0.44"/><path d="M101,144L112,119L120,151Z" fill="rgb(143, 147, 160)" fill-opacity="0.55"/><path d="M95,-58L144,68L53,44Z" fill="rgb(4, 4, 12)" fill-opacity="0.71"/><path d="M145,49L139,32L145,66Z" fill="rgb(189, 13, 1)" fill-opacity="0.48"/><path d="M229,77L251,73L231,66Z" fill="rgb(98, 0, 4)" fill-opacity="0.52"/><path d="M117,117L99,102L113,128Z" fill="rgb(119, 93, 82)" fill-opacity="0.43"/><path d="M198,52L210,69L235,52Z" fill="rgb(174, 7, 7)" fill-opacity="0.48"/><path d="M117,111L116,98L135,101Z" fill="rgb(38, 59, 109)" fill-opacity="0.61"/><path d="M105,80L99,72L89,75Z" fill="rgb(121, 136, 148)" fill-opacity="0.53"/><path d="M104,65L86,56L91,47Z" fill="rgb(64, 45, 30)" fill-opacity="0.50"/><path d="M101,32L108,-49L74,12Z" fill="rgb(6, 17, 40)" fill-opacity="0.61"/><path d="M87,126L89,139L100,136Z" fill="rgb(78, 82, 98)" fill-opacity="0.52"/><path d="M112,75L102,77L112,84Z" fill="rgb(0, 0, 4)" fill-opacity="0.50"/><path d="M102,72L74,99L109,100Z" fill="rgb(127, 131, 135)" fill-opacity="0.52"/><path d="M237,124L219,119L211,178Z" fill="rgb(24, 23, 25)" fill-opacity="0.68"/><path d="M152,12L143,48L139,22Z" fill="rgb(93, 0, 5)" fill-opacity="0.52"/><path d="M258,27L258,69L239,34Z" fill="rgb(6, 0, 0)" fill-opacity="0.63"/><path d="M93,112L81,111L80,104Z" fill="rgb(114, 124, 149)" fill-opacity="0.49"/><path d="M109,119L110,127L83,133Z" fill="rgb(37, 25, 27)" fill-opacity="0.48"/><path d="M165,86L141,70L170,115Z" fill="rgb(70, 56, 0)" fill-opacity="0.42"/><path d="M116,118L110,127L114,115Z" fill="rgb(197, 145, 140)" fill-opacity="0.44"/><path d="M198,57L194,51L219,29Z" fill="rgb(2, 13, 15)" fill-opacity="0.43"/><path d="M186,51L255,47L232,42Z" fill="rgb(68, 9, 14)" fill-opacity="0.85"/><path d="M201,35L184,35L186,28Z" fill="rgb(53, 85, 97)" fill-opacity="0.46"/><path d="M235,78L284,79L232,81Z" fill="rgb(111, 118, 78)" fill-opacity="0.50"/><path d="M109,78L137,108L173,50Z" fill="rgb(21, 22, 0)" fill-opacity="0.63"/><path d="M116,99L149,98L116,65Z" fill="rgb(23, 23, 7)" fill-opacity="0.61"/><path d="M213,71L226,70L221,81Z" fill="rgb(77, 76, 46)" fill-opacity="0.49"/><path d="M236,84L218,62L222,116Z" fill="rgb(59, 46, 10)" fill-opacity="0.54"/><path d="M146,101L137,103L154,109Z" fill="rgb(47, 75, 90)" fill-opacity="0.52"/><path d="M179,162L201,163L187,150Z" fill="rgb(60, 69, 85)" fill-opacity="0.46"/><path d="M122,163L138,156L135,169Z" fill="rgb(154, 96, 48)" fill-opacity="0.25"/><path d="M175,72L163,76L179,76Z" fill="rgb(59, 126, 48)" fill-opacity="0.50"/><path d="M106,104L128,138L112,91Z" fill="rgb(20, 20, 30)" fill-opacity="0.52"/><path d="M201,25L145,47L195,-201Z" fill="rgb(11, 0, 5)" fill-opacity="0.76"/><path d="M250,24L223,43L238,-60Z" fill="rgb(14, 39, 71)" fill-opacity="0.65"/><path d="M194,41L195,29L208,48Z" fill="rgb(12, 35, 52)" fill-opacity="0.50"/><path d="M204,74L195,77L195,66Z" fill="rgb(126, 0, 0)" fill-opacity="0.50"/><path d="M66,94L82,104L82,95Z" fill="rgb(71, 30, 0)" fill-opacity="0.44"/><path d="M296,137L226,147L245,198Z" fill="rgb(59, 33, 20)" fill-opacity="0.81"/><path d="M113,129L125,131L128,104Z" fill="rgb(15, 9, 12)" fill-opacity="0.67"/><path d="M81,76L79,59L73,80Z" fill="rgb(105, 54, 2)" fill-opacity="0.64"/><path d="M214,71L158,82L215,97Z" fill="rgb(12, 1, 0)" fill-opacity="0.62"/><path d="M153,165L98,131L138,137Z" fill="rgb(124, 142, 157)" fill-opacity="0.35"/><path d="M55,154L75,158L84,143Z" fill="rgb(47, 48, 52)" fill-opacity="0.40"/><path d="M123,38L89,5L143,38Z" fill="rgb(6, 18, 40)" fill-opacity="0.52"/><path d="M253,88L303,137L251,138Z" fill="rgb(114, 79, 51)" fill-opacity="0.48"/><path d="M139,26L187,36L159,43Z" fill="rgb(18, 11, 16)" fill-opacity="0.82"/><path d="M57,168L50,160L51,178Z" fill="rgb(157, 95, 42)" fill-opacity="0.50"/><path d="M140,111L152,123L141,142Z" fill="rgb(18, 13, 6)" fill-opacity="0.46"/><path d="M232,57L217,51L250,56Z" fill="rgb(202, 6, 3)" fill-opacity="0.46"/><path d="M217,74L221,66L226,74Z" fill="rgb(91, 88, 62)" fill-opacity="0.50"/><path d="M23,175L27,138L34,171Z" fill="rgb(8, 0, 7)" fill-opacity="0.47"/><path d="M248,85L231,78L247,110Z" fill="rgb(71, 72, 21)" fill-opacity="0.48"/><path d="M102,24L139,64L95,62Z" fill="rgb(10, 4, 3)" fill-opacity="0.77"/><path d="M202,97L210,96L216,116Z" fill="rgb(76, 39, 7)" fill-opacity="0.55"/><path d="M235,59L225,55L249,51Z" fill="rgb(190, 6, 10)" fill-opacity="0.36"/><path d="M232,110L223,99L229,161Z" fill="rgb(38, 27, 17)" fill-opacity="0.75"/><path d="M78,59L87,73L67,67Z" fill="rgb(105, 54, 5)" fill-opacity="0.60"/><path d="M85,158L95,129L79,143Z" fill="rgb(121, 135, 153)" fill-opacity="0.28"/><path d="M60,151L35,176L30,150Z" fill="rgb(47, 21, 11)" fill-opacity="0.74"/><path d="M236,118L241,90L259,91Z" fill="rgb(89, 67, 44)" fill-opacity="0.56"/><path d="M174,40L180,43L180,38Z" fill="rgb(247, 7, 1)" fill-opacity="0.56"/><path d="M119,114L94,120L100,105Z" fill="rgb(67, 63, 57)" fill-opacity="0.53"/><path d="M169,101L144,48L172,50Z" fill="rgb(21, 8, 0)" fill-opacity="0.58"/><path d="M111,64L77,64L112,70Z" fill="rgb(80, 50, 14)" fill-opacity="0.68"/><path d="M194,59L188,81L202,48Z" fill="rgb(17, 10, 20)" fill-opacity="0.56"/><path d="M129,144L140,111L137,133Z" fill="rgb(78, 74, 71)" fill-opacity="0.46"/><path d="M96,-14L122,25L195,-2Z" fill="rgb(12, 0, 4)" fill-opacity="0.82"/><path d="M38,128L23,118L22,128Z" fill="rgb(88, 50, 24)" fill-opacity="0.52"/><path d="M55,98L12,97L34,75Z" fill="rgb(38, 16, 18)" fill-opacity="0.50"/><path d="M235,69L251,58L217,59Z" fill="rgb(34, 0, 10)" fill-opacity="0.56"/><path d="M81,118L69,89L21,105Z" fill="rgb(6, 7, 3)" fill-opacity="0.54"/><path d="M115,70L122,88L112,84Z" fill="rgb(85, 69, 84)" fill-opacity="0.30"/><path d="M271,31L244,15L256,-9Z" fill="rgb(5, 0, 0)" fill-opacity="0.66"/><path d="M184,93L200,65L169,62Z" fill="rgb(13, 0, 5)" fill-opacity="0.46"/><path d="M143,10L140,41L154,21Z" fill="rgb(83, 1, 5)" fill-opacity="0.42"/><path d="M62,111L17,122L14,97Z" fill="rgb(9, 10, 5)" fill-opacity="0.66"/><path d="M168,51L156,47L176,47Z" fill="rgb(163, 10, 12)" fill-opacity="0.45"/><path d="M71,90L94,104L94,71Z" fill="rgb(112, 120, 135)" fill-opacity="0.58"/><path d="M246,129L249,122L248,97Z" fill="rgb(245, 118, 64)" fill-opacity="0.51"/><path d="M121,77L110,84L103,74Z" fill="rgb(1, 0, 4)" fill-opacity="0.49"/><path d="M135,193L188,169L137,154Z" fill="rgb(48, 49, 53)" fill-opacity="0.39"/><path d="M84,60L104,24L12,54Z" fill="rgb(10, 0, 1)" fill-opacity="0.48"/><path d="M234,162L203,238L198,163Z" fill="rgb(4, 6, 17)" fill-opacity="0.41"/><path d="M136,51L107,9L142,24Z" fill="rgb(10, 7, 18)" fill-opacity="0.52"/><path d="M153,92L169,113L148,119Z" fill="rgb(45, 10, 20)" fill-opacity="0.57"/><path d="M52,162L117,155L156,242Z" fill="rgb(26, 2, 0)" fill-opacity="0.49"/><path d="M246,111L246,130L251,104Z" fill="rgb(219, 94, 46)" fill-opacity="0.51"/><path d="M248,105L247,117L250,103Z" fill="rgb(255, 100, 43)" fill-opacity="0.47"/><path d="M129,107L176,114L133,123Z" fill="rgb(43, 25, 23)" fill-opacity="0.52"/><path d="M111,130L105,131L115,117Z" fill="rgb(174, 134, 132)" fill-opacity="0.46"/><path d="M238,107L238,89L234,122Z" fill="rgb(192, 77, 52)" fill-opacity="0.49"/><path d="M212,108L211,124L215,110Z" fill="rgb(126, 70, 4)" fill-opacity="0.48"/><path d="M227,119L244,131L246,113Z" fill="rgb(89, 55, 23)" fill-opacity="0.47"/><path d="M54,120L35,152L29,127Z" fill="rgb(90, 58, 32)" fill-opacity="0.63"/><path d="M172,112L182,93L183,117Z" fill="rgb(7, 41, 58)" fill-opacity="0.50"/><path d="M174,159L183,178L164,151Z" fill="rgb(13, 11, 14)" fill-opacity="0.62"/><path d="M192,40L187,32L182,32Z" fill="rgb(95, 78, 77)" fill-opacity="0.49"/><path d="M232,37L226,39L244,43Z" fill="rgb(227, 46, 27)" fill-opacity="0.50"/><path d="M106,68L119,61L83,73Z" fill="rgb(138, 81, 20)" fill-opacity="0.42"/><path d="M200,146L207,142L202,150Z" fill="rgb(83, 90, 104)" fill-opacity="0.46"/><path d="M232,67L204,70L225,63Z" fill="rgb(27, 0, 6)" fill-opacity="0.55"/><path d="M137,135L123,129L146,123Z" fill="rgb(58, 54, 53)" fill-opacity="0.48"/><path d="M195,73L200,70L204,74Z" fill="rgb(198, 4, 2)" fill-opacity="0.52"/><path d="M194,59L197,43L191,60Z" fill="rgb(203, 24, 24)" fill-opacity="0.44"/><path d="M144,56L141,48L141,29Z" fill="rgb(208, 33, 16)" fill-opacity="0.47"/><path d="M177,91L182,101L162,99Z" fill="rgb(10, 23, 38)" fill-opacity="0.50"/><path d="M66,147L77,143L75,131Z" fill="rgb(11, 0, 6)" fill-opacity="0.49"/><path d="M207,19L211,-53L250,4Z" fill="rgb(0, 21, 56)" fill-opacity="0.46"/><path d="M169,152L175,142L168,131Z" fill="rgb(49, 69, 89)" fill-opacity="0.43"/><path d="M153,45L136,68L157,53Z" fill="rgb(54, 1, 1)" fill-opacity="0.59"/><path d="M48,64L74,66L51,68Z" fill="rgb(41, 31, 34)" fill-opacity="0.47"/><path d="M50,153L61,182L57,152Z" fill="rgb(22, 10, 10)" fill-opacity="0.48"/><path d="M178,65L176,46L185,61Z" fill="rgb(127, 11, 11)" fill-opacity="0.50"/><path d="M185,45L192,43L203,52Z" fill="rgb(25, 11, 18)" fill-opacity="0.44"/><path d="M209,67L211,103L221,94Z" fill="rgb(6, 7, 0)" fill-opacity="0.53"/><path d="M209,58L222,59L204,67Z" fill="rgb(147, 13, 10)" fill-opacity="0.50"/><path d="M250,54L220,38L252,67Z" fill="rgb(82, 0, 5)" fill-opacity="0.43"/><path d="M202,48L219,42L208,36Z" fill="rgb(12, 3, 0)" fill-opacity="0.53"/><path d="M139,51L144,61L137,57Z" fill="rgb(199, 25, 5)" fill-opacity="0.39"/><path d="M93,102L84,103L90,114Z" fill="rgb(120, 128, 148)" fill-opacity="0.51"/><path d="M125,108L110,100L105,90Z" fill="rgb(52, 51, 89)" fill-opacity="0.50"/><path d="M76,154L79,158L101,153Z" fill="rgb(90, 76, 68)" fill-opacity="0.50"/><path d="M123,110L120,116L113,100Z" fill="rgb(0, 30, 88)" fill-opacity="0.53"/><path d="M79,126L74,120L78,137Z" fill="rgb(81, 58, 62)" fill-opacity="0.51"/><path d="M250,129L243,141L238,128Z" fill="rgb(177, 58, 20)" fill-opacity="0.42"/><path d="M204,35L217,33L220,42Z" fill="rgb(7, 4, 4)" fill-opacity="0.61"/><path d="M146,154L169,162L170,190Z" fill="rgb(57, 52, 49)" fill-opacity="0.73"/><path d="M75,98L70,90L88,73Z" fill="rgb(95, 102, 116)" fill-opacity="0.66"/><path d="M199,96L154,133L222,145Z" fill="rgb(4, 10, 15)" fill-opacity="0.39"/><path d="M89,54L82,62L93,57Z" fill="rgb(122, 90, 85)" fill-opacity="0.45"/><path d="M248,56L290,79L253,27Z" fill="rgb(8, 0, 5)" fill-opacity="0.77"/><path d="M240,136L235,165L254,139Z" fill="rgb(103, 56, 30)" fill-opacity="0.39"/><path d="M39,168L37,175L33,152Z" fill="rgb(101, 57, 30)" fill-opacity="0.57"/><path d="M201,68L205,57L191,74Z" fill="rgb(28, 15, 9)" fill-opacity="0.54"/><path d="M188,63L165,85L193,98Z" fill="rgb(14, 4, 3)" fill-opacity="0.61"/><path d="M166,42L163,42L167,46Z" fill="rgb(116, 114, 53)" fill-opacity="0.62"/><path d="M150,127L155,116L165,130Z" fill="rgb(69, 61, 54)" fill-opacity="0.50"/><path d="M100,138L111,152L119,129Z" fill="rgb(130, 146, 164)" fill-opacity="0.49"/><path d="M251,-3L278,-2L245,24Z" fill="rgb(11, 0, 0)" fill-opacity="0.48"/><path d="M144,131L138,120L150,115Z" fill="rgb(9, 12, 6)" fill-opacity="0.46"/><path d="M143,15L146,22L141,30Z" fill="rgb(124, 6, 17)" fill-opacity="0.46"/><path d="M249,81L229,80L279,92Z" fill="rgb(0, 1, 0)" fill-opacity="0.37"/><path d="M142,36L145,39L142,47Z" fill="rgb(23, 1, 3)" fill-opacity="0.50"/><path d="M250,79L266,81L248,81Z" fill="rgb(122, 117, 89)" fill-opacity="0.41"/><path d="M146,32L208,17L200,-65Z" fill="rgb(11, 1, 5)" fill-opacity="0.64"/><path d="M125,158L113,151L128,146Z" fill="rgb(89, 106, 123)" fill-opacity="0.48"/><path d="M177,162L185,177L162,154Z" fill="rgb(13, 10, 15)" fill-opacity="0.55"/><path d="M225,40L278,19L213,24Z" fill="rgb(20, 48, 77)" fill-opacity="0.64"/><path d="M83,99L71,99L80,93Z" fill="rgb(131, 64, 0)" fill-opacity="0.42"/><path d="M181,133L177,149L192,135Z" fill="rgb(35, 39, 40)" fill-opacity="0.47"/><path d="M62,143L68,156L62,151Z" fill="rgb(111, 61, 25)" fill-opacity="0.49"/><path d="M26,124L-23,169L2,170Z" fill="rgb(11, 11, 1)" fill-opacity="0.48"/><path d="M80,163L71,149L79,136Z" fill="rgb(48, 32, 32)" fill-opacity="0.52"/><path d="M120,33L90,19L122,18Z" fill="rgb(6, 22, 46)" fill-opacity="0.46"/><path d="M160,79L143,73L175,117Z" fill="rgb(54, 44, 6)" fill-opacity="0.49"/><path d="M154,89L160,90L153,97Z" fill="rgb(80, 67, 65)" fill-opacity="0.45"/><path d="M133,62L132,91L110,66Z" fill="rgb(15, 14, 0)" fill-opacity="0.63"/><path d="M243,118L246,107L247,115Z" fill="rgb(21, 3, 5)" fill-opacity="0.34"/><path d="M156,179L136,156L141,177Z" fill="rgb(27, 33, 43)" fill-opacity="0.52"/></svg>