<svg xmlns="http://www.w3.org/2000/svg" viewBox="0 0 256 192.226148409894" clip-path="url(#clip)" width="512" height="384.452296819788"><defs><clipPath id="clip" clipPathUnits="objectBoundingBox"><rect x="0" y="0" width="256" height="192.226148409894"/></clipPath></defs><rect x="0" y="0" width="256" height="192.226148409894" fill="rgb(106, 98, 81)"/><path d="M141,95L145,171L232,133Z" fill="rgb(255, 235, 176)" fill-opacity="0.65"/><path d="M88,229L60,146L-4,185Z" fill="rgb(242, 127, 26)" fill-opacity="0.83"/><path d="M238,190L412,185L231,169Z" fill="rgb(255, 206, 130)" fill-opacity="0.89"/><path d="M57,-48L274,27L107,19Z" fill="rgb(44, 21, 13)" fill-opacity="0.99"/><path d="M263,27L209,52L195,9Z" fill="rgb(0, 0, 0)" fill-opacity="0.65"/><path d="M233,39L304,61L200,78Z" fill="rgb(192, 214, 255)" fill-opacity="0.63"/><path d="M-13,53L142,-16L34,101Z" fill="rgb(48, 24, 14)" fill-opacity="0.95"/><path d="M14,74L211,19L133,129Z" fill="rgb(125, 41, 0)" fill-opacity="0.56"/><path d="M216,188L192,158L276,146Z" fill="rgb(0, 0, 0)" fill-opacity="0.55"/><path d="M30,27L-62,3L102,-10Z" fill="rgb(152, 170, 223)" fill-opacity="0.89"/><path d="M105,23L131,18L186,23Z" fill="rgb(255, 224, 168)" fill-opacity="0.58"/><path d="M34,184L145,27L84,54Z" fill="rgb(191, 95, 32)" fill-opacity="0.69"/><path d="M9,224L4,159L20,158Z" fill="rgb(204, 128, 62)" fill-opacity="1.00"/><path d="M314,128L229,113L238,154Z" fill="rgb(0, 0, 0)" fill-opacity="0.54"/><path d="M11,170L112,109L109,139Z" fill="rgb(68, 20, 7)" fill-opacity="0.58"/><path d="M157,38L208,119L211,33Z" fill="rgb(68, 20, 0)" fill-opacity="0.69"/><path d="M227,144L196,104L247,102Z" fill="rgb(229, 183, 120)" fill-opacity="0.32"/><path d="M62,174L95,137L105,166Z" fill="rgb(255, 221, 194)" fill-opacity="0.44"/><path d="M236,156L201,97L191,131Z" fill="rgb(133, 111, 81)" fill-opacity="0.78"/><path d="M203,29L192,28L196,41Z" fill="rgb(176, 165, 188)" fill-opacity="0.47"/><path d="M110,97L143,88L136,62Z" fill="rgb(0, 0, 4)" fill-opacity="0.56"/><path d="M165,79L182,86L162,98Z" fill="rgb(172, 243, 159)" fill-opacity="0.62"/><path d="M28,164L21,114L-65,139Z" fill="rgb(13, 19, 8)" fill-opacity="0.39"/><path d="M4,90L20,86L25,109Z" fill="rgb(247, 231, 223)" fill-opacity="0.48"/><path d="M185,105L152,107L193,112Z" fill="rgb(255, 239, 177)" fill-opacity="0.49"/><path d="M209,-7L270,34L332,-12Z" fill="rgb(119, 155, 234)" fill-opacity="0.77"/><path d="M205,63L215,46L248,73Z" fill="rgb(195, 208, 246)" fill-opacity="0.57"/><path d="M136,25L130,37L162,34Z" fill="rgb(204, 196, 196)" fill-opacity="0.68"/><path d="M77,32L94,6L122,98Z" fill="rgb(50, 14, 5)" fill-opacity="0.46"/><path d="M110,159L114,119L126,125Z" fill="rgb(224, 219, 243)" fill-opacity="0.50"/><path d="M132,64L100,66L145,81Z" fill="rgb(0, 0, 0)" fill-opacity="0.50"/><path d="M19,63L3,17L-20,33Z" fill="rgb(169, 106, 85)" fill-opacity="0.58"/><path d="M139,90L150,52L157,104Z" fill="rgb(247, 113, 24)" fill-opacity="0.55"/><path d="M188,157L46,365L66,178Z" fill="rgb(123, 124, 66)" fill-opacity="1.00"/><path d="M238,100L173,98L233,74Z" fill="rgb(41, 23, 11)" fill-opacity="0.63"/><path d="M136,144L141,101L100,104Z" fill="rgb(0, 13, 29)" fill-opacity="0.46"/><path d="M36,78L118,94L51,154Z" fill="rgb(168, 83, 31)" fill-opacity="0.63"/><path d="M193,136L146,167L143,101Z" fill="rgb(255, 236, 182)" fill-opacity="0.66"/><path d="M169,44L179,63L157,62Z" fill="rgb(255, 170, 57)" fill-opacity="0.52"/><path d="M137,101L104,99L109,103Z" fill="rgb(218, 172, 158)" fill-opacity="0.57"/><path d="M81,154L95,139L103,153Z" fill="rgb(253, 255, 255)" fill-opacity="0.57"/><path d="M63,157L73,183L77,154Z" fill="rgb(255, 180, 117)" fill-opacity="0.47"/><path d="M35,90L24,114L31,73Z" fill="rgb(137, 128, 130)" fill-opacity="0.54"/><path d="M234,92L244,76L252,98Z" fill="rgb(227, 180, 121)" fill-opacity="0.46"/><path d="M73,100L68,134L96,127Z" fill="rgb(148, 80, 80)" fill-opacity="0.71"/><path d="M205,-8L172,37L188,50Z" fill="rgb(27, 7, 0)" fill-opacity="0.69"/><path d="M37,92L66,71L110,90Z" fill="rgb(235, 134, 37)" fill-opacity="0.44"/><path d="M106,68L130,64L108,84Z" fill="rgb(0, 0, 3)" fill-opacity="0.58"/><path d="M153,65L186,62L158,84Z" fill="rgb(0, 14, 34)" fill-opacity="0.53"/><path d="M109,159L121,115L130,139Z" fill="rgb(187, 160, 147)" fill-opacity="0.57"/><path d="M216,56L281,83L264,30Z" fill="rgb(167, 181, 218)" fill-opacity="0.88"/><path d="M117,116L126,125L120,133Z" fill="rgb(152, 205, 248)" fill-opacity="0.50"/><path d="M-2,85L36,101L13,112Z" fill="rgb(190, 182, 171)" fill-opacity="0.42"/><path d="M-8,80L20,87L3,68Z" fill="rgb(5, 8, 0)" fill-opacity="0.57"/><path d="M219,251L252,197L185,155Z" fill="rgb(61, 70, 0)" fill-opacity="0.51"/><path d="M121,60L140,23L80,77Z" fill="rgb(222, 133, 61)" fill-opacity="0.48"/><path d="M85,69L4,88L64,17Z" fill="rgb(7, 1, 1)" fill-opacity="0.48"/><path d="M25,10L-3,42L31,93Z" fill="rgb(175, 120, 103)" fill-opacity="0.23"/><path d="M121,146L119,136L154,169Z" fill="rgb(30, 3, 0)" fill-opacity="0.49"/><path d="M167,38L175,33L163,18Z" fill="rgb(216, 172, 177)" fill-opacity="0.48"/><path d="M92,50L164,49L27,34Z" fill="rgb(50, 20, 9)" fill-opacity="0.59"/><path d="M72,122L65,100L82,123Z" fill="rgb(55, 30, 38)" fill-opacity="0.49"/><path d="M283,17L233,45L136,50Z" fill="rgb(33, 13, 8)" fill-opacity="0.65"/><path d="M261,131L227,100L254,175Z" fill="rgb(0, 7, 0)" fill-opacity="0.37"/><path d="M74,157L61,130L92,138Z" fill="rgb(36, 6, 0)" fill-opacity="0.57"/><path d="M236,41L237,76L207,53Z" fill="rgb(178, 189, 218)" fill-opacity="0.68"/><path d="M105,104L128,103L94,139Z" fill="rgb(28, 13, 7)" fill-opacity="0.64"/><path d="M108,141L95,141L110,158Z" fill="rgb(7, 0, 0)" fill-opacity="0.51"/><path d="M110,-2L54,14L100,-10Z" fill="rgb(169, 147, 141)" fill-opacity="0.73"/><path d="M33,126L52,120L43,163Z" fill="rgb(5, 23, 67)" fill-opacity="0.36"/><path d="M184,85L162,86L177,99Z" fill="rgb(151, 225, 143)" fill-opacity="0.54"/><path d="M30,128L36,132L21,136Z" fill="rgb(231, 247, 255)" fill-opacity="0.49"/><path d="M232,132L216,126L224,115Z" fill="rgb(255, 218, 173)" fill-opacity="0.47"/><path d="M132,179L118,159L137,155Z" fill="rgb(217, 159, 129)" fill-opacity="0.43"/><path d="M147,101L146,105L130,101Z" fill="rgb(63, 35, 8)" fill-opacity="0.52"/><path d="M117,78L126,92L120,71Z" fill="rgb(223, 164, 163)" fill-opacity="0.47"/><path d="M99,28L115,14L107,36Z" fill="rgb(255, 160, 159)" fill-opacity="0.41"/><path d="M208,110L208,135L216,113Z" fill="rgb(216, 192, 153)" fill-opacity="0.48"/><path d="M214,134L213,152L158,163Z" fill="rgb(255, 198, 147)" fill-opacity="0.30"/><path d="M101,125L79,56L105,70Z" fill="rgb(255, 116, 32)" fill-opacity="0.43"/><path d="M156,84L157,97L173,69Z" fill="rgb(7, 40, 67)" fill-opacity="0.49"/><path d="M143,162L123,145L139,136Z" fill="rgb(21, 0, 0)" fill-opacity="0.46"/><path d="M137,24L111,43L110,23Z" fill="rgb(78, 11, 3)" fill-opacity="0.49"/><path d="M42,115L38,98L27,117Z" fill="rgb(80, 39, 17)" fill-opacity="0.67"/><path d="M10,176L14,187L-26,198Z" fill="rgb(143, 134, 143)" fill-opacity="0.56"/><path d="M-9,104L15,101L-2,134Z" fill="rgb(28, 39, 19)" fill-opacity="0.57"/><path d="M140,37L137,46L115,40Z" fill="rgb(255, 144, 36)" fill-opacity="0.51"/><path d="M39,87L15,60L74,65Z" fill="rgb(38, 21, 10)" fill-opacity="0.69"/><path d="M189,167L234,190L231,162Z" fill="rgb(37, 39, 12)" fill-opacity="0.77"/><path d="M110,118L137,122L133,97Z" fill="rgb(0, 6, 15)" fill-opacity="0.46"/><path d="M101,101L140,64L143,89Z" fill="rgb(0, 5, 20)" fill-opacity="0.40"/><path d="M83,55L81,67L100,54Z" fill="rgb(211, 147, 68)" fill-opacity="0.53"/><path d="M84,134L108,78L101,118Z" fill="rgb(199, 77, 27)" fill-opacity="0.58"/><path d="M248,7L234,13L271,25Z" fill="rgb(211, 203, 208)" fill-opacity="0.47"/><path d="M79,122L71,134L86,119Z" fill="rgb(243, 203, 153)" fill-opacity="0.46"/><path d="M238,184L286,172L231,170Z" fill="rgb(255, 212, 135)" fill-opacity="0.64"/><path d="M-3,49L-1,20L52,25Z" fill="rgb(160, 113, 92)" fill-opacity="0.62"/><path d="M201,60L215,82L211,101Z" fill="rgb(34, 7, 0)" fill-opacity="0.46"/><path d="M137,159L213,179L151,234Z" fill="rgb(125, 129, 57)" fill-opacity="0.74"/><path d="M254,80L247,141L307,131Z" fill="rgb(15, 9, 0)" fill-opacity="0.45"/><path d="M112,164L101,152L104,96Z" fill="rgb(30, 0, 0)" fill-opacity="0.47"/><path d="M163,91L168,106L139,108Z" fill="rgb(130, 95, 67)" fill-opacity="0.60"/><path d="M128,167L180,167L97,176Z" fill="rgb(193, 151, 130)" fill-opacity="0.60"/><path d="M271,168L192,152L160,175Z" fill="rgb(43, 35, 0)" fill-opacity="0.28"/><path d="M45,26L109,-4L32,19Z" fill="rgb(226, 183, 166)" fill-opacity="0.33"/><path d="M122,167L79,181L78,149Z" fill="rgb(148, 98, 68)" fill-opacity="0.47"/><path d="M215,53L260,70L236,73Z" fill="rgb(183, 195, 224)" fill-opacity="0.74"/><path d="M128,98L125,104L111,101Z" fill="rgb(255, 204, 185)" fill-opacity="0.49"/><path d="M46,19L6,23L1,13Z" fill="rgb(230, 234, 251)" fill-opacity="0.46"/><path d="M131,56L160,63L152,34Z" fill="rgb(60, 27, 7)" fill-opacity="0.53"/><path d="M91,127L85,131L85,124Z" fill="rgb(223, 166, 100)" fill-opacity="0.50"/><path d="M78,17L82,63L13,52Z" fill="rgb(15, 1, 0)" fill-opacity="0.62"/><path d="M114,22L11,52L7,44Z" fill="rgb(44, 17, 6)" fill-opacity="0.58"/><path d="M151,24L172,20L185,23Z" fill="rgb(255, 207, 141)" fill-opacity="0.49"/><path d="M104,64L105,46L116,58Z" fill="rgb(253, 143, 54)" fill-opacity="0.50"/><path d="M172,78L181,63L159,82Z" fill="rgb(55, 44, 37)" fill-opacity="0.56"/><path d="M16,180L19,157L2,163Z" fill="rgb(248, 151, 57)" fill-opacity="0.60"/><path d="M259,159L244,146L287,127Z" fill="rgb(102, 110, 129)" fill-opacity="0.41"/><path d="M163,60L158,46L187,65Z" fill="rgb(236, 110, 13)" fill-opacity="0.43"/><path d="M135,93L141,100L125,92Z" fill="rgb(220, 203, 170)" fill-opacity="0.49"/><path d="M206,85L200,-4L215,9Z" fill="rgb(17, 2, 0)" fill-opacity="0.53"/><path d="M161,106L143,112L158,158Z" fill="rgb(255, 242, 190)" fill-opacity="0.57"/><path d="M40,104L24,99L19,68Z" fill="rgb(84, 65, 62)" fill-opacity="0.63"/><path d="M3,85L14,106L-2,84Z" fill="rgb(182, 185, 182)" fill-opacity="0.56"/><path d="M87,150L91,129L63,157Z" fill="rgb(77, 24, 0)" fill-opacity="0.50"/><path d="M71,182L65,145L5,193Z" fill="rgb(254, 127, 17)" fill-opacity="0.57"/><path d="M84,29L72,10L82,13Z" fill="rgb(119, 74, 53)" fill-opacity="0.55"/><path d="M27,104L19,88L9,119Z" fill="rgb(206, 186, 170)" fill-opacity="0.45"/><path d="M77,183L66,181L73,151Z" fill="rgb(168, 151, 145)" fill-opacity="0.62"/><path d="M150,165L111,142L129,165Z" fill="rgb(193, 145, 122)" fill-opacity="0.55"/><path d="M54,257L69,156L25,163Z" fill="rgb(255, 128, 16)" fill-opacity="0.59"/><path d="M39,6L35,20L3,8Z" fill="rgb(69, 127, 240)" fill-opacity="0.40"/><path d="M174,115L163,86L205,130Z" fill="rgb(201, 157, 117)" fill-opacity="0.47"/><path d="M149,59L145,98L143,61Z" fill="rgb(255, 124, 25)" fill-opacity="0.52"/><path d="M183,37L187,110L209,70Z" fill="rgb(88, 32, 0)" fill-opacity="0.56"/><path d="M177,129L170,113L200,128Z" fill="rgb(255, 224, 175)" fill-opacity="0.54"/><path d="M27,163L53,158L9,118Z" fill="rgb(54, 65, 93)" fill-opacity="0.51"/><path d="M168,61L128,61L148,66Z" fill="rgb(240, 131, 58)" fill-opacity="0.62"/><path d="M118,34L85,42L111,43Z" fill="rgb(63, 17, 7)" fill-opacity="0.55"/><path d="M111,19L166,21L140,27Z" fill="rgb(255, 211, 165)" fill-opacity="0.27"/><path d="M-15,176L-5,153L10,158Z" fill="rgb(25, 3, 8)" fill-opacity="0.47"/><path d="M123,152L114,133L108,153Z" fill="rgb(225, 163, 131)" fill-opacity="0.52"/><path d="M11,92L13,73L5,101Z" fill="rgb(44, 44, 51)" fill-opacity="0.50"/><path d="M7,59L27,59L11,50Z" fill="rgb(179, 122, 97)" fill-opacity="0.53"/><path d="M123,81L124,67L117,81Z" fill="rgb(215, 169, 159)" fill-opacity="0.50"/><path d="M245,26L264,34L248,38Z" fill="rgb(18, 7, 14)" fill-opacity="0.55"/><path d="M237,92L263,77L237,79Z" fill="rgb(182, 152, 108)" fill-opacity="0.63"/><path d="M226,104L237,78L226,78Z" fill="rgb(9, 19, 14)" fill-opacity="0.57"/><path d="M184,144L182,139L167,145Z" fill="rgb(191, 150, 114)" fill-opacity="0.50"/><path d="M87,-3L55,-23L50,15Z" fill="rgb(26, 107, 245)" fill-opacity="0.34"/><path d="M16,127L57,116L15,118Z" fill="rgb(135, 139, 180)" fill-opacity="0.34"/><path d="M235,11L257,-1L219,1Z" fill="rgb(67, 116, 208)" fill-opacity="0.57"/><path d="M149,26L144,36L140,23Z" fill="rgb(69, 51, 53)" fill-opacity="0.47"/><path d="M74,124L75,116L88,118Z" fill="rgb(28, 7, 0)" fill-opacity="0.53"/><path d="M34,89L34,120L27,86Z" fill="rgb(131, 118, 110)" fill-opacity="0.55"/><path d="M264,136L233,111L236,146Z" fill="rgb(1, 3, 0)" fill-opacity="0.49"/><path d="M168,161L144,144L186,149Z" fill="rgb(253, 219, 169)" fill-opacity="0.65"/><path d="M166,53L173,45L178,57Z" fill="rgb(215, 154, 120)" fill-opacity="0.32"/><path d="M232,105L234,144L221,118Z" fill="rgb(198, 169, 132)" fill-opacity="0.54"/><path d="M112,23L101,35L110,37Z" fill="rgb(238, 167, 183)" fill-opacity="0.42"/><path d="M71,82L72,69L48,83Z" fill="rgb(220, 126, 31)" fill-opacity="0.63"/><path d="M138,167L90,170L158,163Z" fill="rgb(62, 34, 17)" fill-opacity="0.60"/><path d="M71,58L81,50L81,89Z" fill="rgb(54, 16, 7)" fill-opacity="0.47"/><path d="M255,123L248,103L228,105Z" fill="rgb(159, 136, 75)" fill-opacity="0.52"/><path d="M86,32L76,59L90,54Z" fill="rgb(64, 47, 34)" fill-opacity="0.73"/><path d="M221,25L266,29L231,9Z" fill="rgb(55, 44, 45)" fill-opacity="0.46"/><path d="M195,26L180,44L173,25Z" fill="rgb(36, 8, 0)" fill-opacity="0.65"/><path d="M109,21L101,41L101,19Z" fill="rgb(173, 125, 115)" fill-opacity="0.54"/><path d="M60,208L122,179L66,181Z" fill="rgb(74, 116, 33)" fill-opacity="0.41"/><path d="M210,50L223,51L209,76Z" fill="rgb(194, 210, 243)" fill-opacity="0.51"/><path d="M15,88L18,101L13,106Z" fill="rgb(120, 106, 83)" fill-opacity="0.54"/><path d="M173,159L195,125L187,159Z" fill="rgb(196, 161, 122)" fill-opacity="0.51"/><path d="M125,150L143,126L144,154Z" fill="rgb(74, 42, 19)" fill-opacity="0.44"/><path d="M155,36L161,32L138,30Z" fill="rgb(247, 251, 255)" fill-opacity="0.45"/><path d="M175,70L181,63L181,110Z" fill="rgb(172, 150, 95)" fill-opacity="0.35"/><path d="M166,105L187,96L130,98Z" fill="rgb(138, 93, 55)" fill-opacity="0.69"/><path d="M129,122L124,134L139,139Z" fill="rgb(39, 13, 0)" fill-opacity="0.59"/><path d="M107,93L111,74L125,98Z" fill="rgb(28, 35, 52)" fill-opacity="0.50"/><path d="M79,81L39,119L39,85Z" fill="rgb(174, 101, 37)" fill-opacity="0.75"/><path d="M2,130L36,124L52,127Z" fill="rgb(23, 22, 23)" fill-opacity="0.57"/><path d="M251,79L261,73L230,78Z" fill="rgb(16, 22, 4)" fill-opacity="0.46"/><path d="M94,24L86,22L105,19Z" fill="rgb(108, 62, 28)" fill-opacity="0.51"/><path d="M-11,70L30,66L-14,66Z" fill="rgb(126, 142, 143)" fill-opacity="0.63"/><path d="M113,139L111,109L119,132Z" fill="rgb(71, 115, 156)" fill-opacity="0.44"/><path d="M213,151L247,153L248,141Z" fill="rgb(83, 80, 23)" fill-opacity="0.53"/><path d="M150,88L148,79L145,85Z" fill="rgb(194, 173, 162)" fill-opacity="0.56"/><path d="M144,26L134,25L134,36Z" fill="rgb(195, 207, 219)" fill-opacity="0.49"/><path d="M8,3L96,-101L46,5Z" fill="rgb(207, 210, 226)" fill-opacity="0.54"/><path d="M112,84L75,96L83,117Z" fill="rgb(198, 85, 15)" fill-opacity="0.60"/><path d="M100,118L88,137L110,137Z" fill="rgb(52, 13, 0)" fill-opacity="0.59"/><path d="M261,39L247,37L214,54Z" fill="rgb(193, 200, 229)" fill-opacity="0.49"/><path d="M49,150L56,161L66,140Z" fill="rgb(152, 102, 38)" fill-opacity="0.59"/><path d="M19,170L4,169L11,163Z" fill="rgb(231, 171, 148)" fill-opacity="0.51"/><path d="M2,133L13,139L25,124Z" fill="rgb(19, 24, 8)" fill-opacity="0.47"/><path d="M245,153L273,160L169,162Z" fill="rgb(26, 18, 10)" fill-opacity="0.85"/><path d="M84,39L82,40L85,47Z" fill="rgb(176, 140, 129)" fill-opacity="0.50"/><path d="M-14,87L2,109L6,96Z" fill="rgb(20, 29, 20)" fill-opacity="0.50"/><path d="M87,153L93,135L96,153Z" fill="rgb(251, 255, 255)" fill-opacity="0.58"/><path d="M122,99L109,74L105,98Z" fill="rgb(40, 31, 36)" fill-opacity="0.61"/><path d="M108,37L80,24L102,65Z" fill="rgb(74, 35, 21)" fill-opacity="0.55"/></svg>