<svg xmlns="http://www.w3.org/2000/svg" viewBox="0 0 256 192.21993127147766" clip-path="url(#clip)" width="512" height="384.4398625429553"><defs><clipPath id="clip" clipPathUnits="objectBoundingBox"><rect x="0" y="0" width="256" height="192.21993127147766"/></clipPath></defs><rect x="0" y="0" width="256" height="192.21993127147766" fill="rgb(115, 101, 101)"/><path d="M254,31L207,89L290,99Z" fill="rgb(67, 17, 1)" fill-opacity="0.68"/><path d="M167,30L232,175L174,170Z" fill="rgb(53, 39, 34)" fill-opacity="1.00"/><path d="M271,3L-17,-32L106,65Z" fill="rgb(220, 231, 252)" fill-opacity="0.46"/><path d="M6,35L-7,9L87,43Z" fill="rgb(218, 236, 252)" fill-opacity="0.50"/><path d="M167,187L247,170L271,227Z" fill="rgb(254, 149, 153)" fill-opacity="0.73"/><path d="M92,163L0,110L0,232Z" fill="rgb(9, 10, 7)" fill-opacity="0.58"/><path d="M54,77L50,10L13,85Z" fill="rgb(199, 210, 194)" fill-opacity="0.54"/><path d="M211,93L218,113L300,119Z" fill="rgb(247, 238, 239)" fill-opacity="0.51"/><path d="M78,93L-46,75L73,135Z" fill="rgb(83, 77, 27)" fill-opacity="0.83"/><path d="M249,178L308,130L232,151Z" fill="rgb(45, 10, 0)" fill-opacity="0.62"/><path d="M186,35L223,20L189,114Z" fill="rgb(211, 210, 227)" fill-opacity="0.47"/><path d="M182,155L125,158L98,256Z" fill="rgb(255, 229, 203)" fill-opacity="0.45"/><path d="M106,151L87,181L133,158Z" fill="rgb(225, 197, 163)" fill-opacity="0.54"/><path d="M191,36L151,102L149,39Z" fill="rgb(18, 5, 0)" fill-opacity="0.63"/><path d="M220,72L252,69L227,19Z" fill="rgb(255, 126, 64)" fill-opacity="0.52"/><path d="M82,107L60,144L106,111Z" fill="rgb(211, 165, 143)" fill-opacity="0.49"/><path d="M18,158L28,126L87,123Z" fill="rgb(36, 22, 14)" fill-opacity="0.57"/><path d="M144,105L117,132L116,104Z" fill="rgb(66, 186, 229)" fill-opacity="0.49"/><path d="M213,32L211,98L227,36Z" fill="rgb(57, 21, 0)" fill-opacity="0.62"/><path d="M162,139L162,126L144,122Z" fill="rgb(204, 227, 255)" fill-opacity="0.65"/><path d="M156,99L138,156L88,145Z" fill="rgb(51, 44, 44)" fill-opacity="0.64"/><path d="M124,82L87,80L168,-69Z" fill="rgb(172, 173, 179)" fill-opacity="0.77"/><path d="M97,73L50,81L85,33Z" fill="rgb(2, 3, 0)" fill-opacity="0.50"/><path d="M52,45L55,74L76,45Z" fill="rgb(25, 20, 17)" fill-opacity="0.58"/><path d="M228,134L286,135L216,143Z" fill="rgb(225, 181, 134)" fill-opacity="0.51"/><path d="M177,107L195,153L261,119Z" fill="rgb(5, 2, 0)" fill-opacity="0.51"/><path d="M165,144L177,150L166,177Z" fill="rgb(247, 222, 217)" fill-opacity="0.58"/><path d="M159,109L167,146L236,150Z" fill="rgb(35, 22, 16)" fill-opacity="0.58"/><path d="M0,28L32,59L1,96Z" fill="rgb(69, 94, 0)" fill-opacity="0.57"/><path d="M33,-4L-65,-4L13,17Z" fill="rgb(12, 1, 0)" fill-opacity="0.44"/><path d="M179,148L168,198L195,165Z" fill="rgb(21, 9, 5)" fill-opacity="0.47"/><path d="M138,59L100,104L217,109Z" fill="rgb(102, 69, 44)" fill-opacity="0.70"/><path d="M12,115L25,120L19,109Z" fill="rgb(194, 240, 255)" fill-opacity="0.51"/><path d="M199,177L182,190L190,170Z" fill="rgb(255, 255, 225)" fill-opacity="0.63"/><path d="M56,138L58,159L79,131Z" fill="rgb(212, 170, 129)" fill-opacity="0.50"/><path d="M127,166L150,174L138,159Z" fill="rgb(58, 44, 29)" fill-opacity="0.61"/><path d="M207,133L246,147L224,130Z" fill="rgb(213, 191, 167)" fill-opacity="0.48"/><path d="M236,88L261,78L240,5Z" fill="rgb(59, 0, 0)" fill-opacity="0.42"/><path d="M236,74L221,28L243,-10Z" fill="rgb(240, 120, 80)" fill-opacity="0.58"/><path d="M241,-29L297,42L245,29Z" fill="rgb(165, 163, 173)" fill-opacity="0.67"/><path d="M59,111L73,126L70,91Z" fill="rgb(16, 5, 6)" fill-opacity="0.73"/><path d="M183,118L146,140L183,128Z" fill="rgb(197, 143, 113)" fill-opacity="0.56"/><path d="M77,87L38,100L39,71Z" fill="rgb(171, 188, 75)" fill-opacity="0.52"/><path d="M137,78L124,83L114,75Z" fill="rgb(234, 200, 162)" fill-opacity="0.62"/><path d="M0,89L57,67L16,78Z" fill="rgb(253, 255, 199)" fill-opacity="0.49"/><path d="M129,77L187,66L187,36Z" fill="rgb(7, 8, 15)" fill-opacity="0.61"/><path d="M-8,216L24,165L-15,136Z" fill="rgb(1, 43, 78)" fill-opacity="0.82"/><path d="M207,9L211,101L184,95Z" fill="rgb(172, 170, 186)" fill-opacity="0.43"/><path d="M121,153L107,106L97,124Z" fill="rgb(5, 0, 0)" fill-opacity="0.30"/><path d="M51,83L24,91L43,74Z" fill="rgb(104, 122, 0)" fill-opacity="0.61"/><path d="M94,82L124,-5L91,56Z" fill="rgb(160, 164, 175)" fill-opacity="0.82"/><path d="M123,99L151,113L127,89Z" fill="rgb(18, 15, 21)" fill-opacity="0.57"/><path d="M138,123L142,139L150,124Z" fill="rgb(255, 177, 147)" fill-opacity="0.44"/><path d="M130,135L112,116L129,116Z" fill="rgb(148, 154, 165)" fill-opacity="0.57"/><path d="M115,111L74,105L108,80Z" fill="rgb(115, 67, 23)" fill-opacity="0.54"/><path d="M156,71L179,73L178,88Z" fill="rgb(162, 121, 81)" fill-opacity="0.77"/><path d="M254,105L247,100L226,117Z" fill="rgb(248, 243, 246)" fill-opacity="0.47"/><path d="M241,168L225,169L233,266Z" fill="rgb(254, 129, 154)" fill-opacity="0.57"/><path d="M223,155L232,136L239,171Z" fill="rgb(227, 133, 85)" fill-opacity="0.43"/><path d="M13,37L34,19L-10,13Z" fill="rgb(232, 240, 255)" fill-opacity="0.45"/><path d="M168,127L180,127L167,103Z" fill="rgb(8, 7, 10)" fill-opacity="0.56"/><path d="M160,128L157,122L141,157Z" fill="rgb(255, 255, 251)" fill-opacity="0.38"/><path d="M87,41L27,52L23,-20Z" fill="rgb(147, 149, 160)" fill-opacity="0.82"/><path d="M224,158L196,155L234,169Z" fill="rgb(0, 0, 0)" fill-opacity="0.57"/><path d="M230,175L205,183L173,133Z" fill="rgb(51, 40, 27)" fill-opacity="0.49"/><path d="M224,47L219,74L229,70Z" fill="rgb(255, 195, 119)" fill-opacity="0.52"/><path d="M106,158L110,143L135,176Z" fill="rgb(220, 198, 168)" fill-opacity="0.53"/><path d="M250,113L254,104L225,100Z" fill="rgb(243, 246, 252)" fill-opacity="0.58"/><path d="M47,186L104,168L72,136Z" fill="rgb(93, 62, 50)" fill-opacity="0.49"/><path d="M199,179L163,198L221,218Z" fill="rgb(237, 230, 180)" fill-opacity="0.59"/><path d="M46,168L134,184L67,231Z" fill="rgb(105, 88, 79)" fill-opacity="0.63"/><path d="M46,143L11,149L28,180Z" fill="rgb(6, 0, 0)" fill-opacity="0.53"/><path d="M228,93L349,92L233,73Z" fill="rgb(0, 15, 17)" fill-opacity="0.45"/><path d="M208,111L222,112L210,103Z" fill="rgb(238, 186, 123)" fill-opacity="0.65"/><path d="M151,52L115,8L143,66Z" fill="rgb(172, 173, 184)" fill-opacity="0.69"/><path d="M122,169L118,183L179,178Z" fill="rgb(235, 205, 174)" fill-opacity="0.52"/><path d="M64,170L88,167L102,191Z" fill="rgb(174, 152, 132)" fill-opacity="0.40"/><path d="M133,119L139,117L143,103Z" fill="rgb(153, 172, 168)" fill-opacity="0.53"/><path d="M119,115L121,97L130,117Z" fill="rgb(147, 241, 255)" fill-opacity="0.53"/><path d="M103,118L76,105L77,122Z" fill="rgb(190, 164, 155)" fill-opacity="0.78"/><path d="M218,36L10,-27L238,20Z" fill="rgb(180, 173, 182)" fill-opacity="0.67"/><path d="M13,107L43,112L34,93Z" fill="rgb(7, 21, 12)" fill-opacity="0.42"/><path d="M148,147L168,143L162,162Z" fill="rgb(47, 27, 13)" fill-opacity="0.45"/><path d="M168,167L164,236L178,173Z" fill="rgb(105, 83, 84)" fill-opacity="0.79"/><path d="M235,112L224,107L222,139Z" fill="rgb(30, 48, 86)" fill-opacity="0.44"/><path d="M243,-8L243,40L239,2Z" fill="rgb(118, 25, 4)" fill-opacity="0.53"/><path d="M111,157L105,168L115,178Z" fill="rgb(77, 63, 66)" fill-opacity="0.50"/><path d="M56,100L44,93L39,122Z" fill="rgb(210, 164, 57)" fill-opacity="0.43"/><path d="M15,166L-65,158L5,148Z" fill="rgb(25, 95, 157)" fill-opacity="0.51"/><path d="M-1,104L19,109L-5,128Z" fill="rgb(71, 78, 2)" fill-opacity="0.69"/><path d="M29,40L60,84L30,68Z" fill="rgb(208, 203, 203)" fill-opacity="0.67"/><path d="M250,119L264,122L243,132Z" fill="rgb(17, 8, 10)" fill-opacity="0.46"/><path d="M29,73L6,76L30,65Z" fill="rgb(37, 33, 0)" fill-opacity="0.57"/><path d="M253,105L253,121L258,107Z" fill="rgb(112, 49, 19)" fill-opacity="0.59"/><path d="M119,126L140,109L125,134Z" fill="rgb(104, 133, 159)" fill-opacity="0.62"/><path d="M172,186L147,187L127,240Z" fill="rgb(46, 47, 66)" fill-opacity="0.55"/><path d="M53,137L57,141L78,135Z" fill="rgb(253, 250, 249)" fill-opacity="0.50"/><path d="M12,116L51,127L11,153Z" fill="rgb(92, 73, 37)" fill-opacity="0.65"/><path d="M86,186L105,174L101,168Z" fill="rgb(233, 204, 173)" fill-opacity="0.48"/><path d="M142,153L138,121L98,152Z" fill="rgb(38, 34, 37)" fill-opacity="0.47"/><path d="M228,76L238,3L246,74Z" fill="rgb(197, 48, 19)" fill-opacity="0.35"/><path d="M118,127L75,136L81,128Z" fill="rgb(79, 36, 6)" fill-opacity="0.49"/><path d="M179,155L178,180L207,160Z" fill="rgb(25, 11, 6)" fill-opacity="0.49"/><path d="M159,167L171,148L171,168Z" fill="rgb(255, 245, 236)" fill-opacity="0.50"/><path d="M251,112L248,116L262,118Z" fill="rgb(255, 199, 127)" fill-opacity="0.52"/><path d="M217,99L272,105L236,92Z" fill="rgb(130, 120, 123)" fill-opacity="0.93"/><path d="M4,34L9,21L-21,34Z" fill="rgb(121, 120, 83)" fill-opacity="0.58"/><path d="M150,125L159,111L187,115Z" fill="rgb(16, 10, 8)" fill-opacity="0.43"/><path d="M158,104L154,115L166,103Z" fill="rgb(240, 194, 168)" fill-opacity="0.54"/><path d="M187,17L212,63L186,85Z" fill="rgb(174, 168, 177)" fill-opacity="0.55"/><path d="M85,32L89,43L72,43Z" fill="rgb(180, 188, 203)" fill-opacity="0.55"/><path d="M160,72L157,90L164,88Z" fill="rgb(178, 122, 60)" fill-opacity="0.48"/><path d="M167,188L133,179L167,164Z" fill="rgb(215, 192, 179)" fill-opacity="0.50"/><path d="M6,123L18,124L10,129Z" fill="rgb(132, 156, 152)" fill-opacity="0.54"/><path d="M96,113L96,97L81,119Z" fill="rgb(126, 129, 165)" fill-opacity="0.47"/><path d="M1,73L28,28L11,91Z" fill="rgb(97, 127, 0)" fill-opacity="0.49"/><path d="M27,109L46,115L16,132Z" fill="rgb(116, 111, 59)" fill-opacity="0.73"/><path d="M140,81L169,81L180,108Z" fill="rgb(151, 101, 60)" fill-opacity="0.50"/><path d="M167,82L133,58L134,79Z" fill="rgb(55, 32, 31)" fill-opacity="0.55"/><path d="M216,163L177,132L230,147Z" fill="rgb(0, 5, 10)" fill-opacity="0.49"/><path d="M173,150L176,155L161,153Z" fill="rgb(255, 252, 244)" fill-opacity="0.51"/><path d="M92,76L91,40L60,75Z" fill="rgb(26, 23, 19)" fill-opacity="0.56"/><path d="M208,137L216,129L233,146Z" fill="rgb(236, 225, 194)" fill-opacity="0.24"/><path d="M158,157L145,158L153,174Z" fill="rgb(207, 215, 238)" fill-opacity="0.45"/><path d="M15,49L-15,93L-26,18Z" fill="rgb(40, 39, 36)" fill-opacity="0.49"/><path d="M44,97L40,89L37,99Z" fill="rgb(220, 190, 0)" fill-opacity="0.54"/><path d="M216,77L230,74L191,120Z" fill="rgb(42, 45, 46)" fill-opacity="0.46"/><path d="M209,71L210,95L223,71Z" fill="rgb(46, 24, 13)" fill-opacity="0.48"/><path d="M16,127L12,145L-43,148Z" fill="rgb(12, 3, 6)" fill-opacity="0.65"/><path d="M182,143L174,175L174,143Z" fill="rgb(138, 84, 60)" fill-opacity="0.46"/><path d="M8,86L47,94L30,80Z" fill="rgb(78, 97, 0)" fill-opacity="0.55"/><path d="M222,54L234,-1L232,46Z" fill="rgb(255, 189, 134)" fill-opacity="0.48"/><path d="M178,130L184,123L177,116Z" fill="rgb(255, 224, 181)" fill-opacity="0.36"/><path d="M74,99L71,131L57,97Z" fill="rgb(13, 6, 5)" fill-opacity="0.53"/><path d="M140,105L141,113L114,103Z" fill="rgb(25, 114, 170)" fill-opacity="0.47"/><path d="M107,150L93,152L117,119Z" fill="rgb(42, 40, 48)" fill-opacity="0.64"/><path d="M211,132L222,129L214,113Z" fill="rgb(9, 1, 0)" fill-opacity="0.55"/><path d="M147,191L137,183L123,190Z" fill="rgb(234, 208, 176)" fill-opacity="0.60"/><path d="M142,144L109,115L134,143Z" fill="rgb(127, 120, 120)" fill-opacity="0.52"/><path d="M75,99L83,89L77,122Z" fill="rgb(200, 160, 119)" fill-opacity="0.53"/><path d="M110,155L99,155L105,166Z" fill="rgb(255, 237, 200)" fill-opacity="0.39"/><path d="M109,119L79,79L120,82Z" fill="rgb(108, 71, 31)" fill-opacity="0.59"/><path d="M119,119L119,111L125,137Z" fill="rgb(178, 230, 244)" fill-opacity="0.51"/><path d="M190,229L234,182L290,173Z" fill="rgb(237, 81, 119)" fill-opacity="0.54"/><path d="M265,125L214,156L246,154Z" fill="rgb(153, 114, 74)" fill-opacity="0.43"/><path d="M202,190L228,260L236,168Z" fill="rgb(252, 133, 162)" fill-opacity="0.55"/><path d="M133,107L128,115L114,109Z" fill="rgb(130, 246, 255)" fill-opacity="0.54"/><path d="M185,180L177,186L197,190Z" fill="rgb(255, 247, 216)" fill-opacity="0.50"/><path d="M151,144L130,170L172,142Z" fill="rgb(104, 63, 39)" fill-opacity="0.50"/><path d="M143,17L150,62L147,70Z" fill="rgb(178, 178, 187)" fill-opacity="0.50"/><path d="M250,32L275,32L240,41Z" fill="rgb(33, 2, 0)" fill-opacity="0.49"/><path d="M241,72L293,73L250,76Z" fill="rgb(77, 148, 158)" fill-opacity="0.32"/><path d="M150,79L152,38L174,39Z" fill="rgb(13, 7, 9)" fill-opacity="0.50"/><path d="M-6,86L23,87L26,119Z" fill="rgb(99, 114, 62)" fill-opacity="0.50"/><path d="M85,117L71,121L87,124Z" fill="rgb(251, 212, 176)" fill-opacity="0.44"/><path d="M39,118L43,109L43,124Z" fill="rgb(255, 227, 171)" fill-opacity="0.42"/><path d="M151,172L125,163L144,165Z" fill="rgb(65, 53, 46)" fill-opacity="0.52"/><path d="M77,131L50,128L42,139Z" fill="rgb(5, 4, 13)" fill-opacity="0.50"/><path d="M54,159L98,138L39,148Z" fill="rgb(108, 75, 50)" fill-opacity="0.55"/><path d="M241,162L271,199L260,153Z" fill="rgb(21, 5, 0)" fill-opacity="0.55"/><path d="M40,87L68,110L45,101Z" fill="rgb(145, 129, 0)" fill-opacity="0.50"/><path d="M234,130L242,145L223,141Z" fill="rgb(217, 179, 144)" fill-opacity="0.40"/><path d="M106,137L76,139L93,132Z" fill="rgb(219, 172, 112)" fill-opacity="0.47"/><path d="M113,122L124,95L103,127Z" fill="rgb(188, 186, 178)" fill-opacity="0.39"/><path d="M127,149L143,149L149,137Z" fill="rgb(49, 19, 7)" fill-opacity="0.55"/><path d="M250,75L270,59L246,37Z" fill="rgb(0, 19, 14)" fill-opacity="0.46"/><path d="M100,74L69,97L56,82Z" fill="rgb(139, 128, 96)" fill-opacity="0.52"/><path d="M165,184L157,172L167,176Z" fill="rgb(255, 224, 175)" fill-opacity="0.62"/><path d="M176,81L124,86L148,120Z" fill="rgb(93, 53, 19)" fill-opacity="0.40"/><path d="M78,168L71,145L91,155Z" fill="rgb(30, 3, 0)" fill-opacity="0.38"/><path d="M170,103L172,85L157,114Z" fill="rgb(176, 127, 110)" fill-opacity="0.49"/><path d="M54,91L62,86L46,81Z" fill="rgb(187, 189, 161)" fill-opacity="0.54"/><path d="M7,82L36,71L37,80Z" fill="rgb(242, 243, 185)" fill-opacity="0.51"/><path d="M152,80L154,84L105,80Z" fill="rgb(255, 229, 141)" fill-opacity="0.39"/><path d="M227,161L225,142L211,178Z" fill="rgb(14, 14, 19)" fill-opacity="0.43"/><path d="M20,111L32,114L27,116Z" fill="rgb(42, 24, 37)" fill-opacity="0.53"/><path d="M20,197L-4,215L-4,165Z" fill="rgb(0, 6, 12)" fill-opacity="0.61"/><path d="M211,51L209,90L188,80Z" fill="rgb(163, 157, 165)" fill-opacity="0.91"/><path d="M71,148L28,169L24,187Z" fill="rgb(142, 94, 80)" fill-opacity="0.25"/><path d="M160,188L159,181L141,185Z" fill="rgb(126, 128, 156)" fill-opacity="0.69"/><path d="M30,30L8,21L8,40Z" fill="rgb(253, 255, 255)" fill-opacity="0.27"/><path d="M99,178L78,165L76,168Z" fill="rgb(190, 159, 136)" fill-opacity="0.54"/><path d="M26,127L30,164L33,129Z" fill="rgb(0, 9, 13)" fill-opacity="0.49"/><path d="M78,108L72,127L75,132Z" fill="rgb(196, 148, 102)" fill-opacity="0.54"/><path d="M253,47L262,44L252,36Z" fill="rgb(88, 119, 139)" fill-opacity="0.56"/><path d="M53,68L29,65L27,46Z" fill="rgb(197, 191, 194)" fill-opacity="0.52"/><path d="M20,97L8,91L-31,122Z" fill="rgb(71, 76, 32)" fill-opacity="0.81"/><path d="M14,45L33,36L14,33Z" fill="rgb(96, 104, 70)" fill-opacity="0.45"/><path d="M4,118L33,129L28,120Z" fill="rgb(107, 95, 0)" fill-opacity="0.58"/><path d="M217,98L176,102L216,106Z" fill="rgb(79, 56, 48)" fill-opacity="0.47"/><path d="M25,79L37,97L14,88Z" fill="rgb(111, 113, 0)" fill-opacity="0.36"/><path d="M116,142L129,129L133,158Z" fill="rgb(10, 15, 33)" fill-opacity="0.32"/><path d="M61,43L62,69L54,46Z" fill="rgb(85, 77, 67)" fill-opacity="0.63"/><path d="M229,94L226,114L226,92Z" fill="rgb(49, 42, 26)" fill-opacity="0.52"/><path d="M82,149L95,154L82,141Z" fill="rgb(212, 173, 119)" fill-opacity="0.50"/><path d="M157,136L146,161L163,145Z" fill="rgb(61, 35, 23)" fill-opacity="0.47"/><path d="M56,168L74,160L62,155Z" fill="rgb(24, 15, 13)" fill-opacity="0.57"/><path d="M232,49L222,78L228,42Z" fill="rgb(235, 105, 59)" fill-opacity="0.70"/><path d="M93,115L92,124L105,110Z" fill="rgb(229, 191, 162)" fill-opacity="0.53"/><path d="M187,70L173,68L181,50Z" fill="rgb(6, 5, 5)" fill-opacity="0.51"/></svg>