<svg xmlns="http://www.w3.org/2000/svg" viewBox="0 0 256 169.55844155844156" clip-path="url(#clip)" width="512" height="339.1168831168831"><defs><clipPath id="clip" clipPathUnits="objectBoundingBox"><rect x="0" y="0" width="256" height="169.55844155844156"/></clipPath></defs><rect x="0" y="0" width="256" height="169.55844155844156" fill="rgb(114, 140, 123)"/><path d="M125,28L-47,78L156,230Z" fill="rgb(38, 49, 43)" fill-opacity="0.85"/><path d="M37,20L219,22L125,-414Z" fill="rgb(237, 248, 243)" fill-opacity="0.89"/><path d="M20,253L137,122L348,148Z" fill="rgb(33, 47, 31)" fill-opacity="1.00"/><path d="M110,37L235,44L159,94Z" fill="rgb(76, 14, 4)" fill-opacity="0.58"/><path d="M50,27L13,34L-19,-59Z" fill="rgb(0, 0, 0)" fill-opacity="0.75"/><path d="M305,108L269,144L177,111Z" fill="rgb(38, 40, 21)" fill-opacity="0.82"/><path d="M1,62L-13,162L66,154Z" fill="rgb(75, 94, 68)" fill-opacity="1.00"/><path d="M140,128L129,78L154,79Z" fill="rgb(211, 230, 255)" fill-opacity="0.53"/><path d="M233,93L185,89L210,104Z" fill="rgb(233, 199, 152)" fill-opacity="0.72"/><path d="M222,69L233,55L245,114Z" fill="rgb(0, 0, 0)" fill-opacity="0.53"/><path d="M200,18L204,37L234,37Z" fill="rgb(250, 244, 206)" fill-opacity="0.70"/><path d="M165,103L218,112L156,115Z" fill="rgb(68, 27, 35)" fill-opacity="0.60"/><path d="M217,36L125,15L216,85Z" fill="rgb(139, 79, 56)" fill-opacity="0.58"/><path d="M156,32L183,26L152,-4Z" fill="rgb(253, 255, 255)" fill-opacity="0.55"/><path d="M207,15L159,45L172,25Z" fill="rgb(32, 23, 5)" fill-opacity="0.52"/><path d="M311,112L232,53L234,35Z" fill="rgb(249, 247, 207)" fill-opacity="0.70"/><path d="M13,39L117,35L105,126Z" fill="rgb(29, 44, 35)" fill-opacity="0.70"/><path d="M161,90L154,104L185,104Z" fill="rgb(241, 225, 255)" fill-opacity="0.54"/><path d="M91,48L60,34L85,20Z" fill="rgb(17, 41, 0)" fill-opacity="0.50"/><path d="M-41,40L7,20L15,93Z" fill="rgb(122, 175, 255)" fill-opacity="0.48"/><path d="M220,48L266,34L240,4Z" fill="rgb(102, 128, 0)" fill-opacity="0.50"/><path d="M8,36L17,0L19,42Z" fill="rgb(19, 7, 22)" fill-opacity="0.61"/><path d="M102,123L174,119L134,112Z" fill="rgb(231, 221, 207)" fill-opacity="0.48"/><path d="M67,160L-19,159L116,217Z" fill="rgb(112, 185, 255)" fill-opacity="0.81"/><path d="M62,161L72,139L17,149Z" fill="rgb(60, 82, 123)" fill-opacity="0.65"/><path d="M116,92L158,114L136,113Z" fill="rgb(17, 29, 59)" fill-opacity="0.60"/><path d="M151,10L146,37L114,40Z" fill="rgb(245, 157, 120)" fill-opacity="0.67"/><path d="M168,15L118,31L38,21Z" fill="rgb(223, 151, 117)" fill-opacity="0.70"/><path d="M229,99L273,128L261,44Z" fill="rgb(153, 142, 0)" fill-opacity="0.38"/><path d="M232,54L218,67L242,64Z" fill="rgb(26, 30, 32)" fill-opacity="0.60"/><path d="M180,152L219,149L141,135Z" fill="rgb(194, 142, 112)" fill-opacity="0.43"/><path d="M165,55L182,68L148,102Z" fill="rgb(8, 0, 4)" fill-opacity="0.49"/><path d="M163,123L203,117L230,125Z" fill="rgb(194, 180, 186)" fill-opacity="0.54"/><path d="M130,95L145,77L140,103Z" fill="rgb(255, 255, 255)" fill-opacity="0.56"/><path d="M66,165L61,98L121,121Z" fill="rgb(25, 31, 48)" fill-opacity="0.64"/><path d="M19,109L-14,74L7,119Z" fill="rgb(164, 175, 49)" fill-opacity="0.61"/><path d="M248,0L206,38L210,-21Z" fill="rgb(205, 219, 122)" fill-opacity="0.49"/><path d="M53,21L17,39L71,39Z" fill="rgb(252, 114, 91)" fill-opacity="0.43"/><path d="M31,117L20,127L37,134Z" fill="rgb(217, 246, 123)" fill-opacity="0.51"/><path d="M10,31L49,32L23,-12Z" fill="rgb(15, 10, 15)" fill-opacity="0.77"/><path d="M206,35L222,25L214,44Z" fill="rgb(255, 255, 198)" fill-opacity="0.43"/><path d="M28,111L63,105L-24,91Z" fill="rgb(132, 164, 35)" fill-opacity="0.58"/><path d="M5,68L8,33L41,67Z" fill="rgb(103, 128, 173)" fill-opacity="0.75"/><path d="M211,-5L163,33L138,-7Z" fill="rgb(238, 255, 255)" fill-opacity="0.79"/><path d="M41,154L18,159L16,151Z" fill="rgb(25, 0, 30)" fill-opacity="0.49"/><path d="M104,78L138,79L133,54Z" fill="rgb(78, 99, 128)" fill-opacity="0.56"/><path d="M169,25L200,30L212,45Z" fill="rgb(70, 14, 0)" fill-opacity="0.53"/><path d="M126,54L133,75L122,80Z" fill="rgb(120, 139, 162)" fill-opacity="0.56"/><path d="M156,20L153,90L136,55Z" fill="rgb(44, 28, 28)" fill-opacity="0.60"/><path d="M204,97L182,94L178,112Z" fill="rgb(67, 29, 34)" fill-opacity="0.53"/><path d="M186,58L189,75L203,58Z" fill="rgb(1, 35, 53)" fill-opacity="0.52"/><path d="M177,94L170,69L191,82Z" fill="rgb(170, 156, 153)" fill-opacity="0.42"/><path d="M253,61L220,41L266,55Z" fill="rgb(255, 253, 246)" fill-opacity="0.51"/><path d="M240,104L228,103L242,82Z" fill="rgb(0, 0, 5)" fill-opacity="0.51"/><path d="M237,226L253,110L236,100Z" fill="rgb(16, 38, 16)" fill-opacity="0.59"/><path d="M176,14L43,19L13,-33Z" fill="rgb(229, 251, 252)" fill-opacity="0.94"/><path d="M42,66L47,80L38,89Z" fill="rgb(116, 157, 226)" fill-opacity="0.56"/><path d="M155,37L133,57L196,25Z" fill="rgb(19, 7, 10)" fill-opacity="0.54"/><path d="M19,108L48,119L10,120Z" fill="rgb(27, 6, 29)" fill-opacity="0.52"/><path d="M114,39L128,52L163,35Z" fill="rgb(95, 94, 102)" fill-opacity="0.63"/><path d="M188,56L224,72L227,91Z" fill="rgb(78, 49, 56)" fill-opacity="0.43"/><path d="M57,14L71,41L62,13Z" fill="rgb(1, 54, 36)" fill-opacity="0.41"/><path d="M135,43L132,76L142,72Z" fill="rgb(50, 33, 32)" fill-opacity="0.72"/><path d="M174,81L162,74L171,91Z" fill="rgb(0, 0, 0)" fill-opacity="0.51"/><path d="M184,96L172,93L197,114Z" fill="rgb(32, 27, 43)" fill-opacity="0.62"/><path d="M158,115L145,101L146,112Z" fill="rgb(19, 26, 21)" fill-opacity="0.51"/><path d="M77,102L4,97L1,85Z" fill="rgb(24, 18, 32)" fill-opacity="0.48"/><path d="M220,104L214,86L201,96Z" fill="rgb(242, 221, 168)" fill-opacity="0.55"/><path d="M53,158L94,122L76,166Z" fill="rgb(27, 50, 71)" fill-opacity="0.74"/><path d="M85,24L108,14L92,39Z" fill="rgb(232, 155, 122)" fill-opacity="0.49"/><path d="M154,29L154,15L142,38Z" fill="rgb(12, 8, 25)" fill-opacity="0.44"/><path d="M130,78L138,113L89,86Z" fill="rgb(0, 16, 43)" fill-opacity="0.41"/><path d="M75,97L61,100L63,68Z" fill="rgb(114, 99, 67)" fill-opacity="0.52"/><path d="M93,56L150,57L152,45Z" fill="rgb(0, 13, 8)" fill-opacity="0.52"/><path d="M222,17L217,-30L193,-7Z" fill="rgb(235, 255, 255)" fill-opacity="0.41"/><path d="M48,88L96,54L84,20Z" fill="rgb(23, 55, 30)" fill-opacity="0.58"/><path d="M119,37L90,40L108,25Z" fill="rgb(109, 124, 88)" fill-opacity="0.58"/><path d="M280,104L238,74L244,54Z" fill="rgb(216, 217, 90)" fill-opacity="0.44"/><path d="M191,16L159,38L157,34Z" fill="rgb(94, 101, 108)" fill-opacity="0.58"/><path d="M233,81L231,117L225,75Z" fill="rgb(176, 141, 164)" fill-opacity="0.42"/><path d="M156,100L150,105L150,94Z" fill="rgb(32, 13, 29)" fill-opacity="0.54"/><path d="M218,30L209,35L203,18Z" fill="rgb(248, 253, 255)" fill-opacity="0.52"/><path d="M137,66L177,33L177,58Z" fill="rgb(172, 122, 97)" fill-opacity="0.36"/><path d="M233,43L237,7L210,15Z" fill="rgb(149, 171, 82)" fill-opacity="0.55"/><path d="M202,131L195,119L231,119Z" fill="rgb(170, 156, 146)" fill-opacity="0.58"/><path d="M28,34L19,31L19,39Z" fill="rgb(251, 235, 255)" fill-opacity="0.48"/><path d="M39,153L24,166L51,162Z" fill="rgb(116, 182, 254)" fill-opacity="0.51"/><path d="M225,99L235,104L241,94Z" fill="rgb(5, 1, 0)" fill-opacity="0.54"/><path d="M232,111L206,110L237,104Z" fill="rgb(248, 206, 241)" fill-opacity="0.41"/><path d="M115,140L91,95L124,110Z" fill="rgb(112, 71, 86)" fill-opacity="0.34"/><path d="M76,36L63,46L69,80Z" fill="rgb(51, 98, 65)" fill-opacity="0.57"/><path d="M184,17L196,32L200,17Z" fill="rgb(132, 152, 62)" fill-opacity="0.51"/><path d="M135,19L99,14L111,36Z" fill="rgb(233, 159, 123)" fill-opacity="0.52"/><path d="M33,147L61,115L28,135Z" fill="rgb(37, 61, 14)" fill-opacity="0.52"/><path d="M219,71L217,66L211,83Z" fill="rgb(181, 186, 174)" fill-opacity="0.48"/><path d="M125,132L140,143L207,149Z" fill="rgb(151, 115, 93)" fill-opacity="0.55"/><path d="M170,116L185,125L152,124Z" fill="rgb(216, 193, 198)" fill-opacity="0.49"/><path d="M47,87L47,103L61,91Z" fill="rgb(49, 0, 11)" fill-opacity="0.47"/><path d="M20,47L15,58L23,82Z" fill="rgb(143, 40, 37)" fill-opacity="0.48"/><path d="M219,104L220,96L229,97Z" fill="rgb(72, 47, 33)" fill-opacity="0.51"/><path d="M60,20L44,25L32,-60Z" fill="rgb(229, 251, 254)" fill-opacity="0.50"/><path d="M13,79L20,107L40,81Z" fill="rgb(1, 24, 30)" fill-opacity="0.53"/><path d="M93,97L89,123L49,113Z" fill="rgb(16, 6, 15)" fill-opacity="0.50"/><path d="M201,22L179,-5L218,-3Z" fill="rgb(237, 255, 253)" fill-opacity="0.57"/><path d="M148,90L165,98L177,93Z" fill="rgb(194, 136, 112)" fill-opacity="0.51"/><path d="M10,34L23,37L42,64Z" fill="rgb(35, 23, 34)" fill-opacity="0.71"/><path d="M147,113L116,117L154,124Z" fill="rgb(210, 226, 213)" fill-opacity="0.50"/><path d="M238,55L221,74L234,77Z" fill="rgb(0, 6, 0)" fill-opacity="0.43"/><path d="M150,97L130,84L148,77Z" fill="rgb(239, 255, 255)" fill-opacity="0.54"/><path d="M169,105L187,117L286,124Z" fill="rgb(30, 21, 4)" fill-opacity="0.46"/><path d="M3,103L1,86L-9,114Z" fill="rgb(255, 255, 106)" fill-opacity="0.58"/><path d="M-3,130L38,109L-1,148Z" fill="rgb(42, 41, 21)" fill-opacity="0.53"/><path d="M213,90L215,84L244,85Z" fill="rgb(39, 36, 46)" fill-opacity="0.48"/><path d="M180,63L166,86L163,59Z" fill="rgb(0, 0, 6)" fill-opacity="0.53"/><path d="M121,81L136,91L107,110Z" fill="rgb(27, 23, 36)" fill-opacity="0.47"/><path d="M208,88L231,93L216,96Z" fill="rgb(246, 244, 234)" fill-opacity="0.40"/><path d="M107,128L169,145L105,135Z" fill="rgb(131, 103, 82)" fill-opacity="0.71"/><path d="M286,83L239,38L224,-22Z" fill="rgb(93, 121, 32)" fill-opacity="0.51"/><path d="M14,88L16,100L8,97Z" fill="rgb(114, 162, 111)" fill-opacity="0.52"/><path d="M200,102L206,94L193,96Z" fill="rgb(138, 90, 29)" fill-opacity="0.49"/><path d="M135,78L146,77L151,97Z" fill="rgb(230, 243, 247)" fill-opacity="0.50"/><path d="M254,21L188,-22L325,14Z" fill="rgb(149, 169, 74)" fill-opacity="0.56"/><path d="M117,29L133,30L122,31Z" fill="rgb(57, 56, 12)" fill-opacity="0.50"/><path d="M143,127L140,136L138,118Z" fill="rgb(25, 32, 12)" fill-opacity="0.44"/><path d="M15,130L-5,161L21,157Z" fill="rgb(40, 53, 32)" fill-opacity="0.57"/><path d="M2,63L5,74L-36,116Z" fill="rgb(86, 136, 2)" fill-opacity="0.72"/><path d="M193,48L218,38L211,72Z" fill="rgb(170, 82, 24)" fill-opacity="0.50"/><path d="M228,51L217,43L246,17Z" fill="rgb(148, 148, 68)" fill-opacity="0.52"/><path d="M-45,8L4,12L14,78Z" fill="rgb(117, 158, 211)" fill-opacity="0.49"/><path d="M12,159L43,157L82,171Z" fill="rgb(120, 190, 252)" fill-opacity="0.62"/><path d="M257,102L258,111L245,122Z" fill="rgb(146, 133, 75)" fill-opacity="0.52"/><path d="M221,31L203,19L216,8Z" fill="rgb(174, 194, 133)" fill-opacity="0.58"/><path d="M231,103L229,109L240,106Z" fill="rgb(227, 246, 255)" fill-opacity="0.49"/><path d="M111,81L112,67L118,74Z" fill="rgb(116, 176, 239)" fill-opacity="0.43"/><path d="M161,97L183,107L182,100Z" fill="rgb(194, 225, 255)" fill-opacity="0.47"/><path d="M60,94L63,87L53,87Z" fill="rgb(133, 138, 167)" fill-opacity="0.50"/><path d="M288,110L220,123L215,130Z" fill="rgb(28, 45, 26)" fill-opacity="0.65"/><path d="M24,36L13,32L30,33Z" fill="rgb(255, 252, 255)" fill-opacity="0.50"/><path d="M214,76L215,99L207,75Z" fill="rgb(255, 243, 221)" fill-opacity="0.28"/><path d="M144,45L149,36L143,22Z" fill="rgb(202, 183, 182)" fill-opacity="0.44"/><path d="M172,96L163,67L178,98Z" fill="rgb(31, 21, 26)" fill-opacity="0.54"/><path d="M36,115L78,142L48,139Z" fill="rgb(24, 25, 49)" fill-opacity="0.48"/><path d="M153,45L165,72L151,78Z" fill="rgb(117, 63, 38)" fill-opacity="0.59"/><path d="M110,98L104,107L89,98Z" fill="rgb(78, 97, 122)" fill-opacity="0.39"/><path d="M214,44L188,21L200,19Z" fill="rgb(181, 167, 92)" fill-opacity="0.45"/><path d="M133,116L118,111L124,117Z" fill="rgb(174, 131, 122)" fill-opacity="0.54"/><path d="M71,81L81,36L125,64Z" fill="rgb(9, 40, 13)" fill-opacity="0.50"/><path d="M7,125L5,108L-8,134Z" fill="rgb(9, 35, 152)" fill-opacity="0.41"/><path d="M164,44L157,47L161,58Z" fill="rgb(191, 134, 123)" fill-opacity="0.50"/><path d="M51,157L52,139L71,143Z" fill="rgb(89, 108, 122)" fill-opacity="0.56"/><path d="M22,64L21,45L48,71Z" fill="rgb(78, 134, 182)" fill-opacity="0.42"/><path d="M219,38L235,59L231,35Z" fill="rgb(167, 158, 98)" fill-opacity="0.61"/><path d="M49,75L44,88L59,82Z" fill="rgb(55, 0, 26)" fill-opacity="0.56"/><path d="M249,80L265,108L238,105Z" fill="rgb(171, 189, 44)" fill-opacity="0.38"/><path d="M124,133L59,118L156,123Z" fill="rgb(33, 36, 32)" fill-opacity="0.50"/><path d="M185,91L201,81L208,91Z" fill="rgb(113, 62, 63)" fill-opacity="0.54"/><path d="M234,57L234,41L261,58Z" fill="rgb(242, 250, 255)" fill-opacity="0.60"/><path d="M42,16L3,16L8,-38Z" fill="rgb(25, 17, 24)" fill-opacity="0.46"/><path d="M169,94L153,94L169,90Z" fill="rgb(254, 196, 156)" fill-opacity="0.59"/><path d="M164,104L153,110L158,90Z" fill="rgb(214, 188, 190)" fill-opacity="0.48"/><path d="M154,11L164,35L155,29Z" fill="rgb(244, 255, 255)" fill-opacity="0.50"/><path d="M191,94L186,90L203,94Z" fill="rgb(255, 255, 233)" fill-opacity="0.53"/><path d="M78,92L69,91L68,103Z" fill="rgb(84, 109, 147)" fill-opacity="0.49"/><path d="M194,144L203,153L172,148Z" fill="rgb(144, 110, 75)" fill-opacity="0.53"/><path d="M131,63L130,75L133,75Z" fill="rgb(159, 201, 244)" fill-opacity="0.51"/><path d="M35,102L40,80L13,103Z" fill="rgb(20, 58, 21)" fill-opacity="0.42"/><path d="M56,122L61,132L63,107Z" fill="rgb(138, 113, 146)" fill-opacity="0.35"/><path d="M157,92L177,106L152,97Z" fill="rgb(191, 213, 255)" fill-opacity="0.35"/><path d="M185,109L164,123L180,126Z" fill="rgb(174, 170, 172)" fill-opacity="0.61"/><path d="M174,48L187,47L172,38Z" fill="rgb(110, 146, 161)" fill-opacity="0.49"/><path d="M159,193L216,140L331,153Z" fill="rgb(18, 40, 23)" fill-opacity="0.92"/><path d="M239,27L253,35L287,27Z" fill="rgb(28, 63, 0)" fill-opacity="0.41"/><path d="M49,130L-19,140L54,145Z" fill="rgb(74, 130, 3)" fill-opacity="0.35"/><path d="M77,23L87,65L65,29Z" fill="rgb(31, 71, 36)" fill-opacity="0.70"/><path d="M123,55L127,64L125,87Z" fill="rgb(115, 142, 164)" fill-opacity="0.49"/><path d="M218,81L217,84L197,83Z" fill="rgb(161, 196, 221)" fill-opacity="0.51"/><path d="M224,26L224,19L244,38Z" fill="rgb(160, 191, 143)" fill-opacity="0.51"/><path d="M236,49L231,46L221,54Z" fill="rgb(245, 180, 188)" fill-opacity="0.41"/><path d="M43,91L48,76L40,70Z" fill="rgb(113, 141, 190)" fill-opacity="0.45"/><path d="M10,96L11,89L38,113Z" fill="rgb(137, 178, 118)" fill-opacity="0.29"/><path d="M221,55L214,52L223,42Z" fill="rgb(7, 3, 0)" fill-opacity="0.49"/><path d="M141,104L146,98L158,102Z" fill="rgb(15, 34, 73)" fill-opacity="0.36"/><path d="M37,130L36,118L15,133Z" fill="rgb(158, 197, 95)" fill-opacity="0.56"/><path d="M48,24L67,33L49,39Z" fill="rgb(219, 152, 123)" fill-opacity="0.60"/><path d="M194,99L172,82L186,74Z" fill="rgb(159, 146, 131)" fill-opacity="0.58"/><path d="M79,20L75,23L84,31Z" fill="rgb(203, 150, 124)" fill-opacity="0.49"/><path d="M148,142L238,241L101,136Z" fill="rgb(12, 35, 16)" fill-opacity="0.55"/><path d="M277,160L221,117L243,104Z" fill="rgb(21, 41, 17)" fill-opacity="0.66"/><path d="M178,76L165,62L179,58Z" fill="rgb(7, 11, 16)" fill-opacity="0.64"/><path d="M184,130L212,128L122,120Z" fill="rgb(178, 105, 57)" fill-opacity="0.37"/><path d="M19,132L26,120L28,124Z" fill="rgb(243, 247, 170)" fill-opacity="0.54"/><path d="M161,41L200,26L158,33Z" fill="rgb(19, 0, 6)" fill-opacity="0.31"/><path d="M240,80L234,67L264,52Z" fill="rgb(175, 182, 88)" fill-opacity="0.60"/><path d="M130,113L155,115L147,124Z" fill="rgb(218, 245, 236)" fill-opacity="0.43"/><path d="M160,207L201,154L166,146Z" fill="rgb(21, 45, 27)" fill-opacity="0.89"/><path d="M120,131L214,146L203,128Z" fill="rgb(3, 11, 5)" fill-opacity="0.38"/><path d="M157,115L150,101L156,105Z" fill="rgb(231, 158, 126)" fill-opacity="0.53"/><path d="M173,106L180,117L154,114Z" fill="rgb(88, 80, 93)" fill-opacity="0.66"/><path d="M125,111L125,82L132,101Z" fill="rgb(0, 23, 129)" fill-opacity="0.37"/><path d="M6,106L15,126L10,133Z" fill="rgb(200, 144, 118)" fill-opacity="0.33"/></svg>