<svg xmlns="http://www.w3.org/2000/svg" viewBox="0 0 256 169.55844155844156" clip-path="url(#clip)" width="512" height="339.1168831168831"><defs><clipPath id="clip" clipPathUnits="objectBoundingBox"><rect x="0" y="0" width="256" height="169.55844155844156"/></clipPath></defs><rect x="0" y="0" width="256" height="169.55844155844156" fill="rgb(127, 148, 172)"/><path d="M327,259L2,163L216,105Z" fill="rgb(37, 73, 103)" fill-opacity="0.64"/><path d="M61,20L184,18L99,88Z" fill="rgb(51, 14, 3)" fill-opacity="0.60"/><path d="M135,150L184,160L191,61Z" fill="rgb(142, 197, 248)" fill-opacity="0.58"/><path d="M70,63L28,64L107,190Z" fill="rgb(71, 66, 89)" fill-opacity="0.71"/><path d="M149,189L128,116L84,197Z" fill="rgb(10, 0, 4)" fill-opacity="0.51"/><path d="M37,93L81,102L45,129Z" fill="rgb(125, 74, 86)" fill-opacity="0.75"/><path d="M174,86L115,22L189,20Z" fill="rgb(129, 77, 49)" fill-opacity="0.69"/><path d="M268,141L252,190L220,158Z" fill="rgb(16, 39, 4)" fill-opacity="0.69"/><path d="M172,17L81,97L198,66Z" fill="rgb(129, 98, 83)" fill-opacity="0.64"/><path d="M-34,23L303,-240L263,15Z" fill="rgb(200, 226, 254)" fill-opacity="0.72"/><path d="M235,143L177,146L217,38Z" fill="rgb(25, 147, 218)" fill-opacity="0.62"/><path d="M225,66L291,59L230,147Z" fill="rgb(178, 214, 255)" fill-opacity="0.65"/><path d="M216,85L197,113L172,101Z" fill="rgb(51, 18, 10)" fill-opacity="0.30"/><path d="M227,69L269,15L229,17Z" fill="rgb(52, 57, 87)" fill-opacity="0.46"/><path d="M0,11L0,164L42,84Z" fill="rgb(178, 214, 253)" fill-opacity="0.67"/><path d="M-52,55L27,3L27,91Z" fill="rgb(177, 210, 240)" fill-opacity="1.00"/><path d="M104,129L156,133L120,149Z" fill="rgb(0, 0, 0)" fill-opacity="0.60"/><path d="M232,27L217,62L216,12Z" fill="rgb(220, 240, 255)" fill-opacity="0.59"/><path d="M72,11L54,68L46,1Z" fill="rgb(177, 210, 240)" fill-opacity="0.58"/><path d="M130,68L156,61L135,55Z" fill="rgb(255, 255, 219)" fill-opacity="0.53"/><path d="M68,64L145,73L67,17Z" fill="rgb(71, 67, 79)" fill-opacity="0.76"/><path d="M55,36L28,17L27,30Z" fill="rgb(4, 4, 40)" fill-opacity="0.49"/><path d="M92,134L101,154L127,149Z" fill="rgb(169, 199, 243)" fill-opacity="0.50"/><path d="M192,55L184,38L165,65Z" fill="rgb(1, 17, 50)" fill-opacity="0.43"/><path d="M162,93L174,153L112,95Z" fill="rgb(182, 217, 255)" fill-opacity="0.60"/><path d="M172,108L167,79L227,52Z" fill="rgb(94, 187, 243)" fill-opacity="0.67"/><path d="M63,65L45,67L43,47Z" fill="rgb(50, 33, 40)" fill-opacity="0.54"/><path d="M297,59L224,62L245,53Z" fill="rgb(42, 14, 11)" fill-opacity="0.51"/><path d="M64,72L108,123L154,121Z" fill="rgb(158, 194, 237)" fill-opacity="0.60"/><path d="M227,29L210,44L226,58Z" fill="rgb(218, 225, 250)" fill-opacity="0.58"/><path d="M266,19L266,30L232,23Z" fill="rgb(27, 4, 0)" fill-opacity="0.59"/><path d="M49,67L21,64L46,83Z" fill="rgb(30, 49, 70)" fill-opacity="0.46"/><path d="M199,20L218,26L195,27Z" fill="rgb(73, 43, 50)" fill-opacity="0.49"/><path d="M141,156L173,262L176,158Z" fill="rgb(51, 48, 60)" fill-opacity="0.76"/><path d="M49,73L42,24L50,28Z" fill="rgb(24, 28, 62)" fill-opacity="0.62"/><path d="M56,51L57,99L43,110Z" fill="rgb(163, 130, 132)" fill-opacity="0.72"/><path d="M147,140L148,124L107,122Z" fill="rgb(30, 19, 30)" fill-opacity="0.39"/><path d="M138,58L139,24L129,28Z" fill="rgb(0, 2, 15)" fill-opacity="0.44"/><path d="M64,130L92,83L95,152Z" fill="rgb(0, 46, 106)" fill-opacity="0.45"/><path d="M58,147L126,163L-16,194Z" fill="rgb(71, 33, 25)" fill-opacity="0.50"/><path d="M229,132L250,152L260,124Z" fill="rgb(155, 192, 237)" fill-opacity="0.68"/><path d="M186,84L200,66L196,44Z" fill="rgb(164, 224, 253)" fill-opacity="0.55"/><path d="M-48,197L42,70L37,152Z" fill="rgb(145, 174, 212)" fill-opacity="0.81"/><path d="M104,69L91,17L128,21Z" fill="rgb(1, 13, 45)" fill-opacity="0.35"/><path d="M66,107L52,80L66,81Z" fill="rgb(33, 7, 0)" fill-opacity="0.53"/><path d="M75,143L110,153L50,166Z" fill="rgb(224, 172, 164)" fill-opacity="0.28"/><path d="M238,83L233,93L223,84Z" fill="rgb(70, 108, 164)" fill-opacity="0.60"/><path d="M160,66L175,55L117,59Z" fill="rgb(255, 223, 180)" fill-opacity="0.55"/><path d="M177,155L143,158L149,131Z" fill="rgb(172, 194, 232)" fill-opacity="0.48"/><path d="M157,42L133,41L166,46Z" fill="rgb(255, 210, 155)" fill-opacity="0.53"/><path d="M67,24L68,82L44,16Z" fill="rgb(178, 214, 246)" fill-opacity="0.51"/><path d="M85,93L120,94L114,57Z" fill="rgb(91, 100, 115)" fill-opacity="0.69"/><path d="M223,-123L229,17L186,23Z" fill="rgb(191, 211, 237)" fill-opacity="1.00"/><path d="M169,132L214,145L210,208Z" fill="rgb(30, 48, 96)" fill-opacity="0.49"/><path d="M133,61L123,76L124,25Z" fill="rgb(154, 88, 59)" fill-opacity="0.73"/><path d="M27,67L30,46L31,76Z" fill="rgb(18, 73, 153)" fill-opacity="0.59"/><path d="M151,43L199,40L152,49Z" fill="rgb(255, 189, 139)" fill-opacity="0.46"/><path d="M47,84L44,72L38,95Z" fill="rgb(39, 13, 0)" fill-opacity="0.49"/><path d="M190,67L80,63L176,76Z" fill="rgb(96, 73, 71)" fill-opacity="0.73"/><path d="M31,96L36,71L42,80Z" fill="rgb(184, 225, 255)" fill-opacity="0.53"/><path d="M189,48L186,21L195,18Z" fill="rgb(228, 247, 255)" fill-opacity="0.58"/><path d="M93,73L63,63L81,116Z" fill="rgb(123, 165, 215)" fill-opacity="0.46"/><path d="M256,89L213,43L223,76Z" fill="rgb(177, 225, 255)" fill-opacity="0.51"/><path d="M115,144L96,129L93,156Z" fill="rgb(147, 177, 216)" fill-opacity="0.58"/><path d="M214,21L190,46L215,53Z" fill="rgb(168, 107, 107)" fill-opacity="0.59"/><path d="M137,154L111,150L142,145Z" fill="rgb(129, 161, 198)" fill-opacity="0.52"/><path d="M67,67L84,50L86,61Z" fill="rgb(149, 127, 135)" fill-opacity="0.67"/><path d="M249,180L228,145L266,151Z" fill="rgb(15, 45, 4)" fill-opacity="0.45"/><path d="M200,60L195,88L226,67Z" fill="rgb(41, 146, 212)" fill-opacity="0.71"/><path d="M208,20L225,30L229,11Z" fill="rgb(199, 220, 248)" fill-opacity="0.64"/><path d="M187,87L206,89L184,111Z" fill="rgb(160, 115, 121)" fill-opacity="0.65"/><path d="M234,126L251,130L213,168Z" fill="rgb(166, 213, 241)" fill-opacity="0.24"/><path d="M40,92L49,110L64,59Z" fill="rgb(157, 127, 131)" fill-opacity="0.67"/><path d="M129,157L122,231L104,156Z" fill="rgb(6, 16, 29)" fill-opacity="0.62"/><path d="M73,97L90,90L104,109Z" fill="rgb(145, 172, 207)" fill-opacity="0.55"/><path d="M263,127L249,109L238,127Z" fill="rgb(65, 80, 187)" fill-opacity="0.49"/><path d="M152,41L149,48L138,41Z" fill="rgb(255, 183, 127)" fill-opacity="0.47"/><path d="M100,70L101,58L79,51Z" fill="rgb(81, 101, 132)" fill-opacity="0.49"/><path d="M170,50L200,65L183,45Z" fill="rgb(4, 27, 51)" fill-opacity="0.44"/><path d="M158,95L180,71L112,89Z" fill="rgb(104, 92, 99)" fill-opacity="0.52"/><path d="M118,147L145,143L146,124Z" fill="rgb(14, 12, 17)" fill-opacity="0.56"/><path d="M227,43L230,12L233,63Z" fill="rgb(120, 95, 97)" fill-opacity="0.67"/><path d="M222,84L213,115L201,92Z" fill="rgb(0, 102, 158)" fill-opacity="0.52"/><path d="M194,39L196,70L186,36Z" fill="rgb(207, 232, 255)" fill-opacity="0.50"/><path d="M57,92L67,106L54,109Z" fill="rgb(153, 0, 34)" fill-opacity="0.49"/><path d="M242,160L225,143L257,155Z" fill="rgb(23, 54, 28)" fill-opacity="0.65"/><path d="M71,126L95,112L71,142Z" fill="rgb(15, 45, 83)" fill-opacity="0.49"/><path d="M334,29L237,27L231,55Z" fill="rgb(87, 141, 195)" fill-opacity="0.65"/><path d="M151,42L133,34L187,37Z" fill="rgb(43, 25, 17)" fill-opacity="0.52"/><path d="M174,157L197,183L184,126Z" fill="rgb(86, 118, 163)" fill-opacity="0.72"/><path d="M65,79L101,74L66,113Z" fill="rgb(124, 156, 180)" fill-opacity="0.33"/><path d="M170,58L191,70L187,56Z" fill="rgb(168, 145, 170)" fill-opacity="0.48"/><path d="M192,69L201,60L199,56Z" fill="rgb(204, 255, 255)" fill-opacity="0.50"/><path d="M199,68L212,56L203,50Z" fill="rgb(37, 61, 99)" fill-opacity="0.49"/><path d="M44,68L51,82L45,83Z" fill="rgb(36, 16, 1)" fill-opacity="0.50"/><path d="M90,52L89,41L64,49Z" fill="rgb(20, 22, 33)" fill-opacity="0.49"/><path d="M67,119L53,115L42,125Z" fill="rgb(0, 21, 39)" fill-opacity="0.47"/><path d="M47,41L44,29L29,24Z" fill="rgb(98, 44, 18)" fill-opacity="0.47"/><path d="M56,58L62,64L47,64Z" fill="rgb(0, 6, 13)" fill-opacity="0.43"/><path d="M67,122L74,101L97,112Z" fill="rgb(16, 60, 114)" fill-opacity="0.43"/><path d="M230,85L183,134L225,148Z" fill="rgb(41, 147, 214)" fill-opacity="0.50"/><path d="M53,123L41,124L51,168Z" fill="rgb(81, 124, 174)" fill-opacity="0.55"/><path d="M103,126L116,151L130,136Z" fill="rgb(1, 2, 10)" fill-opacity="0.44"/><path d="M90,94L184,104L101,125Z" fill="rgb(167, 202, 239)" fill-opacity="0.46"/><path d="M69,19L79,30L99,20Z" fill="rgb(3, 0, 0)" fill-opacity="0.34"/><path d="M47,160L59,187L1,170Z" fill="rgb(37, 43, 51)" fill-opacity="0.48"/><path d="M139,157L144,158L144,139Z" fill="rgb(10, 7, 12)" fill-opacity="0.52"/><path d="M60,149L52,123L69,120Z" fill="rgb(124, 188, 248)" fill-opacity="0.38"/><path d="M255,150L247,153L240,142Z" fill="rgb(100, 139, 156)" fill-opacity="0.46"/><path d="M162,64L133,59L167,60Z" fill="rgb(255, 255, 226)" fill-opacity="0.56"/><path d="M267,23L228,29L231,20Z" fill="rgb(45, 20, 17)" fill-opacity="0.41"/><path d="M215,23L217,39L204,19Z" fill="rgb(65, 61, 68)" fill-opacity="0.46"/><path d="M43,17L40,22L62,33Z" fill="rgb(187, 221, 251)" fill-opacity="0.51"/><path d="M102,60L125,73L94,74Z" fill="rgb(76, 53, 57)" fill-opacity="0.54"/><path d="M9,43L32,142L40,83Z" fill="rgb(173, 208, 243)" fill-opacity="0.45"/><path d="M58,165L70,184L103,162Z" fill="rgb(27, 35, 52)" fill-opacity="0.67"/><path d="M36,85L47,153L29,154Z" fill="rgb(147, 182, 224)" fill-opacity="0.55"/><path d="M50,27L52,61L68,50Z" fill="rgb(175, 210, 241)" fill-opacity="0.59"/><path d="M202,110L186,107L198,99Z" fill="rgb(0, 32, 50)" fill-opacity="0.40"/><path d="M187,18L180,16L175,42Z" fill="rgb(87, 40, 25)" fill-opacity="0.47"/><path d="M172,60L176,47L130,45Z" fill="rgb(118, 65, 41)" fill-opacity="0.61"/><path d="M74,150L61,159L55,148Z" fill="rgb(66, 31, 24)" fill-opacity="0.53"/><path d="M221,50L211,51L229,96Z" fill="rgb(86, 202, 255)" fill-opacity="0.46"/><path d="M211,52L190,27L202,58Z" fill="rgb(152, 100, 104)" fill-opacity="0.55"/><path d="M30,76L28,61L40,69Z" fill="rgb(22, 42, 87)" fill-opacity="0.47"/><path d="M204,137L195,235L216,154Z" fill="rgb(0, 14, 49)" fill-opacity="0.29"/><path d="M151,135L153,132L147,130Z" fill="rgb(53, 71, 93)" fill-opacity="0.71"/><path d="M127,89L134,75L82,79Z" fill="rgb(112, 137, 153)" fill-opacity="0.65"/><path d="M228,61L259,58L227,51Z" fill="rgb(67, 44, 43)" fill-opacity="0.39"/><path d="M223,145L222,158L230,150Z" fill="rgb(139, 173, 210)" fill-opacity="0.59"/><path d="M150,134L169,135L136,145Z" fill="rgb(145, 177, 214)" fill-opacity="0.51"/><path d="M99,165L54,141L77,140Z" fill="rgb(141, 119, 123)" fill-opacity="0.55"/><path d="M33,54L27,21L28,52Z" fill="rgb(35, 93, 171)" fill-opacity="0.56"/><path d="M254,148L265,152L252,140Z" fill="rgb(38, 83, 71)" fill-opacity="0.57"/><path d="M84,22L102,43L73,46Z" fill="rgb(20, 92, 155)" fill-opacity="0.24"/><path d="M68,58L51,59L51,51Z" fill="rgb(179, 216, 249)" fill-opacity="0.55"/><path d="M82,143L91,150L83,114Z" fill="rgb(3, 23, 56)" fill-opacity="0.55"/><path d="M157,93L173,72L169,105Z" fill="rgb(82, 137, 166)" fill-opacity="0.53"/><path d="M199,97L191,118L193,101Z" fill="rgb(0, 23, 34)" fill-opacity="0.36"/><path d="M209,24L196,26L192,48Z" fill="rgb(161, 112, 122)" fill-opacity="0.60"/><path d="M264,118L228,102L261,57Z" fill="rgb(182, 213, 250)" fill-opacity="0.47"/><path d="M121,46L109,64L119,34Z" fill="rgb(26, 39, 69)" fill-opacity="0.53"/><path d="M46,105L62,112L48,115Z" fill="rgb(169, 146, 140)" fill-opacity="0.50"/><path d="M186,15L154,41L187,41Z" fill="rgb(104, 58, 43)" fill-opacity="0.49"/><path d="M240,94L230,81L239,85Z" fill="rgb(83, 96, 204)" fill-opacity="0.45"/><path d="M180,21L148,19L174,17Z" fill="rgb(13, 7, 7)" fill-opacity="0.41"/><path d="M42,125L46,156L60,143Z" fill="rgb(96, 132, 175)" fill-opacity="0.66"/><path d="M189,116L179,98L168,137Z" fill="rgb(97, 181, 229)" fill-opacity="0.45"/><path d="M142,163L197,166L67,207Z" fill="rgb(98, 88, 96)" fill-opacity="0.47"/><path d="M138,34L130,60L140,50Z" fill="rgb(32, 21, 18)" fill-opacity="0.63"/><path d="M48,126L38,86L40,108Z" fill="rgb(108, 17, 44)" fill-opacity="0.53"/><path d="M62,32L18,15L86,-23Z" fill="rgb(168, 197, 225)" fill-opacity="0.86"/><path d="M172,81L199,72L164,95Z" fill="rgb(133, 210, 255)" fill-opacity="0.51"/><path d="M168,73L172,80L156,90Z" fill="rgb(120, 133, 154)" fill-opacity="0.64"/><path d="M130,65L172,65L134,57Z" fill="rgb(255, 247, 209)" fill-opacity="0.39"/><path d="M183,37L185,52L193,63Z" fill="rgb(35, 32, 38)" fill-opacity="0.49"/><path d="M210,25L209,43L200,26Z" fill="rgb(184, 141, 153)" fill-opacity="0.51"/><path d="M67,62L69,21L76,59Z" fill="rgb(105, 59, 42)" fill-opacity="0.54"/><path d="M223,66L246,93L263,65Z" fill="rgb(181, 209, 239)" fill-opacity="0.85"/><path d="M177,158L172,128L187,148Z" fill="rgb(61, 93, 138)" fill-opacity="0.57"/><path d="M192,34L197,52L207,34Z" fill="rgb(134, 101, 112)" fill-opacity="0.67"/><path d="M188,34L194,59L199,57Z" fill="rgb(214, 235, 255)" fill-opacity="0.57"/><path d="M222,155L225,201L238,166Z" fill="rgb(62, 74, 80)" fill-opacity="0.70"/><path d="M27,18L42,25L26,27Z" fill="rgb(11, 71, 154)" fill-opacity="0.49"/><path d="M190,154L192,166L186,162Z" fill="rgb(127, 171, 216)" fill-opacity="0.46"/><path d="M131,154L141,147L126,147Z" fill="rgb(136, 169, 208)" fill-opacity="0.50"/><path d="M90,152L58,148L67,133Z" fill="rgb(148, 118, 124)" fill-opacity="0.47"/><path d="M214,49L227,-2L227,64Z" fill="rgb(192, 215, 243)" fill-opacity="0.72"/><path d="M182,98L183,110L190,91Z" fill="rgb(139, 92, 97)" fill-opacity="0.53"/><path d="M56,62L51,109L59,65Z" fill="rgb(161, 132, 140)" fill-opacity="0.65"/><path d="M149,41L174,47L194,44Z" fill="rgb(255, 214, 169)" fill-opacity="0.37"/><path d="M196,60L181,52L192,60Z" fill="rgb(4, 16, 25)" fill-opacity="0.54"/><path d="M85,76L90,97L58,58Z" fill="rgb(159, 190, 228)" fill-opacity="0.45"/><path d="M218,105L224,66L187,121Z" fill="rgb(17, 120, 179)" fill-opacity="0.48"/><path d="M59,77L70,76L61,65Z" fill="rgb(79, 83, 100)" fill-opacity="0.53"/><path d="M228,102L218,104L225,59Z" fill="rgb(76, 185, 244)" fill-opacity="0.46"/><path d="M27,41L-85,12L28,70Z" fill="rgb(182, 214, 243)" fill-opacity="0.75"/><path d="M77,152L49,160L34,156Z" fill="rgb(60, 47, 51)" fill-opacity="0.62"/><path d="M145,147L147,123L141,149Z" fill="rgb(51, 61, 77)" fill-opacity="0.60"/><path d="M210,137L199,97L226,140Z" fill="rgb(51, 157, 222)" fill-opacity="0.56"/><path d="M37,142L5,165L35,165Z" fill="rgb(125, 138, 162)" fill-opacity="0.41"/><path d="M67,116L84,98L74,101Z" fill="rgb(76, 80, 94)" fill-opacity="0.54"/><path d="M223,43L224,25L208,10Z" fill="rgb(193, 214, 241)" fill-opacity="0.71"/><path d="M134,146L134,139L142,171Z" fill="rgb(23, 29, 40)" fill-opacity="0.57"/><path d="M62,108L73,158L67,103Z" fill="rgb(121, 117, 124)" fill-opacity="0.62"/><path d="M46,63L42,25L47,46Z" fill="rgb(119, 75, 62)" fill-opacity="0.61"/><path d="M46,161L33,179L50,172Z" fill="rgb(0, 16, 29)" fill-opacity="0.55"/><path d="M175,80L195,83L199,59Z" fill="rgb(135, 214, 252)" fill-opacity="0.56"/><path d="M167,57L166,71L181,46Z" fill="rgb(39, 43, 57)" fill-opacity="0.41"/><path d="M153,57L120,56L170,48Z" fill="rgb(152, 90, 56)" fill-opacity="0.53"/><path d="M186,124L193,103L175,120Z" fill="rgb(95, 179, 230)" fill-opacity="0.41"/><path d="M71,111L106,117L91,128Z" fill="rgb(41, 87, 146)" fill-opacity="0.42"/><path d="M64,104L57,85L64,67Z" fill="rgb(30, 16, 16)" fill-opacity="0.54"/><path d="M129,72L134,83L120,74Z" fill="rgb(170, 159, 152)" fill-opacity="0.42"/><path d="M206,89L192,104L207,94Z" fill="rgb(12, 66, 87)" fill-opacity="0.52"/><path d="M154,76L146,65L179,63Z" fill="rgb(106, 66, 52)" fill-opacity="0.40"/><path d="M122,170L89,226L92,158Z" fill="rgb(52, 60, 76)" fill-opacity="0.61"/><path d="M135,90L135,86L92,89Z" fill="rgb(98, 55, 57)" fill-opacity="0.50"/><path d="M56,64L54,68L61,70Z" fill="rgb(194, 163, 184)" fill-opacity="0.50"/><path d="M173,52L164,65L156,61Z" fill="rgb(255, 242, 199)" fill-opacity="0.30"/></svg>