<svg xmlns="http://www.w3.org/2000/svg" viewBox="0 0 256 169.55844155844156" clip-path="url(#clip)" width="512" height="339.1168831168831"><defs><clipPath id="clip" clipPathUnits="objectBoundingBox"><rect x="0" y="0" width="256" height="169.55844155844156"/></clipPath></defs><rect x="0" y="0" width="256" height="169.55844155844156" fill="rgb(97, 101, 81)"/><path d="M241,68L-31,54L97,-235Z" fill="rgb(206, 187, 113)" fill-opacity="0.57"/><path d="M135,134L291,127L244,221Z" fill="rgb(2, 3, 28)" fill-opacity="0.74"/><path d="M131,109L109,176L44,117Z" fill="rgb(24, 11, 3)" fill-opacity="0.70"/><path d="M-3,95L29,218L46,115Z" fill="rgb(99, 146, 230)" fill-opacity="0.49"/><path d="M113,153L117,166L69,160Z" fill="rgb(121, 182, 236)" fill-opacity="0.44"/><path d="M147,28L-26,18L122,-25Z" fill="rgb(225, 187, 129)" fill-opacity="0.56"/><path d="M-85,108L108,99L96,23Z" fill="rgb(130, 125, 119)" fill-opacity="0.81"/><path d="M176,35L182,42L138,46Z" fill="rgb(226, 227, 149)" fill-opacity="0.56"/><path d="M113,100L119,44L112,44Z" fill="rgb(0, 0, 6)" fill-opacity="0.64"/><path d="M193,170L123,144L120,208Z" fill="rgb(73, 109, 179)" fill-opacity="0.52"/><path d="M240,52L243,106L224,80Z" fill="rgb(240, 249, 86)" fill-opacity="0.33"/><path d="M140,18L233,76L335,-38Z" fill="rgb(136, 150, 44)" fill-opacity="0.54"/><path d="M235,100L218,129L251,134Z" fill="rgb(44, 58, 31)" fill-opacity="0.64"/><path d="M220,71L181,137L221,138Z" fill="rgb(148, 92, 102)" fill-opacity="0.48"/><path d="M188,30L168,20L150,38Z" fill="rgb(29, 65, 5)" fill-opacity="0.41"/><path d="M89,46L93,61L96,24Z" fill="rgb(0, 0, 6)" fill-opacity="0.54"/><path d="M208,127L189,97L196,151Z" fill="rgb(77, 41, 45)" fill-opacity="0.60"/><path d="M193,109L188,69L237,36Z" fill="rgb(22, 0, 6)" fill-opacity="0.26"/><path d="M41,135L65,137L49,121Z" fill="rgb(15, 28, 4)" fill-opacity="0.52"/><path d="M241,62L248,120L314,43Z" fill="rgb(47, 57, 20)" fill-opacity="0.51"/><path d="M110,136L166,161L183,124Z" fill="rgb(30, 48, 57)" fill-opacity="0.65"/><path d="M121,186L26,163L58,145Z" fill="rgb(28, 42, 78)" fill-opacity="0.58"/><path d="M151,47L159,56L141,58Z" fill="rgb(76, 92, 18)" fill-opacity="0.48"/><path d="M-6,90L-7,204L17,156Z" fill="rgb(20, 43, 101)" fill-opacity="0.48"/><path d="M175,72L188,69L180,33Z" fill="rgb(211, 211, 119)" fill-opacity="0.51"/><path d="M33,85L98,48L91,118Z" fill="rgb(89, 116, 145)" fill-opacity="0.42"/><path d="M226,109L211,144L213,84Z" fill="rgb(247, 217, 180)" fill-opacity="0.20"/><path d="M190,17L190,3L218,8Z" fill="rgb(254, 247, 168)" fill-opacity="0.43"/><path d="M122,121L186,108L150,53Z" fill="rgb(123, 125, 74)" fill-opacity="0.73"/><path d="M76,88L39,138L37,62Z" fill="rgb(109, 126, 137)" fill-opacity="0.65"/><path d="M44,134L12,100L4,139Z" fill="rgb(128, 162, 202)" fill-opacity="0.52"/><path d="M57,155L52,139L9,137Z" fill="rgb(32, 54, 89)" fill-opacity="0.39"/><path d="M116,84L107,117L112,65Z" fill="rgb(0, 1, 17)" fill-opacity="0.56"/><path d="M79,161L69,124L128,127Z" fill="rgb(21, 2, 0)" fill-opacity="0.63"/><path d="M87,108L73,148L51,115Z" fill="rgb(59, 54, 20)" fill-opacity="0.64"/><path d="M133,99L130,58L111,97Z" fill="rgb(123, 130, 153)" fill-opacity="0.39"/><path d="M72,141L62,149L51,143Z" fill="rgb(137, 201, 255)" fill-opacity="0.42"/><path d="M8,116L0,156L-23,117Z" fill="rgb(31, 25, 24)" fill-opacity="0.59"/><path d="M91,39L88,51L37,43Z" fill="rgb(199, 166, 127)" fill-opacity="0.63"/><path d="M258,44L233,54L212,21Z" fill="rgb(87, 111, 9)" fill-opacity="0.50"/><path d="M119,161L89,164L58,157Z" fill="rgb(121, 161, 181)" fill-opacity="0.54"/><path d="M120,190L121,160L111,164Z" fill="rgb(14, 15, 40)" fill-opacity="0.59"/><path d="M40,113L34,29L-94,61Z" fill="rgb(146, 130, 85)" fill-opacity="0.72"/><path d="M232,84L242,83L239,93Z" fill="rgb(211, 208, 153)" fill-opacity="0.64"/><path d="M266,9L237,38L182,13Z" fill="rgb(255, 243, 105)" fill-opacity="0.13"/><path d="M118,166L99,208L74,163Z" fill="rgb(41, 45, 54)" fill-opacity="1.00"/><path d="M248,134L323,128L236,102Z" fill="rgb(132, 137, 15)" fill-opacity="0.40"/><path d="M56,76L41,78L57,86Z" fill="rgb(211, 219, 218)" fill-opacity="0.51"/><path d="M150,155L314,169L169,134Z" fill="rgb(9, 9, 27)" fill-opacity="0.65"/><path d="M150,39L136,74L135,44Z" fill="rgb(183, 162, 127)" fill-opacity="0.63"/><path d="M13,100L36,114L-29,103Z" fill="rgb(137, 164, 198)" fill-opacity="0.50"/><path d="M248,8L272,-63L220,9Z" fill="rgb(66, 91, 13)" fill-opacity="0.53"/><path d="M54,8L157,1L-17,-3Z" fill="rgb(60, 95, 99)" fill-opacity="0.25"/><path d="M163,3L101,22L28,13Z" fill="rgb(247, 211, 129)" fill-opacity="0.42"/><path d="M64,151L112,103L123,154Z" fill="rgb(16, 0, 0)" fill-opacity="0.41"/><path d="M227,62L209,64L225,53Z" fill="rgb(150, 175, 56)" fill-opacity="0.49"/><path d="M137,48L89,29L170,22Z" fill="rgb(108, 103, 113)" fill-opacity="0.39"/><path d="M108,37L102,58L94,44Z" fill="rgb(202, 167, 158)" fill-opacity="0.44"/><path d="M188,57L153,64L174,31Z" fill="rgb(204, 205, 128)" fill-opacity="0.42"/><path d="M71,125L67,116L70,161Z" fill="rgb(91, 114, 129)" fill-opacity="0.61"/><path d="M245,104L204,86L246,92Z" fill="rgb(99, 85, 30)" fill-opacity="0.44"/><path d="M239,31L229,14L252,21Z" fill="rgb(83, 97, 6)" fill-opacity="0.41"/><path d="M116,54L86,83L76,63Z" fill="rgb(89, 94, 99)" fill-opacity="0.66"/><path d="M221,48L218,36L207,37Z" fill="rgb(234, 235, 127)" fill-opacity="0.42"/><path d="M17,136L-21,207L50,172Z" fill="rgb(74, 100, 136)" fill-opacity="0.69"/><path d="M250,44L266,65L244,52Z" fill="rgb(186, 164, 112)" fill-opacity="0.57"/><path d="M56,119L42,128L39,111Z" fill="rgb(97, 112, 90)" fill-opacity="0.49"/><path d="M92,93L63,79L96,104Z" fill="rgb(140, 161, 172)" fill-opacity="0.62"/><path d="M46,159L41,137L-2,179Z" fill="rgb(85, 115, 155)" fill-opacity="0.43"/><path d="M69,117L62,134L40,129Z" fill="rgb(31, 43, 0)" fill-opacity="0.45"/><path d="M170,45L169,34L158,46Z" fill="rgb(249, 255, 170)" fill-opacity="0.43"/><path d="M90,32L91,59L97,32Z" fill="rgb(0, 0, 4)" fill-opacity="0.49"/><path d="M192,10L194,26L209,26Z" fill="rgb(202, 206, 117)" fill-opacity="0.50"/><path d="M181,9L183,18L175,15Z" fill="rgb(33, 55, 3)" fill-opacity="0.41"/><path d="M180,76L205,61L201,86Z" fill="rgb(41, 37, 61)" fill-opacity="0.49"/><path d="M33,68L38,77L18,74Z" fill="rgb(82, 71, 73)" fill-opacity="0.50"/><path d="M216,152L342,191L221,119Z" fill="rgb(14, 17, 35)" fill-opacity="0.69"/><path d="M152,146L129,88L121,131Z" fill="rgb(107, 115, 104)" fill-opacity="0.36"/><path d="M123,162L94,155L124,152Z" fill="rgb(64, 84, 112)" fill-opacity="0.47"/><path d="M118,77L118,35L134,60Z" fill="rgb(130, 138, 125)" fill-opacity="0.54"/><path d="M15,148L-16,123L-38,153Z" fill="rgb(27, 32, 43)" fill-opacity="0.66"/><path d="M244,50L225,53L225,28Z" fill="rgb(71, 103, 0)" fill-opacity="0.60"/><path d="M93,163L87,159L82,163Z" fill="rgb(189, 252, 255)" fill-opacity="0.51"/><path d="M63,122L95,109L123,113Z" fill="rgb(62, 52, 26)" fill-opacity="0.62"/><path d="M82,100L87,90L75,74Z" fill="rgb(161, 183, 194)" fill-opacity="0.47"/><path d="M155,62L127,75L137,90Z" fill="rgb(70, 83, 33)" fill-opacity="0.45"/><path d="M42,146L63,174L75,146Z" fill="rgb(42, 48, 57)" fill-opacity="0.68"/><path d="M242,64L247,86L229,62Z" fill="rgb(221, 246, 172)" fill-opacity="0.25"/><path d="M214,86L175,77L188,141Z" fill="rgb(140, 71, 114)" fill-opacity="0.25"/><path d="M231,28L201,38L190,30Z" fill="rgb(100, 112, 29)" fill-opacity="0.54"/><path d="M244,105L238,94L227,116Z" fill="rgb(139, 130, 84)" fill-opacity="0.41"/><path d="M197,147L213,140L187,101Z" fill="rgb(82, 56, 50)" fill-opacity="0.51"/><path d="M164,52L155,62L174,56Z" fill="rgb(226, 223, 133)" fill-opacity="0.47"/><path d="M79,159L80,171L85,145Z" fill="rgb(20, 22, 27)" fill-opacity="0.48"/><path d="M100,97L112,96L103,89Z" fill="rgb(148, 180, 198)" fill-opacity="0.52"/><path d="M111,66L108,54L88,73Z" fill="rgb(120, 121, 119)" fill-opacity="0.59"/><path d="M47,105L49,95L53,110Z" fill="rgb(51, 44, 52)" fill-opacity="0.51"/><path d="M200,4L221,-1L213,24Z" fill="rgb(198, 193, 107)" fill-opacity="0.36"/><path d="M254,84L264,47L241,72Z" fill="rgb(41, 24, 55)" fill-opacity="0.39"/><path d="M190,35L167,49L209,57Z" fill="rgb(158, 153, 112)" fill-opacity="0.62"/><path d="M217,157L226,160L231,207Z" fill="rgb(87, 91, 117)" fill-opacity="0.35"/><path d="M14,107L7,111L1,105Z" fill="rgb(153, 207, 249)" fill-opacity="0.56"/><path d="M58,144L68,149L71,134Z" fill="rgb(130, 187, 237)" fill-opacity="0.34"/><path d="M184,-19L189,12L207,-6Z" fill="rgb(111, 123, 65)" fill-opacity="0.44"/><path d="M208,108L190,112L202,118Z" fill="rgb(157, 129, 138)" fill-opacity="0.46"/><path d="M-13,87L19,52L0,47Z" fill="rgb(110, 127, 66)" fill-opacity="0.67"/><path d="M221,13L209,9L236,3Z" fill="rgb(85, 94, 23)" fill-opacity="0.52"/><path d="M22,21L12,65L37,54Z" fill="rgb(160, 174, 109)" fill-opacity="0.45"/><path d="M130,54L137,35L124,52Z" fill="rgb(76, 86, 43)" fill-opacity="0.37"/><path d="M68,108L63,88L59,114Z" fill="rgb(116, 147, 161)" fill-opacity="0.55"/><path d="M128,104L105,81L116,118Z" fill="rgb(55, 53, 70)" fill-opacity="0.37"/><path d="M58,153L89,153L100,162Z" fill="rgb(74, 95, 104)" fill-opacity="0.52"/><path d="M185,71L175,89L186,46Z" fill="rgb(171, 175, 126)" fill-opacity="0.41"/><path d="M175,-1L157,5L164,-2Z" fill="rgb(110, 126, 45)" fill-opacity="0.54"/><path d="M22,21L75,8L-27,3Z" fill="rgb(242, 182, 96)" fill-opacity="0.39"/><path d="M10,78L18,89L28,79Z" fill="rgb(186, 127, 91)" fill-opacity="0.50"/><path d="M128,88L115,86L121,100Z" fill="rgb(135, 154, 165)" fill-opacity="0.48"/><path d="M176,8L183,35L171,35Z" fill="rgb(92, 107, 36)" fill-opacity="0.51"/><path d="M92,76L84,70L91,46Z" fill="rgb(51, 59, 66)" fill-opacity="0.45"/><path d="M141,102L152,90L139,64Z" fill="rgb(140, 151, 68)" fill-opacity="0.53"/><path d="M165,99L167,66L156,99Z" fill="rgb(159, 155, 89)" fill-opacity="0.49"/><path d="M146,2L123,10L67,5Z" fill="rgb(151, 151, 120)" fill-opacity="0.58"/><path d="M33,41L88,34L35,26Z" fill="rgb(140, 118, 98)" fill-opacity="0.68"/><path d="M81,102L76,123L77,90Z" fill="rgb(50, 37, 35)" fill-opacity="0.47"/><path d="M91,171L101,172L102,155Z" fill="rgb(34, 41, 42)" fill-opacity="0.43"/><path d="M6,96L24,92L8,84Z" fill="rgb(127, 90, 69)" fill-opacity="0.49"/><path d="M251,121L240,92L246,83Z" fill="rgb(49, 72, 33)" fill-opacity="0.53"/><path d="M118,108L103,108L118,117Z" fill="rgb(68, 71, 75)" fill-opacity="0.64"/><path d="M144,51L160,43L153,31Z" fill="rgb(145, 139, 121)" fill-opacity="0.52"/><path d="M100,162L108,163L108,157Z" fill="rgb(198, 247, 255)" fill-opacity="0.42"/><path d="M157,16L171,7L150,-3Z" fill="rgb(205, 205, 94)" fill-opacity="0.39"/><path d="M142,65L150,80L155,71Z" fill="rgb(45, 53, 34)" fill-opacity="0.39"/><path d="M243,75L255,62L242,56Z" fill="rgb(55, 49, 51)" fill-opacity="0.50"/><path d="M95,47L116,42L109,57Z" fill="rgb(179, 163, 139)" fill-opacity="0.52"/><path d="M74,92L71,86L62,96Z" fill="rgb(136, 160, 176)" fill-opacity="0.52"/><path d="M39,78L38,88L46,85Z" fill="rgb(150, 181, 205)" fill-opacity="0.41"/><path d="M61,48L63,38L91,48Z" fill="rgb(232, 193, 142)" fill-opacity="0.27"/><path d="M0,67L0,77L46,71Z" fill="rgb(112, 101, 84)" fill-opacity="0.76"/><path d="M214,89L221,107L213,102Z" fill="rgb(175, 145, 147)" fill-opacity="0.53"/><path d="M190,61L215,67L186,86Z" fill="rgb(51, 53, 61)" fill-opacity="0.37"/><path d="M197,16L191,10L208,5Z" fill="rgb(229, 229, 152)" fill-opacity="0.56"/><path d="M138,71L135,83L130,72Z" fill="rgb(47, 70, 34)" fill-opacity="0.50"/><path d="M238,70L225,88L236,60Z" fill="rgb(197, 198, 121)" fill-opacity="0.44"/><path d="M262,128L215,120L225,107Z" fill="rgb(79, 113, 0)" fill-opacity="0.25"/><path d="M43,25L93,17L100,30Z" fill="rgb(185, 160, 117)" fill-opacity="0.49"/><path d="M234,84L234,74L240,80Z" fill="rgb(79, 91, 13)" fill-opacity="0.43"/><path d="M59,54L45,46L30,51Z" fill="rgb(152, 168, 185)" fill-opacity="0.35"/><path d="M173,106L175,121L194,115Z" fill="rgb(130, 122, 64)" fill-opacity="0.50"/><path d="M212,121L190,147L199,117Z" fill="rgb(81, 50, 49)" fill-opacity="0.49"/><path d="M253,21L266,-4L251,-1Z" fill="rgb(182, 179, 96)" fill-opacity="0.50"/><path d="M189,117L129,117L146,150Z" fill="rgb(66, 90, 69)" fill-opacity="0.50"/><path d="M231,124L259,147L271,136Z" fill="rgb(56, 60, 81)" fill-opacity="0.42"/><path d="M143,62L137,74L132,63Z" fill="rgb(159, 157, 81)" fill-opacity="0.49"/><path d="M63,146L55,138L53,146Z" fill="rgb(136, 192, 230)" fill-opacity="0.41"/><path d="M131,60L124,61L125,54Z" fill="rgb(142, 174, 212)" fill-opacity="0.50"/><path d="M54,110L42,49L38,62Z" fill="rgb(86, 97, 116)" fill-opacity="0.58"/><path d="M5,129L41,113L40,140Z" fill="rgb(124, 161, 206)" fill-opacity="0.38"/><path d="M31,64L22,36L38,60Z" fill="rgb(168, 165, 112)" fill-opacity="0.65"/><path d="M68,108L74,142L123,124Z" fill="rgb(50, 24, 0)" fill-opacity="0.45"/><path d="M35,111L5,101L39,82Z" fill="rgb(191, 136, 112)" fill-opacity="0.34"/><path d="M214,28L227,69L226,34Z" fill="rgb(154, 164, 55)" fill-opacity="0.41"/><path d="M111,158L107,141L113,192Z" fill="rgb(18, 20, 28)" fill-opacity="0.54"/><path d="M180,124L187,145L150,153Z" fill="rgb(10, 15, 41)" fill-opacity="0.62"/><path d="M100,92L104,118L93,92Z" fill="rgb(58, 79, 100)" fill-opacity="0.50"/><path d="M46,147L53,144L43,141Z" fill="rgb(105, 137, 151)" fill-opacity="0.55"/><path d="M249,100L253,78L255,86Z" fill="rgb(122, 128, 61)" fill-opacity="0.47"/><path d="M186,110L211,103L202,95Z" fill="rgb(68, 33, 38)" fill-opacity="0.38"/><path d="M171,68L187,71L176,55Z" fill="rgb(168, 165, 87)" fill-opacity="0.51"/><path d="M96,39L96,29L161,34Z" fill="rgb(120, 114, 102)" fill-opacity="0.64"/><path d="M222,-1L233,3L259,-3Z" fill="rgb(149, 151, 94)" fill-opacity="0.49"/><path d="M177,58L168,59L165,83Z" fill="rgb(115, 113, 70)" fill-opacity="0.57"/><path d="M240,34L224,12L235,44Z" fill="rgb(200, 177, 82)" fill-opacity="0.28"/><path d="M194,8L171,1L154,11Z" fill="rgb(194, 188, 109)" fill-opacity="0.37"/><path d="M168,162L120,148L132,146Z" fill="rgb(97, 131, 172)" fill-opacity="0.34"/><path d="M217,94L204,89L225,120Z" fill="rgb(173, 150, 135)" fill-opacity="0.40"/><path d="M113,50L116,86L117,42Z" fill="rgb(0, 0, 10)" fill-opacity="0.56"/><path d="M62,147L72,144L53,143Z" fill="rgb(168, 216, 236)" fill-opacity="0.40"/><path d="M71,161L71,118L66,90Z" fill="rgb(95, 105, 107)" fill-opacity="0.50"/><path d="M-21,11L28,30L81,26Z" fill="rgb(179, 152, 105)" fill-opacity="0.73"/><path d="M148,57L141,50L168,48Z" fill="rgb(90, 109, 40)" fill-opacity="0.38"/><path d="M54,86L61,87L61,107Z" fill="rgb(75, 79, 77)" fill-opacity="0.59"/><path d="M175,46L184,42L174,32Z" fill="rgb(208, 205, 122)" fill-opacity="0.46"/><path d="M99,52L57,50L68,61Z" fill="rgb(123, 136, 150)" fill-opacity="0.55"/><path d="M12,2L-5,5L7,-12Z" fill="rgb(119, 101, 70)" fill-opacity="0.57"/><path d="M109,95L76,109L101,110Z" fill="rgb(80, 99, 121)" fill-opacity="0.47"/><path d="M129,95L125,124L159,79Z" fill="rgb(134, 138, 85)" fill-opacity="0.51"/><path d="M177,164L194,174L155,159Z" fill="rgb(107, 133, 156)" fill-opacity="0.46"/><path d="M159,27L152,34L191,32Z" fill="rgb(81, 101, 29)" fill-opacity="0.45"/><path d="M215,47L219,32L205,39Z" fill="rgb(197, 200, 105)" fill-opacity="0.40"/><path d="M85,122L97,100L79,96Z" fill="rgb(83, 95, 89)" fill-opacity="0.37"/><path d="M0,22L36,68L-13,40Z" fill="rgb(136, 141, 86)" fill-opacity="0.61"/><path d="M176,93L160,87L182,111Z" fill="rgb(161, 150, 95)" fill-opacity="0.40"/><path d="M263,47L243,35L259,33Z" fill="rgb(108, 147, 18)" fill-opacity="0.57"/><path d="M235,28L246,23L237,16Z" fill="rgb(91, 105, 23)" fill-opacity="0.46"/><path d="M114,125L71,150L112,154Z" fill="rgb(14, 1, 0)" fill-opacity="0.71"/><path d="M154,19L127,-3L152,-1Z" fill="rgb(135, 167, 45)" fill-opacity="0.24"/><path d="M170,162L232,139L146,151Z" fill="rgb(10, 13, 31)" fill-opacity="0.59"/><path d="M138,55L121,61L141,42Z" fill="rgb(191, 176, 152)" fill-opacity="0.47"/><path d="M174,121L175,100L142,102Z" fill="rgb(102, 112, 66)" fill-opacity="0.79"/><path d="M117,39L112,33L106,55Z" fill="rgb(184, 188, 105)" fill-opacity="0.47"/></svg>