<svg xmlns="http://www.w3.org/2000/svg" viewBox="0 0 256 169.55844155844156" clip-path="url(#clip)" width="512" height="339.1168831168831"><defs><clipPath id="clip" clipPathUnits="objectBoundingBox"><rect x="0" y="0" width="256" height="169.55844155844156"/></clipPath></defs><rect x="0" y="0" width="256" height="169.55844155844156" fill="rgb(113, 102, 84)"/><path d="M72,323L32,73L118,95Z" fill="rgb(25, 20, 21)" fill-opacity="0.82"/><path d="M168,47L192,134L248,82Z" fill="rgb(189, 186, 167)" fill-opacity="0.60"/><path d="M38,205L41,103L-113,104Z" fill="rgb(209, 182, 122)" fill-opacity="0.88"/><path d="M111,69L217,339L174,62Z" fill="rgb(34, 0, 1)" fill-opacity="0.81"/><path d="M68,41L92,65L60,118Z" fill="rgb(23, 3, 0)" fill-opacity="0.68"/><path d="M16,13L4,92L68,63Z" fill="rgb(255, 205, 111)" fill-opacity="0.53"/><path d="M230,266L200,124L268,86Z" fill="rgb(227, 201, 143)" fill-opacity="0.59"/><path d="M138,104L106,38L140,44Z" fill="rgb(41, 9, 0)" fill-opacity="0.71"/><path d="M137,90L139,165L182,210Z" fill="rgb(29, 10, 9)" fill-opacity="1.00"/><path d="M94,48L85,87L121,74Z" fill="rgb(254, 241, 205)" fill-opacity="0.61"/><path d="M27,16L134,37L-16,71Z" fill="rgb(196, 154, 83)" fill-opacity="0.70"/><path d="M46,64L6,101L56,104Z" fill="rgb(18, 1, 0)" fill-opacity="0.56"/><path d="M135,159L141,230L95,138Z" fill="rgb(31, 33, 37)" fill-opacity="0.80"/><path d="M235,59L170,86L215,152Z" fill="rgb(153, 159, 154)" fill-opacity="0.72"/><path d="M190,74L156,57L155,98Z" fill="rgb(61, 14, 4)" fill-opacity="0.55"/><path d="M93,148L144,128L109,114Z" fill="rgb(192, 218, 230)" fill-opacity="0.37"/><path d="M172,66L198,60L156,51Z" fill="rgb(255, 204, 113)" fill-opacity="0.64"/><path d="M151,47L264,31L98,29Z" fill="rgb(218, 174, 99)" fill-opacity="0.74"/><path d="M100,102L89,57L113,84Z" fill="rgb(194, 208, 213)" fill-opacity="0.58"/><path d="M241,68L197,104L210,65Z" fill="rgb(250, 224, 175)" fill-opacity="0.42"/><path d="M125,242L214,140L181,116Z" fill="rgb(52, 52, 47)" fill-opacity="0.60"/><path d="M144,69L137,61L151,49Z" fill="rgb(255, 209, 106)" fill-opacity="0.47"/><path d="M51,204L42,125L38,164Z" fill="rgb(9, 8, 13)" fill-opacity="0.59"/><path d="M122,109L135,128L102,126Z" fill="rgb(181, 193, 195)" fill-opacity="0.54"/><path d="M-1,-19L16,27L63,0Z" fill="rgb(30, 48, 78)" fill-opacity="0.38"/><path d="M81,85L116,67L111,45Z" fill="rgb(255, 225, 166)" fill-opacity="0.53"/><path d="M53,83L94,91L72,72Z" fill="rgb(28, 10, 0)" fill-opacity="0.45"/><path d="M10,117L-32,55L12,67Z" fill="rgb(238, 190, 117)" fill-opacity="0.51"/><path d="M75,123L90,37L63,56Z" fill="rgb(25, 4, 0)" fill-opacity="0.41"/><path d="M63,76L44,80L63,60Z" fill="rgb(255, 255, 165)" fill-opacity="0.45"/><path d="M15,104L18,86L30,104Z" fill="rgb(6, 0, 0)" fill-opacity="0.48"/><path d="M132,130L188,131L185,104Z" fill="rgb(66, 0, 0)" fill-opacity="0.60"/><path d="M101,109L131,38L152,110Z" fill="rgb(42, 12, 8)" fill-opacity="0.75"/><path d="M42,42L-13,28L3,52Z" fill="rgb(133, 85, 17)" fill-opacity="0.56"/><path d="M311,37L249,104L218,43Z" fill="rgb(102, 65, 0)" fill-opacity="0.45"/><path d="M98,53L25,45L46,39Z" fill="rgb(107, 66, 8)" fill-opacity="0.58"/><path d="M135,46L226,42L149,62Z" fill="rgb(168, 109, 28)" fill-opacity="0.55"/><path d="M7,95L70,50L9,50Z" fill="rgb(221, 193, 130)" fill-opacity="0.62"/><path d="M215,99L224,53L264,129Z" fill="rgb(233, 180, 88)" fill-opacity="0.35"/><path d="M287,161L200,147L197,184Z" fill="rgb(189, 166, 120)" fill-opacity="0.96"/><path d="M207,129L188,196L186,131Z" fill="rgb(28, 29, 22)" fill-opacity="0.55"/><path d="M303,17L89,30L-120,-119Z" fill="rgb(89, 90, 91)" fill-opacity="0.99"/><path d="M114,123L120,115L92,88Z" fill="rgb(57, 36, 27)" fill-opacity="0.44"/><path d="M49,80L67,77L61,50Z" fill="rgb(245, 202, 128)" fill-opacity="0.49"/><path d="M138,150L81,143L136,125Z" fill="rgb(107, 126, 135)" fill-opacity="0.67"/><path d="M249,34L185,42L193,81Z" fill="rgb(161, 112, 36)" fill-opacity="0.41"/><path d="M207,127L197,152L226,153Z" fill="rgb(103, 132, 156)" fill-opacity="0.47"/><path d="M117,39L109,61L55,40Z" fill="rgb(166, 117, 45)" fill-opacity="0.63"/><path d="M84,83L114,52L94,89Z" fill="rgb(228, 222, 203)" fill-opacity="0.47"/><path d="M186,163L193,185L146,173Z" fill="rgb(169, 182, 179)" fill-opacity="0.40"/><path d="M218,119L219,249L251,93Z" fill="rgb(205, 174, 118)" fill-opacity="0.66"/><path d="M224,98L196,101L214,65Z" fill="rgb(194, 202, 199)" fill-opacity="0.60"/><path d="M25,151L21,161L22,133Z" fill="rgb(100, 93, 69)" fill-opacity="0.50"/><path d="M90,67L86,65L90,94Z" fill="rgb(121, 71, 9)" fill-opacity="0.43"/><path d="M243,34L286,33L239,7Z" fill="rgb(83, 78, 71)" fill-opacity="0.67"/><path d="M100,95L109,96L100,93Z" fill="rgb(255, 243, 219)" fill-opacity="0.54"/><path d="M96,123L98,144L108,128Z" fill="rgb(97, 52, 22)" fill-opacity="0.60"/><path d="M175,65L177,51L154,57Z" fill="rgb(248, 211, 139)" fill-opacity="0.49"/><path d="M117,146L122,153L121,124Z" fill="rgb(255, 253, 237)" fill-opacity="0.52"/><path d="M190,71L204,66L190,139Z" fill="rgb(115, 128, 136)" fill-opacity="0.77"/><path d="M221,125L188,122L200,99Z" fill="rgb(98, 128, 150)" fill-opacity="0.52"/><path d="M204,73L220,88L219,65Z" fill="rgb(246, 233, 207)" fill-opacity="0.65"/><path d="M152,89L174,84L178,132Z" fill="rgb(69, 0, 0)" fill-opacity="0.75"/><path d="M34,77L54,67L47,77Z" fill="rgb(25, 0, 0)" fill-opacity="0.54"/><path d="M86,19L127,25L85,33Z" fill="rgb(51, 36, 9)" fill-opacity="0.34"/><path d="M20,21L-26,23L9,48Z" fill="rgb(168, 124, 53)" fill-opacity="0.50"/><path d="M110,88L158,58L116,115Z" fill="rgb(48, 4, 1)" fill-opacity="0.61"/><path d="M91,65L117,65L86,48Z" fill="rgb(226, 175, 83)" fill-opacity="0.50"/><path d="M104,79L124,70L105,72Z" fill="rgb(66, 114, 156)" fill-opacity="0.45"/><path d="M153,45L240,31L199,27Z" fill="rgb(229, 186, 109)" fill-opacity="0.46"/><path d="M195,88L206,98L218,85Z" fill="rgb(124, 146, 155)" fill-opacity="0.55"/><path d="M132,25L139,45L165,26Z" fill="rgb(213, 168, 96)" fill-opacity="0.45"/><path d="M117,146L136,160L39,160Z" fill="rgb(0, 0, 5)" fill-opacity="0.51"/><path d="M48,55L10,87L32,81Z" fill="rgb(209, 180, 118)" fill-opacity="0.64"/><path d="M111,69L90,63L92,82Z" fill="rgb(243, 242, 237)" fill-opacity="0.59"/><path d="M94,164L112,196L125,164Z" fill="rgb(127, 109, 77)" fill-opacity="0.60"/><path d="M219,100L238,94L222,58Z" fill="rgb(203, 165, 101)" fill-opacity="0.53"/><path d="M74,22L86,29L50,18Z" fill="rgb(25, 36, 47)" fill-opacity="0.46"/><path d="M148,23L144,18L117,23Z" fill="rgb(219, 170, 90)" fill-opacity="0.45"/><path d="M14,106L4,90L3,108Z" fill="rgb(226, 197, 130)" fill-opacity="0.50"/><path d="M118,122L137,126L102,126Z" fill="rgb(249, 237, 215)" fill-opacity="0.61"/><path d="M101,158L101,171L111,157Z" fill="rgb(6, 12, 23)" fill-opacity="0.56"/><path d="M191,107L175,102L180,86Z" fill="rgb(158, 164, 175)" fill-opacity="0.44"/><path d="M230,107L214,115L216,100Z" fill="rgb(107, 104, 88)" fill-opacity="0.48"/><path d="M136,45L113,55L123,39Z" fill="rgb(3, 0, 0)" fill-opacity="0.60"/><path d="M120,107L120,132L124,107Z" fill="rgb(255, 255, 254)" fill-opacity="0.38"/><path d="M-4,21L21,20L14,-75Z" fill="rgb(75, 77, 81)" fill-opacity="0.90"/><path d="M97,39L20,38L88,28Z" fill="rgb(238, 203, 127)" fill-opacity="0.47"/><path d="M115,62L117,75L105,69Z" fill="rgb(213, 223, 221)" fill-opacity="0.41"/><path d="M231,30L239,43L266,37Z" fill="rgb(204, 161, 79)" fill-opacity="0.44"/><path d="M99,32L94,26L68,24Z" fill="rgb(47, 42, 35)" fill-opacity="0.50"/><path d="M221,126L190,124L191,129Z" fill="rgb(241, 237, 223)" fill-opacity="0.56"/><path d="M87,99L100,76L105,83Z" fill="rgb(77, 104, 122)" fill-opacity="0.48"/><path d="M121,36L103,30L44,40Z" fill="rgb(226, 187, 114)" fill-opacity="0.59"/><path d="M46,62L39,84L48,64Z" fill="rgb(31, 8, 2)" fill-opacity="0.62"/><path d="M198,156L201,202L186,163Z" fill="rgb(0, 0, 0)" fill-opacity="0.57"/><path d="M137,46L123,32L162,37Z" fill="rgb(232, 188, 107)" fill-opacity="0.44"/><path d="M46,115L90,116L106,141Z" fill="rgb(13, 0, 0)" fill-opacity="0.32"/><path d="M138,146L197,196L136,157Z" fill="rgb(6, 9, 9)" fill-opacity="0.63"/><path d="M39,101L42,130L18,106Z" fill="rgb(235, 207, 140)" fill-opacity="0.39"/><path d="M232,61L166,52L302,34Z" fill="rgb(113, 76, 21)" fill-opacity="0.40"/><path d="M185,86L191,91L189,82Z" fill="rgb(247, 249, 242)" fill-opacity="0.46"/><path d="M195,130L201,145L207,126Z" fill="rgb(63, 60, 45)" fill-opacity="0.52"/><path d="M56,53L22,40L82,40Z" fill="rgb(138, 97, 37)" fill-opacity="0.81"/><path d="M118,70L105,63L109,56Z" fill="rgb(234, 201, 136)" fill-opacity="0.51"/><path d="M119,151L124,152L119,135Z" fill="rgb(224, 228, 222)" fill-opacity="0.46"/><path d="M64,51L63,66L17,55Z" fill="rgb(221, 192, 126)" fill-opacity="0.61"/><path d="M90,61L70,50L80,48Z" fill="rgb(15, 0, 0)" fill-opacity="0.59"/><path d="M255,154L241,147L260,137Z" fill="rgb(143, 121, 77)" fill-opacity="0.54"/><path d="M138,160L136,178L141,168Z" fill="rgb(253, 217, 143)" fill-opacity="0.53"/><path d="M184,67L185,83L193,82Z" fill="rgb(141, 160, 169)" fill-opacity="0.57"/><path d="M114,79L96,74L107,83Z" fill="rgb(204, 221, 229)" fill-opacity="0.44"/><path d="M182,65L182,84L166,72Z" fill="rgb(84, 50, 19)" fill-opacity="0.50"/><path d="M164,156L153,59L130,120Z" fill="rgb(30, 7, 8)" fill-opacity="0.73"/><path d="M86,78L63,64L68,49Z" fill="rgb(24, 9, 0)" fill-opacity="0.54"/><path d="M228,109L225,62L239,69Z" fill="rgb(200, 169, 111)" fill-opacity="0.47"/><path d="M129,43L174,44L199,58Z" fill="rgb(127, 86, 33)" fill-opacity="0.59"/><path d="M90,145L104,145L93,135Z" fill="rgb(123, 133, 133)" fill-opacity="0.49"/><path d="M33,79L43,103L11,93Z" fill="rgb(28, 9, 0)" fill-opacity="0.49"/><path d="M201,184L198,151L219,153Z" fill="rgb(211, 187, 143)" fill-opacity="0.61"/><path d="M100,65L92,90L90,82Z" fill="rgb(236, 234, 224)" fill-opacity="0.52"/><path d="M6,27L2,42L21,18Z" fill="rgb(197, 164, 101)" fill-opacity="0.48"/><path d="M126,54L116,81L119,42Z" fill="rgb(24, 9, 0)" fill-opacity="0.57"/><path d="M193,133L177,99L160,114Z" fill="rgb(78, 2, 3)" fill-opacity="0.63"/><path d="M90,61L85,51L70,51Z" fill="rgb(31, 8, 0)" fill-opacity="0.53"/><path d="M96,37L78,41L109,39Z" fill="rgb(77, 61, 42)" fill-opacity="0.46"/><path d="M110,127L103,115L106,132Z" fill="rgb(179, 160, 137)" fill-opacity="0.51"/><path d="M260,34L289,27L239,30Z" fill="rgb(21, 21, 16)" fill-opacity="0.46"/><path d="M185,115L197,86L179,103Z" fill="rgb(104, 115, 128)" fill-opacity="0.54"/><path d="M102,95L114,84L91,87Z" fill="rgb(131, 156, 170)" fill-opacity="0.60"/><path d="M127,148L138,166L119,192Z" fill="rgb(30, 35, 45)" fill-opacity="0.63"/><path d="M46,42L69,24L24,14Z" fill="rgb(255, 231, 164)" fill-opacity="0.14"/><path d="M196,88L185,91L199,96Z" fill="rgb(73, 87, 104)" fill-opacity="0.50"/><path d="M127,86L115,60L137,49Z" fill="rgb(43, 20, 12)" fill-opacity="0.61"/><path d="M221,24L241,30L191,24Z" fill="rgb(36, 39, 39)" fill-opacity="0.49"/><path d="M219,40L238,36L197,37Z" fill="rgb(238, 188, 99)" fill-opacity="0.48"/><path d="M87,26L67,16L43,14Z" fill="rgb(210, 170, 92)" fill-opacity="0.39"/><path d="M41,19L19,-4L69,8Z" fill="rgb(82, 81, 80)" fill-opacity="0.82"/><path d="M183,56L203,59L177,70Z" fill="rgb(223, 178, 102)" fill-opacity="0.47"/><path d="M107,5L260,7L50,-37Z" fill="rgb(86, 104, 130)" fill-opacity="0.60"/><path d="M180,31L193,30L173,14Z" fill="rgb(78, 82, 92)" fill-opacity="0.54"/><path d="M122,41L99,35L134,33Z" fill="rgb(228, 189, 113)" fill-opacity="0.48"/><path d="M170,82L174,87L191,94Z" fill="rgb(174, 173, 173)" fill-opacity="0.50"/><path d="M181,93L150,71L159,109Z" fill="rgb(53, 0, 5)" fill-opacity="0.39"/><path d="M40,69L21,100L70,106Z" fill="rgb(31, 24, 17)" fill-opacity="0.56"/><path d="M100,55L120,41L59,43Z" fill="rgb(154, 110, 47)" fill-opacity="0.61"/><path d="M191,69L202,84L216,65Z" fill="rgb(150, 152, 142)" fill-opacity="0.43"/><path d="M112,64L90,62L113,52Z" fill="rgb(234, 202, 129)" fill-opacity="0.51"/><path d="M239,95L222,97L238,106Z" fill="rgb(121, 106, 71)" fill-opacity="0.58"/><path d="M252,29L287,54L238,96Z" fill="rgb(69, 59, 32)" fill-opacity="0.32"/><path d="M215,68L181,44L224,65Z" fill="rgb(147, 109, 54)" fill-opacity="0.53"/><path d="M112,72L133,77L126,79Z" fill="rgb(82, 72, 71)" fill-opacity="0.58"/><path d="M188,96L186,82L177,81Z" fill="rgb(67, 107, 148)" fill-opacity="0.43"/><path d="M92,146L115,127L120,137Z" fill="rgb(94, 113, 120)" fill-opacity="0.58"/><path d="M196,89L203,88L217,70Z" fill="rgb(228, 223, 209)" fill-opacity="0.62"/><path d="M146,92L128,99L146,112Z" fill="rgb(43, 32, 29)" fill-opacity="0.66"/><path d="M21,166L27,146L24,178Z" fill="rgb(123, 112, 82)" fill-opacity="0.45"/><path d="M161,87L169,62L147,62Z" fill="rgb(49, 20, 13)" fill-opacity="0.66"/><path d="M221,95L220,100L169,98Z" fill="rgb(247, 233, 216)" fill-opacity="0.39"/><path d="M6,81L16,85L4,107Z" fill="rgb(218, 188, 125)" fill-opacity="0.66"/><path d="M105,82L111,87L115,74Z" fill="rgb(181, 209, 224)" fill-opacity="0.44"/><path d="M193,97L184,95L174,86Z" fill="rgb(201, 199, 190)" fill-opacity="0.53"/><path d="M149,60L139,64L139,53Z" fill="rgb(255, 213, 139)" fill-opacity="0.47"/><path d="M4,51L26,47L50,49Z" fill="rgb(236, 206, 135)" fill-opacity="0.42"/><path d="M59,77L95,159L34,191Z" fill="rgb(18, 20, 27)" fill-opacity="0.51"/><path d="M172,55L137,66L147,57Z" fill="rgb(255, 221, 153)" fill-opacity="0.29"/><path d="M218,99L219,123L197,99Z" fill="rgb(102, 138, 172)" fill-opacity="0.38"/><path d="M3,32L-5,15L-3,38Z" fill="rgb(17, 9, 0)" fill-opacity="0.51"/><path d="M177,37L127,29L164,23Z" fill="rgb(183, 148, 92)" fill-opacity="0.48"/><path d="M6,79L-21,-16L1,125Z" fill="rgb(159, 109, 63)" fill-opacity="0.48"/><path d="M4,43L4,39L15,30Z" fill="rgb(96, 72, 33)" fill-opacity="0.53"/><path d="M205,71L186,70L215,76Z" fill="rgb(220, 213, 192)" fill-opacity="0.45"/><path d="M139,168L135,147L133,153Z" fill="rgb(194, 188, 166)" fill-opacity="0.55"/><path d="M191,116L189,104L186,119Z" fill="rgb(255, 248, 234)" fill-opacity="0.55"/><path d="M18,122L26,137L23,114Z" fill="rgb(141, 126, 89)" fill-opacity="0.51"/><path d="M184,79L163,63L181,68Z" fill="rgb(86, 30, 8)" fill-opacity="0.54"/><path d="M34,30L27,38L79,40Z" fill="rgb(214, 179, 111)" fill-opacity="0.70"/><path d="M139,153L174,139L139,122Z" fill="rgb(51, 0, 0)" fill-opacity="0.56"/><path d="M113,109L136,107L121,81Z" fill="rgb(38, 0, 0)" fill-opacity="0.62"/><path d="M139,59L129,61L143,50Z" fill="rgb(86, 39, 12)" fill-opacity="0.58"/><path d="M201,144L210,126L219,139Z" fill="rgb(119, 139, 149)" fill-opacity="0.62"/><path d="M90,149L84,160L102,143Z" fill="rgb(13, 6, 1)" fill-opacity="0.43"/><path d="M21,105L9,95L19,86Z" fill="rgb(42, 15, 0)" fill-opacity="0.51"/><path d="M188,102L189,123L190,102Z" fill="rgb(255, 246, 227)" fill-opacity="0.53"/><path d="M53,16L40,16L56,21Z" fill="rgb(35, 32, 19)" fill-opacity="0.52"/><path d="M11,166L44,180L-28,172Z" fill="rgb(139, 124, 84)" fill-opacity="0.43"/><path d="M180,87L182,96L174,83Z" fill="rgb(213, 218, 213)" fill-opacity="0.53"/><path d="M196,152L214,130L216,152Z" fill="rgb(102, 119, 131)" fill-opacity="0.56"/><path d="M176,31L171,44L137,41Z" fill="rgb(237, 196, 118)" fill-opacity="0.40"/><path d="M218,45L202,40L238,42Z" fill="rgb(97, 73, 41)" fill-opacity="0.55"/><path d="M136,149L143,176L167,147Z" fill="rgb(0, 1, 3)" fill-opacity="0.48"/><path d="M264,42L191,39L210,25Z" fill="rgb(200, 162, 94)" fill-opacity="0.37"/><path d="M210,63L210,75L204,65Z" fill="rgb(121, 106, 84)" fill-opacity="0.47"/><path d="M15,27L25,19L9,37Z" fill="rgb(94, 75, 39)" fill-opacity="0.58"/><path d="M116,114L87,84L89,127Z" fill="rgb(44, 28, 20)" fill-opacity="0.61"/><path d="M132,152L137,151L134,161Z" fill="rgb(180, 191, 199)" fill-opacity="0.43"/><path d="M30,41L43,41L24,36Z" fill="rgb(119, 78, 26)" fill-opacity="0.50"/><path d="M110,53L137,49L129,39Z" fill="rgb(23, 9, 0)" fill-opacity="0.58"/><path d="M21,119L19,112L24,111Z" fill="rgb(135, 121, 87)" fill-opacity="0.54"/><path d="M114,70L117,67L91,65Z" fill="rgb(248, 245, 236)" fill-opacity="0.54"/></svg>