<svg xmlns="http://www.w3.org/2000/svg" viewBox="0 0 256 169.55844155844156" clip-path="url(#clip)" width="512" height="339.1168831168831"><defs><clipPath id="clip" clipPathUnits="objectBoundingBox"><rect x="0" y="0" width="256" height="169.55844155844156"/></clipPath></defs><rect x="0" y="0" width="256" height="169.55844155844156" fill="rgb(57, 29, 8)"/><path d="M250,313L190,60L114,127Z" fill="rgb(179, 90, 0)" fill-opacity="0.93"/><path d="M-5,131L68,47L3,52Z" fill="rgb(55, 100, 164)" fill-opacity="0.67"/><path d="M211,5L212,18L222,10Z" fill="rgb(255, 219, 73)" fill-opacity="0.59"/><path d="M73,133L67,71L89,139Z" fill="rgb(226, 152, 0)" fill-opacity="0.78"/><path d="M85,118L77,146L72,106Z" fill="rgb(255, 197, 0)" fill-opacity="0.59"/><path d="M101,149L124,141L121,263Z" fill="rgb(250, 174, 0)" fill-opacity="0.89"/><path d="M118,48L121,73L102,77Z" fill="rgb(229, 191, 0)" fill-opacity="0.52"/><path d="M138,160L117,163L136,120Z" fill="rgb(57, 10, 0)" fill-opacity="0.57"/><path d="M93,111L172,91L169,-10Z" fill="rgb(30, 12, 0)" fill-opacity="0.90"/><path d="M187,131L169,119L194,114Z" fill="rgb(41, 0, 0)" fill-opacity="0.46"/><path d="M168,69L184,51L184,124Z" fill="rgb(244, 143, 0)" fill-opacity="0.67"/><path d="M42,82L55,89L70,32Z" fill="rgb(167, 151, 34)" fill-opacity="0.51"/><path d="M207,129L163,93L227,117Z" fill="rgb(255, 169, 0)" fill-opacity="0.60"/><path d="M236,20L250,14L237,9Z" fill="rgb(255, 215, 24)" fill-opacity="0.47"/><path d="M19,293L-10,93L105,149Z" fill="rgb(9, 1, 4)" fill-opacity="0.67"/><path d="M169,136L189,147L170,183Z" fill="rgb(255, 146, 0)" fill-opacity="0.68"/><path d="M249,198L275,194L246,140Z" fill="rgb(171, 56, 0)" fill-opacity="0.56"/><path d="M202,155L211,141L221,154Z" fill="rgb(251, 103, 0)" fill-opacity="0.63"/><path d="M68,110L66,84L98,86Z" fill="rgb(191, 98, 3)" fill-opacity="0.68"/><path d="M208,13L215,6L223,14Z" fill="rgb(255, 220, 79)" fill-opacity="0.51"/><path d="M167,99L178,89L188,118Z" fill="rgb(255, 216, 0)" fill-opacity="0.63"/><path d="M65,58L65,45L41,52Z" fill="rgb(255, 222, 55)" fill-opacity="0.51"/><path d="M80,77L85,47L29,117Z" fill="rgb(33, 17, 3)" fill-opacity="0.90"/><path d="M86,58L84,88L81,83Z" fill="rgb(255, 186, 0)" fill-opacity="0.44"/><path d="M126,137L133,119L98,122Z" fill="rgb(255, 167, 0)" fill-opacity="0.49"/><path d="M175,91L263,144L258,2Z" fill="rgb(22, 0, 0)" fill-opacity="0.40"/><path d="M-85,118L47,45L41,98Z" fill="rgb(44, 89, 157)" fill-opacity="0.42"/><path d="M212,115L198,122L225,129Z" fill="rgb(250, 123, 0)" fill-opacity="0.49"/><path d="M106,26L106,11L95,22Z" fill="rgb(186, 110, 0)" fill-opacity="0.67"/><path d="M62,61L18,85L107,54Z" fill="rgb(49, 32, 2)" fill-opacity="0.58"/><path d="M195,155L173,146L184,139Z" fill="rgb(255, 213, 0)" fill-opacity="0.64"/><path d="M129,139L117,125L145,90Z" fill="rgb(241, 158, 0)" fill-opacity="0.31"/><path d="M101,65L126,56L128,76Z" fill="rgb(255, 215, 0)" fill-opacity="0.35"/><path d="M221,127L185,116L223,110Z" fill="rgb(198, 99, 0)" fill-opacity="0.52"/><path d="M197,151L277,174L181,167Z" fill="rgb(24, 0, 0)" fill-opacity="0.37"/><path d="M118,36L141,28L102,20Z" fill="rgb(147, 86, 0)" fill-opacity="0.48"/><path d="M146,205L134,166L158,138Z" fill="rgb(245, 156, 0)" fill-opacity="0.64"/><path d="M74,173L115,77L101,67Z" fill="rgb(27, 1, 0)" fill-opacity="0.63"/><path d="M35,82L44,76L52,84Z" fill="rgb(227, 231, 234)" fill-opacity="0.31"/><path d="M175,128L160,138L145,118Z" fill="rgb(255, 139, 0)" fill-opacity="0.54"/><path d="M179,88L192,82L185,58Z" fill="rgb(255, 110, 0)" fill-opacity="0.51"/><path d="M8,63L1,21L23,24Z" fill="rgb(21, 71, 145)" fill-opacity="0.33"/><path d="M188,68L178,55L172,62Z" fill="rgb(220, 101, 0)" fill-opacity="0.66"/><path d="M141,187L176,152L192,158Z" fill="rgb(255, 78, 0)" fill-opacity="0.61"/><path d="M44,50L56,58L59,53Z" fill="rgb(255, 255, 159)" fill-opacity="0.60"/><path d="M247,100L244,110L262,113Z" fill="rgb(209, 210, 118)" fill-opacity="0.43"/><path d="M118,30L116,47L119,49Z" fill="rgb(239, 155, 0)" fill-opacity="0.48"/><path d="M77,132L122,132L134,149Z" fill="rgb(0, 0, 0)" fill-opacity="0.47"/><path d="M4,55L28,121L22,55Z" fill="rgb(26, 63, 175)" fill-opacity="0.38"/><path d="M87,125L99,89L68,93Z" fill="rgb(118, 33, 0)" fill-opacity="0.49"/><path d="M9,50L25,48L41,84Z" fill="rgb(49, 7, 0)" fill-opacity="0.32"/><path d="M86,103L69,111L69,104Z" fill="rgb(233, 159, 2)" fill-opacity="0.59"/><path d="M58,37L45,27L42,35Z" fill="rgb(108, 137, 45)" fill-opacity="0.43"/><path d="M255,58L176,-23L156,56Z" fill="rgb(33, 6, 0)" fill-opacity="0.85"/><path d="M199,46L184,54L202,110Z" fill="rgb(89, 6, 0)" fill-opacity="0.41"/><path d="M125,166L140,225L101,159Z" fill="rgb(255, 229, 0)" fill-opacity="0.73"/><path d="M157,-23L121,-6L114,19Z" fill="rgb(153, 95, 0)" fill-opacity="0.54"/><path d="M251,110L253,103L240,106Z" fill="rgb(191, 200, 124)" fill-opacity="0.41"/><path d="M191,147L173,142L189,158Z" fill="rgb(255, 240, 0)" fill-opacity="0.50"/><path d="M81,129L70,132L76,111Z" fill="rgb(255, 220, 0)" fill-opacity="0.63"/><path d="M51,58L42,75L29,48Z" fill="rgb(87, 98, 191)" fill-opacity="0.51"/><path d="M136,117L135,143L150,147Z" fill="rgb(119, 53, 0)" fill-opacity="0.54"/><path d="M179,115L167,93L193,102Z" fill="rgb(255, 201, 0)" fill-opacity="0.57"/><path d="M129,148L116,143L116,166Z" fill="rgb(255, 104, 0)" fill-opacity="0.48"/><path d="M96,92L73,89L99,85Z" fill="rgb(240, 111, 1)" fill-opacity="0.57"/><path d="M5,50L10,51L15,38Z" fill="rgb(55, 93, 167)" fill-opacity="0.49"/><path d="M9,107L12,66L-9,72Z" fill="rgb(25, 120, 162)" fill-opacity="0.51"/><path d="M105,62L119,63L112,74Z" fill="rgb(255, 255, 19)" fill-opacity="0.48"/><path d="M-12,6L4,-47L63,57Z" fill="rgb(4, 9, 0)" fill-opacity="0.37"/><path d="M199,127L215,124L186,178Z" fill="rgb(84, 11, 0)" fill-opacity="0.48"/><path d="M121,86L103,62L85,84Z" fill="rgb(4, 0, 0)" fill-opacity="0.47"/><path d="M98,126L114,119L114,128Z" fill="rgb(255, 117, 0)" fill-opacity="0.58"/><path d="M163,108L124,112L144,96Z" fill="rgb(136, 62, 0)" fill-opacity="0.95"/><path d="M78,51L70,21L73,10Z" fill="rgb(123, 123, 0)" fill-opacity="0.43"/><path d="M149,160L157,150L137,146Z" fill="rgb(255, 193, 0)" fill-opacity="0.50"/><path d="M63,61L74,45L52,62Z" fill="rgb(128, 105, 0)" fill-opacity="0.53"/><path d="M19,33L40,35L5,44Z" fill="rgb(61, 76, 94)" fill-opacity="0.50"/><path d="M215,31L220,7L262,28Z" fill="rgb(74, 0, 0)" fill-opacity="0.57"/><path d="M112,145L116,195L105,146Z" fill="rgb(255, 216, 0)" fill-opacity="0.69"/><path d="M243,19L235,13L245,14Z" fill="rgb(255, 238, 36)" fill-opacity="0.47"/><path d="M255,142L212,172L240,115Z" fill="rgb(28, 2, 0)" fill-opacity="0.59"/><path d="M190,118L164,105L176,128Z" fill="rgb(89, 25, 0)" fill-opacity="0.55"/><path d="M203,168L198,160L175,215Z" fill="rgb(255, 93, 0)" fill-opacity="0.73"/><path d="M79,99L147,75L118,125Z" fill="rgb(19, 4, 0)" fill-opacity="0.64"/><path d="M80,141L77,140L72,127Z" fill="rgb(236, 170, 0)" fill-opacity="0.50"/><path d="M153,47L119,63L118,74Z" fill="rgb(61, 42, 0)" fill-opacity="0.59"/><path d="M136,24L115,40L143,43Z" fill="rgb(119, 62, 0)" fill-opacity="0.45"/><path d="M57,77L55,60L50,68Z" fill="rgb(6, 10, 18)" fill-opacity="0.48"/><path d="M243,10L247,11L239,17Z" fill="rgb(255, 255, 46)" fill-opacity="0.50"/><path d="M60,38L78,31L66,52Z" fill="rgb(84, 70, 0)" fill-opacity="0.68"/><path d="M236,162L207,155L215,169Z" fill="rgb(14, 0, 0)" fill-opacity="0.54"/><path d="M95,119L116,144L75,149Z" fill="rgb(25, 5, 0)" fill-opacity="0.77"/><path d="M27,73L48,52L53,68Z" fill="rgb(74, 105, 177)" fill-opacity="0.44"/><path d="M73,132L15,115L34,93Z" fill="rgb(15, 6, 5)" fill-opacity="0.61"/><path d="M213,153L202,149L205,154Z" fill="rgb(255, 170, 0)" fill-opacity="0.50"/><path d="M167,176L135,147L134,170Z" fill="rgb(184, 85, 0)" fill-opacity="0.51"/><path d="M83,116L67,102L88,134Z" fill="rgb(252, 134, 0)" fill-opacity="0.49"/><path d="M181,52L131,7L291,-106Z" fill="rgb(31, 9, 0)" fill-opacity="0.90"/><path d="M175,138L166,153L158,148Z" fill="rgb(104, 33, 0)" fill-opacity="0.53"/><path d="M199,125L226,118L229,133Z" fill="rgb(163, 66, 0)" fill-opacity="0.38"/><path d="M79,26L71,24L70,18Z" fill="rgb(171, 138, 0)" fill-opacity="0.48"/><path d="M129,137L127,170L138,138Z" fill="rgb(1, 0, 0)" fill-opacity="0.49"/><path d="M118,127L126,139L128,119Z" fill="rgb(255, 237, 0)" fill-opacity="0.40"/><path d="M76,135L74,169L80,138Z" fill="rgb(141, 68, 1)" fill-opacity="0.47"/><path d="M158,96L164,79L186,87Z" fill="rgb(0, 0, 0)" fill-opacity="0.23"/><path d="M175,130L197,126L200,133Z" fill="rgb(254, 117, 0)" fill-opacity="0.52"/><path d="M161,129L138,135L162,116Z" fill="rgb(253, 158, 0)" fill-opacity="0.58"/><path d="M76,19L122,35L96,50Z" fill="rgb(0, 0, 0)" fill-opacity="0.37"/><path d="M197,140L193,139L215,156Z" fill="rgb(240, 94, 0)" fill-opacity="0.50"/><path d="M240,81L232,49L245,41Z" fill="rgb(68, 26, 0)" fill-opacity="0.53"/><path d="M196,167L184,212L189,161Z" fill="rgb(74, 15, 0)" fill-opacity="0.70"/><path d="M101,17L106,20L100,23Z" fill="rgb(255, 132, 0)" fill-opacity="0.52"/><path d="M126,137L112,126L95,147Z" fill="rgb(15, 0, 0)" fill-opacity="0.55"/><path d="M132,151L119,156L134,176Z" fill="rgb(21, 0, 1)" fill-opacity="0.55"/><path d="M204,2L279,-66L237,14Z" fill="rgb(60, 1, 0)" fill-opacity="0.81"/><path d="M5,68L7,28L-49,73Z" fill="rgb(21, 7, 8)" fill-opacity="0.76"/><path d="M117,7L132,8L120,4Z" fill="rgb(223, 125, 0)" fill-opacity="0.52"/><path d="M49,29L61,37L37,32Z" fill="rgb(100, 104, 20)" fill-opacity="0.49"/><path d="M21,39L10,53L32,52Z" fill="rgb(27, 18, 0)" fill-opacity="0.59"/><path d="M90,123L104,123L116,98Z" fill="rgb(19, 0, 0)" fill-opacity="0.55"/><path d="M92,-8L71,34L110,6Z" fill="rgb(30, 13, 0)" fill-opacity="0.49"/><path d="M204,150L210,141L208,172Z" fill="rgb(255, 98, 0)" fill-opacity="0.52"/><path d="M85,120L77,117L81,95Z" fill="rgb(191, 72, 0)" fill-opacity="0.48"/><path d="M45,73L24,77L43,80Z" fill="rgb(58, 45, 0)" fill-opacity="0.56"/><path d="M236,159L251,158L233,133Z" fill="rgb(22, 1, 0)" fill-opacity="0.60"/><path d="M224,16L197,10L214,26Z" fill="rgb(122, 0, 0)" fill-opacity="0.36"/><path d="M121,142L122,167L102,152Z" fill="rgb(255, 162, 0)" fill-opacity="0.50"/><path d="M56,75L48,76L48,72Z" fill="rgb(241, 206, 29)" fill-opacity="0.55"/><path d="M62,57L64,58L62,65Z" fill="rgb(255, 211, 0)" fill-opacity="0.49"/><path d="M111,53L132,43L149,55Z" fill="rgb(26, 12, 0)" fill-opacity="0.62"/><path d="M194,112L215,126L211,115Z" fill="rgb(246, 155, 0)" fill-opacity="0.52"/><path d="M166,127L161,119L181,121Z" fill="rgb(104, 38, 0)" fill-opacity="0.45"/><path d="M74,95L56,97L87,100Z" fill="rgb(52, 13, 6)" fill-opacity="0.47"/><path d="M126,41L119,31L141,32Z" fill="rgb(31, 10, 0)" fill-opacity="0.43"/><path d="M248,159L270,180L252,153Z" fill="rgb(228, 107, 0)" fill-opacity="0.44"/><path d="M17,97L3,99L29,103Z" fill="rgb(54, 99, 250)" fill-opacity="0.51"/><path d="M199,153L207,164L210,189Z" fill="rgb(4, 8, 22)" fill-opacity="0.51"/><path d="M-9,139L36,108L9,100Z" fill="rgb(27, 23, 24)" fill-opacity="0.55"/><path d="M182,157L186,173L189,153Z" fill="rgb(255, 83, 0)" fill-opacity="0.43"/><path d="M211,141L301,147L200,129Z" fill="rgb(31, 5, 0)" fill-opacity="0.64"/><path d="M69,85L68,95L84,86Z" fill="rgb(233, 135, 10)" fill-opacity="0.58"/><path d="M223,111L237,1L204,114Z" fill="rgb(11, 0, 0)" fill-opacity="0.41"/><path d="M175,90L173,108L203,116Z" fill="rgb(255, 216, 0)" fill-opacity="0.40"/><path d="M156,143L163,129L125,141Z" fill="rgb(123, 49, 0)" fill-opacity="0.49"/><path d="M121,41L119,32L108,23Z" fill="rgb(228, 172, 0)" fill-opacity="0.35"/><path d="M55,92L15,88L33,74Z" fill="rgb(57, 56, 48)" fill-opacity="0.42"/><path d="M16,36L41,-46L82,9Z" fill="rgb(34, 16, 0)" fill-opacity="0.71"/><path d="M189,105L205,97L178,94Z" fill="rgb(236, 50, 0)" fill-opacity="0.31"/><path d="M127,69L142,77L111,70Z" fill="rgb(165, 111, 1)" fill-opacity="0.44"/><path d="M115,77L86,62L87,81Z" fill="rgb(22, 2, 0)" fill-opacity="0.64"/><path d="M80,143L84,146L62,146Z" fill="rgb(130, 49, 0)" fill-opacity="0.50"/><path d="M170,65L171,79L195,82Z" fill="rgb(255, 142, 0)" fill-opacity="0.56"/><path d="M239,22L321,43L256,125Z" fill="rgb(32, 7, 0)" fill-opacity="0.69"/><path d="M181,114L194,117L206,108Z" fill="rgb(255, 167, 0)" fill-opacity="0.62"/><path d="M155,155L166,159L162,161Z" fill="rgb(255, 121, 0)" fill-opacity="0.50"/><path d="M29,95L28,90L19,104Z" fill="rgb(45, 112, 190)" fill-opacity="0.47"/><path d="M179,138L193,147L204,132Z" fill="rgb(152, 55, 0)" fill-opacity="0.56"/><path d="M116,126L100,127L115,117Z" fill="rgb(233, 116, 0)" fill-opacity="0.51"/><path d="M68,100L78,100L73,116Z" fill="rgb(255, 205, 1)" fill-opacity="0.41"/><path d="M124,17L128,13L92,-4Z" fill="rgb(16, 3, 0)" fill-opacity="0.49"/><path d="M13,88L27,90L4,92Z" fill="rgb(46, 90, 232)" fill-opacity="0.53"/><path d="M56,90L61,84L44,72Z" fill="rgb(61, 47, 15)" fill-opacity="0.49"/><path d="M18,55L42,64L33,50Z" fill="rgb(72, 63, 167)" fill-opacity="0.48"/><path d="M137,33L131,30L134,10Z" fill="rgb(140, 73, 0)" fill-opacity="0.48"/><path d="M108,134L123,118L118,127Z" fill="rgb(87, 22, 0)" fill-opacity="0.57"/><path d="M138,100L164,97L151,96Z" fill="rgb(255, 167, 0)" fill-opacity="0.50"/><path d="M57,71L56,84L58,72Z" fill="rgb(232, 195, 0)" fill-opacity="0.50"/><path d="M111,18L122,15L100,12Z" fill="rgb(184, 159, 0)" fill-opacity="0.38"/><path d="M111,73L108,69L117,53Z" fill="rgb(252, 219, 22)" fill-opacity="0.49"/><path d="M200,97L183,95L195,75Z" fill="rgb(96, 17, 0)" fill-opacity="0.63"/><path d="M199,153L192,144L190,153Z" fill="rgb(219, 120, 0)" fill-opacity="0.44"/><path d="M113,14L99,115L110,-22Z" fill="rgb(26, 5, 0)" fill-opacity="0.39"/><path d="M163,123L197,116L192,127Z" fill="rgb(75, 19, 0)" fill-opacity="0.48"/><path d="M180,53L178,55L188,62Z" fill="rgb(83, 29, 0)" fill-opacity="0.49"/><path d="M23,69L31,55L31,69Z" fill="rgb(64, 51, 16)" fill-opacity="0.54"/><path d="M231,161L231,155L276,175Z" fill="rgb(103, 33, 0)" fill-opacity="0.62"/><path d="M148,101L160,95L150,95Z" fill="rgb(253, 170, 0)" fill-opacity="0.53"/><path d="M237,148L213,151L214,127Z" fill="rgb(51, 8, 0)" fill-opacity="0.50"/><path d="M121,143L134,124L126,152Z" fill="rgb(164, 75, 0)" fill-opacity="0.43"/><path d="M71,156L81,160L76,152Z" fill="rgb(131, 69, 3)" fill-opacity="0.46"/><path d="M253,127L248,127L239,123Z" fill="rgb(156, 13, 0)" fill-opacity="0.50"/><path d="M54,84L31,90L74,103Z" fill="rgb(65, 33, 6)" fill-opacity="0.38"/><path d="M44,51L55,47L37,48Z" fill="rgb(107, 104, 106)" fill-opacity="0.52"/><path d="M51,86L40,78L50,82Z" fill="rgb(255, 244, 203)" fill-opacity="0.53"/><path d="M116,75L155,91L134,102Z" fill="rgb(10, 3, 0)" fill-opacity="0.52"/><path d="M189,129L170,144L163,134Z" fill="rgb(158, 53, 0)" fill-opacity="0.48"/><path d="M131,123L122,121L121,132Z" fill="rgb(255, 207, 0)" fill-opacity="0.67"/><path d="M12,66L9,37L4,82Z" fill="rgb(47, 101, 192)" fill-opacity="0.44"/><path d="M131,41L147,39L132,35Z" fill="rgb(158, 84, 0)" fill-opacity="0.46"/><path d="M75,29L59,13L70,44Z" fill="rgb(30, 16, 0)" fill-opacity="0.48"/><path d="M80,92L66,93L78,96Z" fill="rgb(82, 35, 23)" fill-opacity="0.49"/><path d="M263,184L222,170L253,163Z" fill="rgb(41, 7, 0)" fill-opacity="0.56"/><path d="M101,154L106,203L63,162Z" fill="rgb(19, 7, 10)" fill-opacity="0.71"/><path d="M19,99L10,91L21,94Z" fill="rgb(31, 55, 76)" fill-opacity="0.50"/><path d="M69,151L68,95L34,96Z" fill="rgb(39, 6, 0)" fill-opacity="0.50"/><path d="M150,150L148,156L161,161Z" fill="rgb(255, 232, 3)" fill-opacity="0.39"/><path d="M12,29L-46,20L29,24Z" fill="rgb(52, 55, 68)" fill-opacity="0.51"/><path d="M127,47L141,77L124,71Z" fill="rgb(62, 43, 0)" fill-opacity="0.43"/><path d="M173,103L169,93L182,91Z" fill="rgb(255, 181, 0)" fill-opacity="0.55"/><path d="M50,57L57,73L57,58Z" fill="rgb(46, 27, 20)" fill-opacity="0.53"/></svg>