<svg xmlns="http://www.w3.org/2000/svg" viewBox="0 0 256 169.55844155844156" clip-path="url(#clip)" width="512" height="339.1168831168831"><defs><clipPath id="clip" clipPathUnits="objectBoundingBox"><rect x="0" y="0" width="256" height="169.55844155844156"/></clipPath></defs><rect x="0" y="0" width="256" height="169.55844155844156" fill="rgb(116, 123, 124)"/><path d="M139,111L370,127L141,186Z" fill="rgb(28, 38, 55)" fill-opacity="0.84"/><path d="M98,59L-131,117L122,160Z" fill="rgb(35, 41, 48)" fill-opacity="0.62"/><path d="M127,63L150,-32L40,3Z" fill="rgb(252, 230, 176)" fill-opacity="0.70"/><path d="M107,230L176,159L241,161Z" fill="rgb(96, 126, 164)" fill-opacity="0.88"/><path d="M93,5L108,55L37,81Z" fill="rgb(150, 140, 107)" fill-opacity="0.77"/><path d="M155,105L257,21L297,71Z" fill="rgb(3, 36, 85)" fill-opacity="0.73"/><path d="M5,37L-18,9L40,-23Z" fill="rgb(254, 252, 253)" fill-opacity="0.80"/><path d="M98,175L155,115L203,111Z" fill="rgb(209, 227, 188)" fill-opacity="0.25"/><path d="M94,-2L267,-5L212,53Z" fill="rgb(255, 246, 140)" fill-opacity="0.43"/><path d="M48,126L-17,37L37,24Z" fill="rgb(20, 5, 4)" fill-opacity="0.50"/><path d="M97,37L144,37L119,79Z" fill="rgb(226, 199, 137)" fill-opacity="0.53"/><path d="M115,130L147,115L47,71Z" fill="rgb(38, 49, 42)" fill-opacity="0.56"/><path d="M45,18L93,35L55,46Z" fill="rgb(23, 44, 83)" fill-opacity="0.55"/><path d="M88,6L94,31L78,28Z" fill="rgb(255, 239, 178)" fill-opacity="0.54"/><path d="M49,29L47,54L34,24Z" fill="rgb(255, 228, 149)" fill-opacity="0.56"/><path d="M48,69L53,43L92,44Z" fill="rgb(255, 223, 143)" fill-opacity="0.53"/><path d="M13,87L3,97L6,105Z" fill="rgb(130, 162, 217)" fill-opacity="0.57"/><path d="M172,172L137,169L143,130Z" fill="rgb(3, 0, 0)" fill-opacity="0.56"/><path d="M83,208L54,110L-36,154Z" fill="rgb(95, 100, 109)" fill-opacity="1.00"/><path d="M202,22L200,81L132,51Z" fill="rgb(40, 78, 37)" fill-opacity="0.31"/><path d="M25,137L12,81L42,30Z" fill="rgb(50, 25, 4)" fill-opacity="0.62"/><path d="M126,112L65,195L82,112Z" fill="rgb(97, 114, 148)" fill-opacity="0.51"/><path d="M103,71L92,15L100,32Z" fill="rgb(16, 29, 48)" fill-opacity="0.58"/><path d="M215,152L259,171L266,96Z" fill="rgb(1, 11, 31)" fill-opacity="0.70"/><path d="M144,122L103,194L130,113Z" fill="rgb(141, 177, 193)" fill-opacity="0.50"/><path d="M98,24L89,6L94,24Z" fill="rgb(0, 6, 41)" fill-opacity="0.52"/><path d="M20,65L-3,96L-6,19Z" fill="rgb(78, 120, 176)" fill-opacity="0.55"/><path d="M-4,129L-19,100L49,113Z" fill="rgb(19, 6, 3)" fill-opacity="0.67"/><path d="M103,-147L129,18L95,15Z" fill="rgb(254, 244, 224)" fill-opacity="0.77"/><path d="M172,122L243,121L124,60Z" fill="rgb(113, 119, 143)" fill-opacity="0.43"/><path d="M133,123L100,176L106,114Z" fill="rgb(0, 9, 36)" fill-opacity="0.28"/><path d="M151,115L110,113L116,103Z" fill="rgb(53, 40, 0)" fill-opacity="0.56"/><path d="M76,-1L62,21L36,2Z" fill="rgb(255, 252, 231)" fill-opacity="0.52"/><path d="M-17,57L5,134L4,192Z" fill="rgb(11, 12, 18)" fill-opacity="0.80"/><path d="M100,10L71,-9L75,2Z" fill="rgb(13, 36, 75)" fill-opacity="0.47"/><path d="M167,166L276,132L172,120Z" fill="rgb(2, 19, 53)" fill-opacity="0.41"/><path d="M145,140L173,144L143,193Z" fill="rgb(6, 3, 5)" fill-opacity="0.55"/><path d="M190,-6L160,12L164,44Z" fill="rgb(255, 228, 120)" fill-opacity="0.35"/><path d="M171,121L145,137L173,144Z" fill="rgb(108, 126, 121)" fill-opacity="0.58"/><path d="M55,87L46,93L58,109Z" fill="rgb(129, 180, 251)" fill-opacity="0.44"/><path d="M30,125L3,123L28,172Z" fill="rgb(121, 108, 102)" fill-opacity="0.63"/><path d="M123,40L146,72L164,7Z" fill="rgb(168, 149, 78)" fill-opacity="0.58"/><path d="M44,90L52,88L57,96Z" fill="rgb(135, 179, 221)" fill-opacity="0.50"/><path d="M101,70L37,113L90,111Z" fill="rgb(9, 20, 16)" fill-opacity="0.46"/><path d="M96,32L87,1L94,8Z" fill="rgb(27, 36, 55)" fill-opacity="0.58"/><path d="M46,0L-1,-33L43,29Z" fill="rgb(143, 141, 115)" fill-opacity="0.68"/><path d="M230,-5L213,24L172,-43Z" fill="rgb(253, 228, 183)" fill-opacity="0.55"/><path d="M103,104L115,109L101,86Z" fill="rgb(112, 142, 164)" fill-opacity="0.51"/><path d="M220,69L216,47L156,97Z" fill="rgb(51, 92, 147)" fill-opacity="0.56"/><path d="M134,26L164,10L144,-45Z" fill="rgb(137, 139, 65)" fill-opacity="0.45"/><path d="M78,179L45,215L32,144Z" fill="rgb(119, 161, 207)" fill-opacity="0.38"/><path d="M104,68L113,66L98,45Z" fill="rgb(41, 39, 33)" fill-opacity="0.56"/><path d="M5,64L45,58L27,31Z" fill="rgb(19, 5, 0)" fill-opacity="0.40"/><path d="M136,106L145,133L152,112Z" fill="rgb(54, 24, 0)" fill-opacity="0.43"/><path d="M147,69L108,71L118,66Z" fill="rgb(201, 202, 191)" fill-opacity="0.69"/><path d="M44,48L13,28L11,53Z" fill="rgb(16, 28, 42)" fill-opacity="0.51"/><path d="M210,162L300,139L173,155Z" fill="rgb(4, 14, 30)" fill-opacity="0.55"/><path d="M164,108L140,116L178,113Z" fill="rgb(55, 45, 24)" fill-opacity="0.55"/><path d="M229,158L268,82L221,113Z" fill="rgb(50, 28, 61)" fill-opacity="0.21"/><path d="M81,125L61,135L142,132Z" fill="rgb(120, 134, 153)" fill-opacity="0.44"/><path d="M57,134L25,126L35,118Z" fill="rgb(133, 159, 190)" fill-opacity="0.51"/><path d="M208,86L307,-6L258,84Z" fill="rgb(0, 10, 37)" fill-opacity="0.35"/><path d="M213,56L199,20L186,52Z" fill="rgb(149, 176, 137)" fill-opacity="0.48"/><path d="M83,154L47,163L87,135Z" fill="rgb(50, 70, 80)" fill-opacity="0.59"/><path d="M170,101L246,83L192,112Z" fill="rgb(128, 134, 174)" fill-opacity="0.58"/><path d="M45,98L3,118L19,83Z" fill="rgb(23, 19, 21)" fill-opacity="0.67"/><path d="M51,42L43,22L33,32Z" fill="rgb(208, 196, 140)" fill-opacity="0.56"/><path d="M-4,33L-2,48L34,5Z" fill="rgb(166, 174, 193)" fill-opacity="0.36"/><path d="M49,-35L84,9L43,16Z" fill="rgb(251, 247, 222)" fill-opacity="0.49"/><path d="M-3,100L-5,88L14,86Z" fill="rgb(1, 7, 13)" fill-opacity="0.60"/><path d="M150,72L171,81L164,68Z" fill="rgb(86, 123, 0)" fill-opacity="0.53"/><path d="M15,68L60,95L29,57Z" fill="rgb(120, 72, 26)" fill-opacity="0.44"/><path d="M148,87L154,107L166,103Z" fill="rgb(138, 163, 180)" fill-opacity="0.50"/><path d="M127,131L141,116L141,128Z" fill="rgb(143, 190, 242)" fill-opacity="0.54"/><path d="M45,58L51,81L32,73Z" fill="rgb(131, 131, 159)" fill-opacity="0.40"/><path d="M86,113L78,117L45,115Z" fill="rgb(142, 162, 183)" fill-opacity="0.48"/><path d="M49,17L83,21L51,49Z" fill="rgb(68, 87, 104)" fill-opacity="0.42"/><path d="M98,149L85,161L116,163Z" fill="rgb(101, 141, 192)" fill-opacity="0.46"/><path d="M103,52L129,6L114,65Z" fill="rgb(249, 225, 165)" fill-opacity="0.56"/><path d="M116,103L139,95L139,105Z" fill="rgb(157, 189, 204)" fill-opacity="0.45"/><path d="M116,39L107,1L101,36Z" fill="rgb(198, 165, 80)" fill-opacity="0.40"/><path d="M207,63L173,51L166,68Z" fill="rgb(36, 66, 65)" fill-opacity="0.55"/><path d="M151,46L183,72L148,60Z" fill="rgb(51, 62, 46)" fill-opacity="0.45"/><path d="M127,39L185,26L189,47Z" fill="rgb(135, 137, 89)" fill-opacity="0.55"/><path d="M106,57L107,79L103,67Z" fill="rgb(26, 38, 52)" fill-opacity="0.49"/><path d="M52,84L104,58L77,55Z" fill="rgb(96, 110, 84)" fill-opacity="0.63"/><path d="M144,141L154,141L155,102Z" fill="rgb(123, 130, 114)" fill-opacity="0.46"/><path d="M49,44L40,65L45,32Z" fill="rgb(244, 207, 151)" fill-opacity="0.46"/><path d="M70,112L19,117L45,104Z" fill="rgb(32, 24, 21)" fill-opacity="0.74"/><path d="M53,87L103,68L60,100Z" fill="rgb(38, 58, 47)" fill-opacity="0.75"/><path d="M65,45L60,70L49,49Z" fill="rgb(241, 206, 149)" fill-opacity="0.60"/><path d="M59,78L49,62L50,95Z" fill="rgb(82, 97, 84)" fill-opacity="0.51"/><path d="M243,11L245,29L217,28Z" fill="rgb(116, 140, 113)" fill-opacity="0.49"/><path d="M235,41L241,31L207,28Z" fill="rgb(171, 201, 152)" fill-opacity="0.47"/><path d="M16,24L31,31L3,44Z" fill="rgb(43, 70, 101)" fill-opacity="0.50"/><path d="M14,49L40,60L43,45Z" fill="rgb(47, 21, 2)" fill-opacity="0.63"/><path d="M83,128L116,113L90,112Z" fill="rgb(132, 131, 149)" fill-opacity="0.60"/><path d="M48,87L60,97L59,106Z" fill="rgb(159, 201, 255)" fill-opacity="0.39"/><path d="M122,144L145,176L91,199Z" fill="rgb(150, 176, 166)" fill-opacity="0.59"/><path d="M237,159L293,198L161,164Z" fill="rgb(94, 125, 163)" fill-opacity="0.59"/><path d="M80,2L92,13L84,30Z" fill="rgb(255, 235, 197)" fill-opacity="0.45"/><path d="M166,132L162,118L150,131Z" fill="rgb(61, 62, 51)" fill-opacity="0.47"/><path d="M226,125L232,93L143,122Z" fill="rgb(138, 111, 111)" fill-opacity="0.26"/><path d="M122,45L103,51L128,57Z" fill="rgb(248, 235, 207)" fill-opacity="0.57"/><path d="M172,85L95,68L109,106Z" fill="rgb(94, 123, 148)" fill-opacity="0.45"/><path d="M84,32L89,40L56,42Z" fill="rgb(13, 26, 44)" fill-opacity="0.43"/><path d="M107,22L79,33L113,30Z" fill="rgb(92, 79, 51)" fill-opacity="0.21"/><path d="M105,89L114,110L117,95Z" fill="rgb(31, 49, 37)" fill-opacity="0.29"/><path d="M258,124L238,156L260,178Z" fill="rgb(6, 14, 27)" fill-opacity="0.63"/><path d="M6,88L2,40L18,69Z" fill="rgb(87, 114, 151)" fill-opacity="0.47"/><path d="M163,119L166,127L202,91Z" fill="rgb(135, 148, 152)" fill-opacity="0.44"/><path d="M205,-12L186,21L201,22Z" fill="rgb(243, 221, 167)" fill-opacity="0.44"/><path d="M176,90L161,116L173,114Z" fill="rgb(42, 62, 61)" fill-opacity="0.51"/><path d="M102,75L144,78L119,79Z" fill="rgb(194, 195, 192)" fill-opacity="0.41"/><path d="M177,73L200,55L211,58Z" fill="rgb(44, 78, 93)" fill-opacity="0.56"/><path d="M46,149L29,133L45,132Z" fill="rgb(52, 65, 77)" fill-opacity="0.54"/><path d="M122,59L143,56L123,66Z" fill="rgb(78, 91, 59)" fill-opacity="0.37"/><path d="M163,64L181,77L155,66Z" fill="rgb(123, 201, 215)" fill-opacity="0.46"/><path d="M143,41L135,72L141,4Z" fill="rgb(101, 111, 80)" fill-opacity="0.68"/><path d="M8,110L-70,116L10,101Z" fill="rgb(73, 53, 53)" fill-opacity="0.79"/><path d="M78,55L99,48L103,69Z" fill="rgb(114, 118, 91)" fill-opacity="0.60"/><path d="M149,59L144,50L140,69Z" fill="rgb(252, 208, 145)" fill-opacity="0.38"/><path d="M83,4L66,-2L80,25Z" fill="rgb(227, 223, 181)" fill-opacity="0.49"/><path d="M93,10L64,-8L93,7Z" fill="rgb(16, 22, 35)" fill-opacity="0.55"/><path d="M93,162L96,204L104,163Z" fill="rgb(8, 28, 71)" fill-opacity="0.41"/><path d="M178,132L216,123L326,128Z" fill="rgb(11, 5, 1)" fill-opacity="0.37"/><path d="M35,131L41,118L30,120Z" fill="rgb(136, 177, 218)" fill-opacity="0.52"/><path d="M99,21L125,21L93,3Z" fill="rgb(246, 228, 182)" fill-opacity="0.58"/><path d="M176,105L165,131L169,142Z" fill="rgb(111, 137, 141)" fill-opacity="0.57"/><path d="M222,34L206,28L205,48Z" fill="rgb(176, 209, 171)" fill-opacity="0.49"/><path d="M147,118L160,113L170,123Z" fill="rgb(142, 151, 119)" fill-opacity="0.48"/><path d="M87,52L78,45L54,50Z" fill="rgb(241, 220, 155)" fill-opacity="0.44"/><path d="M119,9L143,-1L75,-2Z" fill="rgb(252, 244, 231)" fill-opacity="0.62"/><path d="M119,45L136,-16L136,54Z" fill="rgb(224, 188, 134)" fill-opacity="0.40"/><path d="M95,31L83,44L96,47Z" fill="rgb(217, 192, 114)" fill-opacity="0.48"/><path d="M162,55L146,63L171,66Z" fill="rgb(72, 89, 82)" fill-opacity="0.61"/><path d="M142,100L152,98L143,111Z" fill="rgb(59, 79, 77)" fill-opacity="0.54"/><path d="M11,72L38,75L28,83Z" fill="rgb(117, 95, 65)" fill-opacity="0.39"/><path d="M37,72L24,61L17,77Z" fill="rgb(93, 44, 1)" fill-opacity="0.72"/><path d="M195,10L252,-87L147,4Z" fill="rgb(193, 187, 93)" fill-opacity="0.56"/><path d="M211,89L266,82L209,110Z" fill="rgb(119, 121, 166)" fill-opacity="0.42"/><path d="M19,95L15,100L6,91Z" fill="rgb(75, 110, 181)" fill-opacity="0.46"/><path d="M36,91L56,84L21,77Z" fill="rgb(50, 32, 0)" fill-opacity="0.55"/><path d="M45,56L72,78L33,64Z" fill="rgb(132, 131, 120)" fill-opacity="0.54"/><path d="M234,50L222,47L159,87Z" fill="rgb(59, 98, 139)" fill-opacity="0.47"/><path d="M61,119L78,111L56,113Z" fill="rgb(109, 128, 152)" fill-opacity="0.51"/><path d="M160,107L148,114L169,114Z" fill="rgb(56, 48, 39)" fill-opacity="0.56"/><path d="M70,121L63,132L56,115Z" fill="rgb(29, 37, 51)" fill-opacity="0.50"/><path d="M97,23L106,63L95,33Z" fill="rgb(0, 38, 104)" fill-opacity="0.33"/><path d="M51,108L51,96L61,101Z" fill="rgb(105, 128, 172)" fill-opacity="0.54"/><path d="M106,134L100,149L132,135Z" fill="rgb(31, 43, 58)" fill-opacity="0.51"/><path d="M172,129L206,129L176,115Z" fill="rgb(46, 27, 21)" fill-opacity="0.39"/><path d="M-64,53L38,-34L10,26Z" fill="rgb(255, 254, 252)" fill-opacity="0.48"/><path d="M133,140L138,157L114,144Z" fill="rgb(151, 176, 163)" fill-opacity="0.50"/><path d="M180,72L156,64L174,74Z" fill="rgb(141, 190, 210)" fill-opacity="0.51"/><path d="M170,72L173,87L175,72Z" fill="rgb(140, 182, 177)" fill-opacity="0.49"/><path d="M26,3L15,24L-19,52Z" fill="rgb(201, 200, 201)" fill-opacity="0.50"/><path d="M134,27L112,17L115,47Z" fill="rgb(241, 223, 156)" fill-opacity="0.54"/><path d="M170,7L160,22L182,22Z" fill="rgb(230, 220, 155)" fill-opacity="0.63"/><path d="M174,144L171,141L154,143Z" fill="rgb(7, 8, 18)" fill-opacity="0.58"/><path d="M160,162L164,174L185,133Z" fill="rgb(28, 41, 64)" fill-opacity="0.69"/><path d="M238,125L257,120L254,137Z" fill="rgb(8, 8, 10)" fill-opacity="0.58"/><path d="M82,146L105,141L97,157Z" fill="rgb(56, 94, 143)" fill-opacity="0.56"/><path d="M55,119L42,124L67,162Z" fill="rgb(119, 117, 123)" fill-opacity="0.48"/><path d="M129,12L143,9L139,22Z" fill="rgb(216, 195, 156)" fill-opacity="0.45"/><path d="M25,164L29,162L21,193Z" fill="rgb(121, 151, 186)" fill-opacity="0.52"/><path d="M283,112L285,94L224,123Z" fill="rgb(75, 71, 80)" fill-opacity="0.74"/><path d="M53,68L69,64L48,48Z" fill="rgb(215, 181, 132)" fill-opacity="0.51"/><path d="M49,100L52,86L35,110Z" fill="rgb(74, 96, 133)" fill-opacity="0.54"/><path d="M37,20L44,52L49,40Z" fill="rgb(230, 214, 153)" fill-opacity="0.48"/><path d="M19,23L24,-4L36,20Z" fill="rgb(149, 147, 149)" fill-opacity="0.53"/><path d="M141,32L160,18L174,40Z" fill="rgb(166, 158, 98)" fill-opacity="0.60"/><path d="M30,124L11,123L40,98Z" fill="rgb(23, 16, 13)" fill-opacity="0.56"/><path d="M146,29L139,19L144,12Z" fill="rgb(115, 123, 78)" fill-opacity="0.52"/><path d="M128,120L138,117L111,114Z" fill="rgb(132, 157, 200)" fill-opacity="0.46"/><path d="M32,119L46,116L32,131Z" fill="rgb(119, 156, 200)" fill-opacity="0.49"/><path d="M179,66L202,69L172,106Z" fill="rgb(48, 90, 142)" fill-opacity="0.48"/><path d="M24,91L32,88L50,94Z" fill="rgb(66, 77, 89)" fill-opacity="0.50"/><path d="M225,43L272,26L211,57Z" fill="rgb(22, 50, 56)" fill-opacity="0.33"/><path d="M179,159L118,216L192,158Z" fill="rgb(123, 159, 204)" fill-opacity="0.38"/><path d="M38,-15L48,20L35,30Z" fill="rgb(125, 126, 85)" fill-opacity="0.37"/><path d="M190,38L180,28L184,56Z" fill="rgb(100, 124, 90)" fill-opacity="0.63"/><path d="M27,35L28,31L18,34Z" fill="rgb(82, 125, 173)" fill-opacity="0.50"/><path d="M138,134L149,126L137,129Z" fill="rgb(9, 32, 57)" fill-opacity="0.42"/><path d="M171,141L171,132L155,141Z" fill="rgb(121, 143, 138)" fill-opacity="0.52"/><path d="M87,115L41,119L88,110Z" fill="rgb(129, 148, 167)" fill-opacity="0.30"/><path d="M105,110L87,111L98,75Z" fill="rgb(28, 42, 40)" fill-opacity="0.62"/><path d="M151,122L140,135L145,111Z" fill="rgb(4, 2, 0)" fill-opacity="0.32"/><path d="M184,88L263,31L220,88Z" fill="rgb(22, 51, 93)" fill-opacity="0.53"/><path d="M84,19L85,28L39,10Z" fill="rgb(211, 205, 124)" fill-opacity="0.36"/><path d="M107,129L131,122L103,116Z" fill="rgb(50, 36, 27)" fill-opacity="0.49"/><path d="M91,46L89,30L95,30Z" fill="rgb(213, 183, 117)" fill-opacity="0.54"/><path d="M5,81L11,35L-29,33Z" fill="rgb(76, 105, 143)" fill-opacity="0.51"/><path d="M151,55L137,44L160,45Z" fill="rgb(110, 100, 55)" fill-opacity="0.60"/><path d="M221,4L279,20L280,-26Z" fill="rgb(210, 183, 154)" fill-opacity="0.49"/><path d="M77,163L74,173L111,188Z" fill="rgb(35, 57, 89)" fill-opacity="0.54"/><path d="M123,107L116,100L174,82Z" fill="rgb(134, 149, 158)" fill-opacity="0.43"/><path d="M50,184L32,141L43,145Z" fill="rgb(114, 139, 169)" fill-opacity="0.49"/><path d="M235,80L185,97L165,94Z" fill="rgb(21, 47, 83)" fill-opacity="0.43"/><path d="M249,83L382,15L253,53Z" fill="rgb(4, 14, 27)" fill-opacity="0.45"/></svg>