<svg xmlns="http://www.w3.org/2000/svg" viewBox="0 0 256 169.55844155844156" clip-path="url(#clip)" width="512" height="339.1168831168831"><defs><clipPath id="clip" clipPathUnits="objectBoundingBox"><rect x="0" y="0" width="256" height="169.55844155844156"/></clipPath></defs><rect x="0" y="0" width="256" height="169.55844155844156" fill="rgb(44, 35, 23)"/><path d="M50,210L69,44L219,130Z" fill="rgb(222, 147, 0)" fill-opacity="0.77"/><path d="M25,24L63,137L62,77Z" fill="rgb(248, 204, 2)" fill-opacity="0.78"/><path d="M116,109L227,64L194,269Z" fill="rgb(86, 35, 0)" fill-opacity="0.44"/><path d="M135,95L55,133L82,54Z" fill="rgb(255, 187, 0)" fill-opacity="0.61"/><path d="M62,90L115,156L88,283Z" fill="rgb(249, 188, 0)" fill-opacity="0.88"/><path d="M78,78L35,101L74,97Z" fill="rgb(111, 70, 0)" fill-opacity="0.50"/><path d="M185,112L180,81L117,82Z" fill="rgb(116, 74, 0)" fill-opacity="0.73"/><path d="M74,199L60,124L-78,158Z" fill="rgb(26, 19, 0)" fill-opacity="0.58"/><path d="M28,23L63,83L46,90Z" fill="rgb(252, 229, 9)" fill-opacity="0.62"/><path d="M82,48L61,95L59,38Z" fill="rgb(69, 54, 15)" fill-opacity="0.70"/><path d="M113,61L64,29L82,59Z" fill="rgb(57, 40, 15)" fill-opacity="0.52"/><path d="M194,100L160,-214L355,226Z" fill="rgb(1, 6, 34)" fill-opacity="0.52"/><path d="M183,155L195,216L314,132Z" fill="rgb(22, 8, 0)" fill-opacity="0.62"/><path d="M55,93L64,200L21,71Z" fill="rgb(76, 54, 0)" fill-opacity="0.48"/><path d="M177,86L110,180L222,144Z" fill="rgb(134, 69, 0)" fill-opacity="0.53"/><path d="M48,54L38,56L32,33Z" fill="rgb(249, 254, 53)" fill-opacity="0.58"/><path d="M296,27L125,33L87,-127Z" fill="rgb(25, 25, 58)" fill-opacity="0.79"/><path d="M203,159L202,104L250,140Z" fill="rgb(78, 31, 0)" fill-opacity="0.47"/><path d="M81,174L59,70L53,120Z" fill="rgb(215, 138, 0)" fill-opacity="0.39"/><path d="M172,102L200,123L169,92Z" fill="rgb(188, 136, 6)" fill-opacity="0.34"/><path d="M102,142L91,158L59,109Z" fill="rgb(255, 212, 0)" fill-opacity="0.61"/><path d="M118,66L71,63L102,116Z" fill="rgb(255, 185, 0)" fill-opacity="0.40"/><path d="M98,141L133,186L96,162Z" fill="rgb(255, 203, 0)" fill-opacity="0.62"/><path d="M161,124L184,166L196,154Z" fill="rgb(55, 11, 0)" fill-opacity="0.30"/><path d="M156,99L104,149L96,107Z" fill="rgb(182, 123, 3)" fill-opacity="0.64"/><path d="M216,67L106,61L147,97Z" fill="rgb(65, 34, 0)" fill-opacity="0.40"/><path d="M113,105L173,108L95,109Z" fill="rgb(123, 96, 21)" fill-opacity="0.63"/><path d="M51,66L46,58L75,8Z" fill="rgb(54, 48, 25)" fill-opacity="0.70"/><path d="M223,168L186,126L215,128Z" fill="rgb(91, 39, 0)" fill-opacity="0.49"/><path d="M60,76L48,91L37,52Z" fill="rgb(255, 233, 0)" fill-opacity="0.53"/><path d="M113,65L151,100L125,106Z" fill="rgb(174, 107, 0)" fill-opacity="0.58"/><path d="M40,46L35,44L44,64Z" fill="rgb(247, 255, 102)" fill-opacity="0.53"/><path d="M28,79L37,54L45,83Z" fill="rgb(102, 69, 0)" fill-opacity="0.40"/><path d="M71,82L58,98L69,50Z" fill="rgb(77, 59, 7)" fill-opacity="0.54"/><path d="M197,152L174,131L217,143Z" fill="rgb(179, 94, 0)" fill-opacity="0.37"/><path d="M100,60L135,81L76,53Z" fill="rgb(140, 87, 0)" fill-opacity="0.65"/><path d="M91,160L81,170L94,169Z" fill="rgb(174, 111, 0)" fill-opacity="0.43"/><path d="M111,87L100,106L128,105Z" fill="rgb(255, 173, 0)" fill-opacity="0.57"/><path d="M136,51L86,-69L93,52Z" fill="rgb(1, 1, 9)" fill-opacity="0.36"/><path d="M145,-97L-59,39L46,26Z" fill="rgb(28, 29, 26)" fill-opacity="0.88"/><path d="M116,114L73,93L91,131Z" fill="rgb(217, 141, 0)" fill-opacity="0.55"/><path d="M170,145L141,150L138,112Z" fill="rgb(189, 114, 0)" fill-opacity="0.45"/><path d="M307,126L195,15L120,42Z" fill="rgb(20, 16, 12)" fill-opacity="0.42"/><path d="M118,105L133,116L110,113Z" fill="rgb(107, 92, 10)" fill-opacity="0.53"/><path d="M61,108L50,113L48,94Z" fill="rgb(147, 99, 15)" fill-opacity="0.38"/><path d="M167,73L175,63L169,62Z" fill="rgb(120, 82, 0)" fill-opacity="0.52"/><path d="M153,99L136,99L179,133Z" fill="rgb(190, 133, 15)" fill-opacity="0.38"/><path d="M35,64L-30,1L24,140Z" fill="rgb(38, 45, 47)" fill-opacity="0.51"/><path d="M197,105L217,65L175,97Z" fill="rgb(32, 27, 10)" fill-opacity="0.46"/><path d="M140,203L146,144L111,153Z" fill="rgb(156, 98, 0)" fill-opacity="0.67"/><path d="M168,85L178,92L179,84Z" fill="rgb(158, 122, 0)" fill-opacity="0.42"/><path d="M52,94L64,86L44,83Z" fill="rgb(251, 172, 0)" fill-opacity="0.45"/><path d="M313,24L228,28L233,63Z" fill="rgb(19, 22, 58)" fill-opacity="0.72"/><path d="M150,102L156,102L157,95Z" fill="rgb(217, 211, 100)" fill-opacity="0.50"/><path d="M250,130L252,124L262,126Z" fill="rgb(125, 16, 0)" fill-opacity="0.56"/><path d="M142,99L114,67L170,94Z" fill="rgb(114, 68, 0)" fill-opacity="0.40"/><path d="M248,54L395,64L244,202Z" fill="rgb(0, 1, 0)" fill-opacity="0.40"/><path d="M49,56L46,62L63,72Z" fill="rgb(97, 66, 2)" fill-opacity="0.46"/><path d="M42,-14L72,54L67,86Z" fill="rgb(45, 41, 28)" fill-opacity="0.54"/><path d="M44,124L59,129L49,108Z" fill="rgb(69, 59, 41)" fill-opacity="0.49"/><path d="M58,70L53,72L55,95Z" fill="rgb(255, 239, 0)" fill-opacity="0.57"/><path d="M160,52L174,94L102,62Z" fill="rgb(45, 26, 7)" fill-opacity="0.44"/><path d="M205,118L190,116L209,135Z" fill="rgb(156, 82, 0)" fill-opacity="0.49"/><path d="M94,110L110,72L75,69Z" fill="rgb(255, 183, 0)" fill-opacity="0.57"/><path d="M232,147L228,145L235,138Z" fill="rgb(155, 89, 0)" fill-opacity="0.43"/><path d="M268,171L221,37L203,109Z" fill="rgb(17, 15, 4)" fill-opacity="0.35"/><path d="M120,30L176,45L128,-110Z" fill="rgb(28, 34, 132)" fill-opacity="0.10"/><path d="M95,167L70,156L81,149Z" fill="rgb(217, 147, 0)" fill-opacity="0.58"/><path d="M190,125L160,93L180,132Z" fill="rgb(91, 47, 1)" fill-opacity="0.38"/><path d="M29,25L42,64L28,30Z" fill="rgb(255, 255, 34)" fill-opacity="0.38"/><path d="M71,72L74,53L87,56Z" fill="rgb(168, 107, 0)" fill-opacity="0.42"/><path d="M107,146L76,102L58,116Z" fill="rgb(252, 186, 0)" fill-opacity="0.60"/><path d="M195,133L189,151L179,137Z" fill="rgb(204, 107, 0)" fill-opacity="0.34"/><path d="M175,93L181,91L169,111Z" fill="rgb(82, 54, 0)" fill-opacity="0.52"/><path d="M49,198L-48,142L4,94Z" fill="rgb(0, 19, 21)" fill-opacity="0.30"/><path d="M75,133L58,100L65,99Z" fill="rgb(251, 206, 0)" fill-opacity="0.36"/><path d="M71,100L83,102L74,66Z" fill="rgb(197, 131, 0)" fill-opacity="0.67"/><path d="M61,96L36,100L32,88Z" fill="rgb(64, 52, 0)" fill-opacity="0.53"/><path d="M184,73L189,67L203,71Z" fill="rgb(67, 52, 16)" fill-opacity="0.49"/><path d="M140,130L160,140L140,116Z" fill="rgb(188, 115, 0)" fill-opacity="0.54"/><path d="M104,145L124,175L84,98Z" fill="rgb(200, 124, 0)" fill-opacity="0.62"/><path d="M146,171L158,150L189,159Z" fill="rgb(101, 40, 0)" fill-opacity="0.47"/><path d="M175,107L176,95L184,114Z" fill="rgb(188, 138, 0)" fill-opacity="0.37"/><path d="M205,153L146,191L191,147Z" fill="rgb(48, 20, 0)" fill-opacity="0.61"/><path d="M67,97L63,73L58,97Z" fill="rgb(140, 98, 0)" fill-opacity="0.55"/><path d="M64,188L33,60L28,132Z" fill="rgb(46, 35, 0)" fill-opacity="0.61"/><path d="M61,148L69,153L68,183Z" fill="rgb(145, 74, 0)" fill-opacity="0.49"/><path d="M60,121L66,143L64,158Z" fill="rgb(148, 88, 0)" fill-opacity="0.57"/><path d="M96,154L72,149L97,135Z" fill="rgb(255, 223, 0)" fill-opacity="0.42"/><path d="M127,125L141,107L157,112Z" fill="rgb(132, 98, 3)" fill-opacity="0.66"/><path d="M104,65L120,97L125,77Z" fill="rgb(205, 128, 0)" fill-opacity="0.52"/><path d="M246,147L241,141L244,198Z" fill="rgb(75, 74, 0)" fill-opacity="0.42"/><path d="M76,54L72,48L70,42Z" fill="rgb(169, 130, 45)" fill-opacity="0.50"/><path d="M41,37L39,41L53,67Z" fill="rgb(126, 96, 0)" fill-opacity="0.49"/><path d="M93,-37L90,40L29,8Z" fill="rgb(34, 35, 38)" fill-opacity="0.60"/><path d="M188,141L192,146L183,146Z" fill="rgb(235, 122, 0)" fill-opacity="0.50"/><path d="M225,142L202,134L242,165Z" fill="rgb(31, 12, 0)" fill-opacity="0.37"/><path d="M158,110L173,122L151,94Z" fill="rgb(138, 86, 1)" fill-opacity="0.52"/><path d="M156,151L154,167L118,186Z" fill="rgb(122, 60, 0)" fill-opacity="0.47"/><path d="M60,110L75,94L50,99Z" fill="rgb(201, 141, 0)" fill-opacity="0.50"/><path d="M75,99L85,115L56,116Z" fill="rgb(251, 197, 0)" fill-opacity="0.48"/><path d="M175,148L164,157L189,148Z" fill="rgb(128, 62, 0)" fill-opacity="0.69"/><path d="M126,93L107,75L121,83Z" fill="rgb(239, 158, 0)" fill-opacity="0.54"/><path d="M197,90L188,93L155,68Z" fill="rgb(65, 42, 4)" fill-opacity="0.56"/><path d="M128,113L140,150L126,140Z" fill="rgb(136, 98, 1)" fill-opacity="0.71"/><path d="M241,134L247,128L191,102Z" fill="rgb(43, 27, 11)" fill-opacity="0.61"/><path d="M95,131L96,117L89,138Z" fill="rgb(208, 138, 0)" fill-opacity="0.50"/><path d="M60,162L0,134L63,140Z" fill="rgb(32, 20, 0)" fill-opacity="0.33"/><path d="M157,78L156,88L173,71Z" fill="rgb(78, 57, 11)" fill-opacity="0.50"/><path d="M97,28L77,51L91,58Z" fill="rgb(46, 39, 39)" fill-opacity="0.49"/><path d="M154,76L128,78L181,96Z" fill="rgb(70, 44, 0)" fill-opacity="0.55"/><path d="M198,151L159,112L208,149Z" fill="rgb(156, 86, 0)" fill-opacity="0.53"/><path d="M184,151L183,211L177,151Z" fill="rgb(71, 30, 0)" fill-opacity="0.82"/><path d="M57,93L57,76L39,60Z" fill="rgb(255, 249, 0)" fill-opacity="0.41"/><path d="M179,64L163,64L180,42Z" fill="rgb(59, 33, 10)" fill-opacity="0.51"/><path d="M196,147L195,143L169,187Z" fill="rgb(50, 22, 0)" fill-opacity="0.47"/><path d="M135,161L103,137L137,144Z" fill="rgb(184, 119, 0)" fill-opacity="0.46"/><path d="M203,84L173,28L198,6Z" fill="rgb(31, 24, 23)" fill-opacity="0.57"/><path d="M26,-17L-12,-5L15,30Z" fill="rgb(19, 20, 17)" fill-opacity="0.56"/><path d="M154,90L162,111L158,79Z" fill="rgb(114, 76, 2)" fill-opacity="0.50"/><path d="M60,31L75,39L66,54Z" fill="rgb(48, 37, 4)" fill-opacity="0.51"/><path d="M38,65L43,67L46,48Z" fill="rgb(248, 224, 0)" fill-opacity="0.50"/><path d="M154,118L160,135L186,151Z" fill="rgb(98, 44, 0)" fill-opacity="0.35"/><path d="M127,127L140,134L138,121Z" fill="rgb(101, 86, 3)" fill-opacity="0.50"/><path d="M221,128L239,144L193,139Z" fill="rgb(80, 36, 0)" fill-opacity="0.62"/><path d="M70,151L67,161L88,156Z" fill="rgb(208, 133, 0)" fill-opacity="0.49"/><path d="M58,125L65,102L55,118Z" fill="rgb(218, 149, 0)" fill-opacity="0.61"/><path d="M76,109L57,102L63,98Z" fill="rgb(240, 181, 0)" fill-opacity="0.61"/><path d="M181,96L178,121L185,109Z" fill="rgb(127, 75, 0)" fill-opacity="0.59"/><path d="M190,46L187,72L169,78Z" fill="rgb(24, 16, 18)" fill-opacity="0.42"/><path d="M6,126L14,92L24,139Z" fill="rgb(35, 36, 39)" fill-opacity="0.63"/><path d="M189,76L182,73L179,77Z" fill="rgb(94, 53, 1)" fill-opacity="0.47"/><path d="M253,48L317,14L215,-24Z" fill="rgb(15, 18, 49)" fill-opacity="0.64"/><path d="M171,150L163,137L159,149Z" fill="rgb(171, 95, 0)" fill-opacity="0.61"/><path d="M122,100L90,96L84,61Z" fill="rgb(252, 183, 0)" fill-opacity="0.69"/><path d="M127,143L86,99L127,121Z" fill="rgb(222, 138, 0)" fill-opacity="0.33"/><path d="M245,147L241,139L243,134Z" fill="rgb(64, 67, 0)" fill-opacity="0.47"/><path d="M197,56L97,57L136,30Z" fill="rgb(32, 23, 23)" fill-opacity="0.60"/><path d="M193,155L186,181L231,172Z" fill="rgb(14, 10, 15)" fill-opacity="0.42"/><path d="M57,89L60,92L65,113Z" fill="rgb(218, 162, 0)" fill-opacity="0.47"/><path d="M113,106L104,107L113,110Z" fill="rgb(91, 82, 22)" fill-opacity="0.50"/><path d="M216,-48L183,26L138,31Z" fill="rgb(34, 30, 56)" fill-opacity="0.44"/><path d="M166,117L158,109L155,121Z" fill="rgb(180, 107, 0)" fill-opacity="0.48"/><path d="M176,88L175,86L181,88Z" fill="rgb(213, 159, 0)" fill-opacity="0.51"/><path d="M154,138L139,147L163,153Z" fill="rgb(142, 75, 0)" fill-opacity="0.54"/><path d="M174,113L223,133L206,120Z" fill="rgb(146, 78, 0)" fill-opacity="0.49"/><path d="M132,174L117,171L120,151Z" fill="rgb(138, 69, 0)" fill-opacity="0.36"/><path d="M230,143L229,145L233,144Z" fill="rgb(186, 126, 0)" fill-opacity="0.54"/><path d="M126,87L117,94L149,106Z" fill="rgb(194, 124, 0)" fill-opacity="0.64"/><path d="M90,58L120,67L99,25Z" fill="rgb(43, 27, 5)" fill-opacity="0.42"/><path d="M252,128L266,114L256,128Z" fill="rgb(255, 50, 15)" fill-opacity="0.53"/><path d="M158,105L164,106L176,105Z" fill="rgb(160, 115, 0)" fill-opacity="0.50"/><path d="M59,121L78,135L69,144Z" fill="rgb(215, 147, 0)" fill-opacity="0.48"/><path d="M193,147L180,156L204,163Z" fill="rgb(35, 17, 4)" fill-opacity="0.51"/><path d="M120,106L102,104L129,100Z" fill="rgb(231, 151, 0)" fill-opacity="0.50"/><path d="M47,86L32,67L45,137Z" fill="rgb(66, 51, 0)" fill-opacity="0.42"/><path d="M73,51L85,41L97,58Z" fill="rgb(57, 45, 34)" fill-opacity="0.46"/><path d="M114,115L116,107L110,107Z" fill="rgb(84, 73, 11)" fill-opacity="0.42"/><path d="M1,145L10,90L-33,109Z" fill="rgb(31, 42, 14)" fill-opacity="0.58"/><path d="M243,123L236,165L237,128Z" fill="rgb(30, 25, 27)" fill-opacity="0.62"/><path d="M124,27L140,32L117,-18Z" fill="rgb(26, 31, 73)" fill-opacity="0.51"/><path d="M55,78L59,77L58,92Z" fill="rgb(255, 205, 0)" fill-opacity="0.52"/><path d="M71,163L86,158L74,213Z" fill="rgb(255, 176, 0)" fill-opacity="0.58"/><path d="M33,63L14,60L28,134Z" fill="rgb(55, 54, 43)" fill-opacity="0.37"/><path d="M24,21L41,42L59,28Z" fill="rgb(43, 42, 9)" fill-opacity="0.40"/><path d="M245,144L317,79L247,175Z" fill="rgb(6, 8, 14)" fill-opacity="0.63"/><path d="M36,40L33,46L47,62Z" fill="rgb(252, 255, 91)" fill-opacity="0.33"/><path d="M49,93L47,97L58,99Z" fill="rgb(85, 65, 21)" fill-opacity="0.56"/><path d="M149,100L145,94L155,103Z" fill="rgb(189, 166, 92)" fill-opacity="0.46"/><path d="M198,34L222,24L198,21Z" fill="rgb(33, 29, 55)" fill-opacity="0.52"/><path d="M141,115L139,112L160,113Z" fill="rgb(106, 109, 19)" fill-opacity="0.50"/><path d="M194,120L200,118L202,125Z" fill="rgb(179, 103, 0)" fill-opacity="0.57"/><path d="M41,39L54,68L69,50Z" fill="rgb(60, 55, 25)" fill-opacity="0.47"/><path d="M181,137L181,132L186,141Z" fill="rgb(206, 121, 0)" fill-opacity="0.50"/><path d="M36,65L20,70L30,32Z" fill="rgb(68, 66, 25)" fill-opacity="0.32"/><path d="M166,68L174,67L169,59Z" fill="rgb(113, 76, 0)" fill-opacity="0.50"/><path d="M102,95L85,83L79,60Z" fill="rgb(255, 201, 0)" fill-opacity="0.42"/><path d="M200,58L327,67L203,110Z" fill="rgb(17, 17, 19)" fill-opacity="0.40"/><path d="M119,109L114,109L124,114Z" fill="rgb(199, 135, 5)" fill-opacity="0.42"/><path d="M177,133L160,120L169,145Z" fill="rgb(115, 57, 0)" fill-opacity="0.48"/><path d="M129,131L86,118L89,107Z" fill="rgb(191, 125, 0)" fill-opacity="0.51"/><path d="M99,103L107,103L91,84Z" fill="rgb(255, 197, 0)" fill-opacity="0.54"/><path d="M74,45L69,47L72,54Z" fill="rgb(169, 122, 31)" fill-opacity="0.49"/><path d="M216,88L189,89L189,73Z" fill="rgb(33, 24, 17)" fill-opacity="0.66"/><path d="M40,64L44,77L53,64Z" fill="rgb(255, 199, 0)" fill-opacity="0.47"/><path d="M60,77L53,63L61,72Z" fill="rgb(127, 83, 0)" fill-opacity="0.44"/><path d="M77,78L85,98L80,62Z" fill="rgb(246, 168, 0)" fill-opacity="0.64"/><path d="M175,106L184,102L177,103Z" fill="rgb(239, 219, 1)" fill-opacity="0.39"/><path d="M41,78L40,68L44,79Z" fill="rgb(158, 92, 0)" fill-opacity="0.51"/><path d="M54,120L46,125L47,90Z" fill="rgb(70, 62, 39)" fill-opacity="0.49"/><path d="M229,140L214,141L224,176Z" fill="rgb(40, 17, 2)" fill-opacity="0.42"/><path d="M255,184L222,144L214,152Z" fill="rgb(26, 14, 9)" fill-opacity="0.45"/><path d="M217,149L215,148L208,134Z" fill="rgb(146, 77, 0)" fill-opacity="0.44"/><path d="M140,108L160,110L165,102Z" fill="rgb(120, 79, 13)" fill-opacity="0.32"/><path d="M114,128L119,166L96,117Z" fill="rgb(176, 106, 0)" fill-opacity="0.49"/><path d="M173,86L169,82L177,76Z" fill="rgb(125, 78, 4)" fill-opacity="0.44"/><path d="M179,162L168,147L176,164Z" fill="rgb(122, 58, 0)" fill-opacity="0.50"/><path d="M192,112L200,120L182,114Z" fill="rgb(157, 85, 0)" fill-opacity="0.45"/><path d="M109,86L114,85L101,71Z" fill="rgb(226, 146, 0)" fill-opacity="0.56"/><path d="M165,104L169,105L161,110Z" fill="rgb(152, 117, 11)" fill-opacity="0.47"/></svg>