<svg xmlns="http://www.w3.org/2000/svg" viewBox="0 0 256 192.21993127147766" clip-path="url(#clip)" width="512" height="384.4398625429553"><defs><clipPath id="clip" clipPathUnits="objectBoundingBox"><rect x="0" y="0" width="256" height="192.21993127147766"/></clipPath></defs><rect x="0" y="0" width="256" height="192.21993127147766" fill="rgb(109, 108, 117)"/><path d="M-49,-1L188,62L372,-1Z" fill="rgb(193, 205, 226)" fill-opacity="0.80"/><path d="M-78,177L149,38L305,249Z" fill="rgb(34, 18, 0)" fill-opacity="0.45"/><path d="M141,67L-13,61L-9,33Z" fill="rgb(16, 7, 12)" fill-opacity="0.49"/><path d="M217,28L238,64L184,102Z" fill="rgb(53, 50, 34)" fill-opacity="0.64"/><path d="M68,265L61,141L-89,88Z" fill="rgb(49, 45, 42)" fill-opacity="0.91"/><path d="M236,57L305,44L233,8Z" fill="rgb(217, 216, 212)" fill-opacity="1.00"/><path d="M121,133L174,132L132,121Z" fill="rgb(5, 0, 2)" fill-opacity="0.51"/><path d="M173,81L170,154L247,157Z" fill="rgb(255, 240, 204)" fill-opacity="0.18"/><path d="M220,56L271,58L258,153Z" fill="rgb(62, 52, 42)" fill-opacity="0.52"/><path d="M55,76L62,110L6,82Z" fill="rgb(205, 170, 118)" fill-opacity="0.51"/><path d="M116,69L144,94L61,87Z" fill="rgb(129, 128, 127)" fill-opacity="0.58"/><path d="M79,164L75,129L73,214Z" fill="rgb(223, 177, 144)" fill-opacity="0.37"/><path d="M209,98L265,147L209,137Z" fill="rgb(59, 52, 54)" fill-opacity="0.63"/><path d="M114,117L131,113L105,105Z" fill="rgb(228, 189, 160)" fill-opacity="0.46"/><path d="M69,117L97,165L123,117Z" fill="rgb(8, 0, 4)" fill-opacity="0.53"/><path d="M174,109L242,102L230,130Z" fill="rgb(66, 62, 61)" fill-opacity="0.70"/><path d="M159,75L140,120L174,105Z" fill="rgb(154, 130, 124)" fill-opacity="0.47"/><path d="M157,75L213,106L175,53Z" fill="rgb(39, 45, 31)" fill-opacity="0.49"/><path d="M101,63L70,91L32,66Z" fill="rgb(69, 64, 50)" fill-opacity="0.50"/><path d="M157,-198L105,41L42,27Z" fill="rgb(163, 178, 212)" fill-opacity="0.99"/><path d="M7,100L0,51L20,49Z" fill="rgb(8, 0, 16)" fill-opacity="0.43"/><path d="M223,101L229,95L255,101Z" fill="rgb(179, 196, 238)" fill-opacity="0.55"/><path d="M245,210L295,167L238,160Z" fill="rgb(50, 39, 39)" fill-opacity="0.79"/><path d="M313,171L205,152L225,139Z" fill="rgb(244, 211, 183)" fill-opacity="0.46"/><path d="M6,127L49,122L26,112Z" fill="rgb(133, 127, 139)" fill-opacity="0.59"/><path d="M151,67L164,59L158,81Z" fill="rgb(131, 132, 145)" fill-opacity="0.47"/><path d="M129,49L148,58L99,61Z" fill="rgb(138, 101, 118)" fill-opacity="0.66"/><path d="M209,103L202,97L247,99Z" fill="rgb(176, 202, 253)" fill-opacity="0.43"/><path d="M313,-45L186,62L140,43Z" fill="rgb(224, 222, 221)" fill-opacity="0.44"/><path d="M50,28L-20,0L30,53Z" fill="rgb(103, 106, 110)" fill-opacity="0.84"/><path d="M66,102L72,128L70,67Z" fill="rgb(164, 178, 221)" fill-opacity="0.48"/><path d="M65,106L73,135L4,99Z" fill="rgb(61, 55, 53)" fill-opacity="0.66"/><path d="M274,62L237,69L239,76Z" fill="rgb(223, 182, 127)" fill-opacity="0.49"/><path d="M109,30L117,50L106,43Z" fill="rgb(57, 51, 75)" fill-opacity="0.49"/><path d="M111,80L122,75L120,85Z" fill="rgb(181, 188, 232)" fill-opacity="0.50"/><path d="M128,157L70,192L158,182Z" fill="rgb(124, 110, 94)" fill-opacity="0.41"/><path d="M127,158L91,133L124,113Z" fill="rgb(34, 22, 20)" fill-opacity="0.50"/><path d="M251,73L247,117L260,151Z" fill="rgb(39, 29, 31)" fill-opacity="0.57"/><path d="M75,66L68,54L67,81Z" fill="rgb(129, 133, 159)" fill-opacity="0.57"/><path d="M119,78L124,85L108,108Z" fill="rgb(164, 161, 176)" fill-opacity="0.48"/><path d="M233,90L265,92L231,96Z" fill="rgb(134, 143, 166)" fill-opacity="0.66"/><path d="M32,80L11,109L15,77Z" fill="rgb(198, 165, 117)" fill-opacity="0.54"/><path d="M175,65L153,85L229,74Z" fill="rgb(46, 55, 38)" fill-opacity="0.59"/><path d="M159,111L152,151L176,119Z" fill="rgb(17, 14, 22)" fill-opacity="0.49"/><path d="M40,69L38,63L20,66Z" fill="rgb(186, 180, 196)" fill-opacity="0.58"/><path d="M78,95L80,156L86,90Z" fill="rgb(26, 16, 17)" fill-opacity="0.79"/><path d="M217,95L221,64L234,79Z" fill="rgb(167, 132, 139)" fill-opacity="0.45"/><path d="M109,63L-56,35L64,34Z" fill="rgb(85, 80, 82)" fill-opacity="0.67"/><path d="M232,181L240,181L219,212Z" fill="rgb(156, 127, 119)" fill-opacity="0.55"/><path d="M-5,57L3,153L10,109Z" fill="rgb(57, 38, 0)" fill-opacity="0.35"/><path d="M153,65L110,69L151,101Z" fill="rgb(0, 30, 0)" fill-opacity="0.32"/><path d="M231,179L229,194L246,169Z" fill="rgb(145, 124, 122)" fill-opacity="0.57"/><path d="M120,91L121,111L126,100Z" fill="rgb(21, 3, 2)" fill-opacity="0.49"/><path d="M78,37L136,58L76,46Z" fill="rgb(162, 125, 140)" fill-opacity="0.62"/><path d="M229,29L238,58L226,57Z" fill="rgb(179, 161, 113)" fill-opacity="0.47"/><path d="M235,179L203,138L157,193Z" fill="rgb(43, 40, 47)" fill-opacity="0.46"/><path d="M135,119L228,96L137,100Z" fill="rgb(192, 141, 94)" fill-opacity="0.25"/><path d="M184,27L191,63L215,39Z" fill="rgb(223, 220, 210)" fill-opacity="0.61"/><path d="M221,28L215,101L215,34Z" fill="rgb(50, 48, 34)" fill-opacity="0.46"/><path d="M80,57L94,76L76,79Z" fill="rgb(26, 40, 13)" fill-opacity="0.49"/><path d="M105,87L81,74L110,103Z" fill="rgb(24, 36, 28)" fill-opacity="0.47"/><path d="M79,75L75,91L75,180Z" fill="rgb(192, 188, 203)" fill-opacity="0.40"/><path d="M75,152L36,126L58,171Z" fill="rgb(31, 34, 33)" fill-opacity="0.61"/><path d="M238,136L242,96L247,112Z" fill="rgb(156, 159, 179)" fill-opacity="0.45"/><path d="M-9,100L43,108L34,90Z" fill="rgb(146, 124, 69)" fill-opacity="0.46"/><path d="M223,113L160,140L213,138Z" fill="rgb(119, 110, 111)" fill-opacity="0.48"/><path d="M62,67L30,75L44,78Z" fill="rgb(42, 38, 13)" fill-opacity="0.45"/><path d="M108,131L91,113L83,137Z" fill="rgb(6, 3, 10)" fill-opacity="0.58"/><path d="M61,220L71,167L-7,186Z" fill="rgb(86, 74, 61)" fill-opacity="0.45"/><path d="M264,53L262,65L218,65Z" fill="rgb(4, 3, 20)" fill-opacity="0.47"/><path d="M45,121L54,125L46,127Z" fill="rgb(172, 170, 187)" fill-opacity="0.59"/><path d="M123,104L133,68L138,101Z" fill="rgb(153, 141, 109)" fill-opacity="0.33"/><path d="M37,77L31,67L6,74Z" fill="rgb(60, 60, 32)" fill-opacity="0.57"/><path d="M146,50L169,65L153,34Z" fill="rgb(145, 138, 104)" fill-opacity="0.45"/><path d="M4,66L12,49L-35,40Z" fill="rgb(21, 12, 21)" fill-opacity="0.57"/><path d="M50,104L48,123L41,102Z" fill="rgb(7, 0, 2)" fill-opacity="0.46"/><path d="M150,46L155,58L118,50Z" fill="rgb(59, 67, 86)" fill-opacity="0.54"/><path d="M65,132L63,97L62,136Z" fill="rgb(156, 161, 190)" fill-opacity="0.53"/><path d="M67,66L-22,52L48,51Z" fill="rgb(24, 16, 21)" fill-opacity="0.47"/><path d="M104,88L114,101L114,80Z" fill="rgb(159, 137, 124)" fill-opacity="0.39"/><path d="M53,-70L-3,6L73,37Z" fill="rgb(160, 179, 219)" fill-opacity="0.79"/><path d="M80,87L98,66L99,84Z" fill="rgb(128, 129, 131)" fill-opacity="0.45"/><path d="M77,148L87,166L99,125Z" fill="rgb(24, 16, 11)" fill-opacity="0.44"/><path d="M106,63L73,52L113,78Z" fill="rgb(20, 18, 24)" fill-opacity="0.37"/><path d="M14,63L11,75L32,63Z" fill="rgb(159, 112, 92)" fill-opacity="0.47"/><path d="M190,148L236,123L209,150Z" fill="rgb(57, 59, 56)" fill-opacity="0.58"/><path d="M224,184L141,215L184,178Z" fill="rgb(80, 68, 81)" fill-opacity="0.71"/><path d="M121,26L-39,-29L185,0Z" fill="rgb(156, 172, 209)" fill-opacity="0.78"/><path d="M180,75L155,61L183,56Z" fill="rgb(82, 75, 29)" fill-opacity="0.34"/><path d="M57,76L61,59L61,117Z" fill="rgb(39, 36, 44)" fill-opacity="0.79"/><path d="M192,95L167,100L208,110Z" fill="rgb(151, 124, 86)" fill-opacity="0.68"/><path d="M243,57L317,-22L235,57Z" fill="rgb(245, 235, 209)" fill-opacity="0.63"/><path d="M63,132L67,114L73,140Z" fill="rgb(40, 26, 29)" fill-opacity="0.53"/><path d="M71,95L73,36L76,100Z" fill="rgb(35, 44, 54)" fill-opacity="0.65"/><path d="M75,149L75,141L57,146Z" fill="rgb(31, 29, 27)" fill-opacity="0.52"/><path d="M139,122L175,107L160,146Z" fill="rgb(35, 19, 23)" fill-opacity="0.35"/><path d="M27,112L34,97L2,106Z" fill="rgb(86, 78, 51)" fill-opacity="0.49"/><path d="M205,89L233,86L234,99Z" fill="rgb(104, 73, 69)" fill-opacity="0.45"/><path d="M202,73L204,59L165,55Z" fill="rgb(156, 133, 88)" fill-opacity="0.33"/><path d="M155,102L162,107L168,95Z" fill="rgb(54, 40, 54)" fill-opacity="0.52"/><path d="M176,93L177,85L188,88Z" fill="rgb(169, 159, 150)" fill-opacity="0.47"/><path d="M232,137L225,141L224,100Z" fill="rgb(51, 42, 46)" fill-opacity="0.49"/><path d="M185,35L166,55L197,62Z" fill="rgb(229, 221, 201)" fill-opacity="0.46"/><path d="M214,153L247,161L210,202Z" fill="rgb(62, 47, 45)" fill-opacity="0.63"/><path d="M139,140L175,166L225,162Z" fill="rgb(100, 99, 90)" fill-opacity="0.42"/><path d="M62,68L63,116L66,89Z" fill="rgb(195, 167, 167)" fill-opacity="0.49"/><path d="M116,134L112,126L108,146Z" fill="rgb(97, 59, 57)" fill-opacity="0.69"/><path d="M215,11L233,42L274,7Z" fill="rgb(203, 208, 220)" fill-opacity="0.70"/><path d="M85,166L145,199L41,243Z" fill="rgb(117, 104, 89)" fill-opacity="0.34"/><path d="M24,76L58,86L8,87Z" fill="rgb(198, 168, 133)" fill-opacity="0.44"/><path d="M209,101L243,105L216,123Z" fill="rgb(38, 41, 62)" fill-opacity="0.40"/><path d="M243,65L243,68L227,76Z" fill="rgb(172, 153, 130)" fill-opacity="0.50"/><path d="M211,152L300,138L255,162Z" fill="rgb(180, 161, 148)" fill-opacity="0.75"/><path d="M56,72L35,62L58,61Z" fill="rgb(138, 136, 111)" fill-opacity="0.50"/><path d="M110,114L104,105L119,98Z" fill="rgb(130, 102, 87)" fill-opacity="0.56"/><path d="M217,94L174,92L191,97Z" fill="rgb(46, 48, 70)" fill-opacity="0.57"/><path d="M34,116L16,129L14,114Z" fill="rgb(130, 130, 144)" fill-opacity="0.60"/><path d="M254,72L240,77L226,63Z" fill="rgb(158, 133, 106)" fill-opacity="0.56"/><path d="M71,94L73,114L76,102Z" fill="rgb(5, 28, 47)" fill-opacity="0.48"/><path d="M76,90L90,82L75,78Z" fill="rgb(166, 152, 140)" fill-opacity="0.59"/><path d="M201,162L177,173L226,181Z" fill="rgb(9, 4, 20)" fill-opacity="0.36"/><path d="M202,99L226,96L228,101Z" fill="rgb(156, 180, 230)" fill-opacity="0.50"/><path d="M96,139L76,168L116,158Z" fill="rgb(62, 53, 47)" fill-opacity="0.66"/><path d="M202,59L231,56L211,78Z" fill="rgb(36, 42, 48)" fill-opacity="0.52"/><path d="M104,97L96,99L106,82Z" fill="rgb(18, 10, 7)" fill-opacity="0.53"/><path d="M42,62L38,74L27,64Z" fill="rgb(185, 205, 237)" fill-opacity="0.33"/><path d="M122,44L157,61L85,40Z" fill="rgb(72, 73, 134)" fill-opacity="0.50"/><path d="M126,66L161,65L147,51Z" fill="rgb(38, 43, 84)" fill-opacity="0.47"/><path d="M5,85L-4,68L-1,60Z" fill="rgb(164, 189, 253)" fill-opacity="0.31"/><path d="M164,100L160,71L150,91Z" fill="rgb(98, 111, 136)" fill-opacity="0.49"/><path d="M220,27L193,55L204,59Z" fill="rgb(216, 206, 185)" fill-opacity="0.46"/><path d="M109,61L145,57L79,48Z" fill="rgb(151, 97, 88)" fill-opacity="0.52"/><path d="M226,75L218,78L227,82Z" fill="rgb(163, 160, 178)" fill-opacity="0.54"/><path d="M207,98L202,121L209,111Z" fill="rgb(152, 132, 104)" fill-opacity="0.53"/><path d="M192,80L193,59L225,87Z" fill="rgb(50, 67, 69)" fill-opacity="0.37"/><path d="M227,88L264,76L252,91Z" fill="rgb(39, 48, 41)" fill-opacity="0.54"/><path d="M75,175L77,179L76,154Z" fill="rgb(255, 180, 93)" fill-opacity="0.49"/><path d="M166,154L158,164L162,122Z" fill="rgb(91, 84, 82)" fill-opacity="0.54"/><path d="M71,72L69,46L67,71Z" fill="rgb(142, 147, 169)" fill-opacity="0.49"/><path d="M132,102L133,125L125,121Z" fill="rgb(120, 98, 91)" fill-opacity="0.46"/><path d="M241,91L238,93L227,91Z" fill="rgb(175, 182, 208)" fill-opacity="0.50"/><path d="M160,124L148,150L129,155Z" fill="rgb(48, 21, 12)" fill-opacity="0.38"/><path d="M95,66L95,106L94,87Z" fill="rgb(137, 148, 191)" fill-opacity="0.66"/><path d="M235,37L230,60L237,47Z" fill="rgb(160, 152, 138)" fill-opacity="0.80"/><path d="M217,39L206,59L229,46Z" fill="rgb(91, 86, 50)" fill-opacity="0.71"/><path d="M160,76L166,64L168,86Z" fill="rgb(0, 6, 30)" fill-opacity="0.48"/><path d="M109,108L107,106L114,103Z" fill="rgb(183, 179, 142)" fill-opacity="0.51"/><path d="M13,63L16,63L13,80Z" fill="rgb(148, 154, 176)" fill-opacity="0.45"/><path d="M11,73L20,77L29,62Z" fill="rgb(59, 45, 18)" fill-opacity="0.30"/><path d="M-8,113L-30,132L19,130Z" fill="rgb(25, 16, 29)" fill-opacity="0.50"/><path d="M204,86L202,91L209,89Z" fill="rgb(122, 141, 209)" fill-opacity="0.47"/><path d="M224,38L213,30L218,22Z" fill="rgb(122, 116, 112)" fill-opacity="0.35"/><path d="M256,119L246,110L258,143Z" fill="rgb(17, 1, 12)" fill-opacity="0.49"/><path d="M220,59L232,49L212,49Z" fill="rgb(96, 89, 50)" fill-opacity="0.52"/><path d="M55,79L45,58L55,68Z" fill="rgb(67, 70, 33)" fill-opacity="0.55"/><path d="M66,55L69,67L69,61Z" fill="rgb(141, 149, 175)" fill-opacity="0.50"/><path d="M91,88L94,88L82,59Z" fill="rgb(43, 51, 36)" fill-opacity="0.61"/><path d="M43,100L37,84L33,109Z" fill="rgb(163, 143, 110)" fill-opacity="0.56"/><path d="M239,181L227,213L292,196Z" fill="rgb(34, 20, 23)" fill-opacity="0.60"/><path d="M240,102L240,113L230,114Z" fill="rgb(57, 41, 29)" fill-opacity="0.53"/><path d="M240,95L249,102L228,101Z" fill="rgb(185, 204, 250)" fill-opacity="0.26"/><path d="M73,149L25,180L-24,158Z" fill="rgb(17, 14, 17)" fill-opacity="0.23"/><path d="M141,52L135,45L153,50Z" fill="rgb(74, 70, 22)" fill-opacity="0.54"/><path d="M222,96L206,96L210,102Z" fill="rgb(135, 157, 204)" fill-opacity="0.59"/><path d="M184,110L172,92L167,96Z" fill="rgb(135, 106, 72)" fill-opacity="0.78"/><path d="M75,56L75,32L56,56Z" fill="rgb(68, 74, 76)" fill-opacity="0.62"/><path d="M37,51L34,63L-39,53Z" fill="rgb(25, 13, 21)" fill-opacity="0.36"/><path d="M116,76L138,78L129,82Z" fill="rgb(101, 104, 124)" fill-opacity="0.50"/><path d="M136,121L152,131L130,131Z" fill="rgb(12, 3, 6)" fill-opacity="0.60"/><path d="M212,98L217,89L204,80Z" fill="rgb(74, 66, 68)" fill-opacity="0.52"/><path d="M7,93L13,93L9,61Z" fill="rgb(50, 44, 38)" fill-opacity="0.44"/><path d="M152,71L165,61L153,76Z" fill="rgb(148, 134, 125)" fill-opacity="0.43"/><path d="M172,57L154,54L154,26Z" fill="rgb(196, 195, 192)" fill-opacity="0.47"/><path d="M75,44L75,72L78,78Z" fill="rgb(138, 145, 157)" fill-opacity="0.46"/><path d="M172,134L169,107L157,124Z" fill="rgb(10, 17, 38)" fill-opacity="0.47"/><path d="M53,138L58,129L46,131Z" fill="rgb(112, 89, 94)" fill-opacity="0.54"/><path d="M192,77L196,81L194,61Z" fill="rgb(37, 49, 23)" fill-opacity="0.64"/><path d="M156,114L169,105L147,108Z" fill="rgb(165, 137, 145)" fill-opacity="0.44"/><path d="M180,172L140,252L158,188Z" fill="rgb(32, 21, 35)" fill-opacity="0.45"/><path d="M197,109L197,113L177,109Z" fill="rgb(25, 31, 29)" fill-opacity="0.53"/><path d="M141,110L133,112L117,104Z" fill="rgb(44, 33, 26)" fill-opacity="0.55"/><path d="M81,116L96,119L85,101Z" fill="rgb(51, 29, 31)" fill-opacity="0.55"/><path d="M206,150L191,163L229,174Z" fill="rgb(71, 72, 67)" fill-opacity="0.65"/><path d="M180,84L194,74L189,56Z" fill="rgb(78, 77, 49)" fill-opacity="0.48"/><path d="M119,59L127,51L146,56Z" fill="rgb(142, 124, 147)" fill-opacity="0.41"/><path d="M113,79L118,71L122,91Z" fill="rgb(170, 170, 200)" fill-opacity="0.50"/><path d="M241,166L233,179L249,174Z" fill="rgb(108, 99, 105)" fill-opacity="0.49"/><path d="M238,77L235,84L231,70Z" fill="rgb(5, 9, 20)" fill-opacity="0.46"/><path d="M117,116L122,121L114,147Z" fill="rgb(13, 11, 12)" fill-opacity="0.58"/><path d="M135,57L155,100L142,98Z" fill="rgb(23, 36, 25)" fill-opacity="0.49"/><path d="M218,82L194,83L213,74Z" fill="rgb(60, 75, 105)" fill-opacity="0.56"/><path d="M168,93L164,86L164,96Z" fill="rgb(44, 66, 60)" fill-opacity="0.54"/><path d="M36,113L47,107L52,124Z" fill="rgb(21, 14, 17)" fill-opacity="0.49"/><path d="M128,97L133,107L125,102Z" fill="rgb(189, 141, 122)" fill-opacity="0.49"/><path d="M3,103L11,93L-1,135Z" fill="rgb(45, 32, 39)" fill-opacity="0.31"/><path d="M238,98L224,94L249,94Z" fill="rgb(78, 71, 80)" fill-opacity="0.47"/><path d="M18,114L20,122L37,107Z" fill="rgb(73, 75, 73)" fill-opacity="0.48"/><path d="M160,66L158,70L160,83Z" fill="rgb(152, 160, 200)" fill-opacity="0.51"/><path d="M139,122L156,132L146,104Z" fill="rgb(85, 47, 51)" fill-opacity="0.41"/><path d="M90,103L106,114L85,109Z" fill="rgb(142, 100, 114)" fill-opacity="0.35"/></svg>