<svg xmlns="http://www.w3.org/2000/svg" viewBox="0 0 256 169.55844155844156" clip-path="url(#clip)" width="512" height="339.1168831168831"><defs><clipPath id="clip" clipPathUnits="objectBoundingBox"><rect x="0" y="0" width="256" height="169.55844155844156"/></clipPath></defs><rect x="0" y="0" width="256" height="169.55844155844156" fill="rgb(60, 60, 60)"/><path d="M204,-8L196,66L126,24Z" fill="rgb(184, 182, 180)" fill-opacity="0.96"/><path d="M29,167L9,63L148,19Z" fill="rgb(151, 151, 131)" fill-opacity="0.72"/><path d="M210,49L248,43L211,-59Z" fill="rgb(217, 220, 224)" fill-opacity="0.57"/><path d="M133,70L58,51L131,19Z" fill="rgb(192, 190, 191)" fill-opacity="0.75"/><path d="M33,77L131,92L121,170Z" fill="rgb(101, 103, 93)" fill-opacity="0.94"/><path d="M195,43L156,62L149,34Z" fill="rgb(240, 239, 236)" fill-opacity="0.54"/><path d="M37,61L62,87L20,67Z" fill="rgb(255, 255, 237)" fill-opacity="0.61"/><path d="M122,77L53,99L81,50Z" fill="rgb(57, 52, 16)" fill-opacity="0.56"/><path d="M129,148L47,157L117,163Z" fill="rgb(183, 191, 191)" fill-opacity="0.48"/><path d="M9,106L17,129L11,150Z" fill="rgb(235, 213, 184)" fill-opacity="0.46"/><path d="M48,143L17,150L25,134Z" fill="rgb(246, 251, 254)" fill-opacity="0.59"/><path d="M170,57L134,106L224,48Z" fill="rgb(71, 43, 35)" fill-opacity="0.86"/><path d="M37,112L86,129L45,135Z" fill="rgb(18, 27, 31)" fill-opacity="0.73"/><path d="M251,40L280,46L217,-79Z" fill="rgb(197, 199, 202)" fill-opacity="0.68"/><path d="M181,-3L200,41L210,2Z" fill="rgb(186, 185, 184)" fill-opacity="0.82"/><path d="M102,157L171,159L126,163Z" fill="rgb(231, 221, 205)" fill-opacity="0.45"/><path d="M17,112L26,78L19,50Z" fill="rgb(14, 19, 33)" fill-opacity="0.64"/><path d="M232,5L237,11L208,0Z" fill="rgb(13, 8, 0)" fill-opacity="0.54"/><path d="M39,159L45,142L33,139Z" fill="rgb(249, 252, 255)" fill-opacity="0.48"/><path d="M136,70L136,57L73,45Z" fill="rgb(227, 229, 228)" fill-opacity="0.49"/><path d="M132,73L30,58L13,47Z" fill="rgb(36, 35, 36)" fill-opacity="0.89"/><path d="M192,39L212,47L147,30Z" fill="rgb(40, 27, 16)" fill-opacity="0.57"/><path d="M12,150L46,117L18,105Z" fill="rgb(63, 63, 66)" fill-opacity="0.53"/><path d="M111,92L85,49L72,50Z" fill="rgb(62, 27, 29)" fill-opacity="0.56"/><path d="M256,80L217,90L277,87Z" fill="rgb(8, 5, 7)" fill-opacity="0.52"/><path d="M45,54L60,47L72,58Z" fill="rgb(242, 244, 252)" fill-opacity="0.54"/><path d="M-170,212L157,164L39,158Z" fill="rgb(24, 20, 17)" fill-opacity="0.84"/><path d="M50,73L66,69L13,70Z" fill="rgb(254, 255, 251)" fill-opacity="0.51"/><path d="M211,46L249,60L203,69Z" fill="rgb(150, 133, 127)" fill-opacity="0.50"/><path d="M273,187L170,150L253,114Z" fill="rgb(23, 27, 33)" fill-opacity="0.68"/><path d="M182,63L182,105L223,121Z" fill="rgb(176, 174, 183)" fill-opacity="0.20"/><path d="M144,155L200,138L137,33Z" fill="rgb(55, 39, 35)" fill-opacity="0.98"/><path d="M246,14L232,8L268,13Z" fill="rgb(19, 12, 0)" fill-opacity="0.47"/><path d="M150,30L187,-6L230,10Z" fill="rgb(199, 199, 198)" fill-opacity="0.55"/><path d="M120,49L177,2L100,34Z" fill="rgb(194, 196, 196)" fill-opacity="0.59"/><path d="M270,60L209,81L194,71Z" fill="rgb(31, 10, 0)" fill-opacity="0.66"/><path d="M48,78L79,72L82,129Z" fill="rgb(112, 121, 2)" fill-opacity="0.45"/><path d="M175,160L170,129L152,161Z" fill="rgb(170, 156, 156)" fill-opacity="0.38"/><path d="M117,137L122,150L195,123Z" fill="rgb(15, 4, 0)" fill-opacity="0.44"/><path d="M219,18L212,32L205,15Z" fill="rgb(66, 24, 15)" fill-opacity="0.59"/><path d="M71,71L70,88L55,64Z" fill="rgb(141, 165, 67)" fill-opacity="0.50"/><path d="M232,58L256,58L243,51Z" fill="rgb(177, 182, 196)" fill-opacity="0.35"/><path d="M229,8L210,40L243,25Z" fill="rgb(213, 214, 213)" fill-opacity="0.49"/><path d="M110,26L113,20L150,30Z" fill="rgb(4, 0, 0)" fill-opacity="0.43"/><path d="M66,47L86,62L49,51Z" fill="rgb(207, 209, 210)" fill-opacity="0.51"/><path d="M14,119L9,96L15,86Z" fill="rgb(183, 173, 146)" fill-opacity="0.54"/><path d="M241,8L259,14L225,-72Z" fill="rgb(189, 189, 190)" fill-opacity="0.55"/><path d="M90,157L97,128L90,95Z" fill="rgb(19, 30, 46)" fill-opacity="0.57"/><path d="M151,36L147,73L130,53Z" fill="rgb(44, 22, 18)" fill-opacity="0.71"/><path d="M91,161L57,158L88,129Z" fill="rgb(128, 165, 189)" fill-opacity="0.32"/><path d="M131,107L97,152L96,82Z" fill="rgb(110, 118, 140)" fill-opacity="0.59"/><path d="M179,124L192,190L195,124Z" fill="rgb(0, 4, 3)" fill-opacity="0.49"/><path d="M138,30L138,27L182,37Z" fill="rgb(55, 52, 45)" fill-opacity="0.57"/><path d="M82,68L90,76L86,120Z" fill="rgb(125, 132, 156)" fill-opacity="0.58"/><path d="M43,133L43,117L33,138Z" fill="rgb(255, 225, 231)" fill-opacity="0.50"/><path d="M57,153L85,123L42,141Z" fill="rgb(21, 43, 63)" fill-opacity="0.51"/><path d="M100,152L114,139L116,158Z" fill="rgb(56, 56, 61)" fill-opacity="0.68"/><path d="M148,42L150,31L129,37Z" fill="rgb(42, 29, 26)" fill-opacity="0.47"/><path d="M107,50L73,43L126,51Z" fill="rgb(41, 38, 32)" fill-opacity="0.56"/><path d="M130,71L109,78L104,74Z" fill="rgb(131, 111, 114)" fill-opacity="0.61"/><path d="M256,73L245,35L274,64Z" fill="rgb(12, 19, 22)" fill-opacity="0.66"/><path d="M76,43L46,49L107,26Z" fill="rgb(0, 0, 0)" fill-opacity="0.59"/><path d="M23,71L27,57L51,80Z" fill="rgb(253, 255, 254)" fill-opacity="0.58"/><path d="M181,75L181,102L198,74Z" fill="rgb(113, 111, 110)" fill-opacity="0.64"/><path d="M15,80L23,44L23,130Z" fill="rgb(39, 41, 49)" fill-opacity="0.59"/><path d="M191,29L220,27L208,32Z" fill="rgb(57, 36, 30)" fill-opacity="0.49"/><path d="M211,56L205,29L187,73Z" fill="rgb(54, 22, 13)" fill-opacity="0.52"/><path d="M144,29L161,57L179,55Z" fill="rgb(200, 200, 198)" fill-opacity="0.55"/><path d="M15,59L12,68L19,66Z" fill="rgb(225, 235, 255)" fill-opacity="0.52"/><path d="M70,73L58,68L61,60Z" fill="rgb(82, 96, 3)" fill-opacity="0.56"/><path d="M125,26L130,42L115,26Z" fill="rgb(218, 218, 215)" fill-opacity="0.60"/><path d="M39,142L49,157L32,157Z" fill="rgb(227, 233, 235)" fill-opacity="0.32"/><path d="M171,62L144,54L180,126Z" fill="rgb(81, 52, 43)" fill-opacity="0.66"/><path d="M172,79L169,62L196,68Z" fill="rgb(39, 17, 8)" fill-opacity="0.52"/><path d="M76,41L142,10L143,16Z" fill="rgb(5, 4, 3)" fill-opacity="0.56"/><path d="M237,162L228,146L237,147Z" fill="rgb(112, 124, 158)" fill-opacity="0.45"/><path d="M49,133L4,139L75,135Z" fill="rgb(181, 162, 169)" fill-opacity="0.50"/><path d="M157,156L142,153L153,124Z" fill="rgb(0, 0, 2)" fill-opacity="0.59"/><path d="M47,111L61,139L61,113Z" fill="rgb(12, 24, 39)" fill-opacity="0.58"/><path d="M60,148L67,135L84,152Z" fill="rgb(0, 14, 45)" fill-opacity="0.46"/><path d="M94,62L127,66L90,51Z" fill="rgb(213, 214, 215)" fill-opacity="0.55"/><path d="M155,161L164,162L158,142Z" fill="rgb(167, 162, 154)" fill-opacity="0.43"/><path d="M236,140L244,140L241,196Z" fill="rgb(6, 1, 2)" fill-opacity="0.60"/><path d="M40,121L33,133L44,132Z" fill="rgb(238, 227, 226)" fill-opacity="0.49"/><path d="M77,112L51,75L19,109Z" fill="rgb(161, 141, 78)" fill-opacity="0.46"/><path d="M133,57L138,33L130,40Z" fill="rgb(37, 23, 18)" fill-opacity="0.60"/><path d="M144,16L136,15L187,-6Z" fill="rgb(0, 0, 0)" fill-opacity="0.57"/><path d="M248,26L237,12L251,53Z" fill="rgb(1, 1, 6)" fill-opacity="0.52"/><path d="M-34,207L44,157L-12,156Z" fill="rgb(45, 40, 34)" fill-opacity="0.92"/><path d="M132,116L136,102L145,140Z" fill="rgb(118, 114, 89)" fill-opacity="0.60"/><path d="M50,85L49,108L83,73Z" fill="rgb(80, 94, 26)" fill-opacity="0.49"/><path d="M81,60L76,69L119,67Z" fill="rgb(24, 23, 32)" fill-opacity="0.50"/><path d="M114,49L87,37L106,31Z" fill="rgb(197, 199, 200)" fill-opacity="0.52"/><path d="M7,146L58,134L7,140Z" fill="rgb(250, 237, 238)" fill-opacity="0.35"/><path d="M131,37L121,26L139,31Z" fill="rgb(214, 214, 212)" fill-opacity="0.72"/><path d="M22,101L44,101L24,70Z" fill="rgb(143, 147, 156)" fill-opacity="0.53"/><path d="M166,80L107,91L125,66Z" fill="rgb(82, 38, 24)" fill-opacity="0.48"/><path d="M53,112L40,115L41,129Z" fill="rgb(67, 67, 80)" fill-opacity="0.49"/><path d="M181,137L213,161L184,159Z" fill="rgb(15, 23, 4)" fill-opacity="0.52"/><path d="M74,157L49,154L58,158Z" fill="rgb(225, 208, 191)" fill-opacity="0.41"/><path d="M135,163L127,146L144,163Z" fill="rgb(166, 151, 131)" fill-opacity="0.43"/><path d="M17,139L33,158L5,147Z" fill="rgb(95, 94, 87)" fill-opacity="0.67"/><path d="M236,78L255,75L243,71Z" fill="rgb(95, 96, 108)" fill-opacity="0.54"/><path d="M24,146L38,141L25,133Z" fill="rgb(253, 255, 255)" fill-opacity="0.48"/><path d="M38,124L30,138L34,110Z" fill="rgb(42, 46, 46)" fill-opacity="0.45"/><path d="M75,68L64,83L73,64Z" fill="rgb(167, 186, 101)" fill-opacity="0.54"/><path d="M217,4L201,0L207,-20Z" fill="rgb(27, 19, 12)" fill-opacity="0.54"/><path d="M197,175L234,159L182,162Z" fill="rgb(65, 68, 72)" fill-opacity="0.70"/><path d="M121,151L118,159L131,156Z" fill="rgb(58, 32, 12)" fill-opacity="0.46"/><path d="M186,81L198,148L225,140Z" fill="rgb(80, 84, 92)" fill-opacity="0.50"/><path d="M63,114L30,111L41,125Z" fill="rgb(65, 66, 76)" fill-opacity="0.64"/><path d="M207,9L204,22L221,33Z" fill="rgb(86, 51, 45)" fill-opacity="0.46"/><path d="M43,153L59,150L77,153Z" fill="rgb(175, 155, 123)" fill-opacity="0.54"/><path d="M63,122L62,105L74,110Z" fill="rgb(162, 159, 158)" fill-opacity="0.58"/><path d="M36,133L25,103L25,135Z" fill="rgb(72, 71, 58)" fill-opacity="0.52"/><path d="M47,112L23,98L25,110Z" fill="rgb(181, 156, 114)" fill-opacity="0.65"/><path d="M137,147L148,163L139,130Z" fill="rgb(136, 69, 20)" fill-opacity="0.46"/><path d="M124,67L88,84L95,64Z" fill="rgb(46, 34, 43)" fill-opacity="0.48"/><path d="M176,161L217,147L229,157Z" fill="rgb(13, 21, 10)" fill-opacity="0.61"/><path d="M6,59L-7,77L21,76Z" fill="rgb(82, 98, 109)" fill-opacity="0.55"/><path d="M177,143L181,123L181,173Z" fill="rgb(73, 94, 117)" fill-opacity="0.47"/><path d="M15,52L-47,61L26,59Z" fill="rgb(12, 12, 11)" fill-opacity="0.54"/><path d="M47,79L23,60L54,70Z" fill="rgb(237, 243, 221)" fill-opacity="0.57"/><path d="M90,90L95,142L95,60Z" fill="rgb(51, 52, 54)" fill-opacity="0.77"/><path d="M67,57L83,46L62,46Z" fill="rgb(204, 203, 200)" fill-opacity="0.57"/><path d="M195,-4L139,16L256,-49Z" fill="rgb(16, 15, 15)" fill-opacity="0.72"/><path d="M247,139L260,129L257,151Z" fill="rgb(68, 83, 104)" fill-opacity="0.48"/><path d="M252,40L292,28L244,13Z" fill="rgb(177, 181, 187)" fill-opacity="0.64"/><path d="M226,150L258,129L235,127Z" fill="rgb(15, 0, 5)" fill-opacity="0.37"/><path d="M132,79L125,69L142,68Z" fill="rgb(104, 75, 66)" fill-opacity="0.60"/><path d="M42,144L51,135L54,152Z" fill="rgb(26, 53, 73)" fill-opacity="0.50"/><path d="M76,156L92,153L73,153Z" fill="rgb(42, 209, 255)" fill-opacity="0.46"/><path d="M20,91L11,81L18,80Z" fill="rgb(29, 30, 37)" fill-opacity="0.53"/><path d="M171,150L177,168L145,122Z" fill="rgb(60, 39, 40)" fill-opacity="0.52"/><path d="M48,134L83,133L40,120Z" fill="rgb(11, 16, 11)" fill-opacity="0.54"/><path d="M226,39L238,8L210,40Z" fill="rgb(190, 194, 196)" fill-opacity="0.48"/><path d="M113,158L120,145L120,151Z" fill="rgb(252, 243, 239)" fill-opacity="0.45"/><path d="M45,133L43,139L32,134Z" fill="rgb(180, 50, 51)" fill-opacity="0.47"/><path d="M82,76L63,93L78,98Z" fill="rgb(46, 62, 5)" fill-opacity="0.50"/><path d="M133,57L140,72L118,52Z" fill="rgb(190, 192, 192)" fill-opacity="0.54"/><path d="M224,53L229,61L207,57Z" fill="rgb(135, 131, 134)" fill-opacity="0.54"/><path d="M128,88L139,74L131,135Z" fill="rgb(47, 30, 30)" fill-opacity="0.47"/><path d="M168,55L153,61L188,58Z" fill="rgb(120, 79, 67)" fill-opacity="0.47"/><path d="M13,83L7,146L6,111Z" fill="rgb(83, 85, 84)" fill-opacity="0.71"/><path d="M200,122L158,66L148,102Z" fill="rgb(84, 56, 48)" fill-opacity="0.54"/><path d="M174,156L146,155L128,164Z" fill="rgb(208, 190, 179)" fill-opacity="0.26"/><path d="M147,151L119,147L123,138Z" fill="rgb(36, 25, 10)" fill-opacity="0.54"/><path d="M209,53L211,42L235,55Z" fill="rgb(72, 75, 82)" fill-opacity="0.51"/><path d="M167,34L133,20L207,25Z" fill="rgb(211, 212, 210)" fill-opacity="0.45"/><path d="M250,14L250,11L287,29Z" fill="rgb(35, 24, 11)" fill-opacity="0.58"/><path d="M231,151L225,76L223,126Z" fill="rgb(29, 26, 31)" fill-opacity="0.65"/><path d="M238,156L266,172L199,180Z" fill="rgb(5, 8, 15)" fill-opacity="0.60"/><path d="M135,72L157,70L150,50Z" fill="rgb(38, 12, 4)" fill-opacity="0.43"/><path d="M137,29L87,37L130,42Z" fill="rgb(203, 203, 202)" fill-opacity="0.58"/><path d="M254,56L242,71L261,69Z" fill="rgb(23, 13, 3)" fill-opacity="0.63"/><path d="M136,13L122,-172L73,37Z" fill="rgb(84, 74, 68)" fill-opacity="0.52"/><path d="M54,62L53,64L70,86Z" fill="rgb(189, 203, 145)" fill-opacity="0.45"/><path d="M77,56L77,46L81,54Z" fill="rgb(19, 0, 0)" fill-opacity="0.38"/><path d="M201,31L193,39L127,23Z" fill="rgb(206, 207, 205)" fill-opacity="0.60"/><path d="M220,18L205,25L228,10Z" fill="rgb(78, 51, 42)" fill-opacity="0.50"/><path d="M138,17L151,28L128,25Z" fill="rgb(212, 212, 211)" fill-opacity="0.43"/><path d="M11,41L12,54L32,54Z" fill="rgb(81, 79, 79)" fill-opacity="0.53"/><path d="M148,32L173,56L200,45Z" fill="rgb(199, 199, 197)" fill-opacity="0.69"/><path d="M55,160L45,153L23,151Z" fill="rgb(118, 114, 105)" fill-opacity="0.49"/><path d="M72,121L84,110L65,120Z" fill="rgb(137, 139, 53)" fill-opacity="0.51"/><path d="M13,62L16,73L17,60Z" fill="rgb(237, 244, 255)" fill-opacity="0.51"/><path d="M218,48L207,48L214,51Z" fill="rgb(169, 177, 188)" fill-opacity="0.47"/><path d="M137,102L120,77L164,88Z" fill="rgb(60, 37, 30)" fill-opacity="0.84"/><path d="M-31,11L93,-32L42,58Z" fill="rgb(29, 17, 0)" fill-opacity="0.19"/><path d="M11,129L11,147L16,113Z" fill="rgb(224, 203, 172)" fill-opacity="0.52"/><path d="M81,104L69,102L74,96Z" fill="rgb(162, 137, 122)" fill-opacity="0.50"/><path d="M23,68L19,77L16,53Z" fill="rgb(25, 33, 43)" fill-opacity="0.50"/><path d="M42,50L29,51L39,62Z" fill="rgb(23, 25, 19)" fill-opacity="0.53"/><path d="M69,76L52,74L63,81Z" fill="rgb(86, 113, 4)" fill-opacity="0.40"/><path d="M69,81L66,78L67,81Z" fill="rgb(252, 253, 248)" fill-opacity="0.50"/><path d="M226,102L259,83L205,77Z" fill="rgb(33, 29, 32)" fill-opacity="0.36"/><path d="M167,40L151,40L156,62Z" fill="rgb(207, 208, 208)" fill-opacity="0.41"/><path d="M128,124L123,93L93,87Z" fill="rgb(120, 124, 131)" fill-opacity="0.56"/><path d="M37,65L37,60L57,70Z" fill="rgb(136, 153, 59)" fill-opacity="0.56"/><path d="M23,55L36,56L27,58Z" fill="rgb(0, 0, 0)" fill-opacity="0.47"/><path d="M130,22L150,13L175,21Z" fill="rgb(200, 203, 202)" fill-opacity="0.50"/><path d="M23,72L36,58L41,74Z" fill="rgb(243, 247, 242)" fill-opacity="0.45"/><path d="M76,42L100,46L122,25Z" fill="rgb(198, 200, 199)" fill-opacity="0.53"/><path d="M247,43L252,39L231,-13Z" fill="rgb(0, 0, 0)" fill-opacity="0.43"/><path d="M213,3L198,2L217,16Z" fill="rgb(196, 195, 195)" fill-opacity="0.48"/><path d="M1,81L-11,69L15,119Z" fill="rgb(8, 17, 19)" fill-opacity="0.48"/><path d="M251,126L228,107L323,126Z" fill="rgb(30, 136, 249)" fill-opacity="0.10"/><path d="M76,45L75,41L88,46Z" fill="rgb(64, 60, 53)" fill-opacity="0.54"/><path d="M237,10L207,18L218,7Z" fill="rgb(191, 191, 190)" fill-opacity="0.52"/><path d="M34,109L23,128L25,113Z" fill="rgb(39, 46, 43)" fill-opacity="0.49"/><path d="M38,51L79,35L47,52Z" fill="rgb(6, 3, 2)" fill-opacity="0.44"/><path d="M239,72L232,63L282,61Z" fill="rgb(41, 19, 6)" fill-opacity="0.58"/><path d="M98,144L120,103L129,133Z" fill="rgb(93, 98, 115)" fill-opacity="0.46"/><path d="M206,63L229,57L181,77Z" fill="rgb(138, 119, 103)" fill-opacity="0.47"/><path d="M168,127L155,136L167,136Z" fill="rgb(0, 0, 1)" fill-opacity="0.53"/><path d="M241,44L269,76L241,41Z" fill="rgb(54, 84, 79)" fill-opacity="0.53"/><path d="M122,89L103,90L81,56Z" fill="rgb(62, 27, 17)" fill-opacity="0.55"/><path d="M242,9L239,1L232,9Z" fill="rgb(11, 10, 9)" fill-opacity="0.47"/><path d="M236,10L244,35L221,21Z" fill="rgb(181, 186, 189)" fill-opacity="0.52"/><path d="M255,155L270,172L243,153Z" fill="rgb(103, 92, 83)" fill-opacity="0.50"/></svg>