<svg xmlns="http://www.w3.org/2000/svg" viewBox="0 0 144 256" clip-path="url(#clip)" width="288" height="512"><defs><clipPath id="clip" clipPathUnits="objectBoundingBox"><rect x="0" y="0" width="144" height="256"/></clipPath></defs><rect x="0" y="0" width="144" height="256" fill="rgb(30, 8, 6)"/><path d="M110,92L-56,202L247,203Z" fill="rgb(197, 16, 2)" fill-opacity="0.41"/><path d="M121,45L115,39L107,67Z" fill="rgb(114, 94, 228)" fill-opacity="0.63"/><path d="M126,51L111,39L119,55Z" fill="rgb(117, 114, 255)" fill-opacity="0.52"/><path d="M65,197L172,167L35,186Z" fill="rgb(255, 29, 1)" fill-opacity="0.56"/><path d="M106,62L196,87L-15,84Z" fill="rgb(110, 32, 5)" fill-opacity="0.83"/><path d="M89,44L88,63L58,52Z" fill="rgb(207, 224, 102)" fill-opacity="0.44"/><path d="M56,186L-31,185L23,198Z" fill="rgb(207, 25, 1)" fill-opacity="0.65"/><path d="M120,93L62,121L176,130Z" fill="rgb(55, 0, 0)" fill-opacity="0.77"/><path d="M272,162L-69,222L99,219Z" fill="rgb(62, 39, 42)" fill-opacity="0.74"/><path d="M71,140L80,119L54,126Z" fill="rgb(209, 6, 0)" fill-opacity="0.52"/><path d="M118,55L110,44L118,42Z" fill="rgb(176, 157, 255)" fill-opacity="0.47"/><path d="M73,53L-84,-189L-8,77Z" fill="rgb(9, 5, 1)" fill-opacity="0.77"/><path d="M89,66L71,10L123,23Z" fill="rgb(78, 44, 9)" fill-opacity="0.51"/><path d="M32,96L-66,185L31,185Z" fill="rgb(52, 8, 0)" fill-opacity="0.85"/><path d="M46,154L40,169L32,164Z" fill="rgb(255, 132, 99)" fill-opacity="0.59"/><path d="M23,103L109,178L38,143Z" fill="rgb(53, 6, 0)" fill-opacity="0.78"/><path d="M78,169L64,151L61,179Z" fill="rgb(249, 1, 0)" fill-opacity="0.43"/><path d="M69,130L106,156L106,173Z" fill="rgb(230, 15, 7)" fill-opacity="0.50"/><path d="M-2,82L-14,108L37,73Z" fill="rgb(157, 53, 0)" fill-opacity="0.47"/><path d="M53,93L52,108L66,100Z" fill="rgb(155, 15, 0)" fill-opacity="0.63"/><path d="M64,8L57,49L73,54Z" fill="rgb(73, 22, 2)" fill-opacity="0.59"/><path d="M147,46L58,67L115,69Z" fill="rgb(19, 1, 8)" fill-opacity="0.83"/><path d="M71,59L88,57L77,46Z" fill="rgb(250, 255, 163)" fill-opacity="0.45"/><path d="M77,98L247,149L113,174Z" fill="rgb(78, 1, 0)" fill-opacity="0.94"/><path d="M71,165L88,181L102,163Z" fill="rgb(0, 0, 0)" fill-opacity="0.47"/><path d="M108,68L91,73L45,74Z" fill="rgb(203, 29, 2)" fill-opacity="0.64"/><path d="M76,181L58,161L75,151Z" fill="rgb(203, 0, 0)" fill-opacity="0.46"/><path d="M86,143L75,141L91,161Z" fill="rgb(198, 45, 29)" fill-opacity="0.47"/><path d="M174,71L104,69L128,74Z" fill="rgb(228, 20, 1)" fill-opacity="0.59"/><path d="M39,162L46,146L29,151Z" fill="rgb(180, 47, 33)" fill-opacity="0.55"/><path d="M163,161L129,188L86,186Z" fill="rgb(207, 20, 1)" fill-opacity="0.49"/><path d="M114,165L88,147L107,168Z" fill="rgb(214, 6, 2)" fill-opacity="0.54"/><path d="M71,181L53,159L3,185Z" fill="rgb(43, 3, 0)" fill-opacity="0.56"/><path d="M-67,240L294,325L137,210Z" fill="rgb(0, 8, 13)" fill-opacity="0.93"/><path d="M13,16L62,-27L58,22Z" fill="rgb(8, 30, 7)" fill-opacity="0.59"/><path d="M113,37L100,18L87,37Z" fill="rgb(117, 45, 7)" fill-opacity="0.49"/><path d="M152,28L102,67L140,70Z" fill="rgb(4, 0, 6)" fill-opacity="0.68"/><path d="M52,72L34,77L58,75Z" fill="rgb(208, 37, 0)" fill-opacity="0.48"/><path d="M102,113L86,131L58,104Z" fill="rgb(26, 0, 0)" fill-opacity="0.54"/><path d="M80,179L104,177L70,136Z" fill="rgb(21, 0, 0)" fill-opacity="0.55"/><path d="M101,58L98,51L105,50Z" fill="rgb(102, 57, 3)" fill-opacity="0.50"/><path d="M-10,101L14,113L36,114Z" fill="rgb(155, 13, 0)" fill-opacity="0.45"/><path d="M88,69L96,57L48,73Z" fill="rgb(42, 3, 0)" fill-opacity="0.62"/><path d="M194,122L131,-22L119,45Z" fill="rgb(4, 2, 6)" fill-opacity="0.89"/><path d="M88,139L51,128L75,121Z" fill="rgb(181, 7, 0)" fill-opacity="0.50"/><path d="M76,146L92,141L89,136Z" fill="rgb(221, 62, 40)" fill-opacity="0.46"/><path d="M126,51L111,48L112,55Z" fill="rgb(41, 24, 225)" fill-opacity="0.47"/><path d="M75,71L110,73L124,69Z" fill="rgb(223, 33, 5)" fill-opacity="0.51"/><path d="M71,55L70,64L85,60Z" fill="rgb(152, 121, 40)" fill-opacity="0.41"/><path d="M9,193L158,183L-27,221Z" fill="rgb(93, 31, 4)" fill-opacity="0.35"/><path d="M18,184L45,197L70,184Z" fill="rgb(236, 28, 5)" fill-opacity="0.37"/><path d="M65,103L45,109L74,114Z" fill="rgb(74, 6, 0)" fill-opacity="0.44"/><path d="M32,78L11,92L80,87Z" fill="rgb(68, 29, 6)" fill-opacity="0.66"/><path d="M40,160L44,163L33,167Z" fill="rgb(255, 178, 133)" fill-opacity="0.47"/><path d="M31,155L39,155L32,150Z" fill="rgb(255, 64, 52)" fill-opacity="0.56"/><path d="M83,138L43,174L46,133Z" fill="rgb(63, 12, 0)" fill-opacity="0.42"/><path d="M65,101L152,83L61,84Z" fill="rgb(0, 5, 2)" fill-opacity="0.43"/><path d="M134,87L166,99L97,106Z" fill="rgb(4, 0, 1)" fill-opacity="0.55"/><path d="M217,96L103,71L128,87Z" fill="rgb(94, 44, 8)" fill-opacity="0.52"/><path d="M108,195L99,216L71,221Z" fill="rgb(56, 60, 75)" fill-opacity="0.43"/><path d="M-10,-198L71,20L103,15Z" fill="rgb(22, 4, 2)" fill-opacity="0.91"/><path d="M62,45L68,59L95,16Z" fill="rgb(75, 31, 6)" fill-opacity="0.56"/><path d="M41,158L45,159L41,156Z" fill="rgb(255, 255, 196)" fill-opacity="0.50"/><path d="M48,20L83,19L87,33Z" fill="rgb(97, 20, 0)" fill-opacity="0.44"/><path d="M-17,106L54,105L34,88Z" fill="rgb(1, 0, 0)" fill-opacity="0.69"/><path d="M88,64L88,35L91,51Z" fill="rgb(113, 142, 44)" fill-opacity="0.43"/><path d="M40,128L-8,137L39,152Z" fill="rgb(62, 11, 0)" fill-opacity="0.80"/><path d="M42,224L145,208L123,195Z" fill="rgb(51, 53, 69)" fill-opacity="0.35"/><path d="M59,91L60,109L52,106Z" fill="rgb(143, 25, 0)" fill-opacity="0.43"/><path d="M145,78L132,69L144,72Z" fill="rgb(197, 16, 0)" fill-opacity="0.49"/><path d="M80,71L13,76L68,75Z" fill="rgb(177, 30, 0)" fill-opacity="0.45"/><path d="M82,51L71,54L80,57Z" fill="rgb(216, 236, 134)" fill-opacity="0.49"/><path d="M49,135L61,116L33,109Z" fill="rgb(0, 0, 0)" fill-opacity="0.59"/><path d="M51,190L43,189L51,184Z" fill="rgb(208, 97, 80)" fill-opacity="0.41"/><path d="M111,181L119,172L97,182Z" fill="rgb(228, 21, 4)" fill-opacity="0.50"/><path d="M118,22L105,24L132,63Z" fill="rgb(21, 0, 29)" fill-opacity="0.53"/><path d="M95,105L79,94L87,119Z" fill="rgb(110, 3, 1)" fill-opacity="0.44"/><path d="M158,163L129,173L153,188Z" fill="rgb(208, 8, 0)" fill-opacity="0.45"/><path d="M71,119L82,105L82,121Z" fill="rgb(0, 0, 0)" fill-opacity="0.71"/><path d="M133,182L80,196L96,183Z" fill="rgb(154, 23, 4)" fill-opacity="0.58"/><path d="M57,130L55,144L72,137Z" fill="rgb(138, 19, 0)" fill-opacity="0.45"/><path d="M34,88L39,102L61,91Z" fill="rgb(0, 0, 0)" fill-opacity="0.50"/><path d="M39,114L21,111L27,115Z" fill="rgb(136, 11, 0)" fill-opacity="0.53"/><path d="M79,108L96,106L99,101Z" fill="rgb(176, 0, 0)" fill-opacity="0.57"/><path d="M104,71L114,38L118,0Z" fill="rgb(45, 16, 12)" fill-opacity="0.85"/><path d="M110,52L116,39L122,50Z" fill="rgb(139, 118, 255)" fill-opacity="0.50"/><path d="M88,64L49,61L57,72Z" fill="rgb(51, 0, 0)" fill-opacity="0.54"/><path d="M97,147L104,157L87,150Z" fill="rgb(232, 10, 6)" fill-opacity="0.51"/><path d="M78,160L85,150L71,143Z" fill="rgb(25, 0, 2)" fill-opacity="0.48"/><path d="M74,60L85,55L71,60Z" fill="rgb(158, 165, 77)" fill-opacity="0.53"/><path d="M86,45L89,58L73,36Z" fill="rgb(34, 20, 0)" fill-opacity="0.52"/><path d="M-39,109L22,79L39,88Z" fill="rgb(71, 30, 3)" fill-opacity="0.62"/><path d="M49,162L37,148L62,156Z" fill="rgb(61, 3, 0)" fill-opacity="0.51"/><path d="M69,151L65,174L78,158Z" fill="rgb(194, 3, 0)" fill-opacity="0.42"/><path d="M122,16L89,28L130,-27Z" fill="rgb(83, 23, 10)" fill-opacity="0.27"/><path d="M52,76L37,74L-13,85Z" fill="rgb(222, 35, 0)" fill-opacity="0.32"/><path d="M75,74L61,71L95,70Z" fill="rgb(191, 28, 6)" fill-opacity="0.47"/><path d="M40,150L70,145L34,159Z" fill="rgb(88, 10, 0)" fill-opacity="0.53"/><path d="M84,148L307,84L116,109Z" fill="rgb(95, 2, 0)" fill-opacity="0.36"/><path d="M115,39L112,48L119,47Z" fill="rgb(171, 162, 255)" fill-opacity="0.62"/><path d="M74,190L54,184L82,181Z" fill="rgb(224, 27, 0)" fill-opacity="0.55"/><path d="M36,167L43,162L45,151Z" fill="rgb(255, 158, 117)" fill-opacity="0.50"/><path d="M104,175L117,171L80,150Z" fill="rgb(106, 0, 0)" fill-opacity="0.57"/><path d="M101,143L94,147L104,150Z" fill="rgb(15, 0, 1)" fill-opacity="0.51"/><path d="M-82,239L-21,198L88,200Z" fill="rgb(54, 23, 16)" fill-opacity="0.58"/><path d="M62,177L62,157L76,169Z" fill="rgb(204, 15, 0)" fill-opacity="0.44"/><path d="M92,85L64,89L42,78Z" fill="rgb(66, 31, 9)" fill-opacity="0.51"/><path d="M103,196L40,207L84,217Z" fill="rgb(97, 46, 36)" fill-opacity="0.25"/><path d="M33,106L41,109L17,110Z" fill="rgb(4, 0, 1)" fill-opacity="0.51"/><path d="M109,53L128,55L104,71Z" fill="rgb(39, 1, 18)" fill-opacity="0.42"/><path d="M51,165L58,155L63,183Z" fill="rgb(37, 5, 0)" fill-opacity="0.54"/><path d="M120,214L163,199L143,286Z" fill="rgb(1, 5, 10)" fill-opacity="0.85"/><path d="M54,54L3,75L91,69Z" fill="rgb(38, 2, 0)" fill-opacity="0.75"/><path d="M73,198L38,195L63,192Z" fill="rgb(121, 25, 4)" fill-opacity="0.64"/><path d="M56,261L80,222L130,254Z" fill="rgb(0, 17, 26)" fill-opacity="0.46"/><path d="M97,101L130,83L49,91Z" fill="rgb(0, 0, 1)" fill-opacity="0.46"/><path d="M78,221L-24,224L34,266Z" fill="rgb(2, 5, 10)" fill-opacity="0.95"/><path d="M54,29L37,-13L55,-10Z" fill="rgb(4, 11, 4)" fill-opacity="0.69"/><path d="M0,81L24,76L-8,93Z" fill="rgb(156, 42, 1)" fill-opacity="0.39"/><path d="M89,61L75,50L81,47Z" fill="rgb(158, 234, 121)" fill-opacity="0.41"/><path d="M34,165L45,130L35,165Z" fill="rgb(107, 9, 3)" fill-opacity="0.61"/><path d="M-44,219L75,216L33,224Z" fill="rgb(41, 22, 33)" fill-opacity="0.65"/><path d="M114,100L78,111L111,116Z" fill="rgb(52, 1, 1)" fill-opacity="0.59"/><path d="M36,10L53,26L45,-3Z" fill="rgb(0, 43, 12)" fill-opacity="0.45"/><path d="M69,108L85,106L72,118Z" fill="rgb(1, 0, 0)" fill-opacity="0.50"/><path d="M44,149L44,158L56,142Z" fill="rgb(62, 5, 0)" fill-opacity="0.61"/><path d="M72,170L59,169L87,182Z" fill="rgb(146, 0, 0)" fill-opacity="0.57"/><path d="M107,69L104,69L100,75Z" fill="rgb(195, 33, 0)" fill-opacity="0.49"/><path d="M47,158L39,159L41,160Z" fill="rgb(248, 194, 142)" fill-opacity="0.45"/><path d="M107,1L32,-57L70,7Z" fill="rgb(2, 0, 1)" fill-opacity="0.68"/><path d="M72,55L83,62L72,59Z" fill="rgb(145, 129, 53)" fill-opacity="0.47"/><path d="M85,106L78,99L89,98Z" fill="rgb(104, 5, 2)" fill-opacity="0.50"/><path d="M-28,39L36,59L71,27Z" fill="rgb(2, 0, 1)" fill-opacity="0.49"/><path d="M38,149L48,148L41,145Z" fill="rgb(214, 72, 50)" fill-opacity="0.41"/><path d="M51,194L-2,190L-3,199Z" fill="rgb(138, 20, 0)" fill-opacity="0.58"/><path d="M92,90L84,105L106,98Z" fill="rgb(31, 2, 1)" fill-opacity="0.53"/><path d="M71,121L42,113L63,124Z" fill="rgb(0, 0, 0)" fill-opacity="0.61"/><path d="M92,50L111,69L86,69Z" fill="rgb(17, 4, 1)" fill-opacity="0.62"/><path d="M33,151L38,152L38,156Z" fill="rgb(255, 92, 70)" fill-opacity="0.50"/><path d="M108,55L112,48L110,56Z" fill="rgb(69, 33, 15)" fill-opacity="0.50"/><path d="M106,182L92,177L75,187Z" fill="rgb(255, 25, 6)" fill-opacity="0.30"/><path d="M85,142L74,139L81,149Z" fill="rgb(202, 71, 44)" fill-opacity="0.50"/><path d="M56,22L55,33L88,17Z" fill="rgb(84, 12, 0)" fill-opacity="0.46"/><path d="M90,145L81,137L85,133Z" fill="rgb(86, 16, 1)" fill-opacity="0.57"/><path d="M75,39L60,37L104,32Z" fill="rgb(96, 14, 0)" fill-opacity="0.57"/><path d="M84,141L83,145L81,140Z" fill="rgb(255, 159, 109)" fill-opacity="0.45"/><path d="M28,117L22,110L7,108Z" fill="rgb(168, 12, 0)" fill-opacity="0.36"/><path d="M84,98L74,100L87,99Z" fill="rgb(148, 6, 2)" fill-opacity="0.57"/><path d="M13,163L-145,163L11,185Z" fill="rgb(20, 1, 0)" fill-opacity="0.29"/><path d="M82,180L73,187L94,179Z" fill="rgb(228, 23, 0)" fill-opacity="0.54"/><path d="M128,183L98,203L185,188Z" fill="rgb(74, 23, 19)" fill-opacity="0.35"/><path d="M84,149L81,180L76,165Z" fill="rgb(13, 0, 3)" fill-opacity="0.43"/><path d="M128,172L149,174L71,183Z" fill="rgb(211, 16, 0)" fill-opacity="0.65"/><path d="M121,34L95,-4L110,31Z" fill="rgb(29, 1, 6)" fill-opacity="0.53"/><path d="M28,122L-46,81L-12,131Z" fill="rgb(1, 6, 0)" fill-opacity="0.33"/><path d="M60,94L57,95L70,113Z" fill="rgb(120, 0, 0)" fill-opacity="0.45"/><path d="M110,24L123,11L122,28Z" fill="rgb(56, 30, 20)" fill-opacity="0.48"/><path d="M90,153L103,154L90,148Z" fill="rgb(224, 25, 14)" fill-opacity="0.52"/><path d="M57,183L101,177L52,176Z" fill="rgb(53, 0, 0)" fill-opacity="0.45"/><path d="M44,160L43,157L39,157Z" fill="rgb(255, 214, 155)" fill-opacity="0.50"/><path d="M67,142L75,143L77,129Z" fill="rgb(60, 1, 0)" fill-opacity="0.42"/><path d="M86,44L86,60L91,54Z" fill="rgb(97, 125, 34)" fill-opacity="0.53"/><path d="M110,53L72,40L114,34Z" fill="rgb(28, 35, 8)" fill-opacity="0.36"/><path d="M65,160L74,165L63,179Z" fill="rgb(203, 12, 0)" fill-opacity="0.48"/><path d="M-12,185L27,192L54,185Z" fill="rgb(196, 16, 0)" fill-opacity="0.67"/><path d="M79,3L91,15L52,9Z" fill="rgb(38, 10, 3)" fill-opacity="0.51"/><path d="M91,62L95,51L91,39Z" fill="rgb(0, 3, 1)" fill-opacity="0.49"/><path d="M56,6L62,17L57,17Z" fill="rgb(21, 65, 16)" fill-opacity="0.55"/><path d="M23,165L47,147L34,164Z" fill="rgb(93, 2, 0)" fill-opacity="0.46"/><path d="M59,19L76,19L63,13Z" fill="rgb(6, 0, 0)" fill-opacity="0.44"/><path d="M109,148L123,172L113,175Z" fill="rgb(67, 0, 1)" fill-opacity="0.44"/><path d="M86,61L100,52L83,69Z" fill="rgb(10, 9, 4)" fill-opacity="0.48"/><path d="M108,85L149,91L116,98Z" fill="rgb(0, 0, 2)" fill-opacity="0.63"/><path d="M75,46L77,50L71,49Z" fill="rgb(186, 111, 38)" fill-opacity="0.51"/><path d="M103,32L105,19L78,19Z" fill="rgb(75, 46, 14)" fill-opacity="0.54"/><path d="M39,150L46,149L41,146Z" fill="rgb(226, 66, 46)" fill-opacity="0.47"/><path d="M92,137L97,144L100,141Z" fill="rgb(155, 11, 3)" fill-opacity="0.70"/><path d="M63,110L57,107L47,110Z" fill="rgb(90, 21, 0)" fill-opacity="0.50"/><path d="M-3,98L13,109L47,99Z" fill="rgb(0, 0, 1)" fill-opacity="0.50"/><path d="M68,43L71,64L63,61Z" fill="rgb(28, 8, 0)" fill-opacity="0.51"/><path d="M60,151L23,114L54,132Z" fill="rgb(37, 7, 0)" fill-opacity="0.48"/><path d="M34,162L3,166L22,123Z" fill="rgb(61, 10, 0)" fill-opacity="0.68"/><path d="M70,62L72,52L55,47Z" fill="rgb(40, 11, 1)" fill-opacity="0.54"/><path d="M116,41L112,25L124,48Z" fill="rgb(33, 1, 51)" fill-opacity="0.60"/><path d="M138,20L139,-4L207,-2Z" fill="rgb(0, 0, 0)" fill-opacity="0.99"/><path d="M34,168L30,162L38,167Z" fill="rgb(208, 48, 38)" fill-opacity="0.57"/><path d="M72,117L68,114L69,119Z" fill="rgb(132, 2, 3)" fill-opacity="0.48"/><path d="M127,86L50,76L133,73Z" fill="rgb(96, 43, 10)" fill-opacity="0.47"/><path d="M9,-26L-21,-10L10,20Z" fill="rgb(35, 0, 1)" fill-opacity="0.56"/><path d="M49,72L29,52L3,80Z" fill="rgb(38, 1, 0)" fill-opacity="0.45"/><path d="M110,165L92,159L99,150Z" fill="rgb(201, 0, 0)" fill-opacity="0.50"/><path d="M78,31L86,29L81,18Z" fill="rgb(73, 57, 12)" fill-opacity="0.43"/><path d="M63,43L53,28L56,65Z" fill="rgb(24, 2, 1)" fill-opacity="0.69"/><path d="M74,43L88,48L76,24Z" fill="rgb(26, 0, 0)" fill-opacity="0.43"/><path d="M29,183L80,180L57,183Z" fill="rgb(43, 0, 0)" fill-opacity="0.47"/><path d="M110,64L112,57L124,65Z" fill="rgb(36, 1, 31)" fill-opacity="0.49"/><path d="M37,161L32,159L44,162Z" fill="rgb(149, 16, 10)" fill-opacity="0.50"/><path d="M45,196L37,219L58,208Z" fill="rgb(60, 21, 14)" fill-opacity="0.45"/><path d="M80,109L61,105L86,103Z" fill="rgb(48, 0, 0)" fill-opacity="0.56"/><path d="M121,50L127,45L137,55Z" fill="rgb(0, 0, 13)" fill-opacity="0.55"/></svg>