<svg xmlns="http://www.w3.org/2000/svg" viewBox="0 0 256 144" clip-path="url(#clip)" width="512" height="288"><defs><clipPath id="clip" clipPathUnits="objectBoundingBox"><rect x="0" y="0" width="256" height="144"/></clipPath></defs><rect x="0" y="0" width="256" height="144" fill="rgb(21, 45, 18)"/><path d="M88,72L288,51L77,28Z" fill="rgb(188, 95, 199)" fill-opacity="0.74"/><path d="M124,16L135,88L123,85Z" fill="rgb(216, 126, 245)" fill-opacity="0.46"/><path d="M76,37L28,33L123,61Z" fill="rgb(255, 82, 240)" fill-opacity="0.60"/><path d="M142,47L83,63L119,24Z" fill="rgb(255, 176, 255)" fill-opacity="0.54"/><path d="M13,55L10,23L96,50Z" fill="rgb(235, 37, 96)" fill-opacity="0.56"/><path d="M202,23L206,65L165,70Z" fill="rgb(205, 61, 255)" fill-opacity="0.44"/><path d="M41,59L32,90L38,25Z" fill="rgb(182, 66, 199)" fill-opacity="0.59"/><path d="M281,98L224,-18L200,78Z" fill="rgb(47, 87, 36)" fill-opacity="0.89"/><path d="M259,153L198,191L207,86Z" fill="rgb(65, 215, 17)" fill-opacity="0.43"/><path d="M76,65L139,67L72,107Z" fill="rgb(54, 22, 47)" fill-opacity="0.83"/><path d="M62,38L146,35L148,-116Z" fill="rgb(31, 0, 40)" fill-opacity="0.65"/><path d="M136,22L208,35L139,104Z" fill="rgb(134, 1, 155)" fill-opacity="0.32"/><path d="M167,44L116,34L85,46Z" fill="rgb(255, 223, 255)" fill-opacity="0.63"/><path d="M97,56L84,66L121,64Z" fill="rgb(234, 58, 234)" fill-opacity="0.52"/><path d="M45,32L31,100L72,65Z" fill="rgb(53, 2, 23)" fill-opacity="0.68"/><path d="M227,111L242,104L219,92Z" fill="rgb(56, 188, 20)" fill-opacity="0.44"/><path d="M39,34L82,48L74,40Z" fill="rgb(255, 147, 255)" fill-opacity="0.43"/><path d="M251,-6L162,14L151,57Z" fill="rgb(14, 0, 17)" fill-opacity="0.40"/><path d="M134,43L135,62L127,49Z" fill="rgb(255, 140, 255)" fill-opacity="0.50"/><path d="M162,3L150,9L142,-9Z" fill="rgb(58, 244, 165)" fill-opacity="0.47"/><path d="M134,37L154,59L152,38Z" fill="rgb(238, 120, 255)" fill-opacity="0.46"/><path d="M114,47L99,106L122,56Z" fill="rgb(58, 4, 66)" fill-opacity="0.57"/><path d="M9,49L45,67L77,49Z" fill="rgb(255, 18, 57)" fill-opacity="0.24"/><path d="M85,46L89,76L46,63Z" fill="rgb(31, 5, 28)" fill-opacity="0.65"/><path d="M92,80L205,119L100,296Z" fill="rgb(9, 5, 4)" fill-opacity="0.75"/><path d="M91,80L213,61L185,116Z" fill="rgb(42, 0, 54)" fill-opacity="0.44"/><path d="M-2,23L-4,-213L101,40Z" fill="rgb(13, 0, 3)" fill-opacity="0.63"/><path d="M304,143L215,105L216,133Z" fill="rgb(20, 64, 1)" fill-opacity="0.74"/><path d="M133,224L2,30L-165,66Z" fill="rgb(16, 0, 2)" fill-opacity="0.69"/><path d="M171,46L225,22L157,35Z" fill="rgb(83, 31, 82)" fill-opacity="0.76"/><path d="M35,30L5,22L35,59Z" fill="rgb(252, 36, 15)" fill-opacity="0.37"/><path d="M183,83L170,110L170,45Z" fill="rgb(79, 26, 85)" fill-opacity="0.49"/><path d="M200,61L211,46L185,39Z" fill="rgb(222, 143, 255)" fill-opacity="0.55"/><path d="M79,38L108,44L112,69Z" fill="rgb(255, 99, 255)" fill-opacity="0.46"/><path d="M38,54L35,41L48,30Z" fill="rgb(153, 83, 203)" fill-opacity="0.51"/><path d="M97,121L59,54L12,149Z" fill="rgb(8, 8, 4)" fill-opacity="0.80"/><path d="M247,-2L183,6L52,-17Z" fill="rgb(37, 127, 92)" fill-opacity="0.76"/><path d="M190,62L208,62L188,239Z" fill="rgb(7, 8, 9)" fill-opacity="0.74"/><path d="M165,42L169,47L146,41Z" fill="rgb(158, 46, 216)" fill-opacity="0.55"/><path d="M201,40L209,65L193,58Z" fill="rgb(255, 140, 255)" fill-opacity="0.30"/><path d="M121,81L127,86L127,76Z" fill="rgb(233, 117, 255)" fill-opacity="0.53"/><path d="M-18,79L15,84L15,69Z" fill="rgb(131, 30, 24)" fill-opacity="0.61"/><path d="M201,4L126,14L173,34Z" fill="rgb(0, 0, 0)" fill-opacity="0.52"/><path d="M210,135L236,134L266,258Z" fill="rgb(89, 254, 48)" fill-opacity="0.45"/><path d="M192,69L176,68L187,58Z" fill="rgb(199, 73, 229)" fill-opacity="0.52"/><path d="M145,14L97,40L68,38Z" fill="rgb(58, 16, 68)" fill-opacity="0.73"/><path d="M53,34L37,38L28,28Z" fill="rgb(118, 31, 58)" fill-opacity="0.51"/><path d="M-22,8L19,35L3,58Z" fill="rgb(20, 0, 4)" fill-opacity="0.57"/><path d="M82,78L76,67L75,87Z" fill="rgb(196, 22, 111)" fill-opacity="0.46"/><path d="M67,45L57,36L98,43Z" fill="rgb(252, 108, 253)" fill-opacity="0.62"/><path d="M112,39L93,38L130,56Z" fill="rgb(255, 237, 255)" fill-opacity="0.45"/><path d="M136,52L164,53L125,57Z" fill="rgb(221, 94, 220)" fill-opacity="0.57"/><path d="M76,143L81,145L106,112Z" fill="rgb(60, 140, 5)" fill-opacity="0.56"/><path d="M34,60L35,86L42,30Z" fill="rgb(185, 88, 223)" fill-opacity="0.47"/><path d="M111,36L129,23L170,37Z" fill="rgb(125, 39, 159)" fill-opacity="0.36"/><path d="M89,38L107,67L88,60Z" fill="rgb(210, 69, 224)" fill-opacity="0.67"/><path d="M123,58L123,67L136,52Z" fill="rgb(255, 213, 255)" fill-opacity="0.64"/><path d="M159,61L187,74L144,92Z" fill="rgb(56, 22, 61)" fill-opacity="0.72"/><path d="M191,40L200,50L209,41Z" fill="rgb(255, 181, 255)" fill-opacity="0.44"/><path d="M307,-7L205,104L207,30Z" fill="rgb(51, 86, 38)" fill-opacity="0.68"/><path d="M207,4L251,31L209,61Z" fill="rgb(55, 80, 43)" fill-opacity="0.55"/><path d="M121,34L139,46L102,46Z" fill="rgb(255, 255, 255)" fill-opacity="0.63"/><path d="M203,127L276,67L205,85Z" fill="rgb(10, 197, 0)" fill-opacity="0.11"/><path d="M223,87L227,40L268,85Z" fill="rgb(57, 125, 40)" fill-opacity="0.40"/><path d="M212,50L226,79L209,125Z" fill="rgb(26, 61, 12)" fill-opacity="0.52"/><path d="M54,39L51,46L47,34Z" fill="rgb(146, 58, 171)" fill-opacity="0.52"/><path d="M135,57L159,69L132,66Z" fill="rgb(126, 17, 106)" fill-opacity="0.55"/><path d="M126,40L148,48L149,41Z" fill="rgb(255, 202, 255)" fill-opacity="0.52"/><path d="M58,47L68,55L80,50Z" fill="rgb(251, 72, 84)" fill-opacity="0.35"/><path d="M161,53L148,48L163,43Z" fill="rgb(0, 5, 1)" fill-opacity="0.39"/><path d="M58,118L71,118L82,129Z" fill="rgb(87, 47, 74)" fill-opacity="0.42"/><path d="M32,36L13,37L19,29Z" fill="rgb(224, 60, 58)" fill-opacity="0.57"/><path d="M238,131L278,90L239,86Z" fill="rgb(3, 42, 0)" fill-opacity="0.65"/><path d="M150,70L166,62L172,73Z" fill="rgb(24, 11, 21)" fill-opacity="0.48"/><path d="M95,77L125,54L121,80Z" fill="rgb(82, 43, 94)" fill-opacity="0.52"/><path d="M205,22L210,37L164,46Z" fill="rgb(94, 26, 101)" fill-opacity="0.51"/><path d="M31,48L8,47L27,62Z" fill="rgb(153, 10, 4)" fill-opacity="0.42"/><path d="M154,25L137,21L150,41Z" fill="rgb(113, 25, 92)" fill-opacity="0.49"/><path d="M21,44L20,37L23,43Z" fill="rgb(0, 0, 0)" fill-opacity="0.53"/><path d="M115,70L124,82L88,95Z" fill="rgb(36, 12, 43)" fill-opacity="0.47"/><path d="M111,54L118,45L122,58Z" fill="rgb(138, 2, 150)" fill-opacity="0.46"/><path d="M33,62L-50,33L33,79Z" fill="rgb(8, 4, 5)" fill-opacity="0.83"/><path d="M42,38L53,46L42,46Z" fill="rgb(1, 76, 18)" fill-opacity="0.50"/><path d="M98,39L58,42L111,52Z" fill="rgb(234, 107, 239)" fill-opacity="0.66"/><path d="M161,47L181,41L201,52Z" fill="rgb(131, 56, 187)" fill-opacity="0.54"/><path d="M74,44L55,43L76,50Z" fill="rgb(82, 0, 47)" fill-opacity="0.42"/><path d="M103,66L116,47L95,39Z" fill="rgb(255, 146, 255)" fill-opacity="0.49"/><path d="M240,99L236,115L205,96Z" fill="rgb(42, 131, 22)" fill-opacity="0.49"/><path d="M174,91L184,75L180,90Z" fill="rgb(111, 25, 112)" fill-opacity="0.48"/><path d="M147,44L98,39L103,45Z" fill="rgb(255, 244, 254)" fill-opacity="0.64"/><path d="M186,74L125,71L165,78Z" fill="rgb(99, 38, 101)" fill-opacity="0.48"/><path d="M79,58L72,68L65,52Z" fill="rgb(58, 12, 76)" fill-opacity="0.56"/><path d="M107,23L76,32L81,41Z" fill="rgb(99, 17, 42)" fill-opacity="0.45"/><path d="M138,75L140,48L118,81Z" fill="rgb(103, 6, 125)" fill-opacity="0.28"/><path d="M35,82L14,88L28,125Z" fill="rgb(49, 6, 33)" fill-opacity="0.36"/><path d="M163,2L166,6L149,4Z" fill="rgb(34, 178, 136)" fill-opacity="0.47"/><path d="M101,78L120,70L94,69Z" fill="rgb(96, 59, 82)" fill-opacity="0.58"/><path d="M146,39L156,39L145,57Z" fill="rgb(209, 80, 247)" fill-opacity="0.58"/><path d="M193,61L207,76L178,99Z" fill="rgb(7, 4, 4)" fill-opacity="0.71"/><path d="M204,103L203,91L190,106Z" fill="rgb(40, 41, 65)" fill-opacity="0.53"/><path d="M116,67L71,68L142,69Z" fill="rgb(24, 34, 23)" fill-opacity="0.61"/><path d="M188,118L135,74L117,116Z" fill="rgb(17, 31, 18)" fill-opacity="0.35"/><path d="M208,140L211,58L203,142Z" fill="rgb(86, 222, 50)" fill-opacity="0.35"/><path d="M153,69L168,53L154,52Z" fill="rgb(183, 57, 197)" fill-opacity="0.33"/><path d="M220,101L228,101L220,70Z" fill="rgb(17, 43, 9)" fill-opacity="0.55"/><path d="M201,6L169,4L232,-2Z" fill="rgb(55, 145, 169)" fill-opacity="0.24"/><path d="M179,35L218,6L119,9Z" fill="rgb(1, 0, 3)" fill-opacity="0.44"/><path d="M300,47L288,31L215,41Z" fill="rgb(18, 22, 26)" fill-opacity="0.45"/><path d="M182,88L179,80L179,86Z" fill="rgb(167, 59, 194)" fill-opacity="0.51"/><path d="M176,26L172,58L167,9Z" fill="rgb(13, 8, 15)" fill-opacity="0.42"/><path d="M94,52L91,42L83,47Z" fill="rgb(169, 58, 197)" fill-opacity="0.66"/><path d="M156,66L140,52L129,61Z" fill="rgb(177, 50, 148)" fill-opacity="0.53"/><path d="M50,101L152,133L75,81Z" fill="rgb(9, 14, 3)" fill-opacity="0.55"/><path d="M17,55L19,37L14,43Z" fill="rgb(227, 53, 45)" fill-opacity="0.61"/><path d="M42,1L148,-13L137,30Z" fill="rgb(7, 22, 16)" fill-opacity="0.36"/><path d="M202,117L173,130L175,99Z" fill="rgb(3, 5, 1)" fill-opacity="0.54"/><path d="M47,74L50,87L27,83Z" fill="rgb(61, 31, 53)" fill-opacity="0.53"/><path d="M51,46L47,47L46,27Z" fill="rgb(37, 42, 38)" fill-opacity="0.56"/><path d="M163,46L164,41L173,44Z" fill="rgb(159, 69, 201)" fill-opacity="0.50"/><path d="M123,76L130,79L124,87Z" fill="rgb(200, 100, 245)" fill-opacity="0.42"/><path d="M242,37L222,39L229,13Z" fill="rgb(65, 100, 57)" fill-opacity="0.50"/><path d="M104,46L87,64L88,41Z" fill="rgb(209, 68, 222)" fill-opacity="0.55"/><path d="M130,62L124,69L123,59Z" fill="rgb(251, 242, 255)" fill-opacity="0.48"/><path d="M215,108L261,112L214,121Z" fill="rgb(2, 54, 9)" fill-opacity="0.58"/><path d="M151,52L162,42L162,53Z" fill="rgb(1, 18, 24)" fill-opacity="0.36"/><path d="M100,114L203,121L201,208Z" fill="rgb(7, 8, 4)" fill-opacity="0.64"/><path d="M202,42L215,45L198,33Z" fill="rgb(94, 49, 98)" fill-opacity="0.48"/><path d="M210,75L213,34L207,32Z" fill="rgb(68, 122, 45)" fill-opacity="0.53"/><path d="M156,-8L140,-26L147,9Z" fill="rgb(32, 134, 106)" fill-opacity="0.55"/><path d="M26,76L34,57L29,55Z" fill="rgb(7, 0, 1)" fill-opacity="0.56"/><path d="M217,11L213,10L213,67Z" fill="rgb(11, 22, 0)" fill-opacity="0.43"/><path d="M281,-31L257,38L227,10Z" fill="rgb(45, 19, 36)" fill-opacity="0.32"/><path d="M252,58L252,43L260,56Z" fill="rgb(67, 160, 46)" fill-opacity="0.46"/><path d="M115,26L135,38L107,33Z" fill="rgb(94, 29, 171)" fill-opacity="0.39"/><path d="M22,53L17,63L28,52Z" fill="rgb(11, 1, 0)" fill-opacity="0.58"/><path d="M237,64L221,73L234,32Z" fill="rgb(63, 118, 52)" fill-opacity="0.43"/><path d="M58,37L46,33L62,43Z" fill="rgb(234, 99, 237)" fill-opacity="0.52"/><path d="M68,76L87,66L79,44Z" fill="rgb(29, 8, 22)" fill-opacity="0.55"/><path d="M185,32L174,37L183,43Z" fill="rgb(120, 37, 125)" fill-opacity="0.56"/><path d="M173,57L204,55L180,69Z" fill="rgb(171, 70, 208)" fill-opacity="0.48"/><path d="M89,69L86,74L85,69Z" fill="rgb(126, 72, 102)" fill-opacity="0.53"/><path d="M33,78L34,90L40,44Z" fill="rgb(178, 79, 194)" fill-opacity="0.38"/><path d="M165,31L133,26L163,45Z" fill="rgb(94, 28, 82)" fill-opacity="0.47"/><path d="M201,35L189,33L205,22Z" fill="rgb(65, 15, 64)" fill-opacity="0.79"/><path d="M57,42L51,50L62,57Z" fill="rgb(128, 16, 32)" fill-opacity="0.57"/><path d="M119,100L182,81L135,73Z" fill="rgb(43, 19, 62)" fill-opacity="0.38"/><path d="M162,-15L176,17L156,-5Z" fill="rgb(21, 31, 25)" fill-opacity="0.62"/><path d="M86,137L114,110L102,299Z" fill="rgb(9, 8, 3)" fill-opacity="0.80"/><path d="M236,135L233,102L225,135Z" fill="rgb(44, 114, 9)" fill-opacity="0.43"/><path d="M82,139L53,135L97,115Z" fill="rgb(11, 29, 0)" fill-opacity="0.52"/><path d="M169,38L130,37L156,32Z" fill="rgb(109, 49, 106)" fill-opacity="0.53"/><path d="M16,41L-53,71L8,27Z" fill="rgb(14, 6, 7)" fill-opacity="0.73"/><path d="M118,42L140,54L121,55Z" fill="rgb(233, 121, 230)" fill-opacity="0.59"/><path d="M205,25L138,20L209,4Z" fill="rgb(5, 1, 5)" fill-opacity="0.59"/><path d="M236,80L233,75L235,85Z" fill="rgb(1, 24, 0)" fill-opacity="0.49"/><path d="M37,31L31,37L41,37Z" fill="rgb(98, 28, 30)" fill-opacity="0.61"/><path d="M229,134L250,122L224,120Z" fill="rgb(43, 89, 3)" fill-opacity="0.52"/><path d="M147,23L138,21L138,26Z" fill="rgb(136, 37, 122)" fill-opacity="0.43"/><path d="M115,16L139,25L92,40Z" fill="rgb(36, 10, 78)" fill-opacity="0.46"/><path d="M145,49L136,45L136,55Z" fill="rgb(60, 0, 104)" fill-opacity="0.34"/><path d="M211,123L203,167L211,156Z" fill="rgb(9, 40, 0)" fill-opacity="0.59"/><path d="M110,56L122,56L113,64Z" fill="rgb(37, 0, 68)" fill-opacity="0.52"/><path d="M93,88L84,82L77,96Z" fill="rgb(68, 43, 47)" fill-opacity="0.50"/><path d="M51,52L47,99L80,69Z" fill="rgb(12, 8, 8)" fill-opacity="0.59"/><path d="M21,32L31,27L12,50Z" fill="rgb(225, 57, 54)" fill-opacity="0.50"/><path d="M60,44L39,62L48,67Z" fill="rgb(110, 14, 25)" fill-opacity="0.54"/><path d="M205,62L206,52L187,59Z" fill="rgb(212, 93, 255)" fill-opacity="0.50"/><path d="M54,38L51,35L50,46Z" fill="rgb(235, 74, 239)" fill-opacity="0.38"/><path d="M200,49L196,55L183,42Z" fill="rgb(165, 69, 231)" fill-opacity="0.55"/><path d="M78,92L81,94L83,86Z" fill="rgb(99, 44, 94)" fill-opacity="0.57"/><path d="M207,141L201,140L211,147Z" fill="rgb(62, 187, 32)" fill-opacity="0.50"/><path d="M248,135L235,188L242,139Z" fill="rgb(54, 214, 27)" fill-opacity="0.50"/><path d="M214,124L213,107L212,117Z" fill="rgb(71, 187, 44)" fill-opacity="0.56"/><path d="M20,47L31,45L17,54Z" fill="rgb(229, 52, 45)" fill-opacity="0.52"/><path d="M172,109L167,119L169,81Z" fill="rgb(59, 73, 56)" fill-opacity="0.41"/><path d="M82,137L84,151L88,131Z" fill="rgb(60, 148, 7)" fill-opacity="0.47"/><path d="M74,84L82,73L78,70Z" fill="rgb(195, 37, 127)" fill-opacity="0.49"/><path d="M146,42L139,47L134,33Z" fill="rgb(240, 185, 247)" fill-opacity="0.41"/><path d="M169,61L166,41L165,50Z" fill="rgb(178, 75, 228)" fill-opacity="0.43"/><path d="M238,109L235,95L224,109Z" fill="rgb(52, 153, 26)" fill-opacity="0.48"/><path d="M133,56L129,50L136,49Z" fill="rgb(255, 145, 255)" fill-opacity="0.50"/><path d="M216,87L217,98L263,89Z" fill="rgb(1, 31, 5)" fill-opacity="0.54"/><path d="M204,51L207,43L197,42Z" fill="rgb(254, 202, 254)" fill-opacity="0.58"/><path d="M66,116L77,127L76,133Z" fill="rgb(64, 69, 43)" fill-opacity="0.52"/><path d="M108,38L97,38L129,30Z" fill="rgb(96, 28, 148)" fill-opacity="0.59"/><path d="M13,34L10,31L15,25Z" fill="rgb(222, 69, 62)" fill-opacity="0.50"/><path d="M211,152L211,127L214,121Z" fill="rgb(76, 191, 45)" fill-opacity="0.50"/><path d="M142,38L165,38L141,35Z" fill="rgb(76, 29, 81)" fill-opacity="0.66"/><path d="M77,55L69,56L72,73Z" fill="rgb(49, 14, 73)" fill-opacity="0.52"/><path d="M91,102L82,62L81,145Z" fill="rgb(22, 29, 5)" fill-opacity="0.60"/><path d="M22,45L9,49L28,50Z" fill="rgb(138, 25, 23)" fill-opacity="0.50"/><path d="M31,41L25,38L25,49Z" fill="rgb(246, 68, 62)" fill-opacity="0.53"/><path d="M31,29L36,30L9,49Z" fill="rgb(169, 28, 31)" fill-opacity="0.58"/><path d="M210,94L219,92L209,112Z" fill="rgb(25, 74, 15)" fill-opacity="0.54"/><path d="M88,53L85,47L67,56Z" fill="rgb(31, 9, 33)" fill-opacity="0.62"/><path d="M77,33L98,40L90,15Z" fill="rgb(54, 14, 33)" fill-opacity="0.58"/><path d="M260,78L263,63L237,75Z" fill="rgb(28, 72, 31)" fill-opacity="0.50"/><path d="M35,52L22,60L35,37Z" fill="rgb(170, 25, 30)" fill-opacity="0.53"/><path d="M136,57L135,48L130,52Z" fill="rgb(254, 135, 254)" fill-opacity="0.48"/><path d="M44,66L46,89L50,53Z" fill="rgb(91, 12, 53)" fill-opacity="0.45"/></svg>