<svg xmlns="http://www.w3.org/2000/svg" viewBox="0 0 256 169.55844155844156" clip-path="url(#clip)" width="512" height="339.1168831168831"><defs><clipPath id="clip" clipPathUnits="objectBoundingBox"><rect x="0" y="0" width="256" height="169.55844155844156"/></clipPath></defs><rect x="0" y="0" width="256" height="169.55844155844156" fill="rgb(35, 55, 34)"/><path d="M323,-249L142,43L251,39Z" fill="rgb(209, 80, 101)" fill-opacity="0.72"/><path d="M161,112L127,97L73,117Z" fill="rgb(57, 190, 114)" fill-opacity="0.68"/><path d="M168,28L360,-89L-114,33Z" fill="rgb(50, 219, 83)" fill-opacity="0.59"/><path d="M48,118L9,107L59,48Z" fill="rgb(64, 70, 155)" fill-opacity="0.56"/><path d="M149,99L151,118L98,101Z" fill="rgb(67, 237, 120)" fill-opacity="0.45"/><path d="M164,117L190,101L161,103Z" fill="rgb(55, 238, 138)" fill-opacity="0.56"/><path d="M22,71L73,72L32,102Z" fill="rgb(96, 110, 194)" fill-opacity="0.50"/><path d="M207,16L189,46L235,35Z" fill="rgb(255, 101, 169)" fill-opacity="0.72"/><path d="M280,265L258,35L140,50Z" fill="rgb(25, 0, 12)" fill-opacity="0.81"/><path d="M173,25L167,102L84,35Z" fill="rgb(26, 0, 5)" fill-opacity="0.44"/><path d="M163,92L199,135L199,94Z" fill="rgb(208, 102, 70)" fill-opacity="0.25"/><path d="M197,39L211,26L220,36Z" fill="rgb(255, 255, 255)" fill-opacity="0.54"/><path d="M234,144L246,154L221,153Z" fill="rgb(26, 41, 120)" fill-opacity="0.50"/><path d="M58,44L79,80L79,50Z" fill="rgb(124, 75, 94)" fill-opacity="0.57"/><path d="M17,9L-21,128L25,105Z" fill="rgb(11, 11, 12)" fill-opacity="0.66"/><path d="M95,11L30,40L26,0Z" fill="rgb(31, 181, 63)" fill-opacity="0.65"/><path d="M216,125L246,123L203,96Z" fill="rgb(109, 0, 29)" fill-opacity="0.61"/><path d="M97,114L323,190L-280,155Z" fill="rgb(10, 1, 15)" fill-opacity="0.72"/><path d="M218,39L228,-57L242,41Z" fill="rgb(241, 0, 78)" fill-opacity="0.49"/><path d="M62,71L61,84L68,75Z" fill="rgb(172, 255, 210)" fill-opacity="0.49"/><path d="M34,42L12,47L22,22Z" fill="rgb(0, 2, 1)" fill-opacity="0.52"/><path d="M110,77L117,87L145,66Z" fill="rgb(143, 133, 175)" fill-opacity="0.40"/><path d="M33,115L101,78L106,118Z" fill="rgb(42, 93, 75)" fill-opacity="0.60"/><path d="M117,31L92,5L180,19Z" fill="rgb(80, 208, 96)" fill-opacity="0.48"/><path d="M216,51L102,90L131,101Z" fill="rgb(10, 0, 15)" fill-opacity="0.61"/><path d="M87,50L91,90L86,86Z" fill="rgb(202, 112, 91)" fill-opacity="0.66"/><path d="M238,39L285,27L211,-40Z" fill="rgb(148, 8, 46)" fill-opacity="0.59"/><path d="M171,116L147,153L150,106Z" fill="rgb(27, 25, 32)" fill-opacity="0.84"/><path d="M103,100L192,108L186,100Z" fill="rgb(40, 208, 109)" fill-opacity="0.45"/><path d="M26,128L20,104L43,105Z" fill="rgb(76, 135, 157)" fill-opacity="0.34"/><path d="M135,60L139,74L147,67Z" fill="rgb(138, 76, 0)" fill-opacity="0.74"/><path d="M72,50L54,85L49,50Z" fill="rgb(16, 14, 5)" fill-opacity="0.53"/><path d="M231,42L204,15L241,16Z" fill="rgb(255, 38, 101)" fill-opacity="0.64"/><path d="M188,45L166,32L216,15Z" fill="rgb(253, 25, 92)" fill-opacity="0.47"/><path d="M162,111L178,114L176,102Z" fill="rgb(51, 249, 134)" fill-opacity="0.50"/><path d="M164,134L158,134L163,138Z" fill="rgb(255, 255, 149)" fill-opacity="0.50"/><path d="M173,28L232,2L141,-9Z" fill="rgb(111, 113, 74)" fill-opacity="0.55"/><path d="M70,107L87,83L66,72Z" fill="rgb(4, 12, 9)" fill-opacity="0.61"/><path d="M13,61L11,-13L-59,-4Z" fill="rgb(17, 106, 37)" fill-opacity="0.68"/><path d="M218,124L218,108L232,122Z" fill="rgb(174, 4, 45)" fill-opacity="0.53"/><path d="M250,100L267,123L258,87Z" fill="rgb(0, 124, 17)" fill-opacity="0.56"/><path d="M179,38L324,91L91,56Z" fill="rgb(5, 0, 2)" fill-opacity="0.45"/><path d="M101,81L99,86L90,86Z" fill="rgb(89, 147, 208)" fill-opacity="0.48"/><path d="M42,92L56,92L52,100Z" fill="rgb(81, 103, 253)" fill-opacity="0.33"/><path d="M126,74L126,87L114,78Z" fill="rgb(73, 131, 209)" fill-opacity="0.52"/><path d="M140,61L97,17L88,39Z" fill="rgb(12, 25, 21)" fill-opacity="0.67"/><path d="M231,134L279,120L235,93Z" fill="rgb(0, 0, 1)" fill-opacity="0.56"/><path d="M169,62L172,49L162,60Z" fill="rgb(150, 25, 15)" fill-opacity="0.42"/><path d="M142,30L211,21L198,2Z" fill="rgb(148, 138, 80)" fill-opacity="0.42"/><path d="M253,145L248,137L219,144Z" fill="rgb(75, 54, 61)" fill-opacity="0.45"/><path d="M15,100L56,99L55,106Z" fill="rgb(1, 6, 9)" fill-opacity="0.52"/><path d="M47,107L-11,171L51,128Z" fill="rgb(13, 9, 20)" fill-opacity="0.62"/><path d="M28,65L22,86L27,101Z" fill="rgb(82, 81, 166)" fill-opacity="0.56"/><path d="M19,24L30,29L-10,34Z" fill="rgb(3, 37, 14)" fill-opacity="0.63"/><path d="M127,53L88,66L109,95Z" fill="rgb(15, 0, 30)" fill-opacity="0.35"/><path d="M212,47L253,113L257,33Z" fill="rgb(3, 5, 4)" fill-opacity="0.64"/><path d="M209,36L220,30L226,39Z" fill="rgb(255, 167, 232)" fill-opacity="0.40"/><path d="M142,87L150,92L158,91Z" fill="rgb(25, 4, 255)" fill-opacity="0.37"/><path d="M30,59L6,58L18,52Z" fill="rgb(155, 26, 34)" fill-opacity="0.60"/><path d="M23,50L30,46L31,55Z" fill="rgb(28, 219, 92)" fill-opacity="0.47"/><path d="M-26,32L5,53L18,51Z" fill="rgb(69, 251, 119)" fill-opacity="0.32"/><path d="M105,128L177,122L142,113Z" fill="rgb(39, 43, 50)" fill-opacity="0.77"/><path d="M94,31L71,12L57,31Z" fill="rgb(30, 207, 77)" fill-opacity="0.50"/><path d="M187,93L196,124L200,92Z" fill="rgb(113, 1, 13)" fill-opacity="0.73"/><path d="M25,56L55,70L-16,76Z" fill="rgb(16, 22, 27)" fill-opacity="0.82"/><path d="M67,69L73,69L64,100Z" fill="rgb(0, 10, 6)" fill-opacity="0.61"/><path d="M106,118L91,120L95,90Z" fill="rgb(49, 51, 92)" fill-opacity="0.76"/><path d="M199,44L201,19L177,38Z" fill="rgb(255, 53, 125)" fill-opacity="0.46"/><path d="M56,56L74,49L68,57Z" fill="rgb(131, 45, 43)" fill-opacity="0.56"/><path d="M21,24L39,37L53,7Z" fill="rgb(36, 197, 69)" fill-opacity="0.42"/><path d="M13,52L3,28L14,19Z" fill="rgb(7, 43, 19)" fill-opacity="0.55"/><path d="M16,58L8,53L24,56Z" fill="rgb(227, 39, 24)" fill-opacity="0.50"/><path d="M34,60L38,35L70,48Z" fill="rgb(5, 24, 23)" fill-opacity="0.53"/><path d="M168,166L167,122L236,139Z" fill="rgb(19, 8, 16)" fill-opacity="0.64"/><path d="M53,101L91,101L91,119Z" fill="rgb(58, 185, 92)" fill-opacity="0.38"/><path d="M224,34L204,31L194,38Z" fill="rgb(255, 241, 255)" fill-opacity="0.48"/><path d="M59,63L74,81L67,56Z" fill="rgb(7, 0, 4)" fill-opacity="0.61"/><path d="M100,92L77,105L80,83Z" fill="rgb(27, 63, 6)" fill-opacity="0.48"/><path d="M237,110L206,95L206,121Z" fill="rgb(74, 0, 22)" fill-opacity="0.62"/><path d="M115,30L201,27L153,44Z" fill="rgb(123, 34, 59)" fill-opacity="0.47"/><path d="M118,68L129,73L123,85Z" fill="rgb(87, 87, 159)" fill-opacity="0.49"/><path d="M132,-55L190,5L337,26Z" fill="rgb(103, 43, 46)" fill-opacity="0.35"/><path d="M69,135L56,137L76,137Z" fill="rgb(94, 146, 159)" fill-opacity="0.47"/><path d="M18,25L-9,26L41,16Z" fill="rgb(22, 154, 51)" fill-opacity="0.58"/><path d="M83,94L106,84L108,94Z" fill="rgb(26, 142, 30)" fill-opacity="0.50"/><path d="M155,102L142,115L129,100Z" fill="rgb(78, 228, 125)" fill-opacity="0.45"/><path d="M145,84L132,61L132,74Z" fill="rgb(39, 20, 0)" fill-opacity="0.61"/><path d="M229,34L189,27L221,11Z" fill="rgb(255, 54, 117)" fill-opacity="0.36"/><path d="M203,121L210,134L192,134Z" fill="rgb(51, 52, 73)" fill-opacity="0.47"/><path d="M25,69L25,86L38,85Z" fill="rgb(109, 110, 210)" fill-opacity="0.42"/><path d="M146,56L141,76L134,55Z" fill="rgb(220, 104, 0)" fill-opacity="0.23"/><path d="M13,53L8,56L2,53Z" fill="rgb(5, 0, 24)" fill-opacity="0.54"/><path d="M53,19L50,17L34,52Z" fill="rgb(0, 30, 10)" fill-opacity="0.38"/><path d="M44,103L90,97L80,86Z" fill="rgb(16, 19, 18)" fill-opacity="0.57"/><path d="M142,107L151,113L114,116Z" fill="rgb(51, 252, 128)" fill-opacity="0.36"/><path d="M243,15L246,26L222,30Z" fill="rgb(222, 8, 68)" fill-opacity="0.47"/><path d="M93,24L101,20L92,-3Z" fill="rgb(32, 116, 50)" fill-opacity="0.45"/><path d="M-13,117L31,110L29,127Z" fill="rgb(15, 63, 58)" fill-opacity="0.63"/><path d="M91,81L86,59L87,88Z" fill="rgb(242, 130, 114)" fill-opacity="0.43"/><path d="M156,43L144,36L122,36Z" fill="rgb(72, 68, 75)" fill-opacity="0.49"/><path d="M232,82L229,78L236,74Z" fill="rgb(95, 14, 62)" fill-opacity="0.55"/><path d="M252,139L254,132L240,134Z" fill="rgb(86, 0, 0)" fill-opacity="0.60"/><path d="M91,87L90,70L96,89Z" fill="rgb(7, 10, 4)" fill-opacity="0.58"/><path d="M133,62L111,66L143,43Z" fill="rgb(6, 5, 6)" fill-opacity="0.50"/><path d="M74,52L69,70L81,64Z" fill="rgb(130, 90, 107)" fill-opacity="0.48"/><path d="M78,70L78,44L71,84Z" fill="rgb(126, 112, 147)" fill-opacity="0.29"/><path d="M52,100L57,73L69,90Z" fill="rgb(0, 55, 44)" fill-opacity="0.52"/><path d="M164,82L173,91L166,88Z" fill="rgb(17, 28, 130)" fill-opacity="0.50"/><path d="M100,85L105,75L108,79Z" fill="rgb(62, 105, 103)" fill-opacity="0.50"/><path d="M56,29L61,76L33,61Z" fill="rgb(18, 44, 34)" fill-opacity="0.63"/><path d="M26,94L33,92L32,88Z" fill="rgb(143, 151, 253)" fill-opacity="0.50"/><path d="M167,43L190,25L158,26Z" fill="rgb(171, 32, 61)" fill-opacity="0.43"/><path d="M95,77L101,86L96,87Z" fill="rgb(89, 180, 210)" fill-opacity="0.44"/><path d="M45,72L26,73L25,76Z" fill="rgb(174, 169, 233)" fill-opacity="0.60"/><path d="M135,30L186,21L105,-86Z" fill="rgb(86, 165, 89)" fill-opacity="0.39"/><path d="M152,120L164,104L149,107Z" fill="rgb(0, 2, 36)" fill-opacity="0.47"/><path d="M52,80L44,75L37,85Z" fill="rgb(30, 22, 96)" fill-opacity="0.46"/><path d="M135,44L78,49L108,55Z" fill="rgb(25, 68, 60)" fill-opacity="0.56"/><path d="M182,59L178,54L188,56Z" fill="rgb(208, 20, 2)" fill-opacity="0.30"/><path d="M43,3L38,-38L-10,31Z" fill="rgb(27, 148, 48)" fill-opacity="0.59"/><path d="M148,54L139,72L121,81Z" fill="rgb(222, 153, 0)" fill-opacity="0.16"/><path d="M201,39L199,30L180,43Z" fill="rgb(254, 80, 154)" fill-opacity="0.49"/><path d="M234,133L151,125L178,112Z" fill="rgb(56, 29, 40)" fill-opacity="0.58"/><path d="M165,113L177,107L182,113Z" fill="rgb(46, 221, 98)" fill-opacity="0.59"/><path d="M31,71L53,68L18,49Z" fill="rgb(25, 46, 56)" fill-opacity="0.55"/><path d="M101,104L108,100L111,116Z" fill="rgb(54, 190, 101)" fill-opacity="0.54"/><path d="M54,81L40,84L51,88Z" fill="rgb(123, 139, 252)" fill-opacity="0.38"/><path d="M213,11L229,-9L254,26Z" fill="rgb(177, 22, 57)" fill-opacity="0.42"/><path d="M0,72L41,72L8,56Z" fill="rgb(12, 11, 14)" fill-opacity="0.57"/><path d="M22,67L25,101L-57,129Z" fill="rgb(11, 8, 15)" fill-opacity="0.78"/><path d="M273,31L237,28L271,22Z" fill="rgb(70, 9, 40)" fill-opacity="0.50"/><path d="M130,144L133,145L133,138Z" fill="rgb(59, 103, 130)" fill-opacity="0.53"/><path d="M175,56L165,60L167,56Z" fill="rgb(202, 51, 23)" fill-opacity="0.45"/><path d="M196,44L185,43L211,38Z" fill="rgb(128, 5, 49)" fill-opacity="0.50"/><path d="M100,94L122,101L192,96Z" fill="rgb(44, 25, 24)" fill-opacity="0.54"/><path d="M52,160L39,140L7,160Z" fill="rgb(37, 40, 36)" fill-opacity="0.43"/><path d="M66,28L42,30L82,34Z" fill="rgb(22, 114, 37)" fill-opacity="0.47"/><path d="M94,95L97,72L97,86Z" fill="rgb(94, 189, 176)" fill-opacity="0.43"/><path d="M147,90L151,94L154,88Z" fill="rgb(38, 28, 244)" fill-opacity="0.50"/><path d="M61,116L60,97L47,115Z" fill="rgb(38, 133, 91)" fill-opacity="0.38"/><path d="M24,104L34,101L10,96Z" fill="rgb(13, 30, 10)" fill-opacity="0.50"/><path d="M224,37L204,41L204,43Z" fill="rgb(243, 137, 229)" fill-opacity="0.39"/><path d="M158,101L177,112L166,111Z" fill="rgb(58, 233, 138)" fill-opacity="0.45"/><path d="M190,102L189,105L178,105Z" fill="rgb(13, 166, 89)" fill-opacity="0.55"/><path d="M132,80L142,83L131,83Z" fill="rgb(62, 80, 158)" fill-opacity="0.63"/><path d="M183,100L139,100L146,91Z" fill="rgb(22, 23, 37)" fill-opacity="0.45"/><path d="M167,133L169,127L113,130Z" fill="rgb(12, 12, 12)" fill-opacity="0.75"/><path d="M32,40L29,30L41,27Z" fill="rgb(37, 218, 83)" fill-opacity="0.52"/><path d="M206,79L205,75L210,79Z" fill="rgb(196, 50, 115)" fill-opacity="0.54"/><path d="M84,56L92,59L88,81Z" fill="rgb(179, 86, 86)" fill-opacity="0.44"/><path d="M168,-79L130,31L85,20Z" fill="rgb(33, 203, 80)" fill-opacity="0.22"/><path d="M58,71L45,74L17,74Z" fill="rgb(186, 185, 225)" fill-opacity="0.48"/><path d="M179,27L189,43L194,25Z" fill="rgb(247, 34, 93)" fill-opacity="0.48"/><path d="M223,160L229,140L202,120Z" fill="rgb(2, 5, 18)" fill-opacity="0.44"/><path d="M178,132L153,139L180,148Z" fill="rgb(34, 37, 21)" fill-opacity="0.58"/><path d="M95,25L112,29L125,74Z" fill="rgb(15, 15, 16)" fill-opacity="0.61"/><path d="M64,81L68,78L60,71Z" fill="rgb(155, 252, 201)" fill-opacity="0.52"/><path d="M56,105L38,79L34,90Z" fill="rgb(55, 63, 134)" fill-opacity="0.57"/><path d="M163,73L141,81L143,63Z" fill="rgb(31, 7, 0)" fill-opacity="0.55"/><path d="M236,143L238,157L226,146Z" fill="rgb(42, 48, 121)" fill-opacity="0.45"/><path d="M121,70L105,65L118,78Z" fill="rgb(13, 7, 26)" fill-opacity="0.60"/><path d="M156,36L165,41L180,42Z" fill="rgb(116, 66, 104)" fill-opacity="0.52"/><path d="M135,61L135,56L144,52Z" fill="rgb(101, 47, 0)" fill-opacity="0.53"/><path d="M80,59L101,55L76,51Z" fill="rgb(26, 15, 30)" fill-opacity="0.54"/><path d="M54,26L22,19L-9,8Z" fill="rgb(24, 69, 22)" fill-opacity="0.47"/><path d="M53,63L60,71L71,58Z" fill="rgb(1, 0, 4)" fill-opacity="0.51"/><path d="M49,99L55,90L49,88Z" fill="rgb(76, 80, 168)" fill-opacity="0.49"/><path d="M50,135L63,135L55,138Z" fill="rgb(67, 111, 128)" fill-opacity="0.41"/><path d="M7,24L31,45L16,53Z" fill="rgb(6, 23, 16)" fill-opacity="0.62"/><path d="M254,96L253,106L272,124Z" fill="rgb(4, 255, 40)" fill-opacity="0.23"/><path d="M116,29L145,24L100,15Z" fill="rgb(59, 204, 86)" fill-opacity="0.54"/><path d="M14,55L23,55L20,57Z" fill="rgb(255, 77, 35)" fill-opacity="0.54"/><path d="M56,95L57,84L59,93Z" fill="rgb(26, 138, 115)" fill-opacity="0.49"/><path d="M10,124L45,125L39,111Z" fill="rgb(20, 69, 75)" fill-opacity="0.32"/><path d="M88,53L89,50L107,52Z" fill="rgb(27, 149, 135)" fill-opacity="0.42"/><path d="M198,98L197,92L171,93Z" fill="rgb(120, 11, 26)" fill-opacity="0.64"/><path d="M106,125L103,99L95,94Z" fill="rgb(78, 67, 86)" fill-opacity="0.54"/><path d="M233,88L245,80L238,104Z" fill="rgb(0, 42, 4)" fill-opacity="0.55"/><path d="M27,137L-3,161L-11,110Z" fill="rgb(13, 3, 11)" fill-opacity="0.63"/><path d="M61,77L61,70L66,70Z" fill="rgb(188, 255, 230)" fill-opacity="0.48"/><path d="M199,71L169,84L204,95Z" fill="rgb(0, 2, 2)" fill-opacity="0.51"/><path d="M226,41L236,24L243,38Z" fill="rgb(221, 36, 93)" fill-opacity="0.54"/><path d="M215,15L195,26L188,17Z" fill="rgb(197, 137, 69)" fill-opacity="0.33"/><path d="M73,79L56,84L86,98Z" fill="rgb(2, 20, 15)" fill-opacity="0.52"/><path d="M226,28L269,26L225,30Z" fill="rgb(118, 14, 46)" fill-opacity="0.52"/><path d="M161,98L171,106L194,101Z" fill="rgb(27, 99, 70)" fill-opacity="0.36"/><path d="M46,31L16,50L110,33Z" fill="rgb(1, 30, 14)" fill-opacity="0.30"/><path d="M156,41L145,33L168,29Z" fill="rgb(89, 25, 36)" fill-opacity="0.52"/><path d="M172,91L155,81L153,93Z" fill="rgb(0, 0, 12)" fill-opacity="0.53"/><path d="M30,43L40,16L31,47Z" fill="rgb(31, 177, 66)" fill-opacity="0.45"/><path d="M83,135L84,138L45,136Z" fill="rgb(53, 82, 92)" fill-opacity="0.62"/><path d="M230,29L215,34L228,40Z" fill="rgb(255, 74, 154)" fill-opacity="0.47"/><path d="M244,0L256,20L260,-3Z" fill="rgb(88, 51, 40)" fill-opacity="0.49"/><path d="M194,92L189,108L200,122Z" fill="rgb(107, 0, 9)" fill-opacity="0.60"/><path d="M162,139L167,127L166,135Z" fill="rgb(125, 129, 74)" fill-opacity="0.40"/><path d="M201,147L191,121L185,123Z" fill="rgb(72, 22, 25)" fill-opacity="0.46"/><path d="M48,74L22,85L31,74Z" fill="rgb(60, 60, 133)" fill-opacity="0.59"/><path d="M90,129L77,110L73,129Z" fill="rgb(8, 7, 6)" fill-opacity="0.44"/><path d="M224,75L217,81L219,76Z" fill="rgb(121, 12, 57)" fill-opacity="0.48"/><path d="M25,31L22,35L17,15Z" fill="rgb(3, 43, 14)" fill-opacity="0.47"/></svg>