<svg xmlns="http://www.w3.org/2000/svg" viewBox="0 0 256 169.55844155844156" clip-path="url(#clip)" width="512" height="339.1168831168831"><defs><clipPath id="clip" clipPathUnits="objectBoundingBox"><rect x="0" y="0" width="256" height="169.55844155844156"/></clipPath></defs><rect x="0" y="0" width="256" height="169.55844155844156" fill="rgb(88, 87, 90)"/><path d="M-111,268L430,72L-9,101Z" fill="rgb(240, 251, 253)" fill-opacity="0.26"/><path d="M142,10L-21,-104L-9,89Z" fill="rgb(27, 18, 16)" fill-opacity="0.93"/><path d="M69,77L240,-92L262,13Z" fill="rgb(162, 165, 167)" fill-opacity="0.66"/><path d="M38,90L69,112L22,116Z" fill="rgb(0, 0, 0)" fill-opacity="0.55"/><path d="M223,15L212,89L248,76Z" fill="rgb(1, 2, 5)" fill-opacity="0.67"/><path d="M0,77L126,37L42,92Z" fill="rgb(255, 255, 253)" fill-opacity="0.28"/><path d="M199,98L218,58L189,46Z" fill="rgb(157, 166, 172)" fill-opacity="0.59"/><path d="M160,86L185,35L192,88Z" fill="rgb(2, 1, 1)" fill-opacity="0.59"/><path d="M184,12L201,0L158,-2Z" fill="rgb(21, 8, 0)" fill-opacity="0.48"/><path d="M3,73L5,117L42,49Z" fill="rgb(134, 129, 128)" fill-opacity="0.47"/><path d="M212,78L247,51L232,22Z" fill="rgb(6, 7, 9)" fill-opacity="0.57"/><path d="M200,155L159,155L191,250Z" fill="rgb(79, 77, 77)" fill-opacity="1.00"/><path d="M24,103L44,82L35,124Z" fill="rgb(10, 2, 0)" fill-opacity="0.39"/><path d="M118,51L167,88L110,96Z" fill="rgb(148, 155, 159)" fill-opacity="0.60"/><path d="M142,69L150,54L150,91Z" fill="rgb(0, 0, 0)" fill-opacity="0.45"/><path d="M212,164L187,158L168,166Z" fill="rgb(149, 154, 158)" fill-opacity="0.53"/><path d="M325,119L305,157L177,154Z" fill="rgb(138, 141, 147)" fill-opacity="0.74"/><path d="M62,77L48,114L63,108Z" fill="rgb(3, 3, 4)" fill-opacity="0.63"/><path d="M47,108L39,85L34,122Z" fill="rgb(1, 2, 4)" fill-opacity="0.45"/><path d="M162,79L141,93L161,58Z" fill="rgb(160, 170, 175)" fill-opacity="0.49"/><path d="M102,97L90,92L104,86Z" fill="rgb(151, 170, 171)" fill-opacity="0.48"/><path d="M35,70L110,5L139,27Z" fill="rgb(55, 40, 36)" fill-opacity="0.55"/><path d="M180,88L170,84L167,109Z" fill="rgb(188, 113, 8)" fill-opacity="0.52"/><path d="M249,36L236,92L302,-4Z" fill="rgb(189, 207, 219)" fill-opacity="0.30"/><path d="M196,55L212,46L178,34Z" fill="rgb(156, 162, 164)" fill-opacity="0.49"/><path d="M50,116L41,105L57,113Z" fill="rgb(8, 7, 10)" fill-opacity="0.52"/><path d="M118,88L96,73L84,88Z" fill="rgb(5, 8, 2)" fill-opacity="0.49"/><path d="M123,55L136,67L89,83Z" fill="rgb(128, 129, 128)" fill-opacity="0.54"/><path d="M36,40L31,56L40,47Z" fill="rgb(176, 196, 208)" fill-opacity="0.50"/><path d="M82,79L75,105L59,56Z" fill="rgb(156, 162, 163)" fill-opacity="0.39"/><path d="M182,50L169,52L180,40Z" fill="rgb(5, 6, 8)" fill-opacity="0.56"/><path d="M140,63L107,39L148,56Z" fill="rgb(161, 165, 166)" fill-opacity="0.53"/><path d="M225,37L225,35L242,37Z" fill="rgb(164, 167, 167)" fill-opacity="0.52"/><path d="M270,25L234,25L245,36Z" fill="rgb(171, 177, 183)" fill-opacity="0.51"/><path d="M144,79L90,60L142,98Z" fill="rgb(154, 159, 162)" fill-opacity="0.48"/><path d="M160,13L288,-75L170,17Z" fill="rgb(59, 51, 47)" fill-opacity="0.62"/><path d="M-8,79L-6,157L70,155Z" fill="rgb(155, 161, 169)" fill-opacity="0.48"/><path d="M163,75L164,56L185,96Z" fill="rgb(35, 32, 30)" fill-opacity="0.81"/><path d="M40,46L34,44L45,-15Z" fill="rgb(126, 146, 161)" fill-opacity="0.58"/><path d="M39,116L28,119L29,94Z" fill="rgb(10, 6, 4)" fill-opacity="0.52"/><path d="M-61,307L87,127L204,129Z" fill="rgb(168, 171, 175)" fill-opacity="0.38"/><path d="M133,-23L162,72L169,0Z" fill="rgb(154, 157, 157)" fill-opacity="0.56"/><path d="M19,159L14,146L-2,177Z" fill="rgb(73, 76, 79)" fill-opacity="0.54"/><path d="M222,29L220,56L208,50Z" fill="rgb(2, 4, 7)" fill-opacity="0.50"/><path d="M6,89L28,94L36,62Z" fill="rgb(133, 132, 134)" fill-opacity="0.70"/><path d="M197,42L181,47L223,58Z" fill="rgb(157, 161, 165)" fill-opacity="0.42"/><path d="M32,70L-2,87L28,55Z" fill="rgb(54, 39, 34)" fill-opacity="0.47"/><path d="M122,19L118,31L142,18Z" fill="rgb(124, 149, 170)" fill-opacity="0.56"/><path d="M136,80L110,62L141,73Z" fill="rgb(72, 73, 72)" fill-opacity="0.49"/><path d="M156,65L145,51L148,68Z" fill="rgb(3, 5, 9)" fill-opacity="0.50"/><path d="M224,155L181,157L265,159Z" fill="rgb(19, 13, 10)" fill-opacity="0.53"/><path d="M239,37L216,84L243,77Z" fill="rgb(4, 4, 5)" fill-opacity="0.59"/><path d="M60,160L-12,158L59,156Z" fill="rgb(21, 18, 13)" fill-opacity="0.43"/><path d="M78,85L97,85L83,97Z" fill="rgb(9, 12, 4)" fill-opacity="0.54"/><path d="M175,5L189,-1L169,0Z" fill="rgb(20, 5, 6)" fill-opacity="0.56"/><path d="M153,48L80,50L200,3Z" fill="rgb(154, 156, 157)" fill-opacity="0.76"/><path d="M160,52L143,69L172,64Z" fill="rgb(30, 32, 34)" fill-opacity="0.45"/><path d="M175,53L164,42L164,57Z" fill="rgb(151, 157, 157)" fill-opacity="0.48"/><path d="M46,89L11,97L36,99Z" fill="rgb(95, 73, 60)" fill-opacity="0.51"/><path d="M210,54L215,75L219,54Z" fill="rgb(141, 147, 151)" fill-opacity="0.48"/><path d="M123,90L112,87L123,69Z" fill="rgb(167, 170, 173)" fill-opacity="0.59"/><path d="M192,64L185,75L188,49Z" fill="rgb(0, 1, 1)" fill-opacity="0.53"/><path d="M264,44L216,111L292,150Z" fill="rgb(108, 110, 114)" fill-opacity="0.84"/><path d="M205,81L247,49L247,32Z" fill="rgb(15, 15, 17)" fill-opacity="0.49"/><path d="M154,43L86,49L11,89Z" fill="rgb(157, 160, 162)" fill-opacity="0.84"/><path d="M191,96L220,93L192,44Z" fill="rgb(122, 128, 133)" fill-opacity="0.81"/><path d="M188,64L167,42L196,55Z" fill="rgb(33, 32, 32)" fill-opacity="0.51"/><path d="M126,25L124,-7L142,7Z" fill="rgb(61, 74, 77)" fill-opacity="0.57"/><path d="M182,44L183,52L196,53Z" fill="rgb(136, 138, 139)" fill-opacity="0.39"/><path d="M302,72L252,42L239,58Z" fill="rgb(168, 174, 181)" fill-opacity="0.29"/><path d="M167,16L226,-14L161,13Z" fill="rgb(59, 52, 47)" fill-opacity="0.66"/><path d="M265,169L151,170L184,167Z" fill="rgb(11, 10, 12)" fill-opacity="0.75"/><path d="M55,96L58,79L70,95Z" fill="rgb(19, 20, 19)" fill-opacity="0.54"/><path d="M172,99L183,90L191,71Z" fill="rgb(27, 16, 6)" fill-opacity="0.61"/><path d="M231,35L215,41L261,31Z" fill="rgb(99, 101, 102)" fill-opacity="0.53"/><path d="M213,31L216,41L205,38Z" fill="rgb(157, 163, 168)" fill-opacity="0.57"/><path d="M102,91L109,74L114,89Z" fill="rgb(2, 2, 4)" fill-opacity="0.46"/><path d="M189,30L222,46L191,37Z" fill="rgb(60, 61, 62)" fill-opacity="0.67"/><path d="M101,184L47,114L31,119Z" fill="rgb(147, 149, 153)" fill-opacity="0.58"/><path d="M175,98L167,87L178,87Z" fill="rgb(244, 136, 0)" fill-opacity="0.50"/><path d="M49,78L45,106L51,104Z" fill="rgb(157, 162, 165)" fill-opacity="0.48"/><path d="M26,65L-141,30L41,-8Z" fill="rgb(7, 0, 0)" fill-opacity="0.67"/><path d="M49,29L44,-3L72,-14Z" fill="rgb(8, 0, 0)" fill-opacity="0.62"/><path d="M165,162L200,175L144,218Z" fill="rgb(16, 6, 5)" fill-opacity="0.47"/><path d="M146,53L168,-3L137,16Z" fill="rgb(156, 160, 162)" fill-opacity="0.60"/><path d="M163,50L165,35L169,42Z" fill="rgb(89, 89, 88)" fill-opacity="0.46"/><path d="M17,87L18,103L19,82Z" fill="rgb(67, 20, 14)" fill-opacity="0.46"/><path d="M175,159L165,162L192,166Z" fill="rgb(139, 141, 144)" fill-opacity="0.56"/><path d="M61,52L66,8L34,68Z" fill="rgb(22, 1, 0)" fill-opacity="0.58"/><path d="M72,115L65,123L61,91Z" fill="rgb(122, 129, 136)" fill-opacity="0.50"/><path d="M147,103L272,136L144,84Z" fill="rgb(124, 126, 128)" fill-opacity="0.98"/><path d="M251,153L253,176L272,163Z" fill="rgb(120, 124, 129)" fill-opacity="0.97"/><path d="M71,87L60,115L83,93Z" fill="rgb(132, 139, 145)" fill-opacity="0.48"/><path d="M98,76L87,72L76,86Z" fill="rgb(141, 145, 144)" fill-opacity="0.46"/><path d="M210,159L238,166L200,166Z" fill="rgb(153, 159, 162)" fill-opacity="0.44"/><path d="M141,11L135,15L141,-5Z" fill="rgb(34, 42, 39)" fill-opacity="0.45"/><path d="M32,100L33,96L36,95Z" fill="rgb(178, 180, 173)" fill-opacity="0.50"/><path d="M192,55L211,50L197,57Z" fill="rgb(62, 65, 68)" fill-opacity="0.50"/><path d="M31,65L47,33L32,54Z" fill="rgb(112, 116, 118)" fill-opacity="0.54"/><path d="M45,113L57,95L48,95Z" fill="rgb(133, 137, 143)" fill-opacity="0.54"/><path d="M245,155L99,154L148,107Z" fill="rgb(143, 145, 147)" fill-opacity="0.51"/><path d="M153,59L154,67L132,63Z" fill="rgb(18, 19, 21)" fill-opacity="0.51"/><path d="M5,67L27,75L29,59Z" fill="rgb(73, 63, 58)" fill-opacity="0.47"/><path d="M88,84L106,72L95,71Z" fill="rgb(39, 40, 40)" fill-opacity="0.45"/><path d="M62,45L34,71L39,41Z" fill="rgb(25, 13, 8)" fill-opacity="0.44"/><path d="M151,45L138,47L147,58Z" fill="rgb(111, 112, 111)" fill-opacity="0.50"/><path d="M23,74L6,76L13,66Z" fill="rgb(115, 108, 105)" fill-opacity="0.43"/><path d="M192,60L188,70L171,61Z" fill="rgb(3, 2, 5)" fill-opacity="0.54"/><path d="M105,33L67,53L76,-36Z" fill="rgb(24, 9, 5)" fill-opacity="0.41"/><path d="M221,19L187,7L164,38Z" fill="rgb(158, 162, 167)" fill-opacity="0.49"/><path d="M197,91L205,122L256,77Z" fill="rgb(105, 106, 112)" fill-opacity="0.50"/><path d="M-5,38L-8,76L8,80Z" fill="rgb(4, 0, 0)" fill-opacity="0.37"/><path d="M131,60L147,86L124,62Z" fill="rgb(160, 163, 166)" fill-opacity="0.44"/><path d="M31,97L17,122L14,105Z" fill="rgb(164, 166, 169)" fill-opacity="0.36"/><path d="M58,86L79,68L75,90Z" fill="rgb(107, 107, 107)" fill-opacity="0.67"/><path d="M43,9L53,-17L39,-9Z" fill="rgb(119, 148, 167)" fill-opacity="0.49"/><path d="M4,84L-3,117L36,70Z" fill="rgb(142, 142, 143)" fill-opacity="0.55"/><path d="M193,56L191,79L224,65Z" fill="rgb(177, 185, 190)" fill-opacity="0.26"/><path d="M144,66L148,82L153,47Z" fill="rgb(15, 15, 17)" fill-opacity="0.48"/><path d="M161,77L186,82L164,89Z" fill="rgb(17, 16, 16)" fill-opacity="0.52"/><path d="M118,89L109,76L130,83Z" fill="rgb(164, 168, 171)" fill-opacity="0.55"/><path d="M5,165L10,158L6,176Z" fill="rgb(40, 33, 32)" fill-opacity="0.64"/><path d="M253,167L237,161L215,167Z" fill="rgb(131, 136, 141)" fill-opacity="0.47"/><path d="M191,4L219,23L243,5Z" fill="rgb(139, 143, 148)" fill-opacity="0.67"/><path d="M76,82L59,73L85,82Z" fill="rgb(74, 73, 73)" fill-opacity="0.48"/><path d="M60,102L62,95L91,98Z" fill="rgb(143, 151, 156)" fill-opacity="0.55"/><path d="M50,110L23,128L14,157Z" fill="rgb(148, 152, 158)" fill-opacity="0.51"/><path d="M99,84L87,92L114,106Z" fill="rgb(127, 140, 144)" fill-opacity="0.44"/><path d="M170,154L166,165L161,155Z" fill="rgb(35, 22, 19)" fill-opacity="0.51"/><path d="M243,70L208,76L224,85Z" fill="rgb(6, 5, 5)" fill-opacity="0.54"/><path d="M39,69L93,49L42,85Z" fill="rgb(158, 161, 162)" fill-opacity="0.60"/><path d="M150,44L159,49L176,35Z" fill="rgb(93, 91, 89)" fill-opacity="0.36"/><path d="M107,91L115,91L104,96Z" fill="rgb(164, 178, 184)" fill-opacity="0.51"/><path d="M212,49L219,32L223,61Z" fill="rgb(20, 20, 23)" fill-opacity="0.65"/><path d="M265,8L203,27L257,5Z" fill="rgb(92, 96, 99)" fill-opacity="0.54"/><path d="M40,39L49,36L55,20Z" fill="rgb(72, 59, 52)" fill-opacity="0.55"/><path d="M101,80L99,75L94,89Z" fill="rgb(20, 20, 20)" fill-opacity="0.56"/><path d="M89,96L81,98L84,81Z" fill="rgb(23, 25, 23)" fill-opacity="0.47"/><path d="M249,155L253,162L212,158Z" fill="rgb(19, 12, 5)" fill-opacity="0.34"/><path d="M145,65L118,94L141,78Z" fill="rgb(106, 109, 112)" fill-opacity="0.47"/><path d="M218,83L217,60L243,75Z" fill="rgb(11, 11, 12)" fill-opacity="0.65"/><path d="M161,84L156,66L151,77Z" fill="rgb(180, 185, 190)" fill-opacity="0.42"/><path d="M97,77L113,82L107,93Z" fill="rgb(15, 14, 15)" fill-opacity="0.62"/><path d="M168,103L195,81L288,148Z" fill="rgb(119, 120, 123)" fill-opacity="0.72"/><path d="M251,67L240,60L248,84Z" fill="rgb(108, 116, 127)" fill-opacity="0.47"/><path d="M163,81L160,70L167,68Z" fill="rgb(7, 10, 14)" fill-opacity="0.41"/><path d="M123,91L143,73L146,94Z" fill="rgb(142, 152, 158)" fill-opacity="0.54"/><path d="M59,91L71,88L52,107Z" fill="rgb(1, 1, 4)" fill-opacity="0.46"/><path d="M169,91L167,91L168,74Z" fill="rgb(29, 24, 20)" fill-opacity="0.73"/><path d="M98,80L84,72L79,74Z" fill="rgb(43, 45, 46)" fill-opacity="0.54"/><path d="M23,118L28,114L12,158Z" fill="rgb(110, 113, 118)" fill-opacity="0.73"/><path d="M82,84L93,80L79,75Z" fill="rgb(164, 167, 167)" fill-opacity="0.49"/><path d="M226,26L236,23L229,38Z" fill="rgb(13, 14, 15)" fill-opacity="0.56"/><path d="M103,37L117,-17L84,43Z" fill="rgb(20, 32, 34)" fill-opacity="0.48"/><path d="M38,51L68,6L133,-13Z" fill="rgb(24, 3, 0)" fill-opacity="0.63"/><path d="M139,21L144,-20L172,1Z" fill="rgb(152, 154, 156)" fill-opacity="0.67"/><path d="M39,83L58,90L62,81Z" fill="rgb(71, 71, 70)" fill-opacity="0.44"/><path d="M128,40L166,58L137,30Z" fill="rgb(155, 158, 160)" fill-opacity="0.50"/><path d="M214,39L207,37L219,30Z" fill="rgb(161, 165, 170)" fill-opacity="0.55"/><path d="M132,60L122,52L117,62Z" fill="rgb(79, 78, 77)" fill-opacity="0.50"/><path d="M49,115L55,114L37,95Z" fill="rgb(10, 9, 12)" fill-opacity="0.47"/><path d="M184,59L163,64L193,74Z" fill="rgb(18, 17, 19)" fill-opacity="0.49"/><path d="M102,68L103,80L119,66Z" fill="rgb(154, 156, 157)" fill-opacity="0.50"/><path d="M182,89L178,95L178,74Z" fill="rgb(12, 8, 7)" fill-opacity="0.63"/><path d="M218,67L211,72L215,86Z" fill="rgb(14, 12, 15)" fill-opacity="0.58"/><path d="M257,39L232,48L264,32Z" fill="rgb(39, 39, 42)" fill-opacity="0.54"/><path d="M46,102L46,110L50,103Z" fill="rgb(166, 175, 180)" fill-opacity="0.44"/><path d="M45,43L58,55L49,60Z" fill="rgb(10, 0, 0)" fill-opacity="0.60"/><path d="M103,81L152,68L113,75Z" fill="rgb(70, 70, 71)" fill-opacity="0.51"/><path d="M88,94L100,67L94,74Z" fill="rgb(29, 30, 28)" fill-opacity="0.50"/><path d="M88,86L98,87L65,74Z" fill="rgb(63, 65, 60)" fill-opacity="0.47"/><path d="M70,112L52,114L72,107Z" fill="rgb(122, 128, 135)" fill-opacity="0.54"/><path d="M80,97L65,115L80,80Z" fill="rgb(150, 158, 164)" fill-opacity="0.42"/><path d="M193,38L194,29L185,41Z" fill="rgb(62, 63, 63)" fill-opacity="0.57"/><path d="M174,74L183,90L190,79Z" fill="rgb(9, 9, 12)" fill-opacity="0.63"/><path d="M67,4L69,-11L77,2Z" fill="rgb(74, 70, 67)" fill-opacity="0.52"/><path d="M123,28L54,57L67,24Z" fill="rgb(44, 35, 33)" fill-opacity="0.46"/><path d="M236,80L253,69L197,119Z" fill="rgb(109, 112, 117)" fill-opacity="0.63"/><path d="M142,77L146,79L155,60Z" fill="rgb(28, 25, 28)" fill-opacity="0.53"/><path d="M119,91L105,101L96,102Z" fill="rgb(78, 88, 96)" fill-opacity="0.50"/><path d="M256,44L254,48L233,35Z" fill="rgb(133, 135, 138)" fill-opacity="0.56"/><path d="M31,64L49,82L22,90Z" fill="rgb(143, 148, 149)" fill-opacity="0.58"/><path d="M126,67L120,61L136,65Z" fill="rgb(183, 187, 191)" fill-opacity="0.46"/><path d="M203,41L193,53L186,49Z" fill="rgb(153, 155, 158)" fill-opacity="0.69"/><path d="M112,75L100,73L107,70Z" fill="rgb(61, 62, 60)" fill-opacity="0.51"/><path d="M127,-5L113,1L116,30Z" fill="rgb(67, 17, 5)" fill-opacity="0.55"/><path d="M56,159L158,191L163,144Z" fill="rgb(147, 152, 157)" fill-opacity="0.57"/><path d="M48,104L26,117L42,116Z" fill="rgb(14, 8, 7)" fill-opacity="0.47"/><path d="M230,27L229,22L214,27Z" fill="rgb(115, 122, 126)" fill-opacity="0.52"/><path d="M17,98L22,100L19,71Z" fill="rgb(85, 51, 42)" fill-opacity="0.42"/><path d="M78,47L93,-33L87,42Z" fill="rgb(63, 6, 0)" fill-opacity="0.36"/><path d="M252,38L248,44L227,25Z" fill="rgb(34, 35, 35)" fill-opacity="0.35"/><path d="M50,116L58,98L65,107Z" fill="rgb(3, 3, 5)" fill-opacity="0.54"/><path d="M41,87L35,85L49,116Z" fill="rgb(32, 33, 34)" fill-opacity="0.46"/><path d="M168,73L176,74L184,73Z" fill="rgb(237, 247, 255)" fill-opacity="0.36"/><path d="M224,55L208,51L222,49Z" fill="rgb(0, 0, 0)" fill-opacity="0.42"/><path d="M189,37L178,51L173,45Z" fill="rgb(18, 18, 20)" fill-opacity="0.47"/><path d="M220,27L212,32L240,23Z" fill="rgb(31, 32, 32)" fill-opacity="0.48"/><path d="M146,61L146,53L135,58Z" fill="rgb(185, 191, 193)" fill-opacity="0.40"/><path d="M188,7L180,18L201,1Z" fill="rgb(135, 133, 131)" fill-opacity="0.61"/></svg>