<svg xmlns="http://www.w3.org/2000/svg" viewBox="0 0 256 169.55844155844156" clip-path="url(#clip)" width="512" height="339.1168831168831"><defs><clipPath id="clip" clipPathUnits="objectBoundingBox"><rect x="0" y="0" width="256" height="169.55844155844156"/></clipPath></defs><rect x="0" y="0" width="256" height="169.55844155844156" fill="rgb(74, 64, 46)"/><path d="M215,44L138,56L214,95Z" fill="rgb(212, 249, 155)" fill-opacity="0.56"/><path d="M241,-34L242,161L420,72Z" fill="rgb(240, 203, 140)" fill-opacity="0.43"/><path d="M226,-163L218,45L-104,55Z" fill="rgb(16, 13, 11)" fill-opacity="0.99"/><path d="M161,122L229,243L264,80Z" fill="rgb(221, 75, 110)" fill-opacity="0.35"/><path d="M61,154L14,139L15,185Z" fill="rgb(12, 243, 45)" fill-opacity="0.51"/><path d="M110,84L98,65L147,93Z" fill="rgb(72, 255, 71)" fill-opacity="0.51"/><path d="M194,62L208,96L174,89Z" fill="rgb(105, 133, 34)" fill-opacity="0.72"/><path d="M175,119L-2,64L116,264Z" fill="rgb(61, 14, 0)" fill-opacity="0.59"/><path d="M216,46L226,83L192,93Z" fill="rgb(130, 174, 102)" fill-opacity="0.46"/><path d="M105,112L69,122L81,142Z" fill="rgb(182, 105, 53)" fill-opacity="0.56"/><path d="M171,84L163,57L192,49Z" fill="rgb(245, 255, 219)" fill-opacity="0.51"/><path d="M109,74L83,55L77,77Z" fill="rgb(50, 182, 30)" fill-opacity="0.63"/><path d="M143,118L118,80L184,72Z" fill="rgb(87, 179, 46)" fill-opacity="0.44"/><path d="M146,65L100,69L77,15Z" fill="rgb(19, 30, 4)" fill-opacity="0.70"/><path d="M219,90L252,114L242,134Z" fill="rgb(59, 23, 0)" fill-opacity="0.47"/><path d="M246,10L254,3L234,-61Z" fill="rgb(237, 247, 154)" fill-opacity="0.85"/><path d="M139,42L166,37L200,69Z" fill="rgb(255, 196, 103)" fill-opacity="0.32"/><path d="M57,157L79,152L44,154Z" fill="rgb(38, 244, 86)" fill-opacity="0.55"/><path d="M177,107L168,148L187,141Z" fill="rgb(235, 128, 190)" fill-opacity="0.49"/><path d="M2,87L1,79L-19,88Z" fill="rgb(221, 255, 201)" fill-opacity="0.79"/><path d="M133,92L77,120L88,78Z" fill="rgb(16, 20, 0)" fill-opacity="0.52"/><path d="M150,82L147,79L118,81Z" fill="rgb(176, 255, 213)" fill-opacity="0.48"/><path d="M153,106L180,98L304,165Z" fill="rgb(159, 75, 69)" fill-opacity="0.76"/><path d="M198,120L238,122L196,139Z" fill="rgb(203, 106, 132)" fill-opacity="0.54"/><path d="M250,116L250,90L265,116Z" fill="rgb(255, 215, 208)" fill-opacity="0.57"/><path d="M147,31L163,69L133,57Z" fill="rgb(162, 55, 7)" fill-opacity="0.63"/><path d="M301,134L228,136L180,194Z" fill="rgb(0, 136, 191)" fill-opacity="0.22"/><path d="M54,55L50,109L33,54Z" fill="rgb(93, 129, 101)" fill-opacity="0.50"/><path d="M250,-4L230,27L237,-18Z" fill="rgb(152, 149, 48)" fill-opacity="0.66"/><path d="M37,137L-6,183L-11,145Z" fill="rgb(45, 152, 3)" fill-opacity="0.62"/><path d="M118,93L138,109L108,112Z" fill="rgb(95, 128, 50)" fill-opacity="0.54"/><path d="M34,126L61,126L24,166Z" fill="rgb(85, 39, 0)" fill-opacity="0.61"/><path d="M161,63L165,81L165,59Z" fill="rgb(249, 255, 145)" fill-opacity="0.45"/><path d="M198,171L215,154L220,175Z" fill="rgb(182, 43, 231)" fill-opacity="0.52"/><path d="M83,70L84,86L97,56Z" fill="rgb(60, 246, 64)" fill-opacity="0.46"/><path d="M180,50L244,44L207,11Z" fill="rgb(21, 23, 9)" fill-opacity="0.63"/><path d="M234,85L251,76L257,95Z" fill="rgb(95, 33, 0)" fill-opacity="0.52"/><path d="M100,52L58,28L51,81Z" fill="rgb(0, 17, 3)" fill-opacity="0.52"/><path d="M12,82L-16,146L48,134Z" fill="rgb(55, 42, 1)" fill-opacity="0.83"/><path d="M81,121L79,140L93,123Z" fill="rgb(135, 174, 72)" fill-opacity="0.66"/><path d="M249,99L243,85L232,108Z" fill="rgb(255, 189, 96)" fill-opacity="0.63"/><path d="M182,142L224,97L200,86Z" fill="rgb(77, 33, 0)" fill-opacity="0.51"/><path d="M180,77L189,73L173,49Z" fill="rgb(220, 255, 194)" fill-opacity="0.48"/><path d="M16,53L30,136L39,56Z" fill="rgb(32, 20, 6)" fill-opacity="0.60"/><path d="M220,168L245,151L219,139Z" fill="rgb(32, 80, 24)" fill-opacity="0.45"/><path d="M210,74L268,78L250,45Z" fill="rgb(113, 141, 62)" fill-opacity="0.54"/><path d="M231,46L206,51L241,55Z" fill="rgb(127, 136, 63)" fill-opacity="0.59"/><path d="M211,105L269,127L220,138Z" fill="rgb(199, 43, 10)" fill-opacity="0.31"/><path d="M160,25L150,70L137,58Z" fill="rgb(218, 70, 16)" fill-opacity="0.36"/><path d="M180,184L213,138L184,120Z" fill="rgb(102, 29, 41)" fill-opacity="0.59"/><path d="M143,95L152,81L160,125Z" fill="rgb(57, 43, 0)" fill-opacity="0.60"/><path d="M222,52L245,28L234,19Z" fill="rgb(24, 17, 0)" fill-opacity="0.46"/><path d="M188,105L181,147L170,128Z" fill="rgb(251, 159, 219)" fill-opacity="0.36"/><path d="M207,50L163,71L166,48Z" fill="rgb(216, 255, 207)" fill-opacity="0.37"/><path d="M210,156L75,342L164,143Z" fill="rgb(96, 18, 60)" fill-opacity="0.51"/><path d="M153,88L148,72L164,45Z" fill="rgb(50, 66, 20)" fill-opacity="0.58"/><path d="M220,109L226,92L254,114Z" fill="rgb(80, 55, 0)" fill-opacity="0.52"/><path d="M220,52L229,60L223,69Z" fill="rgb(0, 8, 0)" fill-opacity="0.57"/><path d="M129,97L123,119L127,140Z" fill="rgb(204, 75, 90)" fill-opacity="0.51"/><path d="M36,166L74,155L56,259Z" fill="rgb(53, 37, 0)" fill-opacity="0.75"/><path d="M143,93L111,101L135,102Z" fill="rgb(51, 219, 79)" fill-opacity="0.55"/><path d="M78,159L52,119L79,127Z" fill="rgb(129, 7, 1)" fill-opacity="0.61"/><path d="M99,109L82,140L100,129Z" fill="rgb(139, 14, 48)" fill-opacity="0.71"/><path d="M264,105L242,87L230,103Z" fill="rgb(255, 205, 121)" fill-opacity="0.36"/><path d="M12,97L-5,90L19,95Z" fill="rgb(177, 120, 73)" fill-opacity="0.39"/><path d="M161,49L195,55L152,58Z" fill="rgb(123, 190, 76)" fill-opacity="0.46"/><path d="M59,159L26,150L41,165Z" fill="rgb(22, 255, 84)" fill-opacity="0.44"/><path d="M20,160L-4,187L37,182Z" fill="rgb(27, 244, 101)" fill-opacity="0.62"/><path d="M236,145L241,157L302,147Z" fill="rgb(102, 127, 195)" fill-opacity="0.44"/><path d="M41,164L30,155L48,146Z" fill="rgb(43, 254, 99)" fill-opacity="0.49"/><path d="M216,117L216,135L213,111Z" fill="rgb(246, 175, 255)" fill-opacity="0.50"/><path d="M190,90L157,85L172,105Z" fill="rgb(48, 77, 0)" fill-opacity="0.50"/><path d="M202,119L222,123L197,123Z" fill="rgb(224, 185, 255)" fill-opacity="0.49"/><path d="M251,8L252,0L242,4Z" fill="rgb(255, 255, 224)" fill-opacity="0.58"/><path d="M234,115L244,131L241,106Z" fill="rgb(47, 20, 23)" fill-opacity="0.62"/><path d="M253,104L257,66L257,121Z" fill="rgb(218, 139, 163)" fill-opacity="0.59"/><path d="M62,92L92,86L51,51Z" fill="rgb(48, 41, 8)" fill-opacity="0.61"/><path d="M238,22L274,21L238,3Z" fill="rgb(148, 149, 41)" fill-opacity="0.52"/><path d="M75,110L51,125L52,84Z" fill="rgb(15, 8, 0)" fill-opacity="0.59"/><path d="M135,82L124,45L119,80Z" fill="rgb(49, 82, 5)" fill-opacity="0.44"/><path d="M173,197L196,162L211,196Z" fill="rgb(130, 57, 252)" fill-opacity="0.43"/><path d="M161,86L179,92L181,63Z" fill="rgb(72, 163, 48)" fill-opacity="0.48"/><path d="M219,71L230,105L246,82Z" fill="rgb(111, 94, 6)" fill-opacity="0.52"/><path d="M191,76L205,72L197,67Z" fill="rgb(84, 209, 91)" fill-opacity="0.55"/><path d="M214,140L212,158L264,227Z" fill="rgb(249, 121, 8)" fill-opacity="0.21"/><path d="M260,127L266,143L246,135Z" fill="rgb(162, 187, 201)" fill-opacity="0.56"/><path d="M216,107L225,96L217,121Z" fill="rgb(149, 118, 102)" fill-opacity="0.56"/><path d="M9,132L51,110L-12,90Z" fill="rgb(21, 45, 9)" fill-opacity="0.50"/><path d="M184,47L167,47L169,29Z" fill="rgb(19, 24, 16)" fill-opacity="0.60"/><path d="M175,97L199,108L194,78Z" fill="rgb(59, 52, 0)" fill-opacity="0.52"/><path d="M2,144L11,153L30,150Z" fill="rgb(63, 39, 0)" fill-opacity="0.47"/><path d="M160,58L171,75L184,54Z" fill="rgb(255, 255, 231)" fill-opacity="0.50"/><path d="M67,76L52,64L78,68Z" fill="rgb(118, 94, 44)" fill-opacity="0.45"/><path d="M132,125L137,92L172,89Z" fill="rgb(108, 109, 33)" fill-opacity="0.38"/><path d="M167,39L160,36L164,45Z" fill="rgb(162, 170, 180)" fill-opacity="0.53"/><path d="M30,152L24,159L10,152Z" fill="rgb(22, 236, 42)" fill-opacity="0.49"/><path d="M227,92L216,46L195,52Z" fill="rgb(116, 122, 110)" fill-opacity="0.51"/><path d="M195,105L208,103L175,89Z" fill="rgb(16, 25, 0)" fill-opacity="0.51"/><path d="M178,109L165,139L142,113Z" fill="rgb(56, 22, 10)" fill-opacity="0.69"/><path d="M0,80L10,76L8,88Z" fill="rgb(170, 59, 1)" fill-opacity="0.46"/><path d="M182,110L201,108L195,126Z" fill="rgb(144, 3, 18)" fill-opacity="0.46"/><path d="M237,56L241,66L243,24Z" fill="rgb(44, 68, 18)" fill-opacity="0.67"/><path d="M-12,166L0,148L8,151Z" fill="rgb(31, 255, 60)" fill-opacity="0.61"/><path d="M88,76L105,69L118,110Z" fill="rgb(49, 62, 13)" fill-opacity="0.58"/><path d="M214,151L212,167L200,158Z" fill="rgb(120, 46, 92)" fill-opacity="0.63"/><path d="M141,61L132,47L157,60Z" fill="rgb(255, 117, 59)" fill-opacity="0.36"/><path d="M37,98L57,72L35,59Z" fill="rgb(77, 105, 65)" fill-opacity="0.49"/><path d="M83,71L95,68L84,79Z" fill="rgb(108, 255, 103)" fill-opacity="0.54"/><path d="M107,70L110,89L122,71Z" fill="rgb(111, 197, 77)" fill-opacity="0.48"/><path d="M58,45L-59,39L-3,64Z" fill="rgb(91, 102, 86)" fill-opacity="0.20"/><path d="M230,135L220,135L240,168Z" fill="rgb(46, 62, 37)" fill-opacity="0.41"/><path d="M150,32L165,47L145,59Z" fill="rgb(110, 39, 5)" fill-opacity="0.61"/><path d="M105,73L137,87L113,85Z" fill="rgb(82, 240, 89)" fill-opacity="0.51"/><path d="M211,130L216,140L215,119Z" fill="rgb(236, 153, 208)" fill-opacity="0.55"/><path d="M141,106L153,110L123,112Z" fill="rgb(48, 199, 88)" fill-opacity="0.41"/><path d="M229,142L240,153L254,137Z" fill="rgb(22, 91, 136)" fill-opacity="0.41"/><path d="M131,104L126,112L102,109Z" fill="rgb(169, 33, 61)" fill-opacity="0.49"/><path d="M232,111L226,100L222,108Z" fill="rgb(7, 19, 0)" fill-opacity="0.50"/><path d="M66,82L67,126L87,89Z" fill="rgb(129, 26, 14)" fill-opacity="0.37"/><path d="M136,67L137,74L108,79Z" fill="rgb(45, 48, 2)" fill-opacity="0.49"/><path d="M189,67L189,54L179,55Z" fill="rgb(226, 177, 75)" fill-opacity="0.55"/><path d="M249,142L244,131L222,130Z" fill="rgb(231, 114, 96)" fill-opacity="0.46"/><path d="M48,113L51,112L48,135Z" fill="rgb(212, 144, 74)" fill-opacity="0.43"/><path d="M44,149L14,151L77,128Z" fill="rgb(80, 18, 0)" fill-opacity="0.57"/><path d="M219,39L240,-8L218,6Z" fill="rgb(68, 82, 3)" fill-opacity="0.60"/><path d="M99,73L99,58L70,54Z" fill="rgb(42, 121, 26)" fill-opacity="0.61"/><path d="M240,85L255,76L253,95Z" fill="rgb(86, 26, 0)" fill-opacity="0.46"/><path d="M160,59L161,77L152,64Z" fill="rgb(30, 47, 6)" fill-opacity="0.56"/><path d="M75,155L137,147L110,110Z" fill="rgb(16, 5, 12)" fill-opacity="0.40"/><path d="M239,50L237,62L246,59Z" fill="rgb(39, 67, 10)" fill-opacity="0.52"/><path d="M162,90L187,112L155,98Z" fill="rgb(59, 51, 0)" fill-opacity="0.48"/><path d="M149,80L140,77L143,94Z" fill="rgb(178, 223, 130)" fill-opacity="0.49"/><path d="M7,78L40,68L-10,62Z" fill="rgb(30, 29, 12)" fill-opacity="0.62"/><path d="M47,90L46,86L47,68Z" fill="rgb(237, 251, 211)" fill-opacity="0.59"/><path d="M-37,127L-3,141L85,132Z" fill="rgb(107, 30, 0)" fill-opacity="0.67"/><path d="M172,64L179,74L186,73Z" fill="rgb(223, 255, 180)" fill-opacity="0.51"/><path d="M198,84L198,92L196,82Z" fill="rgb(227, 246, 191)" fill-opacity="0.50"/><path d="M218,107L185,116L210,121Z" fill="rgb(134, 33, 33)" fill-opacity="0.66"/><path d="M197,84L187,94L190,69Z" fill="rgb(118, 105, 20)" fill-opacity="0.64"/><path d="M14,166L-26,169L-17,155Z" fill="rgb(2, 236, 58)" fill-opacity="0.46"/><path d="M26,169L35,153L25,153Z" fill="rgb(41, 83, 42)" fill-opacity="0.56"/><path d="M59,66L80,63L44,39Z" fill="rgb(12, 17, 17)" fill-opacity="0.65"/><path d="M167,110L186,99L164,106Z" fill="rgb(222, 139, 80)" fill-opacity="0.48"/><path d="M114,143L175,153L156,120Z" fill="rgb(48, 20, 14)" fill-opacity="0.59"/><path d="M204,111L232,90L202,90Z" fill="rgb(77, 93, 6)" fill-opacity="0.43"/><path d="M57,88L83,76L53,77Z" fill="rgb(13, 35, 2)" fill-opacity="0.44"/><path d="M171,47L161,51L181,51Z" fill="rgb(227, 190, 97)" fill-opacity="0.58"/><path d="M36,139L25,147L11,147Z" fill="rgb(45, 244, 58)" fill-opacity="0.54"/><path d="M25,86L18,99L12,92Z" fill="rgb(129, 66, 33)" fill-opacity="0.50"/><path d="M98,55L92,36L105,42Z" fill="rgb(33, 80, 12)" fill-opacity="0.50"/><path d="M35,59L29,74L24,49Z" fill="rgb(2, 3, 11)" fill-opacity="0.45"/><path d="M156,59L191,61L176,65Z" fill="rgb(255, 255, 241)" fill-opacity="0.54"/><path d="M47,40L45,79L40,79Z" fill="rgb(37, 38, 31)" fill-opacity="0.59"/><path d="M95,61L98,54L101,92Z" fill="rgb(125, 90, 77)" fill-opacity="0.48"/><path d="M137,58L146,79L139,76Z" fill="rgb(186, 95, 9)" fill-opacity="0.40"/><path d="M219,44L242,36L197,28Z" fill="rgb(8, 3, 8)" fill-opacity="0.50"/><path d="M145,35L149,48L152,37Z" fill="rgb(54, 22, 3)" fill-opacity="0.57"/><path d="M183,108L187,97L144,139Z" fill="rgb(81, 25, 12)" fill-opacity="0.57"/><path d="M147,86L153,74L154,93Z" fill="rgb(0, 11, 19)" fill-opacity="0.46"/><path d="M89,113L96,135L100,110Z" fill="rgb(160, 15, 37)" fill-opacity="0.48"/><path d="M-26,134L-23,103L16,107Z" fill="rgb(72, 138, 30)" fill-opacity="0.44"/><path d="M151,99L131,78L136,93Z" fill="rgb(41, 92, 35)" fill-opacity="0.50"/><path d="M130,98L81,97L133,90Z" fill="rgb(32, 34, 4)" fill-opacity="0.77"/><path d="M228,14L230,30L234,16Z" fill="rgb(187, 125, 74)" fill-opacity="0.42"/><path d="M232,50L232,63L224,47Z" fill="rgb(130, 132, 65)" fill-opacity="0.56"/><path d="M247,172L238,162L246,147Z" fill="rgb(137, 130, 123)" fill-opacity="0.51"/><path d="M15,168L5,156L18,145Z" fill="rgb(56, 68, 3)" fill-opacity="0.55"/><path d="M135,53L153,63L152,55Z" fill="rgb(255, 109, 60)" fill-opacity="0.46"/><path d="M65,148L66,131L52,154Z" fill="rgb(21, 13, 17)" fill-opacity="0.48"/><path d="M79,130L87,128L88,137Z" fill="rgb(170, 22, 48)" fill-opacity="0.47"/><path d="M151,109L147,108L144,110Z" fill="rgb(18, 255, 119)" fill-opacity="0.52"/><path d="M203,109L173,91L199,94Z" fill="rgb(34, 35, 0)" fill-opacity="0.60"/><path d="M248,103L253,111L254,95Z" fill="rgb(255, 255, 255)" fill-opacity="0.52"/><path d="M200,81L209,80L209,90Z" fill="rgb(171, 255, 163)" fill-opacity="0.58"/><path d="M218,118L240,124L233,127Z" fill="rgb(254, 99, 51)" fill-opacity="0.51"/><path d="M150,68L134,50L151,61Z" fill="rgb(227, 101, 53)" fill-opacity="0.62"/><path d="M159,77L154,86L153,101Z" fill="rgb(136, 185, 85)" fill-opacity="0.46"/><path d="M94,56L75,64L96,73Z" fill="rgb(9, 167, 2)" fill-opacity="0.47"/><path d="M171,98L174,120L179,109Z" fill="rgb(100, 26, 12)" fill-opacity="0.54"/><path d="M198,54L179,54L204,48Z" fill="rgb(164, 223, 211)" fill-opacity="0.60"/><path d="M182,150L167,140L171,127Z" fill="rgb(158, 81, 92)" fill-opacity="0.49"/><path d="M83,85L98,79L90,104Z" fill="rgb(5, 0, 12)" fill-opacity="0.52"/><path d="M237,118L219,113L231,113Z" fill="rgb(218, 99, 50)" fill-opacity="0.50"/><path d="M205,169L212,177L220,159Z" fill="rgb(163, 73, 240)" fill-opacity="0.49"/><path d="M131,68L125,49L125,69Z" fill="rgb(135, 173, 57)" fill-opacity="0.41"/><path d="M230,85L240,67L239,88Z" fill="rgb(50, 43, 1)" fill-opacity="0.50"/><path d="M312,84L245,17L241,52Z" fill="rgb(129, 181, 93)" fill-opacity="0.45"/><path d="M200,138L196,132L200,120Z" fill="rgb(242, 169, 255)" fill-opacity="0.38"/><path d="M81,147L67,156L79,139Z" fill="rgb(120, 13, 20)" fill-opacity="0.58"/><path d="M49,91L50,81L50,122Z" fill="rgb(216, 191, 189)" fill-opacity="0.53"/><path d="M189,167L182,170L188,154Z" fill="rgb(113, 50, 123)" fill-opacity="0.66"/><path d="M104,85L95,86L85,129Z" fill="rgb(107, 31, 12)" fill-opacity="0.42"/><path d="M124,127L124,119L101,123Z" fill="rgb(7, 10, 21)" fill-opacity="0.50"/><path d="M24,81L37,90L22,105Z" fill="rgb(94, 19, 0)" fill-opacity="0.49"/><path d="M156,51L136,47L161,45Z" fill="rgb(219, 38, 3)" fill-opacity="0.42"/><path d="M117,98L136,98L110,105Z" fill="rgb(1, 227, 61)" fill-opacity="0.46"/><path d="M217,118L229,109L215,150Z" fill="rgb(158, 65, 29)" fill-opacity="0.58"/><path d="M142,119L134,101L143,106Z" fill="rgb(147, 82, 81)" fill-opacity="0.46"/><path d="M177,125L174,131L180,109Z" fill="rgb(131, 77, 106)" fill-opacity="0.50"/><path d="M250,120L257,98L314,129Z" fill="rgb(219, 126, 132)" fill-opacity="1.00"/></svg>