<svg xmlns="http://www.w3.org/2000/svg" viewBox="0 0 256 169.55844155844156" clip-path="url(#clip)" width="512" height="339.1168831168831"><defs><clipPath id="clip" clipPathUnits="objectBoundingBox"><rect x="0" y="0" width="256" height="169.55844155844156"/></clipPath></defs><rect x="0" y="0" width="256" height="169.55844155844156" fill="rgb(42, 88, 89)"/><path d="M32,-54L115,82L395,32Z" fill="rgb(156, 118, 245)" fill-opacity="0.50"/><path d="M88,35L394,132L-142,284Z" fill="rgb(64, 67, 0)" fill-opacity="0.40"/><path d="M201,92L51,98L147,14Z" fill="rgb(255, 97, 132)" fill-opacity="0.24"/><path d="M125,183L118,98L227,173Z" fill="rgb(21, 139, 42)" fill-opacity="0.67"/><path d="M200,118L129,119L177,135Z" fill="rgb(104, 149, 237)" fill-opacity="0.42"/><path d="M124,86L135,56L171,62Z" fill="rgb(213, 68, 81)" fill-opacity="0.42"/><path d="M60,329L7,145L110,148Z" fill="rgb(41, 142, 0)" fill-opacity="0.63"/><path d="M70,103L143,72L98,55Z" fill="rgb(132, 97, 46)" fill-opacity="0.55"/><path d="M30,47L112,118L23,33Z" fill="rgb(73, 243, 102)" fill-opacity="0.48"/><path d="M4,34L51,45L-10,-16Z" fill="rgb(15, 32, 38)" fill-opacity="0.45"/><path d="M282,41L70,35L70,-134Z" fill="rgb(86, 112, 196)" fill-opacity="0.77"/><path d="M114,77L98,70L103,90Z" fill="rgb(188, 117, 40)" fill-opacity="0.56"/><path d="M126,103L104,111L164,108Z" fill="rgb(169, 197, 165)" fill-opacity="0.39"/><path d="M250,71L177,144L269,194Z" fill="rgb(3, 37, 32)" fill-opacity="0.64"/><path d="M41,122L24,128L38,116Z" fill="rgb(156, 167, 255)" fill-opacity="0.50"/><path d="M17,175L-24,165L5,107Z" fill="rgb(11, 43, 3)" fill-opacity="0.62"/><path d="M43,2L70,-13L69,74Z" fill="rgb(25, 17, 26)" fill-opacity="0.59"/><path d="M122,37L83,78L32,37Z" fill="rgb(67, 50, 58)" fill-opacity="0.49"/><path d="M107,141L105,183L148,163Z" fill="rgb(21, 62, 20)" fill-opacity="0.76"/><path d="M120,125L148,117L127,112Z" fill="rgb(45, 204, 40)" fill-opacity="0.62"/><path d="M-42,122L176,132L29,152Z" fill="rgb(2, 10, 2)" fill-opacity="0.35"/><path d="M239,-85L272,79L207,58Z" fill="rgb(65, 99, 173)" fill-opacity="0.83"/><path d="M54,66L40,55L51,52Z" fill="rgb(99, 251, 134)" fill-opacity="0.48"/><path d="M72,88L77,77L118,126Z" fill="rgb(78, 243, 58)" fill-opacity="0.35"/><path d="M106,142L196,157L167,166Z" fill="rgb(9, 209, 39)" fill-opacity="0.50"/><path d="M133,61L180,9L109,47Z" fill="rgb(130, 116, 181)" fill-opacity="0.67"/><path d="M321,157L225,58L145,73Z" fill="rgb(44, 51, 92)" fill-opacity="0.38"/><path d="M124,124L171,156L195,134Z" fill="rgb(42, 75, 51)" fill-opacity="0.56"/><path d="M27,149L17,99L26,55Z" fill="rgb(24, 45, 47)" fill-opacity="0.92"/><path d="M178,153L231,280L222,162Z" fill="rgb(2, 156, 30)" fill-opacity="0.65"/><path d="M162,110L238,66L218,131Z" fill="rgb(35, 53, 61)" fill-opacity="0.72"/><path d="M265,118L227,84L234,117Z" fill="rgb(32, 104, 40)" fill-opacity="0.42"/><path d="M137,61L136,70L165,66Z" fill="rgb(255, 102, 112)" fill-opacity="0.42"/><path d="M50,64L49,103L13,45Z" fill="rgb(75, 95, 105)" fill-opacity="0.64"/><path d="M48,168L69,141L133,188Z" fill="rgb(61, 158, 23)" fill-opacity="0.43"/><path d="M108,89L101,33L173,123Z" fill="rgb(112, 67, 81)" fill-opacity="0.41"/><path d="M161,51L189,87L140,51Z" fill="rgb(125, 66, 101)" fill-opacity="0.47"/><path d="M141,0L219,64L115,46Z" fill="rgb(130, 114, 181)" fill-opacity="0.52"/><path d="M76,90L125,108L126,138Z" fill="rgb(54, 160, 43)" fill-opacity="0.39"/><path d="M17,44L19,137L6,122Z" fill="rgb(60, 76, 138)" fill-opacity="0.43"/><path d="M145,116L200,121L192,131Z" fill="rgb(68, 110, 162)" fill-opacity="0.57"/><path d="M26,110L33,76L30,140Z" fill="rgb(53, 69, 172)" fill-opacity="0.37"/><path d="M178,155L162,189L162,126Z" fill="rgb(41, 151, 79)" fill-opacity="0.44"/><path d="M27,43L28,39L30,42Z" fill="rgb(227, 255, 255)" fill-opacity="0.50"/><path d="M49,136L29,85L89,101Z" fill="rgb(50, 35, 62)" fill-opacity="0.43"/><path d="M51,122L51,115L58,122Z" fill="rgb(153, 167, 227)" fill-opacity="0.53"/><path d="M93,84L85,78L85,93Z" fill="rgb(192, 147, 42)" fill-opacity="0.49"/><path d="M166,134L135,122L172,115Z" fill="rgb(123, 120, 196)" fill-opacity="0.28"/><path d="M176,130L173,153L455,173Z" fill="rgb(10, 35, 23)" fill-opacity="0.47"/><path d="M108,107L88,87L213,92Z" fill="rgb(79, 71, 61)" fill-opacity="0.63"/><path d="M19,1L40,-2L39,24Z" fill="rgb(31, 22, 55)" fill-opacity="0.51"/><path d="M209,97L219,109L205,104Z" fill="rgb(59, 102, 132)" fill-opacity="0.51"/><path d="M97,113L-46,143L138,145Z" fill="rgb(27, 40, 18)" fill-opacity="0.41"/><path d="M133,87L168,58L170,82Z" fill="rgb(133, 74, 101)" fill-opacity="0.52"/><path d="M121,107L131,107L137,103Z" fill="rgb(140, 255, 141)" fill-opacity="0.48"/><path d="M161,162L159,171L134,156Z" fill="rgb(4, 60, 16)" fill-opacity="0.56"/><path d="M144,31L74,38L67,-9Z" fill="rgb(102, 127, 204)" fill-opacity="0.42"/><path d="M136,99L211,54L182,107Z" fill="rgb(77, 63, 97)" fill-opacity="0.39"/><path d="M45,69L50,94L31,102Z" fill="rgb(84, 90, 111)" fill-opacity="0.55"/><path d="M125,144L105,152L176,152Z" fill="rgb(14, 187, 26)" fill-opacity="0.51"/><path d="M41,123L37,119L30,123Z" fill="rgb(255, 255, 255)" fill-opacity="0.46"/><path d="M227,164L216,155L186,207Z" fill="rgb(4, 90, 22)" fill-opacity="0.53"/><path d="M136,110L121,114L144,125Z" fill="rgb(51, 167, 35)" fill-opacity="0.51"/><path d="M291,79L219,65L203,80Z" fill="rgb(14, 32, 74)" fill-opacity="0.50"/><path d="M72,99L28,108L45,125Z" fill="rgb(41, 47, 50)" fill-opacity="0.76"/><path d="M59,120L78,91L104,123Z" fill="rgb(77, 61, 48)" fill-opacity="0.54"/><path d="M148,106L122,104L129,108Z" fill="rgb(153, 242, 145)" fill-opacity="0.48"/><path d="M166,155L126,152L143,158Z" fill="rgb(15, 207, 37)" fill-opacity="0.66"/><path d="M10,36L17,16L26,42Z" fill="rgb(1, 32, 19)" fill-opacity="0.43"/><path d="M-61,108L22,41L18,88Z" fill="rgb(54, 96, 107)" fill-opacity="0.68"/><path d="M186,114L219,115L197,124Z" fill="rgb(24, 45, 32)" fill-opacity="0.59"/><path d="M105,88L102,80L109,86Z" fill="rgb(251, 182, 18)" fill-opacity="0.45"/><path d="M17,104L18,135L29,128Z" fill="rgb(19, 35, 66)" fill-opacity="0.51"/><path d="M106,106L81,109L104,114Z" fill="rgb(109, 162, 74)" fill-opacity="0.43"/><path d="M173,116L204,128L163,131Z" fill="rgb(70, 125, 156)" fill-opacity="0.40"/><path d="M7,107L3,130L2,91Z" fill="rgb(25, 27, 47)" fill-opacity="0.47"/><path d="M234,110L241,113L235,115Z" fill="rgb(91, 163, 93)" fill-opacity="0.56"/><path d="M161,94L214,90L205,62Z" fill="rgb(65, 68, 90)" fill-opacity="0.56"/><path d="M131,58L109,65L136,46Z" fill="rgb(133, 115, 167)" fill-opacity="0.54"/><path d="M59,71L96,48L100,76Z" fill="rgb(71, 66, 59)" fill-opacity="0.64"/><path d="M194,162L211,172L200,171Z" fill="rgb(19, 237, 47)" fill-opacity="0.57"/><path d="M78,99L65,72L77,74Z" fill="rgb(107, 129, 68)" fill-opacity="0.55"/><path d="M74,142L97,146L73,150Z" fill="rgb(37, 99, 12)" fill-opacity="0.49"/><path d="M138,112L151,71L147,135Z" fill="rgb(148, 103, 140)" fill-opacity="0.17"/><path d="M-40,130L37,223L19,163Z" fill="rgb(33, 91, 16)" fill-opacity="0.99"/><path d="M167,68L149,50L182,66Z" fill="rgb(120, 68, 99)" fill-opacity="0.61"/><path d="M31,118L38,65L40,120Z" fill="rgb(31, 47, 68)" fill-opacity="0.44"/><path d="M50,35L47,3L29,29Z" fill="rgb(80, 75, 122)" fill-opacity="0.39"/><path d="M203,92L227,86L236,111Z" fill="rgb(19, 57, 38)" fill-opacity="0.52"/><path d="M113,75L102,79L109,61Z" fill="rgb(179, 108, 54)" fill-opacity="0.58"/><path d="M186,65L114,22L182,36Z" fill="rgb(133, 111, 175)" fill-opacity="0.56"/><path d="M112,60L113,42L64,33Z" fill="rgb(73, 61, 75)" fill-opacity="0.60"/><path d="M66,39L47,74L81,73Z" fill="rgb(57, 82, 58)" fill-opacity="0.44"/><path d="M98,113L139,148L144,135Z" fill="rgb(33, 112, 35)" fill-opacity="0.69"/><path d="M34,76L38,83L33,97Z" fill="rgb(32, 34, 20)" fill-opacity="0.44"/><path d="M161,3L225,68L233,-24Z" fill="rgb(76, 107, 191)" fill-opacity="0.60"/><path d="M117,99L115,118L102,114Z" fill="rgb(73, 96, 50)" fill-opacity="0.50"/><path d="M77,91L47,63L50,105Z" fill="rgb(69, 61, 76)" fill-opacity="0.39"/><path d="M118,34L96,60L121,36Z" fill="rgb(90, 71, 74)" fill-opacity="0.58"/><path d="M48,33L60,54L70,-7Z" fill="rgb(16, 32, 31)" fill-opacity="0.40"/><path d="M108,110L95,97L90,108Z" fill="rgb(50, 170, 65)" fill-opacity="0.52"/><path d="M145,129L139,119L126,128Z" fill="rgb(43, 69, 29)" fill-opacity="0.45"/><path d="M33,40L54,62L78,33Z" fill="rgb(40, 69, 53)" fill-opacity="0.38"/><path d="M103,127L96,134L90,123Z" fill="rgb(82, 103, 35)" fill-opacity="0.43"/><path d="M106,69L142,90L134,56Z" fill="rgb(135, 76, 83)" fill-opacity="0.60"/><path d="M41,52L37,33L56,47Z" fill="rgb(26, 74, 62)" fill-opacity="0.56"/><path d="M178,117L147,116L172,94Z" fill="rgb(52, 48, 51)" fill-opacity="0.59"/><path d="M107,62L96,62L106,53Z" fill="rgb(153, 89, 59)" fill-opacity="0.58"/><path d="M195,67L183,93L167,60Z" fill="rgb(87, 72, 102)" fill-opacity="0.59"/><path d="M254,62L282,-25L232,-13Z" fill="rgb(56, 89, 164)" fill-opacity="0.59"/><path d="M51,31L47,40L34,22Z" fill="rgb(74, 99, 123)" fill-opacity="0.48"/><path d="M71,140L46,120L-7,146Z" fill="rgb(19, 42, 27)" fill-opacity="0.69"/><path d="M172,165L204,170L185,192Z" fill="rgb(0, 39, 23)" fill-opacity="0.39"/><path d="M176,132L170,147L171,126Z" fill="rgb(59, 170, 79)" fill-opacity="0.47"/><path d="M76,83L102,77L77,72Z" fill="rgb(105, 85, 37)" fill-opacity="0.57"/><path d="M35,47L1,49L51,74Z" fill="rgb(55, 102, 99)" fill-opacity="0.55"/><path d="M10,19L10,37L-10,14Z" fill="rgb(42, 87, 108)" fill-opacity="0.50"/><path d="M74,93L67,110L54,85Z" fill="rgb(103, 95, 85)" fill-opacity="0.29"/><path d="M79,105L91,111L85,112Z" fill="rgb(147, 87, 54)" fill-opacity="0.44"/><path d="M35,-25L57,29L70,-2Z" fill="rgb(15, 28, 36)" fill-opacity="0.56"/><path d="M196,128L252,187L270,110Z" fill="rgb(12, 40, 29)" fill-opacity="0.67"/><path d="M33,10L32,15L15,-14Z" fill="rgb(12, 29, 37)" fill-opacity="0.55"/><path d="M193,63L237,61L173,11Z" fill="rgb(97, 110, 180)" fill-opacity="0.51"/><path d="M18,71L25,128L28,62Z" fill="rgb(22, 44, 41)" fill-opacity="0.62"/><path d="M94,80L69,92L88,80Z" fill="rgb(190, 158, 78)" fill-opacity="0.45"/><path d="M37,-25L-1,6L14,17Z" fill="rgb(38, 60, 96)" fill-opacity="0.49"/><path d="M208,116L216,111L212,93Z" fill="rgb(55, 85, 124)" fill-opacity="0.35"/><path d="M53,60L38,51L49,64Z" fill="rgb(81, 255, 151)" fill-opacity="0.48"/><path d="M174,164L172,148L196,169Z" fill="rgb(12, 167, 38)" fill-opacity="0.61"/><path d="M7,168L11,141L-2,136Z" fill="rgb(21, 42, 22)" fill-opacity="0.63"/><path d="M65,178L70,150L83,181Z" fill="rgb(71, 174, 30)" fill-opacity="0.49"/><path d="M119,160L107,130L116,142Z" fill="rgb(33, 59, 21)" fill-opacity="0.58"/><path d="M142,109L160,99L157,111Z" fill="rgb(85, 96, 130)" fill-opacity="0.42"/><path d="M133,156L149,251L106,158Z" fill="rgb(31, 29, 30)" fill-opacity="0.40"/><path d="M244,99L250,101L247,111Z" fill="rgb(40, 74, 92)" fill-opacity="0.50"/><path d="M139,135L156,147L168,130Z" fill="rgb(37, 63, 38)" fill-opacity="0.50"/><path d="M223,98L215,113L216,90Z" fill="rgb(28, 78, 41)" fill-opacity="0.52"/><path d="M10,153L9,120L-16,104Z" fill="rgb(19, 32, 29)" fill-opacity="0.60"/><path d="M29,177L47,149L17,144Z" fill="rgb(33, 98, 16)" fill-opacity="0.61"/><path d="M182,110L182,98L179,125Z" fill="rgb(70, 112, 153)" fill-opacity="0.55"/><path d="M123,110L125,95L128,105Z" fill="rgb(72, 209, 115)" fill-opacity="0.34"/><path d="M241,97L235,103L224,88Z" fill="rgb(20, 117, 34)" fill-opacity="0.48"/><path d="M249,25L189,14L228,-107Z" fill="rgb(58, 98, 186)" fill-opacity="0.38"/><path d="M53,68L44,45L72,84Z" fill="rgb(57, 173, 65)" fill-opacity="0.35"/><path d="M156,166L135,166L154,228Z" fill="rgb(1, 209, 24)" fill-opacity="0.45"/><path d="M191,122L183,93L197,84Z" fill="rgb(42, 51, 53)" fill-opacity="0.48"/><path d="M211,77L291,86L221,88Z" fill="rgb(52, 68, 85)" fill-opacity="0.41"/><path d="M87,83L128,93L112,112Z" fill="rgb(75, 79, 36)" fill-opacity="0.44"/><path d="M229,64L189,64L197,82Z" fill="rgb(56, 54, 97)" fill-opacity="0.46"/><path d="M139,59L133,67L160,68Z" fill="rgb(215, 95, 106)" fill-opacity="0.53"/><path d="M19,125L10,131L2,71Z" fill="rgb(52, 70, 119)" fill-opacity="0.50"/><path d="M154,49L127,59L172,66Z" fill="rgb(154, 74, 105)" fill-opacity="0.52"/><path d="M112,57L136,36L113,49Z" fill="rgb(112, 120, 188)" fill-opacity="0.55"/><path d="M115,146L105,151L129,156Z" fill="rgb(19, 130, 19)" fill-opacity="0.48"/><path d="M206,120L198,131L228,115Z" fill="rgb(55, 75, 80)" fill-opacity="0.52"/><path d="M145,126L154,116L158,131Z" fill="rgb(94, 119, 158)" fill-opacity="0.47"/><path d="M116,97L106,76L148,97Z" fill="rgb(102, 69, 58)" fill-opacity="0.49"/><path d="M158,129L167,132L196,129Z" fill="rgb(83, 201, 97)" fill-opacity="0.37"/><path d="M87,99L64,71L96,99Z" fill="rgb(94, 199, 81)" fill-opacity="0.39"/><path d="M56,152L59,156L56,165Z" fill="rgb(30, 85, 12)" fill-opacity="0.55"/><path d="M24,124L28,126L40,121Z" fill="rgb(135, 172, 255)" fill-opacity="0.42"/><path d="M245,69L195,58L234,37Z" fill="rgb(79, 106, 168)" fill-opacity="0.54"/><path d="M21,134L19,122L10,140Z" fill="rgb(24, 35, 44)" fill-opacity="0.55"/><path d="M85,89L99,90L78,81Z" fill="rgb(138, 91, 38)" fill-opacity="0.50"/><path d="M74,33L54,64L101,54Z" fill="rgb(58, 54, 70)" fill-opacity="0.49"/><path d="M93,38L70,17L72,33Z" fill="rgb(99, 124, 196)" fill-opacity="0.52"/><path d="M104,38L114,38L174,-35Z" fill="rgb(108, 117, 195)" fill-opacity="0.59"/><path d="M134,104L128,104L148,110Z" fill="rgb(157, 206, 126)" fill-opacity="0.49"/><path d="M129,153L142,143L149,158Z" fill="rgb(16, 206, 34)" fill-opacity="0.53"/><path d="M150,72L137,89L129,64Z" fill="rgb(148, 77, 88)" fill-opacity="0.54"/><path d="M124,92L147,84L113,76Z" fill="rgb(120, 76, 63)" fill-opacity="0.54"/><path d="M107,67L106,58L91,73Z" fill="rgb(91, 65, 68)" fill-opacity="0.50"/><path d="M121,107L133,99L109,107Z" fill="rgb(68, 97, 65)" fill-opacity="0.52"/><path d="M164,147L158,130L139,128Z" fill="rgb(40, 59, 42)" fill-opacity="0.52"/><path d="M134,123L121,119L131,114Z" fill="rgb(36, 227, 51)" fill-opacity="0.52"/><path d="M23,37L20,23L37,38Z" fill="rgb(10, 49, 41)" fill-opacity="0.51"/><path d="M148,115L132,132L147,107Z" fill="rgb(52, 112, 47)" fill-opacity="0.55"/><path d="M70,93L24,94L42,103Z" fill="rgb(54, 74, 90)" fill-opacity="0.51"/><path d="M67,68L50,92L49,79Z" fill="rgb(53, 58, 52)" fill-opacity="0.58"/><path d="M39,124L34,119L42,120Z" fill="rgb(167, 169, 215)" fill-opacity="0.50"/><path d="M109,153L73,139L113,138Z" fill="rgb(41, 66, 32)" fill-opacity="0.49"/><path d="M109,84L99,79L106,88Z" fill="rgb(205, 144, 36)" fill-opacity="0.55"/><path d="M30,52L28,127L34,63Z" fill="rgb(61, 96, 122)" fill-opacity="0.66"/><path d="M23,31L21,7L32,16Z" fill="rgb(69, 77, 122)" fill-opacity="0.33"/><path d="M40,97L34,94L25,109Z" fill="rgb(58, 78, 118)" fill-opacity="0.49"/><path d="M101,149L95,148L92,193Z" fill="rgb(64, 165, 29)" fill-opacity="0.41"/><path d="M131,11L69,14L69,-46Z" fill="rgb(80, 120, 207)" fill-opacity="0.44"/><path d="M47,2L41,17L22,-2Z" fill="rgb(51, 66, 97)" fill-opacity="0.54"/><path d="M20,149L13,146L12,157Z" fill="rgb(53, 166, 25)" fill-opacity="0.52"/><path d="M194,94L209,85L200,77Z" fill="rgb(67, 77, 91)" fill-opacity="0.50"/><path d="M150,78L162,81L155,85Z" fill="rgb(110, 91, 121)" fill-opacity="0.54"/><path d="M145,111L133,104L150,105Z" fill="rgb(150, 128, 155)" fill-opacity="0.35"/><path d="M23,129L33,100L31,128Z" fill="rgb(36, 63, 143)" fill-opacity="0.37"/><path d="M179,83L167,105L132,104Z" fill="rgb(79, 68, 60)" fill-opacity="0.43"/><path d="M20,52L7,66L19,81Z" fill="rgb(59, 108, 107)" fill-opacity="0.45"/><path d="M166,116L142,126L180,131Z" fill="rgb(78, 121, 158)" fill-opacity="0.50"/><path d="M239,95L247,104L239,111Z" fill="rgb(13, 44, 49)" fill-opacity="0.47"/><path d="M70,88L64,72L72,77Z" fill="rgb(66, 159, 87)" fill-opacity="0.45"/><path d="M103,60L98,60L100,63Z" fill="rgb(255, 147, 48)" fill-opacity="0.45"/><path d="M247,111L273,108L243,128Z" fill="rgb(23, 87, 34)" fill-opacity="0.41"/></svg>