<svg xmlns="http://www.w3.org/2000/svg" viewBox="0 0 256 169.55844155844156" clip-path="url(#clip)" width="512" height="339.1168831168831"><defs><clipPath id="clip" clipPathUnits="objectBoundingBox"><rect x="0" y="0" width="256" height="169.55844155844156"/></clipPath></defs><rect x="0" y="0" width="256" height="169.55844155844156" fill="rgb(62, 75, 75)"/><path d="M303,-45L141,-20L184,82Z" fill="rgb(233, 238, 235)" fill-opacity="0.85"/><path d="M243,51L215,52L248,-1Z" fill="rgb(212, 231, 222)" fill-opacity="0.52"/><path d="M135,77L136,31L228,13Z" fill="rgb(255, 253, 247)" fill-opacity="0.59"/><path d="M129,45L85,122L312,58Z" fill="rgb(109, 110, 97)" fill-opacity="0.72"/><path d="M232,118L126,134L203,171Z" fill="rgb(63, 139, 193)" fill-opacity="0.66"/><path d="M156,14L171,26L161,28Z" fill="rgb(0, 0, 0)" fill-opacity="0.49"/><path d="M172,52L167,27L130,31Z" fill="rgb(255, 255, 255)" fill-opacity="0.65"/><path d="M201,106L148,93L127,104Z" fill="rgb(126, 163, 196)" fill-opacity="0.64"/><path d="M111,66L118,40L94,45Z" fill="rgb(186, 198, 219)" fill-opacity="0.42"/><path d="M161,15L97,-43L116,47Z" fill="rgb(91, 45, 25)" fill-opacity="0.67"/><path d="M232,120L162,146L182,129Z" fill="rgb(145, 195, 228)" fill-opacity="0.54"/><path d="M251,3L292,112L245,15Z" fill="rgb(0, 20, 29)" fill-opacity="0.65"/><path d="M-155,252L70,134L36,-68Z" fill="rgb(27, 39, 16)" fill-opacity="0.77"/><path d="M117,-46L106,87L40,28Z" fill="rgb(210, 96, 49)" fill-opacity="0.31"/><path d="M227,157L239,100L242,148Z" fill="rgb(84, 128, 187)" fill-opacity="0.65"/><path d="M137,71L112,72L132,15Z" fill="rgb(138, 49, 16)" fill-opacity="0.60"/><path d="M75,5L80,15L82,3Z" fill="rgb(160, 236, 255)" fill-opacity="0.55"/><path d="M21,88L103,101L100,44Z" fill="rgb(69, 17, 3)" fill-opacity="0.55"/><path d="M144,147L197,132L134,121Z" fill="rgb(197, 226, 255)" fill-opacity="0.33"/><path d="M238,97L223,102L221,184Z" fill="rgb(0, 6, 22)" fill-opacity="0.54"/><path d="M58,109L81,113L78,102Z" fill="rgb(137, 216, 255)" fill-opacity="0.50"/><path d="M245,59L262,15L237,131Z" fill="rgb(132, 172, 233)" fill-opacity="0.47"/><path d="M231,74L231,25L202,50Z" fill="rgb(66, 91, 33)" fill-opacity="0.33"/><path d="M225,133L160,152L218,192Z" fill="rgb(0, 73, 124)" fill-opacity="0.70"/><path d="M206,133L223,120L208,107Z" fill="rgb(177, 215, 253)" fill-opacity="0.47"/><path d="M247,91L239,126L259,121Z" fill="rgb(1, 4, 5)" fill-opacity="0.56"/><path d="M125,96L111,108L123,65Z" fill="rgb(153, 228, 205)" fill-opacity="0.51"/><path d="M246,69L248,21L230,111Z" fill="rgb(3, 19, 33)" fill-opacity="0.72"/><path d="M85,51L70,48L84,42Z" fill="rgb(188, 247, 255)" fill-opacity="0.54"/><path d="M136,40L85,33L120,13Z" fill="rgb(166, 103, 72)" fill-opacity="0.57"/><path d="M247,18L294,-45L239,61Z" fill="rgb(3, 21, 34)" fill-opacity="0.52"/><path d="M154,97L126,87L156,72Z" fill="rgb(24, 55, 45)" fill-opacity="0.56"/><path d="M142,1L243,36L251,-5Z" fill="rgb(242, 255, 255)" fill-opacity="0.63"/><path d="M234,18L243,41L202,40Z" fill="rgb(173, 186, 179)" fill-opacity="0.75"/><path d="M32,22L55,-9L75,-2Z" fill="rgb(17, 0, 2)" fill-opacity="0.77"/><path d="M128,20L107,-8L154,-6Z" fill="rgb(26, 3, 3)" fill-opacity="0.49"/><path d="M129,80L129,97L101,70Z" fill="rgb(154, 207, 156)" fill-opacity="0.59"/><path d="M151,110L200,128L148,135Z" fill="rgb(74, 45, 47)" fill-opacity="0.37"/><path d="M205,55L192,83L235,75Z" fill="rgb(174, 154, 118)" fill-opacity="0.50"/><path d="M175,68L210,117L169,88Z" fill="rgb(5, 23, 38)" fill-opacity="0.40"/><path d="M256,103L260,98L239,100Z" fill="rgb(103, 174, 255)" fill-opacity="0.46"/><path d="M130,79L228,92L139,96Z" fill="rgb(39, 59, 56)" fill-opacity="0.65"/><path d="M80,51L90,41L68,37Z" fill="rgb(150, 193, 225)" fill-opacity="0.42"/><path d="M123,28L168,27L161,15Z" fill="rgb(24, 3, 0)" fill-opacity="0.53"/><path d="M90,78L106,87L118,55Z" fill="rgb(141, 31, 42)" fill-opacity="0.50"/><path d="M215,152L227,137L227,114Z" fill="rgb(48, 105, 161)" fill-opacity="0.53"/><path d="M232,98L225,92L211,97Z" fill="rgb(130, 195, 255)" fill-opacity="0.45"/><path d="M193,176L290,114L312,217Z" fill="rgb(0, 0, 3)" fill-opacity="0.38"/><path d="M113,112L113,102L134,108Z" fill="rgb(0, 18, 54)" fill-opacity="0.56"/><path d="M229,108L222,121L206,86Z" fill="rgb(20, 13, 0)" fill-opacity="0.52"/><path d="M146,-3L252,5L189,48Z" fill="rgb(240, 249, 251)" fill-opacity="0.89"/><path d="M61,163L153,214L47,178Z" fill="rgb(162, 208, 248)" fill-opacity="0.63"/><path d="M223,61L229,35L234,55Z" fill="rgb(59, 80, 39)" fill-opacity="0.51"/><path d="M21,13L39,28L8,24Z" fill="rgb(75, 103, 87)" fill-opacity="0.51"/><path d="M69,78L59,99L121,87Z" fill="rgb(42, 7, 6)" fill-opacity="0.54"/><path d="M97,16L97,7L103,14Z" fill="rgb(179, 255, 255)" fill-opacity="0.56"/><path d="M142,22L169,28L89,-51Z" fill="rgb(26, 13, 15)" fill-opacity="0.54"/><path d="M53,93L77,48L28,23Z" fill="rgb(58, 75, 29)" fill-opacity="0.68"/><path d="M106,72L127,72L129,105Z" fill="rgb(144, 195, 154)" fill-opacity="0.51"/><path d="M102,51L100,35L67,33Z" fill="rgb(99, 21, 0)" fill-opacity="0.33"/><path d="M187,100L190,116L176,103Z" fill="rgb(105, 168, 217)" fill-opacity="0.51"/><path d="M169,195L132,125L53,161Z" fill="rgb(31, 52, 77)" fill-opacity="0.71"/><path d="M-36,154L33,190L115,111Z" fill="rgb(20, 44, 86)" fill-opacity="0.47"/><path d="M250,5L245,13L257,38Z" fill="rgb(18, 35, 39)" fill-opacity="0.50"/><path d="M206,103L212,121L194,129Z" fill="rgb(114, 93, 99)" fill-opacity="0.68"/><path d="M152,104L167,99L130,93Z" fill="rgb(129, 209, 255)" fill-opacity="0.51"/><path d="M68,163L104,111L139,138Z" fill="rgb(52, 79, 102)" fill-opacity="0.72"/><path d="M188,180L175,145L151,144Z" fill="rgb(47, 53, 64)" fill-opacity="0.56"/><path d="M103,62L101,37L122,60Z" fill="rgb(99, 160, 190)" fill-opacity="0.51"/><path d="M214,80L238,60L233,104Z" fill="rgb(145, 128, 99)" fill-opacity="0.45"/><path d="M127,100L109,99L127,94Z" fill="rgb(133, 190, 254)" fill-opacity="0.49"/><path d="M131,132L172,134L155,144Z" fill="rgb(157, 243, 255)" fill-opacity="0.30"/><path d="M54,92L48,83L59,83Z" fill="rgb(141, 82, 107)" fill-opacity="0.57"/><path d="M45,-4L113,-13L112,12Z" fill="rgb(62, 94, 49)" fill-opacity="0.69"/><path d="M23,123L45,120L22,94Z" fill="rgb(58, 94, 84)" fill-opacity="0.39"/><path d="M143,78L127,79L118,64Z" fill="rgb(95, 49, 20)" fill-opacity="0.49"/><path d="M135,36L218,11L156,50Z" fill="rgb(244, 248, 251)" fill-opacity="0.61"/><path d="M127,109L144,103L127,88Z" fill="rgb(127, 76, 84)" fill-opacity="0.51"/><path d="M111,109L105,94L112,91Z" fill="rgb(180, 139, 159)" fill-opacity="0.43"/><path d="M142,29L135,58L138,29Z" fill="rgb(235, 234, 231)" fill-opacity="0.57"/><path d="M112,23L133,12L94,2Z" fill="rgb(96, 108, 73)" fill-opacity="0.59"/><path d="M237,138L247,143L249,123Z" fill="rgb(18, 84, 170)" fill-opacity="0.50"/><path d="M19,95L-42,150L22,138Z" fill="rgb(0, 14, 7)" fill-opacity="0.61"/><path d="M137,11L136,25L132,18Z" fill="rgb(128, 182, 223)" fill-opacity="0.51"/><path d="M247,95L267,104L255,45Z" fill="rgb(12, 20, 22)" fill-opacity="0.66"/><path d="M147,47L162,26L136,41Z" fill="rgb(236, 242, 245)" fill-opacity="0.46"/><path d="M151,159L122,149L129,267Z" fill="rgb(23, 32, 41)" fill-opacity="0.63"/><path d="M187,143L182,178L210,159Z" fill="rgb(1, 120, 185)" fill-opacity="0.48"/><path d="M174,113L188,114L173,126Z" fill="rgb(114, 118, 138)" fill-opacity="0.67"/><path d="M87,112L90,104L101,103Z" fill="rgb(22, 1, 8)" fill-opacity="0.50"/><path d="M189,141L220,125L217,113Z" fill="rgb(132, 200, 241)" fill-opacity="0.46"/><path d="M156,101L165,116L187,97Z" fill="rgb(138, 116, 126)" fill-opacity="0.43"/><path d="M119,55L101,41L115,41Z" fill="rgb(113, 182, 223)" fill-opacity="0.38"/><path d="M78,91L93,77L78,113Z" fill="rgb(35, 11, 8)" fill-opacity="0.49"/><path d="M143,81L171,49L193,85Z" fill="rgb(86, 116, 119)" fill-opacity="0.37"/><path d="M71,118L78,100L64,108Z" fill="rgb(118, 199, 255)" fill-opacity="0.44"/><path d="M210,52L125,53L223,72Z" fill="rgb(179, 149, 112)" fill-opacity="0.46"/><path d="M245,64L241,94L257,35Z" fill="rgb(115, 142, 173)" fill-opacity="0.65"/><path d="M72,76L70,50L87,69Z" fill="rgb(55, 110, 64)" fill-opacity="0.54"/><path d="M214,102L194,93L185,131Z" fill="rgb(55, 33, 35)" fill-opacity="0.60"/><path d="M54,9L20,10L37,26Z" fill="rgb(16, 1, 5)" fill-opacity="0.58"/><path d="M86,9L77,3L72,14Z" fill="rgb(167, 213, 255)" fill-opacity="0.35"/><path d="M118,58L121,34L136,91Z" fill="rgb(87, 26, 8)" fill-opacity="0.40"/><path d="M233,98L222,99L229,94Z" fill="rgb(103, 179, 255)" fill-opacity="0.51"/><path d="M-23,79L44,53L-6,32Z" fill="rgb(80, 24, 17)" fill-opacity="0.41"/><path d="M215,142L222,125L193,148Z" fill="rgb(6, 60, 92)" fill-opacity="0.46"/><path d="M49,34L50,11L108,31Z" fill="rgb(189, 114, 83)" fill-opacity="0.32"/><path d="M178,127L143,144L199,139Z" fill="rgb(113, 177, 215)" fill-opacity="0.50"/><path d="M49,63L61,42L74,70Z" fill="rgb(17, 65, 9)" fill-opacity="0.57"/><path d="M151,99L154,82L160,94Z" fill="rgb(152, 226, 130)" fill-opacity="0.24"/><path d="M11,42L2,115L-3,25Z" fill="rgb(0, 29, 7)" fill-opacity="0.46"/><path d="M168,111L167,126L158,126Z" fill="rgb(78, 108, 131)" fill-opacity="0.56"/><path d="M237,128L250,138L251,125Z" fill="rgb(22, 72, 137)" fill-opacity="0.52"/><path d="M220,117L214,114L213,128Z" fill="rgb(176, 236, 255)" fill-opacity="0.50"/><path d="M118,28L139,23L123,18Z" fill="rgb(97, 24, 0)" fill-opacity="0.52"/><path d="M164,89L156,64L132,69Z" fill="rgb(57, 93, 101)" fill-opacity="0.48"/><path d="M163,115L150,111L153,129Z" fill="rgb(12, 5, 3)" fill-opacity="0.44"/><path d="M209,98L222,122L230,99Z" fill="rgb(31, 29, 24)" fill-opacity="0.61"/><path d="M248,103L323,109L241,120Z" fill="rgb(21, 22, 18)" fill-opacity="1.00"/><path d="M61,49L69,54L82,49Z" fill="rgb(121, 147, 162)" fill-opacity="0.53"/><path d="M96,28L101,25L92,6Z" fill="rgb(24, 13, 15)" fill-opacity="0.48"/><path d="M138,104L170,110L153,101Z" fill="rgb(53, 109, 155)" fill-opacity="0.52"/><path d="M129,22L137,21L137,15Z" fill="rgb(147, 204, 239)" fill-opacity="0.46"/><path d="M177,128L190,106L192,126Z" fill="rgb(62, 47, 52)" fill-opacity="0.58"/><path d="M-17,72L11,112L65,53Z" fill="rgb(18, 65, 17)" fill-opacity="0.52"/><path d="M-46,33L9,24L17,-7Z" fill="rgb(7, 25, 0)" fill-opacity="0.63"/><path d="M85,96L105,118L73,124Z" fill="rgb(104, 65, 70)" fill-opacity="0.46"/><path d="M201,111L210,104L210,125Z" fill="rgb(112, 104, 111)" fill-opacity="0.56"/><path d="M103,38L97,68L94,31Z" fill="rgb(145, 73, 44)" fill-opacity="0.65"/><path d="M148,48L145,52L155,49Z" fill="rgb(63, 83, 77)" fill-opacity="0.50"/><path d="M143,117L121,101L118,111Z" fill="rgb(29, 30, 44)" fill-opacity="0.52"/><path d="M225,77L243,33L239,66Z" fill="rgb(164, 162, 139)" fill-opacity="0.43"/><path d="M35,74L22,57L48,77Z" fill="rgb(61, 104, 49)" fill-opacity="0.52"/><path d="M136,56L123,49L136,23Z" fill="rgb(161, 72, 33)" fill-opacity="0.50"/><path d="M42,113L69,112L44,98Z" fill="rgb(42, 84, 22)" fill-opacity="0.60"/><path d="M207,49L212,38L217,66Z" fill="rgb(59, 86, 56)" fill-opacity="0.36"/><path d="M77,2L83,0L84,7Z" fill="rgb(33, 30, 40)" fill-opacity="0.55"/><path d="M136,64L138,51L167,61Z" fill="rgb(185, 171, 147)" fill-opacity="0.43"/><path d="M221,98L229,96L215,93Z" fill="rgb(119, 186, 248)" fill-opacity="0.49"/><path d="M163,66L171,76L158,82Z" fill="rgb(127, 133, 133)" fill-opacity="0.59"/><path d="M150,2L91,-26L231,25Z" fill="rgb(244, 252, 253)" fill-opacity="0.86"/><path d="M171,98L155,96L181,67Z" fill="rgb(50, 75, 84)" fill-opacity="0.53"/><path d="M224,52L220,50L221,-1Z" fill="rgb(219, 230, 234)" fill-opacity="0.43"/><path d="M76,45L78,54L85,43Z" fill="rgb(174, 204, 245)" fill-opacity="0.50"/><path d="M152,102L142,99L171,97Z" fill="rgb(127, 207, 254)" fill-opacity="0.47"/><path d="M173,97L189,84L217,109Z" fill="rgb(42, 40, 41)" fill-opacity="0.46"/><path d="M192,0L309,-11L251,7Z" fill="rgb(223, 242, 251)" fill-opacity="0.81"/><path d="M106,80L114,92L116,89Z" fill="rgb(43, 0, 3)" fill-opacity="0.53"/><path d="M126,102L142,116L137,95Z" fill="rgb(147, 114, 119)" fill-opacity="0.50"/><path d="M142,141L180,133L135,133Z" fill="rgb(131, 198, 246)" fill-opacity="0.55"/><path d="M237,29L221,35L239,40Z" fill="rgb(202, 209, 206)" fill-opacity="0.46"/><path d="M21,91L47,80L52,102Z" fill="rgb(4, 19, 10)" fill-opacity="0.45"/><path d="M80,29L75,14L86,6Z" fill="rgb(118, 73, 58)" fill-opacity="0.55"/><path d="M192,109L181,99L176,101Z" fill="rgb(146, 215, 251)" fill-opacity="0.51"/><path d="M21,46L39,26L54,70Z" fill="rgb(77, 103, 44)" fill-opacity="0.33"/><path d="M215,27L153,48L199,50Z" fill="rgb(224, 230, 236)" fill-opacity="0.62"/><path d="M167,99L172,85L176,124Z" fill="rgb(100, 90, 101)" fill-opacity="0.67"/><path d="M228,79L228,67L217,50Z" fill="rgb(59, 76, 35)" fill-opacity="0.49"/><path d="M93,62L109,61L107,95Z" fill="rgb(120, 41, 39)" fill-opacity="0.57"/><path d="M135,46L146,44L138,31Z" fill="rgb(251, 251, 255)" fill-opacity="0.43"/><path d="M233,155L226,164L228,149Z" fill="rgb(65, 109, 163)" fill-opacity="0.56"/><path d="M141,46L152,47L131,51Z" fill="rgb(64, 81, 70)" fill-opacity="0.50"/><path d="M231,95L236,81L190,89Z" fill="rgb(90, 78, 44)" fill-opacity="0.46"/><path d="M213,157L222,150L207,177Z" fill="rgb(0, 28, 64)" fill-opacity="0.55"/><path d="M39,112L20,111L24,90Z" fill="rgb(40, 91, 56)" fill-opacity="0.56"/><path d="M36,20L48,13L50,32Z" fill="rgb(27, 4, 4)" fill-opacity="0.65"/><path d="M229,158L239,95L249,78Z" fill="rgb(115, 143, 176)" fill-opacity="0.62"/><path d="M137,16L108,7L134,11Z" fill="rgb(108, 76, 63)" fill-opacity="0.56"/><path d="M95,18L112,11L102,21Z" fill="rgb(56, 46, 36)" fill-opacity="0.52"/><path d="M102,38L109,41L110,34Z" fill="rgb(22, 6, 10)" fill-opacity="0.52"/><path d="M98,99L84,105L84,94Z" fill="rgb(127, 115, 125)" fill-opacity="0.43"/><path d="M252,90L262,101L255,84Z" fill="rgb(125, 95, 54)" fill-opacity="0.63"/><path d="M247,51L255,52L252,35Z" fill="rgb(113, 141, 177)" fill-opacity="0.52"/><path d="M160,123L168,90L177,90Z" fill="rgb(101, 87, 101)" fill-opacity="0.47"/><path d="M147,110L142,102L161,103Z" fill="rgb(53, 121, 169)" fill-opacity="0.50"/><path d="M250,188L244,141L276,104Z" fill="rgb(38, 39, 31)" fill-opacity="0.51"/><path d="M83,97L77,88L77,106Z" fill="rgb(30, 29, 33)" fill-opacity="0.54"/><path d="M135,57L129,72L90,72Z" fill="rgb(109, 52, 25)" fill-opacity="0.75"/><path d="M136,-13L143,2L171,29Z" fill="rgb(95, 97, 96)" fill-opacity="0.62"/><path d="M142,118L94,118L98,147Z" fill="rgb(58, 89, 116)" fill-opacity="0.46"/><path d="M170,152L148,143L155,206Z" fill="rgb(62, 79, 102)" fill-opacity="0.62"/><path d="M264,43L223,22L244,35Z" fill="rgb(110, 131, 138)" fill-opacity="0.38"/><path d="M251,133L222,168L242,127Z" fill="rgb(37, 88, 146)" fill-opacity="0.54"/><path d="M221,154L220,179L233,125Z" fill="rgb(0, 3, 8)" fill-opacity="0.47"/><path d="M58,87L46,80L59,83Z" fill="rgb(128, 100, 119)" fill-opacity="0.49"/><path d="M43,75L68,65L62,85Z" fill="rgb(75, 15, 20)" fill-opacity="0.54"/><path d="M78,102L66,110L75,112Z" fill="rgb(131, 205, 253)" fill-opacity="0.50"/><path d="M181,108L175,113L190,111Z" fill="rgb(12, 69, 121)" fill-opacity="0.53"/><path d="M143,113L140,104L142,100Z" fill="rgb(44, 23, 30)" fill-opacity="0.50"/><path d="M173,98L192,103L181,110Z" fill="rgb(130, 193, 225)" fill-opacity="0.41"/><path d="M78,55L55,22L47,29Z" fill="rgb(143, 72, 55)" fill-opacity="0.38"/><path d="M135,132L179,129L151,135Z" fill="rgb(138, 86, 82)" fill-opacity="0.34"/><path d="M86,81L92,35L97,85Z" fill="rgb(69, 12, 3)" fill-opacity="0.54"/><path d="M244,36L240,56L226,27Z" fill="rgb(158, 174, 174)" fill-opacity="0.53"/><path d="M38,86L30,85L39,70Z" fill="rgb(70, 63, 47)" fill-opacity="0.65"/><path d="M201,-9L221,29L231,24Z" fill="rgb(234, 245, 248)" fill-opacity="0.79"/><path d="M-10,60L35,72L25,90Z" fill="rgb(15, 46, 2)" fill-opacity="0.53"/><path d="M92,174L63,124L94,159Z" fill="rgb(27, 44, 61)" fill-opacity="0.52"/><path d="M65,51L76,57L57,64Z" fill="rgb(12, 51, 4)" fill-opacity="0.60"/><path d="M62,126L18,143L75,127Z" fill="rgb(53, 72, 90)" fill-opacity="0.52"/></svg>