<svg xmlns="http://www.w3.org/2000/svg" viewBox="0 0 169.55844155844156 256" clip-path="url(#clip)" width="339.1168831168831" height="512"><defs><clipPath id="clip" clipPathUnits="objectBoundingBox"><rect x="0" y="0" width="169.55844155844156" height="256"/></clipPath></defs><rect x="0" y="0" width="169.55844155844156" height="256" fill="rgb(94, 87, 88)"/><path d="M22,45L114,51L88,2Z" fill="rgb(247, 255, 245)" fill-opacity="0.62"/><path d="M37,80L27,-70L-122,347Z" fill="rgb(140, 173, 187)" fill-opacity="0.67"/><path d="M53,141L89,111L53,75Z" fill="rgb(122, 196, 216)" fill-opacity="0.48"/><path d="M41,14L81,20L70,-67Z" fill="rgb(6, 5, 7)" fill-opacity="0.70"/><path d="M66,17L61,62L44,17Z" fill="rgb(255, 255, 255)" fill-opacity="0.51"/><path d="M98,73L148,172L64,83Z" fill="rgb(43, 31, 25)" fill-opacity="0.65"/><path d="M106,53L118,28L75,54Z" fill="rgb(0, 60, 20)" fill-opacity="0.51"/><path d="M139,246L177,209L161,315Z" fill="rgb(5, 13, 27)" fill-opacity="0.48"/><path d="M35,146L86,275L-69,265Z" fill="rgb(103, 178, 247)" fill-opacity="0.34"/><path d="M18,131L28,150L31,-46Z" fill="rgb(166, 226, 255)" fill-opacity="0.59"/><path d="M45,50L46,13L30,48Z" fill="rgb(0, 0, 0)" fill-opacity="0.57"/><path d="M65,145L133,19L165,229Z" fill="rgb(55, 51, 39)" fill-opacity="0.76"/><path d="M298,16L26,-26L140,36Z" fill="rgb(130, 36, 15)" fill-opacity="1.00"/><path d="M78,245L124,273L126,227Z" fill="rgb(0, 80, 99)" fill-opacity="0.64"/><path d="M43,51L117,25L80,13Z" fill="rgb(255, 255, 255)" fill-opacity="0.61"/><path d="M161,121L164,61L192,12Z" fill="rgb(163, 191, 171)" fill-opacity="0.67"/><path d="M28,107L78,150L28,145Z" fill="rgb(25, 66, 53)" fill-opacity="0.51"/><path d="M111,99L165,29L161,98Z" fill="rgb(11, 52, 0)" fill-opacity="0.47"/><path d="M54,229L75,171L149,239Z" fill="rgb(85, 127, 146)" fill-opacity="0.67"/><path d="M54,115L27,114L40,18Z" fill="rgb(2, 34, 17)" fill-opacity="0.44"/><path d="M25,7L20,-78L17,149Z" fill="rgb(57, 54, 43)" fill-opacity="0.79"/><path d="M136,41L97,21L140,30Z" fill="rgb(212, 255, 242)" fill-opacity="0.45"/><path d="M67,121L43,135L42,114Z" fill="rgb(154, 217, 239)" fill-opacity="0.47"/><path d="M19,216L55,156L15,170Z" fill="rgb(19, 62, 103)" fill-opacity="0.50"/><path d="M110,102L194,121L182,213Z" fill="rgb(245, 141, 129)" fill-opacity="0.22"/><path d="M9,24L-37,38L-1,12Z" fill="rgb(46, 40, 41)" fill-opacity="0.62"/><path d="M-7,-47L15,83L19,-22Z" fill="rgb(179, 223, 255)" fill-opacity="0.52"/><path d="M136,43L117,43L125,23Z" fill="rgb(35, 94, 35)" fill-opacity="0.47"/><path d="M16,177L17,82L-21,91Z" fill="rgb(114, 127, 128)" fill-opacity="0.95"/><path d="M95,199L145,190L87,186Z" fill="rgb(10, 47, 41)" fill-opacity="0.61"/><path d="M102,114L80,97L39,132Z" fill="rgb(128, 153, 167)" fill-opacity="0.49"/><path d="M137,225L129,185L156,245Z" fill="rgb(31, 29, 38)" fill-opacity="0.48"/><path d="M5,72L9,140L19,27Z" fill="rgb(166, 204, 228)" fill-opacity="0.52"/><path d="M89,27L109,27L115,43Z" fill="rgb(25, 99, 50)" fill-opacity="0.51"/><path d="M98,15L51,49L81,50Z" fill="rgb(255, 244, 225)" fill-opacity="0.76"/><path d="M101,174L90,160L66,187Z" fill="rgb(80, 119, 144)" fill-opacity="0.67"/><path d="M44,178L62,202L27,198Z" fill="rgb(1, 83, 89)" fill-opacity="0.37"/><path d="M96,196L112,210L113,196Z" fill="rgb(166, 181, 173)" fill-opacity="0.49"/><path d="M117,22L104,37L127,30Z" fill="rgb(243, 255, 255)" fill-opacity="0.36"/><path d="M149,171L133,131L74,159Z" fill="rgb(17, 9, 3)" fill-opacity="0.44"/><path d="M8,18L2,4L0,99Z" fill="rgb(42, 20, 18)" fill-opacity="0.42"/><path d="M49,205L36,221L52,213Z" fill="rgb(110, 9, 12)" fill-opacity="0.53"/><path d="M104,86L111,108L119,87Z" fill="rgb(141, 151, 155)" fill-opacity="0.42"/><path d="M45,14L49,49L89,26Z" fill="rgb(255, 255, 255)" fill-opacity="0.61"/><path d="M46,183L45,164L52,169Z" fill="rgb(114, 158, 198)" fill-opacity="0.63"/><path d="M39,3L51,-20L39,17Z" fill="rgb(174, 224, 255)" fill-opacity="0.52"/><path d="M3,172L-6,153L2,67Z" fill="rgb(50, 38, 34)" fill-opacity="0.89"/><path d="M35,78L116,86L49,86Z" fill="rgb(24, 39, 28)" fill-opacity="0.59"/><path d="M162,222L153,240L152,212Z" fill="rgb(132, 143, 165)" fill-opacity="0.46"/><path d="M38,118L56,166L29,139Z" fill="rgb(35, 52, 35)" fill-opacity="0.63"/><path d="M73,261L47,237L70,273Z" fill="rgb(90, 2, 6)" fill-opacity="0.59"/><path d="M164,57L153,65L174,59Z" fill="rgb(255, 255, 225)" fill-opacity="0.47"/><path d="M21,86L25,17L36,44Z" fill="rgb(177, 217, 241)" fill-opacity="0.55"/><path d="M22,250L65,276L21,185Z" fill="rgb(179, 202, 220)" fill-opacity="0.25"/><path d="M89,-22L77,20L40,15Z" fill="rgb(26, 26, 29)" fill-opacity="0.63"/><path d="M21,259L13,182L-16,263Z" fill="rgb(118, 148, 178)" fill-opacity="0.59"/><path d="M113,77L144,87L123,113Z" fill="rgb(24, 15, 17)" fill-opacity="0.63"/><path d="M158,248L149,262L152,230Z" fill="rgb(117, 104, 105)" fill-opacity="0.61"/><path d="M82,101L64,100L85,64Z" fill="rgb(67, 107, 91)" fill-opacity="0.57"/><path d="M64,170L49,153L83,146Z" fill="rgb(101, 146, 182)" fill-opacity="0.45"/><path d="M107,61L97,58L103,64Z" fill="rgb(244, 251, 247)" fill-opacity="0.70"/><path d="M68,139L80,120L93,141Z" fill="rgb(16, 67, 102)" fill-opacity="0.49"/><path d="M79,80L155,32L152,87Z" fill="rgb(9, 99, 22)" fill-opacity="0.31"/><path d="M63,254L88,242L66,259Z" fill="rgb(123, 18, 27)" fill-opacity="0.55"/><path d="M52,174L93,158L63,186Z" fill="rgb(59, 51, 37)" fill-opacity="0.55"/><path d="M26,157L19,133L16,173Z" fill="rgb(0, 20, 37)" fill-opacity="0.56"/><path d="M17,128L13,123L11,153Z" fill="rgb(151, 206, 251)" fill-opacity="0.43"/><path d="M43,159L23,164L25,155Z" fill="rgb(143, 193, 245)" fill-opacity="0.51"/><path d="M124,277L125,195L142,250Z" fill="rgb(94, 127, 169)" fill-opacity="0.46"/><path d="M79,54L122,61L94,41Z" fill="rgb(30, 63, 24)" fill-opacity="0.52"/><path d="M88,180L118,180L115,152Z" fill="rgb(0, 87, 18)" fill-opacity="0.42"/><path d="M43,40L71,41L79,79Z" fill="rgb(200, 124, 71)" fill-opacity="0.27"/><path d="M157,226L145,241L137,219Z" fill="rgb(12, 1, 2)" fill-opacity="0.37"/><path d="M68,27L96,41L91,8Z" fill="rgb(250, 255, 255)" fill-opacity="0.55"/><path d="M23,148L39,171L44,142Z" fill="rgb(102, 145, 183)" fill-opacity="0.40"/><path d="M122,38L181,52L151,32Z" fill="rgb(78, 140, 105)" fill-opacity="0.54"/><path d="M90,241L53,209L61,252Z" fill="rgb(127, 110, 126)" fill-opacity="0.49"/><path d="M124,207L107,177L123,187Z" fill="rgb(16, 33, 24)" fill-opacity="0.60"/><path d="M40,171L19,193L14,171Z" fill="rgb(2, 40, 125)" fill-opacity="0.44"/><path d="M39,147L42,174L60,126Z" fill="rgb(38, 53, 56)" fill-opacity="0.56"/><path d="M148,255L145,224L141,264Z" fill="rgb(26, 16, 15)" fill-opacity="0.68"/><path d="M87,57L90,39L99,44Z" fill="rgb(54, 74, 62)" fill-opacity="0.51"/><path d="M56,88L53,119L65,108Z" fill="rgb(154, 202, 226)" fill-opacity="0.55"/><path d="M127,208L113,225L88,209Z" fill="rgb(5, 51, 120)" fill-opacity="0.47"/><path d="M17,260L24,249L20,213Z" fill="rgb(4, 6, 16)" fill-opacity="0.35"/><path d="M121,33L93,20L127,26Z" fill="rgb(247, 254, 255)" fill-opacity="0.51"/><path d="M43,7L47,12L65,13Z" fill="rgb(86, 87, 95)" fill-opacity="0.61"/><path d="M29,218L14,215L24,226Z" fill="rgb(101, 108, 7)" fill-opacity="0.44"/><path d="M0,180L5,178L16,95Z" fill="rgb(107, 90, 26)" fill-opacity="0.66"/><path d="M119,40L134,27L93,44Z" fill="rgb(20, 64, 32)" fill-opacity="0.48"/><path d="M44,79L97,57L46,48Z" fill="rgb(121, 101, 99)" fill-opacity="0.63"/><path d="M97,78L101,102L77,96Z" fill="rgb(7, 6, 12)" fill-opacity="0.60"/><path d="M99,18L81,4L78,46Z" fill="rgb(246, 255, 255)" fill-opacity="0.61"/><path d="M56,148L42,145L57,141Z" fill="rgb(106, 116, 119)" fill-opacity="0.57"/><path d="M96,178L96,190L115,185Z" fill="rgb(131, 153, 144)" fill-opacity="0.50"/><path d="M155,111L148,96L178,120Z" fill="rgb(19, 4, 0)" fill-opacity="0.25"/><path d="M19,170L37,203L45,180Z" fill="rgb(25, 110, 164)" fill-opacity="0.39"/><path d="M115,52L110,53L115,41Z" fill="rgb(200, 250, 232)" fill-opacity="0.50"/><path d="M21,179L19,240L17,146Z" fill="rgb(35, 41, 50)" fill-opacity="0.71"/><path d="M42,120L58,88L28,88Z" fill="rgb(27, 56, 44)" fill-opacity="0.46"/><path d="M42,80L39,19L47,13Z" fill="rgb(25, 23, 17)" fill-opacity="0.59"/><path d="M106,248L138,280L117,235Z" fill="rgb(0, 61, 71)" fill-opacity="0.52"/><path d="M99,26L88,16L123,27Z" fill="rgb(240, 255, 255)" fill-opacity="0.53"/><path d="M76,131L83,96L36,130Z" fill="rgb(113, 156, 170)" fill-opacity="0.47"/><path d="M84,276L90,227L124,245Z" fill="rgb(0, 78, 87)" fill-opacity="0.55"/><path d="M129,159L133,149L132,163Z" fill="rgb(132, 157, 217)" fill-opacity="0.39"/><path d="M73,98L75,87L53,94Z" fill="rgb(134, 171, 197)" fill-opacity="0.43"/><path d="M167,81L168,64L241,13Z" fill="rgb(42, 92, 37)" fill-opacity="0.58"/><path d="M117,143L133,90L139,126Z" fill="rgb(71, 44, 43)" fill-opacity="0.59"/><path d="M135,65L106,56L142,44Z" fill="rgb(19, 52, 11)" fill-opacity="0.57"/><path d="M99,129L54,118L166,101Z" fill="rgb(138, 88, 96)" fill-opacity="0.23"/><path d="M38,7L33,46L33,3Z" fill="rgb(13, 0, 0)" fill-opacity="0.45"/><path d="M7,163L2,180L14,172Z" fill="rgb(92, 129, 162)" fill-opacity="0.53"/><path d="M97,25L171,56L93,30Z" fill="rgb(39, 96, 43)" fill-opacity="0.45"/><path d="M167,83L166,66L164,85Z" fill="rgb(235, 255, 255)" fill-opacity="0.61"/><path d="M41,86L63,92L52,85Z" fill="rgb(114, 146, 157)" fill-opacity="0.63"/><path d="M23,-15L32,-5L32,51Z" fill="rgb(177, 217, 241)" fill-opacity="0.65"/><path d="M50,199L19,203L40,217Z" fill="rgb(135, 154, 170)" fill-opacity="0.54"/><path d="M50,38L72,51L96,45Z" fill="rgb(255, 217, 170)" fill-opacity="0.54"/><path d="M64,227L46,241L71,244Z" fill="rgb(107, 69, 80)" fill-opacity="0.53"/><path d="M124,20L91,0L99,21Z" fill="rgb(114, 16, 5)" fill-opacity="0.49"/><path d="M87,212L127,225L76,244Z" fill="rgb(101, 149, 183)" fill-opacity="0.31"/><path d="M80,221L69,222L62,215Z" fill="rgb(36, 109, 0)" fill-opacity="0.51"/><path d="M142,35L130,36L130,28Z" fill="rgb(195, 245, 247)" fill-opacity="0.39"/><path d="M90,252L80,248L60,273Z" fill="rgb(114, 152, 190)" fill-opacity="0.45"/><path d="M86,7L123,1L106,21Z" fill="rgb(118, 29, 15)" fill-opacity="0.76"/><path d="M108,158L101,167L74,150Z" fill="rgb(16, 26, 22)" fill-opacity="0.59"/><path d="M134,216L95,225L143,254Z" fill="rgb(103, 119, 149)" fill-opacity="0.50"/><path d="M120,107L102,94L99,103Z" fill="rgb(138, 80, 84)" fill-opacity="0.48"/><path d="M96,222L100,250L85,234Z" fill="rgb(17, 92, 96)" fill-opacity="0.48"/><path d="M134,131L175,112L170,172Z" fill="rgb(153, 120, 107)" fill-opacity="0.38"/><path d="M28,41L36,80L24,76Z" fill="rgb(163, 200, 221)" fill-opacity="0.46"/><path d="M141,170L139,151L131,169Z" fill="rgb(0, 0, 7)" fill-opacity="0.54"/><path d="M22,142L39,149L27,153Z" fill="rgb(118, 160, 186)" fill-opacity="0.52"/><path d="M54,150L73,151L56,155Z" fill="rgb(136, 181, 213)" fill-opacity="0.52"/><path d="M141,173L131,189L145,199Z" fill="rgb(86, 70, 78)" fill-opacity="0.60"/><path d="M98,130L149,92L151,119Z" fill="rgb(94, 56, 51)" fill-opacity="0.47"/><path d="M122,198L116,173L108,196Z" fill="rgb(0, 29, 18)" fill-opacity="0.48"/><path d="M93,210L70,221L51,177Z" fill="rgb(119, 154, 115)" fill-opacity="0.40"/><path d="M59,135L75,135L62,108Z" fill="rgb(100, 136, 146)" fill-opacity="0.72"/><path d="M163,116L155,120L151,106Z" fill="rgb(140, 140, 165)" fill-opacity="0.53"/><path d="M39,144L56,185L53,152Z" fill="rgb(53, 47, 53)" fill-opacity="0.53"/><path d="M17,151L24,105L17,123Z" fill="rgb(41, 58, 70)" fill-opacity="0.47"/><path d="M63,98L92,92L76,100Z" fill="rgb(21, 49, 21)" fill-opacity="0.52"/><path d="M118,204L110,207L119,216Z" fill="rgb(50, 30, 29)" fill-opacity="0.45"/><path d="M158,148L170,223L145,210Z" fill="rgb(98, 29, 19)" fill-opacity="0.29"/><path d="M121,30L130,42L130,24Z" fill="rgb(36, 47, 1)" fill-opacity="0.41"/><path d="M124,27L144,33L220,-50Z" fill="rgb(130, 28, 6)" fill-opacity="0.78"/><path d="M161,47L141,61L174,55Z" fill="rgb(27, 77, 1)" fill-opacity="0.52"/><path d="M89,159L102,178L84,160Z" fill="rgb(97, 136, 169)" fill-opacity="0.53"/><path d="M20,253L19,237L8,306Z" fill="rgb(127, 155, 190)" fill-opacity="0.58"/><path d="M16,106L16,134L12,142Z" fill="rgb(150, 202, 242)" fill-opacity="0.54"/><path d="M169,42L136,34L168,34Z" fill="rgb(64, 129, 122)" fill-opacity="0.52"/><path d="M160,220L142,209L159,227Z" fill="rgb(104, 132, 167)" fill-opacity="0.44"/><path d="M28,98L21,110L29,119Z" fill="rgb(137, 186, 221)" fill-opacity="0.54"/><path d="M-4,215L7,185L-31,132Z" fill="rgb(57, 54, 19)" fill-opacity="0.27"/><path d="M17,76L10,122L17,99Z" fill="rgb(107, 79, 5)" fill-opacity="0.62"/><path d="M134,94L161,92L161,80Z" fill="rgb(28, 43, 1)" fill-opacity="0.55"/><path d="M166,90L168,116L173,63Z" fill="rgb(64, 68, 24)" fill-opacity="0.57"/><path d="M157,64L129,57L137,86Z" fill="rgb(35, 54, 26)" fill-opacity="0.63"/><path d="M76,23L92,38L104,36Z" fill="rgb(250, 255, 255)" fill-opacity="0.67"/><path d="M107,67L106,88L138,57Z" fill="rgb(63, 101, 64)" fill-opacity="0.52"/><path d="M118,51L104,45L110,52Z" fill="rgb(251, 255, 255)" fill-opacity="0.54"/><path d="M156,50L141,53L138,60Z" fill="rgb(124, 161, 130)" fill-opacity="0.44"/><path d="M92,165L129,151L119,171Z" fill="rgb(8, 58, 0)" fill-opacity="0.43"/><path d="M85,213L91,220L71,224Z" fill="rgb(64, 134, 48)" fill-opacity="0.48"/><path d="M59,98L63,95L69,100Z" fill="rgb(9, 23, 44)" fill-opacity="0.41"/><path d="M23,72L15,72L17,84Z" fill="rgb(77, 67, 33)" fill-opacity="0.51"/><path d="M61,162L75,170L49,166Z" fill="rgb(97, 120, 145)" fill-opacity="0.56"/><path d="M164,76L166,86L163,112Z" fill="rgb(201, 231, 253)" fill-opacity="0.56"/><path d="M123,50L94,41L151,38Z" fill="rgb(67, 130, 83)" fill-opacity="0.37"/><path d="M51,114L41,115L55,100Z" fill="rgb(12, 22, 38)" fill-opacity="0.49"/><path d="M77,151L82,171L87,164Z" fill="rgb(16, 48, 68)" fill-opacity="0.52"/><path d="M3,100L3,79L-12,104Z" fill="rgb(55, 38, 34)" fill-opacity="0.62"/><path d="M93,78L107,94L84,101Z" fill="rgb(16, 9, 12)" fill-opacity="0.63"/><path d="M102,222L91,206L88,172Z" fill="rgb(18, 57, 96)" fill-opacity="0.49"/><path d="M18,12L13,94L4,36Z" fill="rgb(163, 199, 224)" fill-opacity="0.56"/><path d="M100,195L89,185L94,200Z" fill="rgb(0, 38, 28)" fill-opacity="0.59"/><path d="M5,163L18,180L15,147Z" fill="rgb(108, 145, 179)" fill-opacity="0.44"/><path d="M54,150L65,134L75,147Z" fill="rgb(30, 33, 38)" fill-opacity="0.55"/><path d="M4,61L4,89L-5,62Z" fill="rgb(50, 13, 4)" fill-opacity="0.30"/><path d="M132,37L134,37L131,27Z" fill="rgb(239, 240, 245)" fill-opacity="0.55"/><path d="M91,161L104,147L97,167Z" fill="rgb(1, 0, 0)" fill-opacity="0.51"/><path d="M95,177L95,172L83,172Z" fill="rgb(36, 63, 84)" fill-opacity="0.50"/><path d="M152,88L154,64L169,63Z" fill="rgb(70, 108, 69)" fill-opacity="0.55"/><path d="M37,18L40,17L43,0Z" fill="rgb(152, 196, 234)" fill-opacity="0.50"/><path d="M167,69L164,66L166,84Z" fill="rgb(215, 244, 255)" fill-opacity="0.51"/><path d="M117,92L122,86L108,94Z" fill="rgb(127, 173, 198)" fill-opacity="0.36"/><path d="M29,233L40,222L94,224Z" fill="rgb(126, 150, 171)" fill-opacity="0.44"/><path d="M87,38L93,39L101,67Z" fill="rgb(65, 85, 71)" fill-opacity="0.51"/><path d="M3,126L6,101L9,143Z" fill="rgb(165, 199, 241)" fill-opacity="0.24"/><path d="M66,223L86,241L56,194Z" fill="rgb(83, 94, 67)" fill-opacity="0.43"/><path d="M58,115L47,137L44,116Z" fill="rgb(136, 183, 199)" fill-opacity="0.45"/><path d="M46,17L88,22L47,44Z" fill="rgb(250, 255, 255)" fill-opacity="0.57"/><path d="M62,212L48,212L32,273Z" fill="rgb(119, 146, 177)" fill-opacity="0.51"/><path d="M108,98L110,83L106,88Z" fill="rgb(184, 196, 153)" fill-opacity="0.42"/><path d="M107,26L97,26L93,33Z" fill="rgb(29, 97, 69)" fill-opacity="0.36"/><path d="M106,72L106,68L108,72Z" fill="rgb(158, 177, 178)" fill-opacity="0.60"/><path d="M156,152L187,114L172,168Z" fill="rgb(156, 136, 130)" fill-opacity="0.46"/><path d="M43,188L25,187L37,182Z" fill="rgb(117, 135, 116)" fill-opacity="0.57"/></svg>