<svg xmlns="http://www.w3.org/2000/svg" viewBox="0 0 169.55844155844156 256" clip-path="url(#clip)" width="339.1168831168831" height="512"><defs><clipPath id="clip" clipPathUnits="objectBoundingBox"><rect x="0" y="0" width="169.55844155844156" height="256"/></clipPath></defs><rect x="0" y="0" width="169.55844155844156" height="256" fill="rgb(91, 101, 109)"/><path d="M-50,31L125,15L73,-139Z" fill="rgb(246, 247, 248)" fill-opacity="1.00"/><path d="M-18,69L1,41L49,64Z" fill="rgb(252, 254, 244)" fill-opacity="0.81"/><path d="M77,14L103,-60L123,29Z" fill="rgb(250, 249, 250)" fill-opacity="0.92"/><path d="M164,270L28,120L-104,248Z" fill="rgb(6, 19, 40)" fill-opacity="0.65"/><path d="M117,69L120,108L86,86Z" fill="rgb(174, 217, 251)" fill-opacity="0.41"/><path d="M-35,33L147,25L140,76Z" fill="rgb(109, 11, 0)" fill-opacity="0.65"/><path d="M160,67L41,61L164,46Z" fill="rgb(95, 21, 9)" fill-opacity="0.74"/><path d="M-16,184L133,103L259,146Z" fill="rgb(50, 54, 56)" fill-opacity="1.00"/><path d="M168,-12L200,64L145,40Z" fill="rgb(157, 189, 226)" fill-opacity="0.78"/><path d="M171,273L168,220L129,261Z" fill="rgb(8, 22, 40)" fill-opacity="0.79"/><path d="M21,16L0,-37L0,47Z" fill="rgb(250, 253, 254)" fill-opacity="0.79"/><path d="M81,87L167,61L161,110Z" fill="rgb(153, 186, 205)" fill-opacity="0.58"/><path d="M38,81L31,21L81,31Z" fill="rgb(133, 26, 2)" fill-opacity="0.53"/><path d="M119,26L157,24L137,-62Z" fill="rgb(0, 3, 16)" fill-opacity="0.52"/><path d="M142,235L89,208L72,241Z" fill="rgb(78, 116, 160)" fill-opacity="0.61"/><path d="M74,38L68,107L108,53Z" fill="rgb(27, 30, 39)" fill-opacity="0.73"/><path d="M4,96L10,64L-19,56Z" fill="rgb(40, 65, 6)" fill-opacity="0.51"/><path d="M18,130L6,123L35,129Z" fill="rgb(221, 193, 166)" fill-opacity="0.47"/><path d="M98,155L151,155L105,186Z" fill="rgb(36, 79, 109)" fill-opacity="0.62"/><path d="M118,93L149,84L116,78Z" fill="rgb(29, 35, 9)" fill-opacity="0.47"/><path d="M21,119L12,97L-10,120Z" fill="rgb(21, 12, 12)" fill-opacity="0.59"/><path d="M92,105L70,138L106,120Z" fill="rgb(37, 32, 17)" fill-opacity="0.46"/><path d="M133,106L133,69L122,75Z" fill="rgb(234, 243, 210)" fill-opacity="0.45"/><path d="M90,192L71,173L104,177Z" fill="rgb(113, 174, 238)" fill-opacity="0.35"/><path d="M162,66L156,44L70,29Z" fill="rgb(105, 21, 8)" fill-opacity="0.77"/><path d="M27,20L47,66L4,36Z" fill="rgb(114, 17, 4)" fill-opacity="0.44"/><path d="M165,70L145,114L142,67Z" fill="rgb(152, 197, 253)" fill-opacity="0.43"/><path d="M96,72L132,71L117,80Z" fill="rgb(184, 209, 229)" fill-opacity="0.50"/><path d="M33,165L-4,176L3,183Z" fill="rgb(255, 247, 235)" fill-opacity="0.38"/><path d="M136,188L157,196L135,167Z" fill="rgb(26, 0, 27)" fill-opacity="0.56"/><path d="M151,230L146,246L121,246Z" fill="rgb(98, 161, 237)" fill-opacity="0.42"/><path d="M-14,40L76,-65L63,6Z" fill="rgb(252, 254, 254)" fill-opacity="0.85"/><path d="M140,168L153,161L111,153Z" fill="rgb(104, 141, 154)" fill-opacity="0.62"/><path d="M162,122L168,66L229,112Z" fill="rgb(37, 32, 31)" fill-opacity="0.94"/><path d="M100,173L22,72L19,171Z" fill="rgb(68, 62, 69)" fill-opacity="0.70"/><path d="M147,128L201,182L144,152Z" fill="rgb(3, 0, 14)" fill-opacity="0.58"/><path d="M138,179L101,188L105,202Z" fill="rgb(80, 136, 211)" fill-opacity="0.44"/><path d="M89,294L-10,262L69,177Z" fill="rgb(8, 22, 38)" fill-opacity="0.72"/><path d="M15,107L22,91L47,80Z" fill="rgb(145, 167, 203)" fill-opacity="0.50"/><path d="M94,213L77,221L79,234Z" fill="rgb(104, 142, 195)" fill-opacity="0.50"/><path d="M46,93L101,97L93,58Z" fill="rgb(41, 10, 13)" fill-opacity="0.24"/><path d="M123,162L119,183L140,199Z" fill="rgb(122, 167, 209)" fill-opacity="0.45"/><path d="M147,181L174,213L156,174Z" fill="rgb(114, 172, 253)" fill-opacity="0.48"/><path d="M137,112L84,143L143,159Z" fill="rgb(20, 31, 18)" fill-opacity="0.63"/><path d="M44,59L72,73L49,72Z" fill="rgb(175, 214, 138)" fill-opacity="0.40"/><path d="M175,192L156,179L165,162Z" fill="rgb(0, 44, 85)" fill-opacity="0.57"/><path d="M122,28L142,37L157,11Z" fill="rgb(1, 30, 47)" fill-opacity="0.59"/><path d="M121,35L122,-1L92,31Z" fill="rgb(236, 230, 241)" fill-opacity="0.37"/><path d="M33,88L1,81L53,57Z" fill="rgb(53, 86, 46)" fill-opacity="0.50"/><path d="M33,89L17,93L41,83Z" fill="rgb(137, 165, 201)" fill-opacity="0.59"/><path d="M145,250L76,236L34,298Z" fill="rgb(5, 38, 56)" fill-opacity="1.00"/><path d="M135,208L94,200L136,216Z" fill="rgb(25, 34, 57)" fill-opacity="0.59"/><path d="M19,68L58,81L56,73Z" fill="rgb(0, 7, 15)" fill-opacity="0.42"/><path d="M109,110L123,118L133,83Z" fill="rgb(197, 208, 149)" fill-opacity="0.30"/><path d="M21,98L18,75L1,95Z" fill="rgb(149, 126, 134)" fill-opacity="0.60"/><path d="M120,78L118,86L138,87Z" fill="rgb(14, 29, 13)" fill-opacity="0.51"/><path d="M59,17L66,65L37,59Z" fill="rgb(146, 34, 22)" fill-opacity="0.52"/><path d="M137,-3L135,37L122,37Z" fill="rgb(106, 126, 146)" fill-opacity="0.43"/><path d="M54,24L6,31L84,30Z" fill="rgb(93, 23, 23)" fill-opacity="0.77"/><path d="M28,69L-91,22L37,57Z" fill="rgb(255, 255, 255)" fill-opacity="0.78"/><path d="M6,60L18,62L14,73Z" fill="rgb(251, 255, 247)" fill-opacity="0.51"/><path d="M93,37L60,18L94,18Z" fill="rgb(165, 108, 127)" fill-opacity="0.44"/><path d="M103,65L90,34L62,55Z" fill="rgb(0, 29, 44)" fill-opacity="0.45"/><path d="M23,161L26,199L6,194Z" fill="rgb(39, 66, 106)" fill-opacity="0.67"/><path d="M15,171L26,170L25,147Z" fill="rgb(99, 105, 123)" fill-opacity="0.48"/><path d="M95,207L89,200L87,218Z" fill="rgb(157, 193, 236)" fill-opacity="0.40"/><path d="M95,74L139,60L108,36Z" fill="rgb(149, 29, 6)" fill-opacity="0.43"/><path d="M108,241L126,218L98,218Z" fill="rgb(138, 184, 255)" fill-opacity="0.30"/><path d="M-7,125L24,131L21,127Z" fill="rgb(251, 232, 196)" fill-opacity="0.52"/><path d="M167,208L157,221L139,216Z" fill="rgb(45, 0, 18)" fill-opacity="0.37"/><path d="M133,77L145,83L135,93Z" fill="rgb(58, 83, 44)" fill-opacity="0.58"/><path d="M159,120L157,105L144,109Z" fill="rgb(20, 12, 15)" fill-opacity="0.63"/><path d="M161,219L151,223L161,233Z" fill="rgb(15, 33, 37)" fill-opacity="0.50"/><path d="M129,103L131,75L125,95Z" fill="rgb(245, 246, 210)" fill-opacity="0.45"/><path d="M119,188L102,185L115,149Z" fill="rgb(25, 34, 57)" fill-opacity="0.58"/><path d="M20,181L106,192L102,206Z" fill="rgb(30, 33, 46)" fill-opacity="0.67"/><path d="M160,143L161,149L129,170Z" fill="rgb(120, 108, 112)" fill-opacity="0.41"/><path d="M56,18L38,22L69,27Z" fill="rgb(158, 123, 142)" fill-opacity="0.45"/><path d="M30,160L-3,301L62,171Z" fill="rgb(19, 33, 56)" fill-opacity="0.73"/><path d="M97,216L86,233L103,236Z" fill="rgb(45, 37, 30)" fill-opacity="0.50"/><path d="M158,46L141,40L178,-18Z" fill="rgb(161, 193, 226)" fill-opacity="0.43"/><path d="M114,190L114,220L163,204Z" fill="rgb(45, 55, 81)" fill-opacity="0.42"/><path d="M138,191L133,179L121,196Z" fill="rgb(115, 150, 195)" fill-opacity="0.62"/><path d="M-10,65L-3,27L17,55Z" fill="rgb(255, 255, 255)" fill-opacity="0.63"/><path d="M6,99L16,120L18,106Z" fill="rgb(0, 4, 14)" fill-opacity="0.57"/><path d="M11,173L16,182L-5,177Z" fill="rgb(232, 210, 177)" fill-opacity="0.54"/><path d="M109,213L105,209L107,205Z" fill="rgb(110, 152, 205)" fill-opacity="0.60"/><path d="M166,-25L151,16L142,-1Z" fill="rgb(0, 7, 23)" fill-opacity="0.62"/><path d="M88,212L79,179L78,217Z" fill="rgb(10, 2, 0)" fill-opacity="0.48"/><path d="M180,205L157,176L145,173Z" fill="rgb(98, 141, 197)" fill-opacity="0.49"/><path d="M9,39L30,23L5,32Z" fill="rgb(74, 25, 33)" fill-opacity="0.52"/><path d="M122,253L138,237L110,203Z" fill="rgb(32, 65, 98)" fill-opacity="0.57"/><path d="M146,6L146,11L142,12Z" fill="rgb(211, 255, 255)" fill-opacity="0.45"/><path d="M121,10L141,-21L127,29Z" fill="rgb(16, 6, 6)" fill-opacity="0.55"/><path d="M171,59L138,39L157,65Z" fill="rgb(94, 22, 11)" fill-opacity="0.74"/><path d="M128,223L152,242L155,215Z" fill="rgb(69, 109, 172)" fill-opacity="0.44"/><path d="M36,68L37,58L27,65Z" fill="rgb(173, 210, 189)" fill-opacity="0.53"/><path d="M207,188L131,220L125,218Z" fill="rgb(105, 134, 185)" fill-opacity="0.61"/><path d="M77,91L63,77L57,105Z" fill="rgb(47, 39, 48)" fill-opacity="0.51"/><path d="M21,146L21,149L14,152Z" fill="rgb(141, 141, 131)" fill-opacity="0.50"/><path d="M10,166L51,130L6,129Z" fill="rgb(70, 57, 48)" fill-opacity="0.61"/><path d="M99,169L94,186L103,177Z" fill="rgb(137, 195, 249)" fill-opacity="0.48"/><path d="M162,103L144,68L137,109Z" fill="rgb(133, 169, 204)" fill-opacity="0.62"/><path d="M141,147L132,103L120,121Z" fill="rgb(17, 70, 2)" fill-opacity="0.42"/><path d="M106,241L115,230L88,237Z" fill="rgb(102, 136, 188)" fill-opacity="0.49"/><path d="M21,86L26,98L16,83Z" fill="rgb(170, 170, 165)" fill-opacity="0.60"/><path d="M152,270L157,234L173,240Z" fill="rgb(0, 0, 0)" fill-opacity="0.43"/><path d="M146,202L145,185L122,201Z" fill="rgb(48, 14, 8)" fill-opacity="0.31"/><path d="M139,16L144,42L152,11Z" fill="rgb(6, 8, 18)" fill-opacity="0.45"/><path d="M128,105L103,96L121,129Z" fill="rgb(69, 93, 96)" fill-opacity="0.50"/><path d="M87,120L104,111L90,166Z" fill="rgb(7, 24, 5)" fill-opacity="0.38"/><path d="M93,196L108,215L93,217Z" fill="rgb(21, 5, 5)" fill-opacity="0.44"/><path d="M58,130L63,168L75,136Z" fill="rgb(111, 114, 129)" fill-opacity="0.36"/><path d="M41,78L45,76L44,87Z" fill="rgb(169, 181, 204)" fill-opacity="0.46"/><path d="M81,59L73,80L63,50Z" fill="rgb(81, 81, 94)" fill-opacity="0.52"/><path d="M121,93L118,82L126,91Z" fill="rgb(0, 0, 19)" fill-opacity="0.57"/><path d="M143,127L139,120L150,113Z" fill="rgb(120, 114, 117)" fill-opacity="0.50"/><path d="M126,84L174,64L135,68Z" fill="rgb(207, 238, 206)" fill-opacity="0.26"/><path d="M95,70L110,93L107,70Z" fill="rgb(142, 179, 210)" fill-opacity="0.49"/><path d="M108,291L94,245L122,232Z" fill="rgb(0, 33, 53)" fill-opacity="0.69"/><path d="M160,46L186,89L173,1Z" fill="rgb(115, 136, 163)" fill-opacity="0.69"/><path d="M88,30L89,15L105,29Z" fill="rgb(148, 114, 128)" fill-opacity="0.51"/><path d="M107,156L107,178L98,167Z" fill="rgb(1, 68, 154)" fill-opacity="0.44"/><path d="M93,40L64,43L89,32Z" fill="rgb(112, 84, 95)" fill-opacity="0.46"/><path d="M120,29L126,-40L106,22Z" fill="rgb(252, 255, 254)" fill-opacity="0.69"/><path d="M27,72L20,72L29,75Z" fill="rgb(152, 199, 229)" fill-opacity="0.50"/><path d="M128,236L120,223L112,246Z" fill="rgb(6, 52, 77)" fill-opacity="0.58"/><path d="M139,244L148,280L105,259Z" fill="rgb(23, 1, 0)" fill-opacity="0.45"/><path d="M138,202L138,209L115,206Z" fill="rgb(89, 131, 180)" fill-opacity="0.44"/><path d="M31,79L25,78L25,66Z" fill="rgb(187, 211, 203)" fill-opacity="0.34"/><path d="M18,81L45,79L28,87Z" fill="rgb(2, 31, 2)" fill-opacity="0.42"/><path d="M154,17L139,13L150,28Z" fill="rgb(14, 13, 24)" fill-opacity="0.56"/><path d="M144,150L142,114L137,127Z" fill="rgb(105, 117, 80)" fill-opacity="0.41"/><path d="M134,14L135,3L131,22Z" fill="rgb(173, 215, 236)" fill-opacity="0.52"/><path d="M133,230L156,226L150,216Z" fill="rgb(97, 136, 185)" fill-opacity="0.31"/><path d="M22,53L16,29L3,33Z" fill="rgb(92, 29, 30)" fill-opacity="0.56"/><path d="M100,150L83,156L108,158Z" fill="rgb(107, 69, 67)" fill-opacity="0.43"/><path d="M85,93L71,148L40,96Z" fill="rgb(84, 84, 103)" fill-opacity="0.53"/><path d="M16,172L18,178L-3,178Z" fill="rgb(253, 239, 213)" fill-opacity="0.47"/><path d="M166,63L124,70L88,34Z" fill="rgb(116, 25, 9)" fill-opacity="0.68"/><path d="M30,55L48,73L62,66Z" fill="rgb(122, 151, 88)" fill-opacity="0.48"/><path d="M40,257L60,278L52,192Z" fill="rgb(10, 6, 9)" fill-opacity="0.56"/><path d="M25,165L35,179L9,183Z" fill="rgb(36, 60, 96)" fill-opacity="0.67"/><path d="M155,12L150,41L168,25Z" fill="rgb(159, 192, 225)" fill-opacity="0.46"/><path d="M55,175L84,163L76,190Z" fill="rgb(52, 40, 40)" fill-opacity="0.44"/><path d="M80,29L103,32L68,39Z" fill="rgb(116, 40, 36)" fill-opacity="0.74"/><path d="M68,172L48,179L23,161Z" fill="rgb(47, 19, 2)" fill-opacity="0.36"/><path d="M5,138L12,147L-36,171Z" fill="rgb(19, 20, 5)" fill-opacity="0.38"/><path d="M83,233L75,230L95,219Z" fill="rgb(92, 125, 173)" fill-opacity="0.50"/><path d="M110,123L115,131L106,135Z" fill="rgb(77, 95, 88)" fill-opacity="0.49"/><path d="M130,196L115,202L120,207Z" fill="rgb(127, 107, 30)" fill-opacity="0.45"/><path d="M115,145L94,152L87,131Z" fill="rgb(23, 6, 10)" fill-opacity="0.59"/><path d="M136,92L137,75L142,87Z" fill="rgb(36, 54, 3)" fill-opacity="0.48"/><path d="M10,25L46,25L65,20Z" fill="rgb(152, 136, 153)" fill-opacity="0.77"/><path d="M10,110L-23,80L0,112Z" fill="rgb(140, 110, 87)" fill-opacity="0.49"/><path d="M110,194L90,185L125,186Z" fill="rgb(95, 136, 184)" fill-opacity="0.50"/><path d="M28,95L22,120L17,86Z" fill="rgb(118, 118, 129)" fill-opacity="0.58"/><path d="M102,112L88,133L118,114Z" fill="rgb(49, 87, 67)" fill-opacity="0.50"/><path d="M41,105L44,137L57,131Z" fill="rgb(43, 40, 44)" fill-opacity="0.52"/><path d="M176,198L183,167L154,174Z" fill="rgb(2, 60, 88)" fill-opacity="0.49"/><path d="M16,84L4,61L-18,84Z" fill="rgb(63, 85, 41)" fill-opacity="0.57"/><path d="M146,34L150,42L136,38Z" fill="rgb(131, 142, 159)" fill-opacity="0.50"/><path d="M129,32L119,28L130,17Z" fill="rgb(24, 24, 23)" fill-opacity="0.50"/><path d="M118,224L118,235L84,208Z" fill="rgb(95, 130, 177)" fill-opacity="0.54"/><path d="M101,156L86,170L96,180Z" fill="rgb(36, 39, 48)" fill-opacity="0.61"/><path d="M142,127L149,152L160,138Z" fill="rgb(0, 0, 6)" fill-opacity="0.52"/><path d="M162,217L210,230L159,220Z" fill="rgb(126, 195, 220)" fill-opacity="0.48"/><path d="M150,271L187,251L170,248Z" fill="rgb(79, 122, 174)" fill-opacity="0.61"/><path d="M98,94L119,91L102,107Z" fill="rgb(85, 123, 183)" fill-opacity="0.47"/><path d="M18,260L-21,194L11,176Z" fill="rgb(41, 50, 68)" fill-opacity="0.40"/><path d="M113,189L134,194L127,185Z" fill="rgb(121, 150, 183)" fill-opacity="0.56"/><path d="M92,102L88,108L113,107Z" fill="rgb(96, 62, 54)" fill-opacity="0.52"/><path d="M13,113L4,118L30,130Z" fill="rgb(77, 75, 80)" fill-opacity="0.88"/><path d="M94,85L85,91L87,86Z" fill="rgb(231, 219, 196)" fill-opacity="0.56"/><path d="M27,80L26,91L17,73Z" fill="rgb(22, 55, 24)" fill-opacity="0.49"/><path d="M150,185L137,191L152,194Z" fill="rgb(22, 8, 43)" fill-opacity="0.53"/><path d="M106,119L92,124L108,137Z" fill="rgb(35, 81, 34)" fill-opacity="0.51"/><path d="M66,19L85,29L39,22Z" fill="rgb(143, 109, 124)" fill-opacity="0.57"/><path d="M142,66L125,73L141,73Z" fill="rgb(120, 135, 77)" fill-opacity="0.43"/><path d="M13,133L-11,133L-1,140Z" fill="rgb(254, 206, 116)" fill-opacity="0.33"/><path d="M59,86L62,99L96,81Z" fill="rgb(38, 29, 31)" fill-opacity="0.32"/><path d="M73,278L97,246L71,225Z" fill="rgb(1, 48, 71)" fill-opacity="0.85"/><path d="M59,179L59,196L53,184Z" fill="rgb(75, 98, 109)" fill-opacity="0.47"/><path d="M147,174L159,209L188,201Z" fill="rgb(95, 136, 193)" fill-opacity="0.43"/><path d="M166,65L157,111L149,67Z" fill="rgb(145, 184, 234)" fill-opacity="0.39"/><path d="M69,50L40,37L54,67Z" fill="rgb(146, 41, 25)" fill-opacity="0.64"/><path d="M135,86L147,84L153,78Z" fill="rgb(62, 77, 82)" fill-opacity="0.43"/><path d="M155,158L129,179L179,168Z" fill="rgb(53, 77, 101)" fill-opacity="0.53"/><path d="M144,174L129,177L149,195Z" fill="rgb(56, 14, 38)" fill-opacity="0.48"/><path d="M145,181L147,173L162,183Z" fill="rgb(132, 167, 210)" fill-opacity="0.42"/><path d="M22,126L10,129L14,124Z" fill="rgb(255, 255, 233)" fill-opacity="0.50"/><path d="M124,65L102,43L104,70Z" fill="rgb(144, 29, 9)" fill-opacity="0.45"/><path d="M123,-47L91,16L17,24Z" fill="rgb(253, 253, 253)" fill-opacity="0.94"/><path d="M192,153L158,158L169,132Z" fill="rgb(10, 7, 9)" fill-opacity="0.73"/><path d="M95,241L118,235L103,230Z" fill="rgb(110, 146, 196)" fill-opacity="0.33"/><path d="M56,83L53,79L64,76Z" fill="rgb(128, 143, 174)" fill-opacity="0.50"/><path d="M9,44L66,26L36,57Z" fill="rgb(122, 30, 21)" fill-opacity="0.71"/><path d="M169,88L143,90L144,87Z" fill="rgb(78, 104, 137)" fill-opacity="0.51"/><path d="M86,195L64,224L88,215Z" fill="rgb(20, 15, 17)" fill-opacity="0.48"/><path d="M89,113L78,87L85,157Z" fill="rgb(106, 97, 116)" fill-opacity="0.35"/></svg>