<svg xmlns="http://www.w3.org/2000/svg" viewBox="0 0 256 169.55844155844156" clip-path="url(#clip)" width="512" height="339.1168831168831"><defs><clipPath id="clip" clipPathUnits="objectBoundingBox"><rect x="0" y="0" width="256" height="169.55844155844156"/></clipPath></defs><rect x="0" y="0" width="256" height="169.55844155844156" fill="rgb(78, 95, 113)"/><path d="M-44,42L58,-184L277,14Z" fill="rgb(141, 196, 247)" fill-opacity="0.87"/><path d="M18,328L0,74L312,148Z" fill="rgb(44, 35, 30)" fill-opacity="0.94"/><path d="M87,146L132,88L19,127Z" fill="rgb(152, 119, 94)" fill-opacity="0.60"/><path d="M41,9L223,7L148,37Z" fill="rgb(139, 196, 243)" fill-opacity="0.92"/><path d="M227,71L134,79L171,199Z" fill="rgb(45, 28, 11)" fill-opacity="0.74"/><path d="M49,18L106,107L-36,62Z" fill="rgb(118, 53, 0)" fill-opacity="0.47"/><path d="M210,126L199,84L196,111Z" fill="rgb(255, 188, 159)" fill-opacity="0.47"/><path d="M319,90L191,22L274,9Z" fill="rgb(6, 19, 57)" fill-opacity="0.74"/><path d="M115,116L80,101L107,45Z" fill="rgb(197, 184, 153)" fill-opacity="0.52"/><path d="M121,116L167,124L133,89Z" fill="rgb(250, 163, 118)" fill-opacity="0.42"/><path d="M33,63L24,36L67,45Z" fill="rgb(252, 152, 81)" fill-opacity="0.46"/><path d="M224,54L210,119L360,44Z" fill="rgb(239, 168, 68)" fill-opacity="0.40"/><path d="M79,44L28,15L138,12Z" fill="rgb(149, 202, 243)" fill-opacity="0.89"/><path d="M203,65L121,55L226,15Z" fill="rgb(13, 20, 47)" fill-opacity="0.64"/><path d="M81,65L94,79L35,89Z" fill="rgb(255, 172, 74)" fill-opacity="0.45"/><path d="M24,154L39,139L35,119Z" fill="rgb(231, 183, 111)" fill-opacity="0.56"/><path d="M5,119L11,147L-32,140Z" fill="rgb(252, 177, 99)" fill-opacity="0.59"/><path d="M47,26L28,35L66,46Z" fill="rgb(51, 0, 0)" fill-opacity="0.55"/><path d="M222,63L124,64L126,81Z" fill="rgb(196, 163, 86)" fill-opacity="0.62"/><path d="M48,101L22,33L-110,74Z" fill="rgb(22, 14, 19)" fill-opacity="0.62"/><path d="M69,64L70,89L40,84Z" fill="rgb(242, 123, 64)" fill-opacity="0.61"/><path d="M7,29L-12,33L-3,22Z" fill="rgb(23, 50, 36)" fill-opacity="0.80"/><path d="M243,51L213,61L286,59Z" fill="rgb(148, 189, 223)" fill-opacity="0.70"/><path d="M249,125L268,92L230,112Z" fill="rgb(247, 179, 130)" fill-opacity="0.41"/><path d="M61,92L56,115L99,117Z" fill="rgb(9, 11, 17)" fill-opacity="0.50"/><path d="M127,88L107,84L125,117Z" fill="rgb(37, 18, 4)" fill-opacity="0.59"/><path d="M274,52L146,63L174,64Z" fill="rgb(190, 211, 193)" fill-opacity="0.41"/><path d="M109,60L288,46L110,68Z" fill="rgb(24, 22, 12)" fill-opacity="0.63"/><path d="M104,143L97,86L116,93Z" fill="rgb(180, 177, 169)" fill-opacity="0.51"/><path d="M214,115L99,294L245,122Z" fill="rgb(11, 0, 0)" fill-opacity="0.48"/><path d="M24,72L37,65L26,75Z" fill="rgb(88, 132, 183)" fill-opacity="0.53"/><path d="M183,108L278,93L192,92Z" fill="rgb(8, 0, 0)" fill-opacity="0.32"/><path d="M208,134L238,92L247,136Z" fill="rgb(93, 70, 54)" fill-opacity="0.61"/><path d="M94,72L35,60L93,40Z" fill="rgb(0, 26, 27)" fill-opacity="0.45"/><path d="M135,209L157,110L129,118Z" fill="rgb(4, 3, 3)" fill-opacity="0.60"/><path d="M171,108L167,95L162,114Z" fill="rgb(255, 206, 154)" fill-opacity="0.49"/><path d="M31,99L32,112L0,105Z" fill="rgb(55, 131, 209)" fill-opacity="0.46"/><path d="M213,56L177,23L323,41Z" fill="rgb(24, 34, 61)" fill-opacity="0.77"/><path d="M65,118L50,94L9,109Z" fill="rgb(33, 70, 114)" fill-opacity="0.49"/><path d="M226,110L207,119L222,89Z" fill="rgb(251, 185, 157)" fill-opacity="0.53"/><path d="M9,229L59,145L45,117Z" fill="rgb(13, 8, 3)" fill-opacity="0.61"/><path d="M38,172L-11,137L17,202Z" fill="rgb(20, 6, 8)" fill-opacity="0.78"/><path d="M95,76L85,75L100,135Z" fill="rgb(68, 52, 32)" fill-opacity="0.64"/><path d="M69,80L49,67L37,78Z" fill="rgb(138, 139, 164)" fill-opacity="0.49"/><path d="M126,85L143,101L126,108Z" fill="rgb(255, 225, 195)" fill-opacity="0.50"/><path d="M161,123L163,114L149,125Z" fill="rgb(252, 177, 138)" fill-opacity="0.55"/><path d="M195,104L218,102L231,70Z" fill="rgb(11, 0, 0)" fill-opacity="0.33"/><path d="M38,57L63,57L31,78Z" fill="rgb(3, 17, 32)" fill-opacity="0.71"/><path d="M202,59L269,64L212,84Z" fill="rgb(199, 167, 64)" fill-opacity="0.32"/><path d="M117,68L121,90L75,67Z" fill="rgb(176, 160, 96)" fill-opacity="0.55"/><path d="M128,70L137,56L126,61Z" fill="rgb(175, 177, 191)" fill-opacity="0.53"/><path d="M131,81L130,92L158,101Z" fill="rgb(29, 8, 1)" fill-opacity="0.60"/><path d="M175,93L186,107L183,86Z" fill="rgb(214, 146, 96)" fill-opacity="0.50"/><path d="M123,105L106,118L105,129Z" fill="rgb(9, 0, 0)" fill-opacity="0.53"/><path d="M84,91L82,102L96,90Z" fill="rgb(255, 220, 193)" fill-opacity="0.46"/><path d="M202,57L203,91L185,48Z" fill="rgb(13, 19, 28)" fill-opacity="0.49"/><path d="M54,84L74,85L56,92Z" fill="rgb(239, 149, 69)" fill-opacity="0.57"/><path d="M76,91L77,108L67,91Z" fill="rgb(201, 151, 120)" fill-opacity="0.46"/><path d="M127,109L130,132L125,131Z" fill="rgb(232, 250, 249)" fill-opacity="0.56"/><path d="M43,118L27,129L69,119Z" fill="rgb(211, 136, 91)" fill-opacity="0.56"/><path d="M248,119L249,106L241,102Z" fill="rgb(239, 219, 198)" fill-opacity="0.47"/><path d="M32,32L-14,61L52,32Z" fill="rgb(42, 32, 25)" fill-opacity="0.72"/><path d="M206,111L193,106L208,127Z" fill="rgb(253, 170, 133)" fill-opacity="0.53"/><path d="M31,115L17,167L4,147Z" fill="rgb(0, 9, 20)" fill-opacity="0.58"/><path d="M135,101L148,114L152,103Z" fill="rgb(255, 162, 111)" fill-opacity="0.50"/><path d="M200,123L-10,164L428,238Z" fill="rgb(6, 9, 12)" fill-opacity="0.67"/><path d="M123,60L114,59L125,96Z" fill="rgb(12, 10, 5)" fill-opacity="0.45"/><path d="M65,115L91,136L73,151Z" fill="rgb(144, 134, 135)" fill-opacity="0.54"/><path d="M113,122L116,125L132,122Z" fill="rgb(252, 149, 66)" fill-opacity="0.50"/><path d="M129,53L126,95L129,128Z" fill="rgb(243, 250, 253)" fill-opacity="0.64"/><path d="M96,90L70,90L91,83Z" fill="rgb(29, 25, 8)" fill-opacity="0.63"/><path d="M187,130L200,127L190,118Z" fill="rgb(125, 84, 75)" fill-opacity="0.54"/><path d="M5,139L-41,90L6,125Z" fill="rgb(255, 244, 188)" fill-opacity="0.43"/><path d="M194,118L169,114L172,97Z" fill="rgb(5, 0, 0)" fill-opacity="0.44"/><path d="M241,101L228,91L228,116Z" fill="rgb(56, 44, 2)" fill-opacity="0.57"/><path d="M3,31L56,16L32,30Z" fill="rgb(161, 206, 242)" fill-opacity="0.62"/><path d="M37,35L55,35L74,48Z" fill="rgb(21, 0, 0)" fill-opacity="0.44"/><path d="M103,114L101,102L101,120Z" fill="rgb(255, 255, 255)" fill-opacity="0.56"/><path d="M102,66L98,81L98,59Z" fill="rgb(249, 255, 255)" fill-opacity="0.51"/><path d="M282,22L121,51L177,25Z" fill="rgb(18, 38, 81)" fill-opacity="0.83"/><path d="M70,45L78,43L41,22Z" fill="rgb(216, 148, 96)" fill-opacity="0.46"/><path d="M82,40L140,38L49,58Z" fill="rgb(40, 87, 96)" fill-opacity="0.53"/><path d="M24,55L31,38L57,40Z" fill="rgb(238, 152, 81)" fill-opacity="0.41"/><path d="M80,65L95,35L98,60Z" fill="rgb(39, 48, 40)" fill-opacity="0.57"/><path d="M114,94L105,112L105,93Z" fill="rgb(252, 241, 228)" fill-opacity="0.56"/><path d="M76,90L80,104L83,90Z" fill="rgb(0, 4, 5)" fill-opacity="0.54"/><path d="M22,151L21,166L38,142Z" fill="rgb(112, 94, 48)" fill-opacity="0.55"/><path d="M106,145L153,160L103,115Z" fill="rgb(23, 19, 14)" fill-opacity="0.51"/><path d="M83,90L88,115L99,100Z" fill="rgb(175, 149, 112)" fill-opacity="0.53"/><path d="M60,69L43,82L45,66Z" fill="rgb(116, 131, 157)" fill-opacity="0.61"/><path d="M217,60L226,54L202,58Z" fill="rgb(187, 221, 237)" fill-opacity="0.44"/><path d="M107,91L90,62L105,59Z" fill="rgb(197, 206, 221)" fill-opacity="0.36"/><path d="M128,69L162,79L159,65Z" fill="rgb(216, 172, 101)" fill-opacity="0.43"/><path d="M87,143L64,119L79,113Z" fill="rgb(146, 126, 117)" fill-opacity="0.51"/><path d="M177,99L128,92L179,69Z" fill="rgb(31, 26, 6)" fill-opacity="0.60"/><path d="M213,127L279,139L214,135Z" fill="rgb(127, 133, 153)" fill-opacity="0.30"/><path d="M61,120L58,130L42,120Z" fill="rgb(255, 153, 95)" fill-opacity="0.42"/><path d="M190,120L190,131L199,107Z" fill="rgb(150, 100, 80)" fill-opacity="0.51"/><path d="M225,95L212,109L215,117Z" fill="rgb(255, 255, 235)" fill-opacity="0.38"/><path d="M226,105L219,119L229,107Z" fill="rgb(250, 190, 149)" fill-opacity="0.50"/><path d="M193,66L196,77L141,78Z" fill="rgb(110, 105, 29)" fill-opacity="0.60"/><path d="M75,68L95,72L70,84Z" fill="rgb(184, 188, 122)" fill-opacity="0.50"/><path d="M11,99L13,124L-16,86Z" fill="rgb(103, 79, 69)" fill-opacity="0.74"/><path d="M80,123L81,113L103,132Z" fill="rgb(29, 29, 24)" fill-opacity="0.58"/><path d="M27,122L28,135L10,106Z" fill="rgb(2, 42, 89)" fill-opacity="0.51"/><path d="M204,110L196,103L210,125Z" fill="rgb(255, 190, 155)" fill-opacity="0.56"/><path d="M140,117L152,100L134,118Z" fill="rgb(239, 129, 79)" fill-opacity="0.46"/><path d="M192,23L161,25L215,18Z" fill="rgb(140, 198, 253)" fill-opacity="0.54"/><path d="M102,120L103,127L104,114Z" fill="rgb(225, 242, 248)" fill-opacity="0.46"/><path d="M142,120L142,97L135,120Z" fill="rgb(141, 75, 42)" fill-opacity="0.66"/><path d="M106,68L108,95L113,62Z" fill="rgb(60, 63, 28)" fill-opacity="0.47"/><path d="M92,90L99,88L100,107Z" fill="rgb(58, 64, 79)" fill-opacity="0.58"/><path d="M53,43L45,35L51,52Z" fill="rgb(250, 158, 73)" fill-opacity="0.51"/><path d="M45,68L37,60L98,64Z" fill="rgb(1, 10, 19)" fill-opacity="0.59"/><path d="M188,73L173,74L195,91Z" fill="rgb(23, 37, 1)" fill-opacity="0.52"/><path d="M115,85L106,88L125,101Z" fill="rgb(9, 6, 4)" fill-opacity="0.55"/><path d="M104,106L115,111L118,102Z" fill="rgb(255, 140, 15)" fill-opacity="0.44"/><path d="M161,156L168,106L217,183Z" fill="rgb(6, 5, 5)" fill-opacity="0.79"/><path d="M183,86L189,88L182,91Z" fill="rgb(255, 173, 124)" fill-opacity="0.55"/><path d="M57,77L70,69L69,83Z" fill="rgb(243, 111, 40)" fill-opacity="0.62"/><path d="M208,106L224,103L197,115Z" fill="rgb(214, 157, 135)" fill-opacity="0.49"/><path d="M278,155L197,139L248,138Z" fill="rgb(4, 7, 6)" fill-opacity="0.60"/><path d="M209,88L272,109L241,80Z" fill="rgb(130, 87, 25)" fill-opacity="0.34"/><path d="M60,46L49,34L74,46Z" fill="rgb(28, 0, 0)" fill-opacity="0.48"/><path d="M4,131L5,141L-11,161Z" fill="rgb(243, 136, 34)" fill-opacity="0.58"/><path d="M61,124L68,138L60,99Z" fill="rgb(14, 8, 17)" fill-opacity="0.56"/><path d="M109,182L103,144L103,124Z" fill="rgb(147, 182, 227)" fill-opacity="0.41"/><path d="M231,67L203,69L198,80Z" fill="rgb(99, 98, 41)" fill-opacity="0.64"/><path d="M40,80L43,90L67,99Z" fill="rgb(41, 8, 17)" fill-opacity="0.55"/><path d="M278,116L222,119L233,114Z" fill="rgb(223, 176, 148)" fill-opacity="0.47"/><path d="M33,50L27,52L37,65Z" fill="rgb(255, 145, 81)" fill-opacity="0.47"/><path d="M19,66L39,99L8,102Z" fill="rgb(23, 7, 7)" fill-opacity="0.60"/><path d="M224,103L217,107L222,94Z" fill="rgb(253, 223, 190)" fill-opacity="0.48"/><path d="M244,131L237,121L204,119Z" fill="rgb(39, 14, 12)" fill-opacity="0.40"/><path d="M47,46L39,42L20,47Z" fill="rgb(250, 168, 103)" fill-opacity="0.47"/><path d="M14,108L12,102L24,102Z" fill="rgb(60, 142, 214)" fill-opacity="0.50"/><path d="M106,115L115,93L115,108Z" fill="rgb(248, 190, 126)" fill-opacity="0.61"/><path d="M105,130L102,44L101,77Z" fill="rgb(57, 75, 65)" fill-opacity="0.64"/><path d="M75,44L54,27L115,26Z" fill="rgb(165, 213, 243)" fill-opacity="0.55"/><path d="M129,63L127,149L127,56Z" fill="rgb(250, 255, 255)" fill-opacity="0.44"/><path d="M60,156L68,116L68,166Z" fill="rgb(21, 14, 7)" fill-opacity="0.59"/><path d="M102,74L101,102L98,78Z" fill="rgb(212, 216, 218)" fill-opacity="0.64"/><path d="M158,101L174,87L150,85Z" fill="rgb(7, 4, 9)" fill-opacity="0.68"/><path d="M107,45L112,60L127,58Z" fill="rgb(139, 158, 116)" fill-opacity="0.48"/><path d="M141,106L130,108L128,137Z" fill="rgb(26, 16, 11)" fill-opacity="0.49"/><path d="M55,116L56,137L64,130Z" fill="rgb(228, 136, 83)" fill-opacity="0.54"/><path d="M187,104L181,93L212,103Z" fill="rgb(10, 6, 9)" fill-opacity="0.58"/><path d="M4,118L9,102L-8,121Z" fill="rgb(59, 34, 26)" fill-opacity="0.44"/><path d="M56,147L58,161L75,142Z" fill="rgb(4, 7, 6)" fill-opacity="0.45"/><path d="M78,128L79,115L76,110Z" fill="rgb(251, 178, 168)" fill-opacity="0.33"/><path d="M207,20L133,-135L225,18Z" fill="rgb(122, 175, 238)" fill-opacity="0.54"/><path d="M30,127L41,135L35,137Z" fill="rgb(255, 198, 138)" fill-opacity="0.45"/><path d="M161,127L163,118L150,120Z" fill="rgb(255, 176, 133)" fill-opacity="0.52"/><path d="M219,108L215,128L231,131Z" fill="rgb(73, 50, 41)" fill-opacity="0.74"/><path d="M167,112L154,97L168,102Z" fill="rgb(200, 137, 108)" fill-opacity="0.51"/><path d="M131,72L133,83L142,62Z" fill="rgb(202, 170, 126)" fill-opacity="0.63"/><path d="M24,73L24,66L34,72Z" fill="rgb(116, 186, 255)" fill-opacity="0.40"/><path d="M62,61L115,31L87,38Z" fill="rgb(35, 75, 88)" fill-opacity="0.51"/><path d="M234,73L218,86L232,85Z" fill="rgb(73, 61, 24)" fill-opacity="0.42"/><path d="M34,144L45,124L55,130Z" fill="rgb(24, 8, 0)" fill-opacity="0.56"/><path d="M81,69L77,77L86,76Z" fill="rgb(229, 188, 135)" fill-opacity="0.53"/><path d="M28,117L41,97L23,105Z" fill="rgb(28, 86, 135)" fill-opacity="0.60"/><path d="M111,86L108,67L120,84Z" fill="rgb(221, 169, 77)" fill-opacity="0.37"/><path d="M200,95L202,98L193,94Z" fill="rgb(181, 193, 184)" fill-opacity="0.49"/><path d="M118,66L109,65L119,85Z" fill="rgb(120, 123, 32)" fill-opacity="0.60"/><path d="M211,72L225,59L202,68Z" fill="rgb(178, 148, 79)" fill-opacity="0.50"/><path d="M144,58L147,66L124,56Z" fill="rgb(15, 17, 15)" fill-opacity="0.50"/><path d="M18,154L23,103L6,130Z" fill="rgb(1, 24, 44)" fill-opacity="0.52"/><path d="M103,71L108,68L103,66Z" fill="rgb(231, 239, 250)" fill-opacity="0.50"/><path d="M87,143L101,131L83,138Z" fill="rgb(214, 105, 31)" fill-opacity="0.42"/><path d="M161,86L218,75L232,86Z" fill="rgb(21, 35, 6)" fill-opacity="0.35"/><path d="M148,131L166,131L152,121Z" fill="rgb(79, 71, 69)" fill-opacity="0.52"/><path d="M179,52L267,48L164,60Z" fill="rgb(17, 17, 17)" fill-opacity="0.54"/><path d="M40,121L31,110L47,112Z" fill="rgb(35, 9, 0)" fill-opacity="0.58"/><path d="M95,117L83,129L98,121Z" fill="rgb(211, 122, 38)" fill-opacity="0.49"/><path d="M46,48L32,47L36,58Z" fill="rgb(85, 82, 82)" fill-opacity="0.47"/><path d="M168,116L154,105L145,120Z" fill="rgb(26, 25, 28)" fill-opacity="0.70"/><path d="M125,123L121,90L110,86Z" fill="rgb(37, 18, 6)" fill-opacity="0.53"/><path d="M109,64L126,48L96,48Z" fill="rgb(107, 128, 110)" fill-opacity="0.65"/><path d="M242,44L235,47L251,44Z" fill="rgb(136, 137, 134)" fill-opacity="0.50"/><path d="M250,58L279,19L285,64Z" fill="rgb(153, 182, 209)" fill-opacity="0.88"/><path d="M192,60L182,59L189,72Z" fill="rgb(188, 183, 139)" fill-opacity="0.46"/><path d="M189,57L202,91L202,59Z" fill="rgb(39, 45, 60)" fill-opacity="0.52"/><path d="M64,144L57,138L64,137Z" fill="rgb(179, 109, 49)" fill-opacity="0.46"/><path d="M90,89L93,90L81,97Z" fill="rgb(255, 225, 197)" fill-opacity="0.50"/><path d="M154,82L161,79L144,57Z" fill="rgb(167, 148, 93)" fill-opacity="0.42"/><path d="M38,41L19,45L34,35Z" fill="rgb(97, 72, 67)" fill-opacity="0.54"/><path d="M129,96L132,63L130,61Z" fill="rgb(73, 79, 104)" fill-opacity="0.62"/><path d="M181,127L177,131L180,108Z" fill="rgb(160, 66, 26)" fill-opacity="0.40"/><path d="M42,124L36,120L37,132Z" fill="rgb(223, 148, 83)" fill-opacity="0.54"/><path d="M174,103L167,108L161,98Z" fill="rgb(255, 175, 132)" fill-opacity="0.42"/><path d="M214,57L212,51L222,55Z" fill="rgb(27, 36, 41)" fill-opacity="0.52"/><path d="M39,71L-24,83L42,103Z" fill="rgb(30, 18, 20)" fill-opacity="0.64"/><path d="M169,106L190,107L165,124Z" fill="rgb(0, 0, 1)" fill-opacity="0.47"/><path d="M128,132L125,114L129,90Z" fill="rgb(208, 214, 216)" fill-opacity="0.52"/><path d="M15,55L-47,79L9,40Z" fill="rgb(4, 28, 11)" fill-opacity="0.56"/><path d="M294,113L245,100L253,122Z" fill="rgb(151, 138, 134)" fill-opacity="0.67"/><path d="M95,81L69,92L72,79Z" fill="rgb(82, 92, 23)" fill-opacity="0.50"/><path d="M132,83L156,102L194,80Z" fill="rgb(30, 22, 15)" fill-opacity="0.68"/><path d="M167,118L148,122L160,123Z" fill="rgb(245, 158, 112)" fill-opacity="0.52"/></svg>