<svg xmlns="http://www.w3.org/2000/svg" viewBox="0 0 256 169.55844155844156" clip-path="url(#clip)" width="512" height="339.1168831168831"><defs><clipPath id="clip" clipPathUnits="objectBoundingBox"><rect x="0" y="0" width="256" height="169.55844155844156"/></clipPath></defs><rect x="0" y="0" width="256" height="169.55844155844156" fill="rgb(90, 105, 103)"/><path d="M310,43L208,16L219,-29Z" fill="rgb(251, 243, 184)" fill-opacity="0.90"/><path d="M234,23L298,171L120,29Z" fill="rgb(5, 0, 9)" fill-opacity="0.63"/><path d="M165,77L128,90L218,128Z" fill="rgb(255, 184, 130)" fill-opacity="0.69"/><path d="M54,-8L26,110L110,158Z" fill="rgb(152, 190, 226)" fill-opacity="0.54"/><path d="M35,173L-216,113L27,57Z" fill="rgb(28, 34, 39)" fill-opacity="0.72"/><path d="M128,99L177,123L160,98Z" fill="rgb(12, 6, 15)" fill-opacity="0.55"/><path d="M79,127L183,134L100,81Z" fill="rgb(237, 176, 139)" fill-opacity="0.39"/><path d="M204,108L235,124L234,28Z" fill="rgb(9, 5, 6)" fill-opacity="0.63"/><path d="M-10,36L-15,-97L68,18Z" fill="rgb(63, 108, 45)" fill-opacity="0.65"/><path d="M186,30L73,27L166,86Z" fill="rgb(68, 79, 88)" fill-opacity="0.81"/><path d="M92,133L39,16L12,54Z" fill="rgb(133, 182, 223)" fill-opacity="0.45"/><path d="M209,104L147,85L175,113Z" fill="rgb(246, 203, 203)" fill-opacity="0.48"/><path d="M175,117L219,111L192,129Z" fill="rgb(255, 158, 70)" fill-opacity="0.61"/><path d="M144,107L93,119L169,123Z" fill="rgb(252, 197, 134)" fill-opacity="0.52"/><path d="M124,130L103,96L85,97Z" fill="rgb(0, 10, 39)" fill-opacity="0.44"/><path d="M190,109L209,127L220,114Z" fill="rgb(240, 123, 43)" fill-opacity="0.58"/><path d="M57,19L23,-175L217,17Z" fill="rgb(96, 127, 155)" fill-opacity="0.78"/><path d="M218,224L270,141L174,169Z" fill="rgb(14, 7, 36)" fill-opacity="0.29"/><path d="M224,17L316,27L259,60Z" fill="rgb(162, 177, 205)" fill-opacity="0.60"/><path d="M27,132L296,118L145,166Z" fill="rgb(105, 118, 127)" fill-opacity="0.94"/><path d="M130,101L121,121L102,88Z" fill="rgb(237, 196, 176)" fill-opacity="0.39"/><path d="M95,130L97,113L112,126Z" fill="rgb(242, 246, 253)" fill-opacity="0.50"/><path d="M126,89L145,100L120,77Z" fill="rgb(144, 189, 226)" fill-opacity="0.53"/><path d="M30,143L34,101L94,140Z" fill="rgb(116, 148, 178)" fill-opacity="0.42"/><path d="M22,21L43,25L23,38Z" fill="rgb(123, 161, 210)" fill-opacity="0.45"/><path d="M74,132L36,28L28,86Z" fill="rgb(128, 166, 196)" fill-opacity="0.65"/><path d="M82,85L73,-6L101,118Z" fill="rgb(28, 39, 65)" fill-opacity="0.43"/><path d="M229,128L200,99L213,17Z" fill="rgb(17, 17, 21)" fill-opacity="0.67"/><path d="M202,124L181,123L198,114Z" fill="rgb(255, 194, 139)" fill-opacity="0.71"/><path d="M10,36L15,5L26,45Z" fill="rgb(21, 43, 15)" fill-opacity="0.54"/><path d="M101,86L91,91L105,94Z" fill="rgb(255, 255, 230)" fill-opacity="0.51"/><path d="M114,121L159,126L104,133Z" fill="rgb(65, 76, 77)" fill-opacity="0.50"/><path d="M155,74L194,91L185,13Z" fill="rgb(46, 53, 60)" fill-opacity="0.72"/><path d="M153,78L185,86L129,88Z" fill="rgb(250, 158, 71)" fill-opacity="0.52"/><path d="M3,15L50,10L69,26Z" fill="rgb(61, 103, 43)" fill-opacity="0.64"/><path d="M200,3L285,-79L242,27Z" fill="rgb(255, 254, 186)" fill-opacity="0.46"/><path d="M170,23L107,23L131,20Z" fill="rgb(170, 252, 170)" fill-opacity="0.41"/><path d="M112,73L130,109L141,107Z" fill="rgb(6, 15, 33)" fill-opacity="0.48"/><path d="M123,97L62,21L186,45Z" fill="rgb(64, 79, 93)" fill-opacity="0.61"/><path d="M-70,146L26,59L31,100Z" fill="rgb(37, 46, 44)" fill-opacity="0.84"/><path d="M2,140L-12,177L10,148Z" fill="rgb(150, 154, 167)" fill-opacity="0.51"/><path d="M157,126L176,119L183,125Z" fill="rgb(32, 24, 22)" fill-opacity="0.55"/><path d="M76,47L69,21L117,28Z" fill="rgb(52, 64, 79)" fill-opacity="0.61"/><path d="M183,88L153,98L142,87Z" fill="rgb(255, 188, 47)" fill-opacity="0.39"/><path d="M155,110L125,109L129,129Z" fill="rgb(245, 181, 95)" fill-opacity="0.38"/><path d="M236,121L215,29L329,107Z" fill="rgb(16, 12, 14)" fill-opacity="0.62"/><path d="M191,91L202,87L171,111Z" fill="rgb(191, 186, 202)" fill-opacity="0.65"/><path d="M0,40L33,57L1,55Z" fill="rgb(97, 136, 180)" fill-opacity="0.43"/><path d="M90,94L81,86L89,123Z" fill="rgb(248, 114, 82)" fill-opacity="0.49"/><path d="M105,41L108,87L81,79Z" fill="rgb(52, 73, 90)" fill-opacity="0.72"/><path d="M144,96L165,82L139,81Z" fill="rgb(254, 175, 102)" fill-opacity="0.56"/><path d="M142,97L120,77L125,91Z" fill="rgb(144, 181, 202)" fill-opacity="0.49"/><path d="M161,99L153,118L147,99Z" fill="rgb(34, 33, 31)" fill-opacity="0.56"/><path d="M44,18L40,-6L34,9Z" fill="rgb(110, 168, 108)" fill-opacity="0.50"/><path d="M75,38L20,21L86,110Z" fill="rgb(122, 159, 186)" fill-opacity="0.69"/><path d="M116,119L78,113L129,116Z" fill="rgb(209, 197, 190)" fill-opacity="0.40"/><path d="M99,133L157,147L194,126Z" fill="rgb(134, 156, 169)" fill-opacity="0.34"/><path d="M250,146L251,123L277,106Z" fill="rgb(97, 108, 118)" fill-opacity="0.78"/><path d="M106,87L94,91L105,98Z" fill="rgb(221, 225, 188)" fill-opacity="0.47"/><path d="M126,116L175,120L159,123Z" fill="rgb(242, 205, 157)" fill-opacity="0.47"/><path d="M142,71L142,101L127,74Z" fill="rgb(0, 0, 19)" fill-opacity="0.20"/><path d="M128,162L79,116L46,153Z" fill="rgb(100, 114, 130)" fill-opacity="0.46"/><path d="M18,58L43,21L75,32Z" fill="rgb(113, 149, 175)" fill-opacity="0.61"/><path d="M119,109L124,105L103,105Z" fill="rgb(224, 226, 226)" fill-opacity="0.54"/><path d="M100,37L134,72L166,44Z" fill="rgb(82, 98, 106)" fill-opacity="0.72"/><path d="M82,96L86,102L83,108Z" fill="rgb(108, 83, 81)" fill-opacity="0.51"/><path d="M27,47L20,40L27,60Z" fill="rgb(71, 90, 108)" fill-opacity="0.66"/><path d="M112,108L86,108L116,115Z" fill="rgb(0, 10, 37)" fill-opacity="0.36"/><path d="M94,119L94,99L83,109Z" fill="rgb(232, 129, 110)" fill-opacity="0.48"/><path d="M88,89L120,89L108,85Z" fill="rgb(215, 203, 149)" fill-opacity="0.55"/><path d="M225,65L169,80L128,79Z" fill="rgb(31, 36, 43)" fill-opacity="0.70"/><path d="M120,94L108,112L117,86Z" fill="rgb(159, 104, 82)" fill-opacity="0.48"/><path d="M210,-1L215,22L202,2Z" fill="rgb(209, 106, 128)" fill-opacity="0.50"/><path d="M217,122L247,123L217,136Z" fill="rgb(110, 127, 137)" fill-opacity="0.72"/><path d="M142,96L145,90L159,94Z" fill="rgb(255, 209, 159)" fill-opacity="0.48"/><path d="M179,122L173,111L159,115Z" fill="rgb(28, 19, 23)" fill-opacity="0.55"/><path d="M94,44L81,66L70,24Z" fill="rgb(40, 58, 71)" fill-opacity="0.44"/><path d="M202,16L242,39L252,56Z" fill="rgb(26, 18, 21)" fill-opacity="0.67"/><path d="M148,107L148,124L129,123Z" fill="rgb(227, 174, 107)" fill-opacity="0.59"/><path d="M171,19L152,22L181,22Z" fill="rgb(173, 254, 107)" fill-opacity="0.50"/><path d="M104,104L99,116L87,87Z" fill="rgb(32, 45, 61)" fill-opacity="0.56"/><path d="M248,20L260,23L255,19Z" fill="rgb(74, 36, 39)" fill-opacity="0.50"/><path d="M147,83L173,97L180,82Z" fill="rgb(255, 181, 105)" fill-opacity="0.61"/><path d="M181,85L183,103L197,75Z" fill="rgb(22, 21, 38)" fill-opacity="0.26"/><path d="M162,107L162,97L211,109Z" fill="rgb(209, 193, 235)" fill-opacity="0.32"/><path d="M35,128L15,139L21,178Z" fill="rgb(53, 63, 74)" fill-opacity="0.59"/><path d="M107,27L70,23L10,-45Z" fill="rgb(83, 110, 126)" fill-opacity="0.83"/><path d="M33,155L-28,210L188,154Z" fill="rgb(73, 73, 90)" fill-opacity="0.38"/><path d="M204,101L187,94L198,111Z" fill="rgb(223, 156, 170)" fill-opacity="0.49"/><path d="M130,93L130,108L152,106Z" fill="rgb(19, 28, 40)" fill-opacity="0.52"/><path d="M211,16L205,29L230,20Z" fill="rgb(69, 54, 65)" fill-opacity="0.41"/><path d="M125,127L106,129L125,118Z" fill="rgb(53, 76, 94)" fill-opacity="0.53"/><path d="M181,126L195,109L183,112Z" fill="rgb(214, 86, 2)" fill-opacity="0.49"/><path d="M14,58L16,94L-21,53Z" fill="rgb(36, 63, 37)" fill-opacity="0.42"/><path d="M138,83L150,87L142,91Z" fill="rgb(234, 140, 55)" fill-opacity="0.58"/><path d="M18,26L17,42L23,27Z" fill="rgb(7, 0, 26)" fill-opacity="0.52"/><path d="M168,113L173,118L192,112Z" fill="rgb(66, 18, 0)" fill-opacity="0.36"/><path d="M146,114L141,110L163,111Z" fill="rgb(198, 175, 133)" fill-opacity="0.61"/><path d="M20,40L10,47L-38,9Z" fill="rgb(50, 79, 92)" fill-opacity="0.62"/><path d="M113,87L130,73L87,61Z" fill="rgb(48, 68, 84)" fill-opacity="0.52"/><path d="M252,59L249,26L265,94Z" fill="rgb(111, 138, 161)" fill-opacity="0.63"/><path d="M108,109L115,108L113,124Z" fill="rgb(11, 42, 65)" fill-opacity="0.41"/><path d="M121,107L114,110L120,111Z" fill="rgb(87, 87, 84)" fill-opacity="0.50"/><path d="M12,-3L-7,30L-97,-11Z" fill="rgb(72, 129, 1)" fill-opacity="0.60"/><path d="M21,152L12,191L7,155Z" fill="rgb(37, 36, 39)" fill-opacity="0.53"/><path d="M0,-36L32,20L12,28Z" fill="rgb(60, 82, 37)" fill-opacity="0.49"/><path d="M225,123L216,122L250,64Z" fill="rgb(22, 19, 20)" fill-opacity="0.64"/><path d="M30,95L34,132L83,130Z" fill="rgb(122, 152, 174)" fill-opacity="0.41"/><path d="M103,108L124,96L112,82Z" fill="rgb(171, 131, 107)" fill-opacity="0.53"/><path d="M220,117L213,126L202,109Z" fill="rgb(235, 118, 50)" fill-opacity="0.55"/><path d="M79,57L31,102L82,126Z" fill="rgb(143, 180, 202)" fill-opacity="0.38"/><path d="M255,164L278,156L175,172Z" fill="rgb(34, 41, 46)" fill-opacity="0.56"/><path d="M59,167L18,157L45,184Z" fill="rgb(54, 65, 74)" fill-opacity="0.51"/><path d="M227,24L259,47L271,23Z" fill="rgb(135, 156, 185)" fill-opacity="0.56"/><path d="M121,120L119,109L117,120Z" fill="rgb(231, 229, 232)" fill-opacity="0.49"/><path d="M31,88L36,82L29,68Z" fill="rgb(131, 175, 213)" fill-opacity="0.46"/><path d="M251,54L196,97L264,112Z" fill="rgb(21, 20, 22)" fill-opacity="0.84"/><path d="M31,10L31,21L19,-21Z" fill="rgb(143, 207, 51)" fill-opacity="0.41"/><path d="M181,115L182,112L184,118Z" fill="rgb(20, 25, 41)" fill-opacity="0.57"/><path d="M101,103L99,113L90,111Z" fill="rgb(47, 47, 58)" fill-opacity="0.61"/><path d="M88,123L105,113L112,122Z" fill="rgb(229, 218, 213)" fill-opacity="0.41"/><path d="M142,81L129,66L196,72Z" fill="rgb(43, 55, 63)" fill-opacity="0.39"/><path d="M208,36L184,18L173,17Z" fill="rgb(46, 39, 44)" fill-opacity="0.47"/><path d="M-13,24L19,26L-15,-4Z" fill="rgb(87, 131, 89)" fill-opacity="0.50"/><path d="M143,131L110,126L138,125Z" fill="rgb(75, 91, 102)" fill-opacity="0.57"/><path d="M16,67L26,48L17,47Z" fill="rgb(152, 181, 201)" fill-opacity="0.35"/><path d="M131,117L144,110L140,117Z" fill="rgb(167, 115, 84)" fill-opacity="0.56"/><path d="M44,24L53,7L32,19Z" fill="rgb(58, 105, 31)" fill-opacity="0.49"/><path d="M96,118L90,127L110,128Z" fill="rgb(221, 216, 212)" fill-opacity="0.47"/><path d="M210,22L184,23L196,19Z" fill="rgb(237, 125, 84)" fill-opacity="0.50"/><path d="M164,99L173,92L187,91Z" fill="rgb(243, 211, 147)" fill-opacity="0.55"/><path d="M184,126L196,110L188,111Z" fill="rgb(255, 171, 38)" fill-opacity="0.48"/><path d="M82,84L189,61L84,90Z" fill="rgb(51, 67, 79)" fill-opacity="0.73"/><path d="M157,16L134,36L175,54Z" fill="rgb(68, 77, 78)" fill-opacity="0.48"/><path d="M121,163L106,139L95,162Z" fill="rgb(103, 107, 109)" fill-opacity="0.66"/><path d="M218,119L238,122L213,106Z" fill="rgb(17, 21, 28)" fill-opacity="0.55"/><path d="M198,87L203,82L197,104Z" fill="rgb(127, 136, 148)" fill-opacity="0.47"/><path d="M-18,70L21,85L4,69Z" fill="rgb(53, 94, 33)" fill-opacity="0.48"/><path d="M217,12L268,-68L268,22Z" fill="rgb(254, 252, 177)" fill-opacity="0.79"/><path d="M111,94L111,98L126,94Z" fill="rgb(203, 172, 166)" fill-opacity="0.51"/><path d="M206,111L210,111L209,122Z" fill="rgb(255, 128, 48)" fill-opacity="0.49"/><path d="M132,103L118,111L123,98Z" fill="rgb(222, 203, 183)" fill-opacity="0.38"/><path d="M68,24L33,58L73,36Z" fill="rgb(117, 153, 177)" fill-opacity="0.55"/><path d="M139,76L80,66L90,28Z" fill="rgb(65, 86, 101)" fill-opacity="0.49"/><path d="M177,98L194,110L190,94Z" fill="rgb(177, 149, 165)" fill-opacity="0.54"/><path d="M203,116L191,109L187,118Z" fill="rgb(255, 180, 61)" fill-opacity="0.59"/><path d="M126,125L137,133L116,145Z" fill="rgb(119, 143, 158)" fill-opacity="0.40"/><path d="M19,78L25,155L33,105Z" fill="rgb(32, 39, 55)" fill-opacity="0.38"/><path d="M208,110L203,112L208,92Z" fill="rgb(35, 16, 13)" fill-opacity="0.49"/><path d="M165,82L160,75L182,78Z" fill="rgb(36, 40, 45)" fill-opacity="0.70"/><path d="M1,163L-9,163L28,184Z" fill="rgb(134, 115, 121)" fill-opacity="0.42"/><path d="M99,19L59,21L50,7Z" fill="rgb(91, 116, 137)" fill-opacity="0.58"/><path d="M213,3L207,7L218,-24Z" fill="rgb(130, 111, 202)" fill-opacity="0.51"/><path d="M164,119L176,118L155,99Z" fill="rgb(29, 31, 36)" fill-opacity="0.56"/><path d="M185,95L179,27L225,22Z" fill="rgb(32, 34, 41)" fill-opacity="0.45"/><path d="M97,100L115,99L113,104Z" fill="rgb(129, 73, 58)" fill-opacity="0.47"/><path d="M8,139L7,156L-36,154Z" fill="rgb(116, 116, 126)" fill-opacity="0.53"/><path d="M246,26L299,122L286,28Z" fill="rgb(142, 187, 226)" fill-opacity="0.44"/><path d="M185,126L175,116L179,116Z" fill="rgb(245, 109, 33)" fill-opacity="0.51"/><path d="M199,86L167,24L186,94Z" fill="rgb(44, 53, 60)" fill-opacity="0.69"/><path d="M146,121L127,114L143,124Z" fill="rgb(243, 203, 133)" fill-opacity="0.50"/><path d="M113,25L149,27L118,30Z" fill="rgb(45, 51, 69)" fill-opacity="0.54"/><path d="M225,170L265,164L250,182Z" fill="rgb(90, 122, 149)" fill-opacity="0.59"/><path d="M84,127L108,132L89,134Z" fill="rgb(62, 81, 94)" fill-opacity="0.64"/><path d="M275,105L223,23L192,81Z" fill="rgb(21, 19, 22)" fill-opacity="0.68"/><path d="M234,-72L231,23L213,12Z" fill="rgb(255, 252, 202)" fill-opacity="0.48"/><path d="M103,114L87,112L87,126Z" fill="rgb(189, 162, 147)" fill-opacity="0.70"/><path d="M21,155L21,134L17,145Z" fill="rgb(96, 101, 106)" fill-opacity="0.54"/><path d="M245,20L248,21L259,21Z" fill="rgb(61, 30, 24)" fill-opacity="0.58"/><path d="M137,8L84,21L114,-48Z" fill="rgb(106, 137, 160)" fill-opacity="0.49"/><path d="M241,87L192,95L199,98Z" fill="rgb(25, 27, 35)" fill-opacity="0.56"/><path d="M203,120L191,117L198,123Z" fill="rgb(246, 230, 238)" fill-opacity="0.32"/><path d="M139,98L125,86L147,99Z" fill="rgb(179, 196, 211)" fill-opacity="0.46"/><path d="M88,91L86,115L83,89Z" fill="rgb(238, 108, 77)" fill-opacity="0.39"/><path d="M108,107L99,115L98,103Z" fill="rgb(27, 45, 61)" fill-opacity="0.49"/><path d="M128,116L160,113L137,114Z" fill="rgb(125, 92, 61)" fill-opacity="0.44"/><path d="M2,141L-6,135L9,133Z" fill="rgb(30, 17, 10)" fill-opacity="0.56"/><path d="M209,10L216,18L216,12Z" fill="rgb(255, 205, 131)" fill-opacity="0.58"/><path d="M204,91L191,92L189,94Z" fill="rgb(220, 247, 255)" fill-opacity="0.49"/><path d="M217,117L204,111L211,110Z" fill="rgb(242, 159, 59)" fill-opacity="0.57"/><path d="M94,86L107,93L114,85Z" fill="rgb(199, 205, 161)" fill-opacity="0.46"/><path d="M113,93L112,96L107,98Z" fill="rgb(219, 188, 183)" fill-opacity="0.50"/><path d="M103,100L92,102L95,95Z" fill="rgb(30, 51, 68)" fill-opacity="0.56"/><path d="M204,11L219,-23L206,-26Z" fill="rgb(254, 91, 130)" fill-opacity="0.42"/><path d="M23,23L59,23L28,60Z" fill="rgb(112, 149, 174)" fill-opacity="0.76"/><path d="M179,91L178,84L170,83Z" fill="rgb(245, 157, 65)" fill-opacity="0.64"/><path d="M149,15L138,4L132,13Z" fill="rgb(78, 98, 111)" fill-opacity="0.56"/><path d="M231,121L209,99L220,123Z" fill="rgb(23, 22, 27)" fill-opacity="0.51"/><path d="M134,119L127,124L136,125Z" fill="rgb(217, 145, 67)" fill-opacity="0.53"/><path d="M24,70L2,57L-7,70Z" fill="rgb(32, 29, 59)" fill-opacity="0.42"/><path d="M145,117L157,129L160,125Z" fill="rgb(120, 70, 30)" fill-opacity="0.37"/><path d="M104,128L111,115L111,125Z" fill="rgb(221, 227, 230)" fill-opacity="0.45"/><path d="M125,75L133,89L147,102Z" fill="rgb(76, 97, 117)" fill-opacity="0.48"/><path d="M125,124L122,111L129,108Z" fill="rgb(193, 128, 69)" fill-opacity="0.44"/><path d="M23,2L32,6L26,-7Z" fill="rgb(135, 156, 101)" fill-opacity="0.51"/><path d="M181,113L169,109L173,94Z" fill="rgb(233, 218, 236)" fill-opacity="0.34"/><path d="M65,5L36,-35L53,8Z" fill="rgb(73, 99, 114)" fill-opacity="0.81"/><path d="M9,35L8,83L11,35Z" fill="rgb(54, 74, 82)" fill-opacity="0.61"/><path d="M189,25L196,47L144,26Z" fill="rgb(52, 55, 62)" fill-opacity="0.65"/><path d="M24,22L10,17L21,14Z" fill="rgb(20, 61, 4)" fill-opacity="0.43"/></svg>