<svg xmlns="http://www.w3.org/2000/svg" viewBox="0 0 256 169.55844155844156" clip-path="url(#clip)" width="512" height="339.1168831168831"><defs><clipPath id="clip" clipPathUnits="objectBoundingBox"><rect x="0" y="0" width="256" height="169.55844155844156"/></clipPath></defs><rect x="0" y="0" width="256" height="169.55844155844156" fill="rgb(90, 89, 82)"/><path d="M187,110L43,20L204,31Z" fill="rgb(206, 211, 221)" fill-opacity="0.61"/><path d="M73,15L74,90L-39,95Z" fill="rgb(166, 162, 159)" fill-opacity="0.88"/><path d="M282,0L145,38L40,0Z" fill="rgb(123, 126, 118)" fill-opacity="0.98"/><path d="M143,40L185,51L217,27Z" fill="rgb(235, 249, 255)" fill-opacity="0.70"/><path d="M-114,116L73,88L62,160Z" fill="rgb(18, 16, 13)" fill-opacity="0.86"/><path d="M189,147L165,213L45,104Z" fill="rgb(40, 28, 20)" fill-opacity="0.83"/><path d="M14,146L144,47L130,39Z" fill="rgb(13, 15, 26)" fill-opacity="0.55"/><path d="M270,22L252,93L194,47Z" fill="rgb(7, 0, 0)" fill-opacity="0.63"/><path d="M126,74L126,94L180,104Z" fill="rgb(218, 219, 226)" fill-opacity="0.48"/><path d="M48,10L-61,23L46,42Z" fill="rgb(3, 8, 15)" fill-opacity="0.72"/><path d="M133,31L43,30L123,50Z" fill="rgb(234, 245, 252)" fill-opacity="0.73"/><path d="M122,56L129,106L77,104Z" fill="rgb(0, 0, 12)" fill-opacity="0.51"/><path d="M178,9L168,37L144,22Z" fill="rgb(46, 47, 44)" fill-opacity="0.73"/><path d="M72,57L83,55L73,19Z" fill="rgb(209, 224, 231)" fill-opacity="0.51"/><path d="M4,50L9,37L27,39Z" fill="rgb(227, 255, 255)" fill-opacity="0.55"/><path d="M76,96L124,57L74,55Z" fill="rgb(23, 24, 39)" fill-opacity="0.75"/><path d="M142,48L137,38L125,54Z" fill="rgb(3, 13, 21)" fill-opacity="0.55"/><path d="M52,47L132,0L44,2Z" fill="rgb(162, 170, 168)" fill-opacity="0.51"/><path d="M297,99L188,67L220,22Z" fill="rgb(33, 8, 0)" fill-opacity="0.43"/><path d="M29,39L-17,39L50,46Z" fill="rgb(193, 230, 255)" fill-opacity="0.68"/><path d="M99,165L81,111L40,138Z" fill="rgb(64, 62, 58)" fill-opacity="0.90"/><path d="M64,32L46,44L68,46Z" fill="rgb(203, 233, 255)" fill-opacity="0.61"/><path d="M155,157L101,136L131,118Z" fill="rgb(9, 3, 3)" fill-opacity="0.53"/><path d="M158,139L467,131L192,84Z" fill="rgb(97, 116, 128)" fill-opacity="0.84"/><path d="M23,192L-48,179L27,148Z" fill="rgb(59, 38, 16)" fill-opacity="0.64"/><path d="M57,165L70,187L59,137Z" fill="rgb(31, 24, 21)" fill-opacity="0.61"/><path d="M12,54L47,38L63,54Z" fill="rgb(16, 65, 74)" fill-opacity="0.46"/><path d="M-9,60L-8,74L22,51Z" fill="rgb(231, 209, 197)" fill-opacity="0.39"/><path d="M80,53L125,53L81,57Z" fill="rgb(235, 213, 190)" fill-opacity="0.47"/><path d="M236,25L257,22L243,37Z" fill="rgb(117, 121, 117)" fill-opacity="0.57"/><path d="M20,36L41,46L19,46Z" fill="rgb(181, 220, 255)" fill-opacity="0.48"/><path d="M200,92L141,112L196,45Z" fill="rgb(163, 153, 144)" fill-opacity="0.70"/><path d="M153,-20L102,19L158,31Z" fill="rgb(203, 204, 181)" fill-opacity="0.23"/><path d="M135,52L117,52L145,77Z" fill="rgb(201, 178, 161)" fill-opacity="0.65"/><path d="M253,83L293,135L216,86Z" fill="rgb(104, 125, 134)" fill-opacity="0.55"/><path d="M145,105L136,137L165,140Z" fill="rgb(112, 49, 27)" fill-opacity="0.53"/><path d="M74,137L71,105L94,96Z" fill="rgb(120, 132, 121)" fill-opacity="0.48"/><path d="M111,46L88,53L143,52Z" fill="rgb(62, 93, 77)" fill-opacity="0.55"/><path d="M146,36L166,32L132,29Z" fill="rgb(5, 6, 14)" fill-opacity="0.48"/><path d="M88,107L73,156L122,154Z" fill="rgb(29, 33, 37)" fill-opacity="0.58"/><path d="M86,164L52,190L71,155Z" fill="rgb(179, 163, 155)" fill-opacity="0.43"/><path d="M195,72L246,75L210,91Z" fill="rgb(63, 33, 19)" fill-opacity="0.61"/><path d="M58,133L72,140L77,123Z" fill="rgb(110, 107, 100)" fill-opacity="0.56"/><path d="M135,34L156,89L159,36Z" fill="rgb(125, 156, 208)" fill-opacity="0.54"/><path d="M162,38L180,27L202,46Z" fill="rgb(249, 255, 255)" fill-opacity="0.67"/><path d="M60,129L67,113L73,127Z" fill="rgb(0, 0, 0)" fill-opacity="0.58"/><path d="M95,156L76,192L141,154Z" fill="rgb(124, 94, 62)" fill-opacity="0.61"/><path d="M224,29L178,29L245,13Z" fill="rgb(131, 132, 112)" fill-opacity="0.59"/><path d="M43,31L55,21L106,22Z" fill="rgb(111, 120, 122)" fill-opacity="0.79"/><path d="M129,95L144,107L123,117Z" fill="rgb(162, 165, 147)" fill-opacity="0.41"/><path d="M284,79L172,148L154,120Z" fill="rgb(95, 113, 124)" fill-opacity="0.90"/><path d="M126,94L91,98L124,56Z" fill="rgb(24, 28, 41)" fill-opacity="0.69"/><path d="M26,12L56,12L-1,-35Z" fill="rgb(134, 137, 128)" fill-opacity="0.60"/><path d="M152,109L180,111L146,122Z" fill="rgb(66, 20, 0)" fill-opacity="0.46"/><path d="M202,61L237,29L203,38Z" fill="rgb(8, 4, 0)" fill-opacity="0.57"/><path d="M69,40L112,26L127,49Z" fill="rgb(234, 247, 254)" fill-opacity="0.49"/><path d="M100,121L92,109L150,106Z" fill="rgb(138, 141, 125)" fill-opacity="0.66"/><path d="M274,103L164,133L286,263Z" fill="rgb(76, 98, 113)" fill-opacity="0.54"/><path d="M150,87L131,95L121,45Z" fill="rgb(193, 177, 163)" fill-opacity="0.57"/><path d="M70,43L73,24L88,31Z" fill="rgb(255, 255, 255)" fill-opacity="0.48"/><path d="M176,8L172,14L164,4Z" fill="rgb(21, 19, 17)" fill-opacity="0.59"/><path d="M99,108L65,91L153,97Z" fill="rgb(40, 41, 38)" fill-opacity="0.61"/><path d="M44,12L37,41L49,40Z" fill="rgb(7, 11, 18)" fill-opacity="0.50"/><path d="M189,46L156,53L165,111Z" fill="rgb(170, 158, 150)" fill-opacity="0.75"/><path d="M189,174L159,132L126,171Z" fill="rgb(44, 17, 0)" fill-opacity="0.58"/><path d="M104,76L125,71L111,67Z" fill="rgb(48, 90, 139)" fill-opacity="0.50"/><path d="M235,83L259,52L268,89Z" fill="rgb(68, 46, 37)" fill-opacity="0.72"/><path d="M116,35L135,27L101,33Z" fill="rgb(121, 127, 118)" fill-opacity="0.49"/><path d="M134,39L145,30L134,48Z" fill="rgb(50, 53, 56)" fill-opacity="0.50"/><path d="M101,118L101,153L144,116Z" fill="rgb(54, 43, 35)" fill-opacity="0.41"/><path d="M76,92L66,42L35,86Z" fill="rgb(182, 169, 160)" fill-opacity="0.63"/><path d="M74,26L92,30L62,31Z" fill="rgb(244, 243, 243)" fill-opacity="0.54"/><path d="M177,110L181,107L166,104Z" fill="rgb(1, 0, 0)" fill-opacity="0.45"/><path d="M83,42L84,47L71,55Z" fill="rgb(157, 181, 212)" fill-opacity="0.50"/><path d="M164,34L159,23L165,14Z" fill="rgb(0, 0, 2)" fill-opacity="0.56"/><path d="M62,102L-25,92L20,155Z" fill="rgb(4, 3, 5)" fill-opacity="0.48"/><path d="M121,95L144,112L128,90Z" fill="rgb(144, 145, 131)" fill-opacity="0.48"/><path d="M146,23L40,-1L92,30Z" fill="rgb(141, 145, 135)" fill-opacity="0.69"/><path d="M25,165L26,149L68,123Z" fill="rgb(89, 72, 52)" fill-opacity="0.45"/><path d="M45,148L14,153L56,165Z" fill="rgb(71, 53, 34)" fill-opacity="0.67"/><path d="M171,20L206,22L184,-14Z" fill="rgb(143, 145, 137)" fill-opacity="0.46"/><path d="M139,31L149,18L159,19Z" fill="rgb(4, 3, 0)" fill-opacity="0.28"/><path d="M-38,44L-8,66L17,44Z" fill="rgb(40, 87, 87)" fill-opacity="0.51"/><path d="M4,35L-41,19L0,65Z" fill="rgb(58, 79, 74)" fill-opacity="0.82"/><path d="M202,53L201,48L182,49Z" fill="rgb(88, 111, 112)" fill-opacity="0.59"/><path d="M46,49L52,36L76,37Z" fill="rgb(225, 243, 255)" fill-opacity="0.42"/><path d="M84,123L46,167L69,151Z" fill="rgb(98, 83, 65)" fill-opacity="0.52"/><path d="M141,48L129,53L125,37Z" fill="rgb(17, 27, 43)" fill-opacity="0.51"/><path d="M154,66L144,68L150,106Z" fill="rgb(111, 140, 181)" fill-opacity="0.64"/><path d="M62,33L57,44L63,33Z" fill="rgb(138, 119, 123)" fill-opacity="0.50"/><path d="M124,47L131,29L87,45Z" fill="rgb(237, 248, 255)" fill-opacity="0.63"/><path d="M192,64L194,58L198,71Z" fill="rgb(40, 38, 43)" fill-opacity="0.46"/><path d="M91,156L100,139L75,147Z" fill="rgb(2, 18, 53)" fill-opacity="0.50"/><path d="M27,172L28,159L42,161Z" fill="rgb(163, 163, 169)" fill-opacity="0.45"/><path d="M45,6L59,1L46,-9Z" fill="rgb(79, 80, 79)" fill-opacity="0.41"/><path d="M35,-8L-13,11L6,17Z" fill="rgb(154, 139, 92)" fill-opacity="0.30"/><path d="M188,101L158,100L146,111Z" fill="rgb(117, 118, 118)" fill-opacity="0.69"/><path d="M69,48L93,48L77,41Z" fill="rgb(74, 104, 114)" fill-opacity="0.56"/><path d="M206,53L265,23L236,69Z" fill="rgb(16, 12, 6)" fill-opacity="0.62"/><path d="M163,93L187,53L205,92Z" fill="rgb(176, 165, 155)" fill-opacity="0.61"/><path d="M177,28L161,17L156,35Z" fill="rgb(8, 9, 10)" fill-opacity="0.41"/><path d="M100,34L111,33L84,26Z" fill="rgb(71, 75, 61)" fill-opacity="0.31"/><path d="M75,131L42,141L39,123Z" fill="rgb(82, 80, 72)" fill-opacity="0.40"/><path d="M165,8L155,20L161,0Z" fill="rgb(68, 67, 61)" fill-opacity="0.65"/><path d="M33,182L57,159L57,181Z" fill="rgb(152, 141, 131)" fill-opacity="0.50"/><path d="M215,93L207,71L198,83Z" fill="rgb(9, 0, 0)" fill-opacity="0.38"/><path d="M64,153L56,162L63,181Z" fill="rgb(9, 9, 10)" fill-opacity="0.50"/><path d="M36,27L20,7L6,21Z" fill="rgb(13, 15, 18)" fill-opacity="0.56"/><path d="M0,37L-14,13L26,37Z" fill="rgb(14, 18, 23)" fill-opacity="0.80"/><path d="M146,71L139,36L161,39Z" fill="rgb(146, 171, 208)" fill-opacity="0.49"/><path d="M168,22L165,41L161,34Z" fill="rgb(78, 83, 92)" fill-opacity="0.48"/><path d="M163,134L215,87L155,123Z" fill="rgb(112, 130, 144)" fill-opacity="0.58"/><path d="M179,162L178,146L217,131Z" fill="rgb(37, 39, 48)" fill-opacity="0.43"/><path d="M33,94L-10,93L23,87Z" fill="rgb(109, 111, 106)" fill-opacity="0.47"/><path d="M31,40L4,36L4,45Z" fill="rgb(214, 237, 255)" fill-opacity="0.45"/><path d="M-6,19L44,30L41,33Z" fill="rgb(108, 113, 103)" fill-opacity="0.43"/><path d="M139,132L156,105L127,114Z" fill="rgb(108, 71, 51)" fill-opacity="0.63"/><path d="M172,26L215,19L195,33Z" fill="rgb(112, 113, 101)" fill-opacity="0.72"/><path d="M187,48L158,36L201,45Z" fill="rgb(232, 245, 255)" fill-opacity="0.58"/><path d="M6,156L18,149L-7,153Z" fill="rgb(153, 156, 159)" fill-opacity="0.36"/><path d="M89,11L106,10L84,7Z" fill="rgb(114, 102, 80)" fill-opacity="0.44"/><path d="M-15,17L22,28L18,24Z" fill="rgb(110, 115, 107)" fill-opacity="0.40"/><path d="M-47,55L69,53L75,88Z" fill="rgb(202, 174, 160)" fill-opacity="0.30"/><path d="M60,32L59,28L52,37Z" fill="rgb(232, 246, 255)" fill-opacity="0.60"/><path d="M147,72L149,108L160,97Z" fill="rgb(121, 143, 174)" fill-opacity="0.69"/><path d="M150,150L134,128L110,147Z" fill="rgb(7, 8, 9)" fill-opacity="0.57"/><path d="M100,198L75,156L123,155Z" fill="rgb(110, 89, 66)" fill-opacity="0.74"/><path d="M145,25L156,24L160,38Z" fill="rgb(131, 132, 123)" fill-opacity="0.52"/><path d="M74,87L136,104L94,108Z" fill="rgb(28, 26, 24)" fill-opacity="0.44"/><path d="M252,24L235,29L249,32Z" fill="rgb(137, 146, 156)" fill-opacity="0.46"/><path d="M177,34L202,31L199,48Z" fill="rgb(239, 248, 255)" fill-opacity="0.50"/><path d="M75,27L81,24L50,18Z" fill="rgb(106, 109, 98)" fill-opacity="0.59"/><path d="M114,44L109,52L133,53Z" fill="rgb(83, 112, 104)" fill-opacity="0.48"/><path d="M57,10L33,14L75,11Z" fill="rgb(57, 48, 37)" fill-opacity="0.65"/><path d="M95,152L86,154L93,205Z" fill="rgb(112, 91, 66)" fill-opacity="0.69"/><path d="M120,128L122,117L66,122Z" fill="rgb(58, 58, 50)" fill-opacity="0.64"/><path d="M73,95L91,106L62,101Z" fill="rgb(112, 108, 82)" fill-opacity="0.45"/><path d="M245,33L213,30L198,47Z" fill="rgb(30, 20, 11)" fill-opacity="0.50"/><path d="M67,109L56,115L85,110Z" fill="rgb(114, 122, 97)" fill-opacity="0.46"/><path d="M168,44L154,43L166,50Z" fill="rgb(190, 212, 238)" fill-opacity="0.51"/><path d="M157,137L141,139L158,117Z" fill="rgb(112, 61, 43)" fill-opacity="0.52"/><path d="M14,43L61,43L10,40Z" fill="rgb(229, 248, 255)" fill-opacity="0.40"/><path d="M82,156L61,151L104,142Z" fill="rgb(12, 19, 39)" fill-opacity="0.58"/><path d="M78,155L72,154L69,170Z" fill="rgb(186, 193, 204)" fill-opacity="0.30"/><path d="M6,148L67,114L-50,133Z" fill="rgb(11, 10, 10)" fill-opacity="0.79"/><path d="M157,32L176,23L158,19Z" fill="rgb(14, 14, 11)" fill-opacity="0.49"/><path d="M88,29L97,51L73,27Z" fill="rgb(234, 246, 255)" fill-opacity="0.49"/><path d="M44,54L36,46L67,52Z" fill="rgb(55, 74, 60)" fill-opacity="0.47"/><path d="M188,44L176,29L170,31Z" fill="rgb(249, 255, 255)" fill-opacity="0.57"/><path d="M185,150L149,182L182,166Z" fill="rgb(6, 5, 8)" fill-opacity="0.65"/><path d="M163,143L97,176L121,181Z" fill="rgb(86, 40, 11)" fill-opacity="0.50"/><path d="M153,107L141,95L136,103Z" fill="rgb(0, 3, 51)" fill-opacity="0.40"/><path d="M197,71L211,52L234,83Z" fill="rgb(94, 53, 40)" fill-opacity="0.46"/><path d="M59,155L62,137L42,155Z" fill="rgb(9, 3, 4)" fill-opacity="0.50"/><path d="M38,118L32,115L41,115Z" fill="rgb(83, 98, 128)" fill-opacity="0.57"/><path d="M56,22L49,48L48,24Z" fill="rgb(76, 136, 226)" fill-opacity="0.43"/><path d="M186,4L175,3L219,-3Z" fill="rgb(92, 68, 42)" fill-opacity="0.46"/><path d="M112,55L100,56L80,82Z" fill="rgb(32, 29, 39)" fill-opacity="0.53"/><path d="M251,35L252,21L278,59Z" fill="rgb(10, 9, 7)" fill-opacity="0.49"/><path d="M141,36L130,27L146,29Z" fill="rgb(43, 45, 43)" fill-opacity="0.57"/><path d="M88,60L76,62L76,59Z" fill="rgb(110, 117, 181)" fill-opacity="0.51"/><path d="M261,9L225,31L241,-39Z" fill="rgb(102, 104, 89)" fill-opacity="0.62"/><path d="M193,83L183,94L217,93Z" fill="rgb(163, 158, 153)" fill-opacity="0.45"/><path d="M57,47L68,52L68,39Z" fill="rgb(152, 187, 217)" fill-opacity="0.56"/><path d="M240,18L232,34L261,19Z" fill="rgb(90, 87, 64)" fill-opacity="0.59"/><path d="M129,33L130,27L145,41Z" fill="rgb(248, 251, 255)" fill-opacity="0.35"/><path d="M-3,98L39,93L33,123Z" fill="rgb(18, 19, 20)" fill-opacity="0.74"/><path d="M95,137L118,144L102,142Z" fill="rgb(79, 83, 84)" fill-opacity="0.53"/><path d="M151,68L149,62L150,19Z" fill="rgb(47, 59, 59)" fill-opacity="0.42"/><path d="M192,65L191,57L202,73Z" fill="rgb(61, 50, 47)" fill-opacity="0.47"/><path d="M41,25L33,9L38,41Z" fill="rgb(12, 13, 17)" fill-opacity="0.56"/><path d="M76,88L116,77L73,59Z" fill="rgb(28, 29, 41)" fill-opacity="0.59"/><path d="M162,113L143,113L163,120Z" fill="rgb(32, 21, 15)" fill-opacity="0.51"/><path d="M77,44L89,49L88,42Z" fill="rgb(54, 90, 115)" fill-opacity="0.54"/><path d="M48,69L62,91L38,92Z" fill="rgb(161, 156, 150)" fill-opacity="0.56"/><path d="M129,149L129,158L86,150Z" fill="rgb(0, 0, 0)" fill-opacity="0.34"/><path d="M212,30L198,28L205,37Z" fill="rgb(251, 255, 255)" fill-opacity="0.52"/><path d="M188,50L160,48L153,52Z" fill="rgb(65, 102, 109)" fill-opacity="0.47"/><path d="M43,145L51,161L56,159Z" fill="rgb(17, 10, 7)" fill-opacity="0.50"/><path d="M230,71L197,71L247,85Z" fill="rgb(83, 57, 41)" fill-opacity="0.63"/><path d="M125,56L118,54L90,54Z" fill="rgb(235, 211, 192)" fill-opacity="0.44"/><path d="M63,141L83,141L60,156Z" fill="rgb(96, 83, 65)" fill-opacity="0.59"/><path d="M82,97L71,117L95,111Z" fill="rgb(109, 120, 108)" fill-opacity="0.52"/><path d="M114,146L98,149L116,148Z" fill="rgb(108, 84, 54)" fill-opacity="0.50"/><path d="M247,33L243,21L245,34Z" fill="rgb(158, 161, 164)" fill-opacity="0.50"/><path d="M61,11L62,35L61,38Z" fill="rgb(66, 33, 13)" fill-opacity="0.53"/><path d="M68,43L66,24L73,10Z" fill="rgb(150, 140, 132)" fill-opacity="0.60"/><path d="M135,59L67,60L98,61Z" fill="rgb(111, 112, 150)" fill-opacity="0.54"/><path d="M72,44L64,53L82,58Z" fill="rgb(163, 150, 137)" fill-opacity="0.50"/><path d="M132,99L135,112L149,110Z" fill="rgb(140, 138, 122)" fill-opacity="0.51"/><path d="M114,143L98,140L116,140Z" fill="rgb(93, 97, 98)" fill-opacity="0.50"/><path d="M92,135L82,138L111,147Z" fill="rgb(3, 2, 0)" fill-opacity="0.43"/><path d="M110,7L88,10L167,6Z" fill="rgb(93, 71, 45)" fill-opacity="0.41"/><path d="M60,36L61,50L49,38Z" fill="rgb(233, 252, 255)" fill-opacity="0.45"/><path d="M164,9L182,10L162,5Z" fill="rgb(30, 31, 29)" fill-opacity="0.46"/><path d="M185,152L236,157L180,212Z" fill="rgb(76, 91, 102)" fill-opacity="0.94"/><path d="M85,98L109,91L73,95Z" fill="rgb(14, 11, 15)" fill-opacity="0.57"/><path d="M71,10L72,12L96,9Z" fill="rgb(107, 90, 70)" fill-opacity="0.68"/><path d="M43,42L56,42L51,50Z" fill="rgb(115, 157, 205)" fill-opacity="0.52"/><path d="M126,115L128,102L94,117Z" fill="rgb(130, 132, 118)" fill-opacity="0.50"/></svg>