<svg xmlns="http://www.w3.org/2000/svg" viewBox="0 0 256 169.55844155844156" clip-path="url(#clip)" width="512" height="339.1168831168831"><defs><clipPath id="clip" clipPathUnits="objectBoundingBox"><rect x="0" y="0" width="256" height="169.55844155844156"/></clipPath></defs><rect x="0" y="0" width="256" height="169.55844155844156" fill="rgb(93, 103, 113)"/><path d="M77,-54L354,27L162,58Z" fill="rgb(163, 222, 255)" fill-opacity="0.91"/><path d="M-1,-66L133,120L2,358Z" fill="rgb(24, 13, 14)" fill-opacity="0.78"/><path d="M114,122L33,-6L157,26Z" fill="rgb(127, 59, 32)" fill-opacity="0.71"/><path d="M143,33L61,95L174,58Z" fill="rgb(255, 236, 186)" fill-opacity="0.36"/><path d="M116,89L80,61L100,93Z" fill="rgb(246, 189, 156)" fill-opacity="0.58"/><path d="M209,76L278,80L209,98Z" fill="rgb(225, 202, 141)" fill-opacity="0.59"/><path d="M203,30L251,56L328,12Z" fill="rgb(165, 221, 254)" fill-opacity="0.86"/><path d="M261,40L157,31L79,-11Z" fill="rgb(165, 223, 251)" fill-opacity="1.00"/><path d="M38,102L14,66L10,123Z" fill="rgb(97, 147, 210)" fill-opacity="0.51"/><path d="M130,18L131,52L-50,-12Z" fill="rgb(63, 0, 0)" fill-opacity="0.73"/><path d="M119,70L136,91L244,92Z" fill="rgb(222, 191, 123)" fill-opacity="0.66"/><path d="M240,122L234,155L237,62Z" fill="rgb(249, 253, 249)" fill-opacity="0.58"/><path d="M238,79L224,40L152,67Z" fill="rgb(28, 74, 82)" fill-opacity="0.70"/><path d="M118,44L149,87L69,39Z" fill="rgb(237, 191, 111)" fill-opacity="0.47"/><path d="M311,196L95,145L206,84Z" fill="rgb(105, 57, 0)" fill-opacity="0.36"/><path d="M216,110L223,110L209,161Z" fill="rgb(239, 227, 218)" fill-opacity="0.45"/><path d="M162,83L134,97L158,151Z" fill="rgb(51, 36, 1)" fill-opacity="0.40"/><path d="M220,108L219,126L210,120Z" fill="rgb(255, 214, 155)" fill-opacity="0.73"/><path d="M107,161L174,169L169,144Z" fill="rgb(205, 165, 94)" fill-opacity="0.54"/><path d="M73,42L107,41L67,47Z" fill="rgb(255, 255, 255)" fill-opacity="0.50"/><path d="M149,38L170,68L129,41Z" fill="rgb(202, 245, 255)" fill-opacity="0.61"/><path d="M127,121L167,145L120,155Z" fill="rgb(27, 23, 27)" fill-opacity="0.57"/><path d="M217,141L266,175L206,158Z" fill="rgb(231, 194, 133)" fill-opacity="0.43"/><path d="M98,84L106,91L114,80Z" fill="rgb(255, 224, 193)" fill-opacity="0.63"/><path d="M146,105L138,130L130,108Z" fill="rgb(113, 191, 238)" fill-opacity="0.49"/><path d="M279,165L239,152L238,125Z" fill="rgb(12, 29, 24)" fill-opacity="0.52"/><path d="M136,94L116,151L111,71Z" fill="rgb(74, 6, 25)" fill-opacity="0.59"/><path d="M12,77L6,75L23,69Z" fill="rgb(229, 239, 211)" fill-opacity="0.42"/><path d="M183,144L144,146L198,159Z" fill="rgb(41, 28, 1)" fill-opacity="0.48"/><path d="M141,68L108,43L93,70Z" fill="rgb(214, 160, 86)" fill-opacity="0.75"/><path d="M55,98L46,45L99,46Z" fill="rgb(34, 65, 54)" fill-opacity="0.70"/><path d="M179,142L174,137L181,117Z" fill="rgb(253, 223, 203)" fill-opacity="0.65"/><path d="M-8,95L16,134L3,192Z" fill="rgb(37, 55, 85)" fill-opacity="0.83"/><path d="M127,42L156,62L137,63Z" fill="rgb(65, 13, 0)" fill-opacity="0.58"/><path d="M30,110L24,83L16,117Z" fill="rgb(109, 156, 225)" fill-opacity="0.50"/><path d="M158,107L170,123L164,139Z" fill="rgb(255, 203, 181)" fill-opacity="0.43"/><path d="M131,20L158,33L120,45Z" fill="rgb(75, 14, 9)" fill-opacity="0.74"/><path d="M248,128L260,136L262,77Z" fill="rgb(255, 255, 250)" fill-opacity="0.49"/><path d="M181,77L165,59L133,77Z" fill="rgb(29, 64, 60)" fill-opacity="0.51"/><path d="M253,122L249,85L238,118Z" fill="rgb(5, 0, 0)" fill-opacity="0.47"/><path d="M231,98L200,125L174,96Z" fill="rgb(30, 25, 20)" fill-opacity="0.50"/><path d="M244,89L234,134L236,88Z" fill="rgb(229, 235, 230)" fill-opacity="0.57"/><path d="M237,94L233,163L236,174Z" fill="rgb(218, 223, 226)" fill-opacity="0.68"/><path d="M58,45L56,94L53,67Z" fill="rgb(143, 185, 242)" fill-opacity="0.45"/><path d="M240,89L234,49L260,54Z" fill="rgb(113, 179, 185)" fill-opacity="0.45"/><path d="M206,99L128,78L201,78Z" fill="rgb(231, 211, 137)" fill-opacity="0.49"/><path d="M107,166L120,171L135,149Z" fill="rgb(222, 167, 145)" fill-opacity="0.49"/><path d="M196,142L179,130L203,131Z" fill="rgb(26, 16, 3)" fill-opacity="0.53"/><path d="M221,46L201,24L238,42Z" fill="rgb(175, 228, 255)" fill-opacity="0.62"/><path d="M184,116L173,103L199,113Z" fill="rgb(240, 227, 212)" fill-opacity="0.47"/><path d="M26,83L18,99L35,92Z" fill="rgb(100, 142, 200)" fill-opacity="0.60"/><path d="M-52,-58L2,38L97,40Z" fill="rgb(63, 10, 3)" fill-opacity="0.99"/><path d="M177,120L178,137L183,120Z" fill="rgb(255, 255, 253)" fill-opacity="0.50"/><path d="M93,50L42,45L102,61Z" fill="rgb(13, 55, 27)" fill-opacity="0.54"/><path d="M115,92L126,85L120,66Z" fill="rgb(2, 39, 61)" fill-opacity="0.50"/><path d="M114,171L-10,188L62,83Z" fill="rgb(0, 7, 14)" fill-opacity="0.63"/><path d="M162,115L146,114L138,105Z" fill="rgb(119, 142, 169)" fill-opacity="0.69"/><path d="M172,123L146,87L186,116Z" fill="rgb(47, 31, 7)" fill-opacity="0.47"/><path d="M129,98L128,104L138,97Z" fill="rgb(244, 172, 101)" fill-opacity="0.56"/><path d="M236,61L228,52L236,96Z" fill="rgb(29, 56, 66)" fill-opacity="0.53"/><path d="M169,102L163,77L192,96Z" fill="rgb(255, 211, 128)" fill-opacity="0.36"/><path d="M23,32L15,90L56,69Z" fill="rgb(0, 21, 4)" fill-opacity="0.53"/><path d="M4,100L6,98L-2,86Z" fill="rgb(155, 150, 130)" fill-opacity="0.49"/><path d="M198,97L193,87L189,113Z" fill="rgb(0, 0, 0)" fill-opacity="0.50"/><path d="M103,72L117,60L109,82Z" fill="rgb(255, 145, 54)" fill-opacity="0.52"/><path d="M247,123L251,100L238,119Z" fill="rgb(20, 13, 0)" fill-opacity="0.58"/><path d="M160,147L205,174L152,164Z" fill="rgb(160, 149, 85)" fill-opacity="0.76"/><path d="M209,138L231,130L229,112Z" fill="rgb(21, 19, 16)" fill-opacity="0.50"/><path d="M146,136L144,114L163,116Z" fill="rgb(34, 10, 12)" fill-opacity="0.49"/><path d="M104,122L113,150L87,126Z" fill="rgb(0, 45, 103)" fill-opacity="0.58"/><path d="M127,42L125,36L145,50Z" fill="rgb(184, 117, 70)" fill-opacity="0.50"/><path d="M102,90L86,65L84,79Z" fill="rgb(241, 122, 56)" fill-opacity="0.45"/><path d="M186,88L166,69L237,68Z" fill="rgb(55, 60, 0)" fill-opacity="0.23"/><path d="M124,107L78,76L60,101Z" fill="rgb(62, 38, 56)" fill-opacity="0.65"/><path d="M202,79L214,61L208,91Z" fill="rgb(44, 61, 78)" fill-opacity="0.50"/><path d="M217,41L163,63L153,25Z" fill="rgb(229, 255, 255)" fill-opacity="0.35"/><path d="M43,116L25,154L4,114Z" fill="rgb(21, 30, 41)" fill-opacity="0.65"/><path d="M190,159L201,174L212,161Z" fill="rgb(190, 174, 98)" fill-opacity="0.51"/><path d="M208,160L199,157L207,128Z" fill="rgb(11, 18, 34)" fill-opacity="0.49"/><path d="M231,123L233,94L230,78Z" fill="rgb(255, 255, 255)" fill-opacity="0.51"/><path d="M11,81L23,69L14,89Z" fill="rgb(4, 7, 0)" fill-opacity="0.48"/><path d="M196,157L193,167L167,151Z" fill="rgb(35, 42, 5)" fill-opacity="0.53"/><path d="M116,159L123,88L105,113Z" fill="rgb(51, 0, 14)" fill-opacity="0.57"/><path d="M190,77L199,96L204,79Z" fill="rgb(252, 228, 161)" fill-opacity="0.44"/><path d="M223,76L252,83L236,74Z" fill="rgb(203, 189, 177)" fill-opacity="0.50"/><path d="M248,157L273,74L252,126Z" fill="rgb(183, 184, 186)" fill-opacity="0.77"/><path d="M99,74L79,68L122,92Z" fill="rgb(209, 169, 144)" fill-opacity="0.46"/><path d="M116,162L112,175L136,176Z" fill="rgb(249, 219, 200)" fill-opacity="0.71"/><path d="M183,93L179,102L154,125Z" fill="rgb(52, 46, 44)" fill-opacity="0.57"/><path d="M234,127L219,146L234,156Z" fill="rgb(109, 74, 41)" fill-opacity="0.55"/><path d="M-93,105L7,94L9,132Z" fill="rgb(255, 224, 215)" fill-opacity="0.11"/><path d="M59,4L43,-81L109,14Z" fill="rgb(146, 101, 119)" fill-opacity="0.74"/><path d="M127,41L140,56L122,50Z" fill="rgb(64, 17, 0)" fill-opacity="0.49"/><path d="M164,115L151,115L166,110Z" fill="rgb(237, 200, 183)" fill-opacity="0.49"/><path d="M136,57L137,92L123,73Z" fill="rgb(244, 131, 47)" fill-opacity="0.53"/><path d="M119,47L92,50L110,57Z" fill="rgb(234, 190, 123)" fill-opacity="0.63"/><path d="M242,151L249,152L252,116Z" fill="rgb(27, 34, 24)" fill-opacity="0.59"/><path d="M153,166L175,169L121,179Z" fill="rgb(48, 30, 14)" fill-opacity="0.60"/><path d="M164,106L169,91L153,83Z" fill="rgb(113, 110, 55)" fill-opacity="0.69"/><path d="M241,167L272,205L222,168Z" fill="rgb(1, 0, 0)" fill-opacity="0.51"/><path d="M60,159L27,96L103,111Z" fill="rgb(1, 7, 11)" fill-opacity="0.56"/><path d="M125,58L139,72L111,68Z" fill="rgb(255, 166, 74)" fill-opacity="0.54"/><path d="M197,179L202,149L186,140Z" fill="rgb(252, 222, 86)" fill-opacity="0.22"/><path d="M207,151L220,126L214,163Z" fill="rgb(123, 129, 154)" fill-opacity="0.58"/><path d="M262,87L241,82L241,106Z" fill="rgb(137, 128, 34)" fill-opacity="0.45"/><path d="M201,152L212,136L205,161Z" fill="rgb(8, 10, 19)" fill-opacity="0.67"/><path d="M203,152L199,136L204,124Z" fill="rgb(129, 134, 155)" fill-opacity="0.51"/><path d="M110,157L98,129L86,147Z" fill="rgb(1, 8, 19)" fill-opacity="0.60"/><path d="M191,122L204,122L189,114Z" fill="rgb(0, 0, 0)" fill-opacity="0.56"/><path d="M94,46L67,44L82,40Z" fill="rgb(245, 249, 255)" fill-opacity="0.50"/><path d="M7,94L29,137L24,83Z" fill="rgb(97, 149, 219)" fill-opacity="0.23"/><path d="M251,168L253,123L250,147Z" fill="rgb(236, 234, 235)" fill-opacity="0.53"/><path d="M220,100L229,113L229,93Z" fill="rgb(34, 38, 0)" fill-opacity="0.50"/><path d="M187,117L178,135L197,125Z" fill="rgb(39, 40, 12)" fill-opacity="0.45"/><path d="M117,162L225,287L140,160Z" fill="rgb(140, 110, 78)" fill-opacity="0.70"/><path d="M236,59L238,73L202,80Z" fill="rgb(40, 56, 54)" fill-opacity="0.62"/><path d="M62,27L58,77L85,78Z" fill="rgb(14, 26, 2)" fill-opacity="0.35"/><path d="M147,142L142,114L131,112Z" fill="rgb(137, 169, 176)" fill-opacity="0.47"/><path d="M136,84L165,61L139,68Z" fill="rgb(34, 77, 91)" fill-opacity="0.43"/><path d="M217,170L234,143L221,169Z" fill="rgb(239, 172, 103)" fill-opacity="0.57"/><path d="M209,34L165,61L129,40Z" fill="rgb(194, 234, 255)" fill-opacity="0.66"/><path d="M231,58L227,84L230,94Z" fill="rgb(55, 72, 79)" fill-opacity="0.52"/><path d="M182,120L151,117L184,112Z" fill="rgb(58, 46, 43)" fill-opacity="0.61"/><path d="M129,141L113,137L104,150Z" fill="rgb(63, 76, 98)" fill-opacity="0.46"/><path d="M112,51L121,61L100,56Z" fill="rgb(134, 106, 100)" fill-opacity="0.43"/><path d="M103,94L101,79L114,86Z" fill="rgb(255, 224, 197)" fill-opacity="0.51"/><path d="M131,126L132,137L129,127Z" fill="rgb(16, 133, 204)" fill-opacity="0.47"/><path d="M197,109L181,72L201,102Z" fill="rgb(2, 16, 0)" fill-opacity="0.29"/><path d="M120,165L128,157L108,159Z" fill="rgb(255, 213, 205)" fill-opacity="0.35"/><path d="M104,122L96,100L69,129Z" fill="rgb(0, 5, 15)" fill-opacity="0.59"/><path d="M255,130L259,188L253,144Z" fill="rgb(21, 24, 16)" fill-opacity="0.76"/><path d="M88,43L100,62L68,54Z" fill="rgb(45, 71, 44)" fill-opacity="0.51"/><path d="M94,41L154,38L135,20Z" fill="rgb(80, 15, 7)" fill-opacity="0.63"/><path d="M94,70L81,66L88,80Z" fill="rgb(242, 157, 85)" fill-opacity="0.59"/><path d="M56,63L54,81L58,95Z" fill="rgb(118, 151, 185)" fill-opacity="0.50"/><path d="M228,102L218,102L215,93Z" fill="rgb(27, 20, 0)" fill-opacity="0.50"/><path d="M111,107L133,96L97,90Z" fill="rgb(75, 7, 21)" fill-opacity="0.56"/><path d="M138,77L149,103L138,93Z" fill="rgb(190, 197, 145)" fill-opacity="0.46"/><path d="M142,78L141,89L172,78Z" fill="rgb(245, 221, 173)" fill-opacity="0.53"/><path d="M2,111L7,122L14,108Z" fill="rgb(13, 25, 43)" fill-opacity="0.53"/><path d="M17,65L57,120L52,71Z" fill="rgb(2, 20, 10)" fill-opacity="0.60"/><path d="M229,78L209,78L208,98Z" fill="rgb(242, 211, 158)" fill-opacity="0.47"/><path d="M130,68L144,63L152,64Z" fill="rgb(220, 245, 242)" fill-opacity="0.56"/><path d="M242,95L235,94L239,59Z" fill="rgb(195, 213, 225)" fill-opacity="0.45"/><path d="M254,91L254,65L259,70Z" fill="rgb(0, 14, 50)" fill-opacity="0.51"/><path d="M9,72L15,75L10,76Z" fill="rgb(206, 212, 211)" fill-opacity="0.56"/><path d="M108,145L109,184L117,158Z" fill="rgb(109, 81, 72)" fill-opacity="0.52"/><path d="M221,111L212,98L219,117Z" fill="rgb(195, 193, 180)" fill-opacity="0.43"/><path d="M249,158L250,142L237,146Z" fill="rgb(16, 18, 10)" fill-opacity="0.46"/><path d="M166,132L160,117L168,121Z" fill="rgb(250, 204, 177)" fill-opacity="0.53"/><path d="M220,44L252,52L253,76Z" fill="rgb(90, 139, 154)" fill-opacity="0.71"/><path d="M74,111L98,82L93,70Z" fill="rgb(122, 81, 80)" fill-opacity="0.44"/><path d="M34,88L12,86L8,98Z" fill="rgb(80, 115, 166)" fill-opacity="0.61"/><path d="M92,71L88,85L91,60Z" fill="rgb(248, 135, 73)" fill-opacity="0.52"/><path d="M152,106L134,107L152,92Z" fill="rgb(57, 72, 15)" fill-opacity="0.45"/><path d="M74,41L51,60L58,47Z" fill="rgb(127, 124, 124)" fill-opacity="0.38"/><path d="M105,67L104,79L114,76Z" fill="rgb(246, 117, 56)" fill-opacity="0.58"/><path d="M164,160L169,151L146,153Z" fill="rgb(207, 178, 118)" fill-opacity="0.43"/><path d="M28,31L-37,83L21,69Z" fill="rgb(6, 26, 15)" fill-opacity="0.67"/><path d="M110,76L120,67L130,78Z" fill="rgb(123, 120, 143)" fill-opacity="0.53"/><path d="M187,146L191,145L171,137Z" fill="rgb(228, 186, 131)" fill-opacity="0.50"/><path d="M204,70L168,58L150,69Z" fill="rgb(57, 99, 109)" fill-opacity="0.66"/><path d="M250,126L246,128L248,119Z" fill="rgb(216, 158, 111)" fill-opacity="0.50"/><path d="M148,141L155,139L144,139Z" fill="rgb(248, 209, 99)" fill-opacity="0.40"/><path d="M105,65L113,57L80,59Z" fill="rgb(142, 171, 85)" fill-opacity="0.41"/><path d="M93,90L105,116L108,107Z" fill="rgb(69, 85, 102)" fill-opacity="0.44"/><path d="M212,44L229,46L159,64Z" fill="rgb(46, 86, 100)" fill-opacity="0.60"/><path d="M256,87L259,129L250,137Z" fill="rgb(255, 255, 255)" fill-opacity="0.47"/><path d="M156,105L133,94L159,101Z" fill="rgb(168, 146, 97)" fill-opacity="0.45"/><path d="M109,41L116,45L55,57Z" fill="rgb(75, 61, 55)" fill-opacity="0.43"/><path d="M253,69L242,83L241,63Z" fill="rgb(151, 167, 151)" fill-opacity="0.52"/><path d="M7,194L-37,91L10,148Z" fill="rgb(24, 41, 67)" fill-opacity="1.00"/><path d="M23,70L17,70L11,78Z" fill="rgb(187, 183, 174)" fill-opacity="0.51"/><path d="M100,62L102,67L94,65Z" fill="rgb(255, 222, 164)" fill-opacity="0.49"/><path d="M94,148L77,129L79,159Z" fill="rgb(49, 32, 32)" fill-opacity="0.49"/><path d="M138,68L138,77L149,70Z" fill="rgb(41, 58, 49)" fill-opacity="0.47"/><path d="M129,157L128,136L148,136Z" fill="rgb(22, 23, 18)" fill-opacity="0.53"/><path d="M163,137L168,139L169,152Z" fill="rgb(255, 171, 99)" fill-opacity="0.44"/><path d="M170,129L176,134L169,156Z" fill="rgb(74, 46, 22)" fill-opacity="0.59"/><path d="M164,78L181,84L170,97Z" fill="rgb(233, 208, 162)" fill-opacity="0.51"/><path d="M251,140L248,172L251,171Z" fill="rgb(186, 199, 207)" fill-opacity="0.54"/><path d="M197,102L177,95L176,101Z" fill="rgb(35, 20, 12)" fill-opacity="0.52"/><path d="M128,58L141,48L128,68Z" fill="rgb(160, 111, 60)" fill-opacity="0.50"/><path d="M139,119L136,109L151,106Z" fill="rgb(33, 105, 169)" fill-opacity="0.53"/><path d="M129,81L114,87L112,75Z" fill="rgb(0, 19, 29)" fill-opacity="0.46"/><path d="M85,68L108,68L104,70Z" fill="rgb(140, 61, 34)" fill-opacity="0.63"/><path d="M132,116L119,86L115,127Z" fill="rgb(95, 17, 29)" fill-opacity="0.51"/><path d="M138,128L135,123L136,105Z" fill="rgb(183, 220, 221)" fill-opacity="0.59"/><path d="M84,79L77,79L80,102Z" fill="rgb(108, 74, 125)" fill-opacity="0.40"/><path d="M158,109L176,114L168,100Z" fill="rgb(34, 36, 20)" fill-opacity="0.45"/><path d="M138,106L157,108L148,101Z" fill="rgb(32, 37, 29)" fill-opacity="0.53"/><path d="M237,114L237,128L234,118Z" fill="rgb(255, 255, 255)" fill-opacity="0.51"/><path d="M97,50L89,50L91,42Z" fill="rgb(202, 150, 124)" fill-opacity="0.50"/><path d="M156,138L138,128L164,123Z" fill="rgb(55, 27, 25)" fill-opacity="0.45"/><path d="M218,129L216,145L207,115Z" fill="rgb(121, 117, 117)" fill-opacity="0.50"/><path d="M186,121L190,116L184,107Z" fill="rgb(220, 234, 211)" fill-opacity="0.48"/><path d="M195,121L191,135L199,125Z" fill="rgb(181, 94, 32)" fill-opacity="0.41"/><path d="M243,97L256,98L239,111Z" fill="rgb(57, 66, 16)" fill-opacity="0.53"/><path d="M253,106L256,84L261,127Z" fill="rgb(240, 246, 255)" fill-opacity="0.57"/><path d="M102,76L88,79L100,74Z" fill="rgb(218, 243, 255)" fill-opacity="0.47"/></svg>