<svg xmlns="http://www.w3.org/2000/svg" viewBox="0 0 256 169.55844155844156" clip-path="url(#clip)" width="512" height="339.1168831168831"><defs><clipPath id="clip" clipPathUnits="objectBoundingBox"><rect x="0" y="0" width="256" height="169.55844155844156"/></clipPath></defs><rect x="0" y="0" width="256" height="169.55844155844156" fill="rgb(79, 79, 80)"/><path d="M135,94L-18,6L260,3Z" fill="rgb(192, 199, 207)" fill-opacity="0.90"/><path d="M68,-111L75,67L-47,27Z" fill="rgb(208, 215, 223)" fill-opacity="0.89"/><path d="M231,24L260,0L274,41Z" fill="rgb(207, 222, 232)" fill-opacity="0.66"/><path d="M196,41L216,18L379,163Z" fill="rgb(7, 13, 1)" fill-opacity="0.64"/><path d="M137,96L150,74L74,59Z" fill="rgb(33, 39, 45)" fill-opacity="0.60"/><path d="M36,129L7,39L162,139Z" fill="rgb(44, 34, 32)" fill-opacity="0.71"/><path d="M188,178L299,169L196,109Z" fill="rgb(26, 17, 11)" fill-opacity="0.81"/><path d="M145,149L47,321L64,127Z" fill="rgb(159, 163, 170)" fill-opacity="0.58"/><path d="M96,114L88,79L86,110Z" fill="rgb(150, 144, 134)" fill-opacity="0.47"/><path d="M111,10L218,-44L68,1Z" fill="rgb(8, 5, 5)" fill-opacity="0.83"/><path d="M293,232L179,150L180,101Z" fill="rgb(26, 12, 1)" fill-opacity="0.45"/><path d="M-1,98L32,197L34,119Z" fill="rgb(127, 131, 136)" fill-opacity="0.50"/><path d="M117,101L92,114L113,116Z" fill="rgb(163, 110, 109)" fill-opacity="0.69"/><path d="M172,2L171,69L214,61Z" fill="rgb(208, 219, 227)" fill-opacity="0.51"/><path d="M214,25L282,134L230,133Z" fill="rgb(27, 27, 13)" fill-opacity="0.69"/><path d="M167,79L151,25L170,16Z" fill="rgb(46, 62, 68)" fill-opacity="0.55"/><path d="M132,70L183,57L173,88Z" fill="rgb(133, 159, 163)" fill-opacity="0.65"/><path d="M41,178L105,178L30,142Z" fill="rgb(0, 0, 0)" fill-opacity="0.46"/><path d="M72,11L76,64L198,5Z" fill="rgb(255, 255, 255)" fill-opacity="0.44"/><path d="M52,88L136,72L66,62Z" fill="rgb(30, 50, 88)" fill-opacity="0.67"/><path d="M168,50L154,12L153,60Z" fill="rgb(74, 83, 92)" fill-opacity="0.52"/><path d="M179,134L173,93L135,133Z" fill="rgb(94, 109, 117)" fill-opacity="0.57"/><path d="M104,79L141,108L155,79Z" fill="rgb(126, 117, 95)" fill-opacity="0.77"/><path d="M126,86L67,97L129,105Z" fill="rgb(40, 49, 11)" fill-opacity="0.60"/><path d="M28,51L52,64L72,64Z" fill="rgb(172, 194, 212)" fill-opacity="0.73"/><path d="M191,5L277,2L58,-4Z" fill="rgb(0, 0, 0)" fill-opacity="0.69"/><path d="M75,99L50,83L122,78Z" fill="rgb(140, 125, 92)" fill-opacity="0.48"/><path d="M3,102L-37,46L28,48Z" fill="rgb(65, 20, 0)" fill-opacity="0.50"/><path d="M21,63L27,70L-13,65Z" fill="rgb(185, 121, 52)" fill-opacity="0.55"/><path d="M147,114L65,119L114,142Z" fill="rgb(12, 9, 11)" fill-opacity="0.41"/><path d="M209,96L186,61L191,106Z" fill="rgb(156, 142, 117)" fill-opacity="0.55"/><path d="M204,48L194,55L195,77Z" fill="rgb(32, 46, 33)" fill-opacity="0.53"/><path d="M162,79L148,91L163,121Z" fill="rgb(56, 5, 7)" fill-opacity="0.46"/><path d="M219,59L221,50L187,48Z" fill="rgb(140, 151, 158)" fill-opacity="0.53"/><path d="M182,156L141,141L145,223Z" fill="rgb(32, 39, 40)" fill-opacity="0.61"/><path d="M158,34L126,2L109,66Z" fill="rgb(233, 235, 240)" fill-opacity="0.42"/><path d="M228,29L136,14L200,6Z" fill="rgb(221, 228, 232)" fill-opacity="0.51"/><path d="M197,74L232,56L257,109Z" fill="rgb(20, 20, 13)" fill-opacity="0.51"/><path d="M67,109L51,189L34,76Z" fill="rgb(9, 0, 0)" fill-opacity="0.43"/><path d="M206,11L150,5L202,43Z" fill="rgb(218, 221, 226)" fill-opacity="0.58"/><path d="M266,51L227,99L220,19Z" fill="rgb(9, 22, 13)" fill-opacity="0.40"/><path d="M250,108L210,150L205,110Z" fill="rgb(18, 19, 7)" fill-opacity="0.45"/><path d="M132,144L117,96L144,125Z" fill="rgb(21, 29, 16)" fill-opacity="0.48"/><path d="M251,71L348,131L247,147Z" fill="rgb(127, 101, 75)" fill-opacity="0.47"/><path d="M211,62L202,27L218,32Z" fill="rgb(8, 1, 7)" fill-opacity="0.53"/><path d="M42,60L78,70L-49,97Z" fill="rgb(34, 61, 82)" fill-opacity="0.68"/><path d="M188,-164L24,42L-49,56Z" fill="rgb(205, 212, 220)" fill-opacity="0.67"/><path d="M192,158L176,162L196,176Z" fill="rgb(185, 200, 216)" fill-opacity="0.30"/><path d="M52,107L56,75L63,96Z" fill="rgb(109, 100, 121)" fill-opacity="0.53"/><path d="M20,161L66,151L20,168Z" fill="rgb(8, 9, 3)" fill-opacity="0.45"/><path d="M212,49L217,65L220,49Z" fill="rgb(129, 141, 144)" fill-opacity="0.50"/><path d="M84,201L61,189L60,147Z" fill="rgb(138, 142, 147)" fill-opacity="0.49"/><path d="M167,79L183,72L139,75Z" fill="rgb(200, 222, 223)" fill-opacity="0.46"/><path d="M157,81L151,86L144,78Z" fill="rgb(25, 46, 42)" fill-opacity="0.53"/><path d="M99,-32L90,7L156,2Z" fill="rgb(19, 17, 18)" fill-opacity="0.82"/><path d="M88,63L115,64L93,84Z" fill="rgb(12, 36, 83)" fill-opacity="0.41"/><path d="M155,38L167,53L154,53Z" fill="rgb(45, 51, 57)" fill-opacity="0.59"/><path d="M230,31L218,25L233,10Z" fill="rgb(127, 137, 134)" fill-opacity="0.56"/><path d="M118,108L103,111L109,92Z" fill="rgb(186, 135, 150)" fill-opacity="0.39"/><path d="M245,126L222,91L245,88Z" fill="rgb(10, 18, 11)" fill-opacity="0.58"/><path d="M107,11L137,-5L84,5Z" fill="rgb(26, 24, 24)" fill-opacity="0.57"/><path d="M253,28L239,24L278,67Z" fill="rgb(121, 132, 133)" fill-opacity="0.68"/><path d="M34,152L20,162L27,110Z" fill="rgb(147, 153, 164)" fill-opacity="0.42"/><path d="M149,111L186,101L194,80Z" fill="rgb(134, 127, 109)" fill-opacity="0.43"/><path d="M213,80L234,121L227,94Z" fill="rgb(160, 167, 177)" fill-opacity="0.37"/><path d="M131,84L147,72L135,125Z" fill="rgb(189, 173, 172)" fill-opacity="0.23"/><path d="M158,18L154,26L170,19Z" fill="rgb(64, 75, 87)" fill-opacity="0.57"/><path d="M23,79L38,101L21,94Z" fill="rgb(88, 88, 98)" fill-opacity="0.51"/><path d="M108,119L106,105L115,119Z" fill="rgb(161, 82, 89)" fill-opacity="0.50"/><path d="M230,137L242,167L238,116Z" fill="rgb(122, 91, 64)" fill-opacity="0.39"/><path d="M111,89L98,121L93,86Z" fill="rgb(20, 29, 12)" fill-opacity="0.40"/><path d="M50,84L33,82L46,71Z" fill="rgb(0, 0, 5)" fill-opacity="0.51"/><path d="M4,140L5,115L12,139Z" fill="rgb(122, 130, 140)" fill-opacity="0.52"/><path d="M144,86L141,102L154,112Z" fill="rgb(99, 111, 117)" fill-opacity="0.70"/><path d="M8,65L16,86L17,56Z" fill="rgb(52, 35, 32)" fill-opacity="0.68"/><path d="M71,2L53,-1L100,1Z" fill="rgb(25, 24, 25)" fill-opacity="0.76"/><path d="M197,51L248,39L206,26Z" fill="rgb(26, 26, 22)" fill-opacity="0.36"/><path d="M116,33L78,0L31,24Z" fill="rgb(248, 253, 254)" fill-opacity="0.22"/><path d="M117,79L145,74L171,61Z" fill="rgb(51, 61, 52)" fill-opacity="0.45"/><path d="M195,68L208,53L206,69Z" fill="rgb(217, 230, 234)" fill-opacity="0.34"/><path d="M61,158L61,121L77,165Z" fill="rgb(132, 133, 138)" fill-opacity="0.70"/><path d="M193,35L168,62L190,67Z" fill="rgb(179, 198, 216)" fill-opacity="0.52"/><path d="M156,53L164,66L164,54Z" fill="rgb(197, 252, 254)" fill-opacity="0.39"/><path d="M61,80L60,93L51,89Z" fill="rgb(118, 143, 171)" fill-opacity="0.45"/><path d="M202,89L193,94L193,113Z" fill="rgb(173, 186, 196)" fill-opacity="0.41"/><path d="M89,113L99,105L82,100Z" fill="rgb(179, 207, 245)" fill-opacity="0.25"/><path d="M56,129L42,129L45,153Z" fill="rgb(100, 89, 78)" fill-opacity="0.49"/><path d="M214,87L209,101L225,110Z" fill="rgb(10, 19, 14)" fill-opacity="0.39"/><path d="M171,116L176,106L151,111Z" fill="rgb(45, 51, 55)" fill-opacity="0.68"/><path d="M200,49L201,62L196,73Z" fill="rgb(10, 19, 3)" fill-opacity="0.47"/><path d="M169,71L140,76L176,78Z" fill="rgb(185, 205, 210)" fill-opacity="0.58"/><path d="M127,22L182,4L276,7Z" fill="rgb(214, 225, 232)" fill-opacity="0.48"/><path d="M4,81L13,96L-7,100Z" fill="rgb(22, 0, 0)" fill-opacity="0.45"/><path d="M163,44L170,48L166,59Z" fill="rgb(9, 15, 13)" fill-opacity="0.37"/><path d="M82,125L34,130L32,102Z" fill="rgb(20, 12, 10)" fill-opacity="0.60"/><path d="M41,76L4,79L54,90Z" fill="rgb(16, 16, 19)" fill-opacity="0.44"/><path d="M9,83L10,94L31,87Z" fill="rgb(83, 104, 128)" fill-opacity="0.56"/><path d="M119,105L127,84L111,99Z" fill="rgb(19, 42, 0)" fill-opacity="0.46"/><path d="M71,61L155,20L150,67Z" fill="rgb(203, 215, 228)" fill-opacity="0.49"/><path d="M149,103L155,85L167,97Z" fill="rgb(54, 0, 0)" fill-opacity="0.47"/><path d="M171,72L186,75L163,62Z" fill="rgb(92, 105, 98)" fill-opacity="0.73"/><path d="M34,151L46,166L63,150Z" fill="rgb(1, 2, 3)" fill-opacity="0.57"/><path d="M61,65L34,71L58,76Z" fill="rgb(61, 87, 129)" fill-opacity="0.53"/><path d="M248,5L173,-1L278,-1Z" fill="rgb(5, 6, 7)" fill-opacity="0.54"/><path d="M9,62L6,72L2,61Z" fill="rgb(239, 149, 55)" fill-opacity="0.45"/><path d="M258,26L259,3L229,19Z" fill="rgb(193, 204, 215)" fill-opacity="0.51"/><path d="M174,138L159,140L153,131Z" fill="rgb(13, 18, 22)" fill-opacity="0.50"/><path d="M180,114L218,105L198,125Z" fill="rgb(78, 81, 62)" fill-opacity="0.58"/><path d="M63,121L103,115L86,108Z" fill="rgb(98, 71, 53)" fill-opacity="0.60"/><path d="M165,5L127,5L135,47Z" fill="rgb(225, 228, 231)" fill-opacity="0.59"/><path d="M221,88L242,99L224,95Z" fill="rgb(12, 14, 15)" fill-opacity="0.61"/><path d="M21,64L23,70L15,66Z" fill="rgb(255, 228, 104)" fill-opacity="0.47"/><path d="M135,143L143,174L125,181Z" fill="rgb(131, 134, 139)" fill-opacity="0.54"/><path d="M2,70L-43,49L6,51Z" fill="rgb(78, 29, 13)" fill-opacity="0.61"/><path d="M219,9L230,19L200,30Z" fill="rgb(166, 176, 179)" fill-opacity="0.65"/><path d="M144,127L139,113L170,117Z" fill="rgb(109, 123, 128)" fill-opacity="0.52"/><path d="M210,187L284,180L228,153Z" fill="rgb(33, 53, 73)" fill-opacity="0.47"/><path d="M257,101L264,51L244,82Z" fill="rgb(113, 95, 67)" fill-opacity="0.40"/><path d="M213,66L207,76L188,74Z" fill="rgb(42, 22, 2)" fill-opacity="0.44"/><path d="M167,63L108,51L125,71Z" fill="rgb(169, 202, 219)" fill-opacity="0.43"/><path d="M153,149L163,160L176,152Z" fill="rgb(90, 99, 98)" fill-opacity="0.56"/><path d="M92,148L89,134L133,145Z" fill="rgb(141, 143, 147)" fill-opacity="0.62"/><path d="M232,106L232,122L213,82Z" fill="rgb(148, 151, 153)" fill-opacity="0.29"/><path d="M74,124L113,134L90,135Z" fill="rgb(24, 59, 94)" fill-opacity="0.36"/><path d="M21,129L19,148L14,134Z" fill="rgb(44, 52, 59)" fill-opacity="0.48"/><path d="M123,1L109,-14L108,13Z" fill="rgb(26, 28, 26)" fill-opacity="0.43"/><path d="M133,79L113,91L101,79Z" fill="rgb(150, 127, 92)" fill-opacity="0.52"/><path d="M9,52L20,46L36,65Z" fill="rgb(30, 6, 0)" fill-opacity="0.54"/><path d="M191,158L178,137L187,133Z" fill="rgb(109, 74, 48)" fill-opacity="0.44"/><path d="M-60,114L11,97L12,104Z" fill="rgb(126, 111, 118)" fill-opacity="0.64"/><path d="M184,95L188,87L175,81Z" fill="rgb(159, 126, 91)" fill-opacity="0.51"/><path d="M152,63L-13,27L45,61Z" fill="rgb(189, 199, 212)" fill-opacity="0.58"/><path d="M40,111L28,120L32,98Z" fill="rgb(44, 37, 38)" fill-opacity="0.71"/><path d="M31,18L17,-12L116,15Z" fill="rgb(216, 226, 233)" fill-opacity="0.60"/><path d="M208,61L214,53L219,67Z" fill="rgb(64, 76, 72)" fill-opacity="0.50"/><path d="M190,75L169,80L192,101Z" fill="rgb(108, 92, 67)" fill-opacity="0.64"/><path d="M185,84L127,79L185,78Z" fill="rgb(57, 70, 63)" fill-opacity="0.36"/><path d="M38,166L33,143L34,126Z" fill="rgb(21, 17, 15)" fill-opacity="0.62"/><path d="M75,87L79,94L96,81Z" fill="rgb(155, 132, 99)" fill-opacity="0.51"/><path d="M117,78L147,71L85,76Z" fill="rgb(28, 38, 57)" fill-opacity="0.66"/><path d="M154,66L164,18L154,22Z" fill="rgb(93, 104, 114)" fill-opacity="0.78"/><path d="M234,117L240,103L253,166Z" fill="rgb(19, 22, 7)" fill-opacity="0.49"/><path d="M204,56L201,68L214,43Z" fill="rgb(181, 182, 187)" fill-opacity="0.45"/><path d="M105,129L77,119L102,115Z" fill="rgb(29, 6, 0)" fill-opacity="0.48"/><path d="M77,58L48,59L62,67Z" fill="rgb(164, 191, 212)" fill-opacity="0.53"/><path d="M179,149L167,156L176,136Z" fill="rgb(101, 120, 123)" fill-opacity="0.49"/><path d="M221,22L217,39L232,35Z" fill="rgb(58, 67, 57)" fill-opacity="0.50"/><path d="M165,18L168,54L170,32Z" fill="rgb(70, 75, 85)" fill-opacity="0.48"/><path d="M203,29L203,40L181,67Z" fill="rgb(164, 175, 183)" fill-opacity="0.68"/><path d="M177,111L178,132L155,122Z" fill="rgb(105, 114, 120)" fill-opacity="0.49"/><path d="M69,62L105,63L140,78Z" fill="rgb(28, 50, 89)" fill-opacity="0.42"/><path d="M86,75L62,74L60,97Z" fill="rgb(31, 39, 45)" fill-opacity="0.29"/><path d="M184,135L190,121L179,124Z" fill="rgb(6, 20, 4)" fill-opacity="0.53"/><path d="M169,141L150,135L177,135Z" fill="rgb(31, 34, 37)" fill-opacity="0.56"/><path d="M57,133L56,164L62,147Z" fill="rgb(5, 4, 4)" fill-opacity="0.49"/><path d="M215,100L223,103L223,129Z" fill="rgb(33, 34, 22)" fill-opacity="0.53"/><path d="M-15,85L18,76L37,82Z" fill="rgb(11, 27, 28)" fill-opacity="0.49"/><path d="M61,133L56,115L58,159Z" fill="rgb(3, 2, 2)" fill-opacity="0.52"/><path d="M46,77L64,71L48,89Z" fill="rgb(14, 20, 44)" fill-opacity="0.44"/><path d="M220,20L250,29L238,31Z" fill="rgb(117, 127, 123)" fill-opacity="0.60"/><path d="M181,155L178,175L205,175Z" fill="rgb(112, 120, 130)" fill-opacity="0.44"/><path d="M132,79L139,133L127,79Z" fill="rgb(115, 134, 161)" fill-opacity="0.38"/><path d="M38,171L34,138L34,168Z" fill="rgb(12, 13, 16)" fill-opacity="0.54"/><path d="M204,27L205,50L220,29Z" fill="rgb(8, 3, 6)" fill-opacity="0.49"/><path d="M161,129L158,102L161,105Z" fill="rgb(107, 125, 134)" fill-opacity="0.48"/><path d="M154,17L129,59L154,47Z" fill="rgb(225, 221, 223)" fill-opacity="0.42"/><path d="M31,165L13,166L20,174Z" fill="rgb(94, 99, 105)" fill-opacity="0.63"/><path d="M95,97L88,89L68,112Z" fill="rgb(50, 36, 23)" fill-opacity="0.52"/><path d="M209,179L223,122L195,118Z" fill="rgb(20, 8, 9)" fill-opacity="0.49"/><path d="M176,155L176,175L165,156Z" fill="rgb(19, 20, 27)" fill-opacity="0.45"/><path d="M187,65L182,73L190,67Z" fill="rgb(29, 53, 39)" fill-opacity="0.51"/><path d="M94,107L93,99L85,110Z" fill="rgb(152, 167, 195)" fill-opacity="0.40"/><path d="M193,99L180,122L181,97Z" fill="rgb(68, 62, 10)" fill-opacity="0.37"/><path d="M222,67L217,75L219,99Z" fill="rgb(135, 120, 105)" fill-opacity="0.38"/><path d="M191,98L177,100L183,82Z" fill="rgb(140, 114, 91)" fill-opacity="0.48"/><path d="M58,119L64,86L52,101Z" fill="rgb(75, 49, 49)" fill-opacity="0.51"/><path d="M112,131L119,102L145,133Z" fill="rgb(23, 24, 26)" fill-opacity="0.51"/><path d="M166,89L154,84L173,83Z" fill="rgb(139, 154, 145)" fill-opacity="0.50"/><path d="M34,128L49,76L56,128Z" fill="rgb(15, 9, 8)" fill-opacity="0.57"/><path d="M116,110L108,100L101,110Z" fill="rgb(163, 106, 106)" fill-opacity="0.50"/><path d="M218,90L204,90L190,84Z" fill="rgb(144, 138, 129)" fill-opacity="0.49"/><path d="M194,169L188,169L188,143Z" fill="rgb(93, 100, 107)" fill-opacity="0.47"/><path d="M15,120L23,126L16,83Z" fill="rgb(75, 74, 74)" fill-opacity="0.55"/><path d="M216,47L216,60L221,66Z" fill="rgb(154, 161, 166)" fill-opacity="0.49"/><path d="M243,53L248,28L216,35Z" fill="rgb(27, 40, 23)" fill-opacity="0.42"/><path d="M197,93L189,114L191,102Z" fill="rgb(167, 176, 184)" fill-opacity="0.41"/><path d="M177,68L170,63L193,56Z" fill="rgb(174, 201, 220)" fill-opacity="0.58"/><path d="M9,96L10,81L-12,100Z" fill="rgb(39, 9, 0)" fill-opacity="0.50"/><path d="M68,159L60,166L67,174Z" fill="rgb(132, 136, 143)" fill-opacity="0.57"/><path d="M156,132L144,133L141,126Z" fill="rgb(108, 120, 127)" fill-opacity="0.56"/><path d="M25,153L7,141L2,174Z" fill="rgb(93, 95, 100)" fill-opacity="0.61"/><path d="M26,56L27,61L42,60Z" fill="rgb(30, 3, 0)" fill-opacity="0.50"/><path d="M57,-2L142,1L94,7Z" fill="rgb(19, 16, 17)" fill-opacity="0.74"/><path d="M139,86L148,86L150,82Z" fill="rgb(153, 177, 182)" fill-opacity="0.51"/><path d="M4,47L22,38L-29,2Z" fill="rgb(194, 196, 204)" fill-opacity="0.67"/><path d="M167,68L209,78L210,90Z" fill="rgb(121, 101, 62)" fill-opacity="0.32"/><path d="M36,79L38,96L30,96Z" fill="rgb(82, 28, 11)" fill-opacity="0.49"/><path d="M170,43L205,23L171,23Z" fill="rgb(223, 221, 223)" fill-opacity="0.54"/><path d="M242,104L272,132L271,102Z" fill="rgb(123, 101, 67)" fill-opacity="0.40"/><path d="M146,72L167,72L139,79Z" fill="rgb(186, 202, 200)" fill-opacity="0.47"/></svg>