<svg xmlns="http://www.w3.org/2000/svg" viewBox="0 0 256 169.55844155844156" clip-path="url(#clip)" width="512" height="339.1168831168831"><defs><clipPath id="clip" clipPathUnits="objectBoundingBox"><rect x="0" y="0" width="256" height="169.55844155844156"/></clipPath></defs><rect x="0" y="0" width="256" height="169.55844155844156" fill="rgb(107, 111, 117)"/><path d="M142,223L216,151L110,163Z" fill="rgb(155, 213, 248)" fill-opacity="0.76"/><path d="M112,70L140,51L88,40Z" fill="rgb(222, 233, 162)" fill-opacity="0.61"/><path d="M222,164L247,114L274,127Z" fill="rgb(168, 227, 255)" fill-opacity="0.62"/><path d="M93,85L-159,77L81,-48Z" fill="rgb(103, 24, 7)" fill-opacity="0.72"/><path d="M211,11L197,-33L245,3Z" fill="rgb(240, 255, 255)" fill-opacity="0.62"/><path d="M218,17L110,-37L160,41Z" fill="rgb(231, 182, 127)" fill-opacity="0.53"/><path d="M211,149L231,64L210,222Z" fill="rgb(0, 5, 9)" fill-opacity="0.73"/><path d="M237,38L231,13L193,16Z" fill="rgb(248, 189, 126)" fill-opacity="0.46"/><path d="M159,132L110,52L170,95Z" fill="rgb(217, 244, 249)" fill-opacity="0.36"/><path d="M243,34L160,39L219,145Z" fill="rgb(31, 26, 0)" fill-opacity="0.48"/><path d="M56,98L91,111L32,139Z" fill="rgb(61, 19, 2)" fill-opacity="0.47"/><path d="M151,90L222,50L113,22Z" fill="rgb(105, 84, 54)" fill-opacity="0.91"/><path d="M125,46L161,103L105,46Z" fill="rgb(216, 254, 217)" fill-opacity="0.44"/><path d="M92,75L81,104L118,84Z" fill="rgb(199, 235, 250)" fill-opacity="0.56"/><path d="M258,8L236,106L348,171Z" fill="rgb(18, 18, 11)" fill-opacity="0.67"/><path d="M236,67L192,110L192,148Z" fill="rgb(55, 34, 34)" fill-opacity="0.60"/><path d="M238,-27L237,54L252,-4Z" fill="rgb(0, 0, 0)" fill-opacity="0.50"/><path d="M84,69L168,1L64,41Z" fill="rgb(173, 65, 45)" fill-opacity="0.62"/><path d="M17,95L43,92L23,106Z" fill="rgb(164, 216, 254)" fill-opacity="0.67"/><path d="M242,6L236,-23L235,9Z" fill="rgb(224, 248, 255)" fill-opacity="0.62"/><path d="M3,194L16,155L-14,82Z" fill="rgb(12, 11, 24)" fill-opacity="0.56"/><path d="M60,160L23,147L12,164Z" fill="rgb(134, 185, 227)" fill-opacity="0.63"/><path d="M144,148L167,132L148,127Z" fill="rgb(31, 0, 0)" fill-opacity="0.54"/><path d="M248,52L202,239L242,36Z" fill="rgb(159, 183, 225)" fill-opacity="0.54"/><path d="M108,66L91,61L88,85Z" fill="rgb(93, 12, 12)" fill-opacity="0.53"/><path d="M48,5L18,-5L57,1Z" fill="rgb(180, 239, 255)" fill-opacity="0.57"/><path d="M100,-75L121,28L85,22Z" fill="rgb(186, 222, 244)" fill-opacity="0.45"/><path d="M153,-25L143,71L116,6Z" fill="rgb(158, 60, 24)" fill-opacity="0.69"/><path d="M295,178L261,137L215,171Z" fill="rgb(4, 102, 167)" fill-opacity="0.48"/><path d="M161,117L182,91L205,97Z" fill="rgb(188, 178, 185)" fill-opacity="0.69"/><path d="M97,112L124,62L135,113Z" fill="rgb(165, 107, 93)" fill-opacity="0.62"/><path d="M160,152L184,125L182,161Z" fill="rgb(241, 200, 196)" fill-opacity="0.32"/><path d="M239,13L216,15L229,53Z" fill="rgb(218, 179, 139)" fill-opacity="0.48"/><path d="M-30,134L16,111L-29,89Z" fill="rgb(219, 175, 172)" fill-opacity="0.50"/><path d="M213,62L190,66L198,31Z" fill="rgb(142, 130, 106)" fill-opacity="0.59"/><path d="M179,91L229,96L244,31Z" fill="rgb(35, 41, 32)" fill-opacity="0.64"/><path d="M200,21L215,38L184,37Z" fill="rgb(59, 52, 3)" fill-opacity="0.50"/><path d="M217,114L201,138L213,143Z" fill="rgb(179, 137, 135)" fill-opacity="0.58"/><path d="M247,18L283,-50L238,69Z" fill="rgb(159, 181, 219)" fill-opacity="0.54"/><path d="M84,73L105,62L70,41Z" fill="rgb(199, 50, 96)" fill-opacity="0.58"/><path d="M130,61L123,92L163,99Z" fill="rgb(184, 204, 201)" fill-opacity="0.54"/><path d="M19,42L-47,49L11,110Z" fill="rgb(63, 28, 31)" fill-opacity="0.47"/><path d="M182,8L209,-41L149,1Z" fill="rgb(179, 223, 249)" fill-opacity="0.54"/><path d="M173,4L136,12L182,12Z" fill="rgb(44, 75, 57)" fill-opacity="0.48"/><path d="M18,149L90,154L61,122Z" fill="rgb(174, 97, 94)" fill-opacity="0.53"/><path d="M94,88L51,81L42,105Z" fill="rgb(195, 150, 141)" fill-opacity="0.67"/><path d="M116,163L185,157L103,131Z" fill="rgb(166, 139, 137)" fill-opacity="0.62"/><path d="M179,100L167,94L177,86Z" fill="rgb(103, 34, 21)" fill-opacity="0.50"/><path d="M207,176L178,156L211,148Z" fill="rgb(148, 208, 246)" fill-opacity="0.51"/><path d="M64,96L9,112L19,133Z" fill="rgb(92, 56, 55)" fill-opacity="0.46"/><path d="M123,62L114,67L117,93Z" fill="rgb(47, 6, 15)" fill-opacity="0.33"/><path d="M171,90L157,55L145,86Z" fill="rgb(8, 23, 14)" fill-opacity="0.44"/><path d="M219,160L225,141L291,111Z" fill="rgb(167, 212, 254)" fill-opacity="0.53"/><path d="M75,39L72,-11L91,-3Z" fill="rgb(211, 110, 64)" fill-opacity="0.45"/><path d="M145,48L206,17L157,13Z" fill="rgb(246, 211, 165)" fill-opacity="0.33"/><path d="M112,43L90,49L141,75Z" fill="rgb(192, 240, 188)" fill-opacity="0.52"/><path d="M14,28L23,-9L-13,-13Z" fill="rgb(175, 78, 23)" fill-opacity="0.44"/><path d="M217,115L220,102L213,99Z" fill="rgb(192, 235, 255)" fill-opacity="0.46"/><path d="M38,95L69,11L73,45Z" fill="rgb(49, 7, 0)" fill-opacity="0.45"/><path d="M116,77L107,69L105,104Z" fill="rgb(184, 201, 147)" fill-opacity="0.52"/><path d="M104,64L94,71L108,78Z" fill="rgb(2, 0, 0)" fill-opacity="0.50"/><path d="M27,30L72,61L21,96Z" fill="rgb(47, 16, 2)" fill-opacity="0.35"/><path d="M79,46L72,21L156,43Z" fill="rgb(147, 68, 37)" fill-opacity="0.82"/><path d="M207,-7L193,-12L198,15Z" fill="rgb(225, 246, 254)" fill-opacity="0.40"/><path d="M71,68L62,63L72,103Z" fill="rgb(157, 136, 135)" fill-opacity="0.56"/><path d="M97,64L114,68L100,43Z" fill="rgb(178, 234, 165)" fill-opacity="0.41"/><path d="M199,94L186,115L182,95Z" fill="rgb(214, 235, 250)" fill-opacity="0.42"/><path d="M238,117L240,109L259,122Z" fill="rgb(209, 238, 255)" fill-opacity="0.48"/><path d="M42,161L58,155L21,152Z" fill="rgb(165, 214, 255)" fill-opacity="0.47"/><path d="M238,137L229,127L245,122Z" fill="rgb(53, 45, 56)" fill-opacity="0.56"/><path d="M66,96L71,134L140,124Z" fill="rgb(99, 91, 86)" fill-opacity="0.73"/><path d="M203,23L173,41L172,79Z" fill="rgb(55, 64, 39)" fill-opacity="0.55"/><path d="M87,88L71,57L72,83Z" fill="rgb(25, 5, 4)" fill-opacity="0.53"/><path d="M26,9L40,-44L64,10Z" fill="rgb(57, 231, 255)" fill-opacity="0.17"/><path d="M152,85L170,92L132,95Z" fill="rgb(195, 226, 255)" fill-opacity="0.40"/><path d="M79,94L100,99L103,79Z" fill="rgb(168, 220, 255)" fill-opacity="0.51"/><path d="M38,83L77,83L47,107Z" fill="rgb(178, 129, 119)" fill-opacity="0.51"/><path d="M68,128L56,141L91,153Z" fill="rgb(194, 165, 166)" fill-opacity="0.45"/><path d="M19,81L-11,96L20,115Z" fill="rgb(154, 94, 88)" fill-opacity="0.53"/><path d="M163,109L132,104L144,98Z" fill="rgb(54, 77, 107)" fill-opacity="0.59"/><path d="M204,145L182,155L188,119Z" fill="rgb(116, 65, 51)" fill-opacity="0.53"/><path d="M164,2L142,8L170,13Z" fill="rgb(83, 100, 84)" fill-opacity="0.52"/><path d="M141,129L154,149L160,130Z" fill="rgb(43, 19, 13)" fill-opacity="0.50"/><path d="M97,74L97,98L111,86Z" fill="rgb(171, 209, 234)" fill-opacity="0.63"/><path d="M63,79L58,68L72,66Z" fill="rgb(168, 146, 142)" fill-opacity="0.47"/><path d="M130,-42L116,29L128,33Z" fill="rgb(80, 22, 6)" fill-opacity="0.36"/><path d="M231,61L226,32L215,76Z" fill="rgb(96, 95, 74)" fill-opacity="0.54"/><path d="M224,99L250,8L236,22Z" fill="rgb(6, 19, 28)" fill-opacity="0.57"/><path d="M94,166L36,134L-10,141Z" fill="rgb(120, 71, 76)" fill-opacity="0.49"/><path d="M98,66L107,87L104,68Z" fill="rgb(35, 14, 0)" fill-opacity="0.51"/><path d="M221,7L195,-1L243,0Z" fill="rgb(228, 244, 255)" fill-opacity="0.57"/><path d="M54,117L40,117L46,125Z" fill="rgb(149, 129, 116)" fill-opacity="0.47"/><path d="M219,169L259,143L220,150Z" fill="rgb(104, 143, 180)" fill-opacity="0.54"/><path d="M132,114L115,79L138,90Z" fill="rgb(174, 105, 97)" fill-opacity="0.45"/><path d="M48,129L36,139L42,123Z" fill="rgb(1, 14, 19)" fill-opacity="0.53"/><path d="M23,122L42,135L10,154Z" fill="rgb(183, 122, 118)" fill-opacity="0.42"/><path d="M45,3L7,-13L64,-3Z" fill="rgb(230, 226, 254)" fill-opacity="0.55"/><path d="M143,104L163,113L133,136Z" fill="rgb(162, 169, 190)" fill-opacity="0.46"/><path d="M233,139L232,123L238,104Z" fill="rgb(0, 0, 2)" fill-opacity="0.47"/><path d="M179,140L171,112L167,144Z" fill="rgb(82, 61, 65)" fill-opacity="0.45"/><path d="M105,75L111,58L113,86Z" fill="rgb(169, 219, 157)" fill-opacity="0.54"/><path d="M106,105L120,104L109,98Z" fill="rgb(57, 35, 35)" fill-opacity="0.54"/><path d="M155,91L187,109L150,107Z" fill="rgb(170, 137, 141)" fill-opacity="0.63"/><path d="M48,172L91,148L22,168Z" fill="rgb(67, 62, 73)" fill-opacity="0.58"/><path d="M48,115L61,131L69,94Z" fill="rgb(38, 16, 7)" fill-opacity="0.34"/><path d="M274,25L250,73L255,80Z" fill="rgb(198, 169, 140)" fill-opacity="0.47"/><path d="M188,80L168,70L178,95Z" fill="rgb(190, 148, 99)" fill-opacity="0.35"/><path d="M0,15L-13,20L11,35Z" fill="rgb(98, 137, 90)" fill-opacity="0.52"/><path d="M174,64L222,70L197,96Z" fill="rgb(31, 41, 20)" fill-opacity="0.56"/><path d="M88,111L98,108L75,85Z" fill="rgb(169, 125, 122)" fill-opacity="0.51"/><path d="M113,67L100,44L131,46Z" fill="rgb(190, 223, 174)" fill-opacity="0.56"/><path d="M141,67L129,57L128,16Z" fill="rgb(154, 79, 48)" fill-opacity="0.77"/><path d="M186,16L195,6L185,-2Z" fill="rgb(87, 111, 78)" fill-opacity="0.55"/><path d="M111,158L110,163L152,170Z" fill="rgb(169, 224, 255)" fill-opacity="0.47"/><path d="M258,126L243,136L250,116Z" fill="rgb(204, 234, 255)" fill-opacity="0.60"/><path d="M250,4L244,-25L240,20Z" fill="rgb(0, 14, 18)" fill-opacity="0.61"/><path d="M161,169L207,158L212,207Z" fill="rgb(109, 157, 188)" fill-opacity="0.55"/><path d="M201,115L211,119L207,139Z" fill="rgb(130, 84, 75)" fill-opacity="0.64"/><path d="M92,75L94,66L110,68Z" fill="rgb(16, 3, 0)" fill-opacity="0.52"/><path d="M218,9L218,55L198,-1Z" fill="rgb(55, 62, 0)" fill-opacity="0.20"/><path d="M143,131L147,145L126,130Z" fill="rgb(171, 145, 140)" fill-opacity="0.52"/><path d="M220,91L198,131L194,99Z" fill="rgb(60, 47, 45)" fill-opacity="0.62"/><path d="M61,76L9,59L19,85Z" fill="rgb(48, 26, 25)" fill-opacity="0.48"/><path d="M174,142L163,135L136,160Z" fill="rgb(166, 105, 88)" fill-opacity="0.38"/><path d="M143,100L135,87L168,89Z" fill="rgb(169, 228, 255)" fill-opacity="0.43"/><path d="M92,44L70,44L98,55Z" fill="rgb(192, 48, 89)" fill-opacity="0.65"/><path d="M207,62L207,56L191,57Z" fill="rgb(209, 185, 164)" fill-opacity="0.41"/><path d="M139,145L105,112L122,144Z" fill="rgb(75, 90, 81)" fill-opacity="0.43"/><path d="M115,64L128,73L111,75Z" fill="rgb(21, 25, 28)" fill-opacity="0.34"/><path d="M120,103L131,97L123,109Z" fill="rgb(116, 66, 57)" fill-opacity="0.51"/><path d="M154,35L172,55L136,51Z" fill="rgb(111, 110, 71)" fill-opacity="0.54"/><path d="M247,158L221,171L241,180Z" fill="rgb(1, 62, 97)" fill-opacity="0.47"/><path d="M66,42L63,64L69,51Z" fill="rgb(9, 0, 0)" fill-opacity="0.50"/><path d="M33,105L39,96L18,97Z" fill="rgb(140, 203, 244)" fill-opacity="0.52"/><path d="M139,9L136,15L126,8Z" fill="rgb(151, 147, 146)" fill-opacity="0.34"/><path d="M179,39L194,26L162,37Z" fill="rgb(166, 141, 95)" fill-opacity="0.53"/><path d="M230,141L278,106L226,152Z" fill="rgb(174, 217, 247)" fill-opacity="0.54"/><path d="M15,126L34,115L9,116Z" fill="rgb(77, 55, 53)" fill-opacity="0.52"/><path d="M27,93L42,89L39,80Z" fill="rgb(91, 73, 69)" fill-opacity="0.63"/><path d="M166,84L158,133L177,122Z" fill="rgb(150, 118, 126)" fill-opacity="0.45"/><path d="M34,100L99,130L66,133Z" fill="rgb(58, 32, 42)" fill-opacity="0.25"/><path d="M151,87L172,89L141,69Z" fill="rgb(33, 21, 26)" fill-opacity="0.43"/><path d="M103,61L128,57L140,67Z" fill="rgb(209, 234, 205)" fill-opacity="0.56"/><path d="M84,147L111,148L104,197Z" fill="rgb(73, 78, 95)" fill-opacity="0.50"/><path d="M182,110L205,122L172,115Z" fill="rgb(87, 59, 60)" fill-opacity="0.58"/><path d="M80,27L110,33L126,25Z" fill="rgb(80, 81, 77)" fill-opacity="0.51"/><path d="M3,100L3,121L14,129Z" fill="rgb(178, 152, 149)" fill-opacity="0.60"/><path d="M13,135L12,167L18,167Z" fill="rgb(115, 119, 137)" fill-opacity="0.56"/><path d="M125,141L107,138L138,163Z" fill="rgb(177, 158, 160)" fill-opacity="0.46"/><path d="M193,130L203,134L187,112Z" fill="rgb(125, 100, 97)" fill-opacity="0.50"/><path d="M207,163L183,156L213,147Z" fill="rgb(160, 211, 244)" fill-opacity="0.55"/><path d="M112,73L114,80L120,62Z" fill="rgb(70, 56, 55)" fill-opacity="0.53"/><path d="M12,70L-19,149L-37,63Z" fill="rgb(42, 25, 16)" fill-opacity="0.50"/><path d="M22,105L41,113L43,105Z" fill="rgb(36, 48, 71)" fill-opacity="0.51"/><path d="M172,141L179,125L159,131Z" fill="rgb(64, 55, 64)" fill-opacity="0.53"/><path d="M238,107L269,26L251,41Z" fill="rgb(0, 9, 14)" fill-opacity="0.47"/><path d="M122,82L124,92L113,87Z" fill="rgb(118, 65, 54)" fill-opacity="0.54"/><path d="M253,100L236,108L254,116Z" fill="rgb(64, 65, 38)" fill-opacity="0.58"/><path d="M170,64L159,74L153,58Z" fill="rgb(31, 59, 23)" fill-opacity="0.49"/><path d="M98,111L86,96L104,94Z" fill="rgb(67, 121, 160)" fill-opacity="0.45"/><path d="M129,118L163,130L169,119Z" fill="rgb(118, 122, 134)" fill-opacity="0.77"/><path d="M185,92L188,103L201,96Z" fill="rgb(185, 235, 253)" fill-opacity="0.49"/><path d="M133,86L159,87L134,84Z" fill="rgb(111, 93, 95)" fill-opacity="0.58"/><path d="M188,51L200,62L199,49Z" fill="rgb(144, 134, 111)" fill-opacity="0.54"/><path d="M82,150L116,161L123,155Z" fill="rgb(113, 96, 96)" fill-opacity="0.59"/><path d="M17,115L55,109L41,127Z" fill="rgb(110, 91, 87)" fill-opacity="0.63"/><path d="M135,88L123,84L131,58Z" fill="rgb(183, 224, 157)" fill-opacity="0.48"/><path d="M201,109L208,97L214,119Z" fill="rgb(30, 24, 27)" fill-opacity="0.67"/><path d="M19,1L74,51L5,43Z" fill="rgb(111, 27, 10)" fill-opacity="0.36"/><path d="M113,131L123,147L108,143Z" fill="rgb(187, 171, 175)" fill-opacity="0.54"/><path d="M223,19L239,12L232,45Z" fill="rgb(194, 162, 139)" fill-opacity="0.54"/><path d="M12,49L10,62L-1,71Z" fill="rgb(172, 74, 34)" fill-opacity="0.49"/><path d="M168,41L169,53L147,49Z" fill="rgb(130, 128, 97)" fill-opacity="0.48"/><path d="M60,7L81,-17L67,23Z" fill="rgb(79, 16, 0)" fill-opacity="0.41"/><path d="M135,116L166,121L160,109Z" fill="rgb(151, 167, 190)" fill-opacity="0.54"/><path d="M17,69L8,69L24,31Z" fill="rgb(9, 35, 79)" fill-opacity="0.33"/><path d="M105,89L85,93L79,87Z" fill="rgb(185, 235, 255)" fill-opacity="0.56"/><path d="M33,172L-3,160L22,233Z" fill="rgb(22, 26, 35)" fill-opacity="0.51"/><path d="M224,125L221,97L230,85Z" fill="rgb(10, 18, 27)" fill-opacity="0.67"/><path d="M211,14L208,17L147,14Z" fill="rgb(245, 205, 168)" fill-opacity="0.48"/><path d="M120,108L147,122L116,116Z" fill="rgb(108, 87, 85)" fill-opacity="0.79"/><path d="M229,55L233,41L224,51Z" fill="rgb(131, 124, 114)" fill-opacity="0.52"/><path d="M239,113L235,118L240,97Z" fill="rgb(0, 4, 8)" fill-opacity="0.47"/><path d="M142,-11L123,46L150,30Z" fill="rgb(189, 84, 39)" fill-opacity="0.38"/><path d="M95,45L106,59L97,54Z" fill="rgb(205, 229, 163)" fill-opacity="0.53"/><path d="M206,49L214,47L204,62Z" fill="rgb(168, 151, 137)" fill-opacity="0.51"/><path d="M108,122L88,112L94,142Z" fill="rgb(113, 128, 132)" fill-opacity="0.40"/><path d="M18,84L22,93L10,86Z" fill="rgb(187, 141, 147)" fill-opacity="0.50"/><path d="M62,58L81,73L85,69Z" fill="rgb(19, 0, 3)" fill-opacity="0.49"/><path d="M214,58L219,58L229,66Z" fill="rgb(151, 131, 114)" fill-opacity="0.50"/><path d="M146,42L164,65L149,30Z" fill="rgb(111, 120, 66)" fill-opacity="0.56"/><path d="M110,74L112,88L112,56Z" fill="rgb(182, 225, 178)" fill-opacity="0.50"/><path d="M253,33L253,-13L247,52Z" fill="rgb(143, 161, 193)" fill-opacity="0.56"/><path d="M121,63L109,70L125,70Z" fill="rgb(53, 63, 85)" fill-opacity="0.53"/><path d="M142,69L141,52L136,75Z" fill="rgb(114, 49, 29)" fill-opacity="0.48"/><path d="M201,5L191,10L201,10Z" fill="rgb(244, 253, 255)" fill-opacity="0.51"/><path d="M70,44L68,62L83,66Z" fill="rgb(154, 18, 63)" fill-opacity="0.50"/><path d="M179,0L154,2L128,-10Z" fill="rgb(246, 255, 255)" fill-opacity="0.55"/><path d="M151,15L158,14L154,29Z" fill="rgb(216, 201, 187)" fill-opacity="0.55"/><path d="M208,20L215,14L233,16Z" fill="rgb(221, 181, 152)" fill-opacity="0.48"/></svg>