<svg xmlns="http://www.w3.org/2000/svg" viewBox="0 0 169.55844155844156 256" clip-path="url(#clip)" width="339.1168831168831" height="512"><defs><clipPath id="clip" clipPathUnits="objectBoundingBox"><rect x="0" y="0" width="169.55844155844156" height="256"/></clipPath></defs><rect x="0" y="0" width="169.55844155844156" height="256" fill="rgb(43, 49, 36)"/><path d="M11,122L67,82L13,72Z" fill="rgb(234, 227, 241)" fill-opacity="0.68"/><path d="M272,0L67,114L166,-9Z" fill="rgb(154, 164, 195)" fill-opacity="0.76"/><path d="M90,109L118,87L90,84Z" fill="rgb(255, 255, 255)" fill-opacity="0.46"/><path d="M57,96L-76,103L41,124Z" fill="rgb(136, 107, 102)" fill-opacity="0.98"/><path d="M120,97L156,46L185,126Z" fill="rgb(0, 0, 7)" fill-opacity="0.42"/><path d="M142,230L123,230L142,219Z" fill="rgb(222, 255, 199)" fill-opacity="0.56"/><path d="M53,77L8,84L49,104Z" fill="rgb(249, 255, 255)" fill-opacity="0.71"/><path d="M-24,87L16,103L-14,127Z" fill="rgb(246, 151, 124)" fill-opacity="0.61"/><path d="M91,109L44,111L73,29Z" fill="rgb(54, 68, 70)" fill-opacity="0.78"/><path d="M182,289L178,96L53,178Z" fill="rgb(128, 241, 0)" fill-opacity="0.15"/><path d="M90,80L87,103L103,101Z" fill="rgb(252, 248, 247)" fill-opacity="0.62"/><path d="M146,60L214,49L189,84Z" fill="rgb(94, 106, 125)" fill-opacity="1.00"/><path d="M86,113L145,66L139,117Z" fill="rgb(10, 14, 5)" fill-opacity="0.66"/><path d="M64,93L64,80L99,82Z" fill="rgb(79, 92, 119)" fill-opacity="0.50"/><path d="M-104,58L61,-33L5,96Z" fill="rgb(11, 21, 11)" fill-opacity="0.98"/><path d="M88,92L61,143L40,119Z" fill="rgb(53, 71, 80)" fill-opacity="0.61"/><path d="M16,72L5,99L48,82Z" fill="rgb(228, 234, 253)" fill-opacity="0.53"/><path d="M146,15L215,30L174,31Z" fill="rgb(4, 14, 19)" fill-opacity="0.50"/><path d="M18,73L26,76L82,79Z" fill="rgb(20, 48, 42)" fill-opacity="0.74"/><path d="M98,119L226,107L94,192Z" fill="rgb(71, 61, 42)" fill-opacity="0.77"/><path d="M390,386L-111,216L129,227Z" fill="rgb(11, 20, 0)" fill-opacity="0.36"/><path d="M153,62L115,84L114,48Z" fill="rgb(156, 169, 200)" fill-opacity="0.55"/><path d="M87,178L99,205L88,203Z" fill="rgb(103, 226, 41)" fill-opacity="0.52"/><path d="M47,115L24,166L43,174Z" fill="rgb(0, 0, 19)" fill-opacity="0.53"/><path d="M76,200L85,142L87,196Z" fill="rgb(34, 9, 15)" fill-opacity="0.46"/><path d="M132,220L143,225L132,232Z" fill="rgb(254, 255, 255)" fill-opacity="0.44"/><path d="M34,168L10,109L-17,179Z" fill="rgb(21, 14, 18)" fill-opacity="0.50"/><path d="M141,226L135,234L135,220Z" fill="rgb(238, 255, 243)" fill-opacity="0.43"/><path d="M93,84L103,82L133,89Z" fill="rgb(0, 0, 0)" fill-opacity="0.41"/><path d="M73,160L43,144L51,160Z" fill="rgb(115, 154, 125)" fill-opacity="0.43"/><path d="M76,110L8,105L12,90Z" fill="rgb(92, 95, 110)" fill-opacity="0.39"/><path d="M127,249L137,213L96,218Z" fill="rgb(49, 131, 6)" fill-opacity="0.45"/><path d="M46,99L51,114L39,121Z" fill="rgb(173, 128, 105)" fill-opacity="0.55"/><path d="M51,91L60,105L53,69Z" fill="rgb(27, 39, 50)" fill-opacity="0.46"/><path d="M97,84L117,94L81,85Z" fill="rgb(255, 255, 251)" fill-opacity="0.51"/><path d="M25,117L38,98L53,97Z" fill="rgb(120, 121, 142)" fill-opacity="0.60"/><path d="M19,102L31,101L19,115Z" fill="rgb(73, 64, 63)" fill-opacity="0.53"/><path d="M84,108L84,76L91,110Z" fill="rgb(115, 116, 127)" fill-opacity="0.76"/><path d="M92,192L94,202L86,194Z" fill="rgb(116, 234, 68)" fill-opacity="0.53"/><path d="M95,268L170,202L234,254Z" fill="rgb(16, 91, 0)" fill-opacity="0.39"/><path d="M156,-11L147,0L168,28Z" fill="rgb(28, 46, 58)" fill-opacity="0.55"/><path d="M123,164L153,140L184,162Z" fill="rgb(88, 104, 70)" fill-opacity="0.48"/><path d="M113,81L94,80L119,46Z" fill="rgb(160, 170, 206)" fill-opacity="0.41"/><path d="M71,184L75,172L81,190Z" fill="rgb(115, 253, 29)" fill-opacity="0.39"/><path d="M145,17L192,50L119,48Z" fill="rgb(162, 172, 214)" fill-opacity="0.33"/><path d="M170,230L133,239L145,221Z" fill="rgb(45, 136, 11)" fill-opacity="0.44"/><path d="M34,-87L87,84L15,68Z" fill="rgb(26, 64, 22)" fill-opacity="0.46"/><path d="M44,149L50,162L53,102Z" fill="rgb(72, 92, 88)" fill-opacity="0.57"/><path d="M59,149L102,113L105,193Z" fill="rgb(59, 51, 30)" fill-opacity="0.92"/><path d="M21,157L27,137L69,133Z" fill="rgb(73, 82, 91)" fill-opacity="0.31"/><path d="M109,68L127,74L147,77Z" fill="rgb(61, 66, 70)" fill-opacity="0.53"/><path d="M105,195L135,202L105,233Z" fill="rgb(48, 104, 16)" fill-opacity="0.61"/><path d="M10,84L5,60L5,104Z" fill="rgb(19, 5, 13)" fill-opacity="0.55"/><path d="M149,56L149,54L140,53Z" fill="rgb(17, 14, 20)" fill-opacity="0.56"/><path d="M148,115L157,62L142,70Z" fill="rgb(6, 10, 5)" fill-opacity="0.50"/><path d="M111,61L125,88L95,76Z" fill="rgb(142, 153, 176)" fill-opacity="0.45"/><path d="M56,154L47,148L76,143Z" fill="rgb(67, 32, 3)" fill-opacity="0.51"/><path d="M31,138L25,139L31,106Z" fill="rgb(92, 95, 116)" fill-opacity="0.59"/><path d="M144,131L142,114L118,125Z" fill="rgb(119, 71, 56)" fill-opacity="0.44"/><path d="M162,48L158,98L147,59Z" fill="rgb(61, 71, 87)" fill-opacity="0.48"/><path d="M52,95L16,73L27,98Z" fill="rgb(255, 255, 255)" fill-opacity="0.49"/><path d="M94,200L76,223L108,237Z" fill="rgb(25, 30, 11)" fill-opacity="0.56"/><path d="M64,80L77,76L113,85Z" fill="rgb(19, 21, 29)" fill-opacity="0.64"/><path d="M-2,109L10,114L0,98Z" fill="rgb(255, 183, 159)" fill-opacity="0.49"/><path d="M136,219L158,237L173,162Z" fill="rgb(48, 97, 15)" fill-opacity="0.63"/><path d="M132,228L128,241L141,233Z" fill="rgb(42, 154, 11)" fill-opacity="0.57"/><path d="M113,71L107,68L102,68Z" fill="rgb(24, 20, 21)" fill-opacity="0.53"/><path d="M85,89L86,93L86,82Z" fill="rgb(255, 255, 255)" fill-opacity="0.64"/><path d="M80,15L83,85L147,2Z" fill="rgb(54, 50, 71)" fill-opacity="0.43"/><path d="M161,71L168,70L176,18Z" fill="rgb(144, 153, 181)" fill-opacity="0.49"/><path d="M129,50L107,42L123,50Z" fill="rgb(21, 17, 25)" fill-opacity="0.47"/><path d="M25,-66L27,77L35,49Z" fill="rgb(7, 13, 7)" fill-opacity="0.66"/><path d="M148,17L151,-3L119,40Z" fill="rgb(4, 0, 28)" fill-opacity="0.44"/><path d="M76,186L78,156L62,153Z" fill="rgb(105, 170, 35)" fill-opacity="0.28"/><path d="M28,121L37,122L54,130Z" fill="rgb(34, 22, 22)" fill-opacity="0.52"/><path d="M117,93L128,83L116,91Z" fill="rgb(83, 94, 54)" fill-opacity="0.50"/><path d="M62,87L90,83L60,82Z" fill="rgb(104, 125, 161)" fill-opacity="0.42"/><path d="M122,146L112,214L133,168Z" fill="rgb(21, 41, 5)" fill-opacity="0.41"/><path d="M8,147L5,120L19,113Z" fill="rgb(48, 42, 32)" fill-opacity="0.49"/><path d="M154,-1L175,43L151,-16Z" fill="rgb(13, 23, 29)" fill-opacity="0.67"/><path d="M140,54L147,53L124,49Z" fill="rgb(19, 17, 22)" fill-opacity="0.45"/><path d="M154,95L139,71L156,63Z" fill="rgb(10, 17, 10)" fill-opacity="0.49"/><path d="M48,79L48,110L51,93Z" fill="rgb(250, 240, 248)" fill-opacity="0.40"/><path d="M48,106L53,97L61,110Z" fill="rgb(24, 33, 33)" fill-opacity="0.40"/><path d="M171,105L184,67L155,75Z" fill="rgb(3, 2, 0)" fill-opacity="0.53"/><path d="M91,94L96,84L119,89Z" fill="rgb(249, 247, 243)" fill-opacity="0.65"/><path d="M69,291L-94,208L70,157Z" fill="rgb(44, 22, 32)" fill-opacity="0.31"/><path d="M103,203L95,193L106,188Z" fill="rgb(43, 14, 28)" fill-opacity="0.43"/><path d="M46,118L95,106L76,120Z" fill="rgb(61, 78, 90)" fill-opacity="0.49"/><path d="M4,154L-11,166L11,168Z" fill="rgb(12, 0, 0)" fill-opacity="0.48"/><path d="M61,175L21,162L62,161Z" fill="rgb(12, 6, 11)" fill-opacity="0.53"/><path d="M99,101L88,92L96,84Z" fill="rgb(255, 255, 255)" fill-opacity="0.48"/><path d="M125,154L139,145L137,164Z" fill="rgb(81, 102, 61)" fill-opacity="0.54"/><path d="M82,114L84,115L85,101Z" fill="rgb(156, 139, 139)" fill-opacity="0.52"/><path d="M124,85L112,85L124,96Z" fill="rgb(24, 38, 18)" fill-opacity="0.50"/><path d="M48,261L126,237L157,260Z" fill="rgb(23, 5, 5)" fill-opacity="0.26"/><path d="M90,222L109,189L79,219Z" fill="rgb(38, 35, 24)" fill-opacity="0.61"/><path d="M57,124L54,131L73,129Z" fill="rgb(0, 16, 32)" fill-opacity="0.50"/><path d="M84,212L85,188L56,187Z" fill="rgb(30, 52, 15)" fill-opacity="0.55"/><path d="M146,17L125,45L166,24Z" fill="rgb(142, 153, 181)" fill-opacity="0.64"/><path d="M52,90L92,101L48,118Z" fill="rgb(47, 60, 65)" fill-opacity="0.62"/><path d="M12,77L45,77L51,97Z" fill="rgb(248, 252, 255)" fill-opacity="0.54"/><path d="M88,98L100,85L99,103Z" fill="rgb(255, 255, 255)" fill-opacity="0.48"/><path d="M153,194L139,222L135,172Z" fill="rgb(39, 67, 8)" fill-opacity="0.49"/><path d="M29,107L50,104L6,87Z" fill="rgb(112, 119, 141)" fill-opacity="0.37"/><path d="M7,119L-16,113L21,109Z" fill="rgb(153, 94, 72)" fill-opacity="0.49"/><path d="M13,80L9,91L30,76Z" fill="rgb(228, 234, 248)" fill-opacity="0.67"/><path d="M165,62L160,72L158,62Z" fill="rgb(123, 135, 158)" fill-opacity="0.47"/><path d="M100,200L87,200L89,196Z" fill="rgb(114, 197, 79)" fill-opacity="0.50"/><path d="M12,112L23,112L8,94Z" fill="rgb(170, 114, 90)" fill-opacity="0.53"/><path d="M135,233L141,230L141,227Z" fill="rgb(92, 255, 72)" fill-opacity="0.51"/><path d="M106,83L103,83L123,91Z" fill="rgb(27, 29, 22)" fill-opacity="0.53"/><path d="M46,140L29,136L48,123Z" fill="rgb(23, 11, 10)" fill-opacity="0.54"/><path d="M81,202L88,197L93,205Z" fill="rgb(49, 169, 10)" fill-opacity="0.55"/><path d="M84,115L186,110L126,87Z" fill="rgb(4, 4, 5)" fill-opacity="0.38"/><path d="M75,130L67,101L64,124Z" fill="rgb(76, 92, 94)" fill-opacity="0.47"/><path d="M135,51L125,40L161,56Z" fill="rgb(144, 156, 182)" fill-opacity="0.50"/><path d="M66,154L52,155L73,167Z" fill="rgb(88, 118, 98)" fill-opacity="0.49"/><path d="M24,127L12,108L7,109Z" fill="rgb(90, 61, 47)" fill-opacity="0.47"/><path d="M31,185L68,174L28,171Z" fill="rgb(81, 62, 56)" fill-opacity="0.45"/><path d="M169,146L126,155L182,163Z" fill="rgb(84, 94, 65)" fill-opacity="0.58"/><path d="M143,96L140,76L147,95Z" fill="rgb(83, 60, 58)" fill-opacity="0.45"/><path d="M38,-11L67,67L32,67Z" fill="rgb(36, 72, 28)" fill-opacity="0.62"/><path d="M99,203L99,218L115,214Z" fill="rgb(59, 130, 23)" fill-opacity="0.55"/><path d="M-11,119L4,107L0,103Z" fill="rgb(255, 219, 196)" fill-opacity="0.57"/><path d="M89,100L90,80L90,105Z" fill="rgb(249, 248, 252)" fill-opacity="0.48"/><path d="M47,140L72,147L70,137Z" fill="rgb(1, 28, 43)" fill-opacity="0.49"/><path d="M162,203L160,236L206,146Z" fill="rgb(21, 12, 2)" fill-opacity="0.31"/><path d="M158,63L171,57L153,75Z" fill="rgb(93, 101, 122)" fill-opacity="0.52"/><path d="M89,50L96,21L111,34Z" fill="rgb(68, 64, 72)" fill-opacity="0.41"/><path d="M76,98L92,94L74,92Z" fill="rgb(34, 37, 42)" fill-opacity="0.51"/><path d="M17,93L16,69L18,67Z" fill="rgb(228, 237, 252)" fill-opacity="0.55"/><path d="M152,13L159,14L156,4Z" fill="rgb(157, 177, 206)" fill-opacity="0.46"/><path d="M21,118L41,134L36,116Z" fill="rgb(92, 65, 61)" fill-opacity="0.39"/><path d="M91,108L88,94L88,105Z" fill="rgb(183, 187, 205)" fill-opacity="0.53"/><path d="M107,91L111,90L90,107Z" fill="rgb(226, 224, 219)" fill-opacity="0.50"/><path d="M147,153L199,97L146,107Z" fill="rgb(58, 41, 54)" fill-opacity="0.30"/><path d="M126,211L138,183L126,180Z" fill="rgb(70, 117, 22)" fill-opacity="0.55"/><path d="M120,93L125,83L149,68Z" fill="rgb(50, 71, 26)" fill-opacity="0.49"/><path d="M46,162L53,126L45,148Z" fill="rgb(90, 122, 117)" fill-opacity="0.33"/><path d="M129,92L114,103L109,92Z" fill="rgb(14, 30, 16)" fill-opacity="0.46"/><path d="M12,99L11,96L34,106Z" fill="rgb(114, 82, 74)" fill-opacity="0.68"/><path d="M65,170L70,180L80,121Z" fill="rgb(68, 70, 24)" fill-opacity="0.57"/><path d="M129,226L122,247L111,231Z" fill="rgb(58, 77, 16)" fill-opacity="0.44"/><path d="M84,111L84,96L59,100Z" fill="rgb(36, 52, 57)" fill-opacity="0.60"/><path d="M77,81L101,84L89,78Z" fill="rgb(13, 11, 13)" fill-opacity="0.51"/><path d="M134,8L160,21L125,12Z" fill="rgb(34, 34, 40)" fill-opacity="0.60"/><path d="M147,240L128,226L123,233Z" fill="rgb(36, 106, 9)" fill-opacity="0.62"/><path d="M155,194L158,176L141,182Z" fill="rgb(49, 113, 6)" fill-opacity="0.41"/><path d="M151,75L164,58L158,55Z" fill="rgb(41, 57, 66)" fill-opacity="0.57"/><path d="M121,122L148,113L117,150Z" fill="rgb(98, 77, 51)" fill-opacity="0.39"/><path d="M18,59L26,49L22,16Z" fill="rgb(34, 85, 31)" fill-opacity="0.51"/><path d="M177,48L151,55L173,56Z" fill="rgb(138, 144, 172)" fill-opacity="0.45"/><path d="M27,156L31,111L22,171Z" fill="rgb(85, 89, 109)" fill-opacity="0.53"/><path d="M70,123L97,119L84,151Z" fill="rgb(79, 53, 41)" fill-opacity="0.45"/><path d="M5,153L25,145L29,115Z" fill="rgb(26, 22, 23)" fill-opacity="0.45"/><path d="M33,75L30,44L19,75Z" fill="rgb(4, 18, 8)" fill-opacity="0.43"/><path d="M35,126L40,125L37,129Z" fill="rgb(138, 95, 86)" fill-opacity="0.49"/><path d="M75,162L48,168L62,170Z" fill="rgb(59, 29, 0)" fill-opacity="0.51"/><path d="M46,138L42,145L44,119Z" fill="rgb(0, 4, 15)" fill-opacity="0.60"/><path d="M87,194L95,190L87,203Z" fill="rgb(102, 210, 51)" fill-opacity="0.46"/><path d="M133,50L116,47L128,51Z" fill="rgb(41, 41, 49)" fill-opacity="0.47"/><path d="M157,104L155,76L158,75Z" fill="rgb(100, 108, 127)" fill-opacity="0.43"/><path d="M13,112L30,118L24,109Z" fill="rgb(162, 124, 98)" fill-opacity="0.52"/><path d="M140,52L162,59L120,48Z" fill="rgb(33, 41, 51)" fill-opacity="0.47"/><path d="M130,28L116,48L118,39Z" fill="rgb(3, 0, 15)" fill-opacity="0.51"/><path d="M124,133L117,132L117,163Z" fill="rgb(82, 101, 46)" fill-opacity="0.49"/><path d="M95,83L125,87L111,87Z" fill="rgb(15, 9, 11)" fill-opacity="0.41"/><path d="M22,99L27,104L17,109Z" fill="rgb(66, 58, 59)" fill-opacity="0.57"/><path d="M98,157L78,177L73,154Z" fill="rgb(45, 41, 17)" fill-opacity="0.51"/><path d="M107,-13L59,65L24,-56Z" fill="rgb(38, 61, 35)" fill-opacity="0.59"/><path d="M13,89L50,78L38,99Z" fill="rgb(243, 245, 255)" fill-opacity="0.46"/><path d="M174,60L173,75L153,60Z" fill="rgb(126, 138, 163)" fill-opacity="0.44"/><path d="M15,75L26,-31L-130,156Z" fill="rgb(3, 1, 5)" fill-opacity="0.56"/><path d="M52,79L26,94L48,97Z" fill="rgb(250, 251, 255)" fill-opacity="0.67"/><path d="M137,218L139,221L124,225Z" fill="rgb(59, 161, 31)" fill-opacity="0.62"/><path d="M54,79L14,73L58,72Z" fill="rgb(28, 47, 43)" fill-opacity="0.55"/><path d="M7,98L2,103L25,103Z" fill="rgb(183, 113, 87)" fill-opacity="0.48"/><path d="M148,53L159,42L131,48Z" fill="rgb(149, 162, 189)" fill-opacity="0.50"/><path d="M54,174L26,153L34,145Z" fill="rgb(2, 6, 10)" fill-opacity="0.44"/><path d="M-17,107L-13,138L20,127Z" fill="rgb(34, 27, 19)" fill-opacity="0.64"/><path d="M87,183L90,167L88,190Z" fill="rgb(94, 160, 25)" fill-opacity="0.48"/><path d="M144,84L143,100L142,83Z" fill="rgb(113, 80, 86)" fill-opacity="0.37"/><path d="M142,224L136,231L131,224Z" fill="rgb(246, 255, 248)" fill-opacity="0.48"/><path d="M86,188L84,196L61,194Z" fill="rgb(36, 25, 27)" fill-opacity="0.55"/><path d="M160,55L168,36L183,60Z" fill="rgb(142, 151, 176)" fill-opacity="0.60"/><path d="M140,10L129,32L148,6Z" fill="rgb(1, 1, 7)" fill-opacity="0.45"/><path d="M48,148L24,127L44,150Z" fill="rgb(55, 60, 67)" fill-opacity="0.57"/><path d="M31,122L27,103L41,99Z" fill="rgb(116, 114, 138)" fill-opacity="0.56"/><path d="M91,79L113,71L97,81Z" fill="rgb(142, 152, 178)" fill-opacity="0.53"/><path d="M59,172L68,174L65,180Z" fill="rgb(97, 53, 66)" fill-opacity="0.44"/><path d="M104,224L109,195L111,219Z" fill="rgb(71, 141, 31)" fill-opacity="0.49"/><path d="M64,189L77,189L75,182Z" fill="rgb(47, 169, 0)" fill-opacity="0.41"/><path d="M173,232L147,246L152,230Z" fill="rgb(40, 107, 12)" fill-opacity="0.53"/><path d="M155,18L165,10L160,17Z" fill="rgb(137, 155, 180)" fill-opacity="0.51"/><path d="M-16,92L4,80L8,98Z" fill="rgb(22, 1, 7)" fill-opacity="0.49"/><path d="M149,63L115,51L139,53Z" fill="rgb(150, 162, 189)" fill-opacity="0.59"/><path d="M141,75L144,69L106,100Z" fill="rgb(59, 62, 34)" fill-opacity="0.48"/><path d="M86,77L88,76L88,102Z" fill="rgb(41, 42, 50)" fill-opacity="0.62"/><path d="M142,70L122,50L149,56Z" fill="rgb(149, 161, 189)" fill-opacity="0.49"/></svg>