<svg xmlns="http://www.w3.org/2000/svg" viewBox="0 0 256 169.55844155844156" clip-path="url(#clip)" width="512" height="339.1168831168831"><defs><clipPath id="clip" clipPathUnits="objectBoundingBox"><rect x="0" y="0" width="256" height="169.55844155844156"/></clipPath></defs><rect x="0" y="0" width="256" height="169.55844155844156" fill="rgb(69, 73, 83)"/><path d="M56,63L84,118L87,68Z" fill="rgb(159, 139, 154)" fill-opacity="0.60"/><path d="M153,41L321,87L218,-109Z" fill="rgb(244, 208, 188)" fill-opacity="0.43"/><path d="M93,182L20,79L-25,200Z" fill="rgb(13, 1, 3)" fill-opacity="0.68"/><path d="M89,-20L87,22L129,6Z" fill="rgb(156, 161, 157)" fill-opacity="0.60"/><path d="M146,100L120,4L167,-6Z" fill="rgb(30, 46, 14)" fill-opacity="0.67"/><path d="M65,95L60,72L-8,151Z" fill="rgb(13, 1, 0)" fill-opacity="0.46"/><path d="M130,65L159,142L110,128Z" fill="rgb(118, 131, 100)" fill-opacity="0.62"/><path d="M247,145L303,5L192,138Z" fill="rgb(4, 2, 9)" fill-opacity="0.56"/><path d="M164,4L318,-51L252,13Z" fill="rgb(159, 202, 251)" fill-opacity="0.79"/><path d="M145,93L213,89L182,37Z" fill="rgb(27, 10, 0)" fill-opacity="0.37"/><path d="M179,101L199,125L211,88Z" fill="rgb(158, 151, 216)" fill-opacity="0.47"/><path d="M181,130L170,147L159,102Z" fill="rgb(18, 0, 0)" fill-opacity="0.55"/><path d="M166,165L135,295L282,146Z" fill="rgb(32, 27, 48)" fill-opacity="0.66"/><path d="M51,82L66,26L-100,66Z" fill="rgb(38, 32, 32)" fill-opacity="0.69"/><path d="M125,2L80,-10L119,31Z" fill="rgb(192, 184, 162)" fill-opacity="0.36"/><path d="M68,242L129,137L72,113Z" fill="rgb(42, 28, 24)" fill-opacity="0.68"/><path d="M137,50L112,59L129,75Z" fill="rgb(188, 128, 75)" fill-opacity="0.54"/><path d="M98,4L124,0L66,-3Z" fill="rgb(165, 219, 255)" fill-opacity="0.54"/><path d="M79,39L67,27L76,21Z" fill="rgb(185, 161, 180)" fill-opacity="0.57"/><path d="M188,81L177,86L186,125Z" fill="rgb(123, 116, 142)" fill-opacity="0.71"/><path d="M94,133L104,107L85,100Z" fill="rgb(42, 19, 20)" fill-opacity="0.54"/><path d="M135,147L128,169L113,146Z" fill="rgb(129, 123, 128)" fill-opacity="0.62"/><path d="M160,161L129,170L153,143Z" fill="rgb(136, 126, 116)" fill-opacity="0.44"/><path d="M59,117L71,133L30,147Z" fill="rgb(116, 93, 103)" fill-opacity="0.65"/><path d="M199,12L124,-2L137,11Z" fill="rgb(27, 35, 24)" fill-opacity="0.51"/><path d="M7,54L54,84L-7,-11Z" fill="rgb(24, 21, 16)" fill-opacity="0.45"/><path d="M35,39L166,30L148,57Z" fill="rgb(39, 55, 6)" fill-opacity="0.48"/><path d="M59,93L70,99L51,132Z" fill="rgb(179, 95, 95)" fill-opacity="0.40"/><path d="M243,94L174,44L266,7Z" fill="rgb(138, 108, 90)" fill-opacity="0.47"/><path d="M191,43L156,43L171,60Z" fill="rgb(127, 111, 99)" fill-opacity="0.69"/><path d="M186,47L209,98L193,89Z" fill="rgb(8, 0, 1)" fill-opacity="0.54"/><path d="M14,14L46,-4L-4,-2Z" fill="rgb(36, 15, 4)" fill-opacity="0.54"/><path d="M165,10L155,26L277,40Z" fill="rgb(179, 141, 123)" fill-opacity="0.51"/><path d="M204,6L188,6L205,16Z" fill="rgb(39, 51, 47)" fill-opacity="0.47"/><path d="M159,100L148,114L136,105Z" fill="rgb(55, 33, 0)" fill-opacity="0.49"/><path d="M112,96L116,123L150,95Z" fill="rgb(105, 164, 85)" fill-opacity="0.57"/><path d="M176,133L143,140L180,172Z" fill="rgb(62, 69, 0)" fill-opacity="0.36"/><path d="M69,59L74,38L87,56Z" fill="rgb(50, 18, 16)" fill-opacity="0.56"/><path d="M83,63L88,-1L97,31Z" fill="rgb(65, 52, 33)" fill-opacity="0.42"/><path d="M204,93L240,136L205,135Z" fill="rgb(8, 7, 22)" fill-opacity="0.59"/><path d="M186,100L200,90L205,112Z" fill="rgb(161, 178, 248)" fill-opacity="0.38"/><path d="M65,23L86,31L74,37Z" fill="rgb(208, 177, 186)" fill-opacity="0.40"/><path d="M199,74L292,59L204,46Z" fill="rgb(119, 107, 97)" fill-opacity="0.74"/><path d="M176,91L187,63L192,133Z" fill="rgb(109, 96, 111)" fill-opacity="0.60"/><path d="M125,68L128,87L102,75Z" fill="rgb(46, 35, 13)" fill-opacity="0.49"/><path d="M204,125L202,108L193,129Z" fill="rgb(143, 175, 255)" fill-opacity="0.30"/><path d="M50,58L32,110L24,93Z" fill="rgb(138, 78, 94)" fill-opacity="0.48"/><path d="M204,86L229,122L235,106Z" fill="rgb(49, 57, 89)" fill-opacity="0.76"/><path d="M216,10L201,14L234,15Z" fill="rgb(50, 63, 49)" fill-opacity="0.51"/><path d="M56,137L60,158L86,107Z" fill="rgb(117, 86, 93)" fill-opacity="0.47"/><path d="M52,100L90,81L125,107Z" fill="rgb(102, 91, 109)" fill-opacity="0.54"/><path d="M181,82L179,69L163,102Z" fill="rgb(0, 0, 9)" fill-opacity="0.37"/><path d="M37,75L-36,89L-2,128Z" fill="rgb(48, 40, 36)" fill-opacity="0.59"/><path d="M57,132L64,119L80,115Z" fill="rgb(44, 27, 21)" fill-opacity="0.49"/><path d="M56,23L-26,34L37,49Z" fill="rgb(95, 79, 76)" fill-opacity="0.44"/><path d="M67,40L63,52L75,48Z" fill="rgb(147, 106, 106)" fill-opacity="0.50"/><path d="M131,54L139,61L150,48Z" fill="rgb(54, 159, 24)" fill-opacity="0.54"/><path d="M149,113L158,122L132,116Z" fill="rgb(157, 141, 171)" fill-opacity="0.47"/><path d="M67,83L38,66L62,61Z" fill="rgb(109, 96, 72)" fill-opacity="0.52"/><path d="M161,97L173,97L156,81Z" fill="rgb(31, 57, 104)" fill-opacity="0.55"/><path d="M89,74L76,95L82,62Z" fill="rgb(166, 146, 167)" fill-opacity="0.49"/><path d="M40,45L49,65L11,64Z" fill="rgb(0, 0, 6)" fill-opacity="0.54"/><path d="M77,11L48,19L60,63Z" fill="rgb(45, 29, 38)" fill-opacity="0.48"/><path d="M58,53L35,11L47,18Z" fill="rgb(122, 97, 104)" fill-opacity="0.62"/><path d="M140,35L123,-1L123,32Z" fill="rgb(26, 29, 35)" fill-opacity="0.67"/><path d="M100,93L119,88L98,85Z" fill="rgb(13, 16, 36)" fill-opacity="0.52"/><path d="M41,10L-23,-53L99,8Z" fill="rgb(34, 53, 119)" fill-opacity="0.63"/><path d="M170,60L129,75L176,86Z" fill="rgb(38, 36, 34)" fill-opacity="0.65"/><path d="M144,94L161,81L139,80Z" fill="rgb(113, 92, 87)" fill-opacity="0.53"/><path d="M28,99L45,95L37,69Z" fill="rgb(142, 77, 95)" fill-opacity="0.51"/><path d="M166,123L158,140L151,112Z" fill="rgb(141, 141, 109)" fill-opacity="0.43"/><path d="M247,13L220,15L262,17Z" fill="rgb(11, 31, 24)" fill-opacity="0.32"/><path d="M80,33L135,53L96,55Z" fill="rgb(40, 29, 23)" fill-opacity="0.44"/><path d="M131,32L97,34L98,19Z" fill="rgb(64, 90, 32)" fill-opacity="0.58"/><path d="M193,91L239,70L263,101Z" fill="rgb(46, 49, 56)" fill-opacity="0.49"/><path d="M88,30L61,10L54,16Z" fill="rgb(89, 51, 36)" fill-opacity="0.56"/><path d="M45,22L95,23L79,16Z" fill="rgb(35, 34, 24)" fill-opacity="0.51"/><path d="M106,78L110,51L115,65Z" fill="rgb(17, 8, 12)" fill-opacity="0.50"/><path d="M97,35L95,9L95,31Z" fill="rgb(175, 201, 237)" fill-opacity="0.50"/><path d="M217,159L251,133L246,158Z" fill="rgb(47, 58, 95)" fill-opacity="0.65"/><path d="M179,128L159,106L194,107Z" fill="rgb(110, 77, 71)" fill-opacity="0.64"/><path d="M126,186L89,142L113,112Z" fill="rgb(57, 46, 43)" fill-opacity="0.60"/><path d="M62,164L79,119L96,129Z" fill="rgb(22, 16, 17)" fill-opacity="0.67"/><path d="M220,107L220,118L228,113Z" fill="rgb(126, 94, 108)" fill-opacity="0.50"/><path d="M251,151L242,139L257,135Z" fill="rgb(100, 94, 106)" fill-opacity="0.45"/><path d="M182,106L189,92L179,82Z" fill="rgb(120, 142, 197)" fill-opacity="0.45"/><path d="M9,104L48,102L-9,221Z" fill="rgb(6, 1, 8)" fill-opacity="0.59"/><path d="M238,94L296,150L234,122Z" fill="rgb(12, 3, 2)" fill-opacity="0.45"/><path d="M114,63L132,57L115,74Z" fill="rgb(165, 109, 79)" fill-opacity="0.55"/><path d="M159,114L109,124L140,142Z" fill="rgb(124, 103, 134)" fill-opacity="0.43"/><path d="M61,111L65,111L70,116Z" fill="rgb(172, 147, 170)" fill-opacity="0.50"/><path d="M64,51L94,62L48,68Z" fill="rgb(212, 107, 54)" fill-opacity="0.18"/><path d="M59,14L46,12L53,9Z" fill="rgb(173, 159, 179)" fill-opacity="0.52"/><path d="M255,95L257,98L218,80Z" fill="rgb(81, 90, 115)" fill-opacity="0.46"/><path d="M88,70L75,87L73,69Z" fill="rgb(173, 160, 188)" fill-opacity="0.42"/><path d="M95,78L106,66L97,88Z" fill="rgb(66, 93, 154)" fill-opacity="0.52"/><path d="M130,139L145,140L142,172Z" fill="rgb(70, 51, 27)" fill-opacity="0.49"/><path d="M218,145L180,139L180,130Z" fill="rgb(124, 105, 125)" fill-opacity="0.63"/><path d="M169,118L176,137L160,142Z" fill="rgb(0, 19, 0)" fill-opacity="0.40"/><path d="M229,145L212,134L216,145Z" fill="rgb(1, 0, 14)" fill-opacity="0.57"/><path d="M109,2L116,50L106,33Z" fill="rgb(114, 118, 90)" fill-opacity="0.52"/><path d="M192,93L193,73L216,79Z" fill="rgb(13, 9, 8)" fill-opacity="0.52"/><path d="M-57,32L4,30L5,40Z" fill="rgb(127, 201, 255)" fill-opacity="0.32"/><path d="M17,96L15,34L3,120Z" fill="rgb(75, 85, 77)" fill-opacity="0.40"/><path d="M29,65L43,81L23,72Z" fill="rgb(96, 91, 91)" fill-opacity="0.54"/><path d="M96,87L118,102L108,117Z" fill="rgb(142, 100, 106)" fill-opacity="0.50"/><path d="M187,16L199,5L193,5Z" fill="rgb(89, 88, 67)" fill-opacity="0.52"/><path d="M135,2L83,7L130,7Z" fill="rgb(48, 63, 64)" fill-opacity="0.48"/><path d="M205,172L184,134L165,155Z" fill="rgb(105, 71, 75)" fill-opacity="0.55"/><path d="M212,81L293,126L221,97Z" fill="rgb(15, 20, 15)" fill-opacity="0.36"/><path d="M153,99L154,91L175,110Z" fill="rgb(167, 110, 106)" fill-opacity="0.38"/><path d="M104,74L91,58L89,76Z" fill="rgb(23, 40, 82)" fill-opacity="0.55"/><path d="M88,40L83,22L72,35Z" fill="rgb(155, 106, 92)" fill-opacity="0.53"/><path d="M16,-3L32,-22L1,49Z" fill="rgb(46, 30, 30)" fill-opacity="0.61"/><path d="M60,115L82,142L92,134Z" fill="rgb(33, 21, 21)" fill-opacity="0.60"/><path d="M204,126L189,111L194,130Z" fill="rgb(94, 108, 170)" fill-opacity="0.48"/><path d="M23,19L53,16L30,-3Z" fill="rgb(92, 20, 0)" fill-opacity="0.26"/><path d="M53,114L48,122L35,108Z" fill="rgb(68, 72, 80)" fill-opacity="0.54"/><path d="M36,53L20,44L17,64Z" fill="rgb(1, 0, 4)" fill-opacity="0.52"/><path d="M52,121L59,140L74,131Z" fill="rgb(128, 104, 124)" fill-opacity="0.41"/><path d="M173,103L182,98L179,110Z" fill="rgb(0, 0, 11)" fill-opacity="0.52"/><path d="M163,162L149,140L170,138Z" fill="rgb(48, 102, 32)" fill-opacity="0.51"/><path d="M87,35L86,53L73,37Z" fill="rgb(95, 42, 38)" fill-opacity="0.53"/><path d="M47,39L64,56L43,53Z" fill="rgb(40, 57, 102)" fill-opacity="0.51"/><path d="M105,105L118,106L90,144Z" fill="rgb(105, 67, 66)" fill-opacity="0.60"/><path d="M182,66L147,60L156,36Z" fill="rgb(90, 95, 74)" fill-opacity="0.44"/><path d="M203,79L176,53L194,55Z" fill="rgb(16, 20, 20)" fill-opacity="0.58"/><path d="M166,93L173,99L179,68Z" fill="rgb(2, 1, 15)" fill-opacity="0.46"/><path d="M63,38L56,29L55,45Z" fill="rgb(0, 1, 13)" fill-opacity="0.54"/><path d="M3,37L-29,34L15,33Z" fill="rgb(27, 17, 19)" fill-opacity="0.52"/><path d="M53,67L58,95L81,98Z" fill="rgb(90, 80, 28)" fill-opacity="0.38"/><path d="M34,80L42,76L46,97Z" fill="rgb(114, 90, 98)" fill-opacity="0.56"/><path d="M233,13L158,-1L224,-14Z" fill="rgb(172, 209, 249)" fill-opacity="0.44"/><path d="M141,91L139,107L147,93Z" fill="rgb(122, 188, 99)" fill-opacity="0.43"/><path d="M141,110L148,85L155,104Z" fill="rgb(73, 35, 20)" fill-opacity="0.49"/><path d="M85,8L97,12L82,20Z" fill="rgb(136, 128, 110)" fill-opacity="0.55"/><path d="M154,111L187,90L160,103Z" fill="rgb(136, 105, 105)" fill-opacity="0.46"/><path d="M0,118L56,121L21,152Z" fill="rgb(9, 1, 8)" fill-opacity="0.53"/><path d="M118,25L111,50L157,56Z" fill="rgb(35, 82, 21)" fill-opacity="0.45"/><path d="M109,55L102,54L104,68Z" fill="rgb(166, 101, 60)" fill-opacity="0.49"/><path d="M22,95L34,90L33,106Z" fill="rgb(120, 71, 84)" fill-opacity="0.58"/><path d="M100,2L124,20L115,31Z" fill="rgb(140, 124, 101)" fill-opacity="0.62"/><path d="M139,74L106,96L139,93Z" fill="rgb(77, 71, 68)" fill-opacity="0.59"/><path d="M135,73L114,55L132,52Z" fill="rgb(164, 112, 88)" fill-opacity="0.49"/><path d="M168,111L149,110L171,126Z" fill="rgb(22, 17, 9)" fill-opacity="0.46"/><path d="M225,152L214,156L222,140Z" fill="rgb(37, 25, 50)" fill-opacity="0.54"/><path d="M3,30L-27,-3L12,31Z" fill="rgb(7, 6, 14)" fill-opacity="0.54"/><path d="M150,66L134,62L134,78Z" fill="rgb(34, 29, 31)" fill-opacity="0.74"/><path d="M29,150L-20,177L94,170Z" fill="rgb(43, 43, 43)" fill-opacity="0.56"/><path d="M209,141L208,113L198,137Z" fill="rgb(10, 10, 21)" fill-opacity="0.64"/><path d="M236,187L234,156L290,130Z" fill="rgb(0, 16, 39)" fill-opacity="0.32"/><path d="M214,186L206,140L194,158Z" fill="rgb(41, 55, 108)" fill-opacity="0.53"/><path d="M236,12L250,-10L269,15Z" fill="rgb(147, 179, 226)" fill-opacity="0.75"/><path d="M13,81L32,74L24,94Z" fill="rgb(38, 14, 15)" fill-opacity="0.56"/><path d="M76,72L73,58L98,53Z" fill="rgb(121, 83, 71)" fill-opacity="0.54"/><path d="M86,84L110,96L92,94Z" fill="rgb(52, 46, 41)" fill-opacity="0.50"/><path d="M201,111L203,127L189,110Z" fill="rgb(128, 133, 188)" fill-opacity="0.45"/><path d="M72,113L81,129L61,113Z" fill="rgb(103, 78, 93)" fill-opacity="0.50"/><path d="M188,156L201,154L165,147Z" fill="rgb(119, 114, 129)" fill-opacity="0.47"/><path d="M69,98L101,104L90,93Z" fill="rgb(49, 70, 117)" fill-opacity="0.55"/><path d="M244,85L238,95L219,83Z" fill="rgb(70, 84, 96)" fill-opacity="0.56"/><path d="M167,147L201,153L173,139Z" fill="rgb(64, 4, 11)" fill-opacity="0.37"/><path d="M91,97L106,105L123,89Z" fill="rgb(128, 134, 163)" fill-opacity="0.28"/><path d="M87,87L69,107L86,115Z" fill="rgb(105, 108, 139)" fill-opacity="0.51"/><path d="M236,132L234,145L223,141Z" fill="rgb(42, 70, 30)" fill-opacity="0.53"/><path d="M71,103L60,107L81,122Z" fill="rgb(30, 44, 6)" fill-opacity="0.34"/><path d="M134,10L145,38L169,2Z" fill="rgb(27, 30, 23)" fill-opacity="0.45"/><path d="M74,35L75,41L55,41Z" fill="rgb(30, 1, 8)" fill-opacity="0.53"/><path d="M241,125L253,133L237,130Z" fill="rgb(63, 113, 53)" fill-opacity="0.51"/><path d="M97,38L91,49L85,35Z" fill="rgb(24, 19, 19)" fill-opacity="0.47"/><path d="M185,28L175,54L155,44Z" fill="rgb(147, 120, 107)" fill-opacity="0.54"/><path d="M10,38L11,49L17,42Z" fill="rgb(104, 77, 76)" fill-opacity="0.49"/><path d="M93,18L65,8L96,32Z" fill="rgb(42, 65, 32)" fill-opacity="0.43"/><path d="M116,122L119,136L80,149Z" fill="rgb(39, 27, 24)" fill-opacity="0.42"/><path d="M21,9L26,15L18,27Z" fill="rgb(125, 141, 131)" fill-opacity="0.43"/><path d="M29,23L8,32L28,40Z" fill="rgb(53, 51, 42)" fill-opacity="0.54"/><path d="M128,144L118,156L139,174Z" fill="rgb(131, 126, 135)" fill-opacity="0.56"/><path d="M97,2L95,14L114,16Z" fill="rgb(172, 139, 119)" fill-opacity="0.48"/><path d="M177,107L195,125L182,122Z" fill="rgb(140, 114, 125)" fill-opacity="0.44"/><path d="M202,134L149,129L231,126Z" fill="rgb(27, 20, 21)" fill-opacity="0.41"/><path d="M100,40L96,16L108,14Z" fill="rgb(54, 86, 21)" fill-opacity="0.50"/><path d="M181,61L195,66L176,75Z" fill="rgb(92, 59, 55)" fill-opacity="0.42"/><path d="M147,175L93,152L145,272Z" fill="rgb(50, 45, 44)" fill-opacity="1.00"/><path d="M48,102L49,112L70,96Z" fill="rgb(131, 100, 103)" fill-opacity="0.40"/><path d="M225,145L200,131L188,133Z" fill="rgb(10, 8, 16)" fill-opacity="0.58"/><path d="M79,-24L84,7L43,6Z" fill="rgb(48, 71, 132)" fill-opacity="0.47"/><path d="M252,45L158,16L164,39Z" fill="rgb(174, 140, 121)" fill-opacity="0.43"/><path d="M43,63L32,78L55,71Z" fill="rgb(52, 66, 85)" fill-opacity="0.52"/><path d="M142,150L155,147L157,165Z" fill="rgb(123, 118, 130)" fill-opacity="0.51"/><path d="M133,152L132,134L127,155Z" fill="rgb(128, 132, 123)" fill-opacity="0.43"/><path d="M55,91L39,72L54,69Z" fill="rgb(12, 35, 48)" fill-opacity="0.55"/><path d="M158,109L157,131L151,105Z" fill="rgb(119, 123, 114)" fill-opacity="0.40"/><path d="M120,134L118,116L134,139Z" fill="rgb(130, 123, 133)" fill-opacity="0.42"/><path d="M66,30L65,9L57,13Z" fill="rgb(117, 42, 23)" fill-opacity="0.40"/><path d="M63,96L63,87L58,96Z" fill="rgb(18, 5, 0)" fill-opacity="0.51"/><path d="M100,73L114,85L86,81Z" fill="rgb(71, 91, 147)" fill-opacity="0.50"/><path d="M136,10L137,23L131,24Z" fill="rgb(60, 62, 100)" fill-opacity="0.55"/><path d="M193,103L174,110L195,118Z" fill="rgb(114, 91, 101)" fill-opacity="0.54"/><path d="M61,36L69,36L72,25Z" fill="rgb(121, 107, 103)" fill-opacity="0.54"/><path d="M182,158L207,177L140,170Z" fill="rgb(66, 32, 17)" fill-opacity="0.36"/></svg>