<svg xmlns="http://www.w3.org/2000/svg" viewBox="0 0 256 169.55844155844156" clip-path="url(#clip)" width="512" height="339.1168831168831"><defs><clipPath id="clip" clipPathUnits="objectBoundingBox"><rect x="0" y="0" width="256" height="169.55844155844156"/></clipPath></defs><rect x="0" y="0" width="256" height="169.55844155844156" fill="rgb(65, 75, 74)"/><path d="M129,-48L158,81L304,14Z" fill="rgb(139, 160, 208)" fill-opacity="0.70"/><path d="M232,127L217,45L311,58Z" fill="rgb(193, 168, 192)" fill-opacity="0.69"/><path d="M-2,97L52,115L52,101Z" fill="rgb(201, 208, 255)" fill-opacity="0.48"/><path d="M389,296L-162,-67L187,65Z" fill="rgb(31, 20, 0)" fill-opacity="0.47"/><path d="M50,71L-25,80L54,90Z" fill="rgb(136, 153, 206)" fill-opacity="0.49"/><path d="M144,77L249,-14L123,17Z" fill="rgb(163, 206, 255)" fill-opacity="0.28"/><path d="M131,46L40,-141L-72,86Z" fill="rgb(37, 50, 19)" fill-opacity="0.83"/><path d="M89,78L95,117L125,67Z" fill="rgb(150, 143, 163)" fill-opacity="0.36"/><path d="M266,53L231,43L243,-3Z" fill="rgb(41, 42, 61)" fill-opacity="0.53"/><path d="M165,13L247,51L186,82Z" fill="rgb(194, 169, 199)" fill-opacity="0.35"/><path d="M220,181L71,103L-117,162Z" fill="rgb(58, 46, 34)" fill-opacity="0.53"/><path d="M230,125L235,123L226,93Z" fill="rgb(164, 171, 219)" fill-opacity="0.49"/><path d="M84,92L57,111L53,64Z" fill="rgb(42, 39, 35)" fill-opacity="0.86"/><path d="M8,78L12,103L-40,112Z" fill="rgb(131, 148, 191)" fill-opacity="0.56"/><path d="M137,58L229,132L222,61Z" fill="rgb(85, 22, 37)" fill-opacity="0.36"/><path d="M4,101L65,131L1,140Z" fill="rgb(25, 37, 23)" fill-opacity="0.64"/><path d="M60,73L71,56L74,82Z" fill="rgb(125, 136, 207)" fill-opacity="0.44"/><path d="M168,22L144,-11L119,-8Z" fill="rgb(35, 55, 12)" fill-opacity="0.47"/><path d="M138,19L145,38L113,17Z" fill="rgb(125, 164, 208)" fill-opacity="0.48"/><path d="M128,72L156,35L158,82Z" fill="rgb(102, 98, 95)" fill-opacity="0.67"/><path d="M139,12L133,37L156,39Z" fill="rgb(113, 136, 157)" fill-opacity="0.58"/><path d="M32,98L11,96L32,85Z" fill="rgb(3, 0, 7)" fill-opacity="0.48"/><path d="M279,85L269,209L219,151Z" fill="rgb(8, 15, 5)" fill-opacity="0.67"/><path d="M131,100L110,81L135,78Z" fill="rgb(138, 131, 133)" fill-opacity="0.52"/><path d="M78,109L100,112L101,77Z" fill="rgb(129, 121, 143)" fill-opacity="0.47"/><path d="M136,-8L149,-2L139,21Z" fill="rgb(43, 58, 13)" fill-opacity="0.48"/><path d="M218,37L269,60L211,11Z" fill="rgb(42, 37, 51)" fill-opacity="0.48"/><path d="M166,3L150,2L151,-33Z" fill="rgb(36, 54, 25)" fill-opacity="0.45"/><path d="M99,127L139,125L129,108Z" fill="rgb(119, 103, 124)" fill-opacity="0.43"/><path d="M28,124L-9,109L21,104Z" fill="rgb(0, 0, 3)" fill-opacity="0.41"/><path d="M183,56L181,68L200,61Z" fill="rgb(96, 63, 43)" fill-opacity="0.45"/><path d="M7,96L37,92L16,85Z" fill="rgb(11, 0, 14)" fill-opacity="0.43"/><path d="M81,123L67,125L74,118Z" fill="rgb(127, 255, 80)" fill-opacity="0.50"/><path d="M119,84L53,20L153,42Z" fill="rgb(49, 66, 22)" fill-opacity="0.57"/><path d="M46,124L21,127L37,112Z" fill="rgb(43, 142, 23)" fill-opacity="0.50"/><path d="M49,101L39,113L-18,92Z" fill="rgb(145, 152, 185)" fill-opacity="0.47"/><path d="M217,15L161,32L171,-61Z" fill="rgb(115, 167, 240)" fill-opacity="0.53"/><path d="M241,35L248,-4L315,-7Z" fill="rgb(98, 136, 191)" fill-opacity="0.52"/><path d="M35,80L0,88L11,68Z" fill="rgb(111, 126, 156)" fill-opacity="0.65"/><path d="M49,50L20,66L35,79Z" fill="rgb(30, 45, 13)" fill-opacity="0.62"/><path d="M138,76L160,88L132,108Z" fill="rgb(7, 0, 0)" fill-opacity="0.41"/><path d="M169,75L202,81L222,50Z" fill="rgb(124, 113, 126)" fill-opacity="0.53"/><path d="M175,141L171,79L188,77Z" fill="rgb(27, 10, 13)" fill-opacity="0.67"/><path d="M215,39L224,1L214,2Z" fill="rgb(57, 79, 123)" fill-opacity="0.40"/><path d="M65,114L64,108L74,107Z" fill="rgb(152, 142, 166)" fill-opacity="0.52"/><path d="M29,119L25,124L36,127Z" fill="rgb(109, 253, 48)" fill-opacity="0.50"/><path d="M218,133L144,162L100,131Z" fill="rgb(71, 62, 71)" fill-opacity="0.73"/><path d="M149,50L234,42L153,61Z" fill="rgb(163, 168, 192)" fill-opacity="0.57"/><path d="M249,46L288,62L240,29Z" fill="rgb(43, 21, 16)" fill-opacity="0.45"/><path d="M146,82L175,56L176,75Z" fill="rgb(114, 120, 120)" fill-opacity="0.48"/><path d="M147,98L190,128L105,108Z" fill="rgb(42, 20, 9)" fill-opacity="0.58"/><path d="M17,125L5,129L3,116Z" fill="rgb(61, 74, 105)" fill-opacity="0.52"/><path d="M105,13L107,-19L153,7Z" fill="rgb(40, 55, 23)" fill-opacity="0.68"/><path d="M138,97L117,138L136,138Z" fill="rgb(160, 76, 56)" fill-opacity="0.29"/><path d="M200,103L211,92L204,123Z" fill="rgb(6, 0, 2)" fill-opacity="0.57"/><path d="M125,66L69,46L78,75Z" fill="rgb(20, 35, 8)" fill-opacity="0.65"/><path d="M284,66L243,48L227,56Z" fill="rgb(169, 171, 203)" fill-opacity="0.64"/><path d="M244,84L267,128L243,114Z" fill="rgb(100, 96, 106)" fill-opacity="0.45"/><path d="M146,50L146,19L154,49Z" fill="rgb(82, 91, 62)" fill-opacity="0.43"/><path d="M92,118L96,132L106,122Z" fill="rgb(117, 106, 104)" fill-opacity="0.48"/><path d="M113,116L135,99L100,91Z" fill="rgb(2, 68, 17)" fill-opacity="0.37"/><path d="M171,176L183,141L236,168Z" fill="rgb(31, 43, 27)" fill-opacity="0.71"/><path d="M37,112L29,117L42,133Z" fill="rgb(4, 15, 10)" fill-opacity="0.49"/><path d="M93,33L54,18L68,4Z" fill="rgb(72, 92, 53)" fill-opacity="0.48"/><path d="M63,60L77,57L71,82Z" fill="rgb(104, 118, 171)" fill-opacity="0.37"/><path d="M151,16L142,35L142,12Z" fill="rgb(124, 170, 238)" fill-opacity="0.47"/><path d="M157,2L208,41L214,21Z" fill="rgb(123, 163, 221)" fill-opacity="0.67"/><path d="M157,70L127,52L194,70Z" fill="rgb(24, 33, 39)" fill-opacity="0.32"/><path d="M144,112L134,75L155,80Z" fill="rgb(20, 0, 10)" fill-opacity="0.50"/><path d="M220,73L204,67L215,61Z" fill="rgb(214, 31, 36)" fill-opacity="0.48"/><path d="M144,134L136,118L209,94Z" fill="rgb(38, 6, 8)" fill-opacity="0.46"/><path d="M2,133L-13,77L2,120Z" fill="rgb(199, 255, 156)" fill-opacity="0.46"/><path d="M18,115L31,129L12,133Z" fill="rgb(10, 10, 10)" fill-opacity="0.65"/><path d="M211,32L229,27L217,35Z" fill="rgb(35, 33, 44)" fill-opacity="0.44"/><path d="M245,62L231,59L242,120Z" fill="rgb(192, 127, 138)" fill-opacity="0.63"/><path d="M96,122L109,86L109,119Z" fill="rgb(10, 24, 16)" fill-opacity="0.51"/><path d="M127,81L150,71L141,64Z" fill="rgb(126, 124, 125)" fill-opacity="0.42"/><path d="M57,67L45,35L80,53Z" fill="rgb(0, 0, 0)" fill-opacity="0.36"/><path d="M199,81L208,93L211,85Z" fill="rgb(19, 0, 0)" fill-opacity="0.55"/><path d="M50,69L49,66L56,69Z" fill="rgb(96, 122, 172)" fill-opacity="0.50"/><path d="M223,13L231,-42L241,25Z" fill="rgb(103, 165, 246)" fill-opacity="0.41"/><path d="M52,106L53,84L40,78Z" fill="rgb(101, 111, 138)" fill-opacity="0.73"/><path d="M210,71L224,66L201,88Z" fill="rgb(60, 4, 6)" fill-opacity="0.51"/><path d="M88,73L95,98L97,75Z" fill="rgb(136, 134, 171)" fill-opacity="0.38"/><path d="M96,46L78,50L87,20Z" fill="rgb(86, 96, 52)" fill-opacity="0.37"/><path d="M150,71L175,115L148,104Z" fill="rgb(95, 53, 56)" fill-opacity="0.41"/><path d="M161,122L166,125L164,127Z" fill="rgb(191, 188, 228)" fill-opacity="0.56"/><path d="M127,56L170,68L133,62Z" fill="rgb(36, 36, 27)" fill-opacity="0.52"/><path d="M40,-33L20,48L54,22Z" fill="rgb(137, 138, 78)" fill-opacity="0.11"/><path d="M194,68L204,68L207,78Z" fill="rgb(33, 63, 70)" fill-opacity="0.47"/><path d="M84,133L86,118L69,104Z" fill="rgb(23, 35, 17)" fill-opacity="0.49"/><path d="M228,107L221,85L215,129Z" fill="rgb(43, 1, 4)" fill-opacity="0.42"/><path d="M129,21L119,11L122,25Z" fill="rgb(115, 157, 194)" fill-opacity="0.43"/><path d="M51,144L80,132L50,104Z" fill="rgb(45, 42, 40)" fill-opacity="0.41"/><path d="M207,93L220,80L213,134Z" fill="rgb(98, 69, 84)" fill-opacity="0.42"/><path d="M135,35L128,22L126,41Z" fill="rgb(73, 99, 54)" fill-opacity="0.55"/><path d="M40,67L30,87L56,78Z" fill="rgb(98, 118, 158)" fill-opacity="0.47"/><path d="M163,24L170,61L246,48Z" fill="rgb(161, 165, 192)" fill-opacity="0.56"/><path d="M-14,60L21,47L-20,5Z" fill="rgb(17, 20, 7)" fill-opacity="0.57"/><path d="M146,117L145,111L135,110Z" fill="rgb(110, 83, 88)" fill-opacity="0.54"/><path d="M220,50L238,70L231,129Z" fill="rgb(155, 156, 180)" fill-opacity="0.62"/><path d="M115,63L99,84L96,49Z" fill="rgb(43, 60, 20)" fill-opacity="0.46"/><path d="M0,106L-1,115L8,114Z" fill="rgb(1, 0, 0)" fill-opacity="0.57"/><path d="M130,71L166,83L166,70Z" fill="rgb(125, 107, 111)" fill-opacity="0.61"/><path d="M59,16L54,91L64,77Z" fill="rgb(18, 18, 7)" fill-opacity="0.48"/><path d="M188,127L186,113L159,131Z" fill="rgb(22, 11, 26)" fill-opacity="0.60"/><path d="M133,80L122,74L113,107Z" fill="rgb(92, 95, 87)" fill-opacity="0.47"/><path d="M2,121L-9,143L-2,109Z" fill="rgb(224, 255, 197)" fill-opacity="0.59"/><path d="M138,76L149,76L150,114Z" fill="rgb(11, 4, 9)" fill-opacity="0.56"/><path d="M71,121L79,121L75,123Z" fill="rgb(201, 255, 146)" fill-opacity="0.50"/><path d="M40,114L42,131L44,121Z" fill="rgb(85, 178, 86)" fill-opacity="0.46"/><path d="M99,204L45,148L130,132Z" fill="rgb(78, 64, 61)" fill-opacity="0.63"/><path d="M-14,146L14,114L16,122Z" fill="rgb(66, 78, 98)" fill-opacity="0.52"/><path d="M244,15L230,43L227,26Z" fill="rgb(76, 102, 135)" fill-opacity="0.77"/><path d="M49,96L49,100L16,94Z" fill="rgb(20, 11, 27)" fill-opacity="0.55"/><path d="M152,22L147,44L131,50Z" fill="rgb(99, 108, 101)" fill-opacity="0.50"/><path d="M228,38L216,38L219,23Z" fill="rgb(58, 51, 67)" fill-opacity="0.50"/><path d="M158,13L150,36L171,30Z" fill="rgb(130, 166, 219)" fill-opacity="0.59"/><path d="M170,21L149,9L142,14Z" fill="rgb(114, 155, 206)" fill-opacity="0.51"/><path d="M62,94L92,96L86,60Z" fill="rgb(23, 38, 31)" fill-opacity="0.51"/><path d="M96,116L97,131L94,139Z" fill="rgb(168, 163, 196)" fill-opacity="0.36"/><path d="M254,31L240,44L248,27Z" fill="rgb(98, 133, 175)" fill-opacity="0.37"/><path d="M238,2L244,-4L248,7Z" fill="rgb(76, 111, 153)" fill-opacity="0.61"/><path d="M224,93L213,70L222,68Z" fill="rgb(60, 0, 0)" fill-opacity="0.48"/><path d="M189,64L175,76L199,64Z" fill="rgb(132, 129, 173)" fill-opacity="0.50"/><path d="M211,66L179,62L211,60Z" fill="rgb(120, 54, 41)" fill-opacity="0.46"/><path d="M171,62L190,68L160,65Z" fill="rgb(97, 103, 134)" fill-opacity="0.57"/><path d="M18,101L-49,119L5,94Z" fill="rgb(135, 145, 175)" fill-opacity="0.65"/><path d="M106,90L103,80L124,81Z" fill="rgb(118, 110, 110)" fill-opacity="0.60"/><path d="M144,48L144,55L108,64Z" fill="rgb(56, 68, 28)" fill-opacity="0.66"/><path d="M113,61L126,70L108,81Z" fill="rgb(36, 42, 21)" fill-opacity="0.55"/><path d="M89,112L85,121L86,82Z" fill="rgb(113, 123, 144)" fill-opacity="0.38"/><path d="M217,71L219,64L209,71Z" fill="rgb(250, 57, 73)" fill-opacity="0.45"/><path d="M23,32L4,42L6,3Z" fill="rgb(16, 24, 16)" fill-opacity="0.51"/><path d="M122,125L90,138L119,138Z" fill="rgb(75, 26, 2)" fill-opacity="0.37"/><path d="M143,36L173,52L129,23Z" fill="rgb(135, 153, 183)" fill-opacity="0.59"/><path d="M114,57L118,25L86,19Z" fill="rgb(24, 40, 13)" fill-opacity="0.59"/><path d="M168,81L176,98L150,81Z" fill="rgb(75, 36, 35)" fill-opacity="0.60"/><path d="M8,78L5,59L-36,94Z" fill="rgb(58, 64, 40)" fill-opacity="0.55"/><path d="M61,122L78,119L65,109Z" fill="rgb(85, 80, 87)" fill-opacity="0.59"/><path d="M217,123L165,136L228,145Z" fill="rgb(52, 61, 67)" fill-opacity="0.58"/><path d="M95,160L132,166L141,127Z" fill="rgb(62, 61, 83)" fill-opacity="0.35"/><path d="M238,122L282,106L216,156Z" fill="rgb(30, 43, 21)" fill-opacity="0.74"/><path d="M240,-8L221,25L238,22Z" fill="rgb(104, 146, 203)" fill-opacity="0.49"/><path d="M180,105L202,87L186,93Z" fill="rgb(91, 79, 81)" fill-opacity="0.55"/><path d="M71,76L75,57L61,87Z" fill="rgb(102, 104, 130)" fill-opacity="0.42"/><path d="M257,63L232,60L233,68Z" fill="rgb(166, 120, 96)" fill-opacity="0.45"/><path d="M228,80L233,53L209,41Z" fill="rgb(139, 148, 172)" fill-opacity="0.40"/><path d="M136,105L132,87L146,87Z" fill="rgb(12, 9, 15)" fill-opacity="0.67"/><path d="M87,-8L50,19L66,16Z" fill="rgb(61, 80, 66)" fill-opacity="0.50"/><path d="M233,98L229,128L249,116Z" fill="rgb(158, 139, 141)" fill-opacity="0.43"/><path d="M154,56L147,43L145,61Z" fill="rgb(132, 136, 141)" fill-opacity="0.41"/><path d="M138,126L123,141L119,126Z" fill="rgb(131, 69, 40)" fill-opacity="0.42"/><path d="M22,107L49,108L28,111Z" fill="rgb(135, 142, 167)" fill-opacity="0.70"/><path d="M192,70L186,78L206,80Z" fill="rgb(111, 117, 124)" fill-opacity="0.46"/><path d="M21,83L29,69L37,87Z" fill="rgb(111, 125, 156)" fill-opacity="0.53"/><path d="M84,21L87,-12L74,18Z" fill="rgb(6, 17, 0)" fill-opacity="0.34"/><path d="M126,112L132,97L146,112Z" fill="rgb(102, 53, 29)" fill-opacity="0.52"/><path d="M3,123L19,122L10,114Z" fill="rgb(63, 72, 96)" fill-opacity="0.50"/><path d="M60,79L42,68L61,71Z" fill="rgb(24, 20, 21)" fill-opacity="0.57"/><path d="M-11,133L6,127L-14,119Z" fill="rgb(14, 110, 0)" fill-opacity="0.51"/><path d="M105,124L101,146L97,127Z" fill="rgb(58, 35, 26)" fill-opacity="0.63"/><path d="M155,62L152,76L141,67Z" fill="rgb(80, 69, 102)" fill-opacity="0.54"/><path d="M12,64L17,59L15,75Z" fill="rgb(45, 58, 7)" fill-opacity="0.56"/><path d="M136,15L136,-1L132,19Z" fill="rgb(84, 107, 125)" fill-opacity="0.50"/><path d="M131,113L134,126L109,115Z" fill="rgb(78, 97, 124)" fill-opacity="0.46"/><path d="M246,11L247,29L239,28Z" fill="rgb(111, 138, 182)" fill-opacity="0.50"/><path d="M56,120L19,107L30,116Z" fill="rgb(36, 40, 63)" fill-opacity="0.63"/><path d="M130,158L178,159L210,114Z" fill="rgb(59, 58, 71)" fill-opacity="0.44"/><path d="M25,130L62,126L35,124Z" fill="rgb(16, 42, 0)" fill-opacity="0.55"/><path d="M25,108L28,133L11,101Z" fill="rgb(18, 16, 27)" fill-opacity="0.48"/><path d="M145,12L144,4L157,0Z" fill="rgb(75, 78, 40)" fill-opacity="0.50"/><path d="M51,25L71,19L77,65Z" fill="rgb(29, 44, 13)" fill-opacity="0.65"/><path d="M165,60L167,64L190,61Z" fill="rgb(95, 70, 60)" fill-opacity="0.54"/><path d="M151,51L140,61L162,51Z" fill="rgb(144, 151, 169)" fill-opacity="0.52"/><path d="M252,25L255,6L250,10Z" fill="rgb(71, 98, 134)" fill-opacity="0.54"/><path d="M168,34L154,50L155,32Z" fill="rgb(139, 138, 149)" fill-opacity="0.58"/><path d="M165,121L168,132L160,123Z" fill="rgb(133, 131, 141)" fill-opacity="0.36"/><path d="M37,95L34,86L47,94Z" fill="rgb(90, 100, 152)" fill-opacity="0.39"/><path d="M83,58L88,48L67,60Z" fill="rgb(14, 12, 5)" fill-opacity="0.46"/><path d="M229,74L237,63L250,71Z" fill="rgb(195, 162, 157)" fill-opacity="0.47"/><path d="M203,107L231,120L193,123Z" fill="rgb(35, 1, 25)" fill-opacity="0.38"/><path d="M156,62L166,62L155,67Z" fill="rgb(19, 9, 4)" fill-opacity="0.47"/><path d="M224,39L217,60L173,27Z" fill="rgb(162, 163, 194)" fill-opacity="0.50"/><path d="M247,-25L260,-2L247,14Z" fill="rgb(110, 154, 217)" fill-opacity="0.60"/><path d="M32,121L27,122L27,128Z" fill="rgb(142, 255, 77)" fill-opacity="0.48"/><path d="M43,118L39,122L50,121Z" fill="rgb(113, 197, 97)" fill-opacity="0.56"/><path d="M109,150L104,121L110,118Z" fill="rgb(118, 85, 70)" fill-opacity="0.42"/><path d="M253,52L238,25L231,42Z" fill="rgb(51, 26, 22)" fill-opacity="0.35"/><path d="M24,48L35,61L22,77Z" fill="rgb(29, 45, 11)" fill-opacity="0.54"/><path d="M130,113L119,99L99,114Z" fill="rgb(22, 69, 11)" fill-opacity="0.54"/><path d="M177,38L154,43L173,55Z" fill="rgb(153, 162, 192)" fill-opacity="0.69"/><path d="M239,42L237,24L247,42Z" fill="rgb(77, 81, 103)" fill-opacity="0.55"/><path d="M193,118L187,125L191,100Z" fill="rgb(33, 15, 32)" fill-opacity="0.56"/><path d="M248,107L253,109L252,91Z" fill="rgb(153, 149, 152)" fill-opacity="0.56"/><path d="M6,85L4,94L-105,75Z" fill="rgb(19, 71, 80)" fill-opacity="0.29"/><path d="M213,68L191,64L188,69Z" fill="rgb(83, 139, 206)" fill-opacity="0.40"/><path d="M117,15L121,25L111,14Z" fill="rgb(66, 104, 118)" fill-opacity="0.49"/><path d="M229,31L246,29L254,24Z" fill="rgb(102, 140, 187)" fill-opacity="0.41"/><path d="M54,61L53,85L49,53Z" fill="rgb(71, 83, 115)" fill-opacity="0.44"/></svg>