<svg xmlns="http://www.w3.org/2000/svg" viewBox="0 0 256 169.55844155844156" clip-path="url(#clip)" width="512" height="339.1168831168831"><defs><clipPath id="clip" clipPathUnits="objectBoundingBox"><rect x="0" y="0" width="256" height="169.55844155844156"/></clipPath></defs><rect x="0" y="0" width="256" height="169.55844155844156" fill="rgb(83, 90, 101)"/><path d="M-57,109L105,504L336,28Z" fill="rgb(35, 26, 14)" fill-opacity="0.81"/><path d="M-39,59L152,-211L162,15Z" fill="rgb(159, 193, 224)" fill-opacity="0.78"/><path d="M38,37L155,27L-17,165Z" fill="rgb(48, 23, 14)" fill-opacity="0.75"/><path d="M171,60L384,10L103,-16Z" fill="rgb(122, 160, 199)" fill-opacity="0.77"/><path d="M67,35L32,56L9,33Z" fill="rgb(123, 129, 133)" fill-opacity="0.65"/><path d="M174,64L130,19L68,67Z" fill="rgb(23, 27, 31)" fill-opacity="0.69"/><path d="M160,54L57,78L155,112Z" fill="rgb(64, 96, 102)" fill-opacity="0.64"/><path d="M35,61L51,-11L50,105Z" fill="rgb(0, 0, 0)" fill-opacity="0.33"/><path d="M-16,99L23,29L21,119Z" fill="rgb(162, 92, 41)" fill-opacity="0.48"/><path d="M55,41L77,31L50,33Z" fill="rgb(187, 211, 231)" fill-opacity="0.49"/><path d="M22,56L-27,64L0,-3Z" fill="rgb(190, 198, 207)" fill-opacity="0.59"/><path d="M207,-119L152,41L174,68Z" fill="rgb(132, 160, 189)" fill-opacity="0.73"/><path d="M265,113L245,48L62,131Z" fill="rgb(11, 16, 11)" fill-opacity="0.58"/><path d="M21,86L7,83L-22,116Z" fill="rgb(74, 28, 0)" fill-opacity="0.58"/><path d="M283,49L213,48L243,-52Z" fill="rgb(95, 127, 164)" fill-opacity="0.83"/><path d="M6,105L13,80L18,124Z" fill="rgb(252, 115, 16)" fill-opacity="0.47"/><path d="M69,91L84,68L58,78Z" fill="rgb(113, 13, 12)" fill-opacity="0.63"/><path d="M227,54L186,52L150,106Z" fill="rgb(15, 13, 14)" fill-opacity="0.50"/><path d="M139,49L186,85L135,17Z" fill="rgb(5, 2, 0)" fill-opacity="0.53"/><path d="M244,84L217,75L247,73Z" fill="rgb(209, 8, 0)" fill-opacity="0.40"/><path d="M29,22L17,30L39,56Z" fill="rgb(184, 197, 207)" fill-opacity="0.46"/><path d="M17,36L16,52L29,41Z" fill="rgb(26, 41, 46)" fill-opacity="0.49"/><path d="M157,106L138,112L158,115Z" fill="rgb(91, 249, 49)" fill-opacity="0.36"/><path d="M67,85L152,71L94,63Z" fill="rgb(79, 109, 111)" fill-opacity="0.68"/><path d="M18,135L14,112L148,121Z" fill="rgb(14, 1, 0)" fill-opacity="0.45"/><path d="M88,87L70,94L105,96Z" fill="rgb(86, 108, 99)" fill-opacity="0.59"/><path d="M25,91L35,99L36,90Z" fill="rgb(131, 123, 114)" fill-opacity="0.53"/><path d="M-17,69L90,70L21,53Z" fill="rgb(1, 0, 0)" fill-opacity="0.34"/><path d="M177,114L172,107L183,108Z" fill="rgb(26, 171, 10)" fill-opacity="0.52"/><path d="M94,30L122,23L129,69Z" fill="rgb(30, 20, 23)" fill-opacity="0.61"/><path d="M15,26L17,9L23,23Z" fill="rgb(76, 86, 96)" fill-opacity="0.51"/><path d="M-29,72L34,84L23,69Z" fill="rgb(239, 166, 141)" fill-opacity="0.29"/><path d="M143,87L132,89L137,103Z" fill="rgb(9, 0, 6)" fill-opacity="0.52"/><path d="M4,87L8,132L-108,203Z" fill="rgb(22, 16, 9)" fill-opacity="0.86"/><path d="M135,32L101,96L169,87Z" fill="rgb(70, 116, 143)" fill-opacity="0.21"/><path d="M61,42L29,28L44,44Z" fill="rgb(103, 106, 112)" fill-opacity="0.72"/><path d="M151,63L106,64L146,67Z" fill="rgb(29, 26, 32)" fill-opacity="0.53"/><path d="M22,32L30,-74L47,24Z" fill="rgb(166, 200, 232)" fill-opacity="0.50"/><path d="M100,115L102,93L118,110Z" fill="rgb(44, 98, 24)" fill-opacity="0.48"/><path d="M135,104L93,83L130,79Z" fill="rgb(73, 107, 109)" fill-opacity="0.52"/><path d="M17,28L14,5L25,37Z" fill="rgb(105, 121, 135)" fill-opacity="0.59"/><path d="M-26,34L19,38L6,-13Z" fill="rgb(166, 193, 218)" fill-opacity="0.66"/><path d="M143,84L161,68L157,100Z" fill="rgb(62, 104, 128)" fill-opacity="0.47"/><path d="M18,73L-47,12L31,72Z" fill="rgb(177, 173, 167)" fill-opacity="0.24"/><path d="M16,-17L29,51L33,47Z" fill="rgb(184, 205, 224)" fill-opacity="0.46"/><path d="M37,128L41,92L58,105Z" fill="rgb(88, 55, 10)" fill-opacity="0.46"/><path d="M50,104L100,26L22,58Z" fill="rgb(22, 1, 2)" fill-opacity="0.35"/><path d="M72,113L71,54L76,95Z" fill="rgb(139, 60, 56)" fill-opacity="0.42"/><path d="M22,71L-2,78L18,66Z" fill="rgb(236, 209, 185)" fill-opacity="0.35"/><path d="M54,38L135,17L46,-16Z" fill="rgb(152, 188, 223)" fill-opacity="0.56"/><path d="M90,94L92,85L84,90Z" fill="rgb(174, 156, 142)" fill-opacity="0.33"/><path d="M142,38L137,21L126,26Z" fill="rgb(8, 0, 0)" fill-opacity="0.53"/><path d="M183,135L11,166L286,222Z" fill="rgb(66, 48, 38)" fill-opacity="0.68"/><path d="M7,101L15,82L18,99Z" fill="rgb(222, 70, 13)" fill-opacity="0.51"/><path d="M33,79L30,110L5,78Z" fill="rgb(125, 49, 7)" fill-opacity="0.39"/><path d="M146,78L119,73L115,82Z" fill="rgb(33, 39, 31)" fill-opacity="0.44"/><path d="M103,87L98,83L68,126Z" fill="rgb(37, 62, 26)" fill-opacity="0.66"/><path d="M242,75L253,81L225,77Z" fill="rgb(164, 33, 7)" fill-opacity="0.57"/><path d="M51,78L98,80L102,91Z" fill="rgb(26, 13, 4)" fill-opacity="0.30"/><path d="M158,19L47,-28L111,23Z" fill="rgb(136, 173, 208)" fill-opacity="0.85"/><path d="M10,110L10,89L15,113Z" fill="rgb(251, 142, 43)" fill-opacity="0.66"/><path d="M8,96L4,105L11,117Z" fill="rgb(112, 69, 5)" fill-opacity="0.63"/><path d="M42,41L42,9L45,35Z" fill="rgb(169, 190, 210)" fill-opacity="0.52"/><path d="M50,118L75,120L69,87Z" fill="rgb(22, 2, 0)" fill-opacity="0.51"/><path d="M42,35L35,53L36,24Z" fill="rgb(65, 72, 69)" fill-opacity="0.42"/><path d="M141,86L136,121L134,87Z" fill="rgb(12, 12, 6)" fill-opacity="0.61"/><path d="M110,111L156,116L114,94Z" fill="rgb(31, 41, 46)" fill-opacity="0.50"/><path d="M148,125L132,104L148,99Z" fill="rgb(16, 26, 14)" fill-opacity="0.64"/><path d="M97,53L98,27L93,23Z" fill="rgb(49, 38, 45)" fill-opacity="0.52"/><path d="M54,9L97,22L50,45Z" fill="rgb(189, 211, 221)" fill-opacity="0.21"/><path d="M207,112L197,111L204,104Z" fill="rgb(15, 145, 0)" fill-opacity="0.49"/><path d="M-1,107L4,91L16,84Z" fill="rgb(30, 24, 4)" fill-opacity="0.56"/><path d="M128,42L130,33L149,49Z" fill="rgb(57, 79, 92)" fill-opacity="0.52"/><path d="M142,-35L178,64L144,29Z" fill="rgb(133, 163, 193)" fill-opacity="0.85"/><path d="M82,98L90,108L85,120Z" fill="rgb(71, 86, 4)" fill-opacity="0.59"/><path d="M6,74L-6,91L-15,69Z" fill="rgb(218, 212, 198)" fill-opacity="0.45"/><path d="M140,94L141,100L152,99Z" fill="rgb(67, 86, 113)" fill-opacity="0.59"/><path d="M4,71L-41,32L14,70Z" fill="rgb(6, 24, 6)" fill-opacity="0.49"/><path d="M234,104L214,102L210,84Z" fill="rgb(19, 67, 15)" fill-opacity="0.50"/><path d="M7,66L20,60L6,73Z" fill="rgb(27, 37, 34)" fill-opacity="0.53"/><path d="M231,50L257,46L187,35Z" fill="rgb(112, 135, 164)" fill-opacity="0.60"/><path d="M201,60L163,76L171,119Z" fill="rgb(10, 23, 8)" fill-opacity="0.60"/><path d="M214,74L220,90L181,85Z" fill="rgb(13, 27, 46)" fill-opacity="0.61"/><path d="M2,56L26,50L-20,44Z" fill="rgb(195, 191, 189)" fill-opacity="0.53"/><path d="M112,90L71,98L97,100Z" fill="rgb(43, 87, 68)" fill-opacity="0.58"/><path d="M128,44L121,51L159,53Z" fill="rgb(17, 17, 9)" fill-opacity="0.54"/><path d="M44,116L23,112L49,103Z" fill="rgb(7, 0, 0)" fill-opacity="0.42"/><path d="M26,43L17,36L29,55Z" fill="rgb(48, 48, 44)" fill-opacity="0.51"/><path d="M150,107L156,110L151,115Z" fill="rgb(175, 255, 107)" fill-opacity="0.50"/><path d="M73,104L66,110L89,119Z" fill="rgb(104, 51, 6)" fill-opacity="0.41"/><path d="M38,44L29,56L41,55Z" fill="rgb(112, 116, 115)" fill-opacity="0.57"/><path d="M-2,2L36,17L97,-53Z" fill="rgb(147, 182, 215)" fill-opacity="0.89"/><path d="M130,119L89,102L87,123Z" fill="rgb(7, 10, 11)" fill-opacity="0.46"/><path d="M20,77L19,84L34,89Z" fill="rgb(183, 84, 38)" fill-opacity="0.40"/><path d="M247,71L263,87L233,71Z" fill="rgb(81, 4, 1)" fill-opacity="0.51"/><path d="M26,135L17,155L180,136Z" fill="rgb(94, 50, 31)" fill-opacity="0.27"/><path d="M25,83L32,122L17,114Z" fill="rgb(58, 25, 3)" fill-opacity="0.69"/><path d="M128,106L111,112L108,106Z" fill="rgb(69, 67, 98)" fill-opacity="0.45"/><path d="M153,83L144,57L161,70Z" fill="rgb(69, 92, 109)" fill-opacity="0.61"/><path d="M23,152L58,156L-4,162Z" fill="rgb(28, 11, 8)" fill-opacity="0.51"/><path d="M-36,100L12,73L6,89Z" fill="rgb(111, 90, 87)" fill-opacity="0.55"/><path d="M144,91L144,96L156,87Z" fill="rgb(21, 23, 32)" fill-opacity="0.47"/><path d="M75,111L76,95L88,113Z" fill="rgb(37, 36, 7)" fill-opacity="0.61"/><path d="M109,97L116,95L129,119Z" fill="rgb(27, 22, 23)" fill-opacity="0.80"/><path d="M31,85L69,97L25,53Z" fill="rgb(27, 6, 0)" fill-opacity="0.42"/><path d="M30,37L34,33L7,37Z" fill="rgb(182, 199, 216)" fill-opacity="0.51"/><path d="M53,114L49,108L43,116Z" fill="rgb(113, 85, 52)" fill-opacity="0.49"/><path d="M230,86L234,113L263,103Z" fill="rgb(6, 4, 4)" fill-opacity="0.48"/><path d="M8,80L3,88L30,82Z" fill="rgb(155, 92, 42)" fill-opacity="0.54"/><path d="M225,48L201,57L287,87Z" fill="rgb(37, 23, 30)" fill-opacity="0.69"/><path d="M105,80L111,81L82,84Z" fill="rgb(2, 46, 1)" fill-opacity="0.44"/><path d="M58,90L81,80L53,77Z" fill="rgb(103, 20, 22)" fill-opacity="0.45"/><path d="M217,73L216,98L238,83Z" fill="rgb(30, 3, 7)" fill-opacity="0.46"/><path d="M180,114L166,111L183,101Z" fill="rgb(18, 112, 3)" fill-opacity="0.47"/><path d="M41,116L38,121L49,122Z" fill="rgb(217, 115, 19)" fill-opacity="0.37"/><path d="M211,30L171,67L162,50Z" fill="rgb(135, 148, 169)" fill-opacity="0.51"/><path d="M216,52L175,47L231,45Z" fill="rgb(119, 139, 165)" fill-opacity="0.65"/><path d="M13,64L8,71L-13,63Z" fill="rgb(28, 30, 13)" fill-opacity="0.63"/><path d="M96,36L67,74L100,62Z" fill="rgb(44, 20, 19)" fill-opacity="0.60"/><path d="M132,46L99,62L125,66Z" fill="rgb(17, 27, 35)" fill-opacity="0.52"/><path d="M158,-145L184,55L202,51Z" fill="rgb(121, 152, 184)" fill-opacity="0.72"/><path d="M138,21L97,30L55,82Z" fill="rgb(46, 27, 28)" fill-opacity="0.85"/><path d="M109,129L-2,120L-16,137Z" fill="rgb(17, 14, 15)" fill-opacity="0.57"/><path d="M186,116L219,96L179,107Z" fill="rgb(3, 21, 2)" fill-opacity="0.50"/><path d="M70,165L47,181L52,159Z" fill="rgb(45, 31, 25)" fill-opacity="0.68"/><path d="M89,103L87,121L82,90Z" fill="rgb(56, 93, 17)" fill-opacity="0.46"/><path d="M17,41L14,36L18,70Z" fill="rgb(115, 120, 122)" fill-opacity="0.45"/><path d="M185,63L167,65L161,76Z" fill="rgb(16, 14, 14)" fill-opacity="0.51"/><path d="M244,50L246,65L269,42Z" fill="rgb(26, 12, 23)" fill-opacity="0.52"/><path d="M204,52L197,56L227,52Z" fill="rgb(32, 15, 19)" fill-opacity="0.46"/><path d="M244,76L243,78L225,77Z" fill="rgb(219, 97, 24)" fill-opacity="0.44"/><path d="M112,107L104,102L102,108Z" fill="rgb(59, 125, 0)" fill-opacity="0.62"/><path d="M237,92L238,80L356,55Z" fill="rgb(42, 0, 0)" fill-opacity="0.44"/><path d="M63,37L48,23L89,30Z" fill="rgb(166, 188, 208)" fill-opacity="0.56"/><path d="M10,112L17,117L15,121Z" fill="rgb(156, 73, 19)" fill-opacity="0.57"/><path d="M72,77L67,92L78,74Z" fill="rgb(148, 53, 49)" fill-opacity="0.48"/><path d="M28,95L20,88L28,84Z" fill="rgb(13, 23, 12)" fill-opacity="0.48"/><path d="M18,134L73,154L-47,150Z" fill="rgb(67, 43, 26)" fill-opacity="0.64"/><path d="M129,28L160,59L139,20Z" fill="rgb(1, 0, 0)" fill-opacity="0.36"/><path d="M45,104L59,95L60,104Z" fill="rgb(91, 45, 4)" fill-opacity="0.48"/><path d="M70,97L74,93L91,92Z" fill="rgb(99, 99, 95)" fill-opacity="0.47"/><path d="M50,32L45,25L48,54Z" fill="rgb(59, 51, 47)" fill-opacity="0.64"/><path d="M187,84L149,118L159,121Z" fill="rgb(11, 22, 11)" fill-opacity="0.68"/><path d="M153,108L149,113L156,112Z" fill="rgb(140, 255, 90)" fill-opacity="0.54"/><path d="M26,97L18,118L15,98Z" fill="rgb(80, 19, 0)" fill-opacity="0.52"/><path d="M229,106L232,93L218,93Z" fill="rgb(9, 78, 0)" fill-opacity="0.41"/><path d="M159,110L126,107L157,105Z" fill="rgb(30, 94, 4)" fill-opacity="0.43"/><path d="M161,53L142,36L178,96Z" fill="rgb(8, 5, 3)" fill-opacity="0.56"/><path d="M129,54L142,52L126,74Z" fill="rgb(88, 117, 125)" fill-opacity="0.37"/><path d="M66,75L71,66L81,73Z" fill="rgb(106, 9, 0)" fill-opacity="0.44"/><path d="M35,67L23,78L40,79Z" fill="rgb(50, 39, 34)" fill-opacity="0.49"/><path d="M139,123L173,155L226,115Z" fill="rgb(41, 39, 39)" fill-opacity="0.49"/><path d="M149,89L153,98L163,73Z" fill="rgb(62, 96, 115)" fill-opacity="0.54"/><path d="M26,89L32,91L32,96Z" fill="rgb(76, 101, 115)" fill-opacity="0.50"/><path d="M148,113L151,110L155,113Z" fill="rgb(187, 255, 142)" fill-opacity="0.42"/><path d="M3,70L2,75L18,74Z" fill="rgb(177, 158, 150)" fill-opacity="0.44"/><path d="M81,66L54,39L87,38Z" fill="rgb(43, 33, 37)" fill-opacity="0.49"/><path d="M113,80L115,85L88,85Z" fill="rgb(76, 125, 119)" fill-opacity="0.43"/><path d="M29,22L17,32L39,30Z" fill="rgb(168, 188, 205)" fill-opacity="0.56"/><path d="M162,74L152,55L123,47Z" fill="rgb(59, 76, 81)" fill-opacity="0.49"/><path d="M118,96L115,109L117,86Z" fill="rgb(21, 34, 45)" fill-opacity="0.50"/><path d="M110,63L109,50L104,57Z" fill="rgb(36, 64, 93)" fill-opacity="0.52"/><path d="M239,81L241,68L230,69Z" fill="rgb(67, 0, 0)" fill-opacity="0.40"/><path d="M41,43L53,45L54,94Z" fill="rgb(24, 13, 8)" fill-opacity="0.53"/><path d="M102,-23L143,26L204,13Z" fill="rgb(122, 164, 204)" fill-opacity="0.43"/><path d="M25,53L23,49L41,45Z" fill="rgb(157, 157, 157)" fill-opacity="0.50"/><path d="M141,104L145,83L140,88Z" fill="rgb(74, 105, 134)" fill-opacity="0.43"/><path d="M30,95L31,90L39,98Z" fill="rgb(156, 128, 105)" fill-opacity="0.43"/><path d="M35,97L30,62L42,105Z" fill="rgb(83, 39, 21)" fill-opacity="0.49"/><path d="M14,8L12,13L21,13Z" fill="rgb(72, 91, 110)" fill-opacity="0.37"/><path d="M29,51L34,61L19,74Z" fill="rgb(57, 38, 25)" fill-opacity="0.44"/><path d="M55,80L58,81L59,74Z" fill="rgb(105, 84, 88)" fill-opacity="0.48"/><path d="M-20,47L25,26L4,58Z" fill="rgb(188, 187, 189)" fill-opacity="0.45"/><path d="M130,122L182,144L68,154Z" fill="rgb(61, 47, 39)" fill-opacity="0.47"/><path d="M249,60L267,48L259,71Z" fill="rgb(45, 52, 74)" fill-opacity="0.50"/><path d="M65,28L100,22L84,31Z" fill="rgb(161, 189, 215)" fill-opacity="0.49"/><path d="M53,7L47,2L44,10Z" fill="rgb(87, 112, 133)" fill-opacity="0.53"/><path d="M62,-8L45,18L65,6Z" fill="rgb(141, 179, 215)" fill-opacity="0.45"/><path d="M94,104L94,93L75,98Z" fill="rgb(33, 67, 22)" fill-opacity="0.52"/><path d="M-15,146L-13,178L22,154Z" fill="rgb(33, 17, 8)" fill-opacity="0.47"/><path d="M180,104L181,95L204,99Z" fill="rgb(27, 46, 30)" fill-opacity="0.41"/><path d="M184,56L197,52L168,70Z" fill="rgb(40, 29, 34)" fill-opacity="0.62"/><path d="M244,8L220,46L184,-31Z" fill="rgb(102, 139, 178)" fill-opacity="0.59"/><path d="M50,100L56,102L44,48Z" fill="rgb(22, 9, 5)" fill-opacity="0.67"/><path d="M75,111L74,71L69,77Z" fill="rgb(137, 70, 73)" fill-opacity="0.41"/><path d="M79,95L87,83L73,85Z" fill="rgb(42, 38, 29)" fill-opacity="0.66"/><path d="M297,125L192,142L239,107Z" fill="rgb(24, 27, 38)" fill-opacity="0.30"/><path d="M44,41L44,25L41,47Z" fill="rgb(130, 144, 154)" fill-opacity="0.51"/><path d="M78,58L32,44L43,44Z" fill="rgb(33, 33, 33)" fill-opacity="0.50"/><path d="M218,127L224,65L215,92Z" fill="rgb(16, 16, 16)" fill-opacity="0.52"/><path d="M205,52L188,55L222,77Z" fill="rgb(38, 24, 32)" fill-opacity="0.50"/><path d="M16,43L29,43L19,36Z" fill="rgb(27, 36, 36)" fill-opacity="0.42"/><path d="M2,60L-22,71L-1,33Z" fill="rgb(185, 175, 171)" fill-opacity="0.53"/><path d="M9,62L30,76L6,52Z" fill="rgb(111, 102, 98)" fill-opacity="0.53"/><path d="M42,52L42,47L30,58Z" fill="rgb(103, 107, 108)" fill-opacity="0.48"/><path d="M62,96L73,95L61,130Z" fill="rgb(6, 6, 2)" fill-opacity="0.44"/><path d="M23,25L23,24L7,25Z" fill="rgb(93, 108, 118)" fill-opacity="0.53"/><path d="M147,79L151,74L115,78Z" fill="rgb(40, 45, 48)" fill-opacity="0.60"/><path d="M211,86L215,107L215,92Z" fill="rgb(59, 158, 85)" fill-opacity="0.32"/><path d="M32,49L24,26L35,44Z" fill="rgb(183, 196, 208)" fill-opacity="0.59"/></svg>