<svg xmlns="http://www.w3.org/2000/svg" viewBox="0 0 256 169.55844155844156" clip-path="url(#clip)" width="512" height="339.1168831168831"><defs><clipPath id="clip" clipPathUnits="objectBoundingBox"><rect x="0" y="0" width="256" height="169.55844155844156"/></clipPath></defs><rect x="0" y="0" width="256" height="169.55844155844156" fill="rgb(31, 84, 77)"/><path d="M-72,-128L11,256L60,50Z" fill="rgb(77, 172, 141)" fill-opacity="0.75"/><path d="M252,68L181,18L196,109Z" fill="rgb(20, 23, 0)" fill-opacity="0.54"/><path d="M102,106L159,77L135,-39Z" fill="rgb(38, 35, 37)" fill-opacity="0.80"/><path d="M58,122L162,86L152,158Z" fill="rgb(106, 116, 114)" fill-opacity="0.69"/><path d="M42,118L279,213L38,150Z" fill="rgb(13, 11, 18)" fill-opacity="0.79"/><path d="M155,52L163,88L203,71Z" fill="rgb(101, 122, 129)" fill-opacity="0.53"/><path d="M23,83L87,143L181,153Z" fill="rgb(128, 113, 109)" fill-opacity="0.48"/><path d="M42,47L111,44L33,-82Z" fill="rgb(46, 0, 27)" fill-opacity="0.47"/><path d="M170,60L231,67L169,36Z" fill="rgb(31, 48, 20)" fill-opacity="0.86"/><path d="M326,17L246,205L213,97Z" fill="rgb(1, 49, 14)" fill-opacity="0.44"/><path d="M293,11L-12,-40L81,27Z" fill="rgb(16, 37, 68)" fill-opacity="0.96"/><path d="M54,129L69,21L36,75Z" fill="rgb(99, 94, 91)" fill-opacity="0.73"/><path d="M110,77L112,24L108,26Z" fill="rgb(121, 163, 210)" fill-opacity="0.55"/><path d="M57,76L38,25L62,31Z" fill="rgb(252, 134, 136)" fill-opacity="0.27"/><path d="M193,133L194,210L172,137Z" fill="rgb(4, 26, 0)" fill-opacity="0.56"/><path d="M74,69L114,63L97,128Z" fill="rgb(101, 147, 119)" fill-opacity="0.44"/><path d="M205,104L153,120L215,155Z" fill="rgb(221, 163, 220)" fill-opacity="0.17"/><path d="M149,22L113,23L116,38Z" fill="rgb(140, 119, 126)" fill-opacity="0.35"/><path d="M139,22L158,51L234,19Z" fill="rgb(179, 101, 111)" fill-opacity="0.27"/><path d="M144,137L108,121L107,143Z" fill="rgb(147, 147, 135)" fill-opacity="0.61"/><path d="M62,10L82,46L68,68Z" fill="rgb(44, 12, 9)" fill-opacity="0.65"/><path d="M245,40L242,185L214,30Z" fill="rgb(21, 53, 48)" fill-opacity="0.97"/><path d="M105,84L109,83L105,70Z" fill="rgb(241, 255, 243)" fill-opacity="0.57"/><path d="M71,20L93,45L114,12Z" fill="rgb(2, 4, 3)" fill-opacity="0.39"/><path d="M183,100L216,108L223,25Z" fill="rgb(23, 26, 17)" fill-opacity="0.73"/><path d="M80,84L52,69L59,90Z" fill="rgb(154, 115, 152)" fill-opacity="0.33"/><path d="M105,195L40,126L66,109Z" fill="rgb(14, 10, 13)" fill-opacity="0.55"/><path d="M125,65L148,26L125,37Z" fill="rgb(108, 82, 79)" fill-opacity="0.49"/><path d="M133,82L159,109L163,72Z" fill="rgb(39, 69, 59)" fill-opacity="0.52"/><path d="M28,131L54,157L26,174Z" fill="rgb(49, 129, 103)" fill-opacity="0.81"/><path d="M131,148L172,113L176,174Z" fill="rgb(71, 78, 74)" fill-opacity="0.70"/><path d="M220,99L223,86L217,94Z" fill="rgb(103, 245, 233)" fill-opacity="0.42"/><path d="M39,101L45,120L69,96Z" fill="rgb(130, 122, 128)" fill-opacity="0.56"/><path d="M197,136L230,110L168,98Z" fill="rgb(62, 102, 122)" fill-opacity="0.60"/><path d="M68,94L91,126L58,104Z" fill="rgb(100, 119, 135)" fill-opacity="0.52"/><path d="M36,77L42,99L75,92Z" fill="rgb(3, 42, 22)" fill-opacity="0.42"/><path d="M92,66L80,65L91,76Z" fill="rgb(113, 238, 114)" fill-opacity="0.47"/><path d="M141,159L244,145L231,305Z" fill="rgb(44, 23, 0)" fill-opacity="0.32"/><path d="M118,128L124,89L103,102Z" fill="rgb(21, 58, 56)" fill-opacity="0.51"/><path d="M147,83L186,97L191,89Z" fill="rgb(87, 126, 120)" fill-opacity="0.46"/><path d="M26,29L27,174L-176,34Z" fill="rgb(70, 182, 148)" fill-opacity="0.66"/><path d="M90,81L77,93L77,77Z" fill="rgb(13, 0, 0)" fill-opacity="0.40"/><path d="M130,87L107,82L122,27Z" fill="rgb(9, 16, 0)" fill-opacity="0.51"/><path d="M214,15L243,27L230,34Z" fill="rgb(110, 84, 90)" fill-opacity="0.60"/><path d="M108,80L143,96L85,91Z" fill="rgb(88, 126, 138)" fill-opacity="0.40"/><path d="M161,39L163,60L175,19Z" fill="rgb(104, 118, 126)" fill-opacity="0.49"/><path d="M-38,23L42,32L29,-39Z" fill="rgb(55, 136, 126)" fill-opacity="0.72"/><path d="M107,73L107,86L104,73Z" fill="rgb(206, 255, 227)" fill-opacity="0.54"/><path d="M138,86L150,95L150,84Z" fill="rgb(5, 0, 0)" fill-opacity="0.56"/><path d="M220,107L224,129L125,131Z" fill="rgb(61, 107, 133)" fill-opacity="0.43"/><path d="M191,132L233,140L206,230Z" fill="rgb(81, 64, 57)" fill-opacity="0.48"/><path d="M73,78L93,54L53,71Z" fill="rgb(51, 50, 45)" fill-opacity="0.48"/><path d="M126,44L129,63L119,45Z" fill="rgb(162, 140, 76)" fill-opacity="0.43"/><path d="M224,66L194,64L195,79Z" fill="rgb(0, 0, 0)" fill-opacity="0.48"/><path d="M179,30L226,49L225,25Z" fill="rgb(48, 79, 33)" fill-opacity="0.52"/><path d="M71,128L68,109L51,106Z" fill="rgb(38, 45, 37)" fill-opacity="0.52"/><path d="M156,47L114,66L129,89Z" fill="rgb(8, 5, 0)" fill-opacity="0.55"/><path d="M205,55L188,50L194,80Z" fill="rgb(24, 126, 7)" fill-opacity="0.46"/><path d="M163,70L191,63L187,81Z" fill="rgb(111, 147, 187)" fill-opacity="0.41"/><path d="M119,108L144,117L177,86Z" fill="rgb(55, 117, 73)" fill-opacity="0.52"/><path d="M75,106L80,73L81,111Z" fill="rgb(20, 4, 5)" fill-opacity="0.47"/><path d="M136,88L161,105L118,96Z" fill="rgb(71, 106, 132)" fill-opacity="0.49"/><path d="M96,89L108,65L98,56Z" fill="rgb(0, 114, 59)" fill-opacity="0.66"/><path d="M187,75L247,91L166,88Z" fill="rgb(47, 61, 54)" fill-opacity="0.72"/><path d="M40,83L42,165L21,194Z" fill="rgb(32, 144, 101)" fill-opacity="0.53"/><path d="M68,103L64,108L64,118Z" fill="rgb(115, 139, 140)" fill-opacity="0.52"/><path d="M237,148L242,190L222,184Z" fill="rgb(11, 99, 0)" fill-opacity="0.53"/><path d="M58,50L65,85L67,36Z" fill="rgb(77, 101, 107)" fill-opacity="0.68"/><path d="M144,68L164,54L139,36Z" fill="rgb(46, 39, 27)" fill-opacity="0.58"/><path d="M193,135L181,135L184,180Z" fill="rgb(3, 28, 12)" fill-opacity="0.62"/><path d="M193,83L192,54L196,84Z" fill="rgb(54, 201, 58)" fill-opacity="0.49"/><path d="M246,176L289,11L236,-14Z" fill="rgb(20, 88, 61)" fill-opacity="0.70"/><path d="M55,104L40,116L59,129Z" fill="rgb(106, 102, 95)" fill-opacity="0.43"/><path d="M158,139L178,137L160,162Z" fill="rgb(135, 120, 112)" fill-opacity="0.39"/><path d="M40,151L49,173L61,155Z" fill="rgb(124, 85, 148)" fill-opacity="0.40"/><path d="M180,18L183,40L204,40Z" fill="rgb(4, 59, 42)" fill-opacity="0.50"/><path d="M36,-14L43,104L25,91Z" fill="rgb(41, 135, 109)" fill-opacity="0.70"/><path d="M194,16L190,30L250,36Z" fill="rgb(102, 80, 89)" fill-opacity="0.42"/><path d="M114,59L114,22L117,29Z" fill="rgb(113, 158, 219)" fill-opacity="0.44"/><path d="M86,115L89,69L107,98Z" fill="rgb(90, 89, 109)" fill-opacity="0.53"/><path d="M231,44L210,44L207,35Z" fill="rgb(18, 154, 0)" fill-opacity="0.40"/><path d="M142,153L79,167L214,188Z" fill="rgb(2, 23, 38)" fill-opacity="0.60"/><path d="M62,33L76,14L39,10Z" fill="rgb(8, 23, 39)" fill-opacity="0.60"/><path d="M132,47L155,48L122,82Z" fill="rgb(18, 15, 3)" fill-opacity="0.45"/><path d="M64,10L133,-8L100,17Z" fill="rgb(33, 58, 126)" fill-opacity="0.39"/><path d="M29,58L26,63L27,43Z" fill="rgb(11, 81, 57)" fill-opacity="0.50"/><path d="M57,155L83,167L62,173Z" fill="rgb(103, 75, 118)" fill-opacity="0.46"/><path d="M38,41L54,26L45,22Z" fill="rgb(155, 72, 95)" fill-opacity="0.49"/><path d="M192,104L167,114L180,113Z" fill="rgb(25, 19, 31)" fill-opacity="0.43"/><path d="M41,107L42,99L56,107Z" fill="rgb(168, 162, 148)" fill-opacity="0.49"/><path d="M53,21L38,26L42,-6Z" fill="rgb(13, 33, 42)" fill-opacity="0.62"/><path d="M159,61L175,60L172,80Z" fill="rgb(45, 84, 66)" fill-opacity="0.54"/><path d="M100,34L67,61L81,24Z" fill="rgb(25, 19, 18)" fill-opacity="0.62"/><path d="M174,137L146,139L136,132Z" fill="rgb(5, 41, 25)" fill-opacity="0.56"/><path d="M227,136L208,136L207,121Z" fill="rgb(5, 81, 53)" fill-opacity="0.45"/><path d="M174,138L184,137L175,223Z" fill="rgb(0, 76, 31)" fill-opacity="0.62"/><path d="M209,131L174,136L150,135Z" fill="rgb(46, 150, 120)" fill-opacity="0.60"/><path d="M137,132L113,126L140,144Z" fill="rgb(176, 167, 147)" fill-opacity="0.41"/><path d="M127,14L112,29L107,14Z" fill="rgb(9, 23, 48)" fill-opacity="0.55"/><path d="M198,116L158,70L150,79Z" fill="rgb(72, 143, 102)" fill-opacity="0.29"/><path d="M28,173L27,92L31,111Z" fill="rgb(6, 90, 42)" fill-opacity="0.36"/><path d="M165,168L34,147L121,144Z" fill="rgb(9, 1, 14)" fill-opacity="0.30"/><path d="M34,158L48,160L46,170Z" fill="rgb(24, 49, 36)" fill-opacity="0.54"/><path d="M170,112L161,136L87,115Z" fill="rgb(60, 113, 138)" fill-opacity="0.49"/><path d="M90,85L81,82L82,102Z" fill="rgb(61, 137, 103)" fill-opacity="0.60"/><path d="M87,113L89,129L118,128Z" fill="rgb(138, 138, 130)" fill-opacity="0.37"/><path d="M222,59L193,66L221,84Z" fill="rgb(6, 0, 13)" fill-opacity="0.61"/><path d="M237,39L241,9L226,25Z" fill="rgb(89, 87, 95)" fill-opacity="0.61"/><path d="M87,66L110,45L76,47Z" fill="rgb(13, 52, 113)" fill-opacity="0.45"/><path d="M68,53L65,25L84,69Z" fill="rgb(60, 15, 11)" fill-opacity="0.43"/><path d="M91,79L78,77L94,63Z" fill="rgb(109, 188, 121)" fill-opacity="0.44"/><path d="M237,114L242,17L245,111Z" fill="rgb(55, 59, 73)" fill-opacity="0.52"/><path d="M125,19L125,36L122,26Z" fill="rgb(220, 132, 121)" fill-opacity="0.48"/><path d="M109,106L127,102L112,93Z" fill="rgb(5, 18, 0)" fill-opacity="0.43"/><path d="M77,96L77,80L63,73Z" fill="rgb(103, 121, 138)" fill-opacity="0.43"/><path d="M237,77L219,102L244,182Z" fill="rgb(7, 33, 33)" fill-opacity="0.49"/><path d="M76,100L87,100L93,106Z" fill="rgb(31, 27, 22)" fill-opacity="0.52"/><path d="M227,45L229,62L204,56Z" fill="rgb(36, 144, 66)" fill-opacity="0.25"/><path d="M29,67L27,-1L25,42Z" fill="rgb(31, 102, 82)" fill-opacity="0.57"/><path d="M173,66L185,25L186,61Z" fill="rgb(46, 36, 34)" fill-opacity="0.54"/><path d="M181,98L213,89L222,108Z" fill="rgb(8, 9, 4)" fill-opacity="0.67"/><path d="M155,160L155,132L161,169Z" fill="rgb(28, 26, 26)" fill-opacity="0.50"/><path d="M33,79L54,76L45,73Z" fill="rgb(82, 144, 167)" fill-opacity="0.48"/><path d="M171,135L192,132L177,116Z" fill="rgb(70, 119, 137)" fill-opacity="0.52"/><path d="M140,83L134,91L166,78Z" fill="rgb(23, 28, 24)" fill-opacity="0.45"/><path d="M225,21L221,83L230,90Z" fill="rgb(0, 103, 85)" fill-opacity="0.35"/><path d="M144,39L128,38L137,50Z" fill="rgb(98, 97, 105)" fill-opacity="0.43"/><path d="M208,82L191,94L194,86Z" fill="rgb(63, 73, 72)" fill-opacity="0.49"/><path d="M157,89L153,94L126,88Z" fill="rgb(31, 48, 50)" fill-opacity="0.67"/><path d="M139,19L125,38L161,27Z" fill="rgb(47, 60, 52)" fill-opacity="0.41"/><path d="M5,15L7,26L-5,31Z" fill="rgb(36, 107, 93)" fill-opacity="0.64"/><path d="M53,162L44,184L66,171Z" fill="rgb(1, 0, 22)" fill-opacity="0.47"/><path d="M68,120L82,146L117,141Z" fill="rgb(80, 91, 89)" fill-opacity="0.48"/><path d="M58,55L51,42L57,43Z" fill="rgb(222, 144, 101)" fill-opacity="0.50"/><path d="M47,79L48,97L39,74Z" fill="rgb(34, 46, 4)" fill-opacity="0.39"/><path d="M192,30L216,48L197,55Z" fill="rgb(31, 25, 0)" fill-opacity="0.45"/><path d="M44,153L64,158L49,166Z" fill="rgb(99, 118, 142)" fill-opacity="0.47"/><path d="M41,33L48,38L38,39Z" fill="rgb(173, 103, 127)" fill-opacity="0.51"/><path d="M163,58L172,59L149,62Z" fill="rgb(107, 129, 160)" fill-opacity="0.50"/><path d="M176,54L167,50L188,41Z" fill="rgb(20, 2, 11)" fill-opacity="0.50"/><path d="M179,80L172,79L169,110Z" fill="rgb(45, 39, 24)" fill-opacity="0.38"/><path d="M40,130L63,159L95,166Z" fill="rgb(5, 10, 19)" fill-opacity="0.51"/><path d="M126,61L133,69L113,107Z" fill="rgb(11, 16, 16)" fill-opacity="0.57"/><path d="M117,34L124,35L115,75Z" fill="rgb(3, 22, 1)" fill-opacity="0.54"/><path d="M125,62L128,59L125,42Z" fill="rgb(228, 118, 148)" fill-opacity="0.39"/><path d="M52,73L36,40L51,39Z" fill="rgb(68, 114, 107)" fill-opacity="0.64"/><path d="M78,68L84,67L78,32Z" fill="rgb(16, 38, 48)" fill-opacity="0.58"/><path d="M162,45L167,44L168,35Z" fill="rgb(72, 150, 157)" fill-opacity="0.50"/><path d="M103,103L135,118L138,109Z" fill="rgb(43, 84, 75)" fill-opacity="0.50"/><path d="M171,96L182,102L183,95Z" fill="rgb(2, 189, 30)" fill-opacity="0.45"/><path d="M92,141L121,121L109,145Z" fill="rgb(115, 121, 116)" fill-opacity="0.40"/><path d="M113,107L89,103L105,98Z" fill="rgb(31, 70, 56)" fill-opacity="0.52"/><path d="M105,163L104,155L100,151Z" fill="rgb(81, 79, 74)" fill-opacity="0.56"/><path d="M105,68L94,81L105,84Z" fill="rgb(0, 151, 69)" fill-opacity="0.62"/><path d="M58,102L43,105L56,120Z" fill="rgb(127, 133, 126)" fill-opacity="0.48"/><path d="M98,106L83,115L114,115Z" fill="rgb(59, 102, 143)" fill-opacity="0.46"/><path d="M25,30L20,-55L19,32Z" fill="rgb(88, 178, 163)" fill-opacity="0.54"/><path d="M137,99L125,109L155,106Z" fill="rgb(84, 155, 66)" fill-opacity="0.46"/><path d="M75,98L75,92L56,87Z" fill="rgb(46, 47, 32)" fill-opacity="0.52"/><path d="M107,50L109,68L70,57Z" fill="rgb(1, 58, 74)" fill-opacity="0.42"/><path d="M88,84L96,76L70,63Z" fill="rgb(95, 121, 100)" fill-opacity="0.49"/><path d="M57,39L61,50L62,26Z" fill="rgb(35, 77, 55)" fill-opacity="0.45"/><path d="M153,75L158,115L150,112Z" fill="rgb(59, 103, 125)" fill-opacity="0.53"/><path d="M157,29L179,11L152,12Z" fill="rgb(0, 14, 39)" fill-opacity="0.31"/><path d="M53,91L52,102L38,99Z" fill="rgb(44, 99, 112)" fill-opacity="0.51"/><path d="M79,26L78,34L73,30Z" fill="rgb(70, 78, 111)" fill-opacity="0.49"/><path d="M215,17L233,18L207,28Z" fill="rgb(100, 93, 96)" fill-opacity="0.57"/><path d="M56,144L58,107L74,134Z" fill="rgb(15, 15, 12)" fill-opacity="0.58"/><path d="M14,-34L5,4L18,34Z" fill="rgb(82, 166, 156)" fill-opacity="0.43"/><path d="M191,77L171,78L186,60Z" fill="rgb(114, 155, 198)" fill-opacity="0.33"/><path d="M231,-12L243,40L249,-22Z" fill="rgb(51, 41, 72)" fill-opacity="0.42"/><path d="M219,147L192,135L196,147Z" fill="rgb(116, 107, 76)" fill-opacity="0.51"/><path d="M178,115L170,105L169,114Z" fill="rgb(12, 21, 21)" fill-opacity="0.46"/><path d="M189,89L169,85L193,77Z" fill="rgb(45, 15, 21)" fill-opacity="0.38"/><path d="M80,144L41,150L53,122Z" fill="rgb(10, 11, 9)" fill-opacity="0.54"/><path d="M157,60L157,77L150,69Z" fill="rgb(32, 19, 10)" fill-opacity="0.60"/><path d="M52,44L55,86L59,43Z" fill="rgb(231, 126, 111)" fill-opacity="0.30"/><path d="M56,45L43,46L69,48Z" fill="rgb(51, 83, 50)" fill-opacity="0.49"/><path d="M233,152L230,166L228,144Z" fill="rgb(30, 151, 66)" fill-opacity="0.45"/><path d="M192,50L194,65L213,55Z" fill="rgb(25, 93, 0)" fill-opacity="0.64"/><path d="M183,17L191,59L194,27Z" fill="rgb(22, 84, 59)" fill-opacity="0.57"/><path d="M80,83L74,82L86,77Z" fill="rgb(11, 12, 14)" fill-opacity="0.54"/><path d="M210,34L209,40L224,46Z" fill="rgb(35, 128, 0)" fill-opacity="0.51"/><path d="M160,52L175,60L166,59Z" fill="rgb(88, 111, 110)" fill-opacity="0.55"/><path d="M40,62L50,70L53,50Z" fill="rgb(78, 136, 124)" fill-opacity="0.53"/><path d="M71,131L85,113L68,109Z" fill="rgb(124, 125, 115)" fill-opacity="0.42"/><path d="M30,202L45,160L47,165Z" fill="rgb(9, 2, 0)" fill-opacity="0.63"/><path d="M109,23L108,59L112,69Z" fill="rgb(128, 182, 235)" fill-opacity="0.33"/><path d="M183,42L153,31L177,19Z" fill="rgb(103, 89, 92)" fill-opacity="0.54"/><path d="M208,54L219,50L219,62Z" fill="rgb(66, 33, 49)" fill-opacity="0.49"/><path d="M154,131L170,85L170,134Z" fill="rgb(64, 96, 87)" fill-opacity="0.46"/><path d="M146,67L171,67L149,56Z" fill="rgb(69, 76, 56)" fill-opacity="0.48"/><path d="M115,26L118,24L115,43Z" fill="rgb(109, 150, 188)" fill-opacity="0.49"/><path d="M91,72L92,65L81,69Z" fill="rgb(73, 238, 116)" fill-opacity="0.48"/><path d="M30,163L37,136L47,202Z" fill="rgb(45, 149, 114)" fill-opacity="0.52"/><path d="M54,134L41,109L41,117Z" fill="rgb(51, 51, 48)" fill-opacity="0.54"/><path d="M49,22L46,49L60,26Z" fill="rgb(90, 72, 67)" fill-opacity="0.47"/><path d="M200,133L146,139L226,134Z" fill="rgb(14, 62, 24)" fill-opacity="0.56"/><path d="M88,89L89,106L93,98Z" fill="rgb(135, 74, 82)" fill-opacity="0.47"/><path d="M118,62L138,86L141,67Z" fill="rgb(8, 1, 7)" fill-opacity="0.44"/></svg>