<svg xmlns="http://www.w3.org/2000/svg" viewBox="0 0 192 256" clip-path="url(#a)" width="384" height="512"><defs><clipPath id="a" clipPathUnits="objectBoundingBox"><path d="M0 0h192v256H0z"/></clipPath></defs><path fill="#371A21" d="M0 0h192v256H0z"/><path d="M152 210L-337 6l501 27z" fill="#FB6B97" fill-opacity=".53"/><path d="M91 106l38-56 99 44z" fill="#F0937F" fill-opacity=".73"/><path d="M-2 148l47 5-51 21z" fill="#FFF181" fill-opacity=".62"/><path d="M123 195l13-60 18 26z" fill="#F89DFE" fill-opacity=".75"/><path d="M10 103l-52-29 59-19z" fill="#E3A7D3" fill-opacity=".93"/><path d="M29 164l15-9-104 18z" fill="#E5A1FF" fill-opacity=".58"/><path d="M109 358L90 69-14 230z" fill="#00000A" fill-opacity=".31"/><path d="M114 76l29 30-43 6z" fill="#DFFFCE" fill-opacity=".67"/><path d="M143 167H98l45 37z" fill="#FBC8FC" fill-opacity=".54"/><path d="M41 97l5 2 12-41z" fill="#E6A4DF" fill-opacity=".84"/><path d="M147 58l161-30-330-75z" fill="#022411" fill-opacity=".64"/><path d="M150 202l-4-121 98 83z" fill="#66295B" fill-opacity=".73"/><path d="M84 17l67 71-95-10z" fill="#713B00" fill-opacity=".3"/><path d="M138 221l-6-45 22 10z" fill="#943CED" fill-opacity=".6"/><path d="M153 247l-16-31 1-26z" fill="#9C46FC" fill-opacity=".71"/><path d="M100 170L71 450l66-248z" fill="#00070B" fill-opacity=".73"/><path d="M46 99l-103 24 113 30z" fill="#C92060" fill-opacity=".98"/><path d="M37 36l6 75-37-3z" fill="#8A051C" fill-opacity=".7"/><path d="M64 31l-78-9 34 50z" fill="#E8056A" fill-opacity=".54"/><path d="M27 62L9 76l37-4z" fill="#F8257C" fill-opacity=".61"/><path d="M43 150l17-4-22-24z" fill="#D85CFF" fill-opacity=".58"/><path d="M141 216l4 20 35 22z" fill="#5520E1" fill-opacity=".59"/><path d="M95 37L47 91l12 81z" fill="#632554" fill-opacity=".65"/><path d="M75 65l17 11-33-9z" fill="#D5C7FF" fill-opacity=".55"/><path d="M138 108l-8 27v-30z" fill="#E7A3EA" fill-opacity=".84"/><path d="M158 94l-56 13-7-26z" fill="#FFF" fill-opacity=".31"/><path d="M168 94l115 54-135-49z" fill="#162211" fill-opacity=".64"/><path d="M21 65L7 74l-34-26z" fill="#FFF" fill-opacity=".58"/><path d="M140 177l12 17 30-12z" fill="#180E35" fill-opacity=".56"/><path d="M53 69L43 91l1 23z" fill="#F6ADFD" fill-opacity=".6"/><path d="M-1 146l-26 21 54-9z" fill="#FFC91F" fill-opacity=".74"/><path d="M60 155l-17-2-24 9z" fill="#F0AAEF" fill-opacity=".54"/><path d="M139 134l-52-26 36 71z" fill="#FF3C2D" fill-opacity=".44"/><path d="M52 160l-7-32 12 14z" fill="#D16DF3" fill-opacity=".47"/><path d="M182 190h-10l4-11z" fill="#DF9EFD" fill-opacity=".6"/><path d="M38 27l-9 12-15-13z" fill="#DD37F6" fill-opacity=".55"/><path d="M183 103l49-7-77-32z" fill="#FF3058" fill-opacity=".67"/><path d="M101 64L-5 42l-23 15z" fill="#C2030D" fill-opacity=".44"/><path d="M17 149l5-14 28 17z" fill="#660E00" fill-opacity=".56"/><path d="M109 188l-419-80 569 277z" fill="#0B0A0D" fill-opacity=".96"/><path d="M114 154l16 15-37-6z" fill="#3B1100" fill-opacity=".48"/><path d="M108 126l-22 64-31-30z" fill="#FF80FF" fill-opacity=".16"/><path d="M26 149l-35-19-28 17z" fill="#721100" fill-opacity=".69"/><path d="M46 157l16 12-76 45z" fill="#090A0C" fill-opacity=".79"/><path d="M14 82l-9 27-3-9z" fill="#F3E2FE" fill-opacity=".74"/><path d="M151 155l46-37-66 9z" fill="#6D2A57" fill-opacity=".81"/><path d="M5 108l40 1-81 63z" fill="#E2020E" fill-opacity=".38"/><path d="M116 181l36-31-25 38z" fill="#FFDBE9" fill-opacity=".52"/><path d="M95 139l17 8-16 12z" fill="#FFA184" fill-opacity=".53"/><path d="M45 89L1 114l38-45z" fill="#470B08" fill-opacity=".41"/><path d="M81 126l6-60 15 40z" fill="#764654" fill-opacity=".84"/><path d="M110 98L92 84l-7-13z" fill="#EEECF0" fill-opacity=".57"/><path d="M137 164l-35-12 26-40z" fill="#E8383F" fill-opacity=".55"/><path d="M186 170l-4 6-22-17z" fill="#DD3FE9" fill-opacity=".52"/><path d="M183 278l-42-80 74 6z" fill="#000626" fill-opacity=".53"/><path d="M34 155l17-1-16 10z" fill="#D3A2D2" fill-opacity=".55"/><path d="M53 19l85 6-35 13z" fill="#522923" fill-opacity=".62"/><path d="M69 68l16 7-35 5z" fill="#13131D" fill-opacity=".64"/><path d="M51 71l9-5-17 26z" fill="#EFF4FF" fill-opacity=".46"/><path d="M2 112l2-35-27-59z" fill="#831D73" fill-opacity=".85"/><path d="M18 17l34 4-32 1z" fill="#8F2AB2" fill-opacity=".63"/><path d="M114 71l-14-37 51 22z" fill="#D25D67" fill-opacity=".58"/><path d="M138 43l19 14-49-28z" fill="#B555B7" fill-opacity=".49"/><path d="M146 236l14-2-22-19z" fill="#8537EA" fill-opacity=".43"/><path d="M99 170l39 2-41-9z" fill="#FFECAF" fill-opacity=".68"/><path d="M119 180l-25-14 35 9z" fill="#DC7B50" fill-opacity=".47"/><path d="M148 171l-8-25 24 29z" fill="#BF40FA" fill-opacity=".44"/><path d="M138 130l-12 5 12-14z" fill="#C660B5" fill-opacity=".69"/><path d="M132 90l-15 18-22-21z" fill="#F9FAE8" fill-opacity=".73"/><path d="M123 108l28-50 41 22z" fill="#ED5B58" fill-opacity=".48"/><path d="M118 119L98 98l22 9z" fill="#AE8D2A" fill-opacity=".53"/><path d="M242 72l-87-11-43-57z" fill="#162717" fill-opacity=".68"/><path d="M106 108l22 2 3 42z" fill="#AD4702" fill-opacity=".31"/><path d="M113 73l-9 49-10 10z" fill="#BA968A" fill-opacity=".58"/><path d="M151 90l-5 13-14-1z" fill="#CBADFF" fill-opacity=".5"/><path d="M228 175l-50-46-17 24z" fill="#2B0909" fill-opacity=".4"/><path d="M175 173h-13l19 2z" fill="#FC6AFF" fill-opacity=".54"/><path d="M92 78l10 9 5 34z" fill="#F0EBDF" fill-opacity=".48"/><path d="M130 112l5-15-24 17z" fill="#969649" fill-opacity=".63"/><path d="M-43-2l77 21 83-17z" fill="#080C0D" fill-opacity=".65"/><path d="M172 97l59-19-92 3z" fill="#FB4460" fill-opacity=".59"/><path d="M184 203l-26-25-15 11z" fill="#130D2C" fill-opacity=".58"/><path d="M170 191l52-12-35 26z" fill="#681F73" fill-opacity=".54"/><path d="M75 67l-32 8 22-10z" fill="#EFC3FF" fill-opacity=".5"/><path d="M97 84L56 36l72 39z" fill="#833513" fill-opacity=".38"/><path d="M139 91l-25-6 11-19z" fill="#B4CE5E" fill-opacity=".43"/><path d="M126 191l-6-7-43 3z" fill="#181313" fill-opacity=".55"/><path d="M41 109l8-22 1 40z" fill="#C93AAF" fill-opacity=".61"/><path d="M153 177l-4-28 22 6z" fill="#822082" fill-opacity=".5"/><path d="M17 72l-50-15 47 3z" fill="#FFF" fill-opacity=".52"/><path d="M21 53l52-6-24 27z" fill="#9A1934" fill-opacity=".65"/><path d="M126 113l9 3 2-14z" fill="#FEF2FF" fill-opacity=".43"/><path d="M141 146l30-49-33 5z" fill="#46374A" fill-opacity=".47"/><path d="M65 116l-2-17-16 9z" fill="#391137" fill-opacity=".46"/><path d="M-19 25l44 2-47-33z" fill="#3F0A23" fill-opacity=".59"/><path d="M112 23l-33-7 28 30z" fill="#401411" fill-opacity=".29"/><path d="M50 155l-54-9 59 4z" fill="#6C2113" fill-opacity=".76"/><path d="M135 206l25-16-30-11z" fill="#C651FF" fill-opacity=".27"/><path d="M91 110l8 77-21-76z" fill="#833265" fill-opacity=".74"/><path d="M55 141l-11-21-28 19z" fill="#EA21C0" fill-opacity=".35"/><path d="M60 24h33l-56-5z" fill="#D57776" fill-opacity=".41"/><path d="M39 75l-20-9 34 7z" fill="#FF31A5" fill-opacity=".52"/><path d="M144 145l-10-18 22 26z" fill="#010D22" fill-opacity=".5"/><path d="M158 68l-27-20 24 12z" fill="#DC9066" fill-opacity=".58"/><path d="M90 30l-47-3 17 39z" fill="#B42842" fill-opacity=".64"/><path d="M190 66l-59-19 67 37z" fill="#543424" fill-opacity=".69"/><path d="M4 148l24 10 17-4z" fill="#FFAE0E" fill-opacity=".49"/><path d="M38 140l19 14-6-21z" fill="#DE6CFF" fill-opacity=".43"/><path d="M41 155l-34 7-4 7z" fill="#EAA8FF" fill-opacity=".55"/><path d="M35 34l-55 43-41-61z" fill="#E71270" fill-opacity=".47"/><path d="M121 38L90 68 80 28z" fill="#A81B1C" fill-opacity=".3"/><path d="M25 27l25 2-40 6z" fill="#ED3FFE" fill-opacity=".39"/><path d="M101 111v17l-14-4z" fill="#A33971" fill-opacity=".54"/><path d="M127 198l10-2-22-15z" fill="#592C99" fill-opacity=".45"/><path d="M132 177l-13 3 11 13z" fill="#FDEBD9" fill-opacity=".56"/><path d="M146 196l29 13-31 9z" fill="#241338" fill-opacity=".62"/><path d="M138 103l12-3-12-5z" fill="#E1B4F8" fill-opacity=".47"/><path d="M132 40l-12-4 14 9z" fill="#9F4EB1" fill-opacity=".52"/><path d="M101 93l5 24h-4z" fill="#FFFDFF" fill-opacity=".45"/><path d="M104 88L76 69l-2-5z" fill="#FADEFF" fill-opacity=".42"/><path d="M43 116l-73 22 74-6z" fill="#E11861" fill-opacity=".57"/><path d="M110 389l21-192 14 38z" fill="#0A090C" fill-opacity=".89"/><path d="M106 94l18 13 1-24z" fill="#FFF" fill-opacity=".54"/><path d="M100 83l7 16 7-15z" fill="#DDD88D" fill-opacity=".58"/><path d="M140 169l30 23h-24z" fill="#37113A" fill-opacity=".46"/><path d="M19 149l-19 6-11 20z" fill="#FFE020" fill-opacity=".61"/><path d="M145 169l9 4h20z" fill="#EA71FF" fill-opacity=".55"/><path d="M146 235l-9-51-3 17z" fill="#DE78FF" fill-opacity=".48"/><path d="M8 80l9-12-16-6z" fill="#FFF" fill-opacity=".56"/><path d="M5 173l9-7-8-3z" fill="#6621BA" fill-opacity=".57"/><path d="M195 137l-48-10 30-14z" fill="#82334D" fill-opacity=".41"/><path d="M5 101l-3 9-2-4z" fill="#EDA1FF" fill-opacity=".47"/><path d="M44 151l-53-8 39 9z" fill="#1A0000" fill-opacity=".39"/><path d="M60 55L46 35 18 52z" fill="#B7274F" fill-opacity=".74"/><path d="M133 92l18-3-14-8z" fill="#AA5725" fill-opacity=".57"/><path d="M20 142l4-17-20 16z" fill="#ED0B37" fill-opacity=".42"/><path d="M20 70l-8 15 18-12z" fill="#9E041C" fill-opacity=".6"/><path d="M98 147l-4-24 46 23z" fill="#EC4852" fill-opacity=".49"/><path d="M84 149l-16 1 7-14z" fill="#689265" fill-opacity=".41"/><path d="M17 78l6-21-13 22z" fill="#FC1467" fill-opacity=".48"/><path d="M127 151v6h7z" fill="#FFA479" fill-opacity=".63"/><path d="M189 118l3 23 5-57z" fill="#221814" fill-opacity=".56"/><path d="M144 190l13 5-24 4z" fill="#9235EA" fill-opacity=".42"/><path d="M150 96l9-2 5 42z" fill="#443239" fill-opacity=".67"/><path d="M176 64l-37-20 11 9z" fill="#7F4649" fill-opacity=".63"/><path d="M146 156l-18-41 13 47z" fill="#F396FF" fill-opacity=".54"/><path d="M52 156l53 14-12 19z" fill="#832788" fill-opacity=".36"/><path d="M76 160l-22-6 15-12z" fill="#5A1E50" fill-opacity=".48"/><path d="M146 172l-3-25 11 4z" fill="#D54FF9" fill-opacity=".39"/><path d="M180 97h-31l41 8z" fill="#121D0D" fill-opacity=".51"/><path d="M48 126l5-53 6 84z" fill="#772370" fill-opacity=".53"/><path d="M15 49l20 18-50-17z" fill="#D41226" fill-opacity=".57"/><path d="M46 76l-6 24-28-22z" fill="#5A0E16" fill-opacity=".46"/><path d="M17 151l4 6-22-10z" fill="#FFD325" fill-opacity=".55"/><path d="M96 80l10-9-29-8z" fill="#572F26" fill-opacity=".48"/><path d="M133 88l-38-7 21-7z" fill="#80B158" fill-opacity=".37"/><path d="M109 170l-6-2-4 6z" fill="#D88EAA" fill-opacity=".55"/><path d="M159 239l23 20-29-20z" fill="#5420C6" fill-opacity=".58"/><path d="M132 165l9 24 2-38z" fill="#EF99F7" fill-opacity=".54"/><path d="M160 249l57-2-36-22z" fill="#000700" fill-opacity=".28"/><path d="M96 126l-3 18 9 11z" fill="#E79795" fill-opacity=".59"/><path d="M8 100l6 16 8-29z" fill="#880B1F" fill-opacity=".52"/><path d="M132 177l17-10-6 15z" fill="#D54CCD" fill-opacity=".47"/><path d="M11 100l-26 18 11-3z" fill="#EFA3FB" fill-opacity=".62"/><path d="M99 161l38-1-36-8z" fill="#AC1912" fill-opacity=".46"/><path d="M151 110l4 26-5-12z" fill="#BA3667" fill-opacity=".5"/><path d="M182 205l5-6-7-3z" fill="#A540BA" fill-opacity=".53"/><path d="M130 116l-3 6 10 15z" fill="#E36FE6" fill-opacity=".41"/><path d="M134 121l19-27-16 11z" fill="#2E13B9" fill-opacity=".21"/><path d="M167 188l14-7-38 1z" fill="#170D1F" fill-opacity=".5"/><path d="M134 165l-3-42 8 30z" fill="#EA2081" fill-opacity=".34"/><path d="M54 99l27-20 7 21z" fill="#81386D" fill-opacity=".55"/><path d="M3 163l26-9-28 4z" fill="#F9972F" fill-opacity=".54"/><path d="M164 247l18 23-44-30z" fill="#070921" fill-opacity=".69"/><path d="M82 125l-27 14 27 4z" fill="#4D2129" fill-opacity=".47"/><path d="M77 196l-24-38-14 1z" fill="#0B1015" fill-opacity=".53"/><path d="M199 226l-43 10 38 29z" fill="#0E0C11" fill-opacity=".64"/><path d="M1 195l73-16-65-13z" fill="#0A0B0C" fill-opacity=".64"/><path d="M124 42l17 13-33-12z" fill="#CA50AB" fill-opacity=".49"/><path d="M46 149l-12-4 8-6z" fill="#7D1592" fill-opacity=".45"/><path d="M7 72l-2 6-14-18z" fill="#FD64FF" fill-opacity=".5"/><path d="M14 60l6 13-3-32z" fill="#DC1A52" fill-opacity=".6"/><path d="M172 96l-16-8-10 5z" fill="#DE4782" fill-opacity=".43"/><path d="M129 55l-27-13 5 33z" fill="#C85952" fill-opacity=".43"/><path d="M53 73l26-3 17 16z" fill="#2F2527" fill-opacity=".49"/><path d="M159 172l-9-7 21 2z" fill="#080927" fill-opacity=".45"/><path d="M-7 18l26-2 2 8z" fill="#61164E" fill-opacity=".51"/><path d="M34 72l-10-1 13 32z" fill="#661520" fill-opacity=".54"/><path d="M46 120h3l-6-25z" fill="#FF9FFF" fill-opacity=".5"/><path d="M1 107l3-31-58-36z" fill="#69164D" fill-opacity=".54"/><path d="M34 158l25 88-39-73z" fill="#0D0B0F" fill-opacity=".92"/><path d="M70 179l30 9-43-22z" fill="#732C52" fill-opacity=".61"/><path d="M28 152l-18-2v6z" fill="#FDE834" fill-opacity=".65"/><path d="M199 107l-57-55 26 41z" fill="#FF5B75" fill-opacity=".38"/><path d="M117 79l21 14-26 15z" fill="#FFFFF1" fill-opacity=".2"/><path d="M188 218l-29-26 6-9z" fill="#060C15" fill-opacity=".54"/><path d="M13 92l-2-15-6 14z" fill="#FFF" fill-opacity=".49"/><path d="M146 130l4 5-1-5z" fill="#181A07" fill-opacity=".56"/><path d="M163 65l17 9-7 1z" fill="#B7191E" fill-opacity=".45"/><path d="M96 181l32 7-62 37z" fill="#1E1517" fill-opacity=".42"/></svg>