<svg xmlns="http://www.w3.org/2000/svg" viewBox="0 0 256 192" clip-path="url(#a)" width="512" height="384"><defs><clipPath id="a" clipPathUnits="objectBoundingBox"><path d="M0 0h256v192H0z"/></clipPath></defs><path fill="#635B51" d="M0 0h256v192H0z"/><path d="M142-23L53-6l40 75z" fill="#B2D9F2" fill-opacity=".95"/><path d="M-12 167l215-71 21 256z" fill="#DB978C" fill-opacity=".62"/><path d="M112 204l9-40 86-48z" fill="#FFBEB7" fill-opacity=".61"/><path d="M99 79l148-33-23-71z" fill="#ACD1FE" fill-opacity=".45"/><path d="M149 96l4 17-15-9z" fill="#FFD7C8" fill-opacity=".53"/><path d="M122 66L70 46l51 83z" fill="#6E6C5C"/><path d="M-2-7l-45 126 127 22z" fill="#323230" fill-opacity=".74"/><path d="M255 47l-65 46 68 100z" fill="#110805" fill-opacity=".66"/><path d="M-35 150l65-3-3-31z" fill="#F2FFFF" fill-opacity=".32"/><path d="M223 144l-12 255-68-237z" fill="#D3341C" fill-opacity=".55"/><path d="M135 166l-50-20 56-9z" fill="#2D484E" fill-opacity=".49"/><path d="M7 178l14-26 22 16z" fill="#EFFEF9" fill-opacity=".5"/><path d="M139 186l9-20-36-6z" fill="#EAF9E1" fill-opacity=".54"/><path d="M125 84l-16-37 85-30z" fill="#A5BBC8" fill-opacity=".51"/><path d="M166 26l-35-57-12 70z" fill="#050910" fill-opacity=".63"/><path d="M258 74l-44-8-8-48z" fill="#B4B4AE" fill-opacity=".36"/><path d="M66 106l29 91 25-69z" fill="#B5D1CC" fill-opacity=".44"/><path d="M67 43l36 14 27-64z" fill="#C6ECFF" fill-opacity=".62"/><path d="M161-18l21 4-13 32z" fill="#9CB9DE" fill-opacity=".48"/><path d="M129 113l1 29-16-5z" fill="#B6D8DB" fill-opacity=".62"/><path d="M52 174l38-7-28 58z" fill="#002931" fill-opacity=".38"/><path d="M309 296l-35-132-171 28z" fill="#7B4F2F" fill-opacity=".88"/><path d="M117 92l12 6 6-18z" fill="#1C1201" fill-opacity=".49"/><path d="M118 102l-11 8 26 3z" fill="#A1CDF2" fill-opacity=".47"/><path d="M16 107l-2 6-41-6z" fill="#FFFFBE" fill-opacity=".51"/><path d="M82 137l-36 20-14-25z" fill="#0D273B" fill-opacity=".44"/><path d="M-4 112l3-74 29 20z" fill="#07080B" fill-opacity=".55"/><path d="M254 31l-43-1-3-13z" fill="#60655B" fill-opacity=".6"/><path d="M210 107l-78 79 92-15z" fill="#FF6264" fill-opacity=".44"/><path d="M98 145l-26-15 18-6z" fill="#DCDBDB" fill-opacity=".52"/><path d="M105 172l6-91 2 96z" fill="#382F2A" fill-opacity=".4"/><path d="M198 16l-48 41-5 47z" fill="#B4BACE" fill-opacity=".36"/><path d="M70 147l-10-43 9-21z" fill="#0A0A0D" fill-opacity=".5"/><path d="M162 107l16-54 8 72z" fill="#0E0401" fill-opacity=".53"/><path d="M187 57h-18l11 29z" fill="#00020A" fill-opacity=".43"/><path d="M256 77l-20-30 20-65z" fill="#28321B" fill-opacity=".59"/><path d="M238 135l1 31h-40z" fill="#390006" fill-opacity=".43"/><path d="M183 107l-2-36 37-10z" fill="#EAA587" fill-opacity=".51"/><path d="M49 226l-39-53 28-3z" fill="#5FB0E4" fill-opacity=".36"/><path d="M53 74l-9-12 76 4z" fill="#9CAEB5" fill-opacity=".59"/><path d="M221 150l-26-22-64 23z" fill="#FF9EB6" fill-opacity=".57"/><path d="M170 21l18-37 3 36z" fill="#071D3C" fill-opacity=".51"/><path d="M149 142l3 14-19-3z" fill="#FFF3C8" fill-opacity=".58"/><path d="M91 113l9-23-3 64z" fill="#493647" fill-opacity=".47"/><path d="M17 147l-19 4 8-24z" fill="#DADCE7" fill-opacity=".39"/><path d="M124 154l-69 20-30-19z" fill="#BCD4CD" fill-opacity=".48"/><path d="M68 99l5-19 75-3z" fill="#9F866A" fill-opacity=".54"/><path d="M-1 89l118-3-83-10z" fill="#747273" fill-opacity=".56"/><path d="M194 68l-10 10 4-60z" fill="#9EA7BA" fill-opacity=".74"/><path d="M16 117l3-14 14 12z" fill="#9D9384" fill-opacity=".45"/><path d="M125 47l3-45-22 45z" fill="#2B2527" fill-opacity=".59"/><path d="M131 50l-30 11-16-19z" fill="#E2FFDF" fill-opacity=".43"/><path d="M1 152h108l-11-7z" fill="#455156" fill-opacity=".6"/><path d="M97 125l4 18 7-15z" fill="#D0E2E9" fill-opacity=".52"/><path d="M84 118l45-3-42-15z" fill="#274B6E" fill-opacity=".58"/><path d="M96 187l-10-24 50 25z" fill="#D3CFAF" fill-opacity=".56"/><path d="M68 46l-1 37 22-31z" fill="#182541" fill-opacity=".39"/><path d="M260-3l-9 33-34-44z" fill="#141F0E" fill-opacity=".45"/><path d="M44 79l34-61-85-73z" fill="#396474" fill-opacity=".4"/><path d="M84 187l-30 6 83-4z" fill="#FFE583" fill-opacity=".46"/><path d="M168 11l7 18-18-10z" fill="#80A3D1" fill-opacity=".5"/><path d="M190 119l-11-30 16 4z" fill="#D9A180" fill-opacity=".59"/><path d="M22 152l-17 6 18-17z" fill="#24293C" fill-opacity=".5"/><path d="M38 52l18 1 2-5z" fill="#96B5C5" fill-opacity=".59"/><path d="M205-14l42 59-1-19z" fill="#848C92" fill-opacity=".62"/><path d="M129 146v-32l38 25z" fill="#98684C" fill-opacity=".62"/><path d="M192 55l3 12 19-12z" fill="#030008" fill-opacity=".41"/><path d="M125 66l-9-13-34 28z" fill="#546129" fill-opacity=".57"/><path d="M134 180l86-14-51 17z" fill="#E4D76D" fill-opacity=".51"/><path d="M-14 279l5-140 30 58z" fill="#905440" fill-opacity=".94"/><path d="M59 76l4 88-30-71z" fill="#5E565A" fill-opacity=".54"/><path d="M149 179l83-22-54-11z" fill="#FF0020" fill-opacity=".31"/><path d="M174 39l59 26-5-39z" fill="#999FB4" fill-opacity=".64"/><path d="M-1 159l15 18 20-19z" fill="#E3E2DF" fill-opacity=".53"/><path d="M190 127l2-30 37 42z" fill="#B14935" fill-opacity=".48"/><path d="M156 3h12l-15 23z" fill="#080C14" fill-opacity=".54"/><path d="M186 61l-26 51h9z" fill="#17191A" fill-opacity=".79"/><path d="M-29 106l58 1 9-16z" fill="#040506" fill-opacity=".57"/><path d="M3 130l7-1 4 10z" fill="#E7F1FC" fill-opacity=".59"/><path d="M75 106l-4 7 23-3z" fill="#B1C4DD" fill-opacity=".45"/><path d="M121 75l-1-12-13-1z" fill="#2C3D1E" fill-opacity=".48"/><path d="M215 59l30 12 34 167z" fill="#000104" fill-opacity=".42"/><path d="M207-50l-5 67-16 1z" fill="#01449E" fill-opacity=".29"/><path d="M175 102l-34 74 56-34z" fill="#FF7B85" fill-opacity=".28"/><path d="M172 122l-5 2 4-21z" fill="#4B3514" fill-opacity=".5"/><path d="M114 73L40 63l58-2z" fill="#BABEB3" fill-opacity=".36"/><path d="M63 89l9 11-7 19z" fill="#000407" fill-opacity=".5"/><path d="M157 86l-5 13 23-5z" fill="#030006" fill-opacity=".52"/><path d="M90 108l-4-4-9 9z" fill="#9FB9D5" fill-opacity=".53"/><path d="M34 25l-9-1 9 21z" fill="#7791AA" fill-opacity=".54"/><path d="M210 95l-21-29 4 34z" fill="#8A6556" fill-opacity=".47"/><path d="M194 71l-11 10 11-46z" fill="#A09EA9" fill-opacity=".74"/><path d="M73 3L54 52l21-7z" fill="#688EA8" fill-opacity=".44"/><path d="M101 184l-48 7 26-27z" fill="#384651" fill-opacity=".45"/><path d="M126 116h14l-13 10z" fill="#F0D5A0" fill-opacity=".47"/><path d="M112 177l6-36-13-2z" fill="#4B4D4F" fill-opacity=".51"/><path d="M129 109l45 9-15 12z" fill="#4B4942" fill-opacity=".4"/><path d="M46 37L12-17l56 48z" fill="#3B4241" fill-opacity=".72"/><path d="M30 110l-6 9-14-13z" fill="#A5998B" fill-opacity=".42"/><path d="M124 105l-4-7h17z" fill="#F1E8E4" fill-opacity=".44"/><path d="M155 92l-28-54 25-6z" fill="#8EA1B8" fill-opacity=".56"/><path d="M180 3l-7 3v22z" fill="#030101" fill-opacity=".5"/><path d="M89 81l10-15-26 13z" fill="#39333E" fill-opacity=".48"/><path d="M-2 107l-39 17 56-17z" fill="#FDDBAB" fill-opacity=".63"/><path d="M148 161l-14 2 5 21z" fill="#F5FFF4" fill-opacity=".44"/><path d="M187 112l-2 11-20-6z" fill="#714824" fill-opacity=".59"/><path d="M126 86l-20 1 27 8z" fill="#0B0105" fill-opacity=".44"/><path d="M10 138l19-2-8-10z" fill="#454A42" fill-opacity=".44"/><path d="M68 46l35 13-60 3z" fill="#32373E" fill-opacity=".66"/><path d="M159 95l-3-5-27 5z" fill="#2D210E" fill-opacity=".48"/><path d="M74 96l17-19 30 22z" fill="#B96F53" fill-opacity=".5"/><path d="M199 141l11 3 95-2z" fill="#1D1613" fill-opacity=".75"/><path d="M141 70h-9l6 10z" fill="#33373B" fill-opacity=".68"/><path d="M51 79l12 6 31-2z" fill="#79A5D6" fill-opacity=".46"/><path d="M240 7l-3 5 11-4z" fill="#A5B7B3" fill-opacity=".48"/><path d="M115 125l-1 8 9 3z" fill="#C0E9FF" fill-opacity=".6"/><path d="M168 92l12-36 5 19z" fill="#191B1C" fill-opacity=".65"/><path d="M279 58l-48-1 37 48z" fill="#585E39" fill-opacity=".73"/><path d="M167 67l-14 4 11 24z" fill="#944A3B" fill-opacity=".53"/><path d="M21 145l12 10-43 4z" fill="#3F4148" fill-opacity=".67"/><path d="M140 179l-43 13 64-9z" fill="#D2A55E" fill-opacity=".69"/><path d="M41 124L28 82l4 52z" fill="#0B0B0C" fill-opacity=".58"/><path d="M174 30l-11-2 7 56z" fill="#94A2B7" fill-opacity=".76"/><path d="M98 61L73 72l16 1z" fill="#A5A6A2" fill-opacity=".65"/><path d="M117 170l17 6-26-21z" fill="#CBD5C9" fill-opacity=".5"/><path d="M38 155l7 58 19-13z" fill="#926B57" fill-opacity=".74"/><path d="M118 164l-27-27 51 25z" fill="#686261" fill-opacity=".49"/><path d="M122 57h-9l8-10z" fill="#EFFFF9" fill-opacity=".46"/><path d="M111 187l46-8-30-8z" fill="#F8E2B6" fill-opacity=".47"/><path d="M166 98v7l-16-2z" fill="#97888C" fill-opacity=".52"/><path d="M87-54L65 27 40-16z" fill="#9CBCD8" fill-opacity=".34"/><path d="M159 129l14-7 23-2z" fill="#E9D6A3" fill-opacity=".4"/><path d="M215 60l16-31 8 28z" fill="#9F9FA6" fill-opacity=".68"/><path d="M130 141l-2-11-12-1z" fill="#C7EDFF" fill-opacity=".5"/><path d="M19 174h14l11 19z" fill="#605E5F" fill-opacity=".51"/><path d="M74 154l24 30 13-34z" fill="#D5D7D3" fill-opacity=".38"/><path d="M137 95l-10 13 8 4z" fill="#2B2F30" fill-opacity=".5"/><path d="M229 170l49 3-64-103z" fill="#1C1717" fill-opacity=".5"/><path d="M143 84l-23-9 37 3z" fill="#9AAB9D" fill-opacity=".46"/><path d="M227 148l-11-14 11 24z" fill="#3D0E13" fill-opacity=".49"/><path d="M235 60l14-6-5-13z" fill="#212715" fill-opacity=".65"/><path d="M45 164l22 1-3-12z" fill="#79807B" fill-opacity=".52"/><path d="M-16-13L28-3l-2 53z" fill="#445141" fill-opacity=".76"/><path d="M89 149l5-15-29-17z" fill="#D2D3C9" fill-opacity=".42"/><path d="M114 114l12 11-12 2z" fill="#004650" fill-opacity=".44"/><path d="M12 128l-81 6 95-23z" fill="#272825" fill-opacity=".6"/><path d="M173 17l-6-36-3 61z" fill="#8C9AAF" fill-opacity=".69"/><path d="M126 79l7-2-14-32z" fill="#CCCEBB" fill-opacity=".5"/><path d="M193 93l3 14 10-37z" fill="#523933" fill-opacity=".48"/><path d="M31 186l-4-7H10z" fill="#D3E6FF" fill-opacity=".41"/><path d="M142 84l-15 7 13-10z" fill="#2B281E" fill-opacity=".57"/><path d="M40 72l7 11 38-8z" fill="#34353A" fill-opacity=".53"/><path d="M103 165l14 5-11 4z" fill="#051F17" fill-opacity=".42"/><path d="M104 105l14 8-10-11z" fill="#95A6AB" fill-opacity=".5"/><path d="M15 137l20 12-4-17z" fill="#A1A3A7" fill-opacity=".47"/><path d="M77 188l33-3-29 16z" fill="#F9D089" fill-opacity=".53"/><path d="M259 43l-30-21-9 1z" fill="#484D39" fill-opacity=".73"/><path d="M70 147l16 39-11-34z" fill="#596766" fill-opacity=".43"/><path d="M143 77l19-14 1 4z" fill="#D1CCBF" fill-opacity=".36"/><path d="M209 121l44-43-46 13z" fill="#111" fill-opacity=".5"/><path d="M-34 71l48 14 33-31z" fill="#1C1C1C" fill-opacity=".49"/><path d="M195 123l-18-2 30 16z" fill="#B9B1A3" fill-opacity=".42"/><path d="M97 159l14 22-10 1z" fill="#D0D5D5" fill-opacity=".5"/><path d="M98 116l11 6-9-20z" fill="#1C222C" fill-opacity=".52"/><path d="M233 168l-56 11 41-13z" fill="#CCA04A" fill-opacity=".68"/><path d="M39 165l-28-7 30-5z" fill="#DEC5AE" fill-opacity=".59"/><path d="M127 113l9 4-14 9z" fill="#C2B585" fill-opacity=".47"/><path d="M163-1L136 9 95-42z" fill="#1D1D1E"/><path d="M79 105l-20-3 22-6z" fill="#292B23" fill-opacity=".48"/><path d="M130 110l14 3-3-14z" fill="#656360" fill-opacity=".43"/><path d="M85 38l-18-6 14 17z" fill="#9ECBE3" fill-opacity=".52"/><path d="M198 132l-12-9-29 15z" fill="#BF8E5E" fill-opacity=".47"/><path d="M56 156h6l-2-8z" fill="#B9CBC2" fill-opacity=".48"/><path d="M221 166l-40 6 26-23z" fill="#C8252B" fill-opacity=".5"/><path d="M254 12l6 23-12 18z" fill="#171B0B" fill-opacity=".52"/><path d="M147 8l11-3 15-15z" fill="#90AED3" fill-opacity=".43"/><path d="M101 52l5 23-9-20z" fill="#7B943C" fill-opacity=".46"/><path d="M106 115l2 41 6-48z" fill="#85594B" fill-opacity=".58"/><path d="M120 163l5 4-2-30z" fill="#5D585C" fill-opacity=".46"/><path d="M206 190l57 25-36-34z" fill="#8A6D56" fill-opacity=".57"/><path d="M203 15l-33 41h34z" fill="#95A1B7" fill-opacity=".69"/><path d="M244 43l-1 8-8-8z" fill="#050000" fill-opacity=".51"/><path d="M59 119l15 24-9-34z" fill="#111" fill-opacity=".64"/><path d="M24 38h-2l2 2z" fill="#DBF5FF" fill-opacity=".55"/><path d="M16 129l16-9-11-13z" fill="#89837F" fill-opacity=".44"/><path d="M241 7l12 5-28-7z" fill="#858F84" fill-opacity=".48"/><path d="M54 73l2-11 10 8z" fill="#BFDCF5" fill-opacity=".43"/><path d="M124 44l4 31 2-50z" fill="#929CAE" fill-opacity=".44"/><path d="M47 42l-1 17 6-7z" fill="#A5C4DC" fill-opacity=".4"/><path d="M80 85l4 3-37-2z" fill="#091D3C" fill-opacity=".5"/><path d="M14 128l-33 5 30 4z" fill="#BFCFE3" fill-opacity=".52"/><path d="M75 53l-2 25-4-18z" fill="#2D333F" fill-opacity=".62"/><path d="M215 118l12-7-16 29z" fill="#784036" fill-opacity=".49"/><path d="M110 36L64 10l126-134z" fill="#B0DEFF" fill-opacity=".74"/><path d="M21 76l23 4-23 18z" fill="#8D7A60" fill-opacity=".4"/><path d="M236 38l13 10-12-20z" fill="#AAA8A7" fill-opacity=".5"/><path d="M210 142l-20-27 36 23z" fill="#C25447" fill-opacity=".56"/><path d="M145 90l17-2h-32z" fill="#F8CE83" fill-opacity=".56"/><path d="M92 140H75l-3 7z" fill="#BBCBC4" fill-opacity=".5"/><path d="M4 83l11 21-106 4z" fill="#1A1918" fill-opacity=".91"/></svg>