<svg xmlns="http://www.w3.org/2000/svg" viewBox="0 0 192 256" clip-path="url(#a)" width="384" height="512"><defs><clipPath id="a" clipPathUnits="objectBoundingBox"><path d="M0 0h192v256H0z"/></clipPath></defs><path fill="#5B5750" d="M0 0h192v256H0z"/><path d="M216 87L108 63l70-133z" fill="#FFFFFB" fill-opacity=".78"/><path d="M80 63l58-50-3 40z" fill="#555A29" fill-opacity=".69"/><path d="M104 108v14l50 14z" fill="#FFF" fill-opacity=".54"/><path d="M234 74l-56-12 16-38z" fill="#190803" fill-opacity=".85"/><path d="M230 159L69 401-9 92z" fill="#1F1518" fill-opacity=".6"/><path d="M12 97l105 30-27-27z" fill="#F4EFE4" fill-opacity=".44"/><path d="M-18 214l31-79 66 45z" fill="#B28E6A" fill-opacity=".71"/><path d="M157 89l16-21 66 54z" fill="#473C06" fill-opacity=".54"/><path d="M38 23L-88-27 13 80z" fill="#1A1D0A" fill-opacity=".79"/><path d="M117 78l-5 24-14-26z" fill="#E4E7E2" fill-opacity=".58"/><path d="M19 99l17-16-57-8z" fill="#C5C3C5" fill-opacity=".73"/><path d="M-5-1l27 18-3-26z" fill="#C4E7FF" fill-opacity=".5"/><path d="M27 144l17-3v13z" fill="#EEC597" fill-opacity=".49"/><path d="M193 73l-59-86 8 90z" fill="#FFF" fill-opacity=".64"/><path d="M48 50l-20 8 8-19z" fill="#CAC4B2" fill-opacity=".64"/><path d="M127 130l56 4-80 93z" fill="#191914" fill-opacity=".73"/><path d="M36 197l108 143-199-118z" fill="#282222" fill-opacity=".97"/><path d="M174 125l-101 2 37-21z" fill="#BAAC88" fill-opacity=".61"/><path d="M106 60l-29-2 54 31z" fill="#00001F" fill-opacity=".61"/><path d="M113 139l-52-28-16 25z" fill="#030227" fill-opacity=".73"/><path d="M181 63l41-14-46 8z" fill="#150000" fill-opacity=".5"/><path d="M113 59l13 24 26-55z" fill="#E8EBE7" fill-opacity=".59"/><path d="M28 61l56-47-31 70z" fill="#1F2000" fill-opacity=".53"/><path d="M34 198L1 184l75-14z" fill="#F4D2A1" fill-opacity=".38"/><path d="M13 182v-17l67-1z" fill="#1E1214" fill-opacity=".54"/><path d="M16 144l-83-20 115 3z" fill="#240E0A" fill-opacity=".93"/><path d="M101 108l7-17 32 19z" fill="#431A09" fill-opacity=".44"/><path d="M144 87l26 6-9 18z" fill="#E4E7E9" fill-opacity=".44"/><path d="M69 70l-26 74-6-66z" fill="#A39B12" fill-opacity=".34"/><path d="M21 2l12 20 10 4z" fill="#86A29E" fill-opacity=".51"/><path d="M200 101l-19 14 1 34z" fill="#92A7AD" fill-opacity=".57"/><path d="M139 135l-58-27 57 17z" fill="#DDF1FF" fill-opacity=".45"/><path d="M145 26L82 47 37-6z" fill="#3B411F" fill-opacity=".61"/><path d="M134 8l136-88L163 70z" fill="#FEFFFF" fill-opacity=".92"/><path d="M26 83l-12 4 15 4z" fill="#34537F" fill-opacity=".55"/><path d="M132 26l-7 29L24 12z" fill="#434828" fill-opacity=".46"/><path d="M56 185l42 12 7-39z" fill="#5C5A66" fill-opacity=".54"/><path d="M170 182l22-20-44-39z" fill="#0E1809" fill-opacity=".74"/><path d="M101 129l-7-14-8 7z" fill="#FFFAFF" fill-opacity=".53"/><path d="M92 48l-29 1 23 11z" fill="#BAC494" fill-opacity=".46"/><path d="M133 76l-18 19 46 19z" fill="#3C3D24" fill-opacity=".78"/><path d="M176 134l59 18h-47z" fill="#6787A8" fill-opacity=".65"/><path d="M184 257l22-40-34 17z" fill="#AC90A9" fill-opacity=".4"/><path d="M114 95L89 85l37-10z" fill="#C0BFC0" fill-opacity=".51"/><path d="M120 71l18-2-29-15z" fill="#FDFFFF" fill-opacity=".44"/><path d="M178 88l-12 13 10 7z" fill-opacity=".5"/><path d="M7 169l-35-6 75-4z" fill="#EECA9F" fill-opacity=".45"/><path d="M-20 66l77-9-23 28z" fill="#373B0C" fill-opacity=".48"/><path d="M217 123l-30 2-33-26z" fill="#A1A481" fill-opacity=".59"/><path d="M83 101l20 3-6-29z" fill="#230101" fill-opacity=".36"/><path d="M138 11l-7-23 1 39z" fill="#C8CA92" fill-opacity=".47"/><path d="M100 56L86 93H66z" fill="#26220C" fill-opacity=".43"/><path d="M167 92l20-20-51 7z" fill="#1A0920" fill-opacity=".5"/><path d="M70 31L14 51l38-26z" fill="#102200" fill-opacity=".38"/><path d="M101 161l-66-20 58-7z" fill="#181215" fill-opacity=".68"/><path d="M190 37l-1 28-12-4z" fill="#271812" fill-opacity=".58"/><path d="M118 119l28-5-54-8z" fill="#AD9446" fill-opacity=".63"/><path d="M-8 117l49-3-47-30z" fill="#02045E" fill-opacity=".66"/><path d="M41 136l4 36 37-2z" fill="#574641" fill-opacity=".61"/><path d="M144 127l4-13 36 16z" fill="#C8A93C" fill-opacity=".5"/><path d="M79 42l-4-4-9 21z" fill="#C7D9BA" fill-opacity=".39"/><path d="M148 181L4 263l173-7z" fill="#282525" fill-opacity=".94"/><path d="M187 124l-29-4-14-16z" fill="#251903" fill-opacity=".63"/><path d="M-7 161l31-19-35 4z" fill="#C89D6B" fill-opacity=".6"/><path d="M183 112l-2-12-12 12z" fill="#B3B48B" fill-opacity=".55"/><path d="M105 200l-8-5 10 15z" fill="#92A5CA" fill-opacity=".49"/><path d="M45 44l13 30 19-15z" fill="#221E04" fill-opacity=".47"/><path d="M83 85l34 1-20 5z" fill="#BBACA6" fill-opacity=".45"/><path d="M131 87l14-3 4 8z" fill="#A29C8F" fill-opacity=".53"/><path d="M142 47l-29-7-9 23z" fill="#8C9173" fill-opacity=".44"/><path d="M23 82l28 4-12 5z" fill="#B6C5B0" fill-opacity=".46"/><path d="M153 99l-8-9 4 19z" fill="#001209" fill-opacity=".55"/><path d="M61 92l-9 23 47-9z" fill="#B1B2B5" fill-opacity=".42"/><path d="M6 3l49 31L-1-9z" fill="#93A6AC" fill-opacity=".59"/><path d="M20 98l2 33-49-46z" fill="#00044A" fill-opacity=".52"/><path d="M41 42l3 10-16-1z" fill="#EEE4DB" fill-opacity=".47"/><path d="M185 109v13l-14-5z" fill="#6D6900" fill-opacity=".51"/><path d="M54 189l13-20-32 16z" fill="#CEB99D" fill-opacity=".56"/><path d="M211 64l-35 4 16 16z" fill="#FCFDF9" fill-opacity=".72"/><path d="M13 71l19 4-7-12z" fill="#8C7F44" fill-opacity=".57"/><path d="M112 124l-1 35-14-40z" fill="#4F3D41" fill-opacity=".6"/><path d="M159 154l-43-19-17 44z" fill="#1E0705" fill-opacity=".57"/><path d="M33 75l-4-2v6z" fill="#D4CF93" fill-opacity=".62"/><path d="M189 92l-3-22-9 18z" fill="#BBB82B" fill-opacity=".46"/><path d="M4 29L-12 7l53 12z" fill="#4B3F36" fill-opacity=".61"/><path d="M93 172l-28 6 50 13z" fill="#59575E" fill-opacity=".72"/><path d="M122 66l53 2 15-39z" fill="#FDFEFE" fill-opacity=".86"/><path d="M124 49l1-20-26-2z" fill="#3A391E" fill-opacity=".42"/><path d="M95 113l12-1-31-16z" fill="#E6DFD9" fill-opacity=".43"/><path d="M4 119l43 4-7 18z" fill="#4D0500" fill-opacity=".45"/><path d="M102 158l-13 23 14-37z" fill="#6E7286" fill-opacity=".63"/><path d="M114 23L53-33l21 50z" fill="#2E3409" fill-opacity=".36"/><path d="M77 61l8-4 38 20z" fill="#000016" fill-opacity=".5"/><path d="M116 66L91 56l30 24z" fill="#00051E" fill-opacity=".48"/><path d="M47 56l-9-4 1-4z" fill="#D8D7D0" fill-opacity=".49"/><path d="M32 56L3 26 0 82z" fill="#181908" fill-opacity=".49"/><path d="M11 81l1 14-8-16z" fill="#FFFAF1" fill-opacity=".51"/><path d="M145 129l-20-9 22 1z" fill="#5C683B" fill-opacity=".62"/><path d="M28 101l-2-16 13 9z" fill="#292F08" fill-opacity=".47"/><path d="M6 6L-4 9l-34-49z" fill="#BFD9EF" fill-opacity=".73"/><path d="M68 49l-2-24-18 15z" fill="#262D10" fill-opacity=".6"/><path d="M189 134l2-8 13 16z" fill="#090310" fill-opacity=".62"/><path d="M130 56l59 14-43 7z" fill="#FFF" fill-opacity=".69"/><path d="M77 96l-7-11-22 5z" fill="#2B5201" fill-opacity=".61"/><path d="M25 163l-7-15 32 15z" fill="#DABF9C" fill-opacity=".4"/><path d="M25 29l6-11 13 18z" fill="#4B5232" fill-opacity=".56"/><path d="M123-21l13 51L80-4z" fill="#6D7125" fill-opacity=".55"/><path d="M58 111l28 5-8 19z" fill="#0B0F42" fill-opacity=".64"/><path d="M53-30l21 48h-8z" fill="#6E6F61" fill-opacity=".62"/><path d="M136 26l-3 14 11 5z" fill="#A9A990" fill-opacity=".45"/><path d="M153 108l15 3-15-24z" fill="#A3A7A8" fill-opacity=".48"/><path d="M184 179l18 39-33 17z" fill="#14161E" fill-opacity=".74"/><path d="M143 199l50-3-45-23z" fill="#525769" fill-opacity=".27"/><path d="M82 189l6-1 6-13z" fill="#7B85A2" fill-opacity=".54"/><path d="M70 66L38 96l47-31z" fill="#89980C" fill-opacity=".45"/><path d="M168 149l-6-15 19-19z" fill="#1F3800" fill-opacity=".43"/><path d="M42 104l3-11-11 6z" fill="#C7BAC7" fill-opacity=".44"/><path d="M63 84h20V66z" fill="#A8916D" fill-opacity=".34"/><path d="M49 89l17 10-14 3z" fill="#173F22" fill-opacity=".44"/><path d="M8 171l12 8 30-18z" fill="#34241E" fill-opacity=".56"/><path d="M107 149l1 5-12 26z" fill="#9AA6CA" fill-opacity=".44"/><path d="M76 54l9-21 17 11z" fill="#6F7656" fill-opacity=".48"/><path d="M35 109l3-5 34 13z" fill="#80872B" fill-opacity=".53"/><path d="M153 125l19 53-35-43z" fill="#1A2721" fill-opacity=".55"/><path d="M16 148l34-6H22z" fill="#E5C89B" fill-opacity=".5"/><path d="M9 79l15 2-23 7z" fill="#FBF8F2" fill-opacity=".45"/><path d="M176 103l-9-17 13 8z" fill="#010212" fill-opacity=".59"/><path d="M100 195v5l-14-19z" fill="#7E8CA9" fill-opacity=".44"/><path d="M113 94l-17 12-7-5z" fill="#473C27" fill-opacity=".61"/><path d="M32 196l-14-18-115 46z" fill="#B58E63" fill-opacity=".74"/><path d="M125 73l13-5-7 11z" fill="#1A2711" fill-opacity=".5"/><path d="M111 130l16-4-26 16z" fill="#8D817A" fill-opacity=".32"/><path d="M22-3l18 26 6-10z" fill="#182A11" fill-opacity=".48"/><path d="M138 91v-7l12 6z" fill="#97978F" fill-opacity=".51"/><path d="M101 175l-8 5-2-4z" fill="#9DA4BC" fill-opacity=".44"/><path d="M179 165l15 24-3-37z" fill="#485C1B" fill-opacity=".54"/><path d="M190 221l-15-10 39-1z" fill="#000207" fill-opacity=".56"/><path d="M64 188l11-16 12 14z" fill="#423633" fill-opacity=".84"/><path d="M148 81l-14-19 1 14z" fill="#849186" fill-opacity=".51"/><path d="M99 114l-14 12 10-1z" fill="#EDF2FE" fill-opacity=".45"/><path d="M109 1l12-9-2 19z" fill="#3E4012" fill-opacity=".59"/><path d="M127 101l10 12-33-10z" fill="#380F16" fill-opacity=".42"/><path d="M130 84v-8l42 7z" fill="#2B261F" fill-opacity=".67"/><path d="M93 74l31 9-31-12z" fill="#FFF6FF" fill-opacity=".32"/><path d="M136 16l2 25 4-19z" fill="#90905B" fill-opacity=".36"/><path d="M186 128l17 51-32-55z" fill="#6E8080" fill-opacity=".43"/><path d="M66 181l-15-7 16-4z" fill="#BBA68B" fill-opacity=".72"/><path d="M47 152l5 23-8 5z" fill="#493A34" fill-opacity=".42"/><path d="M139 98l14 4-16-13z" fill="#010E0E" fill-opacity=".5"/><path d="M181 95l-1-6v10z" fill="#B6AF77" fill-opacity=".5"/><path d="M26 113l-6 21 25-18z" fill="#5C1E09" fill-opacity=".55"/><path d="M182 246l-18-17-3 4z" fill="#60606E" fill-opacity=".56"/><path d="M10 144l-8-17-16 17z" fill="#070706" fill-opacity=".65"/><path d="M39 77l18-3-17-7z" fill="#766750" fill-opacity=".58"/><path d="M93 57l-2-7-15 8z" fill="#C2C991" fill-opacity=".5"/><path d="M139 133l-25-2 34 14z" fill="#13240F" fill-opacity=".53"/><path d="M62 63L37 53l-5 16z" fill="#181616" fill-opacity=".6"/><path d="M68 164l-38-9 15-6z" fill="#5A4A43" fill-opacity=".56"/><path d="M45 94l19-19-22 35z" fill="#666118" fill-opacity=".58"/><path d="M113 78l-2 10-14-14z" fill="#D1D5D5" fill-opacity=".53"/><path d="M52 46l-3-16-6 26z" fill="#7D8054" fill-opacity=".44"/><path d="M118 38l1 19-34-12z" fill="#6B6F3C" fill-opacity=".43"/><path d="M91 129l17 2-18 42z" fill="#261009" fill-opacity=".57"/><path d="M29 26l-1 23L3 35z" fill="#0D180A" fill-opacity=".55"/><path d="M74 104l16 2-20-6z" fill="#434B7D" fill-opacity=".53"/><path d="M18 3l-1-83 6 84z" fill="#12261A" fill-opacity=".53"/><path d="M139 127v11l5-10z" fill="#BCD4BA" fill-opacity=".47"/><path d="M50 8l5 13-10-8z" fill="#222801" fill-opacity=".47"/><path d="M167 154l-14 13-2-14z" fill="#3F383E" fill-opacity=".51"/><path d="M134 95l-17-7 8-8z" fill="#2D2836" fill-opacity=".6"/><path d="M45 113l8 17 1-17z" fill="#252149" fill-opacity=".57"/><path d="M138 33l18 40-15-51z" fill="#FBFAF9" fill-opacity=".51"/><path d="M71 56V38l-5 15z" fill="#A2A67F" fill-opacity=".5"/><path d="M93 57l3 17 24-4z" fill="#060721" fill-opacity=".46"/><path d="M106 61l26 12 4-17z" fill="#FDFEFF" fill-opacity=".46"/><path d="M49 89l6-1-6-6z" fill="#FF5" fill-opacity=".36"/><path d="M40 80l10 14-9-25z" fill="#93902A" fill-opacity=".51"/><path d="M98 27l7 4H91z" fill="#9EA08A" fill-opacity=".43"/><path d="M55 115l8 29H41z" fill="#14090E" fill-opacity=".52"/><path d="M40 24l11 4-10 3z" fill="#A4C3C5" fill-opacity=".53"/><path d="M50 109l8 19-7-31z" fill="#989E62" fill-opacity=".38"/><path d="M127 45l11 4-10-1z" fill="#EAE8F4" fill-opacity=".52"/><path d="M67 138l-11-2-4-4z" fill="#676743" fill-opacity=".49"/><path d="M128 103l7-18 6 24z" fill="#A2A84A" fill-opacity=".29"/><path d="M120 10h-18l1-9z" fill="#979796" fill-opacity=".36"/><path d="M187 157l-18-10-6 29z" fill="#020301" fill-opacity=".55"/><path d="M73 98l-2 2-6-9z" fill="#C6CE8B" fill-opacity=".54"/><path d="M66 172l2 11 14-16z" fill="#6B5A52" fill-opacity=".46"/><path d="M185 109l30-31-38 20z" fill="#555A02" fill-opacity=".58"/><path d="M121 57l-15-3 10-2z" fill="#50582C" fill-opacity=".5"/><path d="M190 99l27 33-33-6z" fill="#868F9F" fill-opacity=".69"/><path d="M97 204l-5-19-15 10z" fill="#1D1715" fill-opacity=".55"/><path d="M121 67l-39 3 24-7z" fill="#171A2A" fill-opacity=".51"/><path d="M111 152h-5l7-18z" fill="#726876" fill-opacity=".5"/><path d="M117 93l1-8-11 25z" fill="#9D9FA5" fill-opacity=".52"/><path d="M128 43l-1 7 5 10z" fill="#D7D7D4" fill-opacity=".75"/><path d="M178 104l-8 3-1-12z" fill="#000010" fill-opacity=".52"/><path d="M72 9l-5 11 7-24z" fill="#23220F" fill-opacity=".5"/><path d="M174 243l2 26-31-25z" fill="#060C12" fill-opacity=".32"/><path d="M26 67l-6-3-5 8z" fill="#9B8F5A" fill-opacity=".55"/></svg>