<svg xmlns="http://www.w3.org/2000/svg" viewBox="0 0 256 192" clip-path="url(#a)" width="512" height="384"><defs><clipPath id="a" clipPathUnits="objectBoundingBox"><path d="M0 0h256v192H0z"/></clipPath></defs><path fill="#080708" d="M0 0h256v192H0z"/><path d="M26 104l-6-16-19 16z" fill="#BA9840" fill-opacity=".45"/><path d="M153 131l-29-81-8 79z" fill="#2F7AB2" fill-opacity=".51"/><path d="M91 86l4 29 17-33z" fill="#1A2FAC" fill-opacity=".46"/><path d="M144 81l1 50-9-3z" fill="#59FEC0" fill-opacity=".57"/><path d="M198 101l5-22-18-6z" fill="#C54910" fill-opacity=".39"/><path d="M112 112l26-31-18 49z" fill="#203EBE" fill-opacity=".5"/><path d="M75 74l85-52-13 87z" fill="#0F1431" fill-opacity=".63"/><path d="M94 102l11 13-7-25z" fill="#2246F8" fill-opacity=".38"/><path d="M56 117l-65-2 22 20z" fill="#14113B" fill-opacity=".76"/><path d="M144 128l-2-16-3 16z" fill="#FFF" fill-opacity=".59"/><path d="M129 118l-32-9h27z" fill="#4492CD" fill-opacity=".48"/><path d="M16 99l18-7-36 4z" fill="#978340" fill-opacity=".46"/><path d="M82 125l47-3-3 18z" fill="#11111B" fill-opacity=".67"/><path d="M137 147l73-57-62 27z" fill="#0B0C0D" fill-opacity=".72"/><path d="M10 93h10l-3 9z" fill="#FFF26F" fill-opacity=".49"/><path d="M128 106l-12 6 5 12z" fill="#4977E2" fill-opacity=".6"/><path d="M183 75l19 1-16 5z" fill="#C35F14" fill-opacity=".43"/><path d="M8 118l37-4-16-28z" fill="#120E0C" fill-opacity=".48"/><path d="M148 112l-14 15 7-33z" fill="#10E191" fill-opacity=".37"/><path d="M125 129l16-76 6 34z" fill="#0F2839" fill-opacity=".85"/><path d="M116 96l9 21 14-37z" fill="#0013D2" fill-opacity=".25"/><path d="M143 12h40l-38 24z" fill="#030304" fill-opacity=".65"/><path d="M105 52l15 80-20-8z" fill="#131B24" fill-opacity=".48"/><path d="M135 104l10 7 2-42z" fill="#075E37" fill-opacity=".37"/><path d="M85 128l10-93-115 33z" fill="#030303" fill-opacity=".73"/><path d="M129 171l19 6-22-4z" fill="#5C7596" fill-opacity=".3"/><path d="M95 62l21-12-25 12z" fill="#10194D" fill-opacity=".54"/><path d="M131 176l-2-4 3-3z" fill="#A8C2F2" fill-opacity=".44"/><path d="M87 56l19-40-22 13z" fill="#0D1819" fill-opacity=".46"/><path d="M160 29l-21 8 16-3z" fill="#0C2372" fill-opacity=".56"/><path d="M191 110l2-29-15-4z" fill="#180F0B" fill-opacity=".67"/><path d="M132 100l-15-21 4 22z" fill="#0C1A76" fill-opacity=".5"/><path d="M144 117l-6 11 3-19z" fill="#96FDE8" fill-opacity=".65"/><path d="M235 48l-121 6-14 43z" fill="#120E24" fill-opacity=".45"/><path d="M189 80l-8-3 29-5z" fill="#88400F" fill-opacity=".3"/><path d="M133 127l-5 1-1-10z" fill="#54897C" fill-opacity=".52"/><path d="M17 105l-40-58 12 84z" fill="#110E0B" fill-opacity=".64"/><path d="M111 210l-47-17 2-46z" fill="#150D16" fill-opacity=".56"/><path d="M106 89l-7-19-11 21z" fill="#11123F" fill-opacity=".58"/><path d="M250 134l-4-120-49 71z" fill="#0C0B0C" fill-opacity=".72"/><path d="M127 191l18-47 128 49z" fill="#040404" fill-opacity=".74"/><path d="M200 97V75h-11z" fill="#8B340C" fill-opacity=".51"/><path d="M99 114l-27 47 21-57z" fill="#040505" fill-opacity=".67"/><path d="M19 101l-3 3-2-15z" fill="#F7D76E" fill-opacity=".41"/><path d="M15 97l-28 2 24-11z" fill="#2A2111" fill-opacity=".56"/><path d="M160 109l16 9V84z" fill="#101020" fill-opacity=".54"/><path d="M124 131l2-17 22-51z" fill="#0C1928" fill-opacity=".47"/><path d="M136 128l21 22-42-22z" fill="#15171D" fill-opacity=".53"/><path d="M149 43l20-25-23 98z" fill="#0C0C13" fill-opacity=".7"/><path d="M43 122l11 16-40-12z" fill="#060608" fill-opacity=".61"/><path d="M77 143h-3l5 5z" fill="#6F7E91" fill-opacity=".43"/><path d="M6 123l-16 89 139-15z" fill="#100B13" fill-opacity=".49"/><path d="M114 85l16 10 16-31z" fill="#0F194E" fill-opacity=".51"/><path d="M21 99h5L14 82z" fill="#402808" fill-opacity=".43"/><path d="M18 89l-7 5 25-2z" fill="#33230F" fill-opacity=".49"/><path d="M90 105L85-57-47 36z" fill="#020202" fill-opacity=".69"/><path d="M133 60l17-57-10-52z" fill="#100F1B" fill-opacity=".55"/><path d="M94 105l5 5v-10z" fill="#2D50FB" fill-opacity=".46"/><path d="M123 121l-2-7 7-8z" fill="#4A84E8" fill-opacity=".54"/><path d="M44 119l-19 6-35-4z" fill="#23196A" fill-opacity=".43"/><path d="M108 51l-7 59 20-2z" fill="#11101D" fill-opacity=".54"/><path d="M63 152l6 1 2-3z" fill="#566375" fill-opacity=".43"/><path d="M147 132l-1-60 24 48z" fill="#050705" fill-opacity=".6"/><path d="M140 113l-5-3v22z" fill="#00B678" fill-opacity=".42"/><path d="M131 84l10-14-2 13z" fill="#0E2F58" fill-opacity=".55"/><path d="M121 106l-7 20h3z" fill="#406FB7" fill-opacity=".43"/><path d="M135 91l-4 16 8-5z" fill="#0D0C1F" fill-opacity=".48"/><path d="M134 111h3l1 1z" fill="#5DFFC9" fill-opacity=".5"/><path d="M138 37l-28 17 23 36z" fill="#100E2B" fill-opacity=".47"/><path d="M218 136l-40-8 4 8z" fill="#100E1E" fill-opacity=".58"/><path d="M118 102l-3-37-14 34z" fill="#100F1A" fill-opacity=".72"/><path d="M164 118l-26-9 40 8z" fill="#04130F" fill-opacity=".47"/><path d="M137 123l-3-16-2 22z" fill="#036446" fill-opacity=".49"/><path d="M12 51l-8 76-12-49z" fill="#060608" fill-opacity=".46"/><path d="M105 111l9-1-4-2z" fill="#38CF95" fill-opacity=".42"/><path d="M144 104l-1 16 3 3z" fill="#06D496" fill-opacity=".48"/><path d="M197 71l31-135 4 206z" fill="#09090B" fill-opacity=".74"/><path d="M14 99l1-7 4 7z" fill="#FBED92" fill-opacity=".5"/><path d="M123 122l-6-15 1 13z" fill="#638EC3" fill-opacity=".49"/><path d="M140 110l-3-27-7 30z" fill="#0B2322" fill-opacity=".38"/><path d="M252 159l28-22-22 10z" fill="#212D27" fill-opacity=".59"/><path d="M79 119L23 90l60 7z" fill="#0B0B0B" fill-opacity=".46"/><path d="M93 107l6 3 7-5z" fill="#141D63" fill-opacity=".49"/><path d="M16 93l1 4 3-2z" fill="#FFFFB9" fill-opacity=".55"/><path d="M11 97l5 11 5-3z" fill="#705221" fill-opacity=".48"/><path d="M54 143l-3-2 7 2z" fill="#696E7B" fill-opacity=".39"/><path d="M144 121l-3-10-3 13z" fill="#ADFFF8" fill-opacity=".47"/><path d="M134 111h12l-18-3z" fill="#002723" fill-opacity=".52"/><path d="M92 96l9 9-4 4z" fill="#223FCD" fill-opacity=".51"/><path d="M28 97l-11 6 4-12z" fill="#523811" fill-opacity=".51"/><path d="M18 98l-3-3 3-3z" fill="#FFFFDC" fill-opacity=".47"/><path d="M235 32l-23-17-33 21z" fill="#0B0B12" fill-opacity=".61"/><path d="M186 57l-41 25-4-22z" fill="#121221" fill-opacity=".59"/><path d="M194 85l-1 12 9-3z" fill="#72210B" fill-opacity=".59"/><path d="M5 139l5-16 24 9z" fill="#040928" fill-opacity=".46"/><path d="M73 67l16-46 15 12z" fill="#0E1417" fill-opacity=".39"/><path d="M131 104l-13-2 3 10z" fill="#143DC7" fill-opacity=".49"/><path d="M161 18l5 27h-12z" fill="#100D1A" fill-opacity=".59"/><path d="M49 115l4 8-40-7z" fill="#19173D" fill-opacity=".44"/><path d="M109 114v-2l30-4z" fill="#17517B" fill-opacity=".46"/><path d="M193 79l-11 17 4 7z" fill="#1E120F" fill-opacity=".64"/><path d="M141 130l-15-3 12-3z" fill="#40C897" fill-opacity=".42"/><path d="M40 102l52 32-20 12z" fill="#030404" fill-opacity=".56"/><path d="M120 124l16-16-18 21z" fill="#071624" fill-opacity=".44"/><path d="M23 95L7 92l13 1z" fill="#614400" fill-opacity=".53"/><path d="M144 105l1-13 1 37z" fill="#05875D" fill-opacity=".47"/><path d="M190 83l16-1-15 4z" fill="#280B08" fill-opacity=".47"/><path d="M166 230l57-90-68 19z" fill="#020202" fill-opacity=".47"/><path d="M108 123l-7-1 5-34z" fill="#131523" fill-opacity=".73"/><path d="M115 132v-12l-15 5z" fill="#070807" fill-opacity=".47"/><path d="M119 94l-4 20 4-10z" fill="#040F22" fill-opacity=".62"/><path d="M131 114l6 14-11-6z" fill="#0E514F" fill-opacity=".53"/><path d="M165 128l8-17-8 24z" fill="#1E1920" fill-opacity=".44"/><path d="M129 93l14-30-28 12z" fill="#111441" fill-opacity=".38"/><path d="M62 72l65-55 12 22z" fill="#040405" fill-opacity=".8"/><path d="M215 84l33-11 27 46z" fill="#100E0F" fill-opacity=".41"/><path d="M132 169l-2 1 2 8z" fill="#6F7A8C" fill-opacity=".53"/><path d="M92 16l1 2-9 21z" fill="#142220" fill-opacity=".5"/><path d="M95 70l6 22-11 7z" fill="#0E1450" fill-opacity=".45"/><path d="M131 171l-65-33 108 22z" fill="#040404" fill-opacity=".69"/><path d="M178 151l34-7-10-13z" fill="#110C0F" fill-opacity=".6"/><path d="M132 129l-6 12 29-9z" fill="#121718" fill-opacity=".68"/><path d="M134 16l37-18-24-12z" fill="#0E0D17" fill-opacity=".55"/><path d="M161 30L92 65l48-2z" fill="#0F0E21" fill-opacity=".71"/><path d="M23 179l36 7-39 29z" fill="#170D17" fill-opacity=".45"/><path d="M138 202l-74-45 26-23z" fill="#040505" fill-opacity=".72"/><path d="M103 122l-3 11-7-7z" fill="#11112A" fill-opacity=".55"/><path d="M217 134l21-33 2 30z" fill="#0D0D0E" fill-opacity=".57"/><path d="M73 134l28 7 17-21z" fill="#0C0C11" fill-opacity=".36"/><path d="M16 125l19-7-59 7z" fill="#1E1565" fill-opacity=".36"/><path d="M12 97V87L1 102z" fill="#251F13" fill-opacity=".58"/><path d="M94 27h10l-13 9z" fill="#0E2223" fill-opacity=".44"/><path d="M122 174l16 38-4-38z" fill="#0A0A0D" fill-opacity=".6"/><path d="M146 92l-6-19-4 26z" fill="#113E37" fill-opacity=".53"/><path d="M168 91l-9-24 61-23z" fill="#0C0B11" fill-opacity=".54"/><path d="M124 122l-14 24-8-13z" fill="#0C0A0E" fill-opacity=".54"/><path d="M146 112l-1 9-5-22z" fill="#00F3B2" fill-opacity=".23"/><path d="M199 86l5-28 3 62z" fill="#090708" fill-opacity=".59"/><path d="M44 151l21-22-15-1z" fill="#110C0E" fill-opacity=".49"/><path d="M184 82l-14 17 6-28z" fill="#020401" fill-opacity=".48"/><path d="M249 20l-4 33 20-18z" fill="#0E0E10" fill-opacity=".45"/><path d="M98 112l-3-4-10 29z" fill="#050604" fill-opacity=".51"/><path d="M152 34l-24 10 30-15z" fill="#102572" fill-opacity=".46"/><path d="M106 3L92 13l16 10z" fill="#090F0D" fill-opacity=".48"/><path d="M142 129l2-8-7 3z" fill="#ECFFFF" fill-opacity=".41"/><path d="M-4 119l20-3L1 90z" fill="#09090A" fill-opacity=".56"/><path d="M23 92l-39 7 42-10z" fill="#3C2C14" fill-opacity=".49"/><path d="M216 179l-5 6-1-23z" fill="#0D0B10" fill-opacity=".58"/><path d="M151 122l12-7-11 3z" fill="#0D1D19" fill-opacity=".49"/><path d="M103 106h-8l-4-16z" fill="#1434CD" fill-opacity=".31"/><path d="M124 119l2-7-11 5z" fill="#4C87D5" fill-opacity=".45"/><path d="M147 55l-2-1-4 11z" fill="#0C1038" fill-opacity=".5"/><path d="M122 103v10l2-7z" fill="#2755DE" fill-opacity=".55"/><path d="M19 92l5 2 18-7z" fill="#07070A" fill-opacity=".57"/><path d="M146 93l-6 16V85z" fill="#0B7053" fill-opacity=".34"/><path d="M75 112l1 4v-5z" fill="#48556F" fill-opacity=".51"/><path d="M105 134l-3 5-6-2z" fill="#191724" fill-opacity=".44"/><path d="M123 121l-9 8 13-8z" fill="#0B1324" fill-opacity=".6"/><path d="M193 128h-18l7 8z" fill="#100F1B" fill-opacity=".48"/><path d="M164 105V72l10 49z" fill="#101120" fill-opacity=".44"/><path d="M119 71l-4-12 26 11z" fill="#11112D" fill-opacity=".68"/><path d="M145 83l18 41-1-48z" fill="#010000" fill-opacity=".53"/><path d="M15 88l9 6-11-4z" fill="#312211" fill-opacity=".49"/><path d="M205 162l11 22-10-41z" fill="#0D0B0F" fill-opacity=".64"/><path d="M18 102l-4-8-3 5z" fill="#FFCC02" fill-opacity=".22"/><path d="M117 110l3 9-5-7z" fill="#032B99" fill-opacity=".45"/><path d="M199 97l-2-23-4 18z" fill="#7D2C0D" fill-opacity=".48"/><path d="M75 143l60 23-7-28z" fill="#040404" fill-opacity=".69"/><path d="M115 115l-5-4-3 1z" fill="#2E9355" fill-opacity=".33"/><path d="M101 124l-5-11 6 7z" fill="#040407" fill-opacity=".48"/><path d="M93 92v-5L73 49z" fill="#090A10" fill-opacity=".39"/><path d="M134 38l8-41-1 58z" fill="#0E0E18" fill-opacity=".69"/><path d="M122 48l-12 7 2-4z" fill="#10185B" fill-opacity=".41"/><path d="M98 106l-3 5 6-5z" fill="#141A45" fill-opacity=".51"/><path d="M-20 125H9l-4 25z" fill="#04050B" fill-opacity=".57"/><path d="M138 22l41-33-4 22z" fill="#020302" fill-opacity=".6"/><path d="M108 116l4 1 18 18z" fill="#090B19" fill-opacity=".56"/><path d="M164 7l-23 20 27 5z" fill="#040402" fill-opacity=".38"/><path d="M31 99l-4 12 40-5z" fill="#010203" fill-opacity=".48"/><path d="M126 113v1l-5 4z" fill="#599AE5" fill-opacity=".5"/><path d="M137 124l3-4v4z" fill="#52F2CC" fill-opacity=".57"/><path d="M18 101l-4 1 3-5z" fill="#EACA30" fill-opacity=".56"/><path d="M128 2l2-9-18 18z" fill="#101C19" fill-opacity=".5"/><path d="M123 93l-4 6 2 19z" fill="#1737A8" fill-opacity=".58"/><path d="M77 145v-1l-8 1z" fill="#596065" fill-opacity=".51"/><path d="M118 112v-6l2 9z" fill="#96C4E7" fill-opacity=".41"/><path d="M105 105l1-48 10 1z" fill="#0F0D17" fill-opacity=".64"/><path d="M20 97l2 14h-8z" fill="#17100B" fill-opacity=".43"/><path d="M126 136l21 20 49-8z" fill="#0E0B0B" fill-opacity=".48"/><path d="M182 70l36-2-36 8z" fill="#060504" fill-opacity=".57"/><path d="M198 97l-23 7 45 4z" fill="#0B0908" fill-opacity=".6"/><path d="M136 75l-1 11 6-12z" fill="#0F316A" fill-opacity=".4"/><path d="M15 89l-7 11 1-12z" fill="#282115" fill-opacity=".56"/><path d="M129 126l-3-1 4 4z" fill="#869392" fill-opacity=".51"/><path d="M99 55L81 72V36z" fill="#08080A" fill-opacity=".57"/><path d="M28 124H9l11 17z" fill="#080B27" fill-opacity=".4"/><path d="M159 121l1-2-6-5z" fill="#0E3027" fill-opacity=".47"/><path d="M118 110l7-1h-7z" fill="#6EADFF" fill-opacity=".52"/><path d="M12 183l-23-5 21 17z" fill="#150E15" fill-opacity=".54"/><path d="M61 135l19-32H60z" fill="#030303" fill-opacity=".61"/></svg>